<?xml version="1.0" encoding="UTF-8"?>
<svg width="742.0" height="2200.0" viewBox="0 0 742.0 2200.0" xmlns="http://www.w3.org/2000/svg" font-family="Arial, Helvetica, sans-serif">
<defs>
  <filter id="hierarchicalShadow" x="-20%" y="-20%" width="140%" height="140%">
    <feGaussianBlur in="SourceAlpha" stdDeviation="5"/>
    <feOffset dx="2" dy="2" result="offsetblur"/>
    <feFlood flood-color="rgba(0,0,0,0.1)" flood-opacity="0.8"/>
    <feComposite in2="offsetblur" operator="in"/>
    <feMerge>
      <feMergeNode/>
      <feMergeNode in="SourceGraphic"/>
    </feMerge>
  </filter>
  <filter id="outlineWhite">
    <feMorphology in="SourceAlpha" result="DILATED" operator="dilate" radius="2"/>
    <feFlood flood-color="white" flood-opacity="0.7" result="WHITE"/>
    <feComposite in="WHITE" in2="DILATED" operator="in" result="OUTLINE"/>
    <feMerge>
      <feMergeNode in="OUTLINE"/>
      <feMergeNode in="SourceGraphic"/>
    </feMerge>
  </filter>
  <linearGradient id="hierarchicalEdgeGradient" x1="0%" y1="0%" x2="100%" y2="100%">
    <stop offset="0%" stop-color="#6c757d" stop-opacity="0.4"/>
    <stop offset="100%" stop-color="#495057" stop-opacity="0.4"/>
  </linearGradient>
  <linearGradient id="edgeGradient" x1="0%" y1="0%" x2="100%" y2="100%">
    <stop offset="0%" stop-color="green" stop-opacity="0.3"/>
    <stop offset="100%" stop-color="blue" stop-opacity="0.3"/>
  </linearGradient>
</defs>
<style>
  .hierarchicalBackground { fill: #ffffff; stroke: #dee2e6; stroke-width: 2; rx: 12; ry: 12; filter: url(#hierarchicalShadow); }
  .hierarchicalBackground:hover { stroke: #007bff; stroke-width: 3; }
  .hierarchicalTitle { fill: #495057; font-size: 16px; font-weight: bold; text-anchor: middle; filter: url(#outlineWhite); }
  .hierarchicalMetric { fill: #6c757d; font-size: 12px; font-weight: normal; text-anchor: middle; }
  .hierarchicalItem { fill: #212529; font-size: 12px; font-weight: normal; cursor: pointer; filter: url(#outlineWhite); }
  .hierarchicalItem:hover { fill: #007bff; font-weight: bold; }
  .hierarchicalEdge { fill: none; stroke: url(#hierarchicalEdgeGradient); stroke-width: 3; }
  .hierarchicalEdge:hover { stroke: #007bff; stroke-width: 4; opacity: 1.0; }
  .hierarchicalBadge { font-size: 8px; font-weight: bold; fill: white; text-anchor: middle; dominant-baseline: middle; }
  .hierarchicalBadge:hover { opacity: 0.8; }
  .fileEdge { fill: none; stroke: url(#edgeGradient); stroke-width: 0.5; }
  .fileEdge:hover { stroke-width: 1; opacity: 1.0; stroke:purple}
  .fileNode { fill: #ffffff; stroke: #d0d7de; stroke-width: 1; }
  g.folderTitleLayer { pointer-events: none; isolation: isolate; }
</style>
<rect width="100%" height="100%" fill="#f8f9fa"/>
<path d="M 75.0 241.0 C 84.0 241.0, 67.0 241.0, 76.0 241.0" class="hierarchicalEdge"/>
<title>. → utils (parent-child)</title>
<path d="M 75.0 531.0 C 84.0 531.0, 67.0 531.0, 76.0 531.0" class="hierarchicalEdge"/>
<title>. → models (parent-child)</title>
<path d="M 75.0 989.0 C 84.0 989.0, 67.0 989.0, 76.0 989.0" class="hierarchicalEdge"/>
<title>. → screens (parent-child)</title>
<path d="M 75.0 1604.0 C 84.0 1604.0, 67.0 1604.0, 76.0 1604.0" class="hierarchicalEdge"/>
<title>. → widgets (parent-child)</title>
<path d="M 75.0 2048.0 C 84.0 2048.0, 67.0 2048.0, 76.0 2048.0" class="hierarchicalEdge"/>
<title>. → theme (parent-child)</title>
<path d="M 109.0 953.0 C 118.0 953.0, 101.0 953.0, 110.0 953.0" class="hierarchicalEdge"/>
<title>screens → game (parent-child)</title>
<path d="M 109.0 1128.0 C 118.0 1128.0, 101.0 1128.0, 110.0 1128.0" class="hierarchicalEdge"/>
<title>screens → keepscore (parent-child)</title>
<path d="M 109.0 1649.0 C 118.0 1649.0, 101.0 1649.0, 110.0 1649.0" class="hierarchicalEdge"/>
<title>widgets → player (parent-child)</title>
<path d="M 109.0 1841.0 C 118.0 1841.0, 101.0 1841.0, 110.0 1841.0" class="hierarchicalEdge"/>
<title>widgets → cards (parent-child)</title>
<g class="folderLayer">
<rect x="50.0" y="50.0" width="360.0" height="2100.0" rx="12" ry="12" class="hierarchicalBackground"/>
</g>
<g class="hierarchicalBadge">
<circle cx="50.0" cy="54.0" r="8.0" fill="#007bff" opacity="0.85"/>
<text x="50.0" y="56.0">11</text>
</g>
<g class="hierarchicalBadge">
<circle cx="50.0" cy="2146.0" r="8.0" fill="#28a745" opacity="0.85"/>
<text x="50.0" y="2148.0">7</text>
</g>
<g class="folderLayer">
<rect x="84.0" y="168.0" width="260.0" height="146.0" rx="12" ry="12" class="hierarchicalBackground"/>
</g>
<g class="hierarchicalBadge">
<circle cx="84.0" cy="172.0" r="8.0" fill="#007bff" opacity="0.85"/>
<text x="84.0" y="174.0">1</text>
</g>
<g class="folderLayer">
<rect x="84.0" y="332.0" width="260.0" height="398.0" rx="12" ry="12" class="hierarchicalBackground"/>
</g>
<g class="hierarchicalBadge">
<circle cx="84.0" cy="336.0" r="8.0" fill="#007bff" opacity="0.85"/>
<text x="84.0" y="338.0">26</text>
</g>
<g class="hierarchicalBadge">
<circle cx="84.0" cy="726.0" r="8.0" fill="#28a745" opacity="0.85"/>
<text x="84.0" y="728.0">2</text>
</g>
<g class="folderLayer">
<rect x="84.0" y="748.0" width="310.0" height="482.0" rx="12" ry="12" class="hierarchicalBackground"/>
</g>
<g class="hierarchicalBadge">
<circle cx="84.0" cy="752.0" r="8.0" fill="#007bff" opacity="0.85"/>
<text x="84.0" y="754.0">5</text>
</g>
<g class="folderLayer">
<rect x="118.0" y="866.0" width="260.0" height="174.0" rx="12" ry="12" class="hierarchicalBackground"/>
</g>
<g class="hierarchicalBadge">
<circle cx="118.0" cy="870.0" r="8.0" fill="#007bff" opacity="0.85"/>
<text x="118.0" y="872.0">2</text>
</g>
<g class="hierarchicalBadge">
<circle cx="118.0" cy="1036.0" r="8.0" fill="#28a745" opacity="0.85"/>
<text x="118.0" y="1038.0">26</text>
</g>
<g class="folderLayer">
<rect x="118.0" y="1058.0" width="260.0" height="140.0" rx="12" ry="12" class="hierarchicalBackground"/>
</g>
<g class="hierarchicalBadge">
<circle cx="118.0" cy="1062.0" r="8.0" fill="#007bff" opacity="0.85"/>
<text x="118.0" y="1064.0">1</text>
</g>
<g class="hierarchicalBadge">
<circle cx="118.0" cy="1194.0" r="8.0" fill="#28a745" opacity="0.85"/>
<text x="118.0" y="1196.0">5</text>
</g>
<g class="folderLayer">
<rect x="84.0" y="1248.0" width="310.0" height="712.0" rx="12" ry="12" class="hierarchicalBackground"/>
</g>
<g class="hierarchicalBadge">
<circle cx="84.0" cy="1252.0" r="8.0" fill="#007bff" opacity="0.85"/>
<text x="84.0" y="1254.0">13</text>
</g>
<g class="hierarchicalBadge">
<circle cx="84.0" cy="1956.0" r="8.0" fill="#28a745" opacity="0.85"/>
<text x="84.0" y="1958.0">6</text>
</g>
<g class="folderLayer">
<rect x="118.0" y="1562.0" width="260.0" height="174.0" rx="12" ry="12" class="hierarchicalBackground"/>
</g>
<g class="hierarchicalBadge">
<circle cx="118.0" cy="1566.0" r="8.0" fill="#007bff" opacity="0.85"/>
<text x="118.0" y="1568.0">1</text>
</g>
<g class="hierarchicalBadge">
<circle cx="118.0" cy="1732.0" r="8.0" fill="#28a745" opacity="0.85"/>
<text x="118.0" y="1734.0">11</text>
</g>
<g class="folderLayer">
<rect x="118.0" y="1754.0" width="260.0" height="174.0" rx="12" ry="12" class="hierarchicalBackground"/>
</g>
<g class="hierarchicalBadge">
<circle cx="118.0" cy="1758.0" r="8.0" fill="#007bff" opacity="0.85"/>
<text x="118.0" y="1760.0">3</text>
</g>
<g class="hierarchicalBadge">
<circle cx="118.0" cy="1924.0" r="8.0" fill="#28a745" opacity="0.85"/>
<text x="118.0" y="1926.0">7</text>
</g>
<g class="folderLayer">
<rect x="84.0" y="1978.0" width="260.0" height="140.0" rx="12" ry="12" class="hierarchicalBackground"/>
</g>
<g class="hierarchicalBadge">
<circle cx="84.0" cy="1982.0" r="8.0" fill="#007bff" opacity="0.85"/>
<text x="84.0" y="1984.0">1</text>
</g>
<rect x="90.0" y="206.0" width="206.0" height="28.0" rx="5" ry="5" class="fileNode"/>
<rect x="90.0" y="234.0" width="206.0" height="28.0" rx="5" ry="5" class="fileNode"/>
<rect x="90.0" y="262.0" width="206.0" height="28.0" rx="5" ry="5" class="fileNode"/>
<rect x="90.0" y="370.0" width="206.0" height="28.0" rx="5" ry="5" class="fileNode"/>
<rect x="90.0" y="398.0" width="206.0" height="28.0" rx="5" ry="5" class="fileNode"/>
<rect x="90.0" y="426.0" width="206.0" height="28.0" rx="5" ry="5" class="fileNode"/>
<rect x="90.0" y="454.0" width="206.0" height="28.0" rx="5" ry="5" class="fileNode"/>
<rect x="90.0" y="482.0" width="206.0" height="28.0" rx="5" ry="5" class="fileNode"/>
<rect x="90.0" y="510.0" width="206.0" height="28.0" rx="5" ry="5" class="fileNode"/>
<rect x="90.0" y="538.0" width="206.0" height="28.0" rx="5" ry="5" class="fileNode"/>
<rect x="90.0" y="566.0" width="206.0" height="28.0" rx="5" ry="5" class="fileNode"/>
<rect x="90.0" y="594.0" width="206.0" height="28.0" rx="5" ry="5" class="fileNode"/>
<rect x="90.0" y="622.0" width="206.0" height="28.0" rx="5" ry="5" class="fileNode"/>
<rect x="90.0" y="650.0" width="206.0" height="28.0" rx="5" ry="5" class="fileNode"/>
<rect x="90.0" y="678.0" width="206.0" height="28.0" rx="5" ry="5" class="fileNode"/>
<rect x="124.0" y="904.0" width="206.0" height="28.0" rx="5" ry="5" class="fileNode"/>
<rect x="124.0" y="932.0" width="206.0" height="28.0" rx="5" ry="5" class="fileNode"/>
<rect x="124.0" y="960.0" width="206.0" height="28.0" rx="5" ry="5" class="fileNode"/>
<rect x="124.0" y="988.0" width="206.0" height="28.0" rx="5" ry="5" class="fileNode"/>
<rect x="124.0" y="1096.0" width="206.0" height="28.0" rx="5" ry="5" class="fileNode"/>
<rect x="90.0" y="786.0" width="206.0" height="28.0" rx="5" ry="5" class="fileNode"/>
<rect x="90.0" y="814.0" width="206.0" height="28.0" rx="5" ry="5" class="fileNode"/>
<rect x="124.0" y="1600.0" width="206.0" height="28.0" rx="5" ry="5" class="fileNode"/>
<rect x="124.0" y="1628.0" width="206.0" height="28.0" rx="5" ry="5" class="fileNode"/>
<rect x="124.0" y="1656.0" width="206.0" height="28.0" rx="5" ry="5" class="fileNode"/>
<rect x="124.0" y="1684.0" width="206.0" height="28.0" rx="5" ry="5" class="fileNode"/>
<rect x="124.0" y="1792.0" width="206.0" height="28.0" rx="5" ry="5" class="fileNode"/>
<rect x="124.0" y="1820.0" width="206.0" height="28.0" rx="5" ry="5" class="fileNode"/>
<rect x="124.0" y="1848.0" width="206.0" height="28.0" rx="5" ry="5" class="fileNode"/>
<rect x="124.0" y="1876.0" width="206.0" height="28.0" rx="5" ry="5" class="fileNode"/>
<rect x="90.0" y="1286.0" width="206.0" height="28.0" rx="5" ry="5" class="fileNode"/>
<rect x="90.0" y="1314.0" width="206.0" height="28.0" rx="5" ry="5" class="fileNode"/>
<rect x="90.0" y="1342.0" width="206.0" height="28.0" rx="5" ry="5" class="fileNode"/>
<rect x="90.0" y="1370.0" width="206.0" height="28.0" rx="5" ry="5" class="fileNode"/>
<rect x="90.0" y="1398.0" width="206.0" height="28.0" rx="5" ry="5" class="fileNode"/>
<rect x="90.0" y="1426.0" width="206.0" height="28.0" rx="5" ry="5" class="fileNode"/>
<rect x="90.0" y="1454.0" width="206.0" height="28.0" rx="5" ry="5" class="fileNode"/>
<rect x="90.0" y="1482.0" width="206.0" height="28.0" rx="5" ry="5" class="fileNode"/>
<rect x="90.0" y="1510.0" width="206.0" height="28.0" rx="5" ry="5" class="fileNode"/>
<rect x="90.0" y="2016.0" width="206.0" height="28.0" rx="5" ry="5" class="fileNode"/>
<rect x="56.0" y="88.0" width="206.0" height="28.0" rx="5" ry="5" class="fileNode"/>
<rect x="56.0" y="116.0" width="206.0" height="28.0" rx="5" ry="5" class="fileNode"/>
<path d="M 282.0 226.0 H 304.0 Q 310.0 226.0 310.0 232.0 V 236.0 Q 310.0 242.0 304.0 242.0 H 282.0" class="fileEdge"/>
<title>utils/browser_utils.dart → utils/browser_utils_stub.dart</title>
<path d="M 282.0 390.0 H 305.0 Q 311.0 390.0 311.0 396.0 V 400.0 Q 311.0 406.0 305.0 406.0 H 282.0" class="fileEdge"/>
<title>models/game_model.dart → models/backend_model.dart</title>
<path d="M 282.0 390.0 H 306.0 Q 312.0 390.0 312.0 396.0 V 456.0 Q 312.0 462.0 306.0 462.0 H 282.0" class="fileEdge"/>
<title>models/game_model.dart → models/deck_model.dart</title>
<path d="M 282.0 390.0 H 307.0 Q 313.0 390.0 313.0 396.0 V 428.0 Q 313.0 434.0 307.0 434.0 H 282.0" class="fileEdge"/>
<title>models/game_model.dart → models/game_history.dart</title>
<path d="M 282.0 390.0 H 308.0 Q 314.0 390.0 314.0 396.0 V 484.0 Q 314.0 490.0 308.0 490.0 H 282.0" class="fileEdge"/>
<title>models/game_model.dart → models/game_styles.dart</title>
<path d="M 282.0 390.0 H 309.0 Q 315.0 390.0 315.0 396.0 V 568.0 Q 315.0 574.0 309.0 574.0 H 282.0" class="fileEdge"/>
<title>models/game_model.dart → models/player_model.dart</title>
<path d="M 282.0 390.0 H 310.0 Q 316.0 390.0 316.0 396.0 V 456.0 Q 316.0 462.0 310.0 462.0 H 282.0" class="fileEdge"/>
<title>models/game_model.dart → models/deck_model.dart</title>
<path d="M 282.0 390.0 H 311.0 Q 317.0 390.0 317.0 396.0 V 568.0 Q 317.0 574.0 311.0 574.0 H 282.0" class="fileEdge"/>
<title>models/game_model.dart → models/player_model.dart</title>
<path d="M 282.0 642.0 H 312.0 Q 318.0 642.0 318.0 648.0 V 652.0 Q 318.0 658.0 312.0 658.0 H 282.0" class="fileEdge"/>
<title>models/hand_model.dart → models/card_model.dart</title>
<path d="M 282.0 642.0 H 313.0 Q 319.0 642.0 319.0 648.0 V 652.0 Q 319.0 658.0 313.0 658.0 H 282.0" class="fileEdge"/>
<title>models/hand_model.dart → models/card_model.dart</title>
<path d="M 282.0 586.0 H 314.0 Q 320.0 586.0 320.0 580.0 V 102.0 Q 320.0 96.0 314.0 96.0 H 248.0" class="fileEdge"/>
<title>models/player_model.dart → misc.dart</title>
<path d="M 282.0 586.0 H 315.0 Q 321.0 586.0 321.0 592.0 V 624.0 Q 321.0 630.0 315.0 630.0 H 282.0" class="fileEdge"/>
<title>models/player_model.dart → models/hand_model.dart</title>
<path d="M 282.0 586.0 H 316.0 Q 322.0 586.0 322.0 592.0 V 596.0 Q 322.0 602.0 316.0 602.0 H 282.0" class="fileEdge"/>
<title>models/player_model.dart → models/player_status.dart</title>
<path d="M 282.0 586.0 H 317.0 Q 323.0 586.0 323.0 592.0 V 652.0 Q 323.0 658.0 317.0 658.0 H 282.0" class="fileEdge"/>
<title>models/player_model.dart → models/card_model.dart</title>
<path d="M 282.0 586.0 H 318.0 Q 324.0 586.0 324.0 592.0 V 624.0 Q 324.0 630.0 318.0 630.0 H 282.0" class="fileEdge"/>
<title>models/player_model.dart → models/hand_model.dart</title>
<path d="M 282.0 586.0 H 319.0 Q 325.0 586.0 325.0 592.0 V 596.0 Q 325.0 602.0 319.0 602.0 H 282.0" class="fileEdge"/>
<title>models/player_model.dart → models/player_status.dart</title>
<path d="M 282.0 418.0 H 320.0 Q 326.0 418.0 326.0 412.0 V 102.0 Q 326.0 96.0 320.0 96.0 H 248.0" class="fileEdge"/>
<title>models/backend_model.dart → misc.dart</title>
<path d="M 282.0 418.0 H 321.0 Q 327.0 418.0 327.0 424.0 V 540.0 Q 327.0 546.0 321.0 546.0 H 282.0" class="fileEdge"/>
<title>models/backend_model.dart → models/firebase_options.dart</title>
<path d="M 282.0 418.0 H 322.0 Q 328.0 418.0 328.0 424.0 V 428.0 Q 328.0 434.0 322.0 434.0 H 282.0" class="fileEdge"/>
<title>models/backend_model.dart → models/game_history.dart</title>
<path d="M 282.0 474.0 H 323.0 Q 329.0 474.0 329.0 480.0 V 652.0 Q 329.0 658.0 323.0 658.0 H 282.0" class="fileEdge"/>
<title>models/deck_model.dart → models/card_model.dart</title>
<path d="M 282.0 474.0 H 324.0 Q 330.0 474.0 330.0 480.0 V 512.0 Q 330.0 518.0 324.0 518.0 H 282.0" class="fileEdge"/>
<title>models/deck_model.dart → models/card_model_french.dart</title>
<path d="M 282.0 474.0 H 325.0 Q 331.0 474.0 331.0 480.0 V 484.0 Q 331.0 490.0 325.0 490.0 H 282.0" class="fileEdge"/>
<title>models/deck_model.dart → models/game_styles.dart</title>
<path d="M 282.0 474.0 H 326.0 Q 332.0 474.0 332.0 480.0 V 652.0 Q 332.0 658.0 326.0 658.0 H 282.0" class="fileEdge"/>
<title>models/deck_model.dart → models/card_model.dart</title>
<path d="M 316.0 924.0 H 361.0 Q 367.0 924.0 367.0 918.0 V 412.0 Q 367.0 406.0 361.0 406.0 H 282.0" class="fileEdge"/>
<title>screens/game/join_game_screen.dart → models/backend_model.dart</title>
<path d="M 316.0 924.0 H 362.0 Q 368.0 924.0 368.0 918.0 V 440.0 Q 368.0 434.0 362.0 434.0 H 282.0" class="fileEdge"/>
<title>screens/game/join_game_screen.dart → models/game_history.dart</title>
<path d="M 316.0 924.0 H 363.0 Q 369.0 924.0 369.0 918.0 V 384.0 Q 369.0 378.0 363.0 378.0 H 282.0" class="fileEdge"/>
<title>screens/game/join_game_screen.dart → models/game_model.dart</title>
<path d="M 316.0 924.0 H 364.0 Q 370.0 924.0 370.0 930.0 V 1316.0 Q 370.0 1322.0 364.0 1322.0 H 282.0" class="fileEdge"/>
<title>screens/game/join_game_screen.dart → widgets/game_style.dart</title>
<path d="M 316.0 924.0 H 365.0 Q 371.0 924.0 371.0 918.0 V 496.0 Q 371.0 490.0 365.0 490.0 H 282.0" class="fileEdge"/>
<title>screens/game/join_game_screen.dart → models/game_styles.dart</title>
<path d="M 316.0 924.0 H 366.0 Q 372.0 924.0 372.0 930.0 V 962.0 Q 372.0 968.0 366.0 968.0 H 316.0" class="fileEdge"/>
<title>screens/game/join_game_screen.dart → screens/game/game_screen.dart</title>
<path d="M 316.0 924.0 H 367.0 Q 373.0 924.0 373.0 918.0 V 828.0 Q 373.0 822.0 367.0 822.0 H 282.0" class="fileEdge"/>
<title>screens/game/join_game_screen.dart → screens/screen.dart</title>
<path d="M 316.0 924.0 H 368.0 Q 374.0 924.0 374.0 930.0 V 1344.0 Q 374.0 1350.0 368.0 1350.0 H 282.0" class="fileEdge"/>
<title>screens/game/join_game_screen.dart → widgets/players_in_room_widget.dart</title>
<path d="M 316.0 924.0 H 369.0 Q 375.0 924.0 375.0 930.0 V 1372.0 Q 375.0 1378.0 369.0 1378.0 H 282.0" class="fileEdge"/>
<title>screens/game/join_game_screen.dart → widgets/rooms_widget.dart</title>
<path d="M 316.0 1008.0 H 370.0 Q 376.0 1008.0 376.0 1002.0 V 102.0 Q 376.0 96.0 370.0 96.0 H 248.0" class="fileEdge"/>
<title>screens/game/game_over_dialog.dart → misc.dart</title>
<path d="M 316.0 1008.0 H 371.0 Q 377.0 1008.0 377.0 1002.0 V 412.0 Q 377.0 406.0 371.0 406.0 H 282.0" class="fileEdge"/>
<title>screens/game/game_over_dialog.dart → models/backend_model.dart</title>
<path d="M 316.0 1008.0 H 372.0 Q 378.0 1008.0 378.0 1002.0 V 384.0 Q 378.0 378.0 372.0 378.0 H 282.0" class="fileEdge"/>
<title>screens/game/game_over_dialog.dart → models/game_model.dart</title>
<path d="M 316.0 1008.0 H 373.0 Q 379.0 1008.0 379.0 1014.0 V 1288.0 Q 379.0 1294.0 373.0 1294.0 H 282.0" class="fileEdge"/>
<title>screens/game/game_over_dialog.dart → widgets/dialog.dart</title>
<path d="M 316.0 980.0 H 374.0 Q 380.0 980.0 380.0 974.0 V 412.0 Q 380.0 406.0 374.0 406.0 H 282.0" class="fileEdge"/>
<title>screens/game/game_screen.dart → models/backend_model.dart</title>
<path d="M 316.0 980.0 H 375.0 Q 381.0 980.0 381.0 974.0 V 384.0 Q 381.0 378.0 375.0 378.0 H 282.0" class="fileEdge"/>
<title>screens/game/game_screen.dart → models/game_model.dart</title>
<path d="M 316.0 980.0 H 376.0 Q 382.0 980.0 382.0 986.0 V 990.0 Q 382.0 996.0 376.0 996.0 H 316.0" class="fileEdge"/>
<title>screens/game/game_screen.dart → screens/game/game_over_dialog.dart</title>
<path d="M 316.0 980.0 H 377.0 Q 383.0 980.0 383.0 974.0 V 828.0 Q 383.0 822.0 377.0 822.0 H 282.0" class="fileEdge"/>
<title>screens/game/game_screen.dart → screens/screen.dart</title>
<path d="M 316.0 980.0 H 378.0 Q 384.0 980.0 384.0 986.0 V 1602.0 Q 384.0 1608.0 378.0 1608.0 H 316.0" class="fileEdge"/>
<title>screens/game/game_screen.dart → widgets/player/player_zone_widget.dart</title>
<path d="M 316.0 952.0 H 379.0 Q 385.0 952.0 385.0 946.0 V 102.0 Q 385.0 96.0 379.0 96.0 H 248.0" class="fileEdge"/>
<title>screens/game/start_game_screen.dart → misc.dart</title>
<path d="M 316.0 952.0 H 380.0 Q 386.0 952.0 386.0 946.0 V 412.0 Q 386.0 406.0 380.0 406.0 H 282.0" class="fileEdge"/>
<title>screens/game/start_game_screen.dart → models/backend_model.dart</title>
<path d="M 316.0 952.0 H 381.0 Q 387.0 952.0 387.0 946.0 V 440.0 Q 387.0 434.0 381.0 434.0 H 282.0" class="fileEdge"/>
<title>screens/game/start_game_screen.dart → models/game_history.dart</title>
<path d="M 316.0 952.0 H 382.0 Q 388.0 952.0 388.0 946.0 V 384.0 Q 388.0 378.0 382.0 378.0 H 282.0" class="fileEdge"/>
<title>screens/game/start_game_screen.dart → models/game_model.dart</title>
<path d="M 316.0 952.0 H 383.0 Q 389.0 952.0 389.0 958.0 V 1316.0 Q 389.0 1322.0 383.0 1322.0 H 282.0" class="fileEdge"/>
<title>screens/game/start_game_screen.dart → widgets/game_style.dart</title>
<path d="M 316.0 952.0 H 384.0 Q 390.0 952.0 390.0 946.0 V 496.0 Q 390.0 490.0 384.0 490.0 H 282.0" class="fileEdge"/>
<title>screens/game/start_game_screen.dart → models/game_styles.dart</title>
<path d="M 316.0 952.0 H 385.0 Q 391.0 952.0 391.0 958.0 V 962.0 Q 391.0 968.0 385.0 968.0 H 316.0" class="fileEdge"/>
<title>screens/game/start_game_screen.dart → screens/game/game_screen.dart</title>
<path d="M 316.0 952.0 H 386.0 Q 392.0 952.0 392.0 946.0 V 828.0 Q 392.0 822.0 386.0 822.0 H 282.0" class="fileEdge"/>
<title>screens/game/start_game_screen.dart → screens/screen.dart</title>
<path d="M 316.0 952.0 H 387.0 Q 393.0 952.0 393.0 958.0 V 1344.0 Q 393.0 1350.0 387.0 1350.0 H 282.0" class="fileEdge"/>
<title>screens/game/start_game_screen.dart → widgets/players_in_room_widget.dart</title>
<path d="M 316.0 952.0 H 388.0 Q 394.0 952.0 394.0 958.0 V 1372.0 Q 394.0 1378.0 388.0 1378.0 H 282.0" class="fileEdge"/>
<title>screens/game/start_game_screen.dart → widgets/rooms_widget.dart</title>
<path d="M 316.0 952.0 H 389.0 Q 395.0 952.0 395.0 946.0 V 220.0 Q 395.0 214.0 389.0 214.0 H 282.0" class="fileEdge"/>
<title>screens/game/start_game_screen.dart → utils/browser_utils.dart</title>
<path d="M 282.0 806.0 H 356.0 Q 362.0 806.0 362.0 812.0 V 816.0 Q 362.0 822.0 356.0 822.0 H 282.0" class="fileEdge"/>
<title>screens/main_menu.dart → screens/screen.dart</title>
<path d="M 316.0 1116.0 H 391.0 Q 397.0 1116.0 397.0 1110.0 V 692.0 Q 397.0 686.0 391.0 686.0 H 282.0" class="fileEdge"/>
<title>screens/keepscore/golf_score_screen.dart → models/golf_score_model.dart</title>
<path d="M 316.0 1116.0 H 392.0 Q 398.0 1116.0 398.0 1110.0 V 828.0 Q 398.0 822.0 392.0 822.0 H 282.0" class="fileEdge"/>
<title>screens/keepscore/golf_score_screen.dart → screens/screen.dart</title>
<path d="M 316.0 1116.0 H 393.0 Q 399.0 1116.0 399.0 1122.0 V 1428.0 Q 399.0 1434.0 393.0 1434.0 H 282.0" class="fileEdge"/>
<title>screens/keepscore/golf_score_screen.dart → widgets/input_keyboard.dart</title>
<path d="M 316.0 1116.0 H 394.0 Q 400.0 1116.0 400.0 1122.0 V 1456.0 Q 400.0 1462.0 394.0 1462.0 H 282.0" class="fileEdge"/>
<title>screens/keepscore/golf_score_screen.dart → widgets/my_button.dart</title>
<path d="M 316.0 1116.0 H 395.0 Q 401.0 1116.0 401.0 1122.0 V 1484.0 Q 401.0 1490.0 395.0 1490.0 H 282.0" class="fileEdge"/>
<title>screens/keepscore/golf_score_screen.dart → widgets/player_header.dart</title>
<path d="M 248.0 136.0 H 328.0 Q 334.0 136.0 334.0 142.0 V 400.0 Q 334.0 406.0 328.0 406.0 H 282.0" class="fileEdge"/>
<title>main.dart → models/backend_model.dart</title>
<path d="M 248.0 136.0 H 329.0 Q 335.0 136.0 335.0 142.0 V 540.0 Q 335.0 546.0 329.0 546.0 H 282.0" class="fileEdge"/>
<title>main.dart → models/firebase_options.dart</title>
<path d="M 248.0 136.0 H 330.0 Q 336.0 136.0 336.0 142.0 V 906.0 Q 336.0 912.0 330.0 912.0 H 316.0" class="fileEdge"/>
<title>main.dart → screens/game/join_game_screen.dart</title>
<path d="M 248.0 136.0 H 331.0 Q 337.0 136.0 337.0 142.0 V 934.0 Q 337.0 940.0 331.0 940.0 H 316.0" class="fileEdge"/>
<title>main.dart → screens/game/start_game_screen.dart</title>
<path d="M 248.0 136.0 H 332.0 Q 338.0 136.0 338.0 142.0 V 1098.0 Q 338.0 1104.0 332.0 1104.0 H 316.0" class="fileEdge"/>
<title>main.dart → screens/keepscore/golf_score_screen.dart</title>
<path d="M 248.0 136.0 H 333.0 Q 339.0 136.0 339.0 142.0 V 788.0 Q 339.0 794.0 333.0 794.0 H 282.0" class="fileEdge"/>
<title>main.dart → screens/main_menu.dart</title>
<path d="M 248.0 136.0 H 334.0 Q 340.0 136.0 340.0 142.0 V 2018.0 Q 340.0 2024.0 334.0 2024.0 H 282.0" class="fileEdge"/>
<title>main.dart → theme/app_theme.dart</title>
<path d="M 282.0 1446.0 H 369.0 Q 375.0 1446.0 375.0 1452.0 V 1456.0 Q 375.0 1462.0 369.0 1462.0 H 282.0" class="fileEdge"/>
<title>widgets/input_keyboard.dart → widgets/my_button.dart</title>
<path d="M 282.0 1418.0 H 370.0 Q 376.0 1418.0 376.0 1412.0 V 102.0 Q 376.0 96.0 370.0 96.0 H 248.0" class="fileEdge"/>
<title>widgets/date_importance.dart → misc.dart</title>
<path d="M 316.0 1812.0 H 405.0 Q 411.0 1812.0 411.0 1806.0 V 664.0 Q 411.0 658.0 405.0 658.0 H 282.0" class="fileEdge"/>
<title>widgets/cards/card_pile_widget.dart → models/card_model.dart</title>
<path d="M 316.0 1812.0 H 406.0 Q 412.0 1812.0 412.0 1818.0 V 1822.0 Q 412.0 1828.0 406.0 1828.0 H 316.0" class="fileEdge"/>
<title>widgets/cards/card_pile_widget.dart → widgets/cards/card_widget.dart</title>
<path d="M 316.0 1868.0 H 407.0 Q 413.0 1868.0 413.0 1862.0 V 102.0 Q 413.0 96.0 407.0 96.0 H 248.0" class="fileEdge"/>
<title>widgets/cards/card_face_skyjo_widget.dart → misc.dart</title>
<path d="M 316.0 1868.0 H 408.0 Q 414.0 1868.0 414.0 1862.0 V 664.0 Q 414.0 658.0 408.0 658.0 H 282.0" class="fileEdge"/>
<title>widgets/cards/card_face_skyjo_widget.dart → models/card_model.dart</title>
<path d="M 316.0 1868.0 H 409.0 Q 415.0 1868.0 415.0 1874.0 V 1878.0 Q 415.0 1884.0 409.0 1884.0 H 316.0" class="fileEdge"/>
<title>widgets/cards/card_face_skyjo_widget.dart → widgets/cards/card_face_french_widget.dart</title>
<path d="M 316.0 1840.0 H 410.0 Q 416.0 1840.0 416.0 1834.0 V 664.0 Q 416.0 658.0 410.0 658.0 H 282.0" class="fileEdge"/>
<title>widgets/cards/card_widget.dart → models/card_model.dart</title>
<path d="M 316.0 1840.0 H 411.0 Q 417.0 1840.0 417.0 1846.0 V 1878.0 Q 417.0 1884.0 411.0 1884.0 H 316.0" class="fileEdge"/>
<title>widgets/cards/card_widget.dart → widgets/cards/card_face_french_widget.dart</title>
<path d="M 316.0 1840.0 H 412.0 Q 418.0 1840.0 418.0 1846.0 V 1850.0 Q 418.0 1856.0 412.0 1856.0 H 316.0" class="fileEdge"/>
<title>widgets/cards/card_widget.dart → widgets/cards/card_face_skyjo_widget.dart</title>
<path d="M 316.0 1840.0 H 413.0 Q 419.0 1840.0 419.0 1834.0 V 1524.0 Q 419.0 1518.0 413.0 1518.0 H 282.0" class="fileEdge"/>
<title>widgets/cards/card_widget.dart → widgets/wiggle_widget.dart</title>
<path d="M 316.0 1896.0 H 414.0 Q 420.0 1896.0 420.0 1890.0 V 102.0 Q 420.0 96.0 414.0 96.0 H 248.0" class="fileEdge"/>
<title>widgets/cards/card_face_french_widget.dart → misc.dart</title>
<path d="M 316.0 1896.0 H 415.0 Q 421.0 1896.0 421.0 1890.0 V 664.0 Q 421.0 658.0 415.0 658.0 H 282.0" class="fileEdge"/>
<title>widgets/cards/card_face_french_widget.dart → models/card_model.dart</title>
<path d="M 282.0 1334.0 H 382.0 Q 388.0 1334.0 388.0 1328.0 V 102.0 Q 388.0 96.0 382.0 96.0 H 248.0" class="fileEdge"/>
<title>widgets/game_style.dart → misc.dart</title>
<path d="M 282.0 1334.0 H 383.0 Q 389.0 1334.0 389.0 1328.0 V 524.0 Q 389.0 518.0 383.0 518.0 H 282.0" class="fileEdge"/>
<title>widgets/game_style.dart → models/card_model_french.dart</title>
<path d="M 282.0 1334.0 H 384.0 Q 390.0 1334.0 390.0 1328.0 V 384.0 Q 390.0 378.0 384.0 378.0 H 282.0" class="fileEdge"/>
<title>widgets/game_style.dart → models/game_model.dart</title>
<path d="M 282.0 1334.0 H 385.0 Q 391.0 1334.0 391.0 1328.0 V 496.0 Q 391.0 490.0 385.0 490.0 H 282.0" class="fileEdge"/>
<title>widgets/game_style.dart → models/game_styles.dart</title>
<path d="M 282.0 1334.0 H 386.0 Q 392.0 1334.0 392.0 1340.0 V 1822.0 Q 392.0 1828.0 386.0 1828.0 H 316.0" class="fileEdge"/>
<title>widgets/game_style.dart → widgets/cards/card_widget.dart</title>
<path d="M 316.0 1676.0 H 421.0 Q 427.0 1676.0 427.0 1670.0 V 384.0 Q 427.0 378.0 421.0 378.0 H 282.0" class="fileEdge"/>
<title>widgets/player/player_zone_cta_widget.dart → models/game_model.dart</title>
<path d="M 316.0 1676.0 H 422.0 Q 428.0 1676.0 428.0 1682.0 V 1794.0 Q 428.0 1800.0 422.0 1800.0 H 316.0" class="fileEdge"/>
<title>widgets/player/player_zone_cta_widget.dart → widgets/cards/card_pile_widget.dart</title>
<path d="M 316.0 1704.0 H 423.0 Q 429.0 1704.0 429.0 1698.0 V 102.0 Q 429.0 96.0 423.0 96.0 H 248.0" class="fileEdge"/>
<title>widgets/player/status_picker.dart → misc.dart</title>
<path d="M 316.0 1704.0 H 424.0 Q 430.0 1704.0 430.0 1698.0 V 608.0 Q 430.0 602.0 424.0 602.0 H 282.0" class="fileEdge"/>
<title>widgets/player/status_picker.dart → models/player_status.dart</title>
<path d="M 316.0 1648.0 H 425.0 Q 431.0 1648.0 431.0 1642.0 V 102.0 Q 431.0 96.0 425.0 96.0 H 248.0" class="fileEdge"/>
<title>widgets/player/player_header_widget.dart → misc.dart</title>
<path d="M 316.0 1648.0 H 426.0 Q 432.0 1648.0 432.0 1642.0 V 384.0 Q 432.0 378.0 426.0 378.0 H 282.0" class="fileEdge"/>
<title>widgets/player/player_header_widget.dart → models/game_model.dart</title>
<path d="M 316.0 1648.0 H 427.0 Q 433.0 1648.0 433.0 1642.0 V 1412.0 Q 433.0 1406.0 427.0 1406.0 H 282.0" class="fileEdge"/>
<title>widgets/player/player_header_widget.dart → widgets/date_importance.dart</title>
<path d="M 316.0 1648.0 H 428.0 Q 434.0 1648.0 434.0 1642.0 V 1300.0 Q 434.0 1294.0 428.0 1294.0 H 282.0" class="fileEdge"/>
<title>widgets/player/player_header_widget.dart → widgets/dialog.dart</title>
<path d="M 316.0 1648.0 H 429.0 Q 435.0 1648.0 435.0 1654.0 V 1686.0 Q 435.0 1692.0 429.0 1692.0 H 316.0" class="fileEdge"/>
<title>widgets/player/player_header_widget.dart → widgets/player/status_picker.dart</title>
<path d="M 316.0 1620.0 H 430.0 Q 436.0 1620.0 436.0 1614.0 V 102.0 Q 436.0 96.0 430.0 96.0 H 248.0" class="fileEdge"/>
<title>widgets/player/player_zone_widget.dart → misc.dart</title>
<path d="M 316.0 1620.0 H 431.0 Q 437.0 1620.0 437.0 1614.0 V 384.0 Q 437.0 378.0 431.0 378.0 H 282.0" class="fileEdge"/>
<title>widgets/player/player_zone_widget.dart → models/game_model.dart</title>
<path d="M 316.0 1620.0 H 432.0 Q 438.0 1620.0 438.0 1626.0 V 1822.0 Q 438.0 1828.0 432.0 1828.0 H 316.0" class="fileEdge"/>
<title>widgets/player/player_zone_widget.dart → widgets/cards/card_widget.dart</title>
<path d="M 316.0 1620.0 H 433.0 Q 439.0 1620.0 439.0 1626.0 V 1630.0 Q 439.0 1636.0 433.0 1636.0 H 316.0" class="fileEdge"/>
<title>widgets/player/player_zone_widget.dart → widgets/player/player_header_widget.dart</title>
<path d="M 316.0 1620.0 H 434.0 Q 440.0 1620.0 440.0 1626.0 V 1658.0 Q 440.0 1664.0 434.0 1664.0 H 316.0" class="fileEdge"/>
<title>widgets/player/player_zone_widget.dart → widgets/player/player_zone_cta_widget.dart</title>
<g class="hierarchicalBadge">
<circle cx="282.0" cy="214.0" r="7.0" fill="#007bff" opacity="0.85"/>
<text x="282.0" y="216.0">1</text>
</g>
<g class="hierarchicalBadge">
<circle cx="282.0" cy="226.0" r="7.0" fill="#28a745" opacity="0.85"/>
<text x="282.0" y="228.0">1</text>
</g>
<text x="106.0" y="220.0" text-anchor="start" dominant-baseline="middle" class="hierarchicalItem">browser_utils.dart</text>
<g class="hierarchicalBadge">
<circle cx="282.0" cy="242.0" r="7.0" fill="#007bff" opacity="0.85"/>
<text x="282.0" y="244.0">1</text>
</g>
<text x="106.0" y="248.0" text-anchor="start" dominant-baseline="middle" class="hierarchicalItem">browser_utils_stub.dart</text>
<text x="106.0" y="276.0" text-anchor="start" dominant-baseline="middle" class="hierarchicalItem">browser_utils_web.dart</text>
<g class="hierarchicalBadge">
<circle cx="282.0" cy="378.0" r="7.0" fill="#007bff" opacity="0.85"/>
<text x="282.0" y="380.0">8</text>
</g>
<g class="hierarchicalBadge">
<circle cx="282.0" cy="390.0" r="7.0" fill="#28a745" opacity="0.85"/>
<text x="282.0" y="392.0">7</text>
</g>
<text x="106.0" y="384.0" text-anchor="start" dominant-baseline="middle" class="hierarchicalItem">game_model.dart</text>
<g class="hierarchicalBadge">
<circle cx="282.0" cy="406.0" r="7.0" fill="#007bff" opacity="0.85"/>
<text x="282.0" y="408.0">6</text>
</g>
<g class="hierarchicalBadge">
<circle cx="282.0" cy="418.0" r="7.0" fill="#28a745" opacity="0.85"/>
<text x="282.0" y="420.0">3</text>
</g>
<text x="106.0" y="412.0" text-anchor="start" dominant-baseline="middle" class="hierarchicalItem">backend_model.dart</text>
<g class="hierarchicalBadge">
<circle cx="282.0" cy="434.0" r="7.0" fill="#007bff" opacity="0.85"/>
<text x="282.0" y="436.0">4</text>
</g>
<text x="106.0" y="440.0" text-anchor="start" dominant-baseline="middle" class="hierarchicalItem">game_history.dart</text>
<g class="hierarchicalBadge">
<circle cx="282.0" cy="462.0" r="7.0" fill="#007bff" opacity="0.85"/>
<text x="282.0" y="464.0">2</text>
</g>
<g class="hierarchicalBadge">
<circle cx="282.0" cy="474.0" r="7.0" fill="#28a745" opacity="0.85"/>
<text x="282.0" y="476.0">4</text>
</g>
<text x="106.0" y="468.0" text-anchor="start" dominant-baseline="middle" class="hierarchicalItem">deck_model.dart</text>
<g class="hierarchicalBadge">
<circle cx="282.0" cy="490.0" r="7.0" fill="#007bff" opacity="0.85"/>
<text x="282.0" y="492.0">5</text>
</g>
<text x="106.0" y="496.0" text-anchor="start" dominant-baseline="middle" class="hierarchicalItem">game_styles.dart</text>
<g class="hierarchicalBadge">
<circle cx="282.0" cy="518.0" r="7.0" fill="#007bff" opacity="0.85"/>
<text x="282.0" y="520.0">2</text>
</g>
<text x="106.0" y="524.0" text-anchor="start" dominant-baseline="middle" class="hierarchicalItem">card_model_french.dart</text>
<g class="hierarchicalBadge">
<circle cx="282.0" cy="546.0" r="7.0" fill="#007bff" opacity="0.85"/>
<text x="282.0" y="548.0">2</text>
</g>
<text x="106.0" y="552.0" text-anchor="start" dominant-baseline="middle" class="hierarchicalItem">firebase_options.dart</text>
<g class="hierarchicalBadge">
<circle cx="282.0" cy="574.0" r="7.0" fill="#007bff" opacity="0.85"/>
<text x="282.0" y="576.0">2</text>
</g>
<g class="hierarchicalBadge">
<circle cx="282.0" cy="586.0" r="7.0" fill="#28a745" opacity="0.85"/>
<text x="282.0" y="588.0">6</text>
</g>
<text x="106.0" y="580.0" text-anchor="start" dominant-baseline="middle" class="hierarchicalItem">player_model.dart</text>
<g class="hierarchicalBadge">
<circle cx="282.0" cy="602.0" r="7.0" fill="#007bff" opacity="0.85"/>
<text x="282.0" y="604.0">3</text>
</g>
<text x="106.0" y="608.0" text-anchor="start" dominant-baseline="middle" class="hierarchicalItem">player_status.dart</text>
<g class="hierarchicalBadge">
<circle cx="282.0" cy="630.0" r="7.0" fill="#007bff" opacity="0.85"/>
<text x="282.0" y="632.0">2</text>
</g>
<g class="hierarchicalBadge">
<circle cx="282.0" cy="642.0" r="7.0" fill="#28a745" opacity="0.85"/>
<text x="282.0" y="644.0">2</text>
</g>
<text x="106.0" y="636.0" text-anchor="start" dominant-baseline="middle" class="hierarchicalItem">hand_model.dart</text>
<g class="hierarchicalBadge">
<circle cx="282.0" cy="658.0" r="7.0" fill="#007bff" opacity="0.85"/>
<text x="282.0" y="660.0">9</text>
</g>
<text x="106.0" y="664.0" text-anchor="start" dominant-baseline="middle" class="hierarchicalItem">card_model.dart</text>
<g class="hierarchicalBadge">
<circle cx="282.0" cy="686.0" r="7.0" fill="#007bff" opacity="0.85"/>
<text x="282.0" y="688.0">1</text>
</g>
<text x="106.0" y="692.0" text-anchor="start" dominant-baseline="middle" class="hierarchicalItem">golf_score_model.dart</text>
<g class="hierarchicalBadge">
<circle cx="316.0" cy="912.0" r="7.0" fill="#007bff" opacity="0.85"/>
<text x="316.0" y="914.0">1</text>
</g>
<g class="hierarchicalBadge">
<circle cx="316.0" cy="924.0" r="7.0" fill="#28a745" opacity="0.85"/>
<text x="316.0" y="926.0">9</text>
</g>
<text x="140.0" y="918.0" text-anchor="start" dominant-baseline="middle" class="hierarchicalItem">join_game_screen.dart</text>
<g class="hierarchicalBadge">
<circle cx="316.0" cy="940.0" r="7.0" fill="#007bff" opacity="0.85"/>
<text x="316.0" y="942.0">1</text>
</g>
<g class="hierarchicalBadge">
<circle cx="316.0" cy="952.0" r="7.0" fill="#28a745" opacity="0.85"/>
<text x="316.0" y="954.0">11</text>
</g>
<text x="140.0" y="946.0" text-anchor="start" dominant-baseline="middle" class="hierarchicalItem">start_game_screen.dart</text>
<g class="hierarchicalBadge">
<circle cx="316.0" cy="968.0" r="7.0" fill="#007bff" opacity="0.85"/>
<text x="316.0" y="970.0">2</text>
</g>
<g class="hierarchicalBadge">
<circle cx="316.0" cy="980.0" r="7.0" fill="#28a745" opacity="0.85"/>
<text x="316.0" y="982.0">5</text>
</g>
<text x="140.0" y="974.0" text-anchor="start" dominant-baseline="middle" class="hierarchicalItem">game_screen.dart</text>
<g class="hierarchicalBadge">
<circle cx="316.0" cy="996.0" r="7.0" fill="#007bff" opacity="0.85"/>
<text x="316.0" y="998.0">1</text>
</g>
<g class="hierarchicalBadge">
<circle cx="316.0" cy="1008.0" r="7.0" fill="#28a745" opacity="0.85"/>
<text x="316.0" y="1010.0">4</text>
</g>
<text x="140.0" y="1002.0" text-anchor="start" dominant-baseline="middle" class="hierarchicalItem">game_over_dialog.dart</text>
<g class="hierarchicalBadge">
<circle cx="316.0" cy="1104.0" r="7.0" fill="#007bff" opacity="0.85"/>
<text x="316.0" y="1106.0">1</text>
</g>
<g class="hierarchicalBadge">
<circle cx="316.0" cy="1116.0" r="7.0" fill="#28a745" opacity="0.85"/>
<text x="316.0" y="1118.0">5</text>
</g>
<text x="140.0" y="1110.0" text-anchor="start" dominant-baseline="middle" class="hierarchicalItem">golf_score_screen.dart</text>
<g class="hierarchicalBadge">
<circle cx="282.0" cy="794.0" r="7.0" fill="#007bff" opacity="0.85"/>
<text x="282.0" y="796.0">1</text>
</g>
<g class="hierarchicalBadge">
<circle cx="282.0" cy="806.0" r="7.0" fill="#28a745" opacity="0.85"/>
<text x="282.0" y="808.0">1</text>
</g>
<text x="106.0" y="800.0" text-anchor="start" dominant-baseline="middle" class="hierarchicalItem">main_menu.dart</text>
<g class="hierarchicalBadge">
<circle cx="282.0" cy="822.0" r="7.0" fill="#007bff" opacity="0.85"/>
<text x="282.0" y="824.0">5</text>
</g>
<text x="106.0" y="828.0" text-anchor="start" dominant-baseline="middle" class="hierarchicalItem">screen.dart</text>
<g class="hierarchicalBadge">
<circle cx="316.0" cy="1608.0" r="7.0" fill="#007bff" opacity="0.85"/>
<text x="316.0" y="1610.0">1</text>
</g>
<g class="hierarchicalBadge">
<circle cx="316.0" cy="1620.0" r="7.0" fill="#28a745" opacity="0.85"/>
<text x="316.0" y="1622.0">5</text>
</g>
<text x="140.0" y="1614.0" text-anchor="start" dominant-baseline="middle" class="hierarchicalItem">player_zone_widget.dart</text>
<g class="hierarchicalBadge">
<circle cx="316.0" cy="1636.0" r="7.0" fill="#007bff" opacity="0.85"/>
<text x="316.0" y="1638.0">1</text>
</g>
<g class="hierarchicalBadge">
<circle cx="316.0" cy="1648.0" r="7.0" fill="#28a745" opacity="0.85"/>
<text x="316.0" y="1650.0">5</text>
</g>
<text x="140.0" y="1642.0" text-anchor="start" dominant-baseline="middle" class="hierarchicalItem">player_header_widget.dart</text>
<g class="hierarchicalBadge">
<circle cx="316.0" cy="1664.0" r="7.0" fill="#007bff" opacity="0.85"/>
<text x="316.0" y="1666.0">1</text>
</g>
<g class="hierarchicalBadge">
<circle cx="316.0" cy="1676.0" r="7.0" fill="#28a745" opacity="0.85"/>
<text x="316.0" y="1678.0">2</text>
</g>
<text x="140.0" y="1670.0" text-anchor="start" dominant-baseline="middle" class="hierarchicalItem">player_zone_cta_widget.dart</text>
<g class="hierarchicalBadge">
<circle cx="316.0" cy="1692.0" r="7.0" fill="#007bff" opacity="0.85"/>
<text x="316.0" y="1694.0">1</text>
</g>
<g class="hierarchicalBadge">
<circle cx="316.0" cy="1704.0" r="7.0" fill="#28a745" opacity="0.85"/>
<text x="316.0" y="1706.0">2</text>
</g>
<text x="140.0" y="1698.0" text-anchor="start" dominant-baseline="middle" class="hierarchicalItem">status_picker.dart</text>
<g class="hierarchicalBadge">
<circle cx="316.0" cy="1800.0" r="7.0" fill="#007bff" opacity="0.85"/>
<text x="316.0" y="1802.0">1</text>
</g>
<g class="hierarchicalBadge">
<circle cx="316.0" cy="1812.0" r="7.0" fill="#28a745" opacity="0.85"/>
<text x="316.0" y="1814.0">2</text>
</g>
<text x="140.0" y="1806.0" text-anchor="start" dominant-baseline="middle" class="hierarchicalItem">card_pile_widget.dart</text>
<g class="hierarchicalBadge">
<circle cx="316.0" cy="1828.0" r="7.0" fill="#007bff" opacity="0.85"/>
<text x="316.0" y="1830.0">3</text>
</g>
<g class="hierarchicalBadge">
<circle cx="316.0" cy="1840.0" r="7.0" fill="#28a745" opacity="0.85"/>
<text x="316.0" y="1842.0">4</text>
</g>
<text x="140.0" y="1834.0" text-anchor="start" dominant-baseline="middle" class="hierarchicalItem">card_widget.dart</text>
<g class="hierarchicalBadge">
<circle cx="316.0" cy="1856.0" r="7.0" fill="#007bff" opacity="0.85"/>
<text x="316.0" y="1858.0">1</text>
</g>
<g class="hierarchicalBadge">
<circle cx="316.0" cy="1868.0" r="7.0" fill="#28a745" opacity="0.85"/>
<text x="316.0" y="1870.0">3</text>
</g>
<text x="140.0" y="1862.0" text-anchor="start" dominant-baseline="middle" class="hierarchicalItem">card_face_skyjo_widget.dart</text>
<g class="hierarchicalBadge">
<circle cx="316.0" cy="1884.0" r="7.0" fill="#007bff" opacity="0.85"/>
<text x="316.0" y="1886.0">2</text>
</g>
<g class="hierarchicalBadge">
<circle cx="316.0" cy="1896.0" r="7.0" fill="#28a745" opacity="0.85"/>
<text x="316.0" y="1898.0">2</text>
</g>
<text x="140.0" y="1890.0" text-anchor="start" dominant-baseline="middle" class="hierarchicalItem">card_face_french_widget.dart</text>
<g class="hierarchicalBadge">
<circle cx="282.0" cy="1294.0" r="7.0" fill="#007bff" opacity="0.85"/>
<text x="282.0" y="1296.0">2</text>
</g>
<text x="106.0" y="1300.0" text-anchor="start" dominant-baseline="middle" class="hierarchicalItem">dialog.dart</text>
<g class="hierarchicalBadge">
<circle cx="282.0" cy="1322.0" r="7.0" fill="#007bff" opacity="0.85"/>
<text x="282.0" y="1324.0">2</text>
</g>
<g class="hierarchicalBadge">
<circle cx="282.0" cy="1334.0" r="7.0" fill="#28a745" opacity="0.85"/>
<text x="282.0" y="1336.0">5</text>
</g>
<text x="106.0" y="1328.0" text-anchor="start" dominant-baseline="middle" class="hierarchicalItem">game_style.dart</text>
<g class="hierarchicalBadge">
<circle cx="282.0" cy="1350.0" r="7.0" fill="#007bff" opacity="0.85"/>
<text x="282.0" y="1352.0">2</text>
</g>
<text x="106.0" y="1356.0" text-anchor="start" dominant-baseline="middle" class="hierarchicalItem">players_in_room_widget.dart</text>
<g class="hierarchicalBadge">
<circle cx="282.0" cy="1378.0" r="7.0" fill="#007bff" opacity="0.85"/>
<text x="282.0" y="1380.0">2</text>
</g>
<text x="106.0" y="1384.0" text-anchor="start" dominant-baseline="middle" class="hierarchicalItem">rooms_widget.dart</text>
<g class="hierarchicalBadge">
<circle cx="282.0" cy="1406.0" r="7.0" fill="#007bff" opacity="0.85"/>
<text x="282.0" y="1408.0">1</text>
</g>
<g class="hierarchicalBadge">
<circle cx="282.0" cy="1418.0" r="7.0" fill="#28a745" opacity="0.85"/>
<text x="282.0" y="1420.0">1</text>
</g>
<text x="106.0" y="1412.0" text-anchor="start" dominant-baseline="middle" class="hierarchicalItem">date_importance.dart</text>
<g class="hierarchicalBadge">
<circle cx="282.0" cy="1434.0" r="7.0" fill="#007bff" opacity="0.85"/>
<text x="282.0" y="1436.0">1</text>
</g>
<g class="hierarchicalBadge">
<circle cx="282.0" cy="1446.0" r="7.0" fill="#28a745" opacity="0.85"/>
<text x="282.0" y="1448.0">1</text>
</g>
<text x="106.0" y="1440.0" text-anchor="start" dominant-baseline="middle" class="hierarchicalItem">input_keyboard.dart</text>
<g class="hierarchicalBadge">
<circle cx="282.0" cy="1462.0" r="7.0" fill="#007bff" opacity="0.85"/>
<text x="282.0" y="1464.0">2</text>
</g>
<text x="106.0" y="1468.0" text-anchor="start" dominant-baseline="middle" class="hierarchicalItem">my_button.dart</text>
<g class="hierarchicalBadge">
<circle cx="282.0" cy="1490.0" r="7.0" fill="#007bff" opacity="0.85"/>
<text x="282.0" y="1492.0">1</text>
</g>
<text x="106.0" y="1496.0" text-anchor="start" dominant-baseline="middle" class="hierarchicalItem">player_header.dart</text>
<g class="hierarchicalBadge">
<circle cx="282.0" cy="1518.0" r="7.0" fill="#007bff" opacity="0.85"/>
<text x="282.0" y="1520.0">1</text>
</g>
<text x="106.0" y="1524.0" text-anchor="start" dominant-baseline="middle" class="hierarchicalItem">wiggle_widget.dart</text>
<g class="hierarchicalBadge">
<circle cx="282.0" cy="2024.0" r="7.0" fill="#007bff" opacity="0.85"/>
<text x="282.0" y="2026.0">1</text>
</g>
<text x="106.0" y="2030.0" text-anchor="start" dominant-baseline="middle" class="hierarchicalItem">app_theme.dart</text>
<g class="hierarchicalBadge">
<circle cx="248.0" cy="96.0" r="7.0" fill="#007bff" opacity="0.85"/>
<text x="248.0" y="98.0">11</text>
</g>
<text x="72.0" y="102.0" text-anchor="start" dominant-baseline="middle" class="hierarchicalItem">misc.dart</text>
<g class="hierarchicalBadge">
<circle cx="248.0" cy="136.0" r="7.0" fill="#28a745" opacity="0.85"/>
<text x="248.0" y="138.0">7</text>
</g>
<text x="72.0" y="130.0" text-anchor="start" dominant-baseline="middle" class="hierarchicalItem">main.dart</text>
<g class="folderTitleLayer">
<text x="230.0" y="75.0" class="hierarchicalTitle">.</text>
<text x="214.0" y="193.0" class="hierarchicalTitle">  utils</text>
<text x="214.0" y="357.0" class="hierarchicalTitle">  models</text>
<text x="239.0" y="773.0" class="hierarchicalTitle">  screens</text>
<text x="248.0" y="891.0" class="hierarchicalTitle">    game</text>
<text x="248.0" y="1083.0" class="hierarchicalTitle">    keepscore</text>
<text x="239.0" y="1273.0" class="hierarchicalTitle">  widgets</text>
<text x="248.0" y="1587.0" class="hierarchicalTitle">    player</text>
<text x="248.0" y="1779.0" class="hierarchicalTitle">    cards</text>
<text x="214.0" y="2003.0" class="hierarchicalTitle">  theme</text>
</g>
</svg>
