<?xml version="1.0" encoding="UTF-8" standalone="no"?>
<!DOCTYPE svg PUBLIC "-//W3C//DTD SVG 1.1//EN"
 "http://www.w3.org/Graphics/SVG/1.1/DTD/svg11.dtd">
<!-- Generated by graphviz version 12.2.0 (20241103.1931)
 -->
<!-- Pages: 1 -->
<svg width="1997pt" height="828pt"
 viewBox="0.00 0.00 1997.00 828.00" xmlns="http://www.w3.org/2000/svg" xmlns:xlink="http://www.w3.org/1999/xlink">
<g id="graph0" class="graph" transform="scale(1 1) rotate(0) translate(4 824)">
<polygon fill="white" stroke="none" points="-4,4 -4,-824 1993,-824 1993,4 -4,4"/>
<g id="clust1" class="cluster">
<title>cluster~</title>
<path fill="none" stroke="lightgray" stroke-width="2.6" d="M20,-8C20,-8 1969,-8 1969,-8 1975,-8 1981,-14 1981,-20 1981,-20 1981,-800 1981,-800 1981,-806 1975,-812 1969,-812 1969,-812 20,-812 20,-812 14,-812 8,-806 8,-800 8,-800 8,-20 8,-20 8,-14 14,-8 20,-8"/>
<text text-anchor="middle" x="994.5" y="-795.65" font-family="Arial Black" font-size="13.00">cards</text>
</g>
<g id="clust2" class="cluster">
<title>cluster~/test</title>
<path fill="none" stroke="lightgray" stroke-width="2.6" d="M28,-259C28,-259 474,-259 474,-259 480,-259 486,-265 486,-271 486,-271 486,-361 486,-361 486,-367 480,-373 474,-373 474,-373 28,-373 28,-373 22,-373 16,-367 16,-361 16,-361 16,-271 16,-271 16,-265 22,-259 28,-259"/>
<text text-anchor="middle" x="251" y="-356.65" font-family="Arial Black" font-size="13.00">test</text>
</g>
<g id="clust3" class="cluster">
<title>cluster~/test/models</title>
<path fill="none" stroke="lightgray" stroke-width="2.6" d="M36,-267C36,-267 466,-267 466,-267 472,-267 478,-273 478,-279 478,-279 478,-330 478,-330 478,-336 472,-342 466,-342 466,-342 36,-342 36,-342 30,-342 24,-336 24,-330 24,-330 24,-279 24,-279 24,-273 30,-267 36,-267"/>
<text text-anchor="middle" x="251" y="-325.65" font-family="Arial Black" font-size="13.00">models</text>
</g>
<g id="clust4" class="cluster">
<title>cluster~/lib</title>
<path fill="none" stroke="lightgray" stroke-width="2.6" d="M506,-16C506,-16 1961,-16 1961,-16 1967,-16 1973,-22 1973,-28 1973,-28 1973,-769 1973,-769 1973,-775 1967,-781 1961,-781 1961,-781 506,-781 506,-781 500,-781 494,-775 494,-769 494,-769 494,-28 494,-28 494,-22 500,-16 506,-16"/>
<text text-anchor="middle" x="1233.5" y="-764.65" font-family="Arial Black" font-size="13.00">lib</text>
</g>
<g id="clust5" class="cluster">
<title>cluster~/lib/models</title>
<path fill="none" stroke="lightgray" stroke-width="2.6" d="M514,-32C514,-32 866,-32 866,-32 872,-32 878,-38 878,-44 878,-44 878,-239 878,-239 878,-245 872,-251 866,-251 866,-251 514,-251 514,-251 508,-251 502,-245 502,-239 502,-239 502,-44 502,-44 502,-38 508,-32 514,-32"/>
<text text-anchor="middle" x="690" y="-234.65" font-family="Arial Black" font-size="13.00">models</text>
</g>
<g id="clust6" class="cluster">
<title>cluster~/lib/screens</title>
<path fill="none" stroke="lightgray" stroke-width="2.6" d="M780,-453C780,-453 898,-453 898,-453 904,-453 910,-459 910,-465 910,-465 910,-694 910,-694 910,-700 904,-706 898,-706 898,-706 780,-706 780,-706 774,-706 768,-700 768,-694 768,-694 768,-465 768,-465 768,-459 774,-453 780,-453"/>
<text text-anchor="middle" x="839" y="-689.65" font-family="Arial Black" font-size="13.00">screens</text>
</g>
<g id="clust7" class="cluster">
<title>cluster~/lib/widgets</title>
<path fill="none" stroke="lightgray" stroke-width="2.6" d="M930,-24C930,-24 1953,-24 1953,-24 1959,-24 1965,-30 1965,-36 1965,-36 1965,-547 1965,-547 1965,-553 1959,-559 1953,-559 1953,-559 930,-559 930,-559 924,-559 918,-553 918,-547 918,-547 918,-36 918,-36 918,-30 924,-24 930,-24"/>
<text text-anchor="middle" x="1441.5" y="-542.65" font-family="Arial Black" font-size="13.00">widgets</text>
</g>
<g id="clust8" class="cluster">
<title>cluster~/lib/widgets/cards</title>
<path fill="none" stroke="lightgray" stroke-width="2.6" d="M1112,-32C1112,-32 1238,-32 1238,-32 1244,-32 1250,-38 1250,-44 1250,-44 1250,-330 1250,-330 1250,-336 1244,-342 1238,-342 1238,-342 1112,-342 1112,-342 1106,-342 1100,-336 1100,-330 1100,-330 1100,-44 1100,-44 1100,-38 1106,-32 1112,-32"/>
<text text-anchor="middle" x="1175" y="-325.65" font-family="Arial Black" font-size="13.00">cards</text>
</g>
<g id="clust9" class="cluster">
<title>cluster~/lib/widgets/player</title>
<path fill="none" stroke="lightgray" stroke-width="2.6" d="M1284,-381C1284,-381 1632,-381 1632,-381 1638,-381 1644,-387 1644,-393 1644,-393 1644,-516 1644,-516 1644,-522 1638,-528 1632,-528 1632,-528 1284,-528 1284,-528 1278,-528 1272,-522 1272,-516 1272,-516 1272,-393 1272,-393 1272,-387 1278,-381 1284,-381"/>
<text text-anchor="middle" x="1458" y="-511.65" font-family="Arial Black" font-size="13.00">player</text>
</g>
<!-- /test/models/game_model_test.dart -->
<g id="node1" class="node">
<title>/test/models/game_model_test.dart</title>
<path fill="Lavender" stroke="black" stroke-width="1.3" d="M457.62,-311C457.62,-311 346.38,-311 346.38,-311 340.38,-311 334.38,-305 334.38,-299 334.38,-299 334.38,-287 334.38,-287 334.38,-281 340.38,-275 346.38,-275 346.38,-275 457.62,-275 457.62,-275 463.62,-275 469.62,-281 469.62,-287 469.62,-287 469.62,-299 469.62,-299 469.62,-305 463.62,-311 457.62,-311"/>
<text text-anchor="middle" x="402" y="-287.75" font-family="Arial" font-size="15.00">game_model_test</text>
</g>
<!-- /lib/models/game_model.dart -->
<g id="node4" class="node">
<title>/lib/models/game_model.dart</title>
<path fill="Lavender" stroke="black" stroke-width="1.3" d="M702.12,-220C702.12,-220 623.88,-220 623.88,-220 617.88,-220 611.88,-214 611.88,-208 611.88,-208 611.88,-196 611.88,-196 611.88,-190 617.88,-184 623.88,-184 623.88,-184 702.12,-184 702.12,-184 708.12,-184 714.12,-190 714.12,-196 714.12,-196 714.12,-208 714.12,-208 714.12,-214 708.12,-220 702.12,-220"/>
<text text-anchor="middle" x="663" y="-196.75" font-family="Arial" font-size="15.00">game_model</text>
</g>
<!-- /test/models/game_model_test.dart&#45;&gt;/lib/models/game_model.dart -->
<g id="edge1" class="edge">
<title>/test/models/game_model_test.dart&#45;&gt;/lib/models/game_model.dart</title>
<path fill="none" stroke="#aabbaa" stroke-width="1.3" stroke-opacity="0.533333" d="M453.25,-274.52C495.54,-260.1 555.7,-239.59 600.75,-224.23"/>
<polygon fill="#aabbaa" fill-opacity="0.533333" stroke="#aabbaa" stroke-width="1.3" stroke-opacity="0.533333" points="601.67,-227.61 610,-221.07 599.41,-220.99 601.67,-227.61"/>
</g>
<!-- /test/models/player_model_test.dart -->
<g id="node2" class="node">
<title>/test/models/player_model_test.dart</title>
<path fill="Lavender" stroke="black" stroke-width="1.3" d="M304.12,-311C304.12,-311 189.88,-311 189.88,-311 183.88,-311 177.88,-305 177.88,-299 177.88,-299 177.88,-287 177.88,-287 177.88,-281 183.88,-275 189.88,-275 189.88,-275 304.12,-275 304.12,-275 310.12,-275 316.12,-281 316.12,-287 316.12,-287 316.12,-299 316.12,-299 316.12,-305 310.12,-311 304.12,-311"/>
<text text-anchor="middle" x="247" y="-287.75" font-family="Arial" font-size="15.00">player_model_test</text>
</g>
<!-- /lib/models/player_model.dart -->
<g id="node7" class="node">
<title>/lib/models/player_model.dart</title>
<path fill="Lavender" stroke="black" stroke-width="1.3" d="M857.62,-148C857.62,-148 776.38,-148 776.38,-148 770.38,-148 764.38,-142 764.38,-136 764.38,-136 764.38,-124 764.38,-124 764.38,-118 770.38,-112 776.38,-112 776.38,-112 857.62,-112 857.62,-112 863.62,-112 869.62,-118 869.62,-124 869.62,-124 869.62,-136 869.62,-136 869.62,-142 863.62,-148 857.62,-148"/>
<text text-anchor="middle" x="817" y="-124.75" font-family="Arial" font-size="15.00">player_model</text>
</g>
<!-- /test/models/player_model_test.dart&#45;&gt;/lib/models/player_model.dart -->
<g id="edge2" class="edge">
<title>/test/models/player_model_test.dart&#45;&gt;/lib/models/player_model.dart</title>
<path fill="none" stroke="#aabbaa" stroke-width="1.3" stroke-opacity="0.533333" d="M285.08,-274.66C297.65,-269.27 311.79,-263.55 325,-259 507.96,-195.95 561.68,-196.79 752.37,-148.62"/>
<polygon fill="#aabbaa" fill-opacity="0.533333" stroke="#aabbaa" stroke-width="1.3" stroke-opacity="0.533333" points="753.2,-152.02 762.03,-146.17 751.47,-145.24 753.2,-152.02"/>
</g>
<!-- /test/models/card_model_test.dart -->
<g id="node3" class="node">
<title>/test/models/card_model_test.dart</title>
<path fill="Lavender" stroke="black" stroke-width="1.3" d="M147.5,-311C147.5,-311 44.5,-311 44.5,-311 38.5,-311 32.5,-305 32.5,-299 32.5,-299 32.5,-287 32.5,-287 32.5,-281 38.5,-275 44.5,-275 44.5,-275 147.5,-275 147.5,-275 153.5,-275 159.5,-281 159.5,-287 159.5,-287 159.5,-299 159.5,-299 159.5,-305 153.5,-311 147.5,-311"/>
<text text-anchor="middle" x="96" y="-287.75" font-family="Arial" font-size="15.00">card_model_test</text>
</g>
<!-- /lib/models/card_model.dart -->
<g id="node9" class="node">
<title>/lib/models/card_model.dart</title>
<path fill="Lavender" stroke="black" stroke-width="1.3" d="M786,-76C786,-76 716,-76 716,-76 710,-76 704,-70 704,-64 704,-64 704,-52 704,-52 704,-46 710,-40 716,-40 716,-40 786,-40 786,-40 792,-40 798,-46 798,-52 798,-52 798,-64 798,-64 798,-70 792,-76 786,-76"/>
<text text-anchor="middle" x="751" y="-52.75" font-family="Arial" font-size="15.00">card_model</text>
</g>
<!-- /test/models/card_model_test.dart&#45;&gt;/lib/models/card_model.dart -->
<g id="edge3" class="edge">
<title>/test/models/card_model_test.dart&#45;&gt;/lib/models/card_model.dart</title>
<path fill="none" stroke="#aabbaa" stroke-width="1.3" stroke-opacity="0.533333" d="M134.24,-274.64C145.43,-269.58 157.7,-264.05 169,-259 316.71,-193.01 348.07,-161.77 502,-112 565.66,-91.42 641.09,-76.65 692.11,-68.01"/>
<polygon fill="#aabbaa" fill-opacity="0.533333" stroke="#aabbaa" stroke-width="1.3" stroke-opacity="0.533333" points="692.67,-71.47 701.96,-66.37 691.52,-64.56 692.67,-71.47"/>
</g>
<!-- /lib/models/game_model.dart&#45;&gt;/lib/models/player_model.dart -->
<g id="edge6" class="edge">
<title>/lib/models/game_model.dart&#45;&gt;/lib/models/player_model.dart</title>
<path fill="none" stroke="#aabbaa" stroke-width="1.3" stroke-opacity="0.533333" d="M695.53,-183.52C714.88,-174.29 739.85,-162.89 762.14,-153.06"/>
<polygon fill="#aabbaa" fill-opacity="0.533333" stroke="#aabbaa" stroke-width="1.3" stroke-opacity="0.533333" points="763.28,-156.39 771.03,-149.17 760.47,-149.97 763.28,-156.39"/>
</g>
<!-- /lib/models/game_model.dart&#45;&gt;/lib/models/player_model.dart -->
<g id="edge8" class="edge">
<title>/lib/models/game_model.dart&#45;&gt;/lib/models/player_model.dart</title>
<path fill="none" stroke="#aabbaa" stroke-width="1.3" stroke-dasharray="5,2" stroke-opacity="0.533333" d="M707.4,-183.52C728.33,-174.42 753.16,-163.2 773.93,-153.46"/>
<polygon fill="#aabbaa" fill-opacity="0.533333" stroke="#aabbaa" stroke-width="1.3" stroke-opacity="0.533333" points="775.36,-156.66 782.91,-149.22 772.37,-150.33 775.36,-156.66"/>
</g>
<!-- /lib/models/backend_model.dart -->
<g id="node10" class="node">
<title>/lib/models/backend_model.dart</title>
<path fill="Lavender" stroke="black" stroke-width="1.3" d="M619.5,-148C619.5,-148 522.5,-148 522.5,-148 516.5,-148 510.5,-142 510.5,-136 510.5,-136 510.5,-124 510.5,-124 510.5,-118 516.5,-112 522.5,-112 522.5,-112 619.5,-112 619.5,-112 625.5,-112 631.5,-118 631.5,-124 631.5,-124 631.5,-136 631.5,-136 631.5,-142 625.5,-148 619.5,-148"/>
<text text-anchor="middle" x="571" y="-124.75" font-family="Arial" font-size="15.00">backend_model</text>
</g>
<!-- /lib/models/game_model.dart&#45;&gt;/lib/models/backend_model.dart -->
<g id="edge4" class="edge">
<title>/lib/models/game_model.dart&#45;&gt;/lib/models/backend_model.dart</title>
<path fill="none" stroke="#aabbaa" stroke-width="1.3" stroke-opacity="0.533333" d="M640.26,-183.7C629.09,-175.2 615.44,-164.81 603.22,-155.51"/>
<polygon fill="#aabbaa" fill-opacity="0.533333" stroke="#aabbaa" stroke-width="1.3" stroke-opacity="0.533333" points="605.44,-152.81 595.36,-149.54 601.2,-158.38 605.44,-152.81"/>
</g>
<!-- /lib/models/deck_model.dart -->
<g id="node11" class="node">
<title>/lib/models/deck_model.dart</title>
<path fill="Lavender" stroke="black" stroke-width="1.3" d="M734.12,-148C734.12,-148 661.88,-148 661.88,-148 655.88,-148 649.88,-142 649.88,-136 649.88,-136 649.88,-124 649.88,-124 649.88,-118 655.88,-112 661.88,-112 661.88,-112 734.12,-112 734.12,-112 740.12,-112 746.12,-118 746.12,-124 746.12,-124 746.12,-136 746.12,-136 746.12,-142 740.12,-148 734.12,-148"/>
<text text-anchor="middle" x="698" y="-124.75" font-family="Arial" font-size="15.00">deck_model</text>
</g>
<!-- /lib/models/game_model.dart&#45;&gt;/lib/models/deck_model.dart -->
<g id="edge5" class="edge">
<title>/lib/models/game_model.dart&#45;&gt;/lib/models/deck_model.dart</title>
<path fill="none" stroke="#aabbaa" stroke-width="1.3" stroke-opacity="0.533333" d="M665.74,-183.7C668.76,-176.07 673.11,-166.92 677.7,-158.4"/>
<polygon fill="#aabbaa" fill-opacity="0.533333" stroke="#aabbaa" stroke-width="1.3" stroke-opacity="0.533333" points="680.68,-160.24 682.58,-149.81 674.59,-156.77 680.68,-160.24"/>
</g>
<!-- /lib/models/game_model.dart&#45;&gt;/lib/models/deck_model.dart -->
<g id="edge7" class="edge">
<title>/lib/models/game_model.dart&#45;&gt;/lib/models/deck_model.dart</title>
<path fill="none" stroke="#aabbaa" stroke-width="1.3" stroke-dasharray="5,2" stroke-opacity="0.533333" d="M677.57,-183.7C682.07,-176.24 686.76,-167.32 690.64,-158.97"/>
<polygon fill="#aabbaa" fill-opacity="0.533333" stroke="#aabbaa" stroke-width="1.3" stroke-opacity="0.533333" points="693.8,-160.48 694.56,-149.91 687.38,-157.7 693.8,-160.48"/>
</g>
<!-- /lib/models/game_over_dialog.dart -->
<g id="node5" class="node">
<title>/lib/models/game_over_dialog.dart</title>
<path fill="Lavender" stroke="black" stroke-width="1.3" d="M858.12,-220C858.12,-220 743.88,-220 743.88,-220 737.88,-220 731.88,-214 731.88,-208 731.88,-208 731.88,-196 731.88,-196 731.88,-190 737.88,-184 743.88,-184 743.88,-184 858.12,-184 858.12,-184 864.12,-184 870.12,-190 870.12,-196 870.12,-196 870.12,-208 870.12,-208 870.12,-214 864.12,-220 858.12,-220"/>
<text text-anchor="middle" x="801" y="-196.75" font-family="Arial" font-size="15.00">game_over_dialog</text>
</g>
<!-- /lib/models/game_over_dialog.dart&#45;&gt;/lib/models/player_model.dart -->
<g id="edge9" class="edge">
<title>/lib/models/game_over_dialog.dart&#45;&gt;/lib/models/player_model.dart</title>
<path fill="none" stroke="#aabbaa" stroke-width="1.3" stroke-opacity="0.533333" d="M804.96,-183.7C806.62,-176.41 808.61,-167.73 810.48,-159.54"/>
<polygon fill="#aabbaa" fill-opacity="0.533333" stroke="#aabbaa" stroke-width="1.3" stroke-opacity="0.533333" points="813.84,-160.55 812.65,-150.02 807.01,-158.99 813.84,-160.55"/>
</g>
<!-- /lib/models/firebase_options.dart -->
<g id="node6" class="node">
<title>/lib/models/firebase_options.dart</title>
<path fill="Lavender" stroke="black" stroke-width="1.3" d="M623.75,-76C623.75,-76 522.25,-76 522.25,-76 516.25,-76 510.25,-70 510.25,-64 510.25,-64 510.25,-52 510.25,-52 510.25,-46 516.25,-40 522.25,-40 522.25,-40 623.75,-40 623.75,-40 629.75,-40 635.75,-46 635.75,-52 635.75,-52 635.75,-64 635.75,-64 635.75,-70 629.75,-76 623.75,-76"/>
<text text-anchor="middle" x="573" y="-52.75" font-family="Arial" font-size="15.00">firebase_options</text>
</g>
<!-- /lib/models/player_model.dart&#45;&gt;/lib/models/card_model.dart -->
<g id="edge10" class="edge">
<title>/lib/models/player_model.dart&#45;&gt;/lib/models/card_model.dart</title>
<path fill="none" stroke="#aabbaa" stroke-width="1.3" stroke-opacity="0.533333" d="M794.77,-111.7C786.35,-103.64 776.94,-93.89 768.95,-84.98"/>
<polygon fill="#aabbaa" fill-opacity="0.533333" stroke="#aabbaa" stroke-width="1.3" stroke-opacity="0.533333" points="771.73,-82.84 762.52,-77.59 766.44,-87.43 771.73,-82.84"/>
</g>
<!-- /lib/models/player_model.dart&#45;&gt;/lib/models/card_model.dart -->
<g id="edge11" class="edge">
<title>/lib/models/player_model.dart&#45;&gt;/lib/models/card_model.dart</title>
<path fill="none" stroke="#aabbaa" stroke-width="1.3" stroke-dasharray="5,2" stroke-opacity="0.533333" d="M806.6,-111.7C799.75,-103.54 790.62,-93.63 781.69,-84.62"/>
<polygon fill="#aabbaa" fill-opacity="0.533333" stroke="#aabbaa" stroke-width="1.3" stroke-opacity="0.533333" points="784.26,-82.24 774.68,-77.73 779.35,-87.23 784.26,-82.24"/>
</g>
<!-- /lib/models/misc.dart -->
<g id="node8" class="node">
<title>/lib/models/misc.dart</title>
<path fill="Lavender" stroke="black" stroke-width="1.3" d="M858,-76C858,-76 828,-76 828,-76 822,-76 816,-70 816,-64 816,-64 816,-52 816,-52 816,-46 822,-40 828,-40 828,-40 858,-40 858,-40 864,-40 870,-46 870,-52 870,-52 870,-64 870,-64 870,-70 864,-76 858,-76"/>
<text text-anchor="middle" x="843" y="-52.75" font-family="Arial" font-size="15.00">misc</text>
</g>
<!-- /lib/models/backend_model.dart&#45;&gt;/lib/models/firebase_options.dart -->
<g id="edge12" class="edge">
<title>/lib/models/backend_model.dart&#45;&gt;/lib/models/firebase_options.dart</title>
<path fill="none" stroke="#aabbaa" stroke-width="1.3" stroke-opacity="0.533333" d="M571.49,-111.7C571.7,-104.49 571.94,-95.93 572.18,-87.82"/>
<polygon fill="#aabbaa" fill-opacity="0.533333" stroke="#aabbaa" stroke-width="1.3" stroke-opacity="0.533333" points="575.67,-88.17 572.46,-78.07 568.67,-87.97 575.67,-88.17"/>
</g>
<!-- /lib/models/backend_model.dart&#45;&gt;/lib/models/misc.dart -->
<g id="edge13" class="edge">
<title>/lib/models/backend_model.dart&#45;&gt;/lib/models/misc.dart</title>
<path fill="none" stroke="#aabbaa" stroke-width="1.3" stroke-opacity="0.533333" d="M631.68,-114.17C634.83,-113.43 637.95,-112.7 641,-112 710.98,-95.92 733.35,-99.82 804.41,-76.47"/>
<polygon fill="#aabbaa" fill-opacity="0.533333" stroke="#aabbaa" stroke-width="1.3" stroke-opacity="0.533333" points="805.52,-79.79 813.88,-73.28 803.29,-73.15 805.52,-79.79"/>
</g>
<!-- /lib/models/deck_model.dart&#45;&gt;/lib/models/card_model.dart -->
<g id="edge14" class="edge">
<title>/lib/models/deck_model.dart&#45;&gt;/lib/models/card_model.dart</title>
<path fill="none" stroke="#aabbaa" stroke-width="1.3" stroke-opacity="0.533333" d="M705.19,-111.7C710.4,-103.73 717.47,-94.1 724.55,-85.26"/>
<polygon fill="#aabbaa" fill-opacity="0.533333" stroke="#aabbaa" stroke-width="1.3" stroke-opacity="0.533333" points="727.21,-87.55 730.9,-77.62 721.82,-83.08 727.21,-87.55"/>
</g>
<!-- /lib/models/deck_model.dart&#45;&gt;/lib/models/card_model.dart -->
<g id="edge15" class="edge">
<title>/lib/models/deck_model.dart&#45;&gt;/lib/models/card_model.dart</title>
<path fill="none" stroke="#aabbaa" stroke-width="1.3" stroke-dasharray="5,2" stroke-opacity="0.533333" d="M717.02,-111.7C723.73,-103.9 731.06,-94.51 737.27,-85.83"/>
<polygon fill="#aabbaa" fill-opacity="0.533333" stroke="#aabbaa" stroke-width="1.3" stroke-opacity="0.533333" points="740.06,-87.95 742.83,-77.73 734.29,-83.99 740.06,-87.95"/>
</g>
<!-- /lib/screens/game_screen.dart -->
<g id="node12" class="node">
<title>/lib/screens/game_screen.dart</title>
<path fill="Lavender" stroke="black" stroke-width="1.3" d="M890.38,-603C890.38,-603 807.62,-603 807.62,-603 801.62,-603 795.62,-597 795.62,-591 795.62,-591 795.62,-579 795.62,-579 795.62,-573 801.62,-567 807.62,-567 807.62,-567 890.38,-567 890.38,-567 896.38,-567 902.38,-573 902.38,-579 902.38,-579 902.38,-591 902.38,-591 902.38,-597 896.38,-603 890.38,-603"/>
<text text-anchor="middle" x="849" y="-579.75" font-family="Arial" font-size="15.00">game_screen</text>
</g>
<!-- /lib/screens/game_screen.dart&#45;&gt;/lib/models/game_model.dart -->
<g id="edge16" class="edge">
<title>/lib/screens/game_screen.dart&#45;&gt;/lib/models/game_model.dart</title>
<path fill="none" stroke="#aabbaa" stroke-width="1.3" stroke-opacity="0.533333" d="M795.34,-568.64C791.13,-565.93 787.25,-562.74 784,-559 694.32,-455.68 779.05,-379.89 715,-259 709.18,-248.01 700.64,-237.56 692.17,-228.73"/>
<polygon fill="#aabbaa" fill-opacity="0.533333" stroke="#aabbaa" stroke-width="1.3" stroke-opacity="0.533333" points="694.79,-226.39 685.21,-221.85 689.87,-231.37 694.79,-226.39"/>
</g>
<!-- /lib/screens/game_screen.dart&#45;&gt;/lib/models/game_over_dialog.dart -->
<g id="edge17" class="edge">
<title>/lib/screens/game_screen.dart&#45;&gt;/lib/models/game_over_dialog.dart</title>
<path fill="none" stroke="#aabbaa" stroke-width="1.3" stroke-opacity="0.533333" d="M860.13,-566.72C861.31,-564.21 862.32,-561.6 863,-559 874.89,-513.42 868.71,-499.76 863,-453 853,-371.1 825.2,-277.39 810.46,-231.44"/>
<polygon fill="#aabbaa" fill-opacity="0.533333" stroke="#aabbaa" stroke-width="1.3" stroke-opacity="0.533333" points="813.87,-230.61 807.45,-222.18 807.22,-232.77 813.87,-230.61"/>
</g>
<!-- /lib/screens/game_screen.dart&#45;&gt;/lib/models/misc.dart -->
<g id="edge18" class="edge">
<title>/lib/screens/game_screen.dart&#45;&gt;/lib/models/misc.dart</title>
<path fill="none" stroke="#aabbaa" stroke-width="1.3" stroke-opacity="0.533333" d="M866.76,-566.72C868.46,-564.28 869.94,-561.69 871,-559 907.28,-466.51 908.2,-206.96 879,-112 876.15,-102.73 871.06,-93.63 865.6,-85.65"/>
<polygon fill="#aabbaa" fill-opacity="0.533333" stroke="#aabbaa" stroke-width="1.3" stroke-opacity="0.533333" points="868.55,-83.76 859.78,-77.81 862.93,-87.92 868.55,-83.76"/>
</g>
<!-- /lib/screens/screen.dart -->
<g id="node14" class="node">
<title>/lib/screens/screen.dart</title>
<path fill="Lavender" stroke="black" stroke-width="1.3" d="M841.5,-497C841.5,-497 804.5,-497 804.5,-497 798.5,-497 792.5,-491 792.5,-485 792.5,-485 792.5,-473 792.5,-473 792.5,-467 798.5,-461 804.5,-461 804.5,-461 841.5,-461 841.5,-461 847.5,-461 853.5,-467 853.5,-473 853.5,-473 853.5,-485 853.5,-485 853.5,-491 847.5,-497 841.5,-497"/>
<text text-anchor="middle" x="823" y="-473.75" font-family="Arial" font-size="15.00">screen</text>
</g>
<!-- /lib/screens/game_screen.dart&#45;&gt;/lib/screens/screen.dart -->
<g id="edge19" class="edge">
<title>/lib/screens/game_screen.dart&#45;&gt;/lib/screens/screen.dart</title>
<path fill="none" stroke="#aabbaa" stroke-width="1.3" stroke-opacity="0.533333" d="M844.71,-566.83C840.75,-551.02 834.82,-527.27 830.15,-508.6"/>
<polygon fill="#aabbaa" fill-opacity="0.533333" stroke="#aabbaa" stroke-width="1.3" stroke-opacity="0.533333" points="833.6,-507.96 827.78,-499.11 826.81,-509.66 833.6,-507.96"/>
</g>
<!-- /lib/widgets/player/player_zone_widget.dart -->
<g id="node27" class="node">
<title>/lib/widgets/player/player_zone_widget.dart</title>
<path fill="Lavender" stroke="black" stroke-width="1.3" d="M1424,-497C1424,-497 1300,-497 1300,-497 1294,-497 1288,-491 1288,-485 1288,-485 1288,-473 1288,-473 1288,-467 1294,-461 1300,-461 1300,-461 1424,-461 1424,-461 1430,-461 1436,-467 1436,-473 1436,-473 1436,-485 1436,-485 1436,-491 1430,-497 1424,-497"/>
<text text-anchor="middle" x="1362" y="-473.75" font-family="Arial" font-size="15.00">player_zone_widget</text>
</g>
<!-- /lib/screens/game_screen.dart&#45;&gt;/lib/widgets/player/player_zone_widget.dart -->
<g id="edge20" class="edge">
<title>/lib/screens/game_screen.dart&#45;&gt;/lib/widgets/player/player_zone_widget.dart</title>
<path fill="none" stroke="#aabbaa" stroke-width="1.3" stroke-opacity="0.533333" d="M902.67,-583.07C1011.36,-580.86 1250.1,-574.33 1284,-559 1308.75,-547.81 1329.88,-525.01 1343.88,-506.76"/>
<polygon fill="#aabbaa" fill-opacity="0.533333" stroke="#aabbaa" stroke-width="1.3" stroke-opacity="0.533333" points="1346.65,-508.92 1349.74,-498.78 1341,-504.77 1346.65,-508.92"/>
</g>
<!-- /lib/screens/start_screen.dart -->
<g id="node13" class="node">
<title>/lib/screens/start_screen.dart</title>
<path fill="Lavender" stroke="black" stroke-width="1.3" d="M874.62,-675C874.62,-675 799.38,-675 799.38,-675 793.38,-675 787.38,-669 787.38,-663 787.38,-663 787.38,-651 787.38,-651 787.38,-645 793.38,-639 799.38,-639 799.38,-639 874.62,-639 874.62,-639 880.62,-639 886.62,-645 886.62,-651 886.62,-651 886.62,-663 886.62,-663 886.62,-669 880.62,-675 874.62,-675"/>
<text text-anchor="middle" x="837" y="-651.75" font-family="Arial" font-size="15.00">start_screen</text>
</g>
<!-- /lib/screens/start_screen.dart&#45;&gt;/lib/models/game_model.dart -->
<g id="edge22" class="edge">
<title>/lib/screens/start_screen.dart&#45;&gt;/lib/models/game_model.dart</title>
<path fill="none" stroke="#aabbaa" stroke-width="1.3" stroke-opacity="0.533333" d="M816.99,-638.7C805.4,-628.52 790.65,-615.27 778,-603 733.17,-559.5 710,-542.46 710,-480 710,-480 710,-480 710,-406 710,-342.37 687.81,-270.35 673.93,-231.51"/>
<polygon fill="#aabbaa" fill-opacity="0.533333" stroke="#aabbaa" stroke-width="1.3" stroke-opacity="0.533333" points="677.24,-230.37 670.51,-222.18 670.67,-232.78 677.24,-230.37"/>
</g>
<!-- /lib/screens/start_screen.dart&#45;&gt;/lib/models/backend_model.dart -->
<g id="edge21" class="edge">
<title>/lib/screens/start_screen.dart&#45;&gt;/lib/models/backend_model.dart</title>
<path fill="none" stroke="#aabbaa" stroke-width="1.3" stroke-opacity="0.533333" d="M786.92,-645.32C712.66,-626.21 582,-578.57 582,-480 582,-480 582,-480 582,-292 582,-245.75 577.43,-192.2 574.18,-159.99"/>
<polygon fill="#aabbaa" fill-opacity="0.533333" stroke="#aabbaa" stroke-width="1.3" stroke-opacity="0.533333" points="577.69,-159.91 573.17,-150.32 570.72,-160.63 577.69,-159.91"/>
</g>
<!-- /lib/screens/start_screen.dart&#45;&gt;/lib/screens/game_screen.dart -->
<g id="edge23" class="edge">
<title>/lib/screens/start_screen.dart&#45;&gt;/lib/screens/game_screen.dart</title>
<path fill="none" stroke="#aabbaa" stroke-width="1.3" stroke-opacity="0.533333" d="M839.97,-638.7C841.2,-631.49 842.67,-622.93 844.06,-614.82"/>
<polygon fill="#aabbaa" fill-opacity="0.533333" stroke="#aabbaa" stroke-width="1.3" stroke-opacity="0.533333" points="847.5,-615.49 845.74,-605.04 840.6,-614.31 847.5,-615.49"/>
</g>
<!-- /lib/screens/start_screen.dart&#45;&gt;/lib/screens/screen.dart -->
<g id="edge24" class="edge">
<title>/lib/screens/start_screen.dart&#45;&gt;/lib/screens/screen.dart</title>
<path fill="none" stroke="#aabbaa" stroke-width="1.3" stroke-opacity="0.533333" d="M814.14,-638.73C803.75,-629.43 792.56,-616.99 787,-603 774.28,-570.97 790.12,-532.68 804.63,-507.42"/>
<polygon fill="#aabbaa" fill-opacity="0.533333" stroke="#aabbaa" stroke-width="1.3" stroke-opacity="0.533333" points="807.46,-509.5 809.66,-499.14 801.48,-505.87 807.46,-509.5"/>
</g>
<!-- /lib/widgets/players_in_room_widget.dart -->
<g id="node22" class="node">
<title>/lib/widgets/players_in_room_widget.dart</title>
<path fill="Lavender" stroke="black" stroke-width="1.3" d="M1944.62,-497C1944.62,-497 1791.38,-497 1791.38,-497 1785.38,-497 1779.38,-491 1779.38,-485 1779.38,-485 1779.38,-473 1779.38,-473 1779.38,-467 1785.38,-461 1791.38,-461 1791.38,-461 1944.62,-461 1944.62,-461 1950.62,-461 1956.62,-467 1956.62,-473 1956.62,-473 1956.62,-485 1956.62,-485 1956.62,-491 1950.62,-497 1944.62,-497"/>
<text text-anchor="middle" x="1868" y="-473.75" font-family="Arial" font-size="15.00">players_in_room_widget</text>
</g>
<!-- /lib/screens/start_screen.dart&#45;&gt;/lib/widgets/players_in_room_widget.dart -->
<g id="edge25" class="edge">
<title>/lib/screens/start_screen.dart&#45;&gt;/lib/widgets/players_in_room_widget.dart</title>
<path fill="none" stroke="#aabbaa" stroke-width="1.3" stroke-opacity="0.533333" d="M887.05,-654.77C1056.91,-649.99 1609.78,-629.25 1771,-559 1799.23,-546.7 1825.95,-523.79 1844.17,-505.79"/>
<polygon fill="#aabbaa" fill-opacity="0.533333" stroke="#aabbaa" stroke-width="1.3" stroke-opacity="0.533333" points="1846.5,-508.41 1851.02,-498.83 1841.51,-503.5 1846.5,-508.41"/>
</g>
<!-- /lib/widgets/rooms_widget.dart -->
<g id="node24" class="node">
<title>/lib/widgets/rooms_widget.dart</title>
<path fill="Lavender" stroke="black" stroke-width="1.3" d="M1749.5,-497C1749.5,-497 1664.5,-497 1664.5,-497 1658.5,-497 1652.5,-491 1652.5,-485 1652.5,-485 1652.5,-473 1652.5,-473 1652.5,-467 1658.5,-461 1664.5,-461 1664.5,-461 1749.5,-461 1749.5,-461 1755.5,-461 1761.5,-467 1761.5,-473 1761.5,-473 1761.5,-485 1761.5,-485 1761.5,-491 1755.5,-497 1749.5,-497"/>
<text text-anchor="middle" x="1707" y="-473.75" font-family="Arial" font-size="15.00">rooms_widget</text>
</g>
<!-- /lib/screens/start_screen.dart&#45;&gt;/lib/widgets/rooms_widget.dart -->
<g id="edge26" class="edge">
<title>/lib/screens/start_screen.dart&#45;&gt;/lib/widgets/rooms_widget.dart</title>
<path fill="none" stroke="#aabbaa" stroke-width="1.3" stroke-opacity="0.533333" d="M886.85,-650.3C1062.08,-630.24 1639.67,-563.82 1648,-559 1668.25,-547.29 1683.69,-525.58 1693.69,-507.87"/>
<polygon fill="#aabbaa" fill-opacity="0.533333" stroke="#aabbaa" stroke-width="1.3" stroke-opacity="0.533333" points="1696.68,-509.7 1698.28,-499.23 1690.5,-506.42 1696.68,-509.7"/>
</g>
<!-- /lib/main.dart -->
<g id="node15" class="node">
<title>/lib/main.dart</title>
<path fill="Lavender" stroke="black" stroke-width="1.3" d="M852,-750C852,-750 822,-750 822,-750 816,-750 810,-744 810,-738 810,-738 810,-726 810,-726 810,-720 816,-714 822,-714 822,-714 852,-714 852,-714 858,-714 864,-720 864,-726 864,-726 864,-738 864,-738 864,-744 858,-750 852,-750"/>
<text text-anchor="middle" x="837" y="-726.75" font-family="Arial" font-size="15.00">main</text>
</g>
<!-- /lib/main.dart&#45;&gt;/lib/screens/start_screen.dart -->
<g id="edge27" class="edge">
<title>/lib/main.dart&#45;&gt;/lib/screens/start_screen.dart</title>
<path fill="none" stroke="#aabbaa" stroke-width="1.3" stroke-opacity="0.533333" d="M837,-713.7C837,-705.76 837,-696.12 837,-687.11"/>
<polygon fill="#aabbaa" fill-opacity="0.533333" stroke="#aabbaa" stroke-width="1.3" stroke-opacity="0.533333" points="840.5,-687.4 837,-677.4 833.5,-687.4 840.5,-687.4"/>
</g>
<!-- /lib/widgets/table_surface_painter.dart -->
<g id="node16" class="node">
<title>/lib/widgets/table_surface_painter.dart</title>
<path fill="Lavender" stroke="black" stroke-width="1.3" d="M1252,-497C1252,-497 1116,-497 1116,-497 1110,-497 1104,-491 1104,-485 1104,-485 1104,-473 1104,-473 1104,-467 1110,-461 1116,-461 1116,-461 1252,-461 1252,-461 1258,-461 1264,-467 1264,-473 1264,-473 1264,-485 1264,-485 1264,-491 1258,-497 1252,-497"/>
<text text-anchor="middle" x="1184" y="-473.75" font-family="Arial" font-size="15.00">table_surface_painter</text>
</g>
<!-- /lib/widgets/cards/card_pile_widget.dart -->
<g id="node17" class="node">
<title>/lib/widgets/cards/card_pile_widget.dart</title>
<path fill="Lavender" stroke="black" stroke-width="1.3" d="M1227.5,-220C1227.5,-220 1124.5,-220 1124.5,-220 1118.5,-220 1112.5,-214 1112.5,-208 1112.5,-208 1112.5,-196 1112.5,-196 1112.5,-190 1118.5,-184 1124.5,-184 1124.5,-184 1227.5,-184 1227.5,-184 1233.5,-184 1239.5,-190 1239.5,-196 1239.5,-196 1239.5,-208 1239.5,-208 1239.5,-214 1233.5,-220 1227.5,-220"/>
<text text-anchor="middle" x="1176" y="-196.75" font-family="Arial" font-size="15.00">card_pile_widget</text>
</g>
<!-- /lib/widgets/cards/card_pile_widget.dart&#45;&gt;/lib/models/card_model.dart -->
<g id="edge28" class="edge">
<title>/lib/widgets/cards/card_pile_widget.dart&#45;&gt;/lib/models/card_model.dart</title>
<path fill="none" stroke="#aabbaa" stroke-width="1.3" stroke-opacity="0.533333" d="M1123.89,-183.59C1044.29,-156.99 892.91,-106.41 809.6,-78.58"/>
<polygon fill="#aabbaa" fill-opacity="0.533333" stroke="#aabbaa" stroke-width="1.3" stroke-opacity="0.533333" points="810.77,-75.28 800.18,-75.43 808.55,-81.92 810.77,-75.28"/>
</g>
<!-- /lib/widgets/cards/card_widget.dart -->
<g id="node18" class="node">
<title>/lib/widgets/cards/card_widget.dart</title>
<path fill="Lavender" stroke="black" stroke-width="1.3" d="M1220.12,-148C1220.12,-148 1147.88,-148 1147.88,-148 1141.88,-148 1135.88,-142 1135.88,-136 1135.88,-136 1135.88,-124 1135.88,-124 1135.88,-118 1141.88,-112 1147.88,-112 1147.88,-112 1220.12,-112 1220.12,-112 1226.12,-112 1232.12,-118 1232.12,-124 1232.12,-124 1232.12,-136 1232.12,-136 1232.12,-142 1226.12,-148 1220.12,-148"/>
<text text-anchor="middle" x="1184" y="-124.75" font-family="Arial" font-size="15.00">card_widget</text>
</g>
<!-- /lib/widgets/cards/card_pile_widget.dart&#45;&gt;/lib/widgets/cards/card_widget.dart -->
<g id="edge29" class="edge">
<title>/lib/widgets/cards/card_pile_widget.dart&#45;&gt;/lib/widgets/cards/card_widget.dart</title>
<path fill="none" stroke="#aabbaa" stroke-width="1.3" stroke-opacity="0.533333" d="M1177.98,-183.7C1178.8,-176.49 1179.78,-167.93 1180.71,-159.82"/>
<polygon fill="#aabbaa" fill-opacity="0.533333" stroke="#aabbaa" stroke-width="1.3" stroke-opacity="0.533333" points="1184.16,-160.39 1181.82,-150.06 1177.21,-159.6 1184.16,-160.39"/>
</g>
<!-- /lib/widgets/cards/card_widget.dart&#45;&gt;/lib/models/card_model.dart -->
<g id="edge30" class="edge">
<title>/lib/widgets/cards/card_widget.dart&#45;&gt;/lib/models/card_model.dart</title>
<path fill="none" stroke="#aabbaa" stroke-width="1.3" stroke-opacity="0.533333" d="M1135.69,-122.41C1046.78,-110.26 862.12,-84.9 809.92,-76.07"/>
<polygon fill="#aabbaa" fill-opacity="0.533333" stroke="#aabbaa" stroke-width="1.3" stroke-opacity="0.533333" points="810.63,-72.64 800.15,-74.26 809.35,-79.53 810.63,-72.64"/>
</g>
<!-- /lib/widgets/cards/card_face_widget.dart -->
<g id="node19" class="node">
<title>/lib/widgets/cards/card_face_widget.dart</title>
<path fill="Lavender" stroke="black" stroke-width="1.3" d="M1229.5,-76C1229.5,-76 1120.5,-76 1120.5,-76 1114.5,-76 1108.5,-70 1108.5,-64 1108.5,-64 1108.5,-52 1108.5,-52 1108.5,-46 1114.5,-40 1120.5,-40 1120.5,-40 1229.5,-40 1229.5,-40 1235.5,-40 1241.5,-46 1241.5,-52 1241.5,-52 1241.5,-64 1241.5,-64 1241.5,-70 1235.5,-76 1229.5,-76"/>
<text text-anchor="middle" x="1175" y="-52.75" font-family="Arial" font-size="15.00">card_face_widget</text>
</g>
<!-- /lib/widgets/cards/card_widget.dart&#45;&gt;/lib/widgets/cards/card_face_widget.dart -->
<g id="edge31" class="edge">
<title>/lib/widgets/cards/card_widget.dart&#45;&gt;/lib/widgets/cards/card_face_widget.dart</title>
<path fill="none" stroke="#aabbaa" stroke-width="1.3" stroke-opacity="0.533333" d="M1181.78,-111.7C1180.85,-104.49 1179.75,-95.93 1178.71,-87.82"/>
<polygon fill="#aabbaa" fill-opacity="0.533333" stroke="#aabbaa" stroke-width="1.3" stroke-opacity="0.533333" points="1182.2,-87.53 1177.45,-78.06 1175.25,-88.42 1182.2,-87.53"/>
</g>
<!-- /lib/widgets/wiggle_widget.dart -->
<g id="node21" class="node">
<title>/lib/widgets/wiggle_widget.dart</title>
<path fill="Lavender" stroke="black" stroke-width="1.3" d="M1356.12,-76C1356.12,-76 1271.88,-76 1271.88,-76 1265.88,-76 1259.88,-70 1259.88,-64 1259.88,-64 1259.88,-52 1259.88,-52 1259.88,-46 1265.88,-40 1271.88,-40 1271.88,-40 1356.12,-40 1356.12,-40 1362.12,-40 1368.12,-46 1368.12,-52 1368.12,-52 1368.12,-64 1368.12,-64 1368.12,-70 1362.12,-76 1356.12,-76"/>
<text text-anchor="middle" x="1314" y="-52.75" font-family="Arial" font-size="15.00">wiggle_widget</text>
</g>
<!-- /lib/widgets/cards/card_widget.dart&#45;&gt;/lib/widgets/wiggle_widget.dart -->
<g id="edge32" class="edge">
<title>/lib/widgets/cards/card_widget.dart&#45;&gt;/lib/widgets/wiggle_widget.dart</title>
<path fill="none" stroke="#aabbaa" stroke-width="1.3" stroke-opacity="0.533333" d="M1216.47,-111.52C1233.11,-102.55 1253.59,-91.53 1271.48,-81.9"/>
<polygon fill="#aabbaa" fill-opacity="0.533333" stroke="#aabbaa" stroke-width="1.3" stroke-opacity="0.533333" points="1273.07,-85.02 1280.21,-77.19 1269.75,-78.85 1273.07,-85.02"/>
</g>
<!-- /lib/widgets/cards/card_face_widget.dart&#45;&gt;/lib/models/card_model.dart -->
<g id="edge33" class="edge">
<title>/lib/widgets/cards/card_face_widget.dart&#45;&gt;/lib/models/card_model.dart</title>
<path fill="none" stroke="#aabbaa" stroke-width="1.3" stroke-opacity="0.533333" d="M1115.58,-76.48C1043.58,-96.03 919.1,-120.64 816,-94 806.22,-91.47 796.33,-87.12 787.33,-82.3"/>
<polygon fill="#aabbaa" fill-opacity="0.533333" stroke="#aabbaa" stroke-width="1.3" stroke-opacity="0.533333" points="789.34,-79.42 778.92,-77.48 785.86,-85.49 789.34,-79.42"/>
</g>
<!-- /lib/widgets/cards/card_piles_widget.dart -->
<g id="node20" class="node">
<title>/lib/widgets/cards/card_piles_widget.dart</title>
<path fill="Lavender" stroke="black" stroke-width="1.3" d="M1230.25,-311C1230.25,-311 1119.75,-311 1119.75,-311 1113.75,-311 1107.75,-305 1107.75,-299 1107.75,-299 1107.75,-287 1107.75,-287 1107.75,-281 1113.75,-275 1119.75,-275 1119.75,-275 1230.25,-275 1230.25,-275 1236.25,-275 1242.25,-281 1242.25,-287 1242.25,-287 1242.25,-299 1242.25,-299 1242.25,-305 1236.25,-311 1230.25,-311"/>
<text text-anchor="middle" x="1175" y="-287.75" font-family="Arial" font-size="15.00">card_piles_widget</text>
</g>
<!-- /lib/widgets/cards/card_piles_widget.dart&#45;&gt;/lib/models/card_model.dart -->
<g id="edge34" class="edge">
<title>/lib/widgets/cards/card_piles_widget.dart&#45;&gt;/lib/models/card_model.dart</title>
<path fill="none" stroke="#aabbaa" stroke-width="1.3" stroke-opacity="0.533333" d="M1131.41,-274.55C1076.06,-251.08 979.29,-205.56 909,-148 892.89,-134.81 895.78,-124.34 879,-112 867.11,-103.25 837.21,-90.72 809.3,-80.03"/>
<polygon fill="#aabbaa" fill-opacity="0.533333" stroke="#aabbaa" stroke-width="1.3" stroke-opacity="0.533333" points="810.77,-76.84 800.17,-76.58 808.29,-83.39 810.77,-76.84"/>
</g>
<!-- /lib/widgets/cards/card_piles_widget.dart&#45;&gt;/lib/widgets/cards/card_pile_widget.dart -->
<g id="edge35" class="edge">
<title>/lib/widgets/cards/card_piles_widget.dart&#45;&gt;/lib/widgets/cards/card_pile_widget.dart</title>
<path fill="none" stroke="#aabbaa" stroke-width="1.3" stroke-opacity="0.533333" d="M1175.19,-274.84C1175.33,-262.73 1175.51,-246.21 1175.67,-232.06"/>
<polygon fill="#aabbaa" fill-opacity="0.533333" stroke="#aabbaa" stroke-width="1.3" stroke-opacity="0.533333" points="1179.17,-232.42 1175.78,-222.38 1172.17,-232.34 1179.17,-232.42"/>
</g>
<!-- /lib/widgets/text_edit_with_submit.dart -->
<g id="node23" class="node">
<title>/lib/widgets/text_edit_with_submit.dart</title>
<path fill="Lavender" stroke="black" stroke-width="1.3" d="M1074,-497C1074,-497 938,-497 938,-497 932,-497 926,-491 926,-485 926,-485 926,-473 926,-473 926,-467 932,-461 938,-461 938,-461 1074,-461 1074,-461 1080,-461 1086,-467 1086,-473 1086,-473 1086,-485 1086,-485 1086,-491 1080,-497 1074,-497"/>
<text text-anchor="middle" x="1006" y="-473.75" font-family="Arial" font-size="15.00">text_edit_with_submit</text>
</g>
<!-- /lib/widgets/text_edit_with_submit.dart&#45;&gt;/lib/models/misc.dart -->
<g id="edge36" class="edge">
<title>/lib/widgets/text_edit_with_submit.dart&#45;&gt;/lib/models/misc.dart</title>
<path fill="none" stroke="#aabbaa" stroke-width="1.3" stroke-opacity="0.533333" d="M987.37,-460.58C978.26,-450.97 967.98,-438.31 962,-425 904.29,-296.64 986.46,-232.65 914,-112 905.88,-98.47 892.86,-87.28 880.18,-78.72"/>
<polygon fill="#aabbaa" fill-opacity="0.533333" stroke="#aabbaa" stroke-width="1.3" stroke-opacity="0.533333" points="882.18,-75.84 871.85,-73.47 878.45,-81.76 882.18,-75.84"/>
</g>
<!-- /lib/widgets/player/player_zone_cta_widget.dart -->
<g id="node25" class="node">
<title>/lib/widgets/player/player_zone_cta_widget.dart</title>
<path fill="Lavender" stroke="black" stroke-width="1.3" d="M1444.25,-425C1444.25,-425 1291.75,-425 1291.75,-425 1285.75,-425 1279.75,-419 1279.75,-413 1279.75,-413 1279.75,-401 1279.75,-401 1279.75,-395 1285.75,-389 1291.75,-389 1291.75,-389 1444.25,-389 1444.25,-389 1450.25,-389 1456.25,-395 1456.25,-401 1456.25,-401 1456.25,-413 1456.25,-413 1456.25,-419 1450.25,-425 1444.25,-425"/>
<text text-anchor="middle" x="1368" y="-401.75" font-family="Arial" font-size="15.00">player_zone_cta_widget</text>
</g>
<!-- /lib/widgets/player/player_zone_cta_widget.dart&#45;&gt;/lib/models/game_model.dart -->
<g id="edge37" class="edge">
<title>/lib/widgets/player/player_zone_cta_widget.dart&#45;&gt;/lib/models/game_model.dart</title>
<path fill="none" stroke="#aabbaa" stroke-width="1.3" stroke-opacity="0.533333" d="M1279.42,-403.07C1225.44,-399.38 1155.61,-391.16 1096,-373 989.14,-340.44 979.89,-287.96 872,-259 839.97,-250.4 753.98,-262.81 723,-251 710.02,-246.05 697.67,-237.19 687.59,-228.41"/>
<polygon fill="#aabbaa" fill-opacity="0.533333" stroke="#aabbaa" stroke-width="1.3" stroke-opacity="0.533333" points="690.18,-226.04 680.46,-221.83 685.43,-231.18 690.18,-226.04"/>
</g>
<!-- /lib/widgets/player/player_zone_cta_widget.dart&#45;&gt;/lib/widgets/cards/card_pile_widget.dart -->
<g id="edge38" class="edge">
<title>/lib/widgets/player/player_zone_cta_widget.dart&#45;&gt;/lib/widgets/cards/card_pile_widget.dart</title>
<path fill="none" stroke="#aabbaa" stroke-width="1.3" stroke-opacity="0.533333" d="M1335.07,-388.54C1328.29,-384.04 1321.53,-378.8 1316,-373 1275.75,-330.8 1289.62,-302.7 1251,-259 1240.47,-247.09 1227.03,-236.1 1214.45,-227.07"/>
<polygon fill="#aabbaa" fill-opacity="0.533333" stroke="#aabbaa" stroke-width="1.3" stroke-opacity="0.533333" points="1216.45,-224.2 1206.23,-221.39 1212.47,-229.95 1216.45,-224.2"/>
</g>
<!-- /lib/widgets/player/player_zone_cta_widget.dart&#45;&gt;/lib/widgets/cards/card_widget.dart -->
<g id="edge40" class="edge">
<title>/lib/widgets/player/player_zone_cta_widget.dart&#45;&gt;/lib/widgets/cards/card_widget.dart</title>
<path fill="none" stroke="#aabbaa" stroke-width="1.3" stroke-opacity="0.533333" d="M1361.51,-388.76C1346.18,-349.51 1304.77,-251.65 1249,-184 1240.42,-173.59 1229.54,-163.78 1219.14,-155.49"/>
<polygon fill="#aabbaa" fill-opacity="0.533333" stroke="#aabbaa" stroke-width="1.3" stroke-opacity="0.533333" points="1221.44,-152.84 1211.38,-149.53 1217.18,-158.39 1221.44,-152.84"/>
</g>
<!-- /lib/widgets/player/player_zone_cta_widget.dart&#45;&gt;/lib/widgets/cards/card_piles_widget.dart -->
<g id="edge39" class="edge">
<title>/lib/widgets/player/player_zone_cta_widget.dart&#45;&gt;/lib/widgets/cards/card_piles_widget.dart</title>
<path fill="none" stroke="#aabbaa" stroke-width="1.3" stroke-opacity="0.533333" d="M1306.68,-388.54C1294.85,-384.18 1282.78,-378.99 1272,-373 1245.69,-358.38 1219.44,-336.44 1200.89,-319.38"/>
<polygon fill="#aabbaa" fill-opacity="0.533333" stroke="#aabbaa" stroke-width="1.3" stroke-opacity="0.533333" points="1203.31,-316.85 1193.63,-312.56 1198.52,-321.96 1203.31,-316.85"/>
</g>
<!-- /lib/widgets/player/player_header_widget.dart -->
<g id="node26" class="node">
<title>/lib/widgets/player/player_header_widget.dart</title>
<path fill="Lavender" stroke="black" stroke-width="1.3" d="M1624.12,-425C1624.12,-425 1485.88,-425 1485.88,-425 1479.88,-425 1473.88,-419 1473.88,-413 1473.88,-413 1473.88,-401 1473.88,-401 1473.88,-395 1479.88,-389 1485.88,-389 1485.88,-389 1624.12,-389 1624.12,-389 1630.12,-389 1636.12,-395 1636.12,-401 1636.12,-401 1636.12,-413 1636.12,-413 1636.12,-419 1630.12,-425 1624.12,-425"/>
<text text-anchor="middle" x="1555" y="-401.75" font-family="Arial" font-size="15.00">player_header_widget</text>
</g>
<!-- /lib/widgets/player/player_zone_widget.dart&#45;&gt;/lib/models/game_model.dart -->
<g id="edge41" class="edge">
<title>/lib/widgets/player/player_zone_widget.dart&#45;&gt;/lib/models/game_model.dart</title>
<path fill="none" stroke="#aabbaa" stroke-width="1.3" stroke-opacity="0.533333" d="M1313.34,-460.57C1303.72,-457.64 1293.62,-454.93 1284,-453 1143.17,-424.68 1095.64,-477.68 962,-425 850.67,-381.11 856.36,-313.86 750,-259 738.88,-253.26 734.09,-256.79 723,-251 711.26,-244.87 699.61,-236.27 689.73,-228.05"/>
<polygon fill="#aabbaa" fill-opacity="0.533333" stroke="#aabbaa" stroke-width="1.3" stroke-opacity="0.533333" points="692.2,-225.56 682.35,-221.66 687.62,-230.85 692.2,-225.56"/>
</g>
<!-- /lib/widgets/player/player_zone_widget.dart&#45;&gt;/lib/models/misc.dart -->
<g id="edge42" class="edge">
<title>/lib/widgets/player/player_zone_widget.dart&#45;&gt;/lib/models/misc.dart</title>
<path fill="none" stroke="#aabbaa" stroke-width="1.3" stroke-opacity="0.533333" d="M1312.71,-460.6C1240.59,-434.84 1112.97,-387.96 1096,-373 996.8,-285.51 1048.94,-203.05 953,-112 932.74,-92.77 904.2,-79.3 881.27,-70.75"/>
<polygon fill="#aabbaa" fill-opacity="0.533333" stroke="#aabbaa" stroke-width="1.3" stroke-opacity="0.533333" points="882.65,-67.52 872.05,-67.49 880.31,-74.12 882.65,-67.52"/>
</g>
<!-- /lib/widgets/player/player_zone_widget.dart&#45;&gt;/lib/widgets/cards/card_widget.dart -->
<g id="edge43" class="edge">
<title>/lib/widgets/player/player_zone_widget.dart&#45;&gt;/lib/widgets/cards/card_widget.dart</title>
<path fill="none" stroke="#aabbaa" stroke-width="1.3" stroke-opacity="0.533333" d="M1411.99,-460.56C1421.23,-457.74 1430.85,-455.08 1440,-453 1534.18,-431.65 1694.4,-463.98 1645,-381 1556.88,-232.98 1347.19,-167.19 1243.77,-142.94"/>
<polygon fill="#aabbaa" fill-opacity="0.533333" stroke="#aabbaa" stroke-width="1.3" stroke-opacity="0.533333" points="1244.75,-139.58 1234.22,-140.76 1243.19,-146.4 1244.75,-139.58"/>
</g>
<!-- /lib/widgets/player/player_zone_widget.dart&#45;&gt;/lib/widgets/player/player_zone_cta_widget.dart -->
<g id="edge45" class="edge">
<title>/lib/widgets/player/player_zone_widget.dart&#45;&gt;/lib/widgets/player/player_zone_cta_widget.dart</title>
<path fill="none" stroke="#aabbaa" stroke-width="1.3" stroke-opacity="0.533333" d="M1363.48,-460.7C1364.1,-453.49 1364.83,-444.93 1365.53,-436.82"/>
<polygon fill="#aabbaa" fill-opacity="0.533333" stroke="#aabbaa" stroke-width="1.3" stroke-opacity="0.533333" points="1369,-437.33 1366.37,-427.06 1362.02,-436.73 1369,-437.33"/>
</g>
<!-- /lib/widgets/player/player_zone_widget.dart&#45;&gt;/lib/widgets/player/player_header_widget.dart -->
<g id="edge44" class="edge">
<title>/lib/widgets/player/player_zone_widget.dart&#45;&gt;/lib/widgets/player/player_header_widget.dart</title>
<path fill="none" stroke="#aabbaa" stroke-width="1.3" stroke-opacity="0.533333" d="M1410.2,-460.52C1436.21,-451.08 1468.52,-439.37 1496.01,-429.39"/>
<polygon fill="#aabbaa" fill-opacity="0.533333" stroke="#aabbaa" stroke-width="1.3" stroke-opacity="0.533333" points="1497.02,-432.75 1505.23,-426.05 1494.63,-426.17 1497.02,-432.75"/>
</g>
</g>
</svg>
