<?xml version="1.0" encoding="UTF-8" standalone="no"?>
<!DOCTYPE svg PUBLIC "-//W3C//DTD SVG 1.1//EN"
 "http://www.w3.org/Graphics/SVG/1.1/DTD/svg11.dtd">
<!-- Generated by graphviz version 12.1.2 (20240928.0832)
 -->
<!-- Pages: 1 -->
<svg width="1514pt" height="678pt"
 viewBox="0.00 0.00 1514.00 678.00" xmlns="http://www.w3.org/2000/svg" xmlns:xlink="http://www.w3.org/1999/xlink">
<g id="graph0" class="graph" transform="scale(1 1) rotate(0) translate(4 674)">
<polygon fill="white" stroke="none" points="-4,4 -4,-674 1510,-674 1510,4 -4,4"/>
<g id="clust1" class="cluster">
<title>cluster~</title>
<path fill="none" stroke="lightgray" stroke-width="2.6" d="M20,-8C20,-8 1486,-8 1486,-8 1492,-8 1498,-14 1498,-20 1498,-20 1498,-650 1498,-650 1498,-656 1492,-662 1486,-662 1486,-662 20,-662 20,-662 14,-662 8,-656 8,-650 8,-650 8,-20 8,-20 8,-14 14,-8 20,-8"/>
<text text-anchor="middle" x="753" y="-645.65" font-family="Arial Black" font-size="13.00">cards</text>
</g>
<g id="clust2" class="cluster">
<title>cluster~/test</title>
<path fill="none" stroke="lightgray" stroke-width="2.6" d="M28,-251C28,-251 156,-251 156,-251 162,-251 168,-257 168,-263 168,-263 168,-314 168,-314 168,-320 162,-326 156,-326 156,-326 28,-326 28,-326 22,-326 16,-320 16,-314 16,-314 16,-263 16,-263 16,-257 22,-251 28,-251"/>
<text text-anchor="middle" x="92" y="-309.65" font-family="Arial Black" font-size="13.00">test</text>
</g>
<g id="clust3" class="cluster">
<title>cluster~/lib</title>
<path fill="none" stroke="lightgray" stroke-width="2.6" d="M188,-16C188,-16 1478,-16 1478,-16 1484,-16 1490,-22 1490,-28 1490,-28 1490,-619 1490,-619 1490,-625 1484,-631 1478,-631 1478,-631 188,-631 188,-631 182,-631 176,-625 176,-619 176,-619 176,-28 176,-28 176,-22 182,-16 188,-16"/>
<text text-anchor="middle" x="833" y="-614.65" font-family="Arial Black" font-size="13.00">lib</text>
</g>
<g id="clust4" class="cluster">
<title>cluster~/lib/models</title>
<path fill="none" stroke="lightgray" stroke-width="2.6" d="M932,-24C932,-24 1284,-24 1284,-24 1290,-24 1296,-30 1296,-36 1296,-36 1296,-231 1296,-231 1296,-237 1290,-243 1284,-243 1284,-243 932,-243 932,-243 926,-243 920,-237 920,-231 920,-231 920,-36 920,-36 920,-30 926,-24 932,-24"/>
<text text-anchor="middle" x="1108" y="-226.65" font-family="Arial Black" font-size="13.00">models</text>
</g>
<g id="clust5" class="cluster">
<title>cluster~/lib/screens</title>
<path fill="none" stroke="lightgray" stroke-width="2.6" d="M932,-334C932,-334 1050,-334 1050,-334 1056,-334 1062,-340 1062,-346 1062,-346 1062,-544 1062,-544 1062,-550 1056,-556 1050,-556 1050,-556 932,-556 932,-556 926,-556 920,-550 920,-544 920,-544 920,-346 920,-346 920,-340 926,-334 932,-334"/>
<text text-anchor="middle" x="991" y="-539.65" font-family="Arial Black" font-size="13.00">screens</text>
</g>
<g id="clust6" class="cluster">
<title>cluster~/lib/widgets</title>
<path fill="none" stroke="lightgray" stroke-width="2.6" d="M208,-96C208,-96 900,-96 900,-96 906,-96 912,-102 912,-108 912,-108 912,-397 912,-397 912,-403 906,-409 900,-409 900,-409 208,-409 208,-409 202,-409 196,-403 196,-397 196,-397 196,-108 196,-108 196,-102 202,-96 208,-96"/>
<text text-anchor="middle" x="554" y="-392.65" font-family="Arial Black" font-size="13.00">widgets</text>
</g>
<!-- /test/game_model_test.dart -->
<g id="node1" class="node">
<title>/test/game_model_test.dart</title>
<path fill="Lavender" stroke="black" stroke-width="1.3" d="M147.62,-295C147.62,-295 36.38,-295 36.38,-295 30.38,-295 24.38,-289 24.38,-283 24.38,-283 24.38,-271 24.38,-271 24.38,-265 30.38,-259 36.38,-259 36.38,-259 147.62,-259 147.62,-259 153.62,-259 159.62,-265 159.62,-271 159.62,-271 159.62,-283 159.62,-283 159.62,-289 153.62,-295 147.62,-295"/>
<text text-anchor="middle" x="92" y="-271.75" font-family="Arial" font-size="15.00">game_model_test</text>
</g>
<!-- /lib/models/game_model.dart -->
<g id="node4" class="node">
<title>/lib/models/game_model.dart</title>
<path fill="Lavender" stroke="black" stroke-width="1.3" d="M1068.12,-212C1068.12,-212 989.88,-212 989.88,-212 983.88,-212 977.88,-206 977.88,-200 977.88,-200 977.88,-188 977.88,-188 977.88,-182 983.88,-176 989.88,-176 989.88,-176 1068.12,-176 1068.12,-176 1074.12,-176 1080.12,-182 1080.12,-188 1080.12,-188 1080.12,-200 1080.12,-200 1080.12,-206 1074.12,-212 1068.12,-212"/>
<text text-anchor="middle" x="1029" y="-188.75" font-family="Arial" font-size="15.00">game_model</text>
</g>
<!-- /test/game_model_test.dart&#45;&gt;/lib/models/game_model.dart -->
<g id="edge1" class="edge">
<title>/test/game_model_test.dart&#45;&gt;/lib/models/game_model.dart</title>
<path fill="none" stroke="#aabbaa" stroke-width="1.3" stroke-opacity="0.533333" d="M152.11,-258.56C165.16,-255.45 178.95,-252.68 192,-251 271.79,-240.73 837.26,-259.48 916,-243 940.4,-237.89 966.1,-227.43 986.81,-217.57"/>
<polygon fill="#aabbaa" fill-opacity="0.533333" stroke="#aabbaa" stroke-width="1.3" stroke-opacity="0.533333" points="988.25,-220.76 995.69,-213.22 985.17,-214.48 988.25,-220.76"/>
</g>
<!-- /lib/firebase_options_private.dart -->
<g id="node2" class="node">
<title>/lib/firebase_options_private.dart</title>
<path fill="Lavender" stroke="black" stroke-width="1.3" d="M1470.38,-68C1470.38,-68 1315.62,-68 1315.62,-68 1309.62,-68 1303.62,-62 1303.62,-56 1303.62,-56 1303.62,-44 1303.62,-44 1303.62,-38 1309.62,-32 1315.62,-32 1315.62,-32 1470.38,-32 1470.38,-32 1476.38,-32 1482.38,-38 1482.38,-44 1482.38,-44 1482.38,-56 1482.38,-56 1482.38,-62 1476.38,-68 1470.38,-68"/>
<text text-anchor="middle" x="1393" y="-44.75" font-family="Arial" font-size="15.00">firebase_options_private</text>
</g>
<!-- /lib/firebase_options.dart -->
<g id="node3" class="node">
<title>/lib/firebase_options.dart</title>
<path fill="Lavender" stroke="black" stroke-width="1.3" d="M609.75,-600C609.75,-600 508.25,-600 508.25,-600 502.25,-600 496.25,-594 496.25,-588 496.25,-588 496.25,-576 496.25,-576 496.25,-570 502.25,-564 508.25,-564 508.25,-564 609.75,-564 609.75,-564 615.75,-564 621.75,-570 621.75,-576 621.75,-576 621.75,-588 621.75,-588 621.75,-594 615.75,-600 609.75,-600"/>
<text text-anchor="middle" x="559" y="-576.75" font-family="Arial" font-size="15.00">firebase_options</text>
</g>
<!-- /lib/models/player_model.dart -->
<g id="node6" class="node">
<title>/lib/models/player_model.dart</title>
<path fill="Lavender" stroke="black" stroke-width="1.3" d="M1275.62,-140C1275.62,-140 1194.38,-140 1194.38,-140 1188.38,-140 1182.38,-134 1182.38,-128 1182.38,-128 1182.38,-116 1182.38,-116 1182.38,-110 1188.38,-104 1194.38,-104 1194.38,-104 1275.62,-104 1275.62,-104 1281.62,-104 1287.62,-110 1287.62,-116 1287.62,-116 1287.62,-128 1287.62,-128 1287.62,-134 1281.62,-140 1275.62,-140"/>
<text text-anchor="middle" x="1235" y="-116.75" font-family="Arial" font-size="15.00">player_model</text>
</g>
<!-- /lib/models/game_model.dart&#45;&gt;/lib/models/player_model.dart -->
<g id="edge4" class="edge">
<title>/lib/models/game_model.dart&#45;&gt;/lib/models/player_model.dart</title>
<path fill="none" stroke="#aabbaa" stroke-width="1.3" stroke-opacity="0.533333" d="M1074.52,-175.52C1102.8,-165.56 1139.52,-153.06 1170.72,-142.75"/>
<polygon fill="#aabbaa" fill-opacity="0.533333" stroke="#aabbaa" stroke-width="1.3" stroke-opacity="0.533333" points="1171.67,-146.13 1180.08,-139.68 1169.48,-139.48 1171.67,-146.13"/>
</g>
<!-- /lib/models/game_model.dart&#45;&gt;/lib/models/player_model.dart -->
<g id="edge6" class="edge">
<title>/lib/models/game_model.dart&#45;&gt;/lib/models/player_model.dart</title>
<path fill="none" stroke="#aabbaa" stroke-width="1.3" stroke-dasharray="5,2" stroke-opacity="0.533333" d="M1080.44,-177.46C1110.31,-167.71 1147.92,-154.99 1178.59,-144.3"/>
<polygon fill="#aabbaa" fill-opacity="0.533333" stroke="#aabbaa" stroke-width="1.3" stroke-opacity="0.533333" points="1179.41,-147.72 1187.69,-141.11 1177.1,-141.11 1179.41,-147.72"/>
</g>
<!-- /lib/models/backend_model.dart -->
<g id="node8" class="node">
<title>/lib/models/backend_model.dart</title>
<path fill="Lavender" stroke="black" stroke-width="1.3" d="M1037.5,-140C1037.5,-140 940.5,-140 940.5,-140 934.5,-140 928.5,-134 928.5,-128 928.5,-128 928.5,-116 928.5,-116 928.5,-110 934.5,-104 940.5,-104 940.5,-104 1037.5,-104 1037.5,-104 1043.5,-104 1049.5,-110 1049.5,-116 1049.5,-116 1049.5,-128 1049.5,-128 1049.5,-134 1043.5,-140 1037.5,-140"/>
<text text-anchor="middle" x="989" y="-116.75" font-family="Arial" font-size="15.00">backend_model</text>
</g>
<!-- /lib/models/game_model.dart&#45;&gt;/lib/models/backend_model.dart -->
<g id="edge2" class="edge">
<title>/lib/models/game_model.dart&#45;&gt;/lib/models/backend_model.dart</title>
<path fill="none" stroke="#aabbaa" stroke-width="1.3" stroke-opacity="0.533333" d="M1019.11,-175.7C1014.75,-168.07 1009.52,-158.92 1004.65,-150.4"/>
<polygon fill="#aabbaa" fill-opacity="0.533333" stroke="#aabbaa" stroke-width="1.3" stroke-opacity="0.533333" points="1007.75,-148.76 999.75,-141.81 1001.67,-152.23 1007.75,-148.76"/>
</g>
<!-- /lib/models/deck_model.dart -->
<g id="node9" class="node">
<title>/lib/models/deck_model.dart</title>
<path fill="Lavender" stroke="black" stroke-width="1.3" d="M1152.12,-140C1152.12,-140 1079.88,-140 1079.88,-140 1073.88,-140 1067.88,-134 1067.88,-128 1067.88,-128 1067.88,-116 1067.88,-116 1067.88,-110 1073.88,-104 1079.88,-104 1079.88,-104 1152.12,-104 1152.12,-104 1158.12,-104 1164.12,-110 1164.12,-116 1164.12,-116 1164.12,-128 1164.12,-128 1164.12,-134 1158.12,-140 1152.12,-140"/>
<text text-anchor="middle" x="1116" y="-116.75" font-family="Arial" font-size="15.00">deck_model</text>
</g>
<!-- /lib/models/game_model.dart&#45;&gt;/lib/models/deck_model.dart -->
<g id="edge3" class="edge">
<title>/lib/models/game_model.dart&#45;&gt;/lib/models/deck_model.dart</title>
<path fill="none" stroke="#aabbaa" stroke-width="1.3" stroke-opacity="0.533333" d="M1044.59,-175.7C1054.27,-167.2 1067,-156.81 1079.06,-147.51"/>
<polygon fill="#aabbaa" fill-opacity="0.533333" stroke="#aabbaa" stroke-width="1.3" stroke-opacity="0.533333" points="1081.09,-150.36 1086.95,-141.54 1076.87,-144.78 1081.09,-150.36"/>
</g>
<!-- /lib/models/game_model.dart&#45;&gt;/lib/models/deck_model.dart -->
<g id="edge5" class="edge">
<title>/lib/models/game_model.dart&#45;&gt;/lib/models/deck_model.dart</title>
<path fill="none" stroke="#aabbaa" stroke-width="1.3" stroke-dasharray="5,2" stroke-opacity="0.533333" d="M1056.42,-175.7C1067.63,-167.37 1080.44,-157.22 1091.35,-148.07"/>
<polygon fill="#aabbaa" fill-opacity="0.533333" stroke="#aabbaa" stroke-width="1.3" stroke-opacity="0.533333" points="1093.55,-150.79 1098.87,-141.63 1088.99,-145.47 1093.55,-150.79"/>
</g>
<!-- /lib/models/game_over_dialog.dart -->
<g id="node5" class="node">
<title>/lib/models/game_over_dialog.dart</title>
<path fill="Lavender" stroke="black" stroke-width="1.3" d="M1248.12,-212C1248.12,-212 1133.88,-212 1133.88,-212 1127.88,-212 1121.88,-206 1121.88,-200 1121.88,-200 1121.88,-188 1121.88,-188 1121.88,-182 1127.88,-176 1133.88,-176 1133.88,-176 1248.12,-176 1248.12,-176 1254.12,-176 1260.12,-182 1260.12,-188 1260.12,-188 1260.12,-200 1260.12,-200 1260.12,-206 1254.12,-212 1248.12,-212"/>
<text text-anchor="middle" x="1191" y="-188.75" font-family="Arial" font-size="15.00">game_over_dialog</text>
</g>
<!-- /lib/models/game_over_dialog.dart&#45;&gt;/lib/models/player_model.dart -->
<g id="edge7" class="edge">
<title>/lib/models/game_over_dialog.dart&#45;&gt;/lib/models/player_model.dart</title>
<path fill="none" stroke="#aabbaa" stroke-width="1.3" stroke-opacity="0.533333" d="M1201.88,-175.7C1206.73,-167.98 1212.55,-158.71 1217.96,-150.11"/>
<polygon fill="#aabbaa" fill-opacity="0.533333" stroke="#aabbaa" stroke-width="1.3" stroke-opacity="0.533333" points="1220.84,-152.1 1223.2,-141.77 1214.92,-148.37 1220.84,-152.1"/>
</g>
<!-- /lib/models/card_model.dart -->
<g id="node7" class="node">
<title>/lib/models/card_model.dart</title>
<path fill="Lavender" stroke="black" stroke-width="1.3" d="M1151,-68C1151,-68 1081,-68 1081,-68 1075,-68 1069,-62 1069,-56 1069,-56 1069,-44 1069,-44 1069,-38 1075,-32 1081,-32 1081,-32 1151,-32 1151,-32 1157,-32 1163,-38 1163,-44 1163,-44 1163,-56 1163,-56 1163,-62 1157,-68 1151,-68"/>
<text text-anchor="middle" x="1116" y="-44.75" font-family="Arial" font-size="15.00">card_model</text>
</g>
<!-- /lib/models/player_model.dart&#45;&gt;/lib/models/card_model.dart -->
<g id="edge8" class="edge">
<title>/lib/models/player_model.dart&#45;&gt;/lib/models/card_model.dart</title>
<path fill="none" stroke="#aabbaa" stroke-width="1.3" stroke-opacity="0.533333" d="M1199.34,-103.52C1183.42,-94.68 1164.83,-83.84 1149.21,-74.3"/>
<polygon fill="#aabbaa" fill-opacity="0.533333" stroke="#aabbaa" stroke-width="1.3" stroke-opacity="0.533333" points="1151.45,-71.57 1141.11,-69.29 1147.77,-77.53 1151.45,-71.57"/>
</g>
<!-- /lib/models/player_model.dart&#45;&gt;/lib/models/card_model.dart -->
<g id="edge9" class="edge">
<title>/lib/models/player_model.dart&#45;&gt;/lib/models/card_model.dart</title>
<path fill="none" stroke="#aabbaa" stroke-width="1.3" stroke-dasharray="5,2" stroke-opacity="0.533333" d="M1211.21,-103.52C1196.95,-94.6 1178.46,-83.63 1161.54,-74.03"/>
<polygon fill="#aabbaa" fill-opacity="0.533333" stroke="#aabbaa" stroke-width="1.3" stroke-opacity="0.533333" points="1163.4,-71.06 1152.97,-69.22 1159.98,-77.17 1163.4,-71.06"/>
</g>
<!-- /lib/models/backend_model.dart&#45;&gt;/lib/firebase_options_private.dart -->
<g id="edge10" class="edge">
<title>/lib/models/backend_model.dart&#45;&gt;/lib/firebase_options_private.dart</title>
<path fill="none" stroke="#aabbaa" stroke-width="1.3" stroke-opacity="0.533333" d="M1032.98,-103.58C1041.51,-100.69 1050.45,-97.99 1059,-96 1160.21,-72.37 1191.13,-83.07 1291.81,-69.15"/>
<polygon fill="#aabbaa" fill-opacity="0.533333" stroke="#aabbaa" stroke-width="1.3" stroke-opacity="0.533333" points="1292.08,-72.65 1301.48,-67.76 1291.09,-65.72 1292.08,-72.65"/>
</g>
<!-- /lib/models/deck_model.dart&#45;&gt;/lib/models/card_model.dart -->
<g id="edge11" class="edge">
<title>/lib/models/deck_model.dart&#45;&gt;/lib/models/card_model.dart</title>
<path fill="none" stroke="#aabbaa" stroke-width="1.3" stroke-opacity="0.533333" d="M1110.08,-103.7C1109.34,-96.49 1109.09,-87.93 1109.34,-79.82"/>
<polygon fill="#aabbaa" fill-opacity="0.533333" stroke="#aabbaa" stroke-width="1.3" stroke-opacity="0.533333" points="1112.82,-80.27 1109.98,-70.07 1105.84,-79.82 1112.82,-80.27"/>
</g>
<!-- /lib/models/deck_model.dart&#45;&gt;/lib/models/card_model.dart -->
<g id="edge12" class="edge">
<title>/lib/models/deck_model.dart&#45;&gt;/lib/models/card_model.dart</title>
<path fill="none" stroke="#aabbaa" stroke-width="1.3" stroke-dasharray="5,2" stroke-opacity="0.533333" d="M1121.92,-103.7C1122.66,-96.49 1122.91,-87.93 1122.66,-79.82"/>
<polygon fill="#aabbaa" fill-opacity="0.533333" stroke="#aabbaa" stroke-width="1.3" stroke-opacity="0.533333" points="1126.16,-79.82 1122.02,-70.07 1119.18,-80.27 1126.16,-79.82"/>
</g>
<!-- /lib/screens/game_screen.dart -->
<g id="node10" class="node">
<title>/lib/screens/game_screen.dart</title>
<path fill="Lavender" stroke="black" stroke-width="1.3" d="M1042.38,-453C1042.38,-453 959.62,-453 959.62,-453 953.62,-453 947.62,-447 947.62,-441 947.62,-441 947.62,-429 947.62,-429 947.62,-423 953.62,-417 959.62,-417 959.62,-417 1042.38,-417 1042.38,-417 1048.38,-417 1054.38,-423 1054.38,-429 1054.38,-429 1054.38,-441 1054.38,-441 1054.38,-447 1048.38,-453 1042.38,-453"/>
<text text-anchor="middle" x="1001" y="-429.75" font-family="Arial" font-size="15.00">game_screen</text>
</g>
<!-- /lib/screens/game_screen.dart&#45;&gt;/lib/models/game_model.dart -->
<g id="edge13" class="edge">
<title>/lib/screens/game_screen.dart&#45;&gt;/lib/models/game_model.dart</title>
<path fill="none" stroke="#aabbaa" stroke-width="1.3" stroke-opacity="0.533333" d="M1003.01,-416.81C1007.76,-376.26 1019.71,-274.25 1025.61,-223.96"/>
<polygon fill="#aabbaa" fill-opacity="0.533333" stroke="#aabbaa" stroke-width="1.3" stroke-opacity="0.533333" points="1029.05,-224.65 1026.74,-214.31 1022.1,-223.83 1029.05,-224.65"/>
</g>
<!-- /lib/screens/game_screen.dart&#45;&gt;/lib/models/game_over_dialog.dart -->
<g id="edge14" class="edge">
<title>/lib/screens/game_screen.dart&#45;&gt;/lib/models/game_over_dialog.dart</title>
<path fill="none" stroke="#aabbaa" stroke-width="1.3" stroke-opacity="0.533333" d="M1014.66,-416.81C1047.45,-375.57 1130.76,-270.78 1169.98,-221.45"/>
<polygon fill="#aabbaa" fill-opacity="0.533333" stroke="#aabbaa" stroke-width="1.3" stroke-opacity="0.533333" points="1172.5,-223.9 1175.98,-213.89 1167.02,-219.54 1172.5,-223.9"/>
</g>
<!-- /lib/screens/screen.dart -->
<g id="node12" class="node">
<title>/lib/screens/screen.dart</title>
<path fill="Lavender" stroke="black" stroke-width="1.3" d="M979.5,-378C979.5,-378 942.5,-378 942.5,-378 936.5,-378 930.5,-372 930.5,-366 930.5,-366 930.5,-354 930.5,-354 930.5,-348 936.5,-342 942.5,-342 942.5,-342 979.5,-342 979.5,-342 985.5,-342 991.5,-348 991.5,-354 991.5,-354 991.5,-366 991.5,-366 991.5,-372 985.5,-378 979.5,-378"/>
<text text-anchor="middle" x="961" y="-354.75" font-family="Arial" font-size="15.00">screen</text>
</g>
<!-- /lib/screens/game_screen.dart&#45;&gt;/lib/screens/screen.dart -->
<g id="edge15" class="edge">
<title>/lib/screens/game_screen.dart&#45;&gt;/lib/screens/screen.dart</title>
<path fill="none" stroke="#aabbaa" stroke-width="1.3" stroke-opacity="0.533333" d="M991.52,-416.7C986.97,-408.4 981.41,-398.24 976.28,-388.88"/>
<polygon fill="#aabbaa" fill-opacity="0.533333" stroke="#aabbaa" stroke-width="1.3" stroke-opacity="0.533333" points="979.37,-387.24 971.5,-380.15 973.23,-390.61 979.37,-387.24"/>
</g>
<!-- /lib/widgets/player_zone_widget.dart -->
<g id="node20" class="node">
<title>/lib/widgets/player_zone_widget.dart</title>
<path fill="Lavender" stroke="black" stroke-width="1.3" d="M892,-378C892,-378 768,-378 768,-378 762,-378 756,-372 756,-366 756,-366 756,-354 756,-354 756,-348 762,-342 768,-342 768,-342 892,-342 892,-342 898,-342 904,-348 904,-354 904,-354 904,-366 904,-366 904,-372 898,-378 892,-378"/>
<text text-anchor="middle" x="830" y="-354.75" font-family="Arial" font-size="15.00">player_zone_widget</text>
</g>
<!-- /lib/screens/game_screen.dart&#45;&gt;/lib/widgets/player_zone_widget.dart -->
<g id="edge16" class="edge">
<title>/lib/screens/game_screen.dart&#45;&gt;/lib/widgets/player_zone_widget.dart</title>
<path fill="none" stroke="#aabbaa" stroke-width="1.3" stroke-opacity="0.533333" d="M947.31,-420.19C936.78,-416.93 925.93,-413.17 916,-409 899.64,-402.13 882.4,-392.94 867.69,-384.44"/>
<polygon fill="#aabbaa" fill-opacity="0.533333" stroke="#aabbaa" stroke-width="1.3" stroke-opacity="0.533333" points="869.57,-381.48 859.18,-379.41 866.01,-387.51 869.57,-381.48"/>
</g>
<!-- /lib/screens/start_screen.dart -->
<g id="node11" class="node">
<title>/lib/screens/start_screen.dart</title>
<path fill="Lavender" stroke="black" stroke-width="1.3" d="M1015.62,-525C1015.62,-525 940.38,-525 940.38,-525 934.38,-525 928.38,-519 928.38,-513 928.38,-513 928.38,-501 928.38,-501 928.38,-495 934.38,-489 940.38,-489 940.38,-489 1015.62,-489 1015.62,-489 1021.62,-489 1027.62,-495 1027.62,-501 1027.62,-501 1027.62,-513 1027.62,-513 1027.62,-519 1021.62,-525 1015.62,-525"/>
<text text-anchor="middle" x="978" y="-501.75" font-family="Arial" font-size="15.00">start_screen</text>
</g>
<!-- /lib/screens/start_screen.dart&#45;&gt;/lib/models/game_model.dart -->
<g id="edge18" class="edge">
<title>/lib/screens/start_screen.dart&#45;&gt;/lib/models/game_model.dart</title>
<path fill="none" stroke="#aabbaa" stroke-width="1.3" stroke-opacity="0.533333" d="M1023.48,-488.62C1038.85,-480.3 1054.31,-468.66 1063,-453 1104.59,-378.05 1065.86,-272.49 1043.02,-222.85"/>
<polygon fill="#aabbaa" fill-opacity="0.533333" stroke="#aabbaa" stroke-width="1.3" stroke-opacity="0.533333" points="1046.31,-221.63 1038.86,-214.09 1039.99,-224.63 1046.31,-221.63"/>
</g>
<!-- /lib/screens/start_screen.dart&#45;&gt;/lib/models/backend_model.dart -->
<g id="edge17" class="edge">
<title>/lib/screens/start_screen.dart&#45;&gt;/lib/models/backend_model.dart</title>
<path fill="none" stroke="#aabbaa" stroke-width="1.3" stroke-opacity="0.533333" d="M928.03,-503.61C762.68,-495.19 240.98,-464.4 192,-409 168.74,-382.7 167.31,-275.96 192,-251 206.14,-236.7 898.52,-252.95 916,-243 934.1,-232.69 960.56,-182.69 976.15,-150.57"/>
<polygon fill="#aabbaa" fill-opacity="0.533333" stroke="#aabbaa" stroke-width="1.3" stroke-opacity="0.533333" points="979.18,-152.36 980.34,-141.83 972.86,-149.34 979.18,-152.36"/>
</g>
<!-- /lib/screens/start_screen.dart&#45;&gt;/lib/screens/game_screen.dart -->
<g id="edge19" class="edge">
<title>/lib/screens/start_screen.dart&#45;&gt;/lib/screens/game_screen.dart</title>
<path fill="none" stroke="#aabbaa" stroke-width="1.3" stroke-opacity="0.533333" d="M983.69,-488.7C986.11,-481.32 989,-472.52 991.72,-464.25"/>
<polygon fill="#aabbaa" fill-opacity="0.533333" stroke="#aabbaa" stroke-width="1.3" stroke-opacity="0.533333" points="994.97,-465.57 994.77,-454.97 988.32,-463.38 994.97,-465.57"/>
</g>
<!-- /lib/screens/start_screen.dart&#45;&gt;/lib/screens/screen.dart -->
<g id="edge20" class="edge">
<title>/lib/screens/start_screen.dart&#45;&gt;/lib/screens/screen.dart</title>
<path fill="none" stroke="#aabbaa" stroke-width="1.3" stroke-opacity="0.533333" d="M960.7,-488.52C952.41,-478.9 943.35,-466.24 939,-453 932.08,-431.91 938.6,-407.44 946.3,-389.04"/>
<polygon fill="#aabbaa" fill-opacity="0.533333" stroke="#aabbaa" stroke-width="1.3" stroke-opacity="0.533333" points="949.46,-390.53 950.44,-379.98 943.1,-387.62 949.46,-390.53"/>
</g>
<!-- /lib/widgets/players_in_room_widget.dart -->
<g id="node18" class="node">
<title>/lib/widgets/players_in_room_widget.dart</title>
<path fill="Lavender" stroke="black" stroke-width="1.3" d="M547.62,-378C547.62,-378 394.38,-378 394.38,-378 388.38,-378 382.38,-372 382.38,-366 382.38,-366 382.38,-354 382.38,-354 382.38,-348 388.38,-342 394.38,-342 394.38,-342 547.62,-342 547.62,-342 553.62,-342 559.62,-348 559.62,-354 559.62,-354 559.62,-366 559.62,-366 559.62,-372 553.62,-378 547.62,-378"/>
<text text-anchor="middle" x="471" y="-354.75" font-family="Arial" font-size="15.00">players_in_room_widget</text>
</g>
<!-- /lib/screens/start_screen.dart&#45;&gt;/lib/widgets/players_in_room_widget.dart -->
<g id="edge21" class="edge">
<title>/lib/screens/start_screen.dart&#45;&gt;/lib/widgets/players_in_room_widget.dart</title>
<path fill="none" stroke="#aabbaa" stroke-width="1.3" stroke-opacity="0.533333" d="M928.18,-497.88C850.12,-484.35 694.89,-454.12 569,-409 549.8,-402.12 529.42,-392.54 512.24,-383.74"/>
<polygon fill="#aabbaa" fill-opacity="0.533333" stroke="#aabbaa" stroke-width="1.3" stroke-opacity="0.533333" points="514.23,-380.83 503.75,-379.31 510.99,-387.04 514.23,-380.83"/>
</g>
<!-- /lib/main.dart -->
<g id="node13" class="node">
<title>/lib/main.dart</title>
<path fill="Lavender" stroke="black" stroke-width="1.3" d="M993,-600C993,-600 963,-600 963,-600 957,-600 951,-594 951,-588 951,-588 951,-576 951,-576 951,-570 957,-564 963,-564 963,-564 993,-564 993,-564 999,-564 1005,-570 1005,-576 1005,-576 1005,-588 1005,-588 1005,-594 999,-600 993,-600"/>
<text text-anchor="middle" x="978" y="-576.75" font-family="Arial" font-size="15.00">main</text>
</g>
<!-- /lib/main.dart&#45;&gt;/lib/screens/start_screen.dart -->
<g id="edge22" class="edge">
<title>/lib/main.dart&#45;&gt;/lib/screens/start_screen.dart</title>
<path fill="none" stroke="#aabbaa" stroke-width="1.3" stroke-opacity="0.533333" d="M978,-563.7C978,-555.76 978,-546.12 978,-537.11"/>
<polygon fill="#aabbaa" fill-opacity="0.533333" stroke="#aabbaa" stroke-width="1.3" stroke-opacity="0.533333" points="981.5,-537.4 978,-527.4 974.5,-537.4 981.5,-537.4"/>
</g>
<!-- /lib/widgets/player_zone_cta_widget.dart -->
<g id="node14" class="node">
<title>/lib/widgets/player_zone_cta_widget.dart</title>
<path fill="Lavender" stroke="black" stroke-width="1.3" d="M690.25,-295C690.25,-295 537.75,-295 537.75,-295 531.75,-295 525.75,-289 525.75,-283 525.75,-283 525.75,-271 525.75,-271 525.75,-265 531.75,-259 537.75,-259 537.75,-259 690.25,-259 690.25,-259 696.25,-259 702.25,-265 702.25,-271 702.25,-271 702.25,-283 702.25,-283 702.25,-289 696.25,-295 690.25,-295"/>
<text text-anchor="middle" x="614" y="-271.75" font-family="Arial" font-size="15.00">player_zone_cta_widget</text>
</g>
<!-- /lib/widgets/player_zone_cta_widget.dart&#45;&gt;/lib/models/game_model.dart -->
<g id="edge23" class="edge">
<title>/lib/widgets/player_zone_cta_widget.dart&#45;&gt;/lib/models/game_model.dart</title>
<path fill="none" stroke="#aabbaa" stroke-width="1.3" stroke-opacity="0.533333" d="M687.63,-258.55C702.57,-255.57 718.23,-252.84 733,-251 775.59,-245.68 884.29,-253.15 926,-243 947.95,-237.66 970.88,-227.49 989.51,-217.88"/>
<polygon fill="#aabbaa" fill-opacity="0.533333" stroke="#aabbaa" stroke-width="1.3" stroke-opacity="0.533333" points="991.02,-221.04 998.21,-213.25 987.74,-214.86 991.02,-221.04"/>
</g>
<!-- /lib/widgets/card_widget.dart -->
<g id="node16" class="node">
<title>/lib/widgets/card_widget.dart</title>
<path fill="Lavender" stroke="black" stroke-width="1.3" d="M752.12,-140C752.12,-140 679.88,-140 679.88,-140 673.88,-140 667.88,-134 667.88,-128 667.88,-128 667.88,-116 667.88,-116 667.88,-110 673.88,-104 679.88,-104 679.88,-104 752.12,-104 752.12,-104 758.12,-104 764.12,-110 764.12,-116 764.12,-116 764.12,-128 764.12,-128 764.12,-134 758.12,-140 752.12,-140"/>
<text text-anchor="middle" x="716" y="-116.75" font-family="Arial" font-size="15.00">card_widget</text>
</g>
<!-- /lib/widgets/player_zone_cta_widget.dart&#45;&gt;/lib/widgets/card_widget.dart -->
<g id="edge27" class="edge">
<title>/lib/widgets/player_zone_cta_widget.dart&#45;&gt;/lib/widgets/card_widget.dart</title>
<path fill="none" stroke="#aabbaa" stroke-width="1.3" stroke-opacity="0.533333" d="M677.3,-258.62C684.41,-254.47 690.91,-249.34 696,-243 716.57,-217.39 719.53,-178.6 718.68,-152.1"/>
<polygon fill="#aabbaa" fill-opacity="0.533333" stroke="#aabbaa" stroke-width="1.3" stroke-opacity="0.533333" points="722.18,-151.94 718.13,-142.15 715.19,-152.33 722.18,-151.94"/>
</g>
<!-- /lib/widgets/card_piles_widget.dart -->
<g id="node21" class="node">
<title>/lib/widgets/card_piles_widget.dart</title>
<path fill="Lavender" stroke="black" stroke-width="1.3" d="M507.25,-212C507.25,-212 396.75,-212 396.75,-212 390.75,-212 384.75,-206 384.75,-200 384.75,-200 384.75,-188 384.75,-188 384.75,-182 390.75,-176 396.75,-176 396.75,-176 507.25,-176 507.25,-176 513.25,-176 519.25,-182 519.25,-188 519.25,-188 519.25,-200 519.25,-200 519.25,-206 513.25,-212 507.25,-212"/>
<text text-anchor="middle" x="452" y="-188.75" font-family="Arial" font-size="15.00">card_piles_widget</text>
</g>
<!-- /lib/widgets/player_zone_cta_widget.dart&#45;&gt;/lib/widgets/card_piles_widget.dart -->
<g id="edge26" class="edge">
<title>/lib/widgets/player_zone_cta_widget.dart&#45;&gt;/lib/widgets/card_piles_widget.dart</title>
<path fill="none" stroke="#aabbaa" stroke-width="1.3" stroke-opacity="0.533333" d="M563.71,-258.61C551.81,-253.97 539.29,-248.66 528,-243 513.91,-235.93 499.11,-226.97 486.35,-218.71"/>
<polygon fill="#aabbaa" fill-opacity="0.533333" stroke="#aabbaa" stroke-width="1.3" stroke-opacity="0.533333" points="488.53,-215.95 478.25,-213.37 484.67,-221.8 488.53,-215.95"/>
</g>
<!-- /lib/widgets/blink_widget.dart -->
<g id="node22" class="node">
<title>/lib/widgets/blink_widget.dart</title>
<path fill="Lavender" stroke="black" stroke-width="1.3" d="M602.5,-140C602.5,-140 529.5,-140 529.5,-140 523.5,-140 517.5,-134 517.5,-128 517.5,-128 517.5,-116 517.5,-116 517.5,-110 523.5,-104 529.5,-104 529.5,-104 602.5,-104 602.5,-104 608.5,-104 614.5,-110 614.5,-116 614.5,-116 614.5,-128 614.5,-128 614.5,-134 608.5,-140 602.5,-140"/>
<text text-anchor="middle" x="566" y="-116.75" font-family="Arial" font-size="15.00">blink_widget</text>
</g>
<!-- /lib/widgets/player_zone_cta_widget.dart&#45;&gt;/lib/widgets/blink_widget.dart -->
<g id="edge24" class="edge">
<title>/lib/widgets/player_zone_cta_widget.dart&#45;&gt;/lib/widgets/blink_widget.dart</title>
<path fill="none" stroke="#aabbaa" stroke-width="1.3" stroke-opacity="0.533333" d="M525.39,-275.46C466.05,-272.99 395.38,-265.26 376,-243 356.44,-220.54 357.99,-199.72 376,-176 391.77,-155.23 456.01,-140.42 505.48,-131.82"/>
<polygon fill="#aabbaa" fill-opacity="0.533333" stroke="#aabbaa" stroke-width="1.3" stroke-opacity="0.533333" points="505.84,-135.31 515.12,-130.2 504.68,-128.41 505.84,-135.31"/>
</g>
<!-- /lib/widgets/blinking_text_widget.dart -->
<g id="node23" class="node">
<title>/lib/widgets/blinking_text_widget.dart</title>
<path fill="Lavender" stroke="black" stroke-width="1.3" d="M674.75,-212C674.75,-212 549.25,-212 549.25,-212 543.25,-212 537.25,-206 537.25,-200 537.25,-200 537.25,-188 537.25,-188 537.25,-182 543.25,-176 549.25,-176 549.25,-176 674.75,-176 674.75,-176 680.75,-176 686.75,-182 686.75,-188 686.75,-188 686.75,-200 686.75,-200 686.75,-206 680.75,-212 674.75,-212"/>
<text text-anchor="middle" x="612" y="-188.75" font-family="Arial" font-size="15.00">blinking_text_widget</text>
</g>
<!-- /lib/widgets/player_zone_cta_widget.dart&#45;&gt;/lib/widgets/blinking_text_widget.dart -->
<g id="edge25" class="edge">
<title>/lib/widgets/player_zone_cta_widget.dart&#45;&gt;/lib/widgets/blinking_text_widget.dart</title>
<path fill="none" stroke="#aabbaa" stroke-width="1.3" stroke-opacity="0.533333" d="M613.58,-258.82C613.33,-248.8 613.01,-235.88 612.72,-224.29"/>
<polygon fill="#aabbaa" fill-opacity="0.533333" stroke="#aabbaa" stroke-width="1.3" stroke-opacity="0.533333" points="616.22,-224.31 612.48,-214.4 609.23,-224.48 616.22,-224.31"/>
</g>
<!-- /lib/widgets/table_surface_painter.dart -->
<g id="node15" class="node">
<title>/lib/widgets/table_surface_painter.dart</title>
<path fill="Lavender" stroke="black" stroke-width="1.3" d="M352,-378C352,-378 216,-378 216,-378 210,-378 204,-372 204,-366 204,-366 204,-354 204,-354 204,-348 210,-342 216,-342 216,-342 352,-342 352,-342 358,-342 364,-348 364,-354 364,-354 364,-366 364,-366 364,-372 358,-378 352,-378"/>
<text text-anchor="middle" x="284" y="-354.75" font-family="Arial" font-size="15.00">table_surface_painter</text>
</g>
<!-- /lib/widgets/card_widget.dart&#45;&gt;/lib/models/card_model.dart -->
<g id="edge28" class="edge">
<title>/lib/widgets/card_widget.dart&#45;&gt;/lib/models/card_model.dart</title>
<path fill="none" stroke="#aabbaa" stroke-width="1.3" stroke-opacity="0.533333" d="M764.25,-112.56C837.67,-99.71 977.29,-75.27 1056.77,-61.37"/>
<polygon fill="#aabbaa" fill-opacity="0.533333" stroke="#aabbaa" stroke-width="1.3" stroke-opacity="0.533333" points="1057.33,-64.82 1066.57,-59.65 1056.12,-57.93 1057.33,-64.82"/>
</g>
<!-- /lib/widgets/player_header_widget.dart -->
<g id="node17" class="node">
<title>/lib/widgets/player_header_widget.dart</title>
<path fill="Lavender" stroke="black" stroke-width="1.3" d="M892.12,-295C892.12,-295 753.88,-295 753.88,-295 747.88,-295 741.88,-289 741.88,-283 741.88,-283 741.88,-271 741.88,-271 741.88,-265 747.88,-259 753.88,-259 753.88,-259 892.12,-259 892.12,-259 898.12,-259 904.12,-265 904.12,-271 904.12,-271 904.12,-283 904.12,-283 904.12,-289 898.12,-295 892.12,-295"/>
<text text-anchor="middle" x="823" y="-271.75" font-family="Arial" font-size="15.00">player_header_widget</text>
</g>
<!-- /lib/widgets/text_edit_with_submit.dart -->
<g id="node19" class="node">
<title>/lib/widgets/text_edit_with_submit.dart</title>
<path fill="Lavender" stroke="black" stroke-width="1.3" d="M726,-378C726,-378 590,-378 590,-378 584,-378 578,-372 578,-366 578,-366 578,-354 578,-354 578,-348 584,-342 590,-342 590,-342 726,-342 726,-342 732,-342 738,-348 738,-354 738,-354 738,-366 738,-366 738,-372 732,-378 726,-378"/>
<text text-anchor="middle" x="658" y="-354.75" font-family="Arial" font-size="15.00">text_edit_with_submit</text>
</g>
<!-- /lib/widgets/player_zone_widget.dart&#45;&gt;/lib/models/game_model.dart -->
<g id="edge29" class="edge">
<title>/lib/widgets/player_zone_widget.dart&#45;&gt;/lib/models/game_model.dart</title>
<path fill="none" stroke="#aabbaa" stroke-width="1.3" stroke-opacity="0.533333" d="M884.58,-341.55C894.47,-337.23 904.37,-332.06 913,-326 954.14,-297.11 990.57,-250.83 1011.18,-221.71"/>
<polygon fill="#aabbaa" fill-opacity="0.533333" stroke="#aabbaa" stroke-width="1.3" stroke-opacity="0.533333" points="1013.84,-224.01 1016.67,-213.8 1008.09,-220.02 1013.84,-224.01"/>
</g>
<!-- /lib/widgets/player_zone_widget.dart&#45;&gt;/lib/widgets/player_zone_cta_widget.dart -->
<g id="edge32" class="edge">
<title>/lib/widgets/player_zone_widget.dart&#45;&gt;/lib/widgets/player_zone_cta_widget.dart</title>
<path fill="none" stroke="#aabbaa" stroke-width="1.3" stroke-opacity="0.533333" d="M772.9,-341.61C764.23,-339.03 755.39,-336.42 747,-334 734.15,-330.29 730.56,-330.59 718,-326 698.11,-318.72 676.77,-309.19 658.63,-300.54"/>
<polygon fill="#aabbaa" fill-opacity="0.533333" stroke="#aabbaa" stroke-width="1.3" stroke-opacity="0.533333" points="660.37,-297.5 649.84,-296.3 657.32,-303.8 660.37,-297.5"/>
</g>
<!-- /lib/widgets/player_zone_widget.dart&#45;&gt;/lib/widgets/card_widget.dart -->
<g id="edge30" class="edge">
<title>/lib/widgets/player_zone_widget.dart&#45;&gt;/lib/widgets/card_widget.dart</title>
<path fill="none" stroke="#aabbaa" stroke-width="1.3" stroke-opacity="0.533333" d="M770.23,-341.51C751.92,-335.6 735.81,-329.59 733,-326 712.42,-299.66 712.96,-201.52 714.66,-151.99"/>
<polygon fill="#aabbaa" fill-opacity="0.533333" stroke="#aabbaa" stroke-width="1.3" stroke-opacity="0.533333" points="718.15,-152.33 715.04,-142.21 711.15,-152.06 718.15,-152.33"/>
</g>
<!-- /lib/widgets/player_zone_widget.dart&#45;&gt;/lib/widgets/player_header_widget.dart -->
<g id="edge31" class="edge">
<title>/lib/widgets/player_zone_widget.dart&#45;&gt;/lib/widgets/player_header_widget.dart</title>
<path fill="none" stroke="#aabbaa" stroke-width="1.3" stroke-opacity="0.533333" d="M828.52,-341.82C827.65,-331.8 826.53,-318.88 825.53,-307.29"/>
<polygon fill="#aabbaa" fill-opacity="0.533333" stroke="#aabbaa" stroke-width="1.3" stroke-opacity="0.533333" points="829.02,-307.05 824.68,-297.39 822.05,-307.66 829.02,-307.05"/>
</g>
<!-- /lib/widgets/card_piles_widget.dart&#45;&gt;/lib/models/card_model.dart -->
<g id="edge33" class="edge">
<title>/lib/widgets/card_piles_widget.dart&#45;&gt;/lib/models/card_model.dart</title>
<path fill="none" stroke="#aabbaa" stroke-width="1.3" stroke-opacity="0.533333" d="M456.67,-175.82C463.82,-153.2 479.81,-114.17 509,-96 554.81,-67.49 913.94,-55.83 1057.25,-52.28"/>
<polygon fill="#aabbaa" fill-opacity="0.533333" stroke="#aabbaa" stroke-width="1.3" stroke-opacity="0.533333" points="1056.93,-55.79 1066.84,-52.04 1056.76,-48.79 1056.93,-55.79"/>
</g>
<!-- /lib/widgets/card_piles_widget.dart&#45;&gt;/lib/widgets/card_widget.dart -->
<g id="edge34" class="edge">
<title>/lib/widgets/card_piles_widget.dart&#45;&gt;/lib/widgets/card_widget.dart</title>
<path fill="none" stroke="#aabbaa" stroke-width="1.3" stroke-opacity="0.533333" d="M517.94,-175.52C560.28,-164.29 614.85,-149.82 655.99,-138.91"/>
<polygon fill="#aabbaa" fill-opacity="0.533333" stroke="#aabbaa" stroke-width="1.3" stroke-opacity="0.533333" points="656.81,-142.31 665.58,-136.37 655.02,-135.55 656.81,-142.31"/>
</g>
<!-- /lib/widgets/blinking_text_widget.dart&#45;&gt;/lib/widgets/blink_widget.dart -->
<g id="edge35" class="edge">
<title>/lib/widgets/blinking_text_widget.dart&#45;&gt;/lib/widgets/blink_widget.dart</title>
<path fill="none" stroke="#aabbaa" stroke-width="1.3" stroke-opacity="0.533333" d="M600.63,-175.7C595.5,-167.9 589.33,-158.51 583.63,-149.83"/>
<polygon fill="#aabbaa" fill-opacity="0.533333" stroke="#aabbaa" stroke-width="1.3" stroke-opacity="0.533333" points="586.74,-148.18 578.32,-141.75 580.89,-152.03 586.74,-148.18"/>
</g>
</g>
</svg>
