<?xml version="1.0" encoding="UTF-8" standalone="no"?>
<!DOCTYPE svg PUBLIC "-//W3C//DTD SVG 1.1//EN"
 "http://www.w3.org/Graphics/SVG/1.1/DTD/svg11.dtd">
<!-- Generated by graphviz version 12.1.2 (20240928.0832)
 -->
<!-- Pages: 1 -->
<svg width="483pt" height="747pt"
 viewBox="0.00 0.00 483.00 747.00" xmlns="http://www.w3.org/2000/svg" xmlns:xlink="http://www.w3.org/1999/xlink">
<g id="graph0" class="graph" transform="scale(1 1) rotate(0) translate(4 743)">
<polygon fill="white" stroke="none" points="-4,4 -4,-743 479,-743 479,4 -4,4"/>
<g id="clust1" class="cluster">
<title>cluster~</title>
<path fill="none" stroke="lightgray" stroke-width="2.6" d="M20,-8C20,-8 455,-8 455,-8 461,-8 467,-14 467,-20 467,-20 467,-719 467,-719 467,-725 461,-731 455,-731 455,-731 20,-731 20,-731 14,-731 8,-725 8,-719 8,-719 8,-20 8,-20 8,-14 14,-8 20,-8"/>
<text text-anchor="middle" x="237.5" y="-714.65" font-family="Arial Black" font-size="13.00">cards</text>
</g>
<g id="clust2" class="cluster">
<title>cluster~/test</title>
<path fill="none" stroke="lightgray" stroke-width="2.6" d="M273,-625C273,-625 357,-625 357,-625 363,-625 369,-631 369,-637 369,-637 369,-688 369,-688 369,-694 363,-700 357,-700 357,-700 273,-700 273,-700 267,-700 261,-694 261,-688 261,-688 261,-637 261,-637 261,-631 267,-625 273,-625"/>
<text text-anchor="middle" x="315" y="-683.65" font-family="Arial Black" font-size="13.00">test</text>
</g>
<g id="clust3" class="cluster">
<title>cluster~/lib</title>
<path fill="none" stroke="lightgray" stroke-width="2.6" d="M28,-16C28,-16 447,-16 447,-16 453,-16 459,-22 459,-28 459,-28 459,-605 459,-605 459,-611 453,-617 447,-617 447,-617 28,-617 28,-617 22,-617 16,-611 16,-605 16,-605 16,-28 16,-28 16,-22 22,-16 28,-16"/>
<text text-anchor="middle" x="237.5" y="-600.65" font-family="Arial Black" font-size="13.00">lib</text>
</g>
<g id="clust4" class="cluster">
<title>cluster~/lib/screens</title>
<path fill="none" stroke="lightgray" stroke-width="2.6" d="M266,-395C266,-395 364,-395 364,-395 370,-395 376,-401 376,-407 376,-407 376,-530 376,-530 376,-536 370,-542 364,-542 364,-542 266,-542 266,-542 260,-542 254,-536 254,-530 254,-530 254,-407 254,-407 254,-401 260,-395 266,-395"/>
<text text-anchor="middle" x="315" y="-525.65" font-family="Arial Black" font-size="13.00">screens</text>
</g>
<g id="clust5" class="cluster">
<title>cluster~/lib/widgets</title>
<path fill="none" stroke="lightgray" stroke-width="2.6" d="M146,-24C146,-24 439,-24 439,-24 445,-24 451,-30 451,-36 451,-36 451,-375 451,-375 451,-381 445,-387 439,-387 439,-387 146,-387 146,-387 140,-387 134,-381 134,-375 134,-375 134,-36 134,-36 134,-30 140,-24 146,-24"/>
<text text-anchor="middle" x="292.5" y="-370.65" font-family="Arial Black" font-size="13.00">widgets</text>
</g>
<!-- /test/widget_test.dart -->
<g id="node1" class="node">
<title>/test/widget_test.dart</title>
<path fill="Lavender" stroke="black" stroke-width="1.3" d="M348.88,-669C348.88,-669 281.12,-669 281.12,-669 275.12,-669 269.12,-663 269.12,-657 269.12,-657 269.12,-645 269.12,-645 269.12,-639 275.12,-633 281.12,-633 281.12,-633 348.88,-633 348.88,-633 354.88,-633 360.88,-639 360.88,-645 360.88,-645 360.88,-657 360.88,-657 360.88,-663 354.88,-669 348.88,-669"/>
<text text-anchor="middle" x="315" y="-645.75" font-family="Arial" font-size="15.00">widget_test</text>
</g>
<!-- /lib/main.dart -->
<g id="node5" class="node">
<title>/lib/main.dart</title>
<path fill="Lavender" stroke="black" stroke-width="1.3" d="M330,-586C330,-586 300,-586 300,-586 294,-586 288,-580 288,-574 288,-574 288,-562 288,-562 288,-556 294,-550 300,-550 300,-550 330,-550 330,-550 336,-550 342,-556 342,-562 342,-562 342,-574 342,-574 342,-580 336,-586 330,-586"/>
<text text-anchor="middle" x="315" y="-562.75" font-family="Arial" font-size="15.00">main</text>
</g>
<!-- /test/widget_test.dart&#45;&gt;/lib/main.dart -->
<g id="edge1" class="edge">
<title>/test/widget_test.dart&#45;&gt;/lib/main.dart</title>
<path fill="none" stroke="#aabbaa" stroke-width="1.3" stroke-opacity="0.533333" d="M315,-632.82C315,-622.8 315,-609.88 315,-598.29"/>
<polygon fill="#aabbaa" fill-opacity="0.533333" stroke="#aabbaa" stroke-width="1.3" stroke-opacity="0.533333" points="318.5,-598.4 315,-588.4 311.5,-598.4 318.5,-598.4"/>
</g>
<!-- /lib/game_model.dart -->
<g id="node2" class="node">
<title>/lib/game_model.dart</title>
<path fill="Lavender" stroke="black" stroke-width="1.3" d="M114.12,-212C114.12,-212 35.88,-212 35.88,-212 29.88,-212 23.88,-206 23.88,-200 23.88,-200 23.88,-188 23.88,-188 23.88,-182 29.88,-176 35.88,-176 35.88,-176 114.12,-176 114.12,-176 120.12,-176 126.12,-182 126.12,-188 126.12,-188 126.12,-200 126.12,-200 126.12,-206 120.12,-212 114.12,-212"/>
<text text-anchor="middle" x="75" y="-188.75" font-family="Arial" font-size="15.00">game_model</text>
</g>
<!-- /lib/player.dart -->
<g id="node6" class="node">
<title>/lib/player.dart</title>
<path fill="Lavender" stroke="black" stroke-width="1.3" d="M92.25,-140C92.25,-140 59.75,-140 59.75,-140 53.75,-140 47.75,-134 47.75,-128 47.75,-128 47.75,-116 47.75,-116 47.75,-110 53.75,-104 59.75,-104 59.75,-104 92.25,-104 92.25,-104 98.25,-104 104.25,-110 104.25,-116 104.25,-116 104.25,-128 104.25,-128 104.25,-134 98.25,-140 92.25,-140"/>
<text text-anchor="middle" x="76" y="-116.75" font-family="Arial" font-size="15.00">player</text>
</g>
<!-- /lib/game_model.dart&#45;&gt;/lib/player.dart -->
<g id="edge2" class="edge">
<title>/lib/game_model.dart&#45;&gt;/lib/player.dart</title>
<path fill="none" stroke="#aabbaa" stroke-width="1.3" stroke-opacity="0.533333" d="M75.25,-175.7C75.35,-168.49 75.47,-159.93 75.59,-151.82"/>
<polygon fill="#aabbaa" fill-opacity="0.533333" stroke="#aabbaa" stroke-width="1.3" stroke-opacity="0.533333" points="79.08,-152.12 75.73,-142.07 72.08,-152.02 79.08,-152.12"/>
</g>
<!-- /lib/widgets/playing_card.dart -->
<g id="node10" class="node">
<title>/lib/widgets/playing_card.dart</title>
<path fill="Lavender" stroke="black" stroke-width="1.3" d="M230,-68C230,-68 154,-68 154,-68 148,-68 142,-62 142,-56 142,-56 142,-44 142,-44 142,-38 148,-32 154,-32 154,-32 230,-32 230,-32 236,-32 242,-38 242,-44 242,-44 242,-56 242,-56 242,-62 236,-68 230,-68"/>
<text text-anchor="middle" x="192" y="-44.75" font-family="Arial" font-size="15.00">playing_card</text>
</g>
<!-- /lib/game_model.dart&#45;&gt;/lib/widgets/playing_card.dart -->
<g id="edge3" class="edge">
<title>/lib/game_model.dart&#45;&gt;/lib/widgets/playing_card.dart</title>
<path fill="none" stroke="#aabbaa" stroke-width="1.3" stroke-opacity="0.533333" d="M87.31,-175.86C104.56,-151.9 134.43,-110.57 140,-104 147.92,-94.66 157.12,-84.95 165.57,-76.44"/>
<polygon fill="#aabbaa" fill-opacity="0.533333" stroke="#aabbaa" stroke-width="1.3" stroke-opacity="0.533333" points="167.98,-78.98 172.61,-69.45 163.04,-74.01 167.98,-78.98"/>
</g>
<!-- /lib/screens/game_screen.dart -->
<g id="node3" class="node">
<title>/lib/screens/game_screen.dart</title>
<path fill="Lavender" stroke="black" stroke-width="1.3" d="M356.38,-439C356.38,-439 273.62,-439 273.62,-439 267.62,-439 261.62,-433 261.62,-427 261.62,-427 261.62,-415 261.62,-415 261.62,-409 267.62,-403 273.62,-403 273.62,-403 356.38,-403 356.38,-403 362.38,-403 368.38,-409 368.38,-415 368.38,-415 368.38,-427 368.38,-427 368.38,-433 362.38,-439 356.38,-439"/>
<text text-anchor="middle" x="315" y="-415.75" font-family="Arial" font-size="15.00">game_screen</text>
</g>
<!-- /lib/screens/game_screen.dart&#45;&gt;/lib/game_model.dart -->
<g id="edge6" class="edge">
<title>/lib/screens/game_screen.dart&#45;&gt;/lib/game_model.dart</title>
<path fill="none" stroke="#aabbaa" stroke-width="1.3" stroke-opacity="0.533333" d="M280.4,-402.53C273.16,-399.54 265.46,-396.81 258,-395 244.15,-391.64 141.11,-395.93 130,-387 104.58,-366.57 86.82,-272.48 79.19,-224.03"/>
<polygon fill="#aabbaa" fill-opacity="0.533333" stroke="#aabbaa" stroke-width="1.3" stroke-opacity="0.533333" points="82.69,-223.79 77.72,-214.43 75.77,-224.85 82.69,-223.79"/>
</g>
<!-- /lib/widgets/player_zone.dart -->
<g id="node9" class="node">
<title>/lib/widgets/player_zone.dart</title>
<path fill="Lavender" stroke="black" stroke-width="1.3" d="M351.5,-356C351.5,-356 278.5,-356 278.5,-356 272.5,-356 266.5,-350 266.5,-344 266.5,-344 266.5,-332 266.5,-332 266.5,-326 272.5,-320 278.5,-320 278.5,-320 351.5,-320 351.5,-320 357.5,-320 363.5,-326 363.5,-332 363.5,-332 363.5,-344 363.5,-344 363.5,-350 357.5,-356 351.5,-356"/>
<text text-anchor="middle" x="315" y="-332.75" font-family="Arial" font-size="15.00">player_zone</text>
</g>
<!-- /lib/screens/game_screen.dart&#45;&gt;/lib/widgets/player_zone.dart -->
<g id="edge4" class="edge">
<title>/lib/screens/game_screen.dart&#45;&gt;/lib/widgets/player_zone.dart</title>
<path fill="none" stroke="#aabbaa" stroke-width="1.3" stroke-opacity="0.533333" d="M315,-402.82C315,-392.8 315,-379.88 315,-368.29"/>
<polygon fill="#aabbaa" fill-opacity="0.533333" stroke="#aabbaa" stroke-width="1.3" stroke-opacity="0.533333" points="318.5,-368.4 315,-358.4 311.5,-368.4 318.5,-368.4"/>
</g>
<!-- /lib/widgets/screen.dart -->
<g id="node13" class="node">
<title>/lib/widgets/screen.dart</title>
<path fill="Lavender" stroke="black" stroke-width="1.3" d="M430.5,-356C430.5,-356 393.5,-356 393.5,-356 387.5,-356 381.5,-350 381.5,-344 381.5,-344 381.5,-332 381.5,-332 381.5,-326 387.5,-320 393.5,-320 393.5,-320 430.5,-320 430.5,-320 436.5,-320 442.5,-326 442.5,-332 442.5,-332 442.5,-344 442.5,-344 442.5,-350 436.5,-356 430.5,-356"/>
<text text-anchor="middle" x="412" y="-332.75" font-family="Arial" font-size="15.00">screen</text>
</g>
<!-- /lib/screens/game_screen.dart&#45;&gt;/lib/widgets/screen.dart -->
<g id="edge5" class="edge">
<title>/lib/screens/game_screen.dart&#45;&gt;/lib/widgets/screen.dart</title>
<path fill="none" stroke="#aabbaa" stroke-width="1.3" stroke-opacity="0.533333" d="M350.43,-402.62C358.23,-398.05 366.19,-392.77 373,-387 380.37,-380.75 387.38,-372.97 393.37,-365.49"/>
<polygon fill="#aabbaa" fill-opacity="0.533333" stroke="#aabbaa" stroke-width="1.3" stroke-opacity="0.533333" points="395.88,-367.97 399.17,-357.9 390.32,-363.72 395.88,-367.97"/>
</g>
<!-- /lib/screens/setup_screen.dart -->
<g id="node4" class="node">
<title>/lib/screens/setup_screen.dart</title>
<path fill="Lavender" stroke="black" stroke-width="1.3" d="M356,-511C356,-511 274,-511 274,-511 268,-511 262,-505 262,-499 262,-499 262,-487 262,-487 262,-481 268,-475 274,-475 274,-475 356,-475 356,-475 362,-475 368,-481 368,-487 368,-487 368,-499 368,-499 368,-505 362,-511 356,-511"/>
<text text-anchor="middle" x="315" y="-487.75" font-family="Arial" font-size="15.00">setup_screen</text>
</g>
<!-- /lib/screens/setup_screen.dart&#45;&gt;/lib/game_model.dart -->
<g id="edge7" class="edge">
<title>/lib/screens/setup_screen.dart&#45;&gt;/lib/game_model.dart</title>
<path fill="none" stroke="#aabbaa" stroke-width="1.3" stroke-opacity="0.533333" d="M261.61,-481.46C210.58,-468.43 135.72,-441.01 96,-387 60.61,-338.88 64.3,-264.75 69.82,-224.12"/>
<polygon fill="#aabbaa" fill-opacity="0.533333" stroke="#aabbaa" stroke-width="1.3" stroke-opacity="0.533333" points="73.27,-224.77 71.3,-214.36 66.34,-223.72 73.27,-224.77"/>
</g>
<!-- /lib/screens/setup_screen.dart&#45;&gt;/lib/screens/game_screen.dart -->
<g id="edge8" class="edge">
<title>/lib/screens/setup_screen.dart&#45;&gt;/lib/screens/game_screen.dart</title>
<path fill="none" stroke="#aabbaa" stroke-width="1.3" stroke-opacity="0.533333" d="M315,-474.7C315,-467.49 315,-458.93 315,-450.82"/>
<polygon fill="#aabbaa" fill-opacity="0.533333" stroke="#aabbaa" stroke-width="1.3" stroke-opacity="0.533333" points="318.5,-451.07 315,-441.07 311.5,-451.07 318.5,-451.07"/>
</g>
<!-- /lib/screens/setup_screen.dart&#45;&gt;/lib/widgets/screen.dart -->
<g id="edge9" class="edge">
<title>/lib/screens/setup_screen.dart&#45;&gt;/lib/widgets/screen.dart</title>
<path fill="none" stroke="#aabbaa" stroke-width="1.3" stroke-opacity="0.533333" d="M341.09,-474.66C353.42,-465.34 367.48,-452.91 377,-439 391.85,-417.3 401.03,-388.66 406.24,-367.59"/>
<polygon fill="#aabbaa" fill-opacity="0.533333" stroke="#aabbaa" stroke-width="1.3" stroke-opacity="0.533333" points="409.59,-368.61 408.42,-358.08 402.77,-367.05 409.59,-368.61"/>
</g>
<!-- /lib/main.dart&#45;&gt;/lib/screens/setup_screen.dart -->
<g id="edge10" class="edge">
<title>/lib/main.dart&#45;&gt;/lib/screens/setup_screen.dart</title>
<path fill="none" stroke="#aabbaa" stroke-width="1.3" stroke-opacity="0.533333" d="M315,-549.7C315,-541.76 315,-532.12 315,-523.11"/>
<polygon fill="#aabbaa" fill-opacity="0.533333" stroke="#aabbaa" stroke-width="1.3" stroke-opacity="0.533333" points="318.5,-523.4 315,-513.4 311.5,-523.4 318.5,-523.4"/>
</g>
<!-- /lib/player.dart&#45;&gt;/lib/widgets/playing_card.dart -->
<g id="edge11" class="edge">
<title>/lib/player.dart&#45;&gt;/lib/widgets/playing_card.dart</title>
<path fill="none" stroke="#aabbaa" stroke-width="1.3" stroke-opacity="0.533333" d="M104.67,-103.7C119.31,-94.86 137.34,-83.99 153.2,-74.41"/>
<polygon fill="#aabbaa" fill-opacity="0.533333" stroke="#aabbaa" stroke-width="1.3" stroke-opacity="0.533333" points="154.82,-77.53 161.57,-69.36 151.2,-71.53 154.82,-77.53"/>
</g>
<!-- /lib/widgets/playing_card_widget.dart -->
<g id="node7" class="node">
<title>/lib/widgets/playing_card_widget.dart</title>
<path fill="Lavender" stroke="black" stroke-width="1.3" d="M350.5,-140C350.5,-140 223.5,-140 223.5,-140 217.5,-140 211.5,-134 211.5,-128 211.5,-128 211.5,-116 211.5,-116 211.5,-110 217.5,-104 223.5,-104 223.5,-104 350.5,-104 350.5,-104 356.5,-104 362.5,-110 362.5,-116 362.5,-116 362.5,-128 362.5,-128 362.5,-134 356.5,-140 350.5,-140"/>
<text text-anchor="middle" x="287" y="-116.75" font-family="Arial" font-size="15.00">playing_card_widget</text>
</g>
<!-- /lib/widgets/playing_card_widget.dart&#45;&gt;/lib/widgets/playing_card.dart -->
<g id="edge12" class="edge">
<title>/lib/widgets/playing_card_widget.dart&#45;&gt;/lib/widgets/playing_card.dart</title>
<path fill="none" stroke="#aabbaa" stroke-width="1.3" stroke-opacity="0.533333" d="M263.52,-103.7C251.87,-95.11 237.61,-84.61 224.89,-75.24"/>
<polygon fill="#aabbaa" fill-opacity="0.533333" stroke="#aabbaa" stroke-width="1.3" stroke-opacity="0.533333" points="227.25,-72.63 217.13,-69.51 223.1,-78.26 227.25,-72.63"/>
</g>
<!-- /lib/widgets/table_surface.dart -->
<g id="node8" class="node">
<title>/lib/widgets/table_surface.dart</title>
<path fill="Lavender" stroke="black" stroke-width="1.3" d="M236,-356C236,-356 154,-356 154,-356 148,-356 142,-350 142,-344 142,-344 142,-332 142,-332 142,-326 148,-320 154,-320 154,-320 236,-320 236,-320 242,-320 248,-326 248,-332 248,-332 248,-344 248,-344 248,-350 242,-356 236,-356"/>
<text text-anchor="middle" x="195" y="-332.75" font-family="Arial" font-size="15.00">table_surface</text>
</g>
<!-- /lib/widgets/player_zone.dart&#45;&gt;/lib/game_model.dart -->
<g id="edge13" class="edge">
<title>/lib/widgets/player_zone.dart&#45;&gt;/lib/game_model.dart</title>
<path fill="none" stroke="#aabbaa" stroke-width="1.3" stroke-opacity="0.533333" d="M266.32,-322.66C215.47,-307.62 142.69,-285.91 140,-284 128.02,-275.5 107.04,-245.2 92.16,-222.3"/>
<polygon fill="#aabbaa" fill-opacity="0.533333" stroke="#aabbaa" stroke-width="1.3" stroke-opacity="0.533333" points="95.21,-220.58 86.87,-214.05 89.32,-224.36 95.21,-220.58"/>
</g>
<!-- /lib/widgets/player_zone.dart&#45;&gt;/lib/widgets/playing_card_widget.dart -->
<g id="edge17" class="edge">
<title>/lib/widgets/player_zone.dart&#45;&gt;/lib/widgets/playing_card_widget.dart</title>
<path fill="none" stroke="#aabbaa" stroke-width="1.3" stroke-opacity="0.533333" d="M363.76,-320.12C390.75,-309.68 420.36,-296.02 428,-284 436.58,-270.5 434.56,-262.59 428,-248 407.93,-203.39 363.2,-168.25 329.47,-146.73"/>
<polygon fill="#aabbaa" fill-opacity="0.533333" stroke="#aabbaa" stroke-width="1.3" stroke-opacity="0.533333" points="331.41,-143.82 321.06,-141.53 327.72,-149.77 331.41,-143.82"/>
</g>
<!-- /lib/widgets/player_zone.dart&#45;&gt;/lib/widgets/playing_card.dart -->
<g id="edge16" class="edge">
<title>/lib/widgets/player_zone.dart&#45;&gt;/lib/widgets/playing_card.dart</title>
<path fill="none" stroke="#aabbaa" stroke-width="1.3" stroke-opacity="0.533333" d="M266.25,-322.36C220.46,-308.38 158.44,-288.76 155,-284 131.7,-251.74 165.09,-134.22 182.53,-79.45"/>
<polygon fill="#aabbaa" fill-opacity="0.533333" stroke="#aabbaa" stroke-width="1.3" stroke-opacity="0.533333" points="185.83,-80.63 185.58,-70.04 179.17,-78.48 185.83,-80.63"/>
</g>
<!-- /lib/widgets/player_zone_cta.dart -->
<g id="node12" class="node">
<title>/lib/widgets/player_zone_cta.dart</title>
<path fill="Lavender" stroke="black" stroke-width="1.3" d="M277.75,-284C277.75,-284 176.25,-284 176.25,-284 170.25,-284 164.25,-278 164.25,-272 164.25,-272 164.25,-260 164.25,-260 164.25,-254 170.25,-248 176.25,-248 176.25,-248 277.75,-248 277.75,-248 283.75,-248 289.75,-254 289.75,-260 289.75,-260 289.75,-272 289.75,-272 289.75,-278 283.75,-284 277.75,-284"/>
<text text-anchor="middle" x="227" y="-260.75" font-family="Arial" font-size="15.00">player_zone_cta</text>
</g>
<!-- /lib/widgets/player_zone.dart&#45;&gt;/lib/widgets/player_zone_cta.dart -->
<g id="edge15" class="edge">
<title>/lib/widgets/player_zone.dart&#45;&gt;/lib/widgets/player_zone_cta.dart</title>
<path fill="none" stroke="#aabbaa" stroke-width="1.3" stroke-opacity="0.533333" d="M293.25,-319.7C282.67,-311.28 269.77,-301.02 258.17,-291.79"/>
<polygon fill="#aabbaa" fill-opacity="0.533333" stroke="#aabbaa" stroke-width="1.3" stroke-opacity="0.533333" points="260.35,-289.06 250.35,-285.57 255.99,-294.54 260.35,-289.06"/>
</g>
<!-- /lib/widgets/player_header.dart -->
<g id="node14" class="node">
<title>/lib/widgets/player_header.dart</title>
<path fill="Lavender" stroke="black" stroke-width="1.3" d="M406.62,-284C406.62,-284 319.38,-284 319.38,-284 313.38,-284 307.38,-278 307.38,-272 307.38,-272 307.38,-260 307.38,-260 307.38,-254 313.38,-248 319.38,-248 319.38,-248 406.62,-248 406.62,-248 412.62,-248 418.62,-254 418.62,-260 418.62,-260 418.62,-272 418.62,-272 418.62,-278 412.62,-284 406.62,-284"/>
<text text-anchor="middle" x="363" y="-260.75" font-family="Arial" font-size="15.00">player_header</text>
</g>
<!-- /lib/widgets/player_zone.dart&#45;&gt;/lib/widgets/player_header.dart -->
<g id="edge14" class="edge">
<title>/lib/widgets/player_zone.dart&#45;&gt;/lib/widgets/player_header.dart</title>
<path fill="none" stroke="#aabbaa" stroke-width="1.3" stroke-opacity="0.533333" d="M326.87,-319.7C332.21,-311.9 338.65,-302.51 344.6,-293.83"/>
<polygon fill="#aabbaa" fill-opacity="0.533333" stroke="#aabbaa" stroke-width="1.3" stroke-opacity="0.533333" points="347.39,-295.95 350.16,-285.73 341.62,-292 347.39,-295.95"/>
</g>
<!-- /lib/widgets/card_piles.dart -->
<g id="node11" class="node">
<title>/lib/widgets/card_piles.dart</title>
<path fill="Lavender" stroke="black" stroke-width="1.3" d="M255.75,-212C255.75,-212 196.25,-212 196.25,-212 190.25,-212 184.25,-206 184.25,-200 184.25,-200 184.25,-188 184.25,-188 184.25,-182 190.25,-176 196.25,-176 196.25,-176 255.75,-176 255.75,-176 261.75,-176 267.75,-182 267.75,-188 267.75,-188 267.75,-200 267.75,-200 267.75,-206 261.75,-212 255.75,-212"/>
<text text-anchor="middle" x="226" y="-188.75" font-family="Arial" font-size="15.00">card_piles</text>
</g>
<!-- /lib/widgets/card_piles.dart&#45;&gt;/lib/widgets/playing_card_widget.dart -->
<g id="edge19" class="edge">
<title>/lib/widgets/card_piles.dart&#45;&gt;/lib/widgets/playing_card_widget.dart</title>
<path fill="none" stroke="#aabbaa" stroke-width="1.3" stroke-opacity="0.533333" d="M241.08,-175.7C248.1,-167.64 256.59,-157.89 264.36,-148.98"/>
<polygon fill="#aabbaa" fill-opacity="0.533333" stroke="#aabbaa" stroke-width="1.3" stroke-opacity="0.533333" points="266.87,-151.43 270.8,-141.59 261.59,-146.83 266.87,-151.43"/>
</g>
<!-- /lib/widgets/card_piles.dart&#45;&gt;/lib/widgets/playing_card.dart -->
<g id="edge18" class="edge">
<title>/lib/widgets/card_piles.dart&#45;&gt;/lib/widgets/playing_card.dart</title>
<path fill="none" stroke="#aabbaa" stroke-width="1.3" stroke-opacity="0.533333" d="M217.03,-175.79C212.13,-165.64 206.38,-152.39 203,-140 197.66,-120.42 194.91,-97.7 193.49,-80.12"/>
<polygon fill="#aabbaa" fill-opacity="0.533333" stroke="#aabbaa" stroke-width="1.3" stroke-opacity="0.533333" points="196.99,-80.04 192.81,-70.31 190.01,-80.52 196.99,-80.04"/>
</g>
<!-- /lib/widgets/player_zone_cta.dart&#45;&gt;/lib/game_model.dart -->
<g id="edge20" class="edge">
<title>/lib/widgets/player_zone_cta.dart&#45;&gt;/lib/game_model.dart</title>
<path fill="none" stroke="#aabbaa" stroke-width="1.3" stroke-opacity="0.533333" d="M189.04,-247.52C169.19,-238.38 144.69,-227.09 123.49,-217.33"/>
<polygon fill="#aabbaa" fill-opacity="0.533333" stroke="#aabbaa" stroke-width="1.3" stroke-opacity="0.533333" points="125.08,-214.21 114.53,-213.2 122.15,-220.57 125.08,-214.21"/>
</g>
<!-- /lib/widgets/player_zone_cta.dart&#45;&gt;/lib/widgets/playing_card_widget.dart -->
<g id="edge22" class="edge">
<title>/lib/widgets/player_zone_cta.dart&#45;&gt;/lib/widgets/playing_card_widget.dart</title>
<path fill="none" stroke="#aabbaa" stroke-width="1.3" stroke-opacity="0.533333" d="M248.94,-247.68C259.23,-238.28 270.62,-225.77 277,-212 285.67,-193.29 288.04,-170.09 288.31,-152.06"/>
<polygon fill="#aabbaa" fill-opacity="0.533333" stroke="#aabbaa" stroke-width="1.3" stroke-opacity="0.533333" points="291.82,-152.19 288.23,-142.23 284.82,-152.26 291.82,-152.19"/>
</g>
<!-- /lib/widgets/player_zone_cta.dart&#45;&gt;/lib/widgets/card_piles.dart -->
<g id="edge21" class="edge">
<title>/lib/widgets/player_zone_cta.dart&#45;&gt;/lib/widgets/card_piles.dart</title>
<path fill="none" stroke="#aabbaa" stroke-width="1.3" stroke-opacity="0.533333" d="M226.75,-247.7C226.65,-240.49 226.53,-231.93 226.41,-223.82"/>
<polygon fill="#aabbaa" fill-opacity="0.533333" stroke="#aabbaa" stroke-width="1.3" stroke-opacity="0.533333" points="229.92,-224.02 226.27,-214.07 222.92,-224.12 229.92,-224.02"/>
</g>
</g>
</svg>
