<?xml version="1.0" encoding="UTF-8" standalone="no"?>
<!DOCTYPE svg PUBLIC "-//W3C//DTD SVG 1.1//EN"
 "http://www.w3.org/Graphics/SVG/1.1/DTD/svg11.dtd">
<!-- Generated by graphviz version 12.1.2 (20240928.0832)
 -->
<!-- Pages: 1 -->
<svg width="565pt" height="548pt"
 viewBox="0.00 0.00 565.45 548.00" xmlns="http://www.w3.org/2000/svg" xmlns:xlink="http://www.w3.org/1999/xlink">
<g id="graph0" class="graph" transform="scale(1 1) rotate(0) translate(4 544)">
<polygon fill="white" stroke="none" points="-4,4 -4,-544 561.45,-544 561.45,4 -4,4"/>
<!-- /lib/game_model.dart -->
<g id="node1" class="node">
<title>/lib/game_model.dart</title>
<path fill="Lavender" stroke="black" stroke-width="1.3" d="M90.25,-108C90.25,-108 12,-108 12,-108 6,-108 0,-102 0,-96 0,-96 0,-84 0,-84 0,-78 6,-72 12,-72 12,-72 90.25,-72 90.25,-72 96.25,-72 102.25,-78 102.25,-84 102.25,-84 102.25,-96 102.25,-96 102.25,-102 96.25,-108 90.25,-108"/>
<text text-anchor="middle" x="51.12" y="-84.75" font-family="Arial" font-size="15.00">game_model</text>
</g>
<!-- /lib/widgets/playing_card.dart -->
<g id="node9" class="node">
<title>/lib/widgets/playing_card.dart</title>
<path fill="Lavender" stroke="black" stroke-width="1.3" d="M452.12,-36C452.12,-36 376.12,-36 376.12,-36 370.12,-36 364.12,-30 364.12,-24 364.12,-24 364.12,-12 364.12,-12 364.12,-6 370.12,0 376.12,0 376.12,0 452.12,0 452.12,0 458.12,0 464.12,-6 464.12,-12 464.12,-12 464.12,-24 464.12,-24 464.12,-30 458.12,-36 452.12,-36"/>
<text text-anchor="middle" x="414.12" y="-12.75" font-family="Arial" font-size="15.00">playing_card</text>
</g>
<!-- /lib/game_model.dart&#45;&gt;/lib/widgets/playing_card.dart -->
<g id="edge1" class="edge">
<title>/lib/game_model.dart&#45;&gt;/lib/widgets/playing_card.dart</title>
<path fill="none" stroke="#aabbaa" stroke-width="1.3" stroke-opacity="0.533333" d="M102.75,-79.05C168.57,-66.35 282.25,-44.43 352.53,-30.88"/>
<polygon fill="#aabbaa" fill-opacity="0.533333" stroke="#aabbaa" stroke-width="1.3" stroke-opacity="0.533333" points="352.76,-34.4 361.92,-29.07 351.43,-27.52 352.76,-34.4"/>
</g>
<!-- /lib/main.dart -->
<g id="node2" class="node">
<title>/lib/main.dart</title>
<path fill="Lavender" stroke="black" stroke-width="1.3" d="M239.12,-468C239.12,-468 209.12,-468 209.12,-468 203.12,-468 197.12,-462 197.12,-456 197.12,-456 197.12,-444 197.12,-444 197.12,-438 203.12,-432 209.12,-432 209.12,-432 239.12,-432 239.12,-432 245.12,-432 251.12,-438 251.12,-444 251.12,-444 251.12,-456 251.12,-456 251.12,-462 245.12,-468 239.12,-468"/>
<text text-anchor="middle" x="224.12" y="-444.75" font-family="Arial" font-size="15.00">main</text>
</g>
<!-- /lib/screens/setup_screen.dart -->
<g id="node4" class="node">
<title>/lib/screens/setup_screen.dart</title>
<path fill="Lavender" stroke="black" stroke-width="1.3" d="M265.12,-396C265.12,-396 183.12,-396 183.12,-396 177.12,-396 171.12,-390 171.12,-384 171.12,-384 171.12,-372 171.12,-372 171.12,-366 177.12,-360 183.12,-360 183.12,-360 265.12,-360 265.12,-360 271.12,-360 277.12,-366 277.12,-372 277.12,-372 277.12,-384 277.12,-384 277.12,-390 271.12,-396 265.12,-396"/>
<text text-anchor="middle" x="224.12" y="-372.75" font-family="Arial" font-size="15.00">setup_screen</text>
</g>
<!-- /lib/main.dart&#45;&gt;/lib/screens/setup_screen.dart -->
<g id="edge2" class="edge">
<title>/lib/main.dart&#45;&gt;/lib/screens/setup_screen.dart</title>
<path fill="none" stroke="#aabbaa" stroke-width="1.3" stroke-opacity="0.533333" d="M224.12,-431.7C224.12,-424.49 224.12,-415.93 224.12,-407.82"/>
<polygon fill="#aabbaa" fill-opacity="0.533333" stroke="#aabbaa" stroke-width="1.3" stroke-opacity="0.533333" points="227.63,-408.07 224.13,-398.07 220.63,-408.07 227.63,-408.07"/>
</g>
<!-- /lib/screens/game_screen.dart -->
<g id="node3" class="node">
<title>/lib/screens/game_screen.dart</title>
<path fill="Lavender" stroke="black" stroke-width="1.3" d="M265.5,-324C265.5,-324 182.75,-324 182.75,-324 176.75,-324 170.75,-318 170.75,-312 170.75,-312 170.75,-300 170.75,-300 170.75,-294 176.75,-288 182.75,-288 182.75,-288 265.5,-288 265.5,-288 271.5,-288 277.5,-294 277.5,-300 277.5,-300 277.5,-312 277.5,-312 277.5,-318 271.5,-324 265.5,-324"/>
<text text-anchor="middle" x="224.12" y="-300.75" font-family="Arial" font-size="15.00">game_screen</text>
</g>
<!-- /lib/screens/game_screen.dart&#45;&gt;/lib/game_model.dart -->
<g id="edge6" class="edge">
<title>/lib/screens/game_screen.dart&#45;&gt;/lib/game_model.dart</title>
<path fill="none" stroke="#aabbaa" stroke-width="1.3" stroke-opacity="0.533333" d="M180.13,-287.61C138.08,-268.32 77.2,-232.79 50.12,-180 40.73,-161.68 41.38,-138.32 44.17,-120.13"/>
<polygon fill="#aabbaa" fill-opacity="0.533333" stroke="#aabbaa" stroke-width="1.3" stroke-opacity="0.533333" points="47.59,-120.89 45.99,-110.42 40.71,-119.61 47.59,-120.89"/>
</g>
<!-- /lib/widgets/card_deck.dart -->
<g id="node5" class="node">
<title>/lib/widgets/card_deck.dart</title>
<path fill="Lavender" stroke="black" stroke-width="1.3" d="M501.62,-180C501.62,-180 440.62,-180 440.62,-180 434.62,-180 428.62,-174 428.62,-168 428.62,-168 428.62,-156 428.62,-156 428.62,-150 434.62,-144 440.62,-144 440.62,-144 501.62,-144 501.62,-144 507.62,-144 513.62,-150 513.62,-156 513.62,-156 513.62,-168 513.62,-168 513.62,-174 507.62,-180 501.62,-180"/>
<text text-anchor="middle" x="471.12" y="-156.75" font-family="Arial" font-size="15.00">card_deck</text>
</g>
<!-- /lib/screens/game_screen.dart&#45;&gt;/lib/widgets/card_deck.dart -->
<g id="edge3" class="edge">
<title>/lib/screens/game_screen.dart&#45;&gt;/lib/widgets/card_deck.dart</title>
<path fill="none" stroke="#aabbaa" stroke-width="1.3" stroke-opacity="0.533333" d="M238.45,-287.67C257.71,-264.74 291.35,-226.03 307.12,-216 312.01,-212.89 371.01,-194.15 416.86,-179.82"/>
<polygon fill="#aabbaa" fill-opacity="0.533333" stroke="#aabbaa" stroke-width="1.3" stroke-opacity="0.533333" points="417.81,-183.19 426.31,-176.87 415.72,-176.51 417.81,-183.19"/>
</g>
<!-- /lib/widgets/player_zone.dart -->
<g id="node7" class="node">
<title>/lib/widgets/player_zone.dart</title>
<path fill="Lavender" stroke="black" stroke-width="1.3" d="M246.62,-252C246.62,-252 173.62,-252 173.62,-252 167.62,-252 161.62,-246 161.62,-240 161.62,-240 161.62,-228 161.62,-228 161.62,-222 167.62,-216 173.62,-216 173.62,-216 246.62,-216 246.62,-216 252.62,-216 258.62,-222 258.62,-228 258.62,-228 258.62,-240 258.62,-240 258.62,-246 252.62,-252 246.62,-252"/>
<text text-anchor="middle" x="210.12" y="-228.75" font-family="Arial" font-size="15.00">player_zone</text>
</g>
<!-- /lib/screens/game_screen.dart&#45;&gt;/lib/widgets/player_zone.dart -->
<g id="edge4" class="edge">
<title>/lib/screens/game_screen.dart&#45;&gt;/lib/widgets/player_zone.dart</title>
<path fill="none" stroke="#aabbaa" stroke-width="1.3" stroke-opacity="0.533333" d="M220.66,-287.7C219.22,-280.49 217.51,-271.93 215.89,-263.82"/>
<polygon fill="#aabbaa" fill-opacity="0.533333" stroke="#aabbaa" stroke-width="1.3" stroke-opacity="0.533333" points="219.33,-263.15 213.93,-254.03 212.46,-264.53 219.33,-263.15"/>
</g>
<!-- /lib/widgets/screen.dart -->
<g id="node11" class="node">
<title>/lib/widgets/screen.dart</title>
<path fill="Lavender" stroke="black" stroke-width="1.3" d="M364.62,-252C364.62,-252 327.62,-252 327.62,-252 321.62,-252 315.62,-246 315.62,-240 315.62,-240 315.62,-228 315.62,-228 315.62,-222 321.62,-216 327.62,-216 327.62,-216 364.62,-216 364.62,-216 370.62,-216 376.62,-222 376.62,-228 376.62,-228 376.62,-240 376.62,-240 376.62,-246 370.62,-252 364.62,-252"/>
<text text-anchor="middle" x="346.12" y="-228.75" font-family="Arial" font-size="15.00">screen</text>
</g>
<!-- /lib/screens/game_screen.dart&#45;&gt;/lib/widgets/screen.dart -->
<g id="edge5" class="edge">
<title>/lib/screens/game_screen.dart&#45;&gt;/lib/widgets/screen.dart</title>
<path fill="none" stroke="#aabbaa" stroke-width="1.3" stroke-opacity="0.533333" d="M254.6,-287.52C270.14,-278.6 289.25,-267.63 305.99,-258.03"/>
<polygon fill="#aabbaa" fill-opacity="0.533333" stroke="#aabbaa" stroke-width="1.3" stroke-opacity="0.533333" points="307.4,-261.25 314.34,-253.24 303.92,-255.18 307.4,-261.25"/>
</g>
<!-- /lib/screens/setup_screen.dart&#45;&gt;/lib/game_model.dart -->
<g id="edge7" class="edge">
<title>/lib/screens/setup_screen.dart&#45;&gt;/lib/game_model.dart</title>
<path fill="none" stroke="#aabbaa" stroke-width="1.3" stroke-opacity="0.533333" d="M196.27,-359.67C163.14,-337.91 107.82,-297.82 72.12,-252 41.2,-212.3 32.09,-193.96 38.12,-144 39.08,-136.1 40.81,-127.68 42.7,-119.93"/>
<polygon fill="#aabbaa" fill-opacity="0.533333" stroke="#aabbaa" stroke-width="1.3" stroke-opacity="0.533333" points="46.05,-120.93 45.21,-110.37 39.28,-119.15 46.05,-120.93"/>
</g>
<!-- /lib/screens/setup_screen.dart&#45;&gt;/lib/screens/game_screen.dart -->
<g id="edge8" class="edge">
<title>/lib/screens/setup_screen.dart&#45;&gt;/lib/screens/game_screen.dart</title>
<path fill="none" stroke="#aabbaa" stroke-width="1.3" stroke-opacity="0.533333" d="M224.12,-359.7C224.12,-352.49 224.12,-343.93 224.12,-335.82"/>
<polygon fill="#aabbaa" fill-opacity="0.533333" stroke="#aabbaa" stroke-width="1.3" stroke-opacity="0.533333" points="227.63,-336.07 224.13,-326.07 220.63,-336.07 227.63,-336.07"/>
</g>
<!-- /lib/screens/setup_screen.dart&#45;&gt;/lib/widgets/screen.dart -->
<g id="edge9" class="edge">
<title>/lib/screens/setup_screen.dart&#45;&gt;/lib/widgets/screen.dart</title>
<path fill="none" stroke="#aabbaa" stroke-width="1.3" stroke-opacity="0.533333" d="M247.26,-359.71C259.53,-349.95 274.44,-337.1 286.12,-324 303.13,-304.93 319.13,-280.77 330.32,-262.43"/>
<polygon fill="#aabbaa" fill-opacity="0.533333" stroke="#aabbaa" stroke-width="1.3" stroke-opacity="0.533333" points="333.19,-264.45 335.32,-254.07 327.18,-260.86 333.19,-264.45"/>
</g>
<!-- /lib/widgets/card_deck.dart&#45;&gt;/lib/widgets/playing_card.dart -->
<g id="edge10" class="edge">
<title>/lib/widgets/card_deck.dart&#45;&gt;/lib/widgets/playing_card.dart</title>
<path fill="none" stroke="#aabbaa" stroke-width="1.3" stroke-opacity="0.533333" d="M513.15,-143.52C527.9,-135.1 542.85,-123.41 551.12,-108 558.7,-93.9 560.17,-85.2 551.12,-72 534.08,-47.13 503.57,-33.93 475.65,-26.92"/>
<polygon fill="#aabbaa" fill-opacity="0.533333" stroke="#aabbaa" stroke-width="1.3" stroke-opacity="0.533333" points="476.75,-23.58 466.23,-24.8 475.21,-30.41 476.75,-23.58"/>
</g>
<!-- /lib/widgets/playing_card_widget.dart -->
<g id="node10" class="node">
<title>/lib/widgets/playing_card_widget.dart</title>
<path fill="Lavender" stroke="black" stroke-width="1.3" d="M529.62,-108C529.62,-108 402.62,-108 402.62,-108 396.62,-108 390.62,-102 390.62,-96 390.62,-96 390.62,-84 390.62,-84 390.62,-78 396.62,-72 402.62,-72 402.62,-72 529.62,-72 529.62,-72 535.62,-72 541.62,-78 541.62,-84 541.62,-84 541.62,-96 541.62,-96 541.62,-102 535.62,-108 529.62,-108"/>
<text text-anchor="middle" x="466.12" y="-84.75" font-family="Arial" font-size="15.00">playing_card_widget</text>
</g>
<!-- /lib/widgets/card_deck.dart&#45;&gt;/lib/widgets/playing_card_widget.dart -->
<g id="edge11" class="edge">
<title>/lib/widgets/card_deck.dart&#45;&gt;/lib/widgets/playing_card_widget.dart</title>
<path fill="none" stroke="#aabbaa" stroke-width="1.3" stroke-opacity="0.533333" d="M469.89,-143.7C469.37,-136.49 468.76,-127.93 468.18,-119.82"/>
<polygon fill="#aabbaa" fill-opacity="0.533333" stroke="#aabbaa" stroke-width="1.3" stroke-opacity="0.533333" points="471.69,-119.79 467.49,-110.07 464.71,-120.29 471.69,-119.79"/>
</g>
<!-- /lib/widgets/player_header.dart -->
<g id="node6" class="node">
<title>/lib/widgets/player_header.dart</title>
<path fill="Lavender" stroke="black" stroke-width="1.3" d="M321.75,-180C321.75,-180 234.5,-180 234.5,-180 228.5,-180 222.5,-174 222.5,-168 222.5,-168 222.5,-156 222.5,-156 222.5,-150 228.5,-144 234.5,-144 234.5,-144 321.75,-144 321.75,-144 327.75,-144 333.75,-150 333.75,-156 333.75,-156 333.75,-168 333.75,-168 333.75,-174 327.75,-180 321.75,-180"/>
<text text-anchor="middle" x="278.12" y="-156.75" font-family="Arial" font-size="15.00">player_header</text>
</g>
<!-- /lib/widgets/player_zone.dart&#45;&gt;/lib/game_model.dart -->
<g id="edge12" class="edge">
<title>/lib/widgets/player_zone.dart&#45;&gt;/lib/game_model.dart</title>
<path fill="none" stroke="#aabbaa" stroke-width="1.3" stroke-opacity="0.533333" d="M161.18,-226.51C130.67,-219.9 92.98,-206.62 70.12,-180 56.01,-163.56 51.56,-139.19 50.48,-120.1"/>
<polygon fill="#aabbaa" fill-opacity="0.533333" stroke="#aabbaa" stroke-width="1.3" stroke-opacity="0.533333" points="53.98,-120.06 50.23,-110.15 46.98,-120.23 53.98,-120.06"/>
</g>
<!-- /lib/widgets/player_zone.dart&#45;&gt;/lib/widgets/player_header.dart -->
<g id="edge13" class="edge">
<title>/lib/widgets/player_zone.dart&#45;&gt;/lib/widgets/player_header.dart</title>
<path fill="none" stroke="#aabbaa" stroke-width="1.3" stroke-opacity="0.533333" d="M226.93,-215.7C234.92,-207.47 244.63,-197.48 253.43,-188.42"/>
<polygon fill="#aabbaa" fill-opacity="0.533333" stroke="#aabbaa" stroke-width="1.3" stroke-opacity="0.533333" points="255.68,-191.13 260.14,-181.52 250.66,-186.25 255.68,-191.13"/>
</g>
<!-- /lib/widgets/player_zone_cta.dart -->
<g id="node8" class="node">
<title>/lib/widgets/player_zone_cta.dart</title>
<path fill="Lavender" stroke="black" stroke-width="1.3" d="M192.88,-180C192.88,-180 91.38,-180 91.38,-180 85.38,-180 79.38,-174 79.38,-168 79.38,-168 79.38,-156 79.38,-156 79.38,-150 85.38,-144 91.38,-144 91.38,-144 192.88,-144 192.88,-144 198.88,-144 204.88,-150 204.88,-156 204.88,-156 204.88,-168 204.88,-168 204.88,-174 198.88,-180 192.88,-180"/>
<text text-anchor="middle" x="142.12" y="-156.75" font-family="Arial" font-size="15.00">player_zone_cta</text>
</g>
<!-- /lib/widgets/player_zone.dart&#45;&gt;/lib/widgets/player_zone_cta.dart -->
<g id="edge14" class="edge">
<title>/lib/widgets/player_zone.dart&#45;&gt;/lib/widgets/player_zone_cta.dart</title>
<path fill="none" stroke="#aabbaa" stroke-width="1.3" stroke-opacity="0.533333" d="M193.32,-215.7C185.33,-207.47 175.62,-197.48 166.82,-188.42"/>
<polygon fill="#aabbaa" fill-opacity="0.533333" stroke="#aabbaa" stroke-width="1.3" stroke-opacity="0.533333" points="169.59,-186.25 160.11,-181.52 164.57,-191.13 169.59,-186.25"/>
</g>
<!-- /lib/widgets/player_zone.dart&#45;&gt;/lib/widgets/playing_card.dart -->
<g id="edge15" class="edge">
<title>/lib/widgets/player_zone.dart&#45;&gt;/lib/widgets/playing_card.dart</title>
<path fill="none" stroke="#aabbaa" stroke-width="1.3" stroke-opacity="0.533333" d="M258.8,-218.26C291.55,-207.5 330.89,-192.64 343.12,-180 378.62,-143.33 360.16,-118.07 382.12,-72 386.24,-63.36 391.36,-54.33 396.29,-46.21"/>
<polygon fill="#aabbaa" fill-opacity="0.533333" stroke="#aabbaa" stroke-width="1.3" stroke-opacity="0.533333" points="399.19,-48.19 401.52,-37.85 393.25,-44.48 399.19,-48.19"/>
</g>
<!-- /lib/widgets/player_zone.dart&#45;&gt;/lib/widgets/playing_card_widget.dart -->
<g id="edge16" class="edge">
<title>/lib/widgets/player_zone.dart&#45;&gt;/lib/widgets/playing_card_widget.dart</title>
<path fill="none" stroke="#aabbaa" stroke-width="1.3" stroke-opacity="0.533333" d="M258.71,-218.09C305.8,-203.55 370.88,-183.17 376.12,-180 390.81,-171.11 421.1,-139.91 442.47,-116.95"/>
<polygon fill="#aabbaa" fill-opacity="0.533333" stroke="#aabbaa" stroke-width="1.3" stroke-opacity="0.533333" points="444.9,-119.48 449.12,-109.76 439.76,-114.73 444.9,-119.48"/>
</g>
<!-- /lib/widgets/player_zone_cta.dart&#45;&gt;/lib/game_model.dart -->
<g id="edge17" class="edge">
<title>/lib/widgets/player_zone_cta.dart&#45;&gt;/lib/game_model.dart</title>
<path fill="none" stroke="#aabbaa" stroke-width="1.3" stroke-opacity="0.533333" d="M119.63,-143.7C108.58,-135.2 95.08,-124.81 82.99,-115.51"/>
<polygon fill="#aabbaa" fill-opacity="0.533333" stroke="#aabbaa" stroke-width="1.3" stroke-opacity="0.533333" points="85.3,-112.87 75.24,-109.55 81.03,-118.42 85.3,-112.87"/>
</g>
<!-- /lib/widgets/player_zone_cta.dart&#45;&gt;/lib/widgets/playing_card_widget.dart -->
<g id="edge18" class="edge">
<title>/lib/widgets/player_zone_cta.dart&#45;&gt;/lib/widgets/playing_card_widget.dart</title>
<path fill="none" stroke="#aabbaa" stroke-width="1.3" stroke-opacity="0.533333" d="M205.2,-145.8C207.88,-145.18 210.53,-144.58 213.12,-144 268.05,-131.67 329.9,-118.7 378.69,-108.68"/>
<polygon fill="#aabbaa" fill-opacity="0.533333" stroke="#aabbaa" stroke-width="1.3" stroke-opacity="0.533333" points="379.15,-112.16 388.24,-106.72 377.74,-105.3 379.15,-112.16"/>
</g>
<!-- /lib/widgets/playing_card_widget.dart&#45;&gt;/lib/widgets/playing_card.dart -->
<g id="edge19" class="edge">
<title>/lib/widgets/playing_card_widget.dart&#45;&gt;/lib/widgets/playing_card.dart</title>
<path fill="none" stroke="#aabbaa" stroke-width="1.3" stroke-opacity="0.533333" d="M453.27,-71.7C447.41,-63.81 440.35,-54.3 433.85,-45.55"/>
<polygon fill="#aabbaa" fill-opacity="0.533333" stroke="#aabbaa" stroke-width="1.3" stroke-opacity="0.533333" points="436.78,-43.62 428,-37.68 431.16,-47.8 436.78,-43.62"/>
</g>
<!-- /lib/widgets/table_surface.dart -->
<g id="node12" class="node">
<title>/lib/widgets/table_surface.dart</title>
<path fill="Lavender" stroke="black" stroke-width="1.3" d="M382.12,-540C382.12,-540 300.12,-540 300.12,-540 294.12,-540 288.12,-534 288.12,-528 288.12,-528 288.12,-516 288.12,-516 288.12,-510 294.12,-504 300.12,-504 300.12,-504 382.12,-504 382.12,-504 388.12,-504 394.12,-510 394.12,-516 394.12,-516 394.12,-528 394.12,-528 394.12,-534 388.12,-540 382.12,-540"/>
<text text-anchor="middle" x="341.12" y="-516.75" font-family="Arial" font-size="15.00">table_surface</text>
</g>
<!-- /test/widget_test.dart -->
<g id="node13" class="node">
<title>/test/widget_test.dart</title>
<path fill="Lavender" stroke="black" stroke-width="1.3" d="M258,-540C258,-540 190.25,-540 190.25,-540 184.25,-540 178.25,-534 178.25,-528 178.25,-528 178.25,-516 178.25,-516 178.25,-510 184.25,-504 190.25,-504 190.25,-504 258,-504 258,-504 264,-504 270,-510 270,-516 270,-516 270,-528 270,-528 270,-534 264,-540 258,-540"/>
<text text-anchor="middle" x="224.12" y="-516.75" font-family="Arial" font-size="15.00">widget_test</text>
</g>
<!-- /test/widget_test.dart&#45;&gt;/lib/main.dart -->
<g id="edge20" class="edge">
<title>/test/widget_test.dart&#45;&gt;/lib/main.dart</title>
<path fill="none" stroke="#aabbaa" stroke-width="1.3" stroke-opacity="0.533333" d="M224.12,-503.7C224.12,-496.49 224.12,-487.93 224.12,-479.82"/>
<polygon fill="#aabbaa" fill-opacity="0.533333" stroke="#aabbaa" stroke-width="1.3" stroke-opacity="0.533333" points="227.63,-480.07 224.13,-470.07 220.63,-480.07 227.63,-480.07"/>
</g>
</g>
</svg>
