<?xml version="1.0" encoding="UTF-8" standalone="no"?>
<!DOCTYPE svg PUBLIC "-//W3C//DTD SVG 1.1//EN"
 "http://www.w3.org/Graphics/SVG/1.1/DTD/svg11.dtd">
<!-- Generated by graphviz version 12.2.0 (20241103.1931)
 -->
<!-- Pages: 1 -->
<svg width="1976pt" height="828pt"
 viewBox="0.00 0.00 1976.00 828.00" xmlns="http://www.w3.org/2000/svg" xmlns:xlink="http://www.w3.org/1999/xlink">
<g id="graph0" class="graph" transform="scale(1 1) rotate(0) translate(4 824)">
<polygon fill="white" stroke="none" points="-4,4 -4,-824 1972,-824 1972,4 -4,4"/>
<g id="clust1" class="cluster">
<title>cluster~</title>
<path fill="none" stroke="lightgray" stroke-width="2.6" d="M20,-8C20,-8 1948,-8 1948,-8 1954,-8 1960,-14 1960,-20 1960,-20 1960,-800 1960,-800 1960,-806 1954,-812 1948,-812 1948,-812 20,-812 20,-812 14,-812 8,-806 8,-800 8,-800 8,-20 8,-20 8,-14 14,-8 20,-8"/>
<text text-anchor="middle" x="984" y="-795.65" font-family="Arial Black" font-size="13.00">cards</text>
</g>
<g id="clust2" class="cluster">
<title>cluster~/test</title>
<path fill="none" stroke="lightgray" stroke-width="2.6" d="M28,-259C28,-259 474,-259 474,-259 480,-259 486,-265 486,-271 486,-271 486,-361 486,-361 486,-367 480,-373 474,-373 474,-373 28,-373 28,-373 22,-373 16,-367 16,-361 16,-361 16,-271 16,-271 16,-265 22,-259 28,-259"/>
<text text-anchor="middle" x="251" y="-356.65" font-family="Arial Black" font-size="13.00">test</text>
</g>
<g id="clust3" class="cluster">
<title>cluster~/test/models</title>
<path fill="none" stroke="lightgray" stroke-width="2.6" d="M36,-267C36,-267 466,-267 466,-267 472,-267 478,-273 478,-279 478,-279 478,-330 478,-330 478,-336 472,-342 466,-342 466,-342 36,-342 36,-342 30,-342 24,-336 24,-330 24,-330 24,-279 24,-279 24,-273 30,-267 36,-267"/>
<text text-anchor="middle" x="251" y="-325.65" font-family="Arial Black" font-size="13.00">models</text>
</g>
<g id="clust4" class="cluster">
<title>cluster~/lib</title>
<path fill="none" stroke="lightgray" stroke-width="2.6" d="M506,-16C506,-16 1940,-16 1940,-16 1946,-16 1952,-22 1952,-28 1952,-28 1952,-769 1952,-769 1952,-775 1946,-781 1940,-781 1940,-781 506,-781 506,-781 500,-781 494,-775 494,-769 494,-769 494,-28 494,-28 494,-22 500,-16 506,-16"/>
<text text-anchor="middle" x="1223" y="-764.65" font-family="Arial Black" font-size="13.00">lib</text>
</g>
<g id="clust5" class="cluster">
<title>cluster~/lib/models</title>
<path fill="none" stroke="lightgray" stroke-width="2.6" d="M526,-32C526,-32 877,-32 877,-32 883,-32 889,-38 889,-44 889,-44 889,-239 889,-239 889,-245 883,-251 877,-251 877,-251 526,-251 526,-251 520,-251 514,-245 514,-239 514,-239 514,-44 514,-44 514,-38 520,-32 526,-32"/>
<text text-anchor="middle" x="701.5" y="-234.65" font-family="Arial Black" font-size="13.00">models</text>
</g>
<g id="clust6" class="cluster">
<title>cluster~/lib/screens</title>
<path fill="none" stroke="lightgray" stroke-width="2.6" d="M705,-453C705,-453 823,-453 823,-453 829,-453 835,-459 835,-465 835,-465 835,-694 835,-694 835,-700 829,-706 823,-706 823,-706 705,-706 705,-706 699,-706 693,-700 693,-694 693,-694 693,-465 693,-465 693,-459 699,-453 705,-453"/>
<text text-anchor="middle" x="764" y="-689.65" font-family="Arial Black" font-size="13.00">screens</text>
</g>
<g id="clust7" class="cluster">
<title>cluster~/lib/widgets</title>
<path fill="none" stroke="lightgray" stroke-width="2.6" d="M909,-24C909,-24 1932,-24 1932,-24 1938,-24 1944,-30 1944,-36 1944,-36 1944,-547 1944,-547 1944,-553 1938,-559 1932,-559 1932,-559 909,-559 909,-559 903,-559 897,-553 897,-547 897,-547 897,-36 897,-36 897,-30 903,-24 909,-24"/>
<text text-anchor="middle" x="1420.5" y="-542.65" font-family="Arial Black" font-size="13.00">widgets</text>
</g>
<g id="clust8" class="cluster">
<title>cluster~/lib/widgets/cards</title>
<path fill="none" stroke="lightgray" stroke-width="2.6" d="M1136,-32C1136,-32 1262,-32 1262,-32 1268,-32 1274,-38 1274,-44 1274,-44 1274,-330 1274,-330 1274,-336 1268,-342 1262,-342 1262,-342 1136,-342 1136,-342 1130,-342 1124,-336 1124,-330 1124,-330 1124,-44 1124,-44 1124,-38 1130,-32 1136,-32"/>
<text text-anchor="middle" x="1199" y="-325.65" font-family="Arial Black" font-size="13.00">cards</text>
</g>
<g id="clust9" class="cluster">
<title>cluster~/lib/widgets/player</title>
<path fill="none" stroke="lightgray" stroke-width="2.6" d="M1263,-381C1263,-381 1611,-381 1611,-381 1617,-381 1623,-387 1623,-393 1623,-393 1623,-516 1623,-516 1623,-522 1617,-528 1611,-528 1611,-528 1263,-528 1263,-528 1257,-528 1251,-522 1251,-516 1251,-516 1251,-393 1251,-393 1251,-387 1257,-381 1263,-381"/>
<text text-anchor="middle" x="1437" y="-511.65" font-family="Arial Black" font-size="13.00">player</text>
</g>
<!-- /test/models/game_model_test.dart -->
<g id="node1" class="node">
<title>/test/models/game_model_test.dart</title>
<path fill="Lavender" stroke="black" stroke-width="1.3" d="M457.62,-311C457.62,-311 346.38,-311 346.38,-311 340.38,-311 334.38,-305 334.38,-299 334.38,-299 334.38,-287 334.38,-287 334.38,-281 340.38,-275 346.38,-275 346.38,-275 457.62,-275 457.62,-275 463.62,-275 469.62,-281 469.62,-287 469.62,-287 469.62,-299 469.62,-299 469.62,-305 463.62,-311 457.62,-311"/>
<text text-anchor="middle" x="402" y="-287.75" font-family="Arial" font-size="15.00">game_model_test</text>
</g>
<!-- /lib/models/game_model.dart -->
<g id="node4" class="node">
<title>/lib/models/game_model.dart</title>
<path fill="Lavender" stroke="black" stroke-width="1.3" d="M855.12,-220C855.12,-220 776.88,-220 776.88,-220 770.88,-220 764.88,-214 764.88,-208 764.88,-208 764.88,-196 764.88,-196 764.88,-190 770.88,-184 776.88,-184 776.88,-184 855.12,-184 855.12,-184 861.12,-184 867.12,-190 867.12,-196 867.12,-196 867.12,-208 867.12,-208 867.12,-214 861.12,-220 855.12,-220"/>
<text text-anchor="middle" x="816" y="-196.75" font-family="Arial" font-size="15.00">game_model</text>
</g>
<!-- /test/models/game_model_test.dart&#45;&gt;/lib/models/game_model.dart -->
<g id="edge1" class="edge">
<title>/test/models/game_model_test.dart&#45;&gt;/lib/models/game_model.dart</title>
<path fill="none" stroke="#aabbaa" stroke-width="1.3" stroke-opacity="0.533333" d="M469.76,-288.61C557.69,-283.44 705.82,-271.92 756,-251 768.73,-245.69 780.96,-236.85 791.02,-228.19"/>
<polygon fill="#aabbaa" fill-opacity="0.533333" stroke="#aabbaa" stroke-width="1.3" stroke-opacity="0.533333" points="793.09,-231.03 798.14,-221.71 788.39,-225.85 793.09,-231.03"/>
</g>
<!-- /test/models/player_model_test.dart -->
<g id="node2" class="node">
<title>/test/models/player_model_test.dart</title>
<path fill="Lavender" stroke="black" stroke-width="1.3" d="M304.12,-311C304.12,-311 189.88,-311 189.88,-311 183.88,-311 177.88,-305 177.88,-299 177.88,-299 177.88,-287 177.88,-287 177.88,-281 183.88,-275 189.88,-275 189.88,-275 304.12,-275 304.12,-275 310.12,-275 316.12,-281 316.12,-287 316.12,-287 316.12,-299 316.12,-299 316.12,-305 310.12,-311 304.12,-311"/>
<text text-anchor="middle" x="247" y="-287.75" font-family="Arial" font-size="15.00">player_model_test</text>
</g>
<!-- /lib/models/player_model.dart -->
<g id="node7" class="node">
<title>/lib/models/player_model.dart</title>
<path fill="Lavender" stroke="black" stroke-width="1.3" d="M615.62,-148C615.62,-148 534.38,-148 534.38,-148 528.38,-148 522.38,-142 522.38,-136 522.38,-136 522.38,-124 522.38,-124 522.38,-118 528.38,-112 534.38,-112 534.38,-112 615.62,-112 615.62,-112 621.62,-112 627.62,-118 627.62,-124 627.62,-124 627.62,-136 627.62,-136 627.62,-142 621.62,-148 615.62,-148"/>
<text text-anchor="middle" x="575" y="-124.75" font-family="Arial" font-size="15.00">player_model</text>
</g>
<!-- /test/models/player_model_test.dart&#45;&gt;/lib/models/player_model.dart -->
<g id="edge2" class="edge">
<title>/test/models/player_model_test.dart&#45;&gt;/lib/models/player_model.dart</title>
<path fill="none" stroke="#aabbaa" stroke-width="1.3" stroke-opacity="0.533333" d="M282.41,-274.62C342.2,-245.27 463.08,-185.94 529.22,-153.47"/>
<polygon fill="#aabbaa" fill-opacity="0.533333" stroke="#aabbaa" stroke-width="1.3" stroke-opacity="0.533333" points="530.53,-156.73 537.97,-149.18 527.45,-150.44 530.53,-156.73"/>
</g>
<!-- /test/models/card_model_test.dart -->
<g id="node3" class="node">
<title>/test/models/card_model_test.dart</title>
<path fill="Lavender" stroke="black" stroke-width="1.3" d="M147.5,-311C147.5,-311 44.5,-311 44.5,-311 38.5,-311 32.5,-305 32.5,-299 32.5,-299 32.5,-287 32.5,-287 32.5,-281 38.5,-275 44.5,-275 44.5,-275 147.5,-275 147.5,-275 153.5,-275 159.5,-281 159.5,-287 159.5,-287 159.5,-299 159.5,-299 159.5,-305 153.5,-311 147.5,-311"/>
<text text-anchor="middle" x="96" y="-287.75" font-family="Arial" font-size="15.00">card_model_test</text>
</g>
<!-- /lib/models/card_model.dart -->
<g id="node9" class="node">
<title>/lib/models/card_model.dart</title>
<path fill="Lavender" stroke="black" stroke-width="1.3" d="M868,-76C868,-76 798,-76 798,-76 792,-76 786,-70 786,-64 786,-64 786,-52 786,-52 786,-46 792,-40 798,-40 798,-40 868,-40 868,-40 874,-40 880,-46 880,-52 880,-52 880,-64 880,-64 880,-70 874,-76 868,-76"/>
<text text-anchor="middle" x="833" y="-52.75" font-family="Arial" font-size="15.00">card_model</text>
</g>
<!-- /test/models/card_model_test.dart&#45;&gt;/lib/models/card_model.dart -->
<g id="edge3" class="edge">
<title>/test/models/card_model_test.dart&#45;&gt;/lib/models/card_model.dart</title>
<path fill="none" stroke="#aabbaa" stroke-width="1.3" stroke-opacity="0.533333" d="M132.36,-274.55C178.31,-252.66 259.98,-214.34 331,-184 410.99,-149.82 428.85,-134.04 513,-112 623.98,-82.94 659.12,-100.12 774.37,-76.34"/>
<polygon fill="#aabbaa" fill-opacity="0.533333" stroke="#aabbaa" stroke-width="1.3" stroke-opacity="0.533333" points="774.81,-79.83 783.86,-74.32 773.35,-72.98 774.81,-79.83"/>
</g>
<!-- /lib/models/game_model.dart&#45;&gt;/lib/models/player_model.dart -->
<g id="edge6" class="edge">
<title>/lib/models/game_model.dart&#45;&gt;/lib/models/player_model.dart</title>
<path fill="none" stroke="#aabbaa" stroke-width="1.3" stroke-opacity="0.533333" d="M764.67,-187.67C728.05,-177.45 678.63,-163.17 639.39,-151.5"/>
<polygon fill="#aabbaa" fill-opacity="0.533333" stroke="#aabbaa" stroke-width="1.3" stroke-opacity="0.533333" points="640.55,-148.2 629.97,-148.69 638.55,-154.91 640.55,-148.2"/>
</g>
<!-- /lib/models/game_model.dart&#45;&gt;/lib/models/player_model.dart -->
<g id="edge8" class="edge">
<title>/lib/models/game_model.dart&#45;&gt;/lib/models/player_model.dart</title>
<path fill="none" stroke="#aabbaa" stroke-width="1.3" stroke-dasharray="5,2" stroke-opacity="0.533333" d="M764.43,-184.32C727.73,-173.32 678.27,-158.95 639.05,-147.9"/>
<polygon fill="#aabbaa" fill-opacity="0.533333" stroke="#aabbaa" stroke-width="1.3" stroke-opacity="0.533333" points="640.23,-144.59 629.65,-145.26 638.33,-151.33 640.23,-144.59"/>
</g>
<!-- /lib/models/backend_model.dart -->
<g id="node10" class="node">
<title>/lib/models/backend_model.dart</title>
<path fill="Lavender" stroke="black" stroke-width="1.3" d="M754.5,-148C754.5,-148 657.5,-148 657.5,-148 651.5,-148 645.5,-142 645.5,-136 645.5,-136 645.5,-124 645.5,-124 645.5,-118 651.5,-112 657.5,-112 657.5,-112 754.5,-112 754.5,-112 760.5,-112 766.5,-118 766.5,-124 766.5,-124 766.5,-136 766.5,-136 766.5,-142 760.5,-148 754.5,-148"/>
<text text-anchor="middle" x="706" y="-124.75" font-family="Arial" font-size="15.00">backend_model</text>
</g>
<!-- /lib/models/game_model.dart&#45;&gt;/lib/models/backend_model.dart -->
<g id="edge4" class="edge">
<title>/lib/models/game_model.dart&#45;&gt;/lib/models/backend_model.dart</title>
<path fill="none" stroke="#aabbaa" stroke-width="1.3" stroke-opacity="0.533333" d="M788.53,-183.52C774.77,-174.76 757.93,-164.04 743.05,-154.58"/>
<polygon fill="#aabbaa" fill-opacity="0.533333" stroke="#aabbaa" stroke-width="1.3" stroke-opacity="0.533333" points="745.1,-151.73 734.78,-149.32 741.34,-157.64 745.1,-151.73"/>
</g>
<!-- /lib/models/deck_model.dart -->
<g id="node11" class="node">
<title>/lib/models/deck_model.dart</title>
<path fill="Lavender" stroke="black" stroke-width="1.3" d="M869.12,-148C869.12,-148 796.88,-148 796.88,-148 790.88,-148 784.88,-142 784.88,-136 784.88,-136 784.88,-124 784.88,-124 784.88,-118 790.88,-112 796.88,-112 796.88,-112 869.12,-112 869.12,-112 875.12,-112 881.12,-118 881.12,-124 881.12,-124 881.12,-136 881.12,-136 881.12,-142 875.12,-148 869.12,-148"/>
<text text-anchor="middle" x="833" y="-124.75" font-family="Arial" font-size="15.00">deck_model</text>
</g>
<!-- /lib/models/game_model.dart&#45;&gt;/lib/models/deck_model.dart -->
<g id="edge5" class="edge">
<title>/lib/models/game_model.dart&#45;&gt;/lib/models/deck_model.dart</title>
<path fill="none" stroke="#aabbaa" stroke-width="1.3" stroke-opacity="0.533333" d="M814.29,-183.7C815.3,-176.41 817.17,-167.73 819.42,-159.54"/>
<polygon fill="#aabbaa" fill-opacity="0.533333" stroke="#aabbaa" stroke-width="1.3" stroke-opacity="0.533333" points="822.77,-160.57 822.37,-149.98 816.08,-158.51 822.77,-160.57"/>
</g>
<!-- /lib/models/game_model.dart&#45;&gt;/lib/models/deck_model.dart -->
<g id="edge7" class="edge">
<title>/lib/models/game_model.dart&#45;&gt;/lib/models/deck_model.dart</title>
<path fill="none" stroke="#aabbaa" stroke-width="1.3" stroke-dasharray="5,2" stroke-opacity="0.533333" d="M826.12,-183.7C828.61,-176.49 830.94,-167.93 832.66,-159.82"/>
<polygon fill="#aabbaa" fill-opacity="0.533333" stroke="#aabbaa" stroke-width="1.3" stroke-opacity="0.533333" points="836.09,-160.5 834.4,-150.04 829.2,-159.27 836.09,-160.5"/>
</g>
<!-- /lib/models/game_over_dialog.dart -->
<g id="node5" class="node">
<title>/lib/models/game_over_dialog.dart</title>
<path fill="Lavender" stroke="black" stroke-width="1.3" d="M735.12,-220C735.12,-220 620.88,-220 620.88,-220 614.88,-220 608.88,-214 608.88,-208 608.88,-208 608.88,-196 608.88,-196 608.88,-190 614.88,-184 620.88,-184 620.88,-184 735.12,-184 735.12,-184 741.12,-184 747.12,-190 747.12,-196 747.12,-196 747.12,-208 747.12,-208 747.12,-214 741.12,-220 735.12,-220"/>
<text text-anchor="middle" x="678" y="-196.75" font-family="Arial" font-size="15.00">game_over_dialog</text>
</g>
<!-- /lib/models/game_over_dialog.dart&#45;&gt;/lib/models/player_model.dart -->
<g id="edge9" class="edge">
<title>/lib/models/game_over_dialog.dart&#45;&gt;/lib/models/player_model.dart</title>
<path fill="none" stroke="#aabbaa" stroke-width="1.3" stroke-opacity="0.533333" d="M652.27,-183.52C639.52,-174.85 623.92,-164.25 610.09,-154.85"/>
<polygon fill="#aabbaa" fill-opacity="0.533333" stroke="#aabbaa" stroke-width="1.3" stroke-opacity="0.533333" points="612.26,-152.09 602.03,-149.37 608.33,-157.88 612.26,-152.09"/>
</g>
<!-- /lib/models/firebase_options.dart -->
<g id="node6" class="node">
<title>/lib/models/firebase_options.dart</title>
<path fill="Lavender" stroke="black" stroke-width="1.3" d="M683.75,-76C683.75,-76 582.25,-76 582.25,-76 576.25,-76 570.25,-70 570.25,-64 570.25,-64 570.25,-52 570.25,-52 570.25,-46 576.25,-40 582.25,-40 582.25,-40 683.75,-40 683.75,-40 689.75,-40 695.75,-46 695.75,-52 695.75,-52 695.75,-64 695.75,-64 695.75,-70 689.75,-76 683.75,-76"/>
<text text-anchor="middle" x="633" y="-52.75" font-family="Arial" font-size="15.00">firebase_options</text>
</g>
<!-- /lib/models/player_model.dart&#45;&gt;/lib/models/card_model.dart -->
<g id="edge10" class="edge">
<title>/lib/models/player_model.dart&#45;&gt;/lib/models/card_model.dart</title>
<path fill="none" stroke="#aabbaa" stroke-width="1.3" stroke-opacity="0.533333" d="M628.36,-111.9C690.16,-95.5 706.26,-93.3 768,-76 770.04,-75.43 772.12,-74.84 774.22,-74.23"/>
<polygon fill="#aabbaa" fill-opacity="0.533333" stroke="#aabbaa" stroke-width="1.3" stroke-opacity="0.533333" points="775.09,-77.62 783.72,-71.47 773.14,-70.9 775.09,-77.62"/>
</g>
<!-- /lib/models/player_model.dart&#45;&gt;/lib/models/card_model.dart -->
<g id="edge11" class="edge">
<title>/lib/models/player_model.dart&#45;&gt;/lib/models/card_model.dart</title>
<path fill="none" stroke="#aabbaa" stroke-width="1.3" stroke-dasharray="5,2" stroke-opacity="0.533333" d="M627.92,-116.84C634.05,-115.2 640.17,-113.55 646,-112 703.98,-96.6 721.81,-93.69 774.28,-79.26"/>
<polygon fill="#aabbaa" fill-opacity="0.533333" stroke="#aabbaa" stroke-width="1.3" stroke-opacity="0.533333" points="775.04,-82.68 783.74,-76.63 773.17,-75.93 775.04,-82.68"/>
</g>
<!-- /lib/models/misc.dart -->
<g id="node8" class="node">
<title>/lib/models/misc.dart</title>
<path fill="Lavender" stroke="black" stroke-width="1.3" d="M756,-76C756,-76 726,-76 726,-76 720,-76 714,-70 714,-64 714,-64 714,-52 714,-52 714,-46 720,-40 726,-40 726,-40 756,-40 756,-40 762,-40 768,-46 768,-52 768,-52 768,-64 768,-64 768,-70 762,-76 756,-76"/>
<text text-anchor="middle" x="741" y="-52.75" font-family="Arial" font-size="15.00">misc</text>
</g>
<!-- /lib/models/backend_model.dart&#45;&gt;/lib/models/firebase_options.dart -->
<g id="edge12" class="edge">
<title>/lib/models/backend_model.dart&#45;&gt;/lib/models/firebase_options.dart</title>
<path fill="none" stroke="#aabbaa" stroke-width="1.3" stroke-opacity="0.533333" d="M687.96,-111.7C679.44,-103.54 669.12,-93.63 659.72,-84.62"/>
<polygon fill="#aabbaa" fill-opacity="0.533333" stroke="#aabbaa" stroke-width="1.3" stroke-opacity="0.533333" points="662.15,-82.1 652.51,-77.71 657.31,-87.16 662.15,-82.1"/>
</g>
<!-- /lib/models/backend_model.dart&#45;&gt;/lib/models/misc.dart -->
<g id="edge13" class="edge">
<title>/lib/models/backend_model.dart&#45;&gt;/lib/models/misc.dart</title>
<path fill="none" stroke="#aabbaa" stroke-width="1.3" stroke-opacity="0.533333" d="M714.65,-111.7C718.42,-104.15 722.94,-95.12 727.16,-86.68"/>
<polygon fill="#aabbaa" fill-opacity="0.533333" stroke="#aabbaa" stroke-width="1.3" stroke-opacity="0.533333" points="730.23,-88.37 731.57,-77.86 723.97,-85.24 730.23,-88.37"/>
</g>
<!-- /lib/models/deck_model.dart&#45;&gt;/lib/models/card_model.dart -->
<g id="edge14" class="edge">
<title>/lib/models/deck_model.dart&#45;&gt;/lib/models/card_model.dart</title>
<path fill="none" stroke="#aabbaa" stroke-width="1.3" stroke-opacity="0.533333" d="M827.08,-111.7C826.34,-104.49 826.09,-95.93 826.34,-87.82"/>
<polygon fill="#aabbaa" fill-opacity="0.533333" stroke="#aabbaa" stroke-width="1.3" stroke-opacity="0.533333" points="829.82,-88.27 826.98,-78.07 822.84,-87.82 829.82,-88.27"/>
</g>
<!-- /lib/models/deck_model.dart&#45;&gt;/lib/models/card_model.dart -->
<g id="edge15" class="edge">
<title>/lib/models/deck_model.dart&#45;&gt;/lib/models/card_model.dart</title>
<path fill="none" stroke="#aabbaa" stroke-width="1.3" stroke-dasharray="5,2" stroke-opacity="0.533333" d="M838.92,-111.7C839.66,-104.49 839.91,-95.93 839.66,-87.82"/>
<polygon fill="#aabbaa" fill-opacity="0.533333" stroke="#aabbaa" stroke-width="1.3" stroke-opacity="0.533333" points="843.16,-87.82 839.02,-78.07 836.18,-88.27 843.16,-87.82"/>
</g>
<!-- /lib/screens/game_screen.dart -->
<g id="node12" class="node">
<title>/lib/screens/game_screen.dart</title>
<path fill="Lavender" stroke="black" stroke-width="1.3" d="M795.38,-603C795.38,-603 712.62,-603 712.62,-603 706.62,-603 700.62,-597 700.62,-591 700.62,-591 700.62,-579 700.62,-579 700.62,-573 706.62,-567 712.62,-567 712.62,-567 795.38,-567 795.38,-567 801.38,-567 807.38,-573 807.38,-579 807.38,-579 807.38,-591 807.38,-591 807.38,-597 801.38,-603 795.38,-603"/>
<text text-anchor="middle" x="754" y="-579.75" font-family="Arial" font-size="15.00">game_screen</text>
</g>
<!-- /lib/screens/game_screen.dart&#45;&gt;/lib/models/game_model.dart -->
<g id="edge17" class="edge">
<title>/lib/screens/game_screen.dart&#45;&gt;/lib/models/game_model.dart</title>
<path fill="none" stroke="#aabbaa" stroke-width="1.3" stroke-opacity="0.533333" d="M753.25,-566.54C752.42,-541.34 751.83,-493.39 757,-453 767.43,-371.56 793.37,-277.95 807.12,-231.8"/>
<polygon fill="#aabbaa" fill-opacity="0.533333" stroke="#aabbaa" stroke-width="1.3" stroke-opacity="0.533333" points="810.47,-232.82 810.01,-222.23 803.77,-230.8 810.47,-232.82"/>
</g>
<!-- /lib/screens/game_screen.dart&#45;&gt;/lib/models/game_over_dialog.dart -->
<g id="edge18" class="edge">
<title>/lib/screens/game_screen.dart&#45;&gt;/lib/models/game_over_dialog.dart</title>
<path fill="none" stroke="#aabbaa" stroke-width="1.3" stroke-opacity="0.533333" d="M750.5,-566.52C750,-563.99 749.49,-561.43 749,-559 724.74,-437.55 695.89,-292.77 683.79,-232.05"/>
<polygon fill="#aabbaa" fill-opacity="0.533333" stroke="#aabbaa" stroke-width="1.3" stroke-opacity="0.533333" points="687.24,-231.46 681.85,-222.34 680.38,-232.83 687.24,-231.46"/>
</g>
<!-- /lib/screens/game_screen.dart&#45;&gt;/lib/models/misc.dart -->
<g id="edge19" class="edge">
<title>/lib/screens/game_screen.dart&#45;&gt;/lib/models/misc.dart</title>
<path fill="none" stroke="#aabbaa" stroke-width="1.3" stroke-opacity="0.533333" d="M700.45,-580.22C661.83,-576.62 613.67,-570.07 597,-559 531.13,-515.28 503,-487.05 503,-408 503,-408 503,-408 503,-201 503,-161.2 485.91,-141.16 513,-112 569.61,-51.07 618.16,-98.4 702.48,-76.09"/>
<polygon fill="#aabbaa" fill-opacity="0.533333" stroke="#aabbaa" stroke-width="1.3" stroke-opacity="0.533333" points="703.3,-79.5 711.89,-73.3 701.31,-72.78 703.3,-79.5"/>
</g>
<!-- /lib/screens/game_screen.dart&#45;&gt;/lib/models/backend_model.dart -->
<g id="edge16" class="edge">
<title>/lib/screens/game_screen.dart&#45;&gt;/lib/models/backend_model.dart</title>
<path fill="none" stroke="#aabbaa" stroke-width="1.3" stroke-opacity="0.533333" d="M719.22,-566.55C671.08,-539.65 590,-483.18 590,-408 590,-408 590,-408 590,-292 590,-243.79 572.79,-223.79 600,-184 608.79,-171.14 621.65,-161.25 635.41,-153.7"/>
<polygon fill="#aabbaa" fill-opacity="0.533333" stroke="#aabbaa" stroke-width="1.3" stroke-opacity="0.533333" points="636.92,-156.86 644.29,-149.26 633.78,-150.6 636.92,-156.86"/>
</g>
<!-- /lib/screens/screen.dart -->
<g id="node14" class="node">
<title>/lib/screens/screen.dart</title>
<path fill="Lavender" stroke="black" stroke-width="1.3" d="M814.5,-497C814.5,-497 777.5,-497 777.5,-497 771.5,-497 765.5,-491 765.5,-485 765.5,-485 765.5,-473 765.5,-473 765.5,-467 771.5,-461 777.5,-461 777.5,-461 814.5,-461 814.5,-461 820.5,-461 826.5,-467 826.5,-473 826.5,-473 826.5,-485 826.5,-485 826.5,-491 820.5,-497 814.5,-497"/>
<text text-anchor="middle" x="796" y="-473.75" font-family="Arial" font-size="15.00">screen</text>
</g>
<!-- /lib/screens/game_screen.dart&#45;&gt;/lib/screens/screen.dart -->
<g id="edge20" class="edge">
<title>/lib/screens/game_screen.dart&#45;&gt;/lib/screens/screen.dart</title>
<path fill="none" stroke="#aabbaa" stroke-width="1.3" stroke-opacity="0.533333" d="M760.94,-566.83C767.38,-550.87 777.09,-526.81 784.67,-508.07"/>
<polygon fill="#aabbaa" fill-opacity="0.533333" stroke="#aabbaa" stroke-width="1.3" stroke-opacity="0.533333" points="787.82,-509.61 788.32,-499.02 781.33,-506.99 787.82,-509.61"/>
</g>
<!-- /lib/widgets/player/player_zone_widget.dart -->
<g id="node27" class="node">
<title>/lib/widgets/player/player_zone_widget.dart</title>
<path fill="Lavender" stroke="black" stroke-width="1.3" d="M1403,-497C1403,-497 1279,-497 1279,-497 1273,-497 1267,-491 1267,-485 1267,-485 1267,-473 1267,-473 1267,-467 1273,-461 1279,-461 1279,-461 1403,-461 1403,-461 1409,-461 1415,-467 1415,-473 1415,-473 1415,-485 1415,-485 1415,-491 1409,-497 1403,-497"/>
<text text-anchor="middle" x="1341" y="-473.75" font-family="Arial" font-size="15.00">player_zone_widget</text>
</g>
<!-- /lib/screens/game_screen.dart&#45;&gt;/lib/widgets/player/player_zone_widget.dart -->
<g id="edge21" class="edge">
<title>/lib/screens/game_screen.dart&#45;&gt;/lib/widgets/player/player_zone_widget.dart</title>
<path fill="none" stroke="#aabbaa" stroke-width="1.3" stroke-opacity="0.533333" d="M807.85,-583.56C930.33,-582.23 1222.31,-577.19 1263,-559 1287.79,-547.92 1308.92,-525.1 1322.91,-506.82"/>
<polygon fill="#aabbaa" fill-opacity="0.533333" stroke="#aabbaa" stroke-width="1.3" stroke-opacity="0.533333" points="1325.68,-508.97 1328.77,-498.83 1320.03,-504.83 1325.68,-508.97"/>
</g>
<!-- /lib/screens/start_screen.dart -->
<g id="node13" class="node">
<title>/lib/screens/start_screen.dart</title>
<path fill="Lavender" stroke="black" stroke-width="1.3" d="M814.62,-675C814.62,-675 739.38,-675 739.38,-675 733.38,-675 727.38,-669 727.38,-663 727.38,-663 727.38,-651 727.38,-651 727.38,-645 733.38,-639 739.38,-639 739.38,-639 814.62,-639 814.62,-639 820.62,-639 826.62,-645 826.62,-651 826.62,-651 826.62,-663 826.62,-663 826.62,-669 820.62,-675 814.62,-675"/>
<text text-anchor="middle" x="777" y="-651.75" font-family="Arial" font-size="15.00">start_screen</text>
</g>
<!-- /lib/screens/start_screen.dart&#45;&gt;/lib/models/game_model.dart -->
<g id="edge23" class="edge">
<title>/lib/screens/start_screen.dart&#45;&gt;/lib/models/game_model.dart</title>
<path fill="none" stroke="#aabbaa" stroke-width="1.3" stroke-opacity="0.533333" d="M795.29,-638.83C804.72,-629.1 815.74,-616.25 823,-603 849.71,-554.22 846,-535.61 846,-480 846,-480 846,-480 846,-406 846,-343.31 831.83,-270.9 822.96,-231.74"/>
<polygon fill="#aabbaa" fill-opacity="0.533333" stroke="#aabbaa" stroke-width="1.3" stroke-opacity="0.533333" points="826.41,-231.12 820.74,-222.17 819.59,-232.7 826.41,-231.12"/>
</g>
<!-- /lib/screens/start_screen.dart&#45;&gt;/lib/models/backend_model.dart -->
<g id="edge22" class="edge">
<title>/lib/screens/start_screen.dart&#45;&gt;/lib/models/backend_model.dart</title>
<path fill="none" stroke="#aabbaa" stroke-width="1.3" stroke-opacity="0.533333" d="M800.93,-638.7C812.72,-629.22 826.42,-616.63 836,-603 869.93,-554.72 886,-539.01 886,-480 886,-480 886,-480 886,-292 886,-243.79 906.33,-221.47 876,-184 869.37,-175.81 821.6,-161.31 778.38,-149.55"/>
<polygon fill="#aabbaa" fill-opacity="0.533333" stroke="#aabbaa" stroke-width="1.3" stroke-opacity="0.533333" points="779.4,-146.2 768.83,-146.98 777.58,-152.96 779.4,-146.2"/>
</g>
<!-- /lib/screens/start_screen.dart&#45;&gt;/lib/screens/game_screen.dart -->
<g id="edge24" class="edge">
<title>/lib/screens/start_screen.dart&#45;&gt;/lib/screens/game_screen.dart</title>
<path fill="none" stroke="#aabbaa" stroke-width="1.3" stroke-opacity="0.533333" d="M771.31,-638.7C768.89,-631.32 766,-622.52 763.28,-614.25"/>
<polygon fill="#aabbaa" fill-opacity="0.533333" stroke="#aabbaa" stroke-width="1.3" stroke-opacity="0.533333" points="766.68,-613.38 760.23,-604.97 760.03,-615.57 766.68,-613.38"/>
</g>
<!-- /lib/screens/start_screen.dart&#45;&gt;/lib/screens/screen.dart -->
<g id="edge25" class="edge">
<title>/lib/screens/start_screen.dart&#45;&gt;/lib/screens/screen.dart</title>
<path fill="none" stroke="#aabbaa" stroke-width="1.3" stroke-opacity="0.533333" d="M794.3,-638.52C802.59,-628.9 811.65,-616.24 816,-603 826.37,-571.41 817.08,-533.43 808,-508.11"/>
<polygon fill="#aabbaa" fill-opacity="0.533333" stroke="#aabbaa" stroke-width="1.3" stroke-opacity="0.533333" points="811.34,-507.03 804.49,-498.94 804.8,-509.53 811.34,-507.03"/>
</g>
<!-- /lib/widgets/players_in_room_widget.dart -->
<g id="node22" class="node">
<title>/lib/widgets/players_in_room_widget.dart</title>
<path fill="Lavender" stroke="black" stroke-width="1.3" d="M1796.62,-497C1796.62,-497 1643.38,-497 1643.38,-497 1637.38,-497 1631.38,-491 1631.38,-485 1631.38,-485 1631.38,-473 1631.38,-473 1631.38,-467 1637.38,-461 1643.38,-461 1643.38,-461 1796.62,-461 1796.62,-461 1802.62,-461 1808.62,-467 1808.62,-473 1808.62,-473 1808.62,-485 1808.62,-485 1808.62,-491 1802.62,-497 1796.62,-497"/>
<text text-anchor="middle" x="1720" y="-473.75" font-family="Arial" font-size="15.00">players_in_room_widget</text>
</g>
<!-- /lib/screens/start_screen.dart&#45;&gt;/lib/widgets/players_in_room_widget.dart -->
<g id="edge26" class="edge">
<title>/lib/screens/start_screen.dart&#45;&gt;/lib/widgets/players_in_room_widget.dart</title>
<path fill="none" stroke="#aabbaa" stroke-width="1.3" stroke-opacity="0.533333" d="M827.08,-652C998.23,-638.08 1553.37,-590.91 1627,-559 1654.73,-546.98 1680.43,-523.83 1697.76,-505.68"/>
<polygon fill="#aabbaa" fill-opacity="0.533333" stroke="#aabbaa" stroke-width="1.3" stroke-opacity="0.533333" points="1700.01,-508.4 1704.23,-498.69 1694.87,-503.65 1700.01,-508.4"/>
</g>
<!-- /lib/widgets/rooms_widget.dart -->
<g id="node24" class="node">
<title>/lib/widgets/rooms_widget.dart</title>
<path fill="Lavender" stroke="black" stroke-width="1.3" d="M1923.5,-497C1923.5,-497 1838.5,-497 1838.5,-497 1832.5,-497 1826.5,-491 1826.5,-485 1826.5,-485 1826.5,-473 1826.5,-473 1826.5,-467 1832.5,-461 1838.5,-461 1838.5,-461 1923.5,-461 1923.5,-461 1929.5,-461 1935.5,-467 1935.5,-473 1935.5,-473 1935.5,-485 1935.5,-485 1935.5,-491 1929.5,-497 1923.5,-497"/>
<text text-anchor="middle" x="1881" y="-473.75" font-family="Arial" font-size="15.00">rooms_widget</text>
</g>
<!-- /lib/screens/start_screen.dart&#45;&gt;/lib/widgets/rooms_widget.dart -->
<g id="edge27" class="edge">
<title>/lib/screens/start_screen.dart&#45;&gt;/lib/widgets/rooms_widget.dart</title>
<path fill="none" stroke="#aabbaa" stroke-width="1.3" stroke-opacity="0.533333" d="M826.98,-656.65C1010.51,-658.22 1645.51,-656.37 1818,-559 1839.07,-547.11 1855.72,-525.1 1866.6,-507.32"/>
<polygon fill="#aabbaa" fill-opacity="0.533333" stroke="#aabbaa" stroke-width="1.3" stroke-opacity="0.533333" points="1869.35,-509.56 1871.34,-499.16 1863.3,-506.05 1869.35,-509.56"/>
</g>
<!-- /lib/main.dart -->
<g id="node15" class="node">
<title>/lib/main.dart</title>
<path fill="Lavender" stroke="black" stroke-width="1.3" d="M792,-750C792,-750 762,-750 762,-750 756,-750 750,-744 750,-738 750,-738 750,-726 750,-726 750,-720 756,-714 762,-714 762,-714 792,-714 792,-714 798,-714 804,-720 804,-726 804,-726 804,-738 804,-738 804,-744 798,-750 792,-750"/>
<text text-anchor="middle" x="777" y="-726.75" font-family="Arial" font-size="15.00">main</text>
</g>
<!-- /lib/main.dart&#45;&gt;/lib/screens/start_screen.dart -->
<g id="edge28" class="edge">
<title>/lib/main.dart&#45;&gt;/lib/screens/start_screen.dart</title>
<path fill="none" stroke="#aabbaa" stroke-width="1.3" stroke-opacity="0.533333" d="M777,-713.7C777,-705.76 777,-696.12 777,-687.11"/>
<polygon fill="#aabbaa" fill-opacity="0.533333" stroke="#aabbaa" stroke-width="1.3" stroke-opacity="0.533333" points="780.5,-687.4 777,-677.4 773.5,-687.4 780.5,-687.4"/>
</g>
<!-- /lib/widgets/table_surface_painter.dart -->
<g id="node16" class="node">
<title>/lib/widgets/table_surface_painter.dart</title>
<path fill="Lavender" stroke="black" stroke-width="1.3" d="M1231,-497C1231,-497 1095,-497 1095,-497 1089,-497 1083,-491 1083,-485 1083,-485 1083,-473 1083,-473 1083,-467 1089,-461 1095,-461 1095,-461 1231,-461 1231,-461 1237,-461 1243,-467 1243,-473 1243,-473 1243,-485 1243,-485 1243,-491 1237,-497 1231,-497"/>
<text text-anchor="middle" x="1163" y="-473.75" font-family="Arial" font-size="15.00">table_surface_painter</text>
</g>
<!-- /lib/widgets/cards/card_pile_widget.dart -->
<g id="node17" class="node">
<title>/lib/widgets/cards/card_pile_widget.dart</title>
<path fill="Lavender" stroke="black" stroke-width="1.3" d="M1252.5,-220C1252.5,-220 1149.5,-220 1149.5,-220 1143.5,-220 1137.5,-214 1137.5,-208 1137.5,-208 1137.5,-196 1137.5,-196 1137.5,-190 1143.5,-184 1149.5,-184 1149.5,-184 1252.5,-184 1252.5,-184 1258.5,-184 1264.5,-190 1264.5,-196 1264.5,-196 1264.5,-208 1264.5,-208 1264.5,-214 1258.5,-220 1252.5,-220"/>
<text text-anchor="middle" x="1201" y="-196.75" font-family="Arial" font-size="15.00">card_pile_widget</text>
</g>
<!-- /lib/widgets/cards/card_pile_widget.dart&#45;&gt;/lib/models/card_model.dart -->
<g id="edge29" class="edge">
<title>/lib/widgets/cards/card_pile_widget.dart&#45;&gt;/lib/models/card_model.dart</title>
<path fill="none" stroke="#aabbaa" stroke-width="1.3" stroke-opacity="0.533333" d="M1181.22,-183.5C1157.27,-163.25 1114.91,-130.34 1073,-112 1014.31,-86.32 941.93,-72.53 892.09,-65.52"/>
<polygon fill="#aabbaa" fill-opacity="0.533333" stroke="#aabbaa" stroke-width="1.3" stroke-opacity="0.533333" points="892.57,-62.05 882.19,-64.19 891.63,-68.99 892.57,-62.05"/>
</g>
<!-- /lib/widgets/cards/card_widget.dart -->
<g id="node18" class="node">
<title>/lib/widgets/cards/card_widget.dart</title>
<path fill="Lavender" stroke="black" stroke-width="1.3" d="M1246.12,-148C1246.12,-148 1173.88,-148 1173.88,-148 1167.88,-148 1161.88,-142 1161.88,-136 1161.88,-136 1161.88,-124 1161.88,-124 1161.88,-118 1167.88,-112 1173.88,-112 1173.88,-112 1246.12,-112 1246.12,-112 1252.12,-112 1258.12,-118 1258.12,-124 1258.12,-124 1258.12,-136 1258.12,-136 1258.12,-142 1252.12,-148 1246.12,-148"/>
<text text-anchor="middle" x="1210" y="-124.75" font-family="Arial" font-size="15.00">card_widget</text>
</g>
<!-- /lib/widgets/cards/card_pile_widget.dart&#45;&gt;/lib/widgets/cards/card_widget.dart -->
<g id="edge30" class="edge">
<title>/lib/widgets/cards/card_pile_widget.dart&#45;&gt;/lib/widgets/cards/card_widget.dart</title>
<path fill="none" stroke="#aabbaa" stroke-width="1.3" stroke-opacity="0.533333" d="M1203.22,-183.7C1204.15,-176.49 1205.25,-167.93 1206.29,-159.82"/>
<polygon fill="#aabbaa" fill-opacity="0.533333" stroke="#aabbaa" stroke-width="1.3" stroke-opacity="0.533333" points="1209.75,-160.42 1207.55,-150.06 1202.8,-159.53 1209.75,-160.42"/>
</g>
<!-- /lib/widgets/cards/card_widget.dart&#45;&gt;/lib/models/card_model.dart -->
<g id="edge31" class="edge">
<title>/lib/widgets/cards/card_widget.dart&#45;&gt;/lib/models/card_model.dart</title>
<path fill="none" stroke="#aabbaa" stroke-width="1.3" stroke-opacity="0.533333" d="M1161.49,-119.99C1092.49,-107.18 966.17,-83.73 891.89,-69.94"/>
<polygon fill="#aabbaa" fill-opacity="0.533333" stroke="#aabbaa" stroke-width="1.3" stroke-opacity="0.533333" points="892.84,-66.55 882.37,-68.17 891.57,-73.43 892.84,-66.55"/>
</g>
<!-- /lib/widgets/cards/card_face_widget.dart -->
<g id="node19" class="node">
<title>/lib/widgets/cards/card_face_widget.dart</title>
<path fill="Lavender" stroke="black" stroke-width="1.3" d="M1253.5,-76C1253.5,-76 1144.5,-76 1144.5,-76 1138.5,-76 1132.5,-70 1132.5,-64 1132.5,-64 1132.5,-52 1132.5,-52 1132.5,-46 1138.5,-40 1144.5,-40 1144.5,-40 1253.5,-40 1253.5,-40 1259.5,-40 1265.5,-46 1265.5,-52 1265.5,-52 1265.5,-64 1265.5,-64 1265.5,-70 1259.5,-76 1253.5,-76"/>
<text text-anchor="middle" x="1199" y="-52.75" font-family="Arial" font-size="15.00">card_face_widget</text>
</g>
<!-- /lib/widgets/cards/card_widget.dart&#45;&gt;/lib/widgets/cards/card_face_widget.dart -->
<g id="edge32" class="edge">
<title>/lib/widgets/cards/card_widget.dart&#45;&gt;/lib/widgets/cards/card_face_widget.dart</title>
<path fill="none" stroke="#aabbaa" stroke-width="1.3" stroke-opacity="0.533333" d="M1207.28,-111.7C1206.15,-104.49 1204.8,-95.93 1203.53,-87.82"/>
<polygon fill="#aabbaa" fill-opacity="0.533333" stroke="#aabbaa" stroke-width="1.3" stroke-opacity="0.533333" points="1207,-87.38 1201.99,-78.05 1200.09,-88.47 1207,-87.38"/>
</g>
<!-- /lib/widgets/wiggle_widget.dart -->
<g id="node21" class="node">
<title>/lib/widgets/wiggle_widget.dart</title>
<path fill="Lavender" stroke="black" stroke-width="1.3" d="M1380.12,-76C1380.12,-76 1295.88,-76 1295.88,-76 1289.88,-76 1283.88,-70 1283.88,-64 1283.88,-64 1283.88,-52 1283.88,-52 1283.88,-46 1289.88,-40 1295.88,-40 1295.88,-40 1380.12,-40 1380.12,-40 1386.12,-40 1392.12,-46 1392.12,-52 1392.12,-52 1392.12,-64 1392.12,-64 1392.12,-70 1386.12,-76 1380.12,-76"/>
<text text-anchor="middle" x="1338" y="-52.75" font-family="Arial" font-size="15.00">wiggle_widget</text>
</g>
<!-- /lib/widgets/cards/card_widget.dart&#45;&gt;/lib/widgets/wiggle_widget.dart -->
<g id="edge33" class="edge">
<title>/lib/widgets/cards/card_widget.dart&#45;&gt;/lib/widgets/wiggle_widget.dart</title>
<path fill="none" stroke="#aabbaa" stroke-width="1.3" stroke-opacity="0.533333" d="M1241.97,-111.52C1258.43,-102.51 1278.71,-91.42 1296.38,-81.76"/>
<polygon fill="#aabbaa" fill-opacity="0.533333" stroke="#aabbaa" stroke-width="1.3" stroke-opacity="0.533333" points="1297.62,-85.07 1304.71,-77.2 1294.26,-78.93 1297.62,-85.07"/>
</g>
<!-- /lib/widgets/cards/card_face_widget.dart&#45;&gt;/lib/models/card_model.dart -->
<g id="edge34" class="edge">
<title>/lib/widgets/cards/card_face_widget.dart&#45;&gt;/lib/models/card_model.dart</title>
<path fill="none" stroke="#aabbaa" stroke-width="1.3" stroke-opacity="0.533333" d="M1132.06,-58C1052.04,-58 972.01,-58 891.99,-58"/>
<polygon fill="#aabbaa" fill-opacity="0.533333" stroke="#aabbaa" stroke-width="1.3" stroke-opacity="0.533333" points="892.15,-54.5 882.15,-58 892.15,-61.5 892.15,-54.5"/>
</g>
<!-- /lib/widgets/cards/card_piles_widget.dart -->
<g id="node20" class="node">
<title>/lib/widgets/cards/card_piles_widget.dart</title>
<path fill="Lavender" stroke="black" stroke-width="1.3" d="M1254.25,-311C1254.25,-311 1143.75,-311 1143.75,-311 1137.75,-311 1131.75,-305 1131.75,-299 1131.75,-299 1131.75,-287 1131.75,-287 1131.75,-281 1137.75,-275 1143.75,-275 1143.75,-275 1254.25,-275 1254.25,-275 1260.25,-275 1266.25,-281 1266.25,-287 1266.25,-287 1266.25,-299 1266.25,-299 1266.25,-305 1260.25,-311 1254.25,-311"/>
<text text-anchor="middle" x="1199" y="-287.75" font-family="Arial" font-size="15.00">card_piles_widget</text>
</g>
<!-- /lib/widgets/cards/card_piles_widget.dart&#45;&gt;/lib/models/card_model.dart -->
<g id="edge35" class="edge">
<title>/lib/widgets/cards/card_piles_widget.dart&#45;&gt;/lib/models/card_model.dart</title>
<path fill="none" stroke="#aabbaa" stroke-width="1.3" stroke-opacity="0.533333" d="M1161.71,-274.69C1150.37,-268.29 1138.43,-260.3 1129,-251 1103.31,-225.66 1074.03,-133.44 1045,-112 1000.46,-79.1 937.79,-66.49 892.15,-61.73"/>
<polygon fill="#aabbaa" fill-opacity="0.533333" stroke="#aabbaa" stroke-width="1.3" stroke-opacity="0.533333" points="892.59,-58.25 882.3,-60.81 891.94,-65.22 892.59,-58.25"/>
</g>
<!-- /lib/widgets/cards/card_piles_widget.dart&#45;&gt;/lib/widgets/cards/card_pile_widget.dart -->
<g id="edge36" class="edge">
<title>/lib/widgets/cards/card_piles_widget.dart&#45;&gt;/lib/widgets/cards/card_pile_widget.dart</title>
<path fill="none" stroke="#aabbaa" stroke-width="1.3" stroke-opacity="0.533333" d="M1199.39,-274.84C1199.66,-262.73 1200.03,-246.21 1200.35,-232.06"/>
<polygon fill="#aabbaa" fill-opacity="0.533333" stroke="#aabbaa" stroke-width="1.3" stroke-opacity="0.533333" points="1203.84,-232.45 1200.56,-222.38 1196.84,-232.3 1203.84,-232.45"/>
</g>
<!-- /lib/widgets/text_edit_with_submit.dart -->
<g id="node23" class="node">
<title>/lib/widgets/text_edit_with_submit.dart</title>
<path fill="Lavender" stroke="black" stroke-width="1.3" d="M1053,-497C1053,-497 917,-497 917,-497 911,-497 905,-491 905,-485 905,-485 905,-473 905,-473 905,-467 911,-461 917,-461 917,-461 1053,-461 1053,-461 1059,-461 1065,-467 1065,-473 1065,-473 1065,-485 1065,-485 1065,-491 1059,-497 1053,-497"/>
<text text-anchor="middle" x="985" y="-473.75" font-family="Arial" font-size="15.00">text_edit_with_submit</text>
</g>
<!-- /lib/widgets/text_edit_with_submit.dart&#45;&gt;/lib/models/misc.dart -->
<g id="edge37" class="edge">
<title>/lib/widgets/text_edit_with_submit.dart&#45;&gt;/lib/models/misc.dart</title>
<path fill="none" stroke="#aabbaa" stroke-width="1.3" stroke-opacity="0.533333" d="M971.95,-460.79C949.52,-429.41 906,-360.05 906,-294 906,-294 906,-294 906,-201 906,-160.81 916.5,-142.21 890,-112 857.55,-75.01 829.95,-92.53 779.48,-76.37"/>
<polygon fill="#aabbaa" fill-opacity="0.533333" stroke="#aabbaa" stroke-width="1.3" stroke-opacity="0.533333" points="780.8,-73.12 770.2,-73.04 778.44,-79.71 780.8,-73.12"/>
</g>
<!-- /lib/widgets/player/player_zone_cta_widget.dart -->
<g id="node25" class="node">
<title>/lib/widgets/player/player_zone_cta_widget.dart</title>
<path fill="Lavender" stroke="black" stroke-width="1.3" d="M1423.25,-425C1423.25,-425 1270.75,-425 1270.75,-425 1264.75,-425 1258.75,-419 1258.75,-413 1258.75,-413 1258.75,-401 1258.75,-401 1258.75,-395 1264.75,-389 1270.75,-389 1270.75,-389 1423.25,-389 1423.25,-389 1429.25,-389 1435.25,-395 1435.25,-401 1435.25,-401 1435.25,-413 1435.25,-413 1435.25,-419 1429.25,-425 1423.25,-425"/>
<text text-anchor="middle" x="1347" y="-401.75" font-family="Arial" font-size="15.00">player_zone_cta_widget</text>
</g>
<!-- /lib/widgets/player/player_zone_cta_widget.dart&#45;&gt;/lib/models/game_model.dart -->
<g id="edge38" class="edge">
<title>/lib/widgets/player/player_zone_cta_widget.dart&#45;&gt;/lib/models/game_model.dart</title>
<path fill="none" stroke="#aabbaa" stroke-width="1.3" stroke-opacity="0.533333" d="M1258.48,-400.68C1215.77,-396.22 1164.31,-388.04 1120,-373 1014.56,-337.22 903.53,-264.96 849.49,-227.21"/>
<polygon fill="#aabbaa" fill-opacity="0.533333" stroke="#aabbaa" stroke-width="1.3" stroke-opacity="0.533333" points="851.57,-224.4 841.38,-221.5 847.54,-230.12 851.57,-224.4"/>
</g>
<!-- /lib/widgets/player/player_zone_cta_widget.dart&#45;&gt;/lib/widgets/cards/card_pile_widget.dart -->
<g id="edge39" class="edge">
<title>/lib/widgets/player/player_zone_cta_widget.dart&#45;&gt;/lib/widgets/cards/card_pile_widget.dart</title>
<path fill="none" stroke="#aabbaa" stroke-width="1.3" stroke-opacity="0.533333" d="M1329.78,-388.77C1325.55,-383.93 1321.3,-378.49 1318,-373 1290.12,-326.58 1307.42,-302.37 1275,-259 1265.79,-246.68 1253.16,-235.76 1240.94,-226.91"/>
<polygon fill="#aabbaa" fill-opacity="0.533333" stroke="#aabbaa" stroke-width="1.3" stroke-opacity="0.533333" points="1243.14,-224.17 1232.92,-221.38 1239.17,-229.94 1243.14,-224.17"/>
</g>
<!-- /lib/widgets/player/player_zone_cta_widget.dart&#45;&gt;/lib/widgets/cards/card_widget.dart -->
<g id="edge41" class="edge">
<title>/lib/widgets/player/player_zone_cta_widget.dart&#45;&gt;/lib/widgets/cards/card_widget.dart</title>
<path fill="none" stroke="#aabbaa" stroke-width="1.3" stroke-opacity="0.533333" d="M1344.84,-388.57C1339.22,-348.92 1321.15,-250.29 1274,-184 1266.46,-173.4 1256.29,-163.69 1246.28,-155.56"/>
<polygon fill="#aabbaa" fill-opacity="0.533333" stroke="#aabbaa" stroke-width="1.3" stroke-opacity="0.533333" points="1248.44,-152.8 1238.38,-149.47 1244.16,-158.35 1248.44,-152.8"/>
</g>
<!-- /lib/widgets/player/player_zone_cta_widget.dart&#45;&gt;/lib/widgets/cards/card_piles_widget.dart -->
<g id="edge40" class="edge">
<title>/lib/widgets/player/player_zone_cta_widget.dart&#45;&gt;/lib/widgets/cards/card_piles_widget.dart</title>
<path fill="none" stroke="#aabbaa" stroke-width="1.3" stroke-opacity="0.533333" d="M1315.88,-388.54C1307.93,-383.75 1299.51,-378.39 1292,-373 1268.84,-356.39 1244.34,-335.41 1226.3,-319.25"/>
<polygon fill="#aabbaa" fill-opacity="0.533333" stroke="#aabbaa" stroke-width="1.3" stroke-opacity="0.533333" points="1228.72,-316.72 1218.95,-312.61 1224.02,-321.91 1228.72,-316.72"/>
</g>
<!-- /lib/widgets/player/player_header_widget.dart -->
<g id="node26" class="node">
<title>/lib/widgets/player/player_header_widget.dart</title>
<path fill="Lavender" stroke="black" stroke-width="1.3" d="M1603.12,-425C1603.12,-425 1464.88,-425 1464.88,-425 1458.88,-425 1452.88,-419 1452.88,-413 1452.88,-413 1452.88,-401 1452.88,-401 1452.88,-395 1458.88,-389 1464.88,-389 1464.88,-389 1603.12,-389 1603.12,-389 1609.12,-389 1615.12,-395 1615.12,-401 1615.12,-401 1615.12,-413 1615.12,-413 1615.12,-419 1609.12,-425 1603.12,-425"/>
<text text-anchor="middle" x="1534" y="-401.75" font-family="Arial" font-size="15.00">player_header_widget</text>
</g>
<!-- /lib/widgets/player/player_zone_widget.dart&#45;&gt;/lib/models/game_model.dart -->
<g id="edge42" class="edge">
<title>/lib/widgets/player/player_zone_widget.dart&#45;&gt;/lib/models/game_model.dart</title>
<path fill="none" stroke="#aabbaa" stroke-width="1.3" stroke-opacity="0.533333" d="M1291.45,-460.58C1282.08,-457.73 1272.31,-455.04 1263,-453 1163.28,-431.1 1126.61,-470.07 1035,-425 942.45,-379.47 866.36,-278.75 833.49,-230.21"/>
<polygon fill="#aabbaa" fill-opacity="0.533333" stroke="#aabbaa" stroke-width="1.3" stroke-opacity="0.533333" points="836.51,-228.43 828.05,-222.04 830.68,-232.31 836.51,-228.43"/>
</g>
<!-- /lib/widgets/player/player_zone_widget.dart&#45;&gt;/lib/models/misc.dart -->
<g id="edge43" class="edge">
<title>/lib/widgets/player/player_zone_widget.dart&#45;&gt;/lib/models/misc.dart</title>
<path fill="none" stroke="#aabbaa" stroke-width="1.3" stroke-opacity="0.533333" d="M1294.63,-460.53C1210.2,-427.28 1040,-352.95 1040,-294 1040,-294 1040,-294 1040,-201 1040,-181.19 1048.42,-126.57 1035,-112 997.93,-71.74 849.96,-90.21 779.58,-75.74"/>
<polygon fill="#aabbaa" fill-opacity="0.533333" stroke="#aabbaa" stroke-width="1.3" stroke-opacity="0.533333" points="780.64,-72.4 770.09,-73.36 778.94,-79.19 780.64,-72.4"/>
</g>
<!-- /lib/widgets/player/player_zone_widget.dart&#45;&gt;/lib/widgets/cards/card_widget.dart -->
<g id="edge44" class="edge">
<title>/lib/widgets/player/player_zone_widget.dart&#45;&gt;/lib/widgets/cards/card_widget.dart</title>
<path fill="none" stroke="#aabbaa" stroke-width="1.3" stroke-opacity="0.533333" d="M1390.99,-460.56C1400.23,-457.74 1409.85,-455.08 1419,-453 1513.18,-431.65 1671.46,-465.1 1624,-381 1547.55,-245.52 1364.91,-175.2 1269.83,-146.68"/>
<polygon fill="#aabbaa" fill-opacity="0.533333" stroke="#aabbaa" stroke-width="1.3" stroke-opacity="0.533333" points="1270.88,-143.34 1260.3,-143.88 1268.91,-150.06 1270.88,-143.34"/>
</g>
<!-- /lib/widgets/player/player_zone_widget.dart&#45;&gt;/lib/widgets/player/player_zone_cta_widget.dart -->
<g id="edge46" class="edge">
<title>/lib/widgets/player/player_zone_widget.dart&#45;&gt;/lib/widgets/player/player_zone_cta_widget.dart</title>
<path fill="none" stroke="#aabbaa" stroke-width="1.3" stroke-opacity="0.533333" d="M1342.48,-460.7C1343.1,-453.49 1343.83,-444.93 1344.53,-436.82"/>
<polygon fill="#aabbaa" fill-opacity="0.533333" stroke="#aabbaa" stroke-width="1.3" stroke-opacity="0.533333" points="1348,-437.33 1345.37,-427.06 1341.02,-436.73 1348,-437.33"/>
</g>
<!-- /lib/widgets/player/player_zone_widget.dart&#45;&gt;/lib/widgets/player/player_header_widget.dart -->
<g id="edge45" class="edge">
<title>/lib/widgets/player/player_zone_widget.dart&#45;&gt;/lib/widgets/player/player_header_widget.dart</title>
<path fill="none" stroke="#aabbaa" stroke-width="1.3" stroke-opacity="0.533333" d="M1389.2,-460.52C1415.21,-451.08 1447.52,-439.37 1475.01,-429.39"/>
<polygon fill="#aabbaa" fill-opacity="0.533333" stroke="#aabbaa" stroke-width="1.3" stroke-opacity="0.533333" points="1476.02,-432.75 1484.23,-426.05 1473.63,-426.17 1476.02,-432.75"/>
</g>
</g>
</svg>
