<?xml version="1.0" encoding="UTF-8" standalone="no"?>
<!DOCTYPE svg PUBLIC "-//W3C//DTD SVG 1.1//EN"
 "http://www.w3.org/Graphics/SVG/1.1/DTD/svg11.dtd">
<!-- Generated by graphviz version 12.2.0 (20241103.1931)
 -->
<!-- Pages: 1 -->
<svg width="2124pt" height="756pt"
 viewBox="0.00 0.00 2124.00 756.00" xmlns="http://www.w3.org/2000/svg" xmlns:xlink="http://www.w3.org/1999/xlink">
<g id="graph0" class="graph" transform="scale(1 1) rotate(0) translate(4 752)">
<polygon fill="white" stroke="none" points="-4,4 -4,-752 2120,-752 2120,4 -4,4"/>
<g id="clust1" class="cluster">
<title>cluster~</title>
<path fill="none" stroke="lightgray" stroke-width="2.6" d="M20,-8C20,-8 2096,-8 2096,-8 2102,-8 2108,-14 2108,-20 2108,-20 2108,-728 2108,-728 2108,-734 2102,-740 2096,-740 2096,-740 20,-740 20,-740 14,-740 8,-734 8,-728 8,-728 8,-20 8,-20 8,-14 14,-8 20,-8"/>
<text text-anchor="middle" x="1058" y="-723.65" font-family="Arial Black" font-size="13.00">cards</text>
</g>
<g id="clust2" class="cluster">
<title>cluster~/test</title>
<path fill="none" stroke="lightgray" stroke-width="2.6" d="M28,-259C28,-259 621,-259 621,-259 627,-259 633,-265 633,-271 633,-271 633,-361 633,-361 633,-367 627,-373 621,-373 621,-373 28,-373 28,-373 22,-373 16,-367 16,-361 16,-361 16,-271 16,-271 16,-265 22,-259 28,-259"/>
<text text-anchor="middle" x="324.5" y="-356.65" font-family="Arial Black" font-size="13.00">test</text>
</g>
<g id="clust3" class="cluster">
<title>cluster~/test/models</title>
<path fill="none" stroke="lightgray" stroke-width="2.6" d="M36,-267C36,-267 613,-267 613,-267 619,-267 625,-273 625,-279 625,-279 625,-330 625,-330 625,-336 619,-342 613,-342 613,-342 36,-342 36,-342 30,-342 24,-336 24,-330 24,-330 24,-279 24,-279 24,-273 30,-267 36,-267"/>
<text text-anchor="middle" x="324.5" y="-325.65" font-family="Arial Black" font-size="13.00">models</text>
</g>
<g id="clust4" class="cluster">
<title>cluster~/lib</title>
<path fill="none" stroke="lightgray" stroke-width="2.6" d="M653,-16C653,-16 2088,-16 2088,-16 2094,-16 2100,-22 2100,-28 2100,-28 2100,-697 2100,-697 2100,-703 2094,-709 2088,-709 2088,-709 653,-709 653,-709 647,-709 641,-703 641,-697 641,-697 641,-28 641,-28 641,-22 647,-16 653,-16"/>
<text text-anchor="middle" x="1370.5" y="-692.65" font-family="Arial Black" font-size="13.00">lib</text>
</g>
<g id="clust5" class="cluster">
<title>cluster~/lib/models</title>
<path fill="none" stroke="lightgray" stroke-width="2.6" d="M661,-32C661,-32 1013,-32 1013,-32 1019,-32 1025,-38 1025,-44 1025,-44 1025,-239 1025,-239 1025,-245 1019,-251 1013,-251 1013,-251 661,-251 661,-251 655,-251 649,-245 649,-239 649,-239 649,-44 649,-44 649,-38 655,-32 661,-32"/>
<text text-anchor="middle" x="837" y="-234.65" font-family="Arial Black" font-size="13.00">models</text>
</g>
<g id="clust6" class="cluster">
<title>cluster~/lib/screens</title>
<path fill="none" stroke="lightgray" stroke-width="2.6" d="M893,-381C893,-381 1011,-381 1011,-381 1017,-381 1023,-387 1023,-393 1023,-393 1023,-622 1023,-622 1023,-628 1017,-634 1011,-634 1011,-634 893,-634 893,-634 887,-634 881,-628 881,-622 881,-622 881,-393 881,-393 881,-387 887,-381 893,-381"/>
<text text-anchor="middle" x="952" y="-617.65" font-family="Arial Black" font-size="13.00">screens</text>
</g>
<g id="clust7" class="cluster">
<title>cluster~/lib/widgets</title>
<path fill="none" stroke="lightgray" stroke-width="2.6" d="M1057,-24C1057,-24 2080,-24 2080,-24 2086,-24 2092,-30 2092,-36 2092,-36 2092,-475 2092,-475 2092,-481 2086,-487 2080,-487 2080,-487 1057,-487 1057,-487 1051,-487 1045,-481 1045,-475 1045,-475 1045,-36 1045,-36 1045,-30 1051,-24 1057,-24"/>
<text text-anchor="middle" x="1568.5" y="-470.65" font-family="Arial Black" font-size="13.00">widgets</text>
</g>
<g id="clust8" class="cluster">
<title>cluster~/lib/widgets/cards</title>
<path fill="none" stroke="lightgray" stroke-width="2.6" d="M1537,-32C1537,-32 1663,-32 1663,-32 1669,-32 1675,-38 1675,-44 1675,-44 1675,-239 1675,-239 1675,-245 1669,-251 1663,-251 1663,-251 1537,-251 1537,-251 1531,-251 1525,-245 1525,-239 1525,-239 1525,-44 1525,-44 1525,-38 1531,-32 1537,-32"/>
<text text-anchor="middle" x="1600" y="-234.65" font-family="Arial Black" font-size="13.00">cards</text>
</g>
<g id="clust9" class="cluster">
<title>cluster~/lib/widgets/player</title>
<path fill="none" stroke="lightgray" stroke-width="2.6" d="M1411,-267C1411,-267 1759,-267 1759,-267 1765,-267 1771,-273 1771,-279 1771,-279 1771,-444 1771,-444 1771,-450 1765,-456 1759,-456 1759,-456 1411,-456 1411,-456 1405,-456 1399,-450 1399,-444 1399,-444 1399,-279 1399,-279 1399,-273 1405,-267 1411,-267"/>
<text text-anchor="middle" x="1585" y="-439.65" font-family="Arial Black" font-size="13.00">player</text>
</g>
<!-- /test/models/game_model_test.dart -->
<g id="node1" class="node">
<title>/test/models/game_model_test.dart</title>
<path fill="Lavender" stroke="black" stroke-width="1.3" d="M457.62,-311C457.62,-311 346.38,-311 346.38,-311 340.38,-311 334.38,-305 334.38,-299 334.38,-299 334.38,-287 334.38,-287 334.38,-281 340.38,-275 346.38,-275 346.38,-275 457.62,-275 457.62,-275 463.62,-275 469.62,-281 469.62,-287 469.62,-287 469.62,-299 469.62,-299 469.62,-305 463.62,-311 457.62,-311"/>
<text text-anchor="middle" x="402" y="-287.75" font-family="Arial" font-size="15.00">game_model_test</text>
</g>
<!-- /lib/models/game_model.dart -->
<g id="node5" class="node">
<title>/lib/models/game_model.dart</title>
<path fill="Lavender" stroke="black" stroke-width="1.3" d="M915.12,-220C915.12,-220 836.88,-220 836.88,-220 830.88,-220 824.88,-214 824.88,-208 824.88,-208 824.88,-196 824.88,-196 824.88,-190 830.88,-184 836.88,-184 836.88,-184 915.12,-184 915.12,-184 921.12,-184 927.12,-190 927.12,-196 927.12,-196 927.12,-208 927.12,-208 927.12,-214 921.12,-220 915.12,-220"/>
<text text-anchor="middle" x="876" y="-196.75" font-family="Arial" font-size="15.00">game_model</text>
</g>
<!-- /test/models/game_model_test.dart&#45;&gt;/lib/models/game_model.dart -->
<g id="edge1" class="edge">
<title>/test/models/game_model_test.dart&#45;&gt;/lib/models/game_model.dart</title>
<path fill="none" stroke="#aabbaa" stroke-width="1.3" stroke-opacity="0.533333" d="M434.36,-274.66C447.52,-268.5 463.11,-262.28 478,-259 514.69,-250.92 780.7,-263.85 816,-251 829.24,-246.18 841.78,-237.16 851.93,-228.23"/>
<polygon fill="#aabbaa" fill-opacity="0.533333" stroke="#aabbaa" stroke-width="1.3" stroke-opacity="0.533333" points="854.19,-230.91 859.1,-221.52 849.4,-225.8 854.19,-230.91"/>
</g>
<!-- /test/models/deck_model_test.dart -->
<g id="node2" class="node">
<title>/test/models/deck_model_test.dart</title>
<path fill="Lavender" stroke="black" stroke-width="1.3" d="M604.62,-311C604.62,-311 499.38,-311 499.38,-311 493.38,-311 487.38,-305 487.38,-299 487.38,-299 487.38,-287 487.38,-287 487.38,-281 493.38,-275 499.38,-275 499.38,-275 604.62,-275 604.62,-275 610.62,-275 616.62,-281 616.62,-287 616.62,-287 616.62,-299 616.62,-299 616.62,-305 610.62,-311 604.62,-311"/>
<text text-anchor="middle" x="552" y="-287.75" font-family="Arial" font-size="15.00">deck_model_test</text>
</g>
<!-- /test/models/deck_model_test.dart&#45;&gt;/lib/models/game_model.dart -->
<g id="edge2" class="edge">
<title>/test/models/deck_model_test.dart&#45;&gt;/lib/models/game_model.dart</title>
<path fill="none" stroke="#aabbaa" stroke-width="1.3" stroke-opacity="0.533333" d="M617,-291.17C672.09,-288.34 752.1,-279.11 816,-251 828.4,-245.55 840.4,-236.87 850.37,-228.38"/>
<polygon fill="#aabbaa" fill-opacity="0.533333" stroke="#aabbaa" stroke-width="1.3" stroke-opacity="0.533333" points="852.68,-231.01 857.79,-221.72 848.01,-225.8 852.68,-231.01"/>
</g>
<!-- /test/models/player_model_test.dart -->
<g id="node3" class="node">
<title>/test/models/player_model_test.dart</title>
<path fill="Lavender" stroke="black" stroke-width="1.3" d="M304.12,-311C304.12,-311 189.88,-311 189.88,-311 183.88,-311 177.88,-305 177.88,-299 177.88,-299 177.88,-287 177.88,-287 177.88,-281 183.88,-275 189.88,-275 189.88,-275 304.12,-275 304.12,-275 310.12,-275 316.12,-281 316.12,-287 316.12,-287 316.12,-299 316.12,-299 316.12,-305 310.12,-311 304.12,-311"/>
<text text-anchor="middle" x="247" y="-287.75" font-family="Arial" font-size="15.00">player_model_test</text>
</g>
<!-- /lib/models/player_model.dart -->
<g id="node8" class="node">
<title>/lib/models/player_model.dart</title>
<path fill="Lavender" stroke="black" stroke-width="1.3" d="M750.62,-148C750.62,-148 669.38,-148 669.38,-148 663.38,-148 657.38,-142 657.38,-136 657.38,-136 657.38,-124 657.38,-124 657.38,-118 663.38,-112 669.38,-112 669.38,-112 750.62,-112 750.62,-112 756.62,-112 762.62,-118 762.62,-124 762.62,-124 762.62,-136 762.62,-136 762.62,-142 756.62,-148 750.62,-148"/>
<text text-anchor="middle" x="710" y="-124.75" font-family="Arial" font-size="15.00">player_model</text>
</g>
<!-- /test/models/player_model_test.dart&#45;&gt;/lib/models/player_model.dart -->
<g id="edge3" class="edge">
<title>/test/models/player_model_test.dart&#45;&gt;/lib/models/player_model.dart</title>
<path fill="none" stroke="#aabbaa" stroke-width="1.3" stroke-opacity="0.533333" d="M286.44,-274.6C298.71,-269.38 312.34,-263.77 325,-259 436.43,-216.98 568.6,-174.63 645.52,-150.72"/>
<polygon fill="#aabbaa" fill-opacity="0.533333" stroke="#aabbaa" stroke-width="1.3" stroke-opacity="0.533333" points="646.52,-154.07 655.03,-147.77 644.45,-147.39 646.52,-154.07"/>
</g>
<!-- /test/models/card_model_test.dart -->
<g id="node4" class="node">
<title>/test/models/card_model_test.dart</title>
<path fill="Lavender" stroke="black" stroke-width="1.3" d="M147.5,-311C147.5,-311 44.5,-311 44.5,-311 38.5,-311 32.5,-305 32.5,-299 32.5,-299 32.5,-287 32.5,-287 32.5,-281 38.5,-275 44.5,-275 44.5,-275 147.5,-275 147.5,-275 153.5,-275 159.5,-281 159.5,-287 159.5,-287 159.5,-299 159.5,-299 159.5,-305 153.5,-311 147.5,-311"/>
<text text-anchor="middle" x="96" y="-287.75" font-family="Arial" font-size="15.00">card_model_test</text>
</g>
<!-- /lib/models/card_model.dart -->
<g id="node10" class="node">
<title>/lib/models/card_model.dart</title>
<path fill="Lavender" stroke="black" stroke-width="1.3" d="M789,-76C789,-76 719,-76 719,-76 713,-76 707,-70 707,-64 707,-64 707,-52 707,-52 707,-46 713,-40 719,-40 719,-40 789,-40 789,-40 795,-40 801,-46 801,-52 801,-52 801,-64 801,-64 801,-70 795,-76 789,-76"/>
<text text-anchor="middle" x="754" y="-52.75" font-family="Arial" font-size="15.00">card_model</text>
</g>
<!-- /test/models/card_model_test.dart&#45;&gt;/lib/models/card_model.dart -->
<g id="edge4" class="edge">
<title>/test/models/card_model_test.dart&#45;&gt;/lib/models/card_model.dart</title>
<path fill="none" stroke="#aabbaa" stroke-width="1.3" stroke-opacity="0.533333" d="M133.77,-274.62C145.07,-269.5 157.5,-263.95 169,-259 249.73,-224.22 269.29,-213.74 352,-184 472.62,-140.63 616.63,-98.02 695.39,-75.48"/>
<polygon fill="#aabbaa" fill-opacity="0.533333" stroke="#aabbaa" stroke-width="1.3" stroke-opacity="0.533333" points="695.97,-78.95 704.63,-72.84 694.05,-72.22 695.97,-78.95"/>
</g>
<!-- /lib/models/game_model.dart&#45;&gt;/lib/models/player_model.dart -->
<g id="edge7" class="edge">
<title>/lib/models/game_model.dart&#45;&gt;/lib/models/player_model.dart</title>
<path fill="none" stroke="#aabbaa" stroke-width="1.3" stroke-opacity="0.533333" d="M828.61,-183.52C805.8,-174.29 778.61,-162.89 755.99,-153.06"/>
<polygon fill="#aabbaa" fill-opacity="0.533333" stroke="#aabbaa" stroke-width="1.3" stroke-opacity="0.533333" points="757.66,-149.97 747.1,-149.17 754.86,-156.38 757.66,-149.97"/>
</g>
<!-- /lib/models/game_model.dart&#45;&gt;/lib/models/player_model.dart -->
<g id="edge9" class="edge">
<title>/lib/models/game_model.dart&#45;&gt;/lib/models/player_model.dart</title>
<path fill="none" stroke="#aabbaa" stroke-width="1.3" stroke-dasharray="5,2" stroke-opacity="0.533333" d="M840.47,-183.52C819.35,-174.21 792.13,-162.68 767.99,-152.79"/>
<polygon fill="#aabbaa" fill-opacity="0.533333" stroke="#aabbaa" stroke-width="1.3" stroke-opacity="0.533333" points="769.55,-149.65 758.97,-149.12 766.91,-156.13 769.55,-149.65"/>
</g>
<!-- /lib/models/backend_model.dart -->
<g id="node11" class="node">
<title>/lib/models/backend_model.dart</title>
<path fill="Lavender" stroke="black" stroke-width="1.3" d="M1004.5,-148C1004.5,-148 907.5,-148 907.5,-148 901.5,-148 895.5,-142 895.5,-136 895.5,-136 895.5,-124 895.5,-124 895.5,-118 901.5,-112 907.5,-112 907.5,-112 1004.5,-112 1004.5,-112 1010.5,-112 1016.5,-118 1016.5,-124 1016.5,-124 1016.5,-136 1016.5,-136 1016.5,-142 1010.5,-148 1004.5,-148"/>
<text text-anchor="middle" x="956" y="-124.75" font-family="Arial" font-size="15.00">backend_model</text>
</g>
<!-- /lib/models/game_model.dart&#45;&gt;/lib/models/backend_model.dart -->
<g id="edge5" class="edge">
<title>/lib/models/game_model.dart&#45;&gt;/lib/models/backend_model.dart</title>
<path fill="none" stroke="#aabbaa" stroke-width="1.3" stroke-opacity="0.533333" d="M895.78,-183.7C905.29,-175.37 916.89,-165.22 927.35,-156.07"/>
<polygon fill="#aabbaa" fill-opacity="0.533333" stroke="#aabbaa" stroke-width="1.3" stroke-opacity="0.533333" points="929.47,-158.86 934.69,-149.64 924.86,-153.59 929.47,-158.86"/>
</g>
<!-- /lib/models/deck_model.dart -->
<g id="node12" class="node">
<title>/lib/models/deck_model.dart</title>
<path fill="Lavender" stroke="black" stroke-width="1.3" d="M865.12,-148C865.12,-148 792.88,-148 792.88,-148 786.88,-148 780.88,-142 780.88,-136 780.88,-136 780.88,-124 780.88,-124 780.88,-118 786.88,-112 792.88,-112 792.88,-112 865.12,-112 865.12,-112 871.12,-112 877.12,-118 877.12,-124 877.12,-124 877.12,-136 877.12,-136 877.12,-142 871.12,-148 865.12,-148"/>
<text text-anchor="middle" x="829" y="-124.75" font-family="Arial" font-size="15.00">deck_model</text>
</g>
<!-- /lib/models/game_model.dart&#45;&gt;/lib/models/deck_model.dart -->
<g id="edge6" class="edge">
<title>/lib/models/game_model.dart&#45;&gt;/lib/models/deck_model.dart</title>
<path fill="none" stroke="#aabbaa" stroke-width="1.3" stroke-opacity="0.533333" d="M858.47,-183.7C852.49,-175.98 846.04,-166.71 840.61,-158.11"/>
<polygon fill="#aabbaa" fill-opacity="0.533333" stroke="#aabbaa" stroke-width="1.3" stroke-opacity="0.533333" points="843.76,-156.56 835.6,-149.79 837.76,-160.16 843.76,-156.56"/>
</g>
<!-- /lib/models/game_model.dart&#45;&gt;/lib/models/deck_model.dart -->
<g id="edge8" class="edge">
<title>/lib/models/game_model.dart&#45;&gt;/lib/models/deck_model.dart</title>
<path fill="none" stroke="#aabbaa" stroke-width="1.3" stroke-dasharray="5,2" stroke-opacity="0.533333" d="M870.3,-183.7C865.82,-175.81 859.65,-166.3 853.4,-157.55"/>
<polygon fill="#aabbaa" fill-opacity="0.533333" stroke="#aabbaa" stroke-width="1.3" stroke-opacity="0.533333" points="856.33,-155.62 847.55,-149.68 850.71,-159.8 856.33,-155.62"/>
</g>
<!-- /lib/models/game_over_dialog.dart -->
<g id="node6" class="node">
<title>/lib/models/game_over_dialog.dart</title>
<path fill="Lavender" stroke="black" stroke-width="1.3" d="M795.12,-220C795.12,-220 680.88,-220 680.88,-220 674.88,-220 668.88,-214 668.88,-208 668.88,-208 668.88,-196 668.88,-196 668.88,-190 674.88,-184 680.88,-184 680.88,-184 795.12,-184 795.12,-184 801.12,-184 807.12,-190 807.12,-196 807.12,-196 807.12,-208 807.12,-208 807.12,-214 801.12,-220 795.12,-220"/>
<text text-anchor="middle" x="738" y="-196.75" font-family="Arial" font-size="15.00">game_over_dialog</text>
</g>
<!-- /lib/models/game_over_dialog.dart&#45;&gt;/lib/models/player_model.dart -->
<g id="edge10" class="edge">
<title>/lib/models/game_over_dialog.dart&#45;&gt;/lib/models/player_model.dart</title>
<path fill="none" stroke="#aabbaa" stroke-width="1.3" stroke-opacity="0.533333" d="M731.08,-183.7C728.09,-176.24 724.53,-167.32 721.19,-158.97"/>
<polygon fill="#aabbaa" fill-opacity="0.533333" stroke="#aabbaa" stroke-width="1.3" stroke-opacity="0.533333" points="724.54,-157.92 717.57,-149.93 718.04,-160.52 724.54,-157.92"/>
</g>
<!-- /lib/models/firebase_options.dart -->
<g id="node7" class="node">
<title>/lib/models/firebase_options.dart</title>
<path fill="Lavender" stroke="black" stroke-width="1.3" d="M932.75,-76C932.75,-76 831.25,-76 831.25,-76 825.25,-76 819.25,-70 819.25,-64 819.25,-64 819.25,-52 819.25,-52 819.25,-46 825.25,-40 831.25,-40 831.25,-40 932.75,-40 932.75,-40 938.75,-40 944.75,-46 944.75,-52 944.75,-52 944.75,-64 944.75,-64 944.75,-70 938.75,-76 932.75,-76"/>
<text text-anchor="middle" x="882" y="-52.75" font-family="Arial" font-size="15.00">firebase_options</text>
</g>
<!-- /lib/models/player_model.dart&#45;&gt;/lib/models/card_model.dart -->
<g id="edge11" class="edge">
<title>/lib/models/player_model.dart&#45;&gt;/lib/models/card_model.dart</title>
<path fill="none" stroke="#aabbaa" stroke-width="1.3" stroke-opacity="0.533333" d="M714.96,-111.7C719.06,-103.9 724.74,-94.51 730.55,-85.83"/>
<polygon fill="#aabbaa" fill-opacity="0.533333" stroke="#aabbaa" stroke-width="1.3" stroke-opacity="0.533333" points="733.36,-87.92 736.23,-77.72 727.63,-83.91 733.36,-87.92"/>
</g>
<!-- /lib/models/player_model.dart&#45;&gt;/lib/models/card_model.dart -->
<g id="edge12" class="edge">
<title>/lib/models/player_model.dart&#45;&gt;/lib/models/card_model.dart</title>
<path fill="none" stroke="#aabbaa" stroke-width="1.3" stroke-dasharray="5,2" stroke-opacity="0.533333" d="M726.79,-111.7C732.37,-104.07 738.36,-94.92 743.39,-86.4"/>
<polygon fill="#aabbaa" fill-opacity="0.533333" stroke="#aabbaa" stroke-width="1.3" stroke-opacity="0.533333" points="746.36,-88.26 748.18,-77.82 740.25,-84.84 746.36,-88.26"/>
</g>
<!-- /lib/models/misc.dart -->
<g id="node9" class="node">
<title>/lib/models/misc.dart</title>
<path fill="Lavender" stroke="black" stroke-width="1.3" d="M1005,-76C1005,-76 975,-76 975,-76 969,-76 963,-70 963,-64 963,-64 963,-52 963,-52 963,-46 969,-40 975,-40 975,-40 1005,-40 1005,-40 1011,-40 1017,-46 1017,-52 1017,-52 1017,-64 1017,-64 1017,-70 1011,-76 1005,-76"/>
<text text-anchor="middle" x="990" y="-52.75" font-family="Arial" font-size="15.00">misc</text>
</g>
<!-- /lib/models/backend_model.dart&#45;&gt;/lib/models/firebase_options.dart -->
<g id="edge13" class="edge">
<title>/lib/models/backend_model.dart&#45;&gt;/lib/models/firebase_options.dart</title>
<path fill="none" stroke="#aabbaa" stroke-width="1.3" stroke-opacity="0.533333" d="M937.71,-111.7C928.99,-103.45 918.4,-93.43 908.79,-84.35"/>
<polygon fill="#aabbaa" fill-opacity="0.533333" stroke="#aabbaa" stroke-width="1.3" stroke-opacity="0.533333" points="911.44,-82.03 901.77,-77.7 906.63,-87.11 911.44,-82.03"/>
</g>
<!-- /lib/models/backend_model.dart&#45;&gt;/lib/models/misc.dart -->
<g id="edge14" class="edge">
<title>/lib/models/backend_model.dart&#45;&gt;/lib/models/misc.dart</title>
<path fill="none" stroke="#aabbaa" stroke-width="1.3" stroke-opacity="0.533333" d="M964.4,-111.7C968.07,-104.15 972.46,-95.12 976.56,-86.68"/>
<polygon fill="#aabbaa" fill-opacity="0.533333" stroke="#aabbaa" stroke-width="1.3" stroke-opacity="0.533333" points="979.61,-88.4 980.83,-77.87 973.32,-85.34 979.61,-88.4"/>
</g>
<!-- /lib/models/deck_model.dart&#45;&gt;/lib/models/card_model.dart -->
<g id="edge15" class="edge">
<title>/lib/models/deck_model.dart&#45;&gt;/lib/models/card_model.dart</title>
<path fill="none" stroke="#aabbaa" stroke-width="1.3" stroke-opacity="0.533333" d="M804.54,-111.7C794.89,-103.47 783.98,-93.48 774.72,-84.42"/>
<polygon fill="#aabbaa" fill-opacity="0.533333" stroke="#aabbaa" stroke-width="1.3" stroke-opacity="0.533333" points="777.36,-82.11 767.82,-77.5 772.4,-87.05 777.36,-82.11"/>
</g>
<!-- /lib/models/deck_model.dart&#45;&gt;/lib/models/card_model.dart -->
<g id="edge16" class="edge">
<title>/lib/models/deck_model.dart&#45;&gt;/lib/models/card_model.dart</title>
<path fill="none" stroke="#aabbaa" stroke-width="1.3" stroke-dasharray="5,2" stroke-opacity="0.533333" d="M816.38,-111.7C808.31,-103.37 797.64,-93.22 787.36,-84.07"/>
<polygon fill="#aabbaa" fill-opacity="0.533333" stroke="#aabbaa" stroke-width="1.3" stroke-opacity="0.533333" points="789.83,-81.57 779.99,-77.64 785.23,-86.85 789.83,-81.57"/>
</g>
<!-- /lib/screens/game_screen.dart -->
<g id="node13" class="node">
<title>/lib/screens/game_screen.dart</title>
<path fill="Lavender" stroke="black" stroke-width="1.3" d="M983.38,-531C983.38,-531 900.62,-531 900.62,-531 894.62,-531 888.62,-525 888.62,-519 888.62,-519 888.62,-507 888.62,-507 888.62,-501 894.62,-495 900.62,-495 900.62,-495 983.38,-495 983.38,-495 989.38,-495 995.38,-501 995.38,-507 995.38,-507 995.38,-519 995.38,-519 995.38,-525 989.38,-531 983.38,-531"/>
<text text-anchor="middle" x="942" y="-507.75" font-family="Arial" font-size="15.00">game_screen</text>
</g>
<!-- /lib/screens/game_screen.dart&#45;&gt;/lib/models/game_model.dart -->
<g id="edge18" class="edge">
<title>/lib/screens/game_screen.dart&#45;&gt;/lib/models/game_model.dart</title>
<path fill="none" stroke="#aabbaa" stroke-width="1.3" stroke-opacity="0.533333" d="M928.66,-494.54C927.24,-492.1 925.97,-489.55 925,-487 888.84,-391.46 919.76,-358.35 896,-259 893.82,-249.89 890.67,-240.2 887.52,-231.49"/>
<polygon fill="#aabbaa" fill-opacity="0.533333" stroke="#aabbaa" stroke-width="1.3" stroke-opacity="0.533333" points="890.81,-230.31 884,-222.2 884.27,-232.79 890.81,-230.31"/>
</g>
<!-- /lib/screens/game_screen.dart&#45;&gt;/lib/models/game_over_dialog.dart -->
<g id="edge19" class="edge">
<title>/lib/screens/game_screen.dart&#45;&gt;/lib/models/game_over_dialog.dart</title>
<path fill="none" stroke="#aabbaa" stroke-width="1.3" stroke-opacity="0.533333" d="M910.69,-494.6C907.58,-492.25 904.62,-489.71 902,-487 825.36,-407.63 770.78,-285.69 748.77,-231.11"/>
<polygon fill="#aabbaa" fill-opacity="0.533333" stroke="#aabbaa" stroke-width="1.3" stroke-opacity="0.533333" points="752.12,-230.06 745.18,-222.05 745.61,-232.64 752.12,-230.06"/>
</g>
<!-- /lib/screens/game_screen.dart&#45;&gt;/lib/models/misc.dart -->
<g id="edge20" class="edge">
<title>/lib/screens/game_screen.dart&#45;&gt;/lib/models/misc.dart</title>
<path fill="none" stroke="#aabbaa" stroke-width="1.3" stroke-opacity="0.533333" d="M995.79,-495.42C998.9,-492.99 1001.69,-490.2 1004,-487 1048.24,-425.83 1023.55,-223.45 1026,-148 1026.52,-132.01 1030.7,-127.29 1026,-112 1023.15,-102.73 1018.06,-93.63 1012.6,-85.65"/>
<polygon fill="#aabbaa" fill-opacity="0.533333" stroke="#aabbaa" stroke-width="1.3" stroke-opacity="0.533333" points="1015.55,-83.76 1006.78,-77.81 1009.93,-87.92 1015.55,-83.76"/>
</g>
<!-- /lib/screens/game_screen.dart&#45;&gt;/lib/models/backend_model.dart -->
<g id="edge17" class="edge">
<title>/lib/screens/game_screen.dart&#45;&gt;/lib/models/backend_model.dart</title>
<path fill="none" stroke="#aabbaa" stroke-width="1.3" stroke-opacity="0.533333" d="M888.28,-509.69C865.96,-506.6 840.72,-500.15 821,-487 757.55,-444.71 610.51,-242 660,-184 691.01,-147.66 819.21,-156.66 883.72,-147.96"/>
<polygon fill="#aabbaa" fill-opacity="0.533333" stroke="#aabbaa" stroke-width="1.3" stroke-opacity="0.533333" points="884.12,-151.44 893.42,-146.36 882.98,-144.54 884.12,-151.44"/>
</g>
<!-- /lib/screens/screen.dart -->
<g id="node15" class="node">
<title>/lib/screens/screen.dart</title>
<path fill="Lavender" stroke="black" stroke-width="1.3" d="M982.5,-425C982.5,-425 945.5,-425 945.5,-425 939.5,-425 933.5,-419 933.5,-413 933.5,-413 933.5,-401 933.5,-401 933.5,-395 939.5,-389 945.5,-389 945.5,-389 982.5,-389 982.5,-389 988.5,-389 994.5,-395 994.5,-401 994.5,-401 994.5,-413 994.5,-413 994.5,-419 988.5,-425 982.5,-425"/>
<text text-anchor="middle" x="964" y="-401.75" font-family="Arial" font-size="15.00">screen</text>
</g>
<!-- /lib/screens/game_screen.dart&#45;&gt;/lib/screens/screen.dart -->
<g id="edge21" class="edge">
<title>/lib/screens/game_screen.dart&#45;&gt;/lib/screens/screen.dart</title>
<path fill="none" stroke="#aabbaa" stroke-width="1.3" stroke-opacity="0.533333" d="M945.63,-494.83C948.96,-479.09 953.95,-455.49 957.89,-436.86"/>
<polygon fill="#aabbaa" fill-opacity="0.533333" stroke="#aabbaa" stroke-width="1.3" stroke-opacity="0.533333" points="961.31,-437.63 959.95,-427.12 954.46,-436.18 961.31,-437.63"/>
</g>
<!-- /lib/widgets/player/player_zone_widget.dart -->
<g id="node27" class="node">
<title>/lib/widgets/player/player_zone_widget.dart</title>
<path fill="Lavender" stroke="black" stroke-width="1.3" d="M1650,-425C1650,-425 1526,-425 1526,-425 1520,-425 1514,-419 1514,-413 1514,-413 1514,-401 1514,-401 1514,-395 1520,-389 1526,-389 1526,-389 1650,-389 1650,-389 1656,-389 1662,-395 1662,-401 1662,-401 1662,-413 1662,-413 1662,-419 1656,-425 1650,-425"/>
<text text-anchor="middle" x="1588" y="-401.75" font-family="Arial" font-size="15.00">player_zone_widget</text>
</g>
<!-- /lib/screens/game_screen.dart&#45;&gt;/lib/widgets/player/player_zone_widget.dart -->
<g id="edge22" class="edge">
<title>/lib/screens/game_screen.dart&#45;&gt;/lib/widgets/player/player_zone_widget.dart</title>
<path fill="none" stroke="#aabbaa" stroke-width="1.3" stroke-opacity="0.533333" d="M995.38,-510.7C1132.27,-507.24 1486.74,-497.33 1510,-487 1534.82,-475.98 1555.95,-453.16 1569.93,-434.86"/>
<polygon fill="#aabbaa" fill-opacity="0.533333" stroke="#aabbaa" stroke-width="1.3" stroke-opacity="0.533333" points="1572.7,-437 1575.78,-426.86 1567.05,-432.87 1572.7,-437"/>
</g>
<!-- /lib/screens/start_screen.dart -->
<g id="node14" class="node">
<title>/lib/screens/start_screen.dart</title>
<path fill="Lavender" stroke="black" stroke-width="1.3" d="M1002.62,-603C1002.62,-603 927.38,-603 927.38,-603 921.38,-603 915.38,-597 915.38,-591 915.38,-591 915.38,-579 915.38,-579 915.38,-573 921.38,-567 927.38,-567 927.38,-567 1002.62,-567 1002.62,-567 1008.62,-567 1014.62,-573 1014.62,-579 1014.62,-579 1014.62,-591 1014.62,-591 1014.62,-597 1008.62,-603 1002.62,-603"/>
<text text-anchor="middle" x="965" y="-579.75" font-family="Arial" font-size="15.00">start_screen</text>
</g>
<!-- /lib/screens/start_screen.dart&#45;&gt;/lib/models/game_model.dart -->
<g id="edge24" class="edge">
<title>/lib/screens/start_screen.dart&#45;&gt;/lib/models/game_model.dart</title>
<path fill="none" stroke="#aabbaa" stroke-width="1.3" stroke-opacity="0.533333" d="M919.62,-566.56C904.26,-558.24 888.79,-546.61 880,-531 824.97,-433.24 852.26,-291.72 867.77,-231.67"/>
<polygon fill="#aabbaa" fill-opacity="0.533333" stroke="#aabbaa" stroke-width="1.3" stroke-opacity="0.533333" points="871.14,-232.6 870.35,-222.04 864.38,-230.79 871.14,-232.6"/>
</g>
<!-- /lib/screens/start_screen.dart&#45;&gt;/lib/models/backend_model.dart -->
<g id="edge23" class="edge">
<title>/lib/screens/start_screen.dart&#45;&gt;/lib/models/backend_model.dart</title>
<path fill="none" stroke="#aabbaa" stroke-width="1.3" stroke-opacity="0.533333" d="M985.82,-566.62C995.46,-557.2 1005.89,-544.7 1011,-531 1016.6,-516.01 1011.49,-510.99 1011,-495 1009.44,-444.26 1010.35,-431.36 1004,-381 993.81,-300.27 973.45,-206.35 962.82,-159.97"/>
<polygon fill="#aabbaa" fill-opacity="0.533333" stroke="#aabbaa" stroke-width="1.3" stroke-opacity="0.533333" points="966.26,-159.33 960.6,-150.37 959.44,-160.9 966.26,-159.33"/>
</g>
<!-- /lib/screens/start_screen.dart&#45;&gt;/lib/screens/game_screen.dart -->
<g id="edge25" class="edge">
<title>/lib/screens/start_screen.dart&#45;&gt;/lib/screens/game_screen.dart</title>
<path fill="none" stroke="#aabbaa" stroke-width="1.3" stroke-opacity="0.533333" d="M959.31,-566.7C956.89,-559.32 954,-550.52 951.28,-542.25"/>
<polygon fill="#aabbaa" fill-opacity="0.533333" stroke="#aabbaa" stroke-width="1.3" stroke-opacity="0.533333" points="954.68,-541.38 948.23,-532.97 948.03,-543.57 954.68,-541.38"/>
</g>
<!-- /lib/screens/start_screen.dart&#45;&gt;/lib/screens/screen.dart -->
<g id="edge26" class="edge">
<title>/lib/screens/start_screen.dart&#45;&gt;/lib/screens/screen.dart</title>
<path fill="none" stroke="#aabbaa" stroke-width="1.3" stroke-opacity="0.533333" d="M982.3,-566.52C990.59,-556.9 999.65,-544.24 1004,-531 1014.85,-497.96 997.93,-459.88 982.87,-434.95"/>
<polygon fill="#aabbaa" fill-opacity="0.533333" stroke="#aabbaa" stroke-width="1.3" stroke-opacity="0.533333" points="986,-433.34 977.67,-426.78 980.09,-437.1 986,-433.34"/>
</g>
<!-- /lib/widgets/players_in_room_widget.dart -->
<g id="node22" class="node">
<title>/lib/widgets/players_in_room_widget.dart</title>
<path fill="Lavender" stroke="black" stroke-width="1.3" d="M1944.62,-425C1944.62,-425 1791.38,-425 1791.38,-425 1785.38,-425 1779.38,-419 1779.38,-413 1779.38,-413 1779.38,-401 1779.38,-401 1779.38,-395 1785.38,-389 1791.38,-389 1791.38,-389 1944.62,-389 1944.62,-389 1950.62,-389 1956.62,-395 1956.62,-401 1956.62,-401 1956.62,-413 1956.62,-413 1956.62,-419 1950.62,-425 1944.62,-425"/>
<text text-anchor="middle" x="1868" y="-401.75" font-family="Arial" font-size="15.00">players_in_room_widget</text>
</g>
<!-- /lib/screens/start_screen.dart&#45;&gt;/lib/widgets/players_in_room_widget.dart -->
<g id="edge27" class="edge">
<title>/lib/screens/start_screen.dart&#45;&gt;/lib/widgets/players_in_room_widget.dart</title>
<path fill="none" stroke="#aabbaa" stroke-width="1.3" stroke-opacity="0.533333" d="M1015.02,-579.7C1180.72,-565.23 1705.19,-517.48 1775,-487 1802.7,-474.91 1828.4,-451.76 1845.74,-433.63"/>
<polygon fill="#aabbaa" fill-opacity="0.533333" stroke="#aabbaa" stroke-width="1.3" stroke-opacity="0.533333" points="1847.98,-436.37 1852.21,-426.65 1842.85,-431.61 1847.98,-436.37"/>
</g>
<!-- /lib/widgets/rooms_widget.dart -->
<g id="node24" class="node">
<title>/lib/widgets/rooms_widget.dart</title>
<path fill="Lavender" stroke="black" stroke-width="1.3" d="M2071.5,-425C2071.5,-425 1986.5,-425 1986.5,-425 1980.5,-425 1974.5,-419 1974.5,-413 1974.5,-413 1974.5,-401 1974.5,-401 1974.5,-395 1980.5,-389 1986.5,-389 1986.5,-389 2071.5,-389 2071.5,-389 2077.5,-389 2083.5,-395 2083.5,-401 2083.5,-401 2083.5,-413 2083.5,-413 2083.5,-419 2077.5,-425 2071.5,-425"/>
<text text-anchor="middle" x="2029" y="-401.75" font-family="Arial" font-size="15.00">rooms_widget</text>
</g>
<!-- /lib/screens/start_screen.dart&#45;&gt;/lib/widgets/rooms_widget.dart -->
<g id="edge28" class="edge">
<title>/lib/screens/start_screen.dart&#45;&gt;/lib/widgets/rooms_widget.dart</title>
<path fill="none" stroke="#aabbaa" stroke-width="1.3" stroke-opacity="0.533333" d="M1014.9,-584.43C1193.75,-585.16 1800.78,-580.57 1966,-487 1987.05,-475.08 2003.71,-453.07 2014.59,-435.3"/>
<polygon fill="#aabbaa" fill-opacity="0.533333" stroke="#aabbaa" stroke-width="1.3" stroke-opacity="0.533333" points="2017.34,-437.55 2019.34,-427.14 2011.29,-434.03 2017.34,-437.55"/>
</g>
<!-- /lib/main.dart -->
<g id="node16" class="node">
<title>/lib/main.dart</title>
<path fill="Lavender" stroke="black" stroke-width="1.3" d="M980,-678C980,-678 950,-678 950,-678 944,-678 938,-672 938,-666 938,-666 938,-654 938,-654 938,-648 944,-642 950,-642 950,-642 980,-642 980,-642 986,-642 992,-648 992,-654 992,-654 992,-666 992,-666 992,-672 986,-678 980,-678"/>
<text text-anchor="middle" x="965" y="-654.75" font-family="Arial" font-size="15.00">main</text>
</g>
<!-- /lib/main.dart&#45;&gt;/lib/screens/start_screen.dart -->
<g id="edge29" class="edge">
<title>/lib/main.dart&#45;&gt;/lib/screens/start_screen.dart</title>
<path fill="none" stroke="#aabbaa" stroke-width="1.3" stroke-opacity="0.533333" d="M965,-641.7C965,-633.76 965,-624.12 965,-615.11"/>
<polygon fill="#aabbaa" fill-opacity="0.533333" stroke="#aabbaa" stroke-width="1.3" stroke-opacity="0.533333" points="968.5,-615.4 965,-605.4 961.5,-615.4 968.5,-615.4"/>
</g>
<!-- /lib/widgets/table_surface_painter.dart -->
<g id="node17" class="node">
<title>/lib/widgets/table_surface_painter.dart</title>
<path fill="Lavender" stroke="black" stroke-width="1.3" d="M1379,-425C1379,-425 1243,-425 1243,-425 1237,-425 1231,-419 1231,-413 1231,-413 1231,-401 1231,-401 1231,-395 1237,-389 1243,-389 1243,-389 1379,-389 1379,-389 1385,-389 1391,-395 1391,-401 1391,-401 1391,-413 1391,-413 1391,-419 1385,-425 1379,-425"/>
<text text-anchor="middle" x="1311" y="-401.75" font-family="Arial" font-size="15.00">table_surface_painter</text>
</g>
<!-- /lib/widgets/cards/card_pile_widget.dart -->
<g id="node18" class="node">
<title>/lib/widgets/cards/card_pile_widget.dart</title>
<path fill="Lavender" stroke="black" stroke-width="1.3" d="M1648.5,-220C1648.5,-220 1545.5,-220 1545.5,-220 1539.5,-220 1533.5,-214 1533.5,-208 1533.5,-208 1533.5,-196 1533.5,-196 1533.5,-190 1539.5,-184 1545.5,-184 1545.5,-184 1648.5,-184 1648.5,-184 1654.5,-184 1660.5,-190 1660.5,-196 1660.5,-196 1660.5,-208 1660.5,-208 1660.5,-214 1654.5,-220 1648.5,-220"/>
<text text-anchor="middle" x="1597" y="-196.75" font-family="Arial" font-size="15.00">card_pile_widget</text>
</g>
<!-- /lib/widgets/cards/card_pile_widget.dart&#45;&gt;/lib/models/card_model.dart -->
<g id="edge30" class="edge">
<title>/lib/widgets/cards/card_pile_widget.dart&#45;&gt;/lib/models/card_model.dart</title>
<path fill="none" stroke="#aabbaa" stroke-width="1.3" stroke-opacity="0.533333" d="M1533.01,-191.08C1361.79,-164.51 900.73,-92.75 812.76,-76.17"/>
<polygon fill="#aabbaa" fill-opacity="0.533333" stroke="#aabbaa" stroke-width="1.3" stroke-opacity="0.533333" points="813.66,-72.78 803.16,-74.23 812.27,-79.64 813.66,-72.78"/>
</g>
<!-- /lib/widgets/cards/card_widget.dart -->
<g id="node19" class="node">
<title>/lib/widgets/cards/card_widget.dart</title>
<path fill="Lavender" stroke="black" stroke-width="1.3" d="M1655.12,-148C1655.12,-148 1582.88,-148 1582.88,-148 1576.88,-148 1570.88,-142 1570.88,-136 1570.88,-136 1570.88,-124 1570.88,-124 1570.88,-118 1576.88,-112 1582.88,-112 1582.88,-112 1655.12,-112 1655.12,-112 1661.12,-112 1667.12,-118 1667.12,-124 1667.12,-124 1667.12,-136 1667.12,-136 1667.12,-142 1661.12,-148 1655.12,-148"/>
<text text-anchor="middle" x="1619" y="-124.75" font-family="Arial" font-size="15.00">card_widget</text>
</g>
<!-- /lib/widgets/cards/card_pile_widget.dart&#45;&gt;/lib/widgets/cards/card_widget.dart -->
<g id="edge32" class="edge">
<title>/lib/widgets/cards/card_pile_widget.dart&#45;&gt;/lib/widgets/cards/card_widget.dart</title>
<path fill="none" stroke="#aabbaa" stroke-width="1.3" stroke-opacity="0.533333" d="M1602.44,-183.7C1604.76,-176.32 1607.52,-167.52 1610.12,-159.25"/>
<polygon fill="#aabbaa" fill-opacity="0.533333" stroke="#aabbaa" stroke-width="1.3" stroke-opacity="0.533333" points="1613.38,-160.57 1613.03,-149.98 1606.7,-158.47 1613.38,-160.57"/>
</g>
<!-- /lib/widgets/cards/card_face_widget.dart -->
<g id="node20" class="node">
<title>/lib/widgets/cards/card_face_widget.dart</title>
<path fill="Lavender" stroke="black" stroke-width="1.3" d="M1654.5,-76C1654.5,-76 1545.5,-76 1545.5,-76 1539.5,-76 1533.5,-70 1533.5,-64 1533.5,-64 1533.5,-52 1533.5,-52 1533.5,-46 1539.5,-40 1545.5,-40 1545.5,-40 1654.5,-40 1654.5,-40 1660.5,-40 1666.5,-46 1666.5,-52 1666.5,-52 1666.5,-64 1666.5,-64 1666.5,-70 1660.5,-76 1654.5,-76"/>
<text text-anchor="middle" x="1600" y="-52.75" font-family="Arial" font-size="15.00">card_face_widget</text>
</g>
<!-- /lib/widgets/cards/card_pile_widget.dart&#45;&gt;/lib/widgets/cards/card_face_widget.dart -->
<g id="edge31" class="edge">
<title>/lib/widgets/cards/card_pile_widget.dart&#45;&gt;/lib/widgets/cards/card_face_widget.dart</title>
<path fill="none" stroke="#aabbaa" stroke-width="1.3" stroke-opacity="0.533333" d="M1581.82,-183.7C1574.27,-173.94 1565.93,-161.1 1562,-148 1557.4,-132.68 1557.1,-127.23 1562,-112 1565.02,-102.6 1570.39,-93.46 1576.16,-85.49"/>
<polygon fill="#aabbaa" fill-opacity="0.533333" stroke="#aabbaa" stroke-width="1.3" stroke-opacity="0.533333" points="1578.91,-87.66 1582.32,-77.63 1573.4,-83.34 1578.91,-87.66"/>
</g>
<!-- /lib/widgets/cards/card_widget.dart&#45;&gt;/lib/models/card_model.dart -->
<g id="edge33" class="edge">
<title>/lib/widgets/cards/card_widget.dart&#45;&gt;/lib/models/card_model.dart</title>
<path fill="none" stroke="#aabbaa" stroke-width="1.3" stroke-opacity="0.533333" d="M1570.69,-125.79C1519.03,-122.36 1434.73,-116.78 1362,-112 1120.51,-96.14 1053.95,-119.25 813.08,-76.32"/>
<polygon fill="#aabbaa" fill-opacity="0.533333" stroke="#aabbaa" stroke-width="1.3" stroke-opacity="0.533333" points="813.88,-72.9 803.41,-74.57 812.63,-79.79 813.88,-72.9"/>
</g>
<!-- /lib/widgets/cards/card_widget.dart&#45;&gt;/lib/widgets/cards/card_face_widget.dart -->
<g id="edge34" class="edge">
<title>/lib/widgets/cards/card_widget.dart&#45;&gt;/lib/widgets/cards/card_face_widget.dart</title>
<path fill="none" stroke="#aabbaa" stroke-width="1.3" stroke-opacity="0.533333" d="M1614.3,-111.7C1612.32,-104.41 1609.97,-95.73 1607.75,-87.54"/>
<polygon fill="#aabbaa" fill-opacity="0.533333" stroke="#aabbaa" stroke-width="1.3" stroke-opacity="0.533333" points="1611.16,-86.74 1605.16,-78 1604.4,-88.57 1611.16,-86.74"/>
</g>
<!-- /lib/widgets/wiggle_widget.dart -->
<g id="node21" class="node">
<title>/lib/widgets/wiggle_widget.dart</title>
<path fill="Lavender" stroke="black" stroke-width="1.3" d="M1781.12,-76C1781.12,-76 1696.88,-76 1696.88,-76 1690.88,-76 1684.88,-70 1684.88,-64 1684.88,-64 1684.88,-52 1684.88,-52 1684.88,-46 1690.88,-40 1696.88,-40 1696.88,-40 1781.12,-40 1781.12,-40 1787.12,-40 1793.12,-46 1793.12,-52 1793.12,-52 1793.12,-64 1793.12,-64 1793.12,-70 1787.12,-76 1781.12,-76"/>
<text text-anchor="middle" x="1739" y="-52.75" font-family="Arial" font-size="15.00">wiggle_widget</text>
</g>
<!-- /lib/widgets/cards/card_widget.dart&#45;&gt;/lib/widgets/wiggle_widget.dart -->
<g id="edge35" class="edge">
<title>/lib/widgets/cards/card_widget.dart&#45;&gt;/lib/widgets/wiggle_widget.dart</title>
<path fill="none" stroke="#aabbaa" stroke-width="1.3" stroke-opacity="0.533333" d="M1648.97,-111.52C1664.26,-102.6 1683.06,-91.63 1699.52,-82.03"/>
<polygon fill="#aabbaa" fill-opacity="0.533333" stroke="#aabbaa" stroke-width="1.3" stroke-opacity="0.533333" points="1700.84,-85.31 1707.71,-77.25 1697.31,-79.27 1700.84,-85.31"/>
</g>
<!-- /lib/widgets/cards/card_face_widget.dart&#45;&gt;/lib/models/card_model.dart -->
<g id="edge36" class="edge">
<title>/lib/widgets/cards/card_face_widget.dart&#45;&gt;/lib/models/card_model.dart</title>
<path fill="none" stroke="#aabbaa" stroke-width="1.3" stroke-opacity="0.533333" d="M1533.08,-63.51C1425.19,-72.08 1206.05,-88.23 1020,-94 930.71,-96.77 905.49,-116.35 819,-94 809.22,-91.47 799.33,-87.12 790.33,-82.3"/>
<polygon fill="#aabbaa" fill-opacity="0.533333" stroke="#aabbaa" stroke-width="1.3" stroke-opacity="0.533333" points="792.34,-79.42 781.92,-77.48 788.86,-85.49 792.34,-79.42"/>
</g>
<!-- /lib/widgets/text_edit_with_submit.dart -->
<g id="node23" class="node">
<title>/lib/widgets/text_edit_with_submit.dart</title>
<path fill="Lavender" stroke="black" stroke-width="1.3" d="M1201,-425C1201,-425 1065,-425 1065,-425 1059,-425 1053,-419 1053,-413 1053,-413 1053,-401 1053,-401 1053,-395 1059,-389 1065,-389 1065,-389 1201,-389 1201,-389 1207,-389 1213,-395 1213,-401 1213,-401 1213,-413 1213,-413 1213,-419 1207,-425 1201,-425"/>
<text text-anchor="middle" x="1133" y="-401.75" font-family="Arial" font-size="15.00">text_edit_with_submit</text>
</g>
<!-- /lib/widgets/text_edit_with_submit.dart&#45;&gt;/lib/models/misc.dart -->
<g id="edge37" class="edge">
<title>/lib/widgets/text_edit_with_submit.dart&#45;&gt;/lib/models/misc.dart</title>
<path fill="none" stroke="#aabbaa" stroke-width="1.3" stroke-opacity="0.533333" d="M1130.43,-388.62C1122.87,-341.33 1097.55,-207.48 1041,-112 1035.17,-102.16 1027.17,-92.71 1019.24,-84.59"/>
<polygon fill="#aabbaa" fill-opacity="0.533333" stroke="#aabbaa" stroke-width="1.3" stroke-opacity="0.533333" points="1021.78,-82.18 1012.18,-77.72 1016.9,-87.2 1021.78,-82.18"/>
</g>
<!-- /lib/widgets/player/player_zone_cta_widget.dart -->
<g id="node25" class="node">
<title>/lib/widgets/player/player_zone_cta_widget.dart</title>
<path fill="Lavender" stroke="black" stroke-width="1.3" d="M1571.25,-311C1571.25,-311 1418.75,-311 1418.75,-311 1412.75,-311 1406.75,-305 1406.75,-299 1406.75,-299 1406.75,-287 1406.75,-287 1406.75,-281 1412.75,-275 1418.75,-275 1418.75,-275 1571.25,-275 1571.25,-275 1577.25,-275 1583.25,-281 1583.25,-287 1583.25,-287 1583.25,-299 1583.25,-299 1583.25,-305 1577.25,-311 1571.25,-311"/>
<text text-anchor="middle" x="1495" y="-287.75" font-family="Arial" font-size="15.00">player_zone_cta_widget</text>
</g>
<!-- /lib/widgets/player/player_zone_cta_widget.dart&#45;&gt;/lib/models/game_model.dart -->
<g id="edge38" class="edge">
<title>/lib/widgets/player/player_zone_cta_widget.dart&#45;&gt;/lib/models/game_model.dart</title>
<path fill="none" stroke="#aabbaa" stroke-width="1.3" stroke-opacity="0.533333" d="M1406.31,-279.25C1279.55,-261.02 1049.68,-227.97 938.95,-212.05"/>
<polygon fill="#aabbaa" fill-opacity="0.533333" stroke="#aabbaa" stroke-width="1.3" stroke-opacity="0.533333" points="939.68,-208.62 929.28,-210.66 938.68,-215.55 939.68,-208.62"/>
</g>
<!-- /lib/widgets/player/player_zone_cta_widget.dart&#45;&gt;/lib/widgets/cards/card_pile_widget.dart -->
<g id="edge39" class="edge">
<title>/lib/widgets/player/player_zone_cta_widget.dart&#45;&gt;/lib/widgets/cards/card_pile_widget.dart</title>
<path fill="none" stroke="#aabbaa" stroke-width="1.3" stroke-opacity="0.533333" d="M1514.67,-274.84C1529.81,-261.63 1550.97,-243.17 1568.04,-228.27"/>
<polygon fill="#aabbaa" fill-opacity="0.533333" stroke="#aabbaa" stroke-width="1.3" stroke-opacity="0.533333" points="1570.33,-230.92 1575.56,-221.7 1565.73,-225.64 1570.33,-230.92"/>
</g>
<!-- /lib/widgets/player/player_header_widget.dart -->
<g id="node26" class="node">
<title>/lib/widgets/player/player_header_widget.dart</title>
<path fill="Lavender" stroke="black" stroke-width="1.3" d="M1751.12,-311C1751.12,-311 1612.88,-311 1612.88,-311 1606.88,-311 1600.88,-305 1600.88,-299 1600.88,-299 1600.88,-287 1600.88,-287 1600.88,-281 1606.88,-275 1612.88,-275 1612.88,-275 1751.12,-275 1751.12,-275 1757.12,-275 1763.12,-281 1763.12,-287 1763.12,-287 1763.12,-299 1763.12,-299 1763.12,-305 1757.12,-311 1751.12,-311"/>
<text text-anchor="middle" x="1682" y="-287.75" font-family="Arial" font-size="15.00">player_header_widget</text>
</g>
<!-- /lib/widgets/player/player_zone_widget.dart&#45;&gt;/lib/models/game_model.dart -->
<g id="edge40" class="edge">
<title>/lib/widgets/player/player_zone_widget.dart&#45;&gt;/lib/models/game_model.dart</title>
<path fill="none" stroke="#aabbaa" stroke-width="1.3" stroke-opacity="0.533333" d="M1539.78,-388.57C1530.03,-385.61 1519.77,-382.89 1510,-381 1461,-371.54 1446.98,-382.58 1398,-373 1221.56,-338.5 1021.72,-262.54 928.76,-224.96"/>
<polygon fill="#aabbaa" fill-opacity="0.533333" stroke="#aabbaa" stroke-width="1.3" stroke-opacity="0.533333" points="930.1,-221.72 919.52,-221.2 927.47,-228.21 930.1,-221.72"/>
</g>
<!-- /lib/widgets/player/player_zone_widget.dart&#45;&gt;/lib/models/misc.dart -->
<g id="edge41" class="edge">
<title>/lib/widgets/player/player_zone_widget.dart&#45;&gt;/lib/models/misc.dart</title>
<path fill="none" stroke="#aabbaa" stroke-width="1.3" stroke-opacity="0.533333" d="M1636.22,-388.61C1645.97,-385.64 1656.23,-382.91 1666,-381 1677.59,-378.74 1763.97,-381.66 1772,-373 1806.45,-335.85 1793.86,-304.71 1772,-259 1749.09,-211.1 1727.29,-206.09 1679,-184 1648.86,-170.21 1169.8,-89.16 1028.77,-65.49"/>
<polygon fill="#aabbaa" fill-opacity="0.533333" stroke="#aabbaa" stroke-width="1.3" stroke-opacity="0.533333" points="1029.7,-62.1 1019.26,-63.89 1028.54,-69 1029.7,-62.1"/>
</g>
<!-- /lib/widgets/player/player_zone_widget.dart&#45;&gt;/lib/widgets/cards/card_widget.dart -->
<g id="edge42" class="edge">
<title>/lib/widgets/player/player_zone_widget.dart&#45;&gt;/lib/widgets/cards/card_widget.dart</title>
<path fill="none" stroke="#aabbaa" stroke-width="1.3" stroke-opacity="0.533333" d="M1636.22,-388.61C1645.97,-385.64 1656.23,-382.91 1666,-381 1677.59,-378.74 1763.97,-381.66 1772,-373 1806.45,-335.85 1793.45,-304.9 1772,-259 1749.89,-211.68 1700.73,-175.69 1664.06,-154.1"/>
<polygon fill="#aabbaa" fill-opacity="0.533333" stroke="#aabbaa" stroke-width="1.3" stroke-opacity="0.533333" points="1666.21,-151.3 1655.79,-149.37 1662.74,-157.38 1666.21,-151.3"/>
</g>
<!-- /lib/widgets/player/player_zone_widget.dart&#45;&gt;/lib/widgets/player/player_zone_cta_widget.dart -->
<g id="edge44" class="edge">
<title>/lib/widgets/player/player_zone_widget.dart&#45;&gt;/lib/widgets/player/player_zone_cta_widget.dart</title>
<path fill="none" stroke="#aabbaa" stroke-width="1.3" stroke-opacity="0.533333" d="M1573.47,-388.5C1558.32,-370.25 1534.39,-341.44 1516.94,-320.42"/>
<polygon fill="#aabbaa" fill-opacity="0.533333" stroke="#aabbaa" stroke-width="1.3" stroke-opacity="0.533333" points="1519.77,-318.35 1510.69,-312.89 1514.38,-322.82 1519.77,-318.35"/>
</g>
<!-- /lib/widgets/player/player_zone_widget.dart&#45;&gt;/lib/widgets/player/player_header_widget.dart -->
<g id="edge43" class="edge">
<title>/lib/widgets/player/player_zone_widget.dart&#45;&gt;/lib/widgets/player/player_header_widget.dart</title>
<path fill="none" stroke="#aabbaa" stroke-width="1.3" stroke-opacity="0.533333" d="M1602.69,-388.5C1618,-370.25 1642.19,-341.44 1659.83,-320.42"/>
<polygon fill="#aabbaa" fill-opacity="0.533333" stroke="#aabbaa" stroke-width="1.3" stroke-opacity="0.533333" points="1662.4,-322.79 1666.15,-312.88 1657.04,-318.29 1662.4,-322.79"/>
</g>
</g>
</svg>
