<?xml version="1.0" encoding="UTF-8" standalone="no"?>
<!DOCTYPE svg PUBLIC "-//W3C//DTD SVG 1.1//EN"
 "http://www.w3.org/Graphics/SVG/1.1/DTD/svg11.dtd">
<!-- Generated by graphviz version 12.1.2 (20240928.0832)
 -->
<!-- Pages: 1 -->
<svg width="464pt" height="476pt"
 viewBox="0.00 0.00 463.84 476.00" xmlns="http://www.w3.org/2000/svg" xmlns:xlink="http://www.w3.org/1999/xlink">
<g id="graph0" class="graph" transform="scale(1 1) rotate(0) translate(4 472)">
<polygon fill="white" stroke="none" points="-4,4 -4,-472 459.84,-472 459.84,4 -4,4"/>
<!-- /lib/game_model.dart -->
<g id="node1" class="node">
<title>/lib/game_model.dart</title>
<path fill="Lavender" stroke="black" stroke-width="1.3" d="M90.25,-108C90.25,-108 12,-108 12,-108 6,-108 0,-102 0,-96 0,-96 0,-84 0,-84 0,-78 6,-72 12,-72 12,-72 90.25,-72 90.25,-72 96.25,-72 102.25,-78 102.25,-84 102.25,-84 102.25,-96 102.25,-96 102.25,-102 96.25,-108 90.25,-108"/>
<text text-anchor="middle" x="51.12" y="-84.75" font-family="Arial" font-size="15.00">game_model</text>
</g>
<!-- /lib/widgets/playing_card.dart -->
<g id="node8" class="node">
<title>/lib/widgets/playing_card.dart</title>
<path fill="Lavender" stroke="black" stroke-width="1.3" d="M350.12,-36C350.12,-36 274.12,-36 274.12,-36 268.12,-36 262.12,-30 262.12,-24 262.12,-24 262.12,-12 262.12,-12 262.12,-6 268.12,0 274.12,0 274.12,0 350.12,0 350.12,0 356.12,0 362.12,-6 362.12,-12 362.12,-12 362.12,-24 362.12,-24 362.12,-30 356.12,-36 350.12,-36"/>
<text text-anchor="middle" x="312.12" y="-12.75" font-family="Arial" font-size="15.00">playing_card</text>
</g>
<!-- /lib/game_model.dart&#45;&gt;/lib/widgets/playing_card.dart -->
<g id="edge1" class="edge">
<title>/lib/game_model.dart&#45;&gt;/lib/widgets/playing_card.dart</title>
<path fill="none" stroke="#aabbaa" stroke-width="1.3" stroke-opacity="0.533333" d="M102.49,-74.38C105.41,-73.57 108.31,-72.77 111.12,-72 157.7,-59.26 210.49,-45.36 250.28,-34.99"/>
<polygon fill="#aabbaa" fill-opacity="0.533333" stroke="#aabbaa" stroke-width="1.3" stroke-opacity="0.533333" points="250.97,-38.43 259.76,-32.53 249.2,-31.66 250.97,-38.43"/>
</g>
<!-- /lib/main.dart -->
<g id="node2" class="node">
<title>/lib/main.dart</title>
<path fill="Lavender" stroke="black" stroke-width="1.3" d="M260.12,-396C260.12,-396 230.12,-396 230.12,-396 224.12,-396 218.12,-390 218.12,-384 218.12,-384 218.12,-372 218.12,-372 218.12,-366 224.12,-360 230.12,-360 230.12,-360 260.12,-360 260.12,-360 266.12,-360 272.12,-366 272.12,-372 272.12,-372 272.12,-384 272.12,-384 272.12,-390 266.12,-396 260.12,-396"/>
<text text-anchor="middle" x="245.12" y="-372.75" font-family="Arial" font-size="15.00">main</text>
</g>
<!-- /lib/screens/setup_screen.dart -->
<g id="node4" class="node">
<title>/lib/screens/setup_screen.dart</title>
<path fill="Lavender" stroke="black" stroke-width="1.3" d="M286.12,-324C286.12,-324 204.12,-324 204.12,-324 198.12,-324 192.12,-318 192.12,-312 192.12,-312 192.12,-300 192.12,-300 192.12,-294 198.12,-288 204.12,-288 204.12,-288 286.12,-288 286.12,-288 292.12,-288 298.12,-294 298.12,-300 298.12,-300 298.12,-312 298.12,-312 298.12,-318 292.12,-324 286.12,-324"/>
<text text-anchor="middle" x="245.12" y="-300.75" font-family="Arial" font-size="15.00">setup_screen</text>
</g>
<!-- /lib/main.dart&#45;&gt;/lib/screens/setup_screen.dart -->
<g id="edge2" class="edge">
<title>/lib/main.dart&#45;&gt;/lib/screens/setup_screen.dart</title>
<path fill="none" stroke="#aabbaa" stroke-width="1.3" stroke-opacity="0.533333" d="M245.12,-359.7C245.12,-352.49 245.12,-343.93 245.12,-335.82"/>
<polygon fill="#aabbaa" fill-opacity="0.533333" stroke="#aabbaa" stroke-width="1.3" stroke-opacity="0.533333" points="248.63,-336.07 245.13,-326.07 241.63,-336.07 248.63,-336.07"/>
</g>
<!-- /lib/screens/game_screen.dart -->
<g id="node3" class="node">
<title>/lib/screens/game_screen.dart</title>
<path fill="Lavender" stroke="black" stroke-width="1.3" d="M286.5,-252C286.5,-252 203.75,-252 203.75,-252 197.75,-252 191.75,-246 191.75,-240 191.75,-240 191.75,-228 191.75,-228 191.75,-222 197.75,-216 203.75,-216 203.75,-216 286.5,-216 286.5,-216 292.5,-216 298.5,-222 298.5,-228 298.5,-228 298.5,-240 298.5,-240 298.5,-246 292.5,-252 286.5,-252"/>
<text text-anchor="middle" x="245.12" y="-228.75" font-family="Arial" font-size="15.00">game_screen</text>
</g>
<!-- /lib/screens/game_screen.dart&#45;&gt;/lib/game_model.dart -->
<g id="edge6" class="edge">
<title>/lib/screens/game_screen.dart&#45;&gt;/lib/game_model.dart</title>
<path fill="none" stroke="#aabbaa" stroke-width="1.3" stroke-opacity="0.533333" d="M213.42,-215.51C196.33,-205.69 175.12,-192.85 157.12,-180 129.19,-160.05 99.42,-134.65 78.57,-116.09"/>
<polygon fill="#aabbaa" fill-opacity="0.533333" stroke="#aabbaa" stroke-width="1.3" stroke-opacity="0.533333" points="81.18,-113.73 71.4,-109.66 76.5,-118.94 81.18,-113.73"/>
</g>
<!-- /lib/widgets/card_deck.dart -->
<g id="node5" class="node">
<title>/lib/widgets/card_deck.dart</title>
<path fill="Lavender" stroke="black" stroke-width="1.3" d="M354.62,-180C354.62,-180 293.62,-180 293.62,-180 287.62,-180 281.62,-174 281.62,-168 281.62,-168 281.62,-156 281.62,-156 281.62,-150 287.62,-144 293.62,-144 293.62,-144 354.62,-144 354.62,-144 360.62,-144 366.62,-150 366.62,-156 366.62,-156 366.62,-168 366.62,-168 366.62,-174 360.62,-180 354.62,-180"/>
<text text-anchor="middle" x="324.12" y="-156.75" font-family="Arial" font-size="15.00">card_deck</text>
</g>
<!-- /lib/screens/game_screen.dart&#45;&gt;/lib/widgets/card_deck.dart -->
<g id="edge3" class="edge">
<title>/lib/screens/game_screen.dart&#45;&gt;/lib/widgets/card_deck.dart</title>
<path fill="none" stroke="#aabbaa" stroke-width="1.3" stroke-opacity="0.533333" d="M264.65,-215.7C274.05,-207.37 285.5,-197.22 295.83,-188.07"/>
<polygon fill="#aabbaa" fill-opacity="0.533333" stroke="#aabbaa" stroke-width="1.3" stroke-opacity="0.533333" points="297.91,-190.9 303.08,-181.65 293.27,-185.66 297.91,-190.9"/>
</g>
<!-- /lib/widgets/player_zone.dart -->
<g id="node7" class="node">
<title>/lib/widgets/player_zone.dart</title>
<path fill="Lavender" stroke="black" stroke-width="1.3" d="M251.62,-180C251.62,-180 178.62,-180 178.62,-180 172.62,-180 166.62,-174 166.62,-168 166.62,-168 166.62,-156 166.62,-156 166.62,-150 172.62,-144 178.62,-144 178.62,-144 251.62,-144 251.62,-144 257.62,-144 263.62,-150 263.62,-156 263.62,-156 263.62,-168 263.62,-168 263.62,-174 257.62,-180 251.62,-180"/>
<text text-anchor="middle" x="215.12" y="-156.75" font-family="Arial" font-size="15.00">player_zone</text>
</g>
<!-- /lib/screens/game_screen.dart&#45;&gt;/lib/widgets/player_zone.dart -->
<g id="edge4" class="edge">
<title>/lib/screens/game_screen.dart&#45;&gt;/lib/widgets/player_zone.dart</title>
<path fill="none" stroke="#aabbaa" stroke-width="1.3" stroke-opacity="0.533333" d="M237.71,-215.7C234.51,-208.24 230.69,-199.32 227.11,-190.97"/>
<polygon fill="#aabbaa" fill-opacity="0.533333" stroke="#aabbaa" stroke-width="1.3" stroke-opacity="0.533333" points="230.39,-189.73 223.23,-181.91 223.95,-192.48 230.39,-189.73"/>
</g>
<!-- /lib/widgets/screen.dart -->
<g id="node10" class="node">
<title>/lib/widgets/screen.dart</title>
<path fill="Lavender" stroke="black" stroke-width="1.3" d="M433.62,-180C433.62,-180 396.62,-180 396.62,-180 390.62,-180 384.62,-174 384.62,-168 384.62,-168 384.62,-156 384.62,-156 384.62,-150 390.62,-144 396.62,-144 396.62,-144 433.62,-144 433.62,-144 439.62,-144 445.62,-150 445.62,-156 445.62,-156 445.62,-168 445.62,-168 445.62,-174 439.62,-180 433.62,-180"/>
<text text-anchor="middle" x="415.12" y="-156.75" font-family="Arial" font-size="15.00">screen</text>
</g>
<!-- /lib/screens/game_screen.dart&#45;&gt;/lib/widgets/screen.dart -->
<g id="edge5" class="edge">
<title>/lib/screens/game_screen.dart&#45;&gt;/lib/widgets/screen.dart</title>
<path fill="none" stroke="#aabbaa" stroke-width="1.3" stroke-opacity="0.533333" d="M289.21,-215.5C312.19,-206.31 340.99,-194.66 373.73,-180.96"/>
<polygon fill="#aabbaa" fill-opacity="0.533333" stroke="#aabbaa" stroke-width="1.3" stroke-opacity="0.533333" points="374.82,-184.3 382.69,-177.2 372.11,-177.85 374.82,-184.3"/>
</g>
<!-- /lib/screens/setup_screen.dart&#45;&gt;/lib/game_model.dart -->
<g id="edge7" class="edge">
<title>/lib/screens/setup_screen.dart&#45;&gt;/lib/game_model.dart</title>
<path fill="none" stroke="#aabbaa" stroke-width="1.3" stroke-opacity="0.533333" d="M224.2,-287.63C212.06,-277.42 196.56,-264.17 183.12,-252 148.88,-220.97 137.46,-215.7 108.12,-180 92.23,-160.65 77.09,-136.65 66.41,-118.44"/>
<polygon fill="#aabbaa" fill-opacity="0.533333" stroke="#aabbaa" stroke-width="1.3" stroke-opacity="0.533333" points="69.52,-116.84 61.5,-109.92 63.46,-120.33 69.52,-116.84"/>
</g>
<!-- /lib/screens/setup_screen.dart&#45;&gt;/lib/screens/game_screen.dart -->
<g id="edge8" class="edge">
<title>/lib/screens/setup_screen.dart&#45;&gt;/lib/screens/game_screen.dart</title>
<path fill="none" stroke="#aabbaa" stroke-width="1.3" stroke-opacity="0.533333" d="M245.12,-287.7C245.12,-280.49 245.12,-271.93 245.12,-263.82"/>
<polygon fill="#aabbaa" fill-opacity="0.533333" stroke="#aabbaa" stroke-width="1.3" stroke-opacity="0.533333" points="248.63,-264.07 245.13,-254.07 241.63,-264.07 248.63,-264.07"/>
</g>
<!-- /lib/screens/setup_screen.dart&#45;&gt;/lib/widgets/screen.dart -->
<g id="edge9" class="edge">
<title>/lib/screens/setup_screen.dart&#45;&gt;/lib/widgets/screen.dart</title>
<path fill="none" stroke="#aabbaa" stroke-width="1.3" stroke-opacity="0.533333" d="M265.97,-287.59C295.88,-262.61 351.11,-216.47 385.32,-187.89"/>
<polygon fill="#aabbaa" fill-opacity="0.533333" stroke="#aabbaa" stroke-width="1.3" stroke-opacity="0.533333" points="387.43,-190.69 392.87,-181.59 382.95,-185.32 387.43,-190.69"/>
</g>
<!-- /lib/widgets/card_deck.dart&#45;&gt;/lib/widgets/playing_card.dart -->
<g id="edge10" class="edge">
<title>/lib/widgets/card_deck.dart&#45;&gt;/lib/widgets/playing_card.dart</title>
<path fill="none" stroke="#aabbaa" stroke-width="1.3" stroke-opacity="0.533333" d="M366.8,-145.56C401.04,-132.75 444.18,-115.47 449.12,-108 457.96,-94.66 458.17,-85.2 449.12,-72 432.08,-47.13 401.57,-33.93 373.65,-26.92"/>
<polygon fill="#aabbaa" fill-opacity="0.533333" stroke="#aabbaa" stroke-width="1.3" stroke-opacity="0.533333" points="374.75,-23.58 364.23,-24.8 373.21,-30.41 374.75,-23.58"/>
</g>
<!-- /lib/widgets/playing_card_widget.dart -->
<g id="node9" class="node">
<title>/lib/widgets/playing_card_widget.dart</title>
<path fill="Lavender" stroke="black" stroke-width="1.3" d="M427.62,-108C427.62,-108 300.62,-108 300.62,-108 294.62,-108 288.62,-102 288.62,-96 288.62,-96 288.62,-84 288.62,-84 288.62,-78 294.62,-72 300.62,-72 300.62,-72 427.62,-72 427.62,-72 433.62,-72 439.62,-78 439.62,-84 439.62,-84 439.62,-96 439.62,-96 439.62,-102 433.62,-108 427.62,-108"/>
<text text-anchor="middle" x="364.12" y="-84.75" font-family="Arial" font-size="15.00">playing_card_widget</text>
</g>
<!-- /lib/widgets/card_deck.dart&#45;&gt;/lib/widgets/playing_card_widget.dart -->
<g id="edge11" class="edge">
<title>/lib/widgets/card_deck.dart&#45;&gt;/lib/widgets/playing_card_widget.dart</title>
<path fill="none" stroke="#aabbaa" stroke-width="1.3" stroke-opacity="0.533333" d="M334.01,-143.7C338.37,-136.07 343.6,-126.92 348.47,-118.4"/>
<polygon fill="#aabbaa" fill-opacity="0.533333" stroke="#aabbaa" stroke-width="1.3" stroke-opacity="0.533333" points="351.45,-120.23 353.37,-109.81 345.37,-116.76 351.45,-120.23"/>
</g>
<!-- /lib/widgets/player_header.dart -->
<g id="node6" class="node">
<title>/lib/widgets/player_header.dart</title>
<path fill="Lavender" stroke="black" stroke-width="1.3" d="M219.75,-108C219.75,-108 132.5,-108 132.5,-108 126.5,-108 120.5,-102 120.5,-96 120.5,-96 120.5,-84 120.5,-84 120.5,-78 126.5,-72 132.5,-72 132.5,-72 219.75,-72 219.75,-72 225.75,-72 231.75,-78 231.75,-84 231.75,-84 231.75,-96 231.75,-96 231.75,-102 225.75,-108 219.75,-108"/>
<text text-anchor="middle" x="176.12" y="-84.75" font-family="Arial" font-size="15.00">player_header</text>
</g>
<!-- /lib/widgets/player_zone.dart&#45;&gt;/lib/game_model.dart -->
<g id="edge12" class="edge">
<title>/lib/widgets/player_zone.dart&#45;&gt;/lib/game_model.dart</title>
<path fill="none" stroke="#aabbaa" stroke-width="1.3" stroke-opacity="0.533333" d="M174.16,-143.52C152.56,-134.29 125.83,-122.89 102.81,-113.06"/>
<polygon fill="#aabbaa" fill-opacity="0.533333" stroke="#aabbaa" stroke-width="1.3" stroke-opacity="0.533333" points="104.23,-109.86 93.66,-109.15 101.48,-116.3 104.23,-109.86"/>
</g>
<!-- /lib/widgets/player_zone.dart&#45;&gt;/lib/widgets/player_header.dart -->
<g id="edge13" class="edge">
<title>/lib/widgets/player_zone.dart&#45;&gt;/lib/widgets/player_header.dart</title>
<path fill="none" stroke="#aabbaa" stroke-width="1.3" stroke-opacity="0.533333" d="M205.48,-143.7C201.23,-136.07 196.14,-126.92 191.39,-118.4"/>
<polygon fill="#aabbaa" fill-opacity="0.533333" stroke="#aabbaa" stroke-width="1.3" stroke-opacity="0.533333" points="194.54,-116.86 186.61,-109.82 188.42,-120.26 194.54,-116.86"/>
</g>
<!-- /lib/widgets/player_zone.dart&#45;&gt;/lib/widgets/playing_card.dart -->
<g id="edge14" class="edge">
<title>/lib/widgets/player_zone.dart&#45;&gt;/lib/widgets/playing_card.dart</title>
<path fill="none" stroke="#aabbaa" stroke-width="1.3" stroke-opacity="0.533333" d="M227.02,-143.59C243.69,-119.18 274.16,-74.58 293.75,-45.89"/>
<polygon fill="#aabbaa" fill-opacity="0.533333" stroke="#aabbaa" stroke-width="1.3" stroke-opacity="0.533333" points="296.58,-47.97 299.33,-37.74 290.8,-44.02 296.58,-47.97"/>
</g>
<!-- /lib/widgets/player_zone.dart&#45;&gt;/lib/widgets/playing_card_widget.dart -->
<g id="edge15" class="edge">
<title>/lib/widgets/player_zone.dart&#45;&gt;/lib/widgets/playing_card_widget.dart</title>
<path fill="none" stroke="#aabbaa" stroke-width="1.3" stroke-opacity="0.533333" d="M252.34,-143.52C271.7,-134.42 295.59,-123.2 316.31,-113.46"/>
<polygon fill="#aabbaa" fill-opacity="0.533333" stroke="#aabbaa" stroke-width="1.3" stroke-opacity="0.533333" points="317.78,-116.64 325.35,-109.22 314.81,-110.3 317.78,-116.64"/>
</g>
<!-- /lib/widgets/playing_card_widget.dart&#45;&gt;/lib/widgets/playing_card.dart -->
<g id="edge16" class="edge">
<title>/lib/widgets/playing_card_widget.dart&#45;&gt;/lib/widgets/playing_card.dart</title>
<path fill="none" stroke="#aabbaa" stroke-width="1.3" stroke-opacity="0.533333" d="M351.27,-71.7C345.41,-63.81 338.35,-54.3 331.85,-45.55"/>
<polygon fill="#aabbaa" fill-opacity="0.533333" stroke="#aabbaa" stroke-width="1.3" stroke-opacity="0.533333" points="334.78,-43.62 326,-37.68 329.16,-47.8 334.78,-43.62"/>
</g>
<!-- /lib/widgets/table_surface.dart -->
<g id="node11" class="node">
<title>/lib/widgets/table_surface.dart</title>
<path fill="Lavender" stroke="black" stroke-width="1.3" d="M403.12,-468C403.12,-468 321.12,-468 321.12,-468 315.12,-468 309.12,-462 309.12,-456 309.12,-456 309.12,-444 309.12,-444 309.12,-438 315.12,-432 321.12,-432 321.12,-432 403.12,-432 403.12,-432 409.12,-432 415.12,-438 415.12,-444 415.12,-444 415.12,-456 415.12,-456 415.12,-462 409.12,-468 403.12,-468"/>
<text text-anchor="middle" x="362.12" y="-444.75" font-family="Arial" font-size="15.00">table_surface</text>
</g>
<!-- /test/widget_test.dart -->
<g id="node12" class="node">
<title>/test/widget_test.dart</title>
<path fill="Lavender" stroke="black" stroke-width="1.3" d="M279,-468C279,-468 211.25,-468 211.25,-468 205.25,-468 199.25,-462 199.25,-456 199.25,-456 199.25,-444 199.25,-444 199.25,-438 205.25,-432 211.25,-432 211.25,-432 279,-432 279,-432 285,-432 291,-438 291,-444 291,-444 291,-456 291,-456 291,-462 285,-468 279,-468"/>
<text text-anchor="middle" x="245.12" y="-444.75" font-family="Arial" font-size="15.00">widget_test</text>
</g>
<!-- /test/widget_test.dart&#45;&gt;/lib/main.dart -->
<g id="edge17" class="edge">
<title>/test/widget_test.dart&#45;&gt;/lib/main.dart</title>
<path fill="none" stroke="#aabbaa" stroke-width="1.3" stroke-opacity="0.533333" d="M245.12,-431.7C245.12,-424.49 245.12,-415.93 245.12,-407.82"/>
<polygon fill="#aabbaa" fill-opacity="0.533333" stroke="#aabbaa" stroke-width="1.3" stroke-opacity="0.533333" points="248.63,-408.07 245.13,-398.07 241.63,-408.07 248.63,-408.07"/>
</g>
</g>
</svg>
