<?xml version="1.0" encoding="UTF-8" standalone="no"?>
<!DOCTYPE svg PUBLIC "-//W3C//DTD SVG 1.1//EN"
 "http://www.w3.org/Graphics/SVG/1.1/DTD/svg11.dtd">
<!-- Generated by graphviz version 12.1.2 (20240928.0832)
 -->
<!-- Pages: 1 -->
<svg width="483pt" height="747pt"
 viewBox="0.00 0.00 483.00 747.00" xmlns="http://www.w3.org/2000/svg" xmlns:xlink="http://www.w3.org/1999/xlink">
<g id="graph0" class="graph" transform="scale(1 1) rotate(0) translate(4 743)">
<polygon fill="white" stroke="none" points="-4,4 -4,-743 479,-743 479,4 -4,4"/>
<g id="clust1" class="cluster">
<title>cluster~</title>
<path fill="none" stroke="lightgray" stroke-width="2.6" d="M20,-8C20,-8 455,-8 455,-8 461,-8 467,-14 467,-20 467,-20 467,-719 467,-719 467,-725 461,-731 455,-731 455,-731 20,-731 20,-731 14,-731 8,-725 8,-719 8,-719 8,-20 8,-20 8,-14 14,-8 20,-8"/>
<text text-anchor="middle" x="237.5" y="-714.65" font-family="Arial Black" font-size="13.00">cards</text>
</g>
<g id="clust2" class="cluster">
<title>cluster~/test</title>
<path fill="none" stroke="lightgray" stroke-width="2.6" d="M273,-625C273,-625 357,-625 357,-625 363,-625 369,-631 369,-637 369,-637 369,-688 369,-688 369,-694 363,-700 357,-700 357,-700 273,-700 273,-700 267,-700 261,-694 261,-688 261,-688 261,-637 261,-637 261,-631 267,-625 273,-625"/>
<text text-anchor="middle" x="315" y="-683.65" font-family="Arial Black" font-size="13.00">test</text>
</g>
<g id="clust3" class="cluster">
<title>cluster~/lib</title>
<path fill="none" stroke="lightgray" stroke-width="2.6" d="M28,-16C28,-16 447,-16 447,-16 453,-16 459,-22 459,-28 459,-28 459,-605 459,-605 459,-611 453,-617 447,-617 447,-617 28,-617 28,-617 22,-617 16,-611 16,-605 16,-605 16,-28 16,-28 16,-22 22,-16 28,-16"/>
<text text-anchor="middle" x="237.5" y="-600.65" font-family="Arial Black" font-size="13.00">lib</text>
</g>
<g id="clust4" class="cluster">
<title>cluster~/lib/screens</title>
<path fill="none" stroke="lightgray" stroke-width="2.6" d="M266,-395C266,-395 364,-395 364,-395 370,-395 376,-401 376,-407 376,-407 376,-530 376,-530 376,-536 370,-542 364,-542 364,-542 266,-542 266,-542 260,-542 254,-536 254,-530 254,-530 254,-407 254,-407 254,-401 260,-395 266,-395"/>
<text text-anchor="middle" x="315" y="-525.65" font-family="Arial Black" font-size="13.00">screens</text>
</g>
<g id="clust5" class="cluster">
<title>cluster~/lib/widgets</title>
<path fill="none" stroke="lightgray" stroke-width="2.6" d="M146,-24C146,-24 439,-24 439,-24 445,-24 451,-30 451,-36 451,-36 451,-375 451,-375 451,-381 445,-387 439,-387 439,-387 146,-387 146,-387 140,-387 134,-381 134,-375 134,-375 134,-36 134,-36 134,-30 140,-24 146,-24"/>
<text text-anchor="middle" x="292.5" y="-370.65" font-family="Arial Black" font-size="13.00">widgets</text>
</g>
<!-- /test/widget_test.dart -->
<g id="node1" class="node">
<title>/test/widget_test.dart</title>
<path fill="Lavender" stroke="black" stroke-width="1.3" d="M348.88,-669C348.88,-669 281.12,-669 281.12,-669 275.12,-669 269.12,-663 269.12,-657 269.12,-657 269.12,-645 269.12,-645 269.12,-639 275.12,-633 281.12,-633 281.12,-633 348.88,-633 348.88,-633 354.88,-633 360.88,-639 360.88,-645 360.88,-645 360.88,-657 360.88,-657 360.88,-663 354.88,-669 348.88,-669"/>
<text text-anchor="middle" x="315" y="-645.75" font-family="Arial" font-size="15.00">widget_test</text>
</g>
<!-- /lib/main.dart -->
<g id="node5" class="node">
<title>/lib/main.dart</title>
<path fill="Lavender" stroke="black" stroke-width="1.3" d="M330,-586C330,-586 300,-586 300,-586 294,-586 288,-580 288,-574 288,-574 288,-562 288,-562 288,-556 294,-550 300,-550 300,-550 330,-550 330,-550 336,-550 342,-556 342,-562 342,-562 342,-574 342,-574 342,-580 336,-586 330,-586"/>
<text text-anchor="middle" x="315" y="-562.75" font-family="Arial" font-size="15.00">main</text>
</g>
<!-- /test/widget_test.dart&#45;&gt;/lib/main.dart -->
<g id="edge1" class="edge">
<title>/test/widget_test.dart&#45;&gt;/lib/main.dart</title>
<path fill="none" stroke="#aabbaa" stroke-width="1.3" stroke-opacity="0.533333" d="M315,-632.82C315,-622.8 315,-609.88 315,-598.29"/>
<polygon fill="#aabbaa" fill-opacity="0.533333" stroke="#aabbaa" stroke-width="1.3" stroke-opacity="0.533333" points="318.5,-598.4 315,-588.4 311.5,-598.4 318.5,-598.4"/>
</g>
<!-- /lib/game_model.dart -->
<g id="node2" class="node">
<title>/lib/game_model.dart</title>
<path fill="Lavender" stroke="black" stroke-width="1.3" d="M114.12,-212C114.12,-212 35.88,-212 35.88,-212 29.88,-212 23.88,-206 23.88,-200 23.88,-200 23.88,-188 23.88,-188 23.88,-182 29.88,-176 35.88,-176 35.88,-176 114.12,-176 114.12,-176 120.12,-176 126.12,-182 126.12,-188 126.12,-188 126.12,-200 126.12,-200 126.12,-206 120.12,-212 114.12,-212"/>
<text text-anchor="middle" x="75" y="-188.75" font-family="Arial" font-size="15.00">game_model</text>
</g>
<!-- /lib/widgets/playing_card.dart -->
<g id="node10" class="node">
<title>/lib/widgets/playing_card.dart</title>
<path fill="Lavender" stroke="black" stroke-width="1.3" d="M253,-68C253,-68 177,-68 177,-68 171,-68 165,-62 165,-56 165,-56 165,-44 165,-44 165,-38 171,-32 177,-32 177,-32 253,-32 253,-32 259,-32 265,-38 265,-44 265,-44 265,-56 265,-56 265,-62 259,-68 253,-68"/>
<text text-anchor="middle" x="215" y="-44.75" font-family="Arial" font-size="15.00">playing_card</text>
</g>
<!-- /lib/game_model.dart&#45;&gt;/lib/widgets/playing_card.dart -->
<g id="edge2" class="edge">
<title>/lib/game_model.dart&#45;&gt;/lib/widgets/playing_card.dart</title>
<path fill="none" stroke="#aabbaa" stroke-width="1.3" stroke-opacity="0.533333" d="M86.96,-175.58C100.24,-156.85 122.87,-126.71 146,-104 156.34,-93.85 168.61,-83.87 179.92,-75.35"/>
<polygon fill="#aabbaa" fill-opacity="0.533333" stroke="#aabbaa" stroke-width="1.3" stroke-opacity="0.533333" points="181.98,-78.19 187.96,-69.44 177.83,-72.55 181.98,-78.19"/>
</g>
<!-- /lib/screens/game_screen.dart -->
<g id="node3" class="node">
<title>/lib/screens/game_screen.dart</title>
<path fill="Lavender" stroke="black" stroke-width="1.3" d="M356.38,-439C356.38,-439 273.62,-439 273.62,-439 267.62,-439 261.62,-433 261.62,-427 261.62,-427 261.62,-415 261.62,-415 261.62,-409 267.62,-403 273.62,-403 273.62,-403 356.38,-403 356.38,-403 362.38,-403 368.38,-409 368.38,-415 368.38,-415 368.38,-427 368.38,-427 368.38,-433 362.38,-439 356.38,-439"/>
<text text-anchor="middle" x="315" y="-415.75" font-family="Arial" font-size="15.00">game_screen</text>
</g>
<!-- /lib/screens/game_screen.dart&#45;&gt;/lib/game_model.dart -->
<g id="edge5" class="edge">
<title>/lib/screens/game_screen.dart&#45;&gt;/lib/game_model.dart</title>
<path fill="none" stroke="#aabbaa" stroke-width="1.3" stroke-opacity="0.533333" d="M280.4,-402.53C273.16,-399.54 265.46,-396.81 258,-395 244.15,-391.64 141.11,-395.93 130,-387 104.58,-366.57 86.82,-272.48 79.19,-224.03"/>
<polygon fill="#aabbaa" fill-opacity="0.533333" stroke="#aabbaa" stroke-width="1.3" stroke-opacity="0.533333" points="82.69,-223.79 77.72,-214.43 75.77,-224.85 82.69,-223.79"/>
</g>
<!-- /lib/widgets/player_zone.dart -->
<g id="node9" class="node">
<title>/lib/widgets/player_zone.dart</title>
<path fill="Lavender" stroke="black" stroke-width="1.3" d="M351.5,-356C351.5,-356 278.5,-356 278.5,-356 272.5,-356 266.5,-350 266.5,-344 266.5,-344 266.5,-332 266.5,-332 266.5,-326 272.5,-320 278.5,-320 278.5,-320 351.5,-320 351.5,-320 357.5,-320 363.5,-326 363.5,-332 363.5,-332 363.5,-344 363.5,-344 363.5,-350 357.5,-356 351.5,-356"/>
<text text-anchor="middle" x="315" y="-332.75" font-family="Arial" font-size="15.00">player_zone</text>
</g>
<!-- /lib/screens/game_screen.dart&#45;&gt;/lib/widgets/player_zone.dart -->
<g id="edge3" class="edge">
<title>/lib/screens/game_screen.dart&#45;&gt;/lib/widgets/player_zone.dart</title>
<path fill="none" stroke="#aabbaa" stroke-width="1.3" stroke-opacity="0.533333" d="M315,-402.82C315,-392.8 315,-379.88 315,-368.29"/>
<polygon fill="#aabbaa" fill-opacity="0.533333" stroke="#aabbaa" stroke-width="1.3" stroke-opacity="0.533333" points="318.5,-368.4 315,-358.4 311.5,-368.4 318.5,-368.4"/>
</g>
<!-- /lib/widgets/screen.dart -->
<g id="node12" class="node">
<title>/lib/widgets/screen.dart</title>
<path fill="Lavender" stroke="black" stroke-width="1.3" d="M430.5,-356C430.5,-356 393.5,-356 393.5,-356 387.5,-356 381.5,-350 381.5,-344 381.5,-344 381.5,-332 381.5,-332 381.5,-326 387.5,-320 393.5,-320 393.5,-320 430.5,-320 430.5,-320 436.5,-320 442.5,-326 442.5,-332 442.5,-332 442.5,-344 442.5,-344 442.5,-350 436.5,-356 430.5,-356"/>
<text text-anchor="middle" x="412" y="-332.75" font-family="Arial" font-size="15.00">screen</text>
</g>
<!-- /lib/screens/game_screen.dart&#45;&gt;/lib/widgets/screen.dart -->
<g id="edge4" class="edge">
<title>/lib/screens/game_screen.dart&#45;&gt;/lib/widgets/screen.dart</title>
<path fill="none" stroke="#aabbaa" stroke-width="1.3" stroke-opacity="0.533333" d="M350.43,-402.62C358.23,-398.05 366.19,-392.77 373,-387 380.37,-380.75 387.38,-372.97 393.37,-365.49"/>
<polygon fill="#aabbaa" fill-opacity="0.533333" stroke="#aabbaa" stroke-width="1.3" stroke-opacity="0.533333" points="395.88,-367.97 399.17,-357.9 390.32,-363.72 395.88,-367.97"/>
</g>
<!-- /lib/screens/setup_screen.dart -->
<g id="node4" class="node">
<title>/lib/screens/setup_screen.dart</title>
<path fill="Lavender" stroke="black" stroke-width="1.3" d="M356,-511C356,-511 274,-511 274,-511 268,-511 262,-505 262,-499 262,-499 262,-487 262,-487 262,-481 268,-475 274,-475 274,-475 356,-475 356,-475 362,-475 368,-481 368,-487 368,-487 368,-499 368,-499 368,-505 362,-511 356,-511"/>
<text text-anchor="middle" x="315" y="-487.75" font-family="Arial" font-size="15.00">setup_screen</text>
</g>
<!-- /lib/screens/setup_screen.dart&#45;&gt;/lib/game_model.dart -->
<g id="edge6" class="edge">
<title>/lib/screens/setup_screen.dart&#45;&gt;/lib/game_model.dart</title>
<path fill="none" stroke="#aabbaa" stroke-width="1.3" stroke-opacity="0.533333" d="M261.61,-481.46C210.58,-468.43 135.72,-441.01 96,-387 60.61,-338.88 64.3,-264.75 69.82,-224.12"/>
<polygon fill="#aabbaa" fill-opacity="0.533333" stroke="#aabbaa" stroke-width="1.3" stroke-opacity="0.533333" points="73.27,-224.77 71.3,-214.36 66.34,-223.72 73.27,-224.77"/>
</g>
<!-- /lib/screens/setup_screen.dart&#45;&gt;/lib/screens/game_screen.dart -->
<g id="edge7" class="edge">
<title>/lib/screens/setup_screen.dart&#45;&gt;/lib/screens/game_screen.dart</title>
<path fill="none" stroke="#aabbaa" stroke-width="1.3" stroke-opacity="0.533333" d="M315,-474.7C315,-467.49 315,-458.93 315,-450.82"/>
<polygon fill="#aabbaa" fill-opacity="0.533333" stroke="#aabbaa" stroke-width="1.3" stroke-opacity="0.533333" points="318.5,-451.07 315,-441.07 311.5,-451.07 318.5,-451.07"/>
</g>
<!-- /lib/screens/setup_screen.dart&#45;&gt;/lib/widgets/screen.dart -->
<g id="edge8" class="edge">
<title>/lib/screens/setup_screen.dart&#45;&gt;/lib/widgets/screen.dart</title>
<path fill="none" stroke="#aabbaa" stroke-width="1.3" stroke-opacity="0.533333" d="M341.09,-474.66C353.42,-465.34 367.48,-452.91 377,-439 391.85,-417.3 401.03,-388.66 406.24,-367.59"/>
<polygon fill="#aabbaa" fill-opacity="0.533333" stroke="#aabbaa" stroke-width="1.3" stroke-opacity="0.533333" points="409.59,-368.61 408.42,-358.08 402.77,-367.05 409.59,-368.61"/>
</g>
<!-- /lib/main.dart&#45;&gt;/lib/screens/setup_screen.dart -->
<g id="edge9" class="edge">
<title>/lib/main.dart&#45;&gt;/lib/screens/setup_screen.dart</title>
<path fill="none" stroke="#aabbaa" stroke-width="1.3" stroke-opacity="0.533333" d="M315,-549.7C315,-541.76 315,-532.12 315,-523.11"/>
<polygon fill="#aabbaa" fill-opacity="0.533333" stroke="#aabbaa" stroke-width="1.3" stroke-opacity="0.533333" points="318.5,-523.4 315,-513.4 311.5,-523.4 318.5,-523.4"/>
</g>
<!-- /lib/widgets/playing_card_widget.dart -->
<g id="node6" class="node">
<title>/lib/widgets/playing_card_widget.dart</title>
<path fill="Lavender" stroke="black" stroke-width="1.3" d="M301.5,-140C301.5,-140 174.5,-140 174.5,-140 168.5,-140 162.5,-134 162.5,-128 162.5,-128 162.5,-116 162.5,-116 162.5,-110 168.5,-104 174.5,-104 174.5,-104 301.5,-104 301.5,-104 307.5,-104 313.5,-110 313.5,-116 313.5,-116 313.5,-128 313.5,-128 313.5,-134 307.5,-140 301.5,-140"/>
<text text-anchor="middle" x="238" y="-116.75" font-family="Arial" font-size="15.00">playing_card_widget</text>
</g>
<!-- /lib/widgets/playing_card_widget.dart&#45;&gt;/lib/widgets/playing_card.dart -->
<g id="edge10" class="edge">
<title>/lib/widgets/playing_card_widget.dart&#45;&gt;/lib/widgets/playing_card.dart</title>
<path fill="none" stroke="#aabbaa" stroke-width="1.3" stroke-opacity="0.533333" d="M232.31,-103.7C229.89,-96.32 227,-87.52 224.28,-79.25"/>
<polygon fill="#aabbaa" fill-opacity="0.533333" stroke="#aabbaa" stroke-width="1.3" stroke-opacity="0.533333" points="227.68,-78.38 221.23,-69.97 221.03,-80.57 227.68,-78.38"/>
</g>
<!-- /lib/widgets/card_deck.dart -->
<g id="node7" class="node">
<title>/lib/widgets/card_deck.dart</title>
<path fill="Lavender" stroke="black" stroke-width="1.3" d="M217.5,-212C217.5,-212 156.5,-212 156.5,-212 150.5,-212 144.5,-206 144.5,-200 144.5,-200 144.5,-188 144.5,-188 144.5,-182 150.5,-176 156.5,-176 156.5,-176 217.5,-176 217.5,-176 223.5,-176 229.5,-182 229.5,-188 229.5,-188 229.5,-200 229.5,-200 229.5,-206 223.5,-212 217.5,-212"/>
<text text-anchor="middle" x="187" y="-188.75" font-family="Arial" font-size="15.00">card_deck</text>
</g>
<!-- /lib/widgets/card_deck.dart&#45;&gt;/lib/widgets/playing_card_widget.dart -->
<g id="edge12" class="edge">
<title>/lib/widgets/card_deck.dart&#45;&gt;/lib/widgets/playing_card_widget.dart</title>
<path fill="none" stroke="#aabbaa" stroke-width="1.3" stroke-opacity="0.533333" d="M199.61,-175.7C205.35,-167.81 212.28,-158.3 218.66,-149.55"/>
<polygon fill="#aabbaa" fill-opacity="0.533333" stroke="#aabbaa" stroke-width="1.3" stroke-opacity="0.533333" points="221.32,-151.84 224.38,-141.69 215.66,-147.72 221.32,-151.84"/>
</g>
<!-- /lib/widgets/card_deck.dart&#45;&gt;/lib/widgets/playing_card.dart -->
<g id="edge11" class="edge">
<title>/lib/widgets/card_deck.dart&#45;&gt;/lib/widgets/playing_card.dart</title>
<path fill="none" stroke="#aabbaa" stroke-width="1.3" stroke-opacity="0.533333" d="M172.44,-175.64C159.08,-157.48 142.93,-128.29 154,-104 158.98,-93.09 167.43,-83.55 176.49,-75.69"/>
<polygon fill="#aabbaa" fill-opacity="0.533333" stroke="#aabbaa" stroke-width="1.3" stroke-opacity="0.533333" points="178.46,-78.59 184.1,-69.62 174.1,-73.12 178.46,-78.59"/>
</g>
<!-- /lib/widgets/table_surface.dart -->
<g id="node8" class="node">
<title>/lib/widgets/table_surface.dart</title>
<path fill="Lavender" stroke="black" stroke-width="1.3" d="M236,-356C236,-356 154,-356 154,-356 148,-356 142,-350 142,-344 142,-344 142,-332 142,-332 142,-326 148,-320 154,-320 154,-320 236,-320 236,-320 242,-320 248,-326 248,-332 248,-332 248,-344 248,-344 248,-350 242,-356 236,-356"/>
<text text-anchor="middle" x="195" y="-332.75" font-family="Arial" font-size="15.00">table_surface</text>
</g>
<!-- /lib/widgets/player_zone.dart&#45;&gt;/lib/game_model.dart -->
<g id="edge13" class="edge">
<title>/lib/widgets/player_zone.dart&#45;&gt;/lib/game_model.dart</title>
<path fill="none" stroke="#aabbaa" stroke-width="1.3" stroke-opacity="0.533333" d="M266.33,-322.69C213.56,-307.17 136.69,-284.5 136,-284 124.43,-275.58 104.94,-245.5 91.1,-222.62"/>
<polygon fill="#aabbaa" fill-opacity="0.533333" stroke="#aabbaa" stroke-width="1.3" stroke-opacity="0.533333" points="94.15,-220.89 86.02,-214.1 88.14,-224.48 94.15,-220.89"/>
</g>
<!-- /lib/widgets/player_zone.dart&#45;&gt;/lib/widgets/playing_card_widget.dart -->
<g id="edge17" class="edge">
<title>/lib/widgets/player_zone.dart&#45;&gt;/lib/widgets/playing_card_widget.dart</title>
<path fill="none" stroke="#aabbaa" stroke-width="1.3" stroke-opacity="0.533333" d="M363.87,-320.92C392.23,-310.49 423.9,-296.56 432,-284 440.67,-270.55 439.66,-262.05 432,-248 404.45,-197.47 346.73,-164.29 301.37,-144.89"/>
<polygon fill="#aabbaa" fill-opacity="0.533333" stroke="#aabbaa" stroke-width="1.3" stroke-opacity="0.533333" points="302.83,-141.71 292.25,-141.13 300.16,-148.18 302.83,-141.71"/>
</g>
<!-- /lib/widgets/player_zone.dart&#45;&gt;/lib/widgets/playing_card.dart -->
<g id="edge16" class="edge">
<title>/lib/widgets/player_zone.dart&#45;&gt;/lib/widgets/playing_card.dart</title>
<path fill="none" stroke="#aabbaa" stroke-width="1.3" stroke-opacity="0.533333" d="M309.59,-319.53C306.7,-309.29 303.45,-296.04 302,-284 294.24,-219.79 316.8,-204.38 323,-140 324.53,-124.07 331.46,-117.58 323,-104 312.38,-86.97 294.52,-75.25 276.34,-67.26"/>
<polygon fill="#aabbaa" fill-opacity="0.533333" stroke="#aabbaa" stroke-width="1.3" stroke-opacity="0.533333" points="277.77,-64.06 267.18,-63.6 275.17,-70.56 277.77,-64.06"/>
</g>
<!-- /lib/widgets/player_zone_cta.dart -->
<g id="node11" class="node">
<title>/lib/widgets/player_zone_cta.dart</title>
<path fill="Lavender" stroke="black" stroke-width="1.3" d="M258.75,-284C258.75,-284 157.25,-284 157.25,-284 151.25,-284 145.25,-278 145.25,-272 145.25,-272 145.25,-260 145.25,-260 145.25,-254 151.25,-248 157.25,-248 157.25,-248 258.75,-248 258.75,-248 264.75,-248 270.75,-254 270.75,-260 270.75,-260 270.75,-272 270.75,-272 270.75,-278 264.75,-284 258.75,-284"/>
<text text-anchor="middle" x="208" y="-260.75" font-family="Arial" font-size="15.00">player_zone_cta</text>
</g>
<!-- /lib/widgets/player_zone.dart&#45;&gt;/lib/widgets/player_zone_cta.dart -->
<g id="edge15" class="edge">
<title>/lib/widgets/player_zone.dart&#45;&gt;/lib/widgets/player_zone_cta.dart</title>
<path fill="none" stroke="#aabbaa" stroke-width="1.3" stroke-opacity="0.533333" d="M288.28,-319.52C274.9,-310.76 258.51,-300.04 244.04,-290.58"/>
<polygon fill="#aabbaa" fill-opacity="0.533333" stroke="#aabbaa" stroke-width="1.3" stroke-opacity="0.533333" points="246.32,-287.88 236.03,-285.34 242.48,-293.74 246.32,-287.88"/>
</g>
<!-- /lib/widgets/player_header.dart -->
<g id="node13" class="node">
<title>/lib/widgets/player_header.dart</title>
<path fill="Lavender" stroke="black" stroke-width="1.3" d="M410.62,-284C410.62,-284 323.38,-284 323.38,-284 317.38,-284 311.38,-278 311.38,-272 311.38,-272 311.38,-260 311.38,-260 311.38,-254 317.38,-248 323.38,-248 323.38,-248 410.62,-248 410.62,-248 416.62,-248 422.62,-254 422.62,-260 422.62,-260 422.62,-272 422.62,-272 422.62,-278 416.62,-284 410.62,-284"/>
<text text-anchor="middle" x="367" y="-260.75" font-family="Arial" font-size="15.00">player_header</text>
</g>
<!-- /lib/widgets/player_zone.dart&#45;&gt;/lib/widgets/player_header.dart -->
<g id="edge14" class="edge">
<title>/lib/widgets/player_zone.dart&#45;&gt;/lib/widgets/player_header.dart</title>
<path fill="none" stroke="#aabbaa" stroke-width="1.3" stroke-opacity="0.533333" d="M327.85,-319.7C333.71,-311.81 340.77,-302.3 347.28,-293.55"/>
<polygon fill="#aabbaa" fill-opacity="0.533333" stroke="#aabbaa" stroke-width="1.3" stroke-opacity="0.533333" points="349.97,-295.8 353.12,-285.68 344.35,-291.62 349.97,-295.8"/>
</g>
<!-- /lib/widgets/player_zone_cta.dart&#45;&gt;/lib/game_model.dart -->
<g id="edge18" class="edge">
<title>/lib/widgets/player_zone_cta.dart&#45;&gt;/lib/game_model.dart</title>
<path fill="none" stroke="#aabbaa" stroke-width="1.3" stroke-opacity="0.533333" d="M174.78,-247.52C157.67,-238.51 136.6,-227.42 118.24,-217.76"/>
<polygon fill="#aabbaa" fill-opacity="0.533333" stroke="#aabbaa" stroke-width="1.3" stroke-opacity="0.533333" points="120.02,-214.74 109.54,-213.18 116.76,-220.93 120.02,-214.74"/>
</g>
<!-- /lib/widgets/player_zone_cta.dart&#45;&gt;/lib/widgets/playing_card_widget.dart -->
<g id="edge20" class="edge">
<title>/lib/widgets/player_zone_cta.dart&#45;&gt;/lib/widgets/playing_card_widget.dart</title>
<path fill="none" stroke="#aabbaa" stroke-width="1.3" stroke-opacity="0.533333" d="M221.15,-247.91C227.92,-238.01 235.49,-224.96 239,-212 244.27,-192.56 243.91,-169.84 242.29,-152.22"/>
<polygon fill="#aabbaa" fill-opacity="0.533333" stroke="#aabbaa" stroke-width="1.3" stroke-opacity="0.533333" points="245.78,-151.91 241.18,-142.37 238.83,-152.7 245.78,-151.91"/>
</g>
<!-- /lib/widgets/player_zone_cta.dart&#45;&gt;/lib/widgets/card_deck.dart -->
<g id="edge19" class="edge">
<title>/lib/widgets/player_zone_cta.dart&#45;&gt;/lib/widgets/card_deck.dart</title>
<path fill="none" stroke="#aabbaa" stroke-width="1.3" stroke-opacity="0.533333" d="M202.81,-247.7C200.62,-240.41 198.02,-231.73 195.56,-223.54"/>
<polygon fill="#aabbaa" fill-opacity="0.533333" stroke="#aabbaa" stroke-width="1.3" stroke-opacity="0.533333" points="198.92,-222.56 192.7,-213.99 192.22,-224.57 198.92,-222.56"/>
</g>
</g>
</svg>
