<?xml version="1.0" encoding="UTF-8" standalone="no"?>
<!DOCTYPE svg PUBLIC "-//W3C//DTD SVG 1.1//EN"
 "http://www.w3.org/Graphics/SVG/1.1/DTD/svg11.dtd">
<!-- Generated by graphviz version 12.1.2 (20240928.0832)
 -->
<!-- Pages: 1 -->
<svg width="1663pt" height="742pt"
 viewBox="0.00 0.00 1663.00 742.00" xmlns="http://www.w3.org/2000/svg" xmlns:xlink="http://www.w3.org/1999/xlink">
<g id="graph0" class="graph" transform="scale(1 1) rotate(0) translate(4 738)">
<polygon fill="white" stroke="none" points="-4,4 -4,-738 1659,-738 1659,4 -4,4"/>
<g id="clust1" class="cluster">
<title>cluster~</title>
<path fill="none" stroke="lightgray" stroke-width="2.6" d="M20,-8C20,-8 1635,-8 1635,-8 1641,-8 1647,-14 1647,-20 1647,-20 1647,-714 1647,-714 1647,-720 1641,-726 1635,-726 1635,-726 20,-726 20,-726 14,-726 8,-720 8,-714 8,-714 8,-20 8,-20 8,-14 14,-8 20,-8"/>
<text text-anchor="middle" x="827.5" y="-709.65" font-family="Arial Black" font-size="13.00">cards</text>
</g>
<g id="clust2" class="cluster">
<title>cluster~/test</title>
<path fill="none" stroke="lightgray" stroke-width="2.6" d="M28,-251C28,-251 156,-251 156,-251 162,-251 168,-257 168,-263 168,-263 168,-314 168,-314 168,-320 162,-326 156,-326 156,-326 28,-326 28,-326 22,-326 16,-320 16,-314 16,-314 16,-263 16,-263 16,-257 22,-251 28,-251"/>
<text text-anchor="middle" x="92" y="-309.65" font-family="Arial Black" font-size="13.00">test</text>
</g>
<g id="clust3" class="cluster">
<title>cluster~/lib</title>
<path fill="none" stroke="lightgray" stroke-width="2.6" d="M188,-16C188,-16 1627,-16 1627,-16 1633,-16 1639,-22 1639,-28 1639,-28 1639,-683 1639,-683 1639,-689 1633,-695 1627,-695 1627,-695 188,-695 188,-695 182,-695 176,-689 176,-683 176,-683 176,-28 176,-28 176,-22 182,-16 188,-16"/>
<text text-anchor="middle" x="907.5" y="-678.65" font-family="Arial Black" font-size="13.00">lib</text>
</g>
<g id="clust4" class="cluster">
<title>cluster~/lib/models</title>
<path fill="none" stroke="lightgray" stroke-width="2.6" d="M1082,-24C1082,-24 1433,-24 1433,-24 1439,-24 1445,-30 1445,-36 1445,-36 1445,-231 1445,-231 1445,-237 1439,-243 1433,-243 1433,-243 1082,-243 1082,-243 1076,-243 1070,-237 1070,-231 1070,-231 1070,-36 1070,-36 1070,-30 1076,-24 1082,-24"/>
<text text-anchor="middle" x="1257.5" y="-226.65" font-family="Arial Black" font-size="13.00">models</text>
</g>
<g id="clust5" class="cluster">
<title>cluster~/lib/screens</title>
<path fill="none" stroke="lightgray" stroke-width="2.6" d="M208,-398C208,-398 326,-398 326,-398 332,-398 338,-404 338,-410 338,-410 338,-608 338,-608 338,-614 332,-620 326,-620 326,-620 208,-620 208,-620 202,-620 196,-614 196,-608 196,-608 196,-410 196,-410 196,-404 202,-398 208,-398"/>
<text text-anchor="middle" x="267" y="-603.65" font-family="Arial Black" font-size="13.00">screens</text>
</g>
<g id="clust6" class="cluster">
<title>cluster~/lib/widgets</title>
<path fill="none" stroke="lightgray" stroke-width="2.6" d="M358,-96C358,-96 1050,-96 1050,-96 1056,-96 1062,-102 1062,-108 1062,-108 1062,-461 1062,-461 1062,-467 1056,-473 1050,-473 1050,-473 358,-473 358,-473 352,-473 346,-467 346,-461 346,-461 346,-108 346,-108 346,-102 352,-96 358,-96"/>
<text text-anchor="middle" x="704" y="-456.65" font-family="Arial Black" font-size="13.00">widgets</text>
</g>
<!-- /test/game_model_test.dart -->
<g id="node1" class="node">
<title>/test/game_model_test.dart</title>
<path fill="Lavender" stroke="black" stroke-width="1.3" d="M147.62,-295C147.62,-295 36.38,-295 36.38,-295 30.38,-295 24.38,-289 24.38,-283 24.38,-283 24.38,-271 24.38,-271 24.38,-265 30.38,-259 36.38,-259 36.38,-259 147.62,-259 147.62,-259 153.62,-259 159.62,-265 159.62,-271 159.62,-271 159.62,-283 159.62,-283 159.62,-289 153.62,-295 147.62,-295"/>
<text text-anchor="middle" x="92" y="-271.75" font-family="Arial" font-size="15.00">game_model_test</text>
</g>
<!-- /lib/models/game_model.dart -->
<g id="node4" class="node">
<title>/lib/models/game_model.dart</title>
<path fill="Lavender" stroke="black" stroke-width="1.3" d="M1168.12,-212C1168.12,-212 1089.88,-212 1089.88,-212 1083.88,-212 1077.88,-206 1077.88,-200 1077.88,-200 1077.88,-188 1077.88,-188 1077.88,-182 1083.88,-176 1089.88,-176 1089.88,-176 1168.12,-176 1168.12,-176 1174.12,-176 1180.12,-182 1180.12,-188 1180.12,-188 1180.12,-200 1180.12,-200 1180.12,-206 1174.12,-212 1168.12,-212"/>
<text text-anchor="middle" x="1129" y="-188.75" font-family="Arial" font-size="15.00">game_model</text>
</g>
<!-- /test/game_model_test.dart&#45;&gt;/lib/models/game_model.dart -->
<g id="edge1" class="edge">
<title>/test/game_model_test.dart&#45;&gt;/lib/models/game_model.dart</title>
<path fill="none" stroke="#aabbaa" stroke-width="1.3" stroke-opacity="0.533333" d="M160.05,-267.55C210.25,-261.72 280.26,-254.42 342,-251 362.08,-249.89 1046.98,-249.54 1066,-243 1079.88,-238.23 1093.14,-229.09 1103.88,-220.06"/>
<polygon fill="#aabbaa" fill-opacity="0.533333" stroke="#aabbaa" stroke-width="1.3" stroke-opacity="0.533333" points="1106.02,-222.84 1111.15,-213.57 1101.36,-217.62 1106.02,-222.84"/>
</g>
<!-- /lib/firebase_options_private.dart -->
<g id="node2" class="node">
<title>/lib/firebase_options_private.dart</title>
<path fill="Lavender" stroke="black" stroke-width="1.3" d="M1619.38,-68C1619.38,-68 1464.62,-68 1464.62,-68 1458.62,-68 1452.62,-62 1452.62,-56 1452.62,-56 1452.62,-44 1452.62,-44 1452.62,-38 1458.62,-32 1464.62,-32 1464.62,-32 1619.38,-32 1619.38,-32 1625.38,-32 1631.38,-38 1631.38,-44 1631.38,-44 1631.38,-56 1631.38,-56 1631.38,-62 1625.38,-68 1619.38,-68"/>
<text text-anchor="middle" x="1542" y="-44.75" font-family="Arial" font-size="15.00">firebase_options_private</text>
</g>
<!-- /lib/firebase_options.dart -->
<g id="node3" class="node">
<title>/lib/firebase_options.dart</title>
<path fill="Lavender" stroke="black" stroke-width="1.3" d="M297.75,-664C297.75,-664 196.25,-664 196.25,-664 190.25,-664 184.25,-658 184.25,-652 184.25,-652 184.25,-640 184.25,-640 184.25,-634 190.25,-628 196.25,-628 196.25,-628 297.75,-628 297.75,-628 303.75,-628 309.75,-634 309.75,-640 309.75,-640 309.75,-652 309.75,-652 309.75,-658 303.75,-664 297.75,-664"/>
<text text-anchor="middle" x="247" y="-640.75" font-family="Arial" font-size="15.00">firebase_options</text>
</g>
<!-- /lib/models/player_model.dart -->
<g id="node6" class="node">
<title>/lib/models/player_model.dart</title>
<path fill="Lavender" stroke="black" stroke-width="1.3" d="M1285.62,-140C1285.62,-140 1204.38,-140 1204.38,-140 1198.38,-140 1192.38,-134 1192.38,-128 1192.38,-128 1192.38,-116 1192.38,-116 1192.38,-110 1198.38,-104 1204.38,-104 1204.38,-104 1285.62,-104 1285.62,-104 1291.62,-104 1297.62,-110 1297.62,-116 1297.62,-116 1297.62,-128 1297.62,-128 1297.62,-134 1291.62,-140 1285.62,-140"/>
<text text-anchor="middle" x="1245" y="-116.75" font-family="Arial" font-size="15.00">player_model</text>
</g>
<!-- /lib/models/game_model.dart&#45;&gt;/lib/models/player_model.dart -->
<g id="edge4" class="edge">
<title>/lib/models/game_model.dart&#45;&gt;/lib/models/player_model.dart</title>
<path fill="none" stroke="#aabbaa" stroke-width="1.3" stroke-opacity="0.533333" d="M1152.04,-175.52C1165.91,-166.6 1183.93,-155.63 1200.45,-146.03"/>
<polygon fill="#aabbaa" fill-opacity="0.533333" stroke="#aabbaa" stroke-width="1.3" stroke-opacity="0.533333" points="1201.85,-149.26 1208.78,-141.24 1198.37,-143.19 1201.85,-149.26"/>
</g>
<!-- /lib/models/game_model.dart&#45;&gt;/lib/models/player_model.dart -->
<g id="edge6" class="edge">
<title>/lib/models/game_model.dart&#45;&gt;/lib/models/player_model.dart</title>
<path fill="none" stroke="#aabbaa" stroke-width="1.3" stroke-dasharray="5,2" stroke-opacity="0.533333" d="M1163.91,-175.52C1179.3,-166.76 1197.23,-156.04 1212.35,-146.58"/>
<polygon fill="#aabbaa" fill-opacity="0.533333" stroke="#aabbaa" stroke-width="1.3" stroke-opacity="0.533333" points="1214.08,-149.63 1220.65,-141.31 1210.33,-143.71 1214.08,-149.63"/>
</g>
<!-- /lib/models/backend_model.dart -->
<g id="node8" class="node">
<title>/lib/models/backend_model.dart</title>
<path fill="Lavender" stroke="black" stroke-width="1.3" d="M1424.5,-140C1424.5,-140 1327.5,-140 1327.5,-140 1321.5,-140 1315.5,-134 1315.5,-128 1315.5,-128 1315.5,-116 1315.5,-116 1315.5,-110 1321.5,-104 1327.5,-104 1327.5,-104 1424.5,-104 1424.5,-104 1430.5,-104 1436.5,-110 1436.5,-116 1436.5,-116 1436.5,-128 1436.5,-128 1436.5,-134 1430.5,-140 1424.5,-140"/>
<text text-anchor="middle" x="1376" y="-116.75" font-family="Arial" font-size="15.00">backend_model</text>
</g>
<!-- /lib/models/game_model.dart&#45;&gt;/lib/models/backend_model.dart -->
<g id="edge2" class="edge">
<title>/lib/models/game_model.dart&#45;&gt;/lib/models/backend_model.dart</title>
<path fill="none" stroke="#aabbaa" stroke-width="1.3" stroke-opacity="0.533333" d="M1180.48,-178.41C1216.25,-168.27 1264.42,-154.62 1303.99,-143.41"/>
<polygon fill="#aabbaa" fill-opacity="0.533333" stroke="#aabbaa" stroke-width="1.3" stroke-opacity="0.533333" points="1304.88,-146.79 1313.55,-140.7 1302.97,-140.06 1304.88,-146.79"/>
</g>
<!-- /lib/models/deck_model.dart -->
<g id="node9" class="node">
<title>/lib/models/deck_model.dart</title>
<path fill="Lavender" stroke="black" stroke-width="1.3" d="M1162.12,-140C1162.12,-140 1089.88,-140 1089.88,-140 1083.88,-140 1077.88,-134 1077.88,-128 1077.88,-128 1077.88,-116 1077.88,-116 1077.88,-110 1083.88,-104 1089.88,-104 1089.88,-104 1162.12,-104 1162.12,-104 1168.12,-104 1174.12,-110 1174.12,-116 1174.12,-116 1174.12,-128 1174.12,-128 1174.12,-134 1168.12,-140 1162.12,-140"/>
<text text-anchor="middle" x="1126" y="-116.75" font-family="Arial" font-size="15.00">deck_model</text>
</g>
<!-- /lib/models/game_model.dart&#45;&gt;/lib/models/deck_model.dart -->
<g id="edge3" class="edge">
<title>/lib/models/game_model.dart&#45;&gt;/lib/models/deck_model.dart</title>
<path fill="none" stroke="#aabbaa" stroke-width="1.3" stroke-opacity="0.533333" d="M1122.34,-175.7C1121.29,-168.49 1120.68,-159.93 1120.58,-151.82"/>
<polygon fill="#aabbaa" fill-opacity="0.533333" stroke="#aabbaa" stroke-width="1.3" stroke-opacity="0.533333" points="1124.07,-152.15 1120.79,-142.07 1117.07,-151.99 1124.07,-152.15"/>
</g>
<!-- /lib/models/game_model.dart&#45;&gt;/lib/models/deck_model.dart -->
<g id="edge5" class="edge">
<title>/lib/models/game_model.dart&#45;&gt;/lib/models/deck_model.dart</title>
<path fill="none" stroke="#aabbaa" stroke-width="1.3" stroke-dasharray="5,2" stroke-opacity="0.533333" d="M1134.17,-175.7C1134.61,-168.49 1134.49,-159.93 1133.89,-151.82"/>
<polygon fill="#aabbaa" fill-opacity="0.533333" stroke="#aabbaa" stroke-width="1.3" stroke-opacity="0.533333" points="1137.39,-151.63 1132.84,-142.06 1130.43,-152.38 1137.39,-151.63"/>
</g>
<!-- /lib/models/game_over_dialog.dart -->
<g id="node5" class="node">
<title>/lib/models/game_over_dialog.dart</title>
<path fill="Lavender" stroke="black" stroke-width="1.3" d="M1324.12,-212C1324.12,-212 1209.88,-212 1209.88,-212 1203.88,-212 1197.88,-206 1197.88,-200 1197.88,-200 1197.88,-188 1197.88,-188 1197.88,-182 1203.88,-176 1209.88,-176 1209.88,-176 1324.12,-176 1324.12,-176 1330.12,-176 1336.12,-182 1336.12,-188 1336.12,-188 1336.12,-200 1336.12,-200 1336.12,-206 1330.12,-212 1324.12,-212"/>
<text text-anchor="middle" x="1267" y="-188.75" font-family="Arial" font-size="15.00">game_over_dialog</text>
</g>
<!-- /lib/models/game_over_dialog.dart&#45;&gt;/lib/models/player_model.dart -->
<g id="edge7" class="edge">
<title>/lib/models/game_over_dialog.dart&#45;&gt;/lib/models/player_model.dart</title>
<path fill="none" stroke="#aabbaa" stroke-width="1.3" stroke-opacity="0.533333" d="M1261.56,-175.7C1259.24,-168.32 1256.48,-159.52 1253.88,-151.25"/>
<polygon fill="#aabbaa" fill-opacity="0.533333" stroke="#aabbaa" stroke-width="1.3" stroke-opacity="0.533333" points="1257.3,-150.47 1250.97,-141.98 1250.62,-152.57 1257.3,-150.47"/>
</g>
<!-- /lib/models/card_model.dart -->
<g id="node7" class="node">
<title>/lib/models/card_model.dart</title>
<path fill="Lavender" stroke="black" stroke-width="1.3" d="M1161,-68C1161,-68 1091,-68 1091,-68 1085,-68 1079,-62 1079,-56 1079,-56 1079,-44 1079,-44 1079,-38 1085,-32 1091,-32 1091,-32 1161,-32 1161,-32 1167,-32 1173,-38 1173,-44 1173,-44 1173,-56 1173,-56 1173,-62 1167,-68 1161,-68"/>
<text text-anchor="middle" x="1126" y="-44.75" font-family="Arial" font-size="15.00">card_model</text>
</g>
<!-- /lib/models/player_model.dart&#45;&gt;/lib/models/card_model.dart -->
<g id="edge8" class="edge">
<title>/lib/models/player_model.dart&#45;&gt;/lib/models/card_model.dart</title>
<path fill="none" stroke="#aabbaa" stroke-width="1.3" stroke-opacity="0.533333" d="M1209.34,-103.52C1193.42,-94.68 1174.83,-83.84 1159.21,-74.3"/>
<polygon fill="#aabbaa" fill-opacity="0.533333" stroke="#aabbaa" stroke-width="1.3" stroke-opacity="0.533333" points="1161.45,-71.57 1151.11,-69.29 1157.77,-77.53 1161.45,-71.57"/>
</g>
<!-- /lib/models/player_model.dart&#45;&gt;/lib/models/card_model.dart -->
<g id="edge9" class="edge">
<title>/lib/models/player_model.dart&#45;&gt;/lib/models/card_model.dart</title>
<path fill="none" stroke="#aabbaa" stroke-width="1.3" stroke-dasharray="5,2" stroke-opacity="0.533333" d="M1221.21,-103.52C1206.95,-94.6 1188.46,-83.63 1171.54,-74.03"/>
<polygon fill="#aabbaa" fill-opacity="0.533333" stroke="#aabbaa" stroke-width="1.3" stroke-opacity="0.533333" points="1173.4,-71.06 1162.97,-69.22 1169.98,-77.17 1173.4,-71.06"/>
</g>
<!-- /lib/models/backend_model.dart&#45;&gt;/lib/firebase_options_private.dart -->
<g id="edge10" class="edge">
<title>/lib/models/backend_model.dart&#45;&gt;/lib/firebase_options_private.dart</title>
<path fill="none" stroke="#aabbaa" stroke-width="1.3" stroke-opacity="0.533333" d="M1417.46,-103.52C1439.43,-94.25 1466.63,-82.78 1490,-72.93"/>
<polygon fill="#aabbaa" fill-opacity="0.533333" stroke="#aabbaa" stroke-width="1.3" stroke-opacity="0.533333" points="1491.11,-76.26 1498.97,-69.15 1488.39,-69.81 1491.11,-76.26"/>
</g>
<!-- /lib/models/deck_model.dart&#45;&gt;/lib/models/card_model.dart -->
<g id="edge11" class="edge">
<title>/lib/models/deck_model.dart&#45;&gt;/lib/models/card_model.dart</title>
<path fill="none" stroke="#aabbaa" stroke-width="1.3" stroke-opacity="0.533333" d="M1120.08,-103.7C1119.34,-96.49 1119.09,-87.93 1119.34,-79.82"/>
<polygon fill="#aabbaa" fill-opacity="0.533333" stroke="#aabbaa" stroke-width="1.3" stroke-opacity="0.533333" points="1122.82,-80.27 1119.98,-70.07 1115.84,-79.82 1122.82,-80.27"/>
</g>
<!-- /lib/models/deck_model.dart&#45;&gt;/lib/models/card_model.dart -->
<g id="edge12" class="edge">
<title>/lib/models/deck_model.dart&#45;&gt;/lib/models/card_model.dart</title>
<path fill="none" stroke="#aabbaa" stroke-width="1.3" stroke-dasharray="5,2" stroke-opacity="0.533333" d="M1131.92,-103.7C1132.66,-96.49 1132.91,-87.93 1132.66,-79.82"/>
<polygon fill="#aabbaa" fill-opacity="0.533333" stroke="#aabbaa" stroke-width="1.3" stroke-opacity="0.533333" points="1136.16,-79.82 1132.02,-70.07 1129.18,-80.27 1136.16,-79.82"/>
</g>
<!-- /lib/screens/game_screen.dart -->
<g id="node10" class="node">
<title>/lib/screens/game_screen.dart</title>
<path fill="Lavender" stroke="black" stroke-width="1.3" d="M318.38,-517C318.38,-517 235.62,-517 235.62,-517 229.62,-517 223.62,-511 223.62,-505 223.62,-505 223.62,-493 223.62,-493 223.62,-487 229.62,-481 235.62,-481 235.62,-481 318.38,-481 318.38,-481 324.38,-481 330.38,-487 330.38,-493 330.38,-493 330.38,-505 330.38,-505 330.38,-511 324.38,-517 318.38,-517"/>
<text text-anchor="middle" x="277" y="-493.75" font-family="Arial" font-size="15.00">game_screen</text>
</g>
<!-- /lib/screens/game_screen.dart&#45;&gt;/lib/models/game_model.dart -->
<g id="edge13" class="edge">
<title>/lib/screens/game_screen.dart&#45;&gt;/lib/models/game_model.dart</title>
<path fill="none" stroke="#aabbaa" stroke-width="1.3" stroke-opacity="0.533333" d="M330.77,-497.98C503.79,-497.69 1036.64,-495.02 1066,-473 1143.64,-414.78 1139.3,-282.62 1133.02,-223.97"/>
<polygon fill="#aabbaa" fill-opacity="0.533333" stroke="#aabbaa" stroke-width="1.3" stroke-opacity="0.533333" points="1136.52,-223.77 1131.87,-214.26 1129.57,-224.6 1136.52,-223.77"/>
</g>
<!-- /lib/screens/game_screen.dart&#45;&gt;/lib/models/game_over_dialog.dart -->
<g id="edge14" class="edge">
<title>/lib/screens/game_screen.dart&#45;&gt;/lib/models/game_over_dialog.dart</title>
<path fill="none" stroke="#aabbaa" stroke-width="1.3" stroke-opacity="0.533333" d="M330.81,-497.76C508.02,-496.79 1063.9,-492.23 1097,-473 1193.37,-417.03 1242.09,-282.59 1259.43,-223.58"/>
<polygon fill="#aabbaa" fill-opacity="0.533333" stroke="#aabbaa" stroke-width="1.3" stroke-opacity="0.533333" points="1262.76,-224.66 1262.12,-214.09 1256.02,-222.75 1262.76,-224.66"/>
</g>
<!-- /lib/screens/screen.dart -->
<g id="node12" class="node">
<title>/lib/screens/screen.dart</title>
<path fill="Lavender" stroke="black" stroke-width="1.3" d="M274.5,-442C274.5,-442 237.5,-442 237.5,-442 231.5,-442 225.5,-436 225.5,-430 225.5,-430 225.5,-418 225.5,-418 225.5,-412 231.5,-406 237.5,-406 237.5,-406 274.5,-406 274.5,-406 280.5,-406 286.5,-412 286.5,-418 286.5,-418 286.5,-430 286.5,-430 286.5,-436 280.5,-442 274.5,-442"/>
<text text-anchor="middle" x="256" y="-418.75" font-family="Arial" font-size="15.00">screen</text>
</g>
<!-- /lib/screens/game_screen.dart&#45;&gt;/lib/screens/screen.dart -->
<g id="edge15" class="edge">
<title>/lib/screens/game_screen.dart&#45;&gt;/lib/screens/screen.dart</title>
<path fill="none" stroke="#aabbaa" stroke-width="1.3" stroke-opacity="0.533333" d="M272.02,-480.7C269.71,-472.67 266.9,-462.9 264.29,-453.8"/>
<polygon fill="#aabbaa" fill-opacity="0.533333" stroke="#aabbaa" stroke-width="1.3" stroke-opacity="0.533333" points="267.69,-452.96 261.56,-444.32 260.96,-454.9 267.69,-452.96"/>
</g>
<!-- /lib/widgets/player_zone_widget.dart -->
<g id="node22" class="node">
<title>/lib/widgets/player_zone_widget.dart</title>
<path fill="Lavender" stroke="black" stroke-width="1.3" d="M668,-442C668,-442 544,-442 544,-442 538,-442 532,-436 532,-430 532,-430 532,-418 532,-418 532,-412 538,-406 544,-406 544,-406 668,-406 668,-406 674,-406 680,-412 680,-418 680,-418 680,-430 680,-430 680,-436 674,-442 668,-442"/>
<text text-anchor="middle" x="606" y="-418.75" font-family="Arial" font-size="15.00">player_zone_widget</text>
</g>
<!-- /lib/screens/game_screen.dart&#45;&gt;/lib/widgets/player_zone_widget.dart -->
<g id="edge16" class="edge">
<title>/lib/screens/game_screen.dart&#45;&gt;/lib/widgets/player_zone_widget.dart</title>
<path fill="none" stroke="#aabbaa" stroke-width="1.3" stroke-opacity="0.533333" d="M330.69,-495.18C392.05,-491.5 488.43,-484.18 523,-473 540.21,-467.44 557.75,-457.95 572.26,-448.87"/>
<polygon fill="#aabbaa" fill-opacity="0.533333" stroke="#aabbaa" stroke-width="1.3" stroke-opacity="0.533333" points="574.1,-451.85 580.58,-443.47 570.29,-445.98 574.1,-451.85"/>
</g>
<!-- /lib/screens/start_screen.dart -->
<g id="node11" class="node">
<title>/lib/screens/start_screen.dart</title>
<path fill="Lavender" stroke="black" stroke-width="1.3" d="M315.62,-589C315.62,-589 240.38,-589 240.38,-589 234.38,-589 228.38,-583 228.38,-577 228.38,-577 228.38,-565 228.38,-565 228.38,-559 234.38,-553 240.38,-553 240.38,-553 315.62,-553 315.62,-553 321.62,-553 327.62,-559 327.62,-565 327.62,-565 327.62,-577 327.62,-577 327.62,-583 321.62,-589 315.62,-589"/>
<text text-anchor="middle" x="278" y="-565.75" font-family="Arial" font-size="15.00">start_screen</text>
</g>
<!-- /lib/screens/start_screen.dart&#45;&gt;/lib/models/game_model.dart -->
<g id="edge18" class="edge">
<title>/lib/screens/start_screen.dart&#45;&gt;/lib/models/game_model.dart</title>
<path fill="none" stroke="#aabbaa" stroke-width="1.3" stroke-opacity="0.533333" d="M242.46,-552.71C228.76,-544.04 214.58,-532.13 207,-517 195.31,-493.69 205.1,-415.07 217,-398 252.69,-346.8 281.41,-348.96 342,-334 361.53,-329.18 1050.94,-339.33 1066,-326 1078.59,-314.85 1068.76,-266.18 1076,-251 1081.36,-239.76 1089.82,-229.3 1098.42,-220.53"/>
<polygon fill="#aabbaa" fill-opacity="0.533333" stroke="#aabbaa" stroke-width="1.3" stroke-opacity="0.533333" points="1100.73,-223.17 1105.54,-213.72 1095.89,-218.11 1100.73,-223.17"/>
</g>
<!-- /lib/screens/start_screen.dart&#45;&gt;/lib/models/backend_model.dart -->
<g id="edge17" class="edge">
<title>/lib/screens/start_screen.dart&#45;&gt;/lib/models/backend_model.dart</title>
<path fill="none" stroke="#aabbaa" stroke-width="1.3" stroke-opacity="0.533333" d="M327.89,-568.67C541.1,-562.36 1365,-531.08 1365,-425 1365,-425 1365,-425 1365,-276 1365,-232.7 1369.44,-182.68 1372.68,-151.95"/>
<polygon fill="#aabbaa" fill-opacity="0.533333" stroke="#aabbaa" stroke-width="1.3" stroke-opacity="0.533333" points="1376.12,-152.69 1373.72,-142.37 1369.16,-151.93 1376.12,-152.69"/>
</g>
<!-- /lib/screens/start_screen.dart&#45;&gt;/lib/screens/game_screen.dart -->
<g id="edge19" class="edge">
<title>/lib/screens/start_screen.dart&#45;&gt;/lib/screens/game_screen.dart</title>
<path fill="none" stroke="#aabbaa" stroke-width="1.3" stroke-opacity="0.533333" d="M277.75,-552.7C277.65,-545.49 277.53,-536.93 277.41,-528.82"/>
<polygon fill="#aabbaa" fill-opacity="0.533333" stroke="#aabbaa" stroke-width="1.3" stroke-opacity="0.533333" points="280.92,-529.02 277.27,-519.07 273.92,-529.12 280.92,-529.02"/>
</g>
<!-- /lib/screens/start_screen.dart&#45;&gt;/lib/screens/screen.dart -->
<g id="edge20" class="edge">
<title>/lib/screens/start_screen.dart&#45;&gt;/lib/screens/screen.dart</title>
<path fill="none" stroke="#aabbaa" stroke-width="1.3" stroke-opacity="0.533333" d="M247.37,-552.57C234.89,-543.68 221.82,-531.64 215,-517 204.8,-495.1 217.56,-470.04 231.46,-451.61"/>
<polygon fill="#aabbaa" fill-opacity="0.533333" stroke="#aabbaa" stroke-width="1.3" stroke-opacity="0.533333" points="234.12,-453.88 237.7,-443.9 228.68,-449.47 234.12,-453.88"/>
</g>
<!-- /lib/widgets/players_in_room_widget.dart -->
<g id="node20" class="node">
<title>/lib/widgets/players_in_room_widget.dart</title>
<path fill="Lavender" stroke="black" stroke-width="1.3" d="M1041.62,-442C1041.62,-442 888.38,-442 888.38,-442 882.38,-442 876.38,-436 876.38,-430 876.38,-430 876.38,-418 876.38,-418 876.38,-412 882.38,-406 888.38,-406 888.38,-406 1041.62,-406 1041.62,-406 1047.62,-406 1053.62,-412 1053.62,-418 1053.62,-418 1053.62,-430 1053.62,-430 1053.62,-436 1047.62,-442 1041.62,-442"/>
<text text-anchor="middle" x="965" y="-418.75" font-family="Arial" font-size="15.00">players_in_room_widget</text>
</g>
<!-- /lib/screens/start_screen.dart&#45;&gt;/lib/widgets/players_in_room_widget.dart -->
<g id="edge21" class="edge">
<title>/lib/screens/start_screen.dart&#45;&gt;/lib/widgets/players_in_room_widget.dart</title>
<path fill="none" stroke="#aabbaa" stroke-width="1.3" stroke-opacity="0.533333" d="M328.01,-566.7C431.04,-558.85 673.52,-534.84 867,-473 886.88,-466.65 907.79,-456.88 925.17,-447.8"/>
<polygon fill="#aabbaa" fill-opacity="0.533333" stroke="#aabbaa" stroke-width="1.3" stroke-opacity="0.533333" points="926.59,-451.01 933.76,-443.21 923.29,-444.84 926.59,-451.01"/>
</g>
<!-- /lib/main.dart -->
<g id="node13" class="node">
<title>/lib/main.dart</title>
<path fill="Lavender" stroke="black" stroke-width="1.3" d="M370,-664C370,-664 340,-664 340,-664 334,-664 328,-658 328,-652 328,-652 328,-640 328,-640 328,-634 334,-628 340,-628 340,-628 370,-628 370,-628 376,-628 382,-634 382,-640 382,-640 382,-652 382,-652 382,-658 376,-664 370,-664"/>
<text text-anchor="middle" x="355" y="-640.75" font-family="Arial" font-size="15.00">main</text>
</g>
<!-- /lib/main.dart&#45;&gt;/lib/screens/start_screen.dart -->
<g id="edge22" class="edge">
<title>/lib/main.dart&#45;&gt;/lib/screens/start_screen.dart</title>
<path fill="none" stroke="#aabbaa" stroke-width="1.3" stroke-opacity="0.533333" d="M336.75,-627.7C327.23,-618.67 315.4,-607.46 304.86,-597.46"/>
<polygon fill="#aabbaa" fill-opacity="0.533333" stroke="#aabbaa" stroke-width="1.3" stroke-opacity="0.533333" points="307.48,-595.12 297.81,-590.78 302.66,-600.2 307.48,-595.12"/>
</g>
<!-- /lib/widgets/player_zone_cta_widget.dart -->
<g id="node14" class="node">
<title>/lib/widgets/player_zone_cta_widget.dart</title>
<path fill="Lavender" stroke="black" stroke-width="1.3" d="M943.25,-370C943.25,-370 790.75,-370 790.75,-370 784.75,-370 778.75,-364 778.75,-358 778.75,-358 778.75,-346 778.75,-346 778.75,-340 784.75,-334 790.75,-334 790.75,-334 943.25,-334 943.25,-334 949.25,-334 955.25,-340 955.25,-346 955.25,-346 955.25,-358 955.25,-358 955.25,-364 949.25,-370 943.25,-370"/>
<text text-anchor="middle" x="867" y="-346.75" font-family="Arial" font-size="15.00">player_zone_cta_widget</text>
</g>
<!-- /lib/widgets/player_zone_cta_widget.dart&#45;&gt;/lib/models/game_model.dart -->
<g id="edge23" class="edge">
<title>/lib/widgets/player_zone_cta_widget.dart&#45;&gt;/lib/models/game_model.dart</title>
<path fill="none" stroke="#aabbaa" stroke-width="1.3" stroke-opacity="0.533333" d="M955.64,-349.29C1003.76,-346.66 1057.19,-340.44 1076,-326 1104.48,-304.14 1092.51,-284.27 1106,-251 1109.68,-241.92 1113.73,-232.04 1117.39,-223.13"/>
<polygon fill="#aabbaa" fill-opacity="0.533333" stroke="#aabbaa" stroke-width="1.3" stroke-opacity="0.533333" points="1120.59,-224.54 1121.16,-213.96 1114.12,-221.87 1120.59,-224.54"/>
</g>
<!-- /lib/widgets/card_pile_widget.dart -->
<g id="node15" class="node">
<title>/lib/widgets/card_pile_widget.dart</title>
<path fill="Lavender" stroke="black" stroke-width="1.3" d="M882.5,-212C882.5,-212 779.5,-212 779.5,-212 773.5,-212 767.5,-206 767.5,-200 767.5,-200 767.5,-188 767.5,-188 767.5,-182 773.5,-176 779.5,-176 779.5,-176 882.5,-176 882.5,-176 888.5,-176 894.5,-182 894.5,-188 894.5,-188 894.5,-200 894.5,-200 894.5,-206 888.5,-212 882.5,-212"/>
<text text-anchor="middle" x="831" y="-188.75" font-family="Arial" font-size="15.00">card_pile_widget</text>
</g>
<!-- /lib/widgets/player_zone_cta_widget.dart&#45;&gt;/lib/widgets/card_pile_widget.dart -->
<g id="edge24" class="edge">
<title>/lib/widgets/player_zone_cta_widget.dart&#45;&gt;/lib/widgets/card_pile_widget.dart</title>
<path fill="none" stroke="#aabbaa" stroke-width="1.3" stroke-opacity="0.533333" d="M863.01,-333.71C856.87,-307.12 845.05,-255.9 837.62,-223.69"/>
<polygon fill="#aabbaa" fill-opacity="0.533333" stroke="#aabbaa" stroke-width="1.3" stroke-opacity="0.533333" points="841.11,-223.24 835.45,-214.29 834.29,-224.82 841.11,-223.24"/>
</g>
<!-- /lib/widgets/card_widget.dart -->
<g id="node17" class="node">
<title>/lib/widgets/card_widget.dart</title>
<path fill="Lavender" stroke="black" stroke-width="1.3" d="M1008.12,-140C1008.12,-140 935.88,-140 935.88,-140 929.88,-140 923.88,-134 923.88,-128 923.88,-128 923.88,-116 923.88,-116 923.88,-110 929.88,-104 935.88,-104 935.88,-104 1008.12,-104 1008.12,-104 1014.12,-104 1020.12,-110 1020.12,-116 1020.12,-116 1020.12,-128 1020.12,-128 1020.12,-134 1014.12,-140 1008.12,-140"/>
<text text-anchor="middle" x="972" y="-116.75" font-family="Arial" font-size="15.00">card_widget</text>
</g>
<!-- /lib/widgets/player_zone_cta_widget.dart&#45;&gt;/lib/widgets/card_widget.dart -->
<g id="edge26" class="edge">
<title>/lib/widgets/player_zone_cta_widget.dart&#45;&gt;/lib/widgets/card_widget.dart</title>
<path fill="none" stroke="#aabbaa" stroke-width="1.3" stroke-opacity="0.533333" d="M863.4,-333.61C859.96,-311.75 857.76,-274.26 877,-251 884.98,-241.36 894.2,-250.79 904,-243 933.72,-219.38 952.71,-178.99 962.86,-151.66"/>
<polygon fill="#aabbaa" fill-opacity="0.533333" stroke="#aabbaa" stroke-width="1.3" stroke-opacity="0.533333" points="966.12,-152.94 966.14,-142.34 959.52,-150.61 966.12,-152.94"/>
</g>
<!-- /lib/widgets/card_piles_widget.dart -->
<g id="node23" class="node">
<title>/lib/widgets/card_piles_widget.dart</title>
<path fill="Lavender" stroke="black" stroke-width="1.3" d="M1008.25,-295C1008.25,-295 897.75,-295 897.75,-295 891.75,-295 885.75,-289 885.75,-283 885.75,-283 885.75,-271 885.75,-271 885.75,-265 891.75,-259 897.75,-259 897.75,-259 1008.25,-259 1008.25,-259 1014.25,-259 1020.25,-265 1020.25,-271 1020.25,-271 1020.25,-283 1020.25,-283 1020.25,-289 1014.25,-295 1008.25,-295"/>
<text text-anchor="middle" x="953" y="-271.75" font-family="Arial" font-size="15.00">card_piles_widget</text>
</g>
<!-- /lib/widgets/player_zone_cta_widget.dart&#45;&gt;/lib/widgets/card_piles_widget.dart -->
<g id="edge25" class="edge">
<title>/lib/widgets/player_zone_cta_widget.dart&#45;&gt;/lib/widgets/card_piles_widget.dart</title>
<path fill="none" stroke="#aabbaa" stroke-width="1.3" stroke-opacity="0.533333" d="M887.38,-333.7C898.12,-324.58 911.49,-313.24 923.35,-303.16"/>
<polygon fill="#aabbaa" fill-opacity="0.533333" stroke="#aabbaa" stroke-width="1.3" stroke-opacity="0.533333" points="925.61,-305.84 930.97,-296.7 921.08,-300.51 925.61,-305.84"/>
</g>
<!-- /lib/widgets/card_pile_widget.dart&#45;&gt;/lib/models/card_model.dart -->
<g id="edge27" class="edge">
<title>/lib/widgets/card_pile_widget.dart&#45;&gt;/lib/models/card_model.dart</title>
<path fill="none" stroke="#aabbaa" stroke-width="1.3" stroke-opacity="0.533333" d="M806.25,-175.53C795.4,-166.35 783.83,-154.07 778,-140 770.52,-121.93 765.09,-110.69 778,-96 796.74,-74.69 972.56,-60.56 1066.87,-54.45"/>
<polygon fill="#aabbaa" fill-opacity="0.533333" stroke="#aabbaa" stroke-width="1.3" stroke-opacity="0.533333" points="1067.06,-57.94 1076.82,-53.82 1066.62,-50.96 1067.06,-57.94"/>
</g>
<!-- /lib/widgets/card_pile_widget.dart&#45;&gt;/lib/widgets/card_widget.dart -->
<g id="edge28" class="edge">
<title>/lib/widgets/card_pile_widget.dart&#45;&gt;/lib/widgets/card_widget.dart</title>
<path fill="none" stroke="#aabbaa" stroke-width="1.3" stroke-opacity="0.533333" d="M866.22,-175.52C884.52,-166.43 907.11,-155.22 926.7,-145.49"/>
<polygon fill="#aabbaa" fill-opacity="0.533333" stroke="#aabbaa" stroke-width="1.3" stroke-opacity="0.533333" points="928.07,-148.72 935.47,-141.14 924.96,-142.45 928.07,-148.72"/>
</g>
<!-- /lib/widgets/wiggle_widget.dart -->
<g id="node19" class="node">
<title>/lib/widgets/wiggle_widget.dart</title>
<path fill="Lavender" stroke="black" stroke-width="1.3" d="M883.12,-140C883.12,-140 798.88,-140 798.88,-140 792.88,-140 786.88,-134 786.88,-128 786.88,-128 786.88,-116 786.88,-116 786.88,-110 792.88,-104 798.88,-104 798.88,-104 883.12,-104 883.12,-104 889.12,-104 895.12,-110 895.12,-116 895.12,-116 895.12,-128 895.12,-128 895.12,-134 889.12,-140 883.12,-140"/>
<text text-anchor="middle" x="841" y="-116.75" font-family="Arial" font-size="15.00">wiggle_widget</text>
</g>
<!-- /lib/widgets/card_pile_widget.dart&#45;&gt;/lib/widgets/wiggle_widget.dart -->
<g id="edge29" class="edge">
<title>/lib/widgets/card_pile_widget.dart&#45;&gt;/lib/widgets/wiggle_widget.dart</title>
<path fill="none" stroke="#aabbaa" stroke-width="1.3" stroke-opacity="0.533333" d="M833.47,-175.7C834.5,-168.49 835.72,-159.93 836.88,-151.82"/>
<polygon fill="#aabbaa" fill-opacity="0.533333" stroke="#aabbaa" stroke-width="1.3" stroke-opacity="0.533333" points="840.33,-152.45 838.28,-142.05 833.4,-151.46 840.33,-152.45"/>
</g>
<!-- /lib/widgets/table_surface_painter.dart -->
<g id="node16" class="node">
<title>/lib/widgets/table_surface_painter.dart</title>
<path fill="Lavender" stroke="black" stroke-width="1.3" d="M502,-442C502,-442 366,-442 366,-442 360,-442 354,-436 354,-430 354,-430 354,-418 354,-418 354,-412 360,-406 366,-406 366,-406 502,-406 502,-406 508,-406 514,-412 514,-418 514,-418 514,-430 514,-430 514,-436 508,-442 502,-442"/>
<text text-anchor="middle" x="434" y="-418.75" font-family="Arial" font-size="15.00">table_surface_painter</text>
</g>
<!-- /lib/widgets/card_widget.dart&#45;&gt;/lib/models/card_model.dart -->
<g id="edge30" class="edge">
<title>/lib/widgets/card_widget.dart&#45;&gt;/lib/models/card_model.dart</title>
<path fill="none" stroke="#aabbaa" stroke-width="1.3" stroke-opacity="0.533333" d="M1010.46,-103.52C1030.57,-94.38 1055.39,-83.09 1076.87,-73.33"/>
<polygon fill="#aabbaa" fill-opacity="0.533333" stroke="#aabbaa" stroke-width="1.3" stroke-opacity="0.533333" points="1078.31,-76.52 1085.97,-69.2 1075.42,-70.15 1078.31,-76.52"/>
</g>
<!-- /lib/widgets/player_header_widget.dart -->
<g id="node18" class="node">
<title>/lib/widgets/player_header_widget.dart</title>
<path fill="Lavender" stroke="black" stroke-width="1.3" d="M675.12,-370C675.12,-370 536.88,-370 536.88,-370 530.88,-370 524.88,-364 524.88,-358 524.88,-358 524.88,-346 524.88,-346 524.88,-340 530.88,-334 536.88,-334 536.88,-334 675.12,-334 675.12,-334 681.12,-334 687.12,-340 687.12,-346 687.12,-346 687.12,-358 687.12,-358 687.12,-364 681.12,-370 675.12,-370"/>
<text text-anchor="middle" x="606" y="-346.75" font-family="Arial" font-size="15.00">player_header_widget</text>
</g>
<!-- /lib/widgets/text_edit_with_submit.dart -->
<g id="node21" class="node">
<title>/lib/widgets/text_edit_with_submit.dart</title>
<path fill="Lavender" stroke="black" stroke-width="1.3" d="M846,-442C846,-442 710,-442 710,-442 704,-442 698,-436 698,-430 698,-430 698,-418 698,-418 698,-412 704,-406 710,-406 710,-406 846,-406 846,-406 852,-406 858,-412 858,-418 858,-418 858,-430 858,-430 858,-436 852,-442 846,-442"/>
<text text-anchor="middle" x="778" y="-418.75" font-family="Arial" font-size="15.00">text_edit_with_submit</text>
</g>
<!-- /lib/widgets/player_zone_widget.dart&#45;&gt;/lib/models/game_model.dart -->
<g id="edge31" class="edge">
<title>/lib/widgets/player_zone_widget.dart&#45;&gt;/lib/models/game_model.dart</title>
<path fill="none" stroke="#aabbaa" stroke-width="1.3" stroke-opacity="0.533333" d="M657.82,-405.54C668.06,-402.62 678.79,-399.92 689,-398 844.55,-368.79 897.65,-430.24 1044,-370 1072,-358.48 1079.98,-351.69 1096,-326 1115.59,-294.59 1123.57,-252.12 1126.81,-224.16"/>
<polygon fill="#aabbaa" fill-opacity="0.533333" stroke="#aabbaa" stroke-width="1.3" stroke-opacity="0.533333" points="1130.27,-224.69 1127.79,-214.39 1123.31,-223.99 1130.27,-224.69"/>
</g>
<!-- /lib/widgets/player_zone_widget.dart&#45;&gt;/lib/widgets/player_zone_cta_widget.dart -->
<g id="edge34" class="edge">
<title>/lib/widgets/player_zone_widget.dart&#45;&gt;/lib/widgets/player_zone_cta_widget.dart</title>
<path fill="none" stroke="#aabbaa" stroke-width="1.3" stroke-opacity="0.533333" d="M662.6,-405.58C671.42,-402.97 680.44,-400.37 689,-398 719.78,-389.48 753.73,-380.73 783.66,-373.25"/>
<polygon fill="#aabbaa" fill-opacity="0.533333" stroke="#aabbaa" stroke-width="1.3" stroke-opacity="0.533333" points="784.15,-376.73 793.01,-370.92 782.46,-369.94 784.15,-376.73"/>
</g>
<!-- /lib/widgets/player_zone_widget.dart&#45;&gt;/lib/widgets/card_widget.dart -->
<g id="edge32" class="edge">
<title>/lib/widgets/player_zone_widget.dart&#45;&gt;/lib/widgets/card_widget.dart</title>
<path fill="none" stroke="#aabbaa" stroke-width="1.3" stroke-opacity="0.533333" d="M658.31,-405.6C668.4,-402.71 678.96,-400 689,-398 809.48,-373.95 848.52,-411.93 964,-370 996.79,-358.09 1012.65,-356.82 1029,-326 1060.1,-267.4 1018.6,-190.04 991.71,-149.84"/>
<polygon fill="#aabbaa" fill-opacity="0.533333" stroke="#aabbaa" stroke-width="1.3" stroke-opacity="0.533333" points="994.75,-148.09 986.19,-141.85 988.99,-152.07 994.75,-148.09"/>
</g>
<!-- /lib/widgets/player_zone_widget.dart&#45;&gt;/lib/widgets/player_header_widget.dart -->
<g id="edge33" class="edge">
<title>/lib/widgets/player_zone_widget.dart&#45;&gt;/lib/widgets/player_header_widget.dart</title>
<path fill="none" stroke="#aabbaa" stroke-width="1.3" stroke-opacity="0.533333" d="M606,-405.7C606,-398.49 606,-389.93 606,-381.82"/>
<polygon fill="#aabbaa" fill-opacity="0.533333" stroke="#aabbaa" stroke-width="1.3" stroke-opacity="0.533333" points="609.5,-382.07 606,-372.07 602.5,-382.07 609.5,-382.07"/>
</g>
<!-- /lib/widgets/player_zone_widget.dart&#45;&gt;/lib/widgets/wiggle_widget.dart -->
<g id="edge35" class="edge">
<title>/lib/widgets/player_zone_widget.dart&#45;&gt;/lib/widgets/wiggle_widget.dart</title>
<path fill="none" stroke="#aabbaa" stroke-width="1.3" stroke-opacity="0.533333" d="M649.17,-405.65C665.81,-397.09 683.74,-385.27 696,-370 752.74,-299.3 703.74,-247.87 759,-176 768.05,-164.23 780.51,-154.31 792.98,-146.35"/>
<polygon fill="#aabbaa" fill-opacity="0.533333" stroke="#aabbaa" stroke-width="1.3" stroke-opacity="0.533333" points="794.45,-149.55 801.23,-141.4 790.85,-143.54 794.45,-149.55"/>
</g>
<!-- /lib/widgets/card_piles_widget.dart&#45;&gt;/lib/models/card_model.dart -->
<g id="edge36" class="edge">
<title>/lib/widgets/card_piles_widget.dart&#45;&gt;/lib/models/card_model.dart</title>
<path fill="none" stroke="#aabbaa" stroke-width="1.3" stroke-opacity="0.533333" d="M961.72,-258.57C979.11,-224.84 1020.63,-149.25 1069,-96 1075.57,-88.77 1083.39,-81.79 1091.09,-75.58"/>
<polygon fill="#aabbaa" fill-opacity="0.533333" stroke="#aabbaa" stroke-width="1.3" stroke-opacity="0.533333" points="1093.02,-78.51 1098.79,-69.62 1088.74,-72.97 1093.02,-78.51"/>
</g>
<!-- /lib/widgets/card_piles_widget.dart&#45;&gt;/lib/widgets/card_pile_widget.dart -->
<g id="edge37" class="edge">
<title>/lib/widgets/card_piles_widget.dart&#45;&gt;/lib/widgets/card_pile_widget.dart</title>
<path fill="none" stroke="#aabbaa" stroke-width="1.3" stroke-opacity="0.533333" d="M926.83,-258.62C909.38,-247.04 886.21,-231.66 867.03,-218.92"/>
<polygon fill="#aabbaa" fill-opacity="0.533333" stroke="#aabbaa" stroke-width="1.3" stroke-opacity="0.533333" points="869.03,-216.05 858.77,-213.44 865.16,-221.88 869.03,-216.05"/>
</g>
</g>
</svg>
