<?xml version="1.0" encoding="UTF-8" standalone="no"?>
<!DOCTYPE svg PUBLIC "-//W3C//DTD SVG 1.1//EN"
 "http://www.w3.org/Graphics/SVG/1.1/DTD/svg11.dtd">
<!-- Generated by graphviz version 12.1.2 (20240928.0832)
 -->
<!-- Pages: 1 -->
<svg width="1316pt" height="742pt"
 viewBox="0.00 0.00 1316.00 742.00" xmlns="http://www.w3.org/2000/svg" xmlns:xlink="http://www.w3.org/1999/xlink">
<g id="graph0" class="graph" transform="scale(1 1) rotate(0) translate(4 738)">
<polygon fill="white" stroke="none" points="-4,4 -4,-738 1312,-738 1312,4 -4,4"/>
<g id="clust1" class="cluster">
<title>cluster~</title>
<path fill="none" stroke="lightgray" stroke-width="2.6" d="M20,-8C20,-8 1288,-8 1288,-8 1294,-8 1300,-14 1300,-20 1300,-20 1300,-714 1300,-714 1300,-720 1294,-726 1288,-726 1288,-726 20,-726 20,-726 14,-726 8,-720 8,-714 8,-714 8,-20 8,-20 8,-14 14,-8 20,-8"/>
<text text-anchor="middle" x="654" y="-709.65" font-family="Arial Black" font-size="13.00">cards</text>
</g>
<g id="clust2" class="cluster">
<title>cluster~/test</title>
<path fill="none" stroke="lightgray" stroke-width="2.6" d="M28,-251C28,-251 156,-251 156,-251 162,-251 168,-257 168,-263 168,-263 168,-314 168,-314 168,-320 162,-326 156,-326 156,-326 28,-326 28,-326 22,-326 16,-320 16,-314 16,-314 16,-263 16,-263 16,-257 22,-251 28,-251"/>
<text text-anchor="middle" x="92" y="-309.65" font-family="Arial Black" font-size="13.00">test</text>
</g>
<g id="clust3" class="cluster">
<title>cluster~/lib</title>
<path fill="none" stroke="lightgray" stroke-width="2.6" d="M188,-16C188,-16 1280,-16 1280,-16 1286,-16 1292,-22 1292,-28 1292,-28 1292,-683 1292,-683 1292,-689 1286,-695 1280,-695 1280,-695 188,-695 188,-695 182,-695 176,-689 176,-683 176,-683 176,-28 176,-28 176,-22 182,-16 188,-16"/>
<text text-anchor="middle" x="734" y="-678.65" font-family="Arial Black" font-size="13.00">lib</text>
</g>
<g id="clust4" class="cluster">
<title>cluster~/lib/models</title>
<path fill="none" stroke="lightgray" stroke-width="2.6" d="M196,-24C196,-24 548,-24 548,-24 554,-24 560,-30 560,-36 560,-36 560,-231 560,-231 560,-237 554,-243 548,-243 548,-243 196,-243 196,-243 190,-243 184,-237 184,-231 184,-231 184,-36 184,-36 184,-30 190,-24 196,-24"/>
<text text-anchor="middle" x="372" y="-226.65" font-family="Arial Black" font-size="13.00">models</text>
</g>
<g id="clust5" class="cluster">
<title>cluster~/lib/screens</title>
<path fill="none" stroke="lightgray" stroke-width="2.6" d="M367,-398C367,-398 485,-398 485,-398 491,-398 497,-404 497,-410 497,-410 497,-608 497,-608 497,-614 491,-620 485,-620 485,-620 367,-620 367,-620 361,-620 355,-614 355,-608 355,-608 355,-410 355,-410 355,-404 361,-398 367,-398"/>
<text text-anchor="middle" x="426" y="-603.65" font-family="Arial Black" font-size="13.00">screens</text>
</g>
<g id="clust6" class="cluster">
<title>cluster~/lib/widgets</title>
<path fill="none" stroke="lightgray" stroke-width="2.6" d="M580,-96C580,-96 1272,-96 1272,-96 1278,-96 1284,-102 1284,-108 1284,-108 1284,-461 1284,-461 1284,-467 1278,-473 1272,-473 1272,-473 580,-473 580,-473 574,-473 568,-467 568,-461 568,-461 568,-108 568,-108 568,-102 574,-96 580,-96"/>
<text text-anchor="middle" x="926" y="-456.65" font-family="Arial Black" font-size="13.00">widgets</text>
</g>
<!-- /test/game_model_test.dart -->
<g id="node1" class="node">
<title>/test/game_model_test.dart</title>
<path fill="Lavender" stroke="black" stroke-width="1.3" d="M147.62,-295C147.62,-295 36.38,-295 36.38,-295 30.38,-295 24.38,-289 24.38,-283 24.38,-283 24.38,-271 24.38,-271 24.38,-265 30.38,-259 36.38,-259 36.38,-259 147.62,-259 147.62,-259 153.62,-259 159.62,-265 159.62,-271 159.62,-271 159.62,-283 159.62,-283 159.62,-289 153.62,-295 147.62,-295"/>
<text text-anchor="middle" x="92" y="-271.75" font-family="Arial" font-size="15.00">game_model_test</text>
</g>
<!-- /lib/models/game_model.dart -->
<g id="node2" class="node">
<title>/lib/models/game_model.dart</title>
<path fill="Lavender" stroke="black" stroke-width="1.3" d="M384.12,-212C384.12,-212 305.88,-212 305.88,-212 299.88,-212 293.88,-206 293.88,-200 293.88,-200 293.88,-188 293.88,-188 293.88,-182 299.88,-176 305.88,-176 305.88,-176 384.12,-176 384.12,-176 390.12,-176 396.12,-182 396.12,-188 396.12,-188 396.12,-200 396.12,-200 396.12,-206 390.12,-212 384.12,-212"/>
<text text-anchor="middle" x="345" y="-188.75" font-family="Arial" font-size="15.00">game_model</text>
</g>
<!-- /test/game_model_test.dart&#45;&gt;/lib/models/game_model.dart -->
<g id="edge1" class="edge">
<title>/test/game_model_test.dart&#45;&gt;/lib/models/game_model.dart</title>
<path fill="none" stroke="#aabbaa" stroke-width="1.3" stroke-opacity="0.533333" d="M146.59,-258.52C186.42,-245.77 240.5,-228.46 282.14,-215.13"/>
<polygon fill="#aabbaa" fill-opacity="0.533333" stroke="#aabbaa" stroke-width="1.3" stroke-opacity="0.533333" points="283.2,-218.46 291.66,-212.08 281.07,-211.79 283.2,-218.46"/>
</g>
<!-- /lib/models/player_model.dart -->
<g id="node5" class="node">
<title>/lib/models/player_model.dart</title>
<path fill="Lavender" stroke="black" stroke-width="1.3" d="M539.62,-140C539.62,-140 458.38,-140 458.38,-140 452.38,-140 446.38,-134 446.38,-128 446.38,-128 446.38,-116 446.38,-116 446.38,-110 452.38,-104 458.38,-104 458.38,-104 539.62,-104 539.62,-104 545.62,-104 551.62,-110 551.62,-116 551.62,-116 551.62,-128 551.62,-128 551.62,-134 545.62,-140 539.62,-140"/>
<text text-anchor="middle" x="499" y="-116.75" font-family="Arial" font-size="15.00">player_model</text>
</g>
<!-- /lib/models/game_model.dart&#45;&gt;/lib/models/player_model.dart -->
<g id="edge4" class="edge">
<title>/lib/models/game_model.dart&#45;&gt;/lib/models/player_model.dart</title>
<path fill="none" stroke="#aabbaa" stroke-width="1.3" stroke-opacity="0.533333" d="M377.53,-175.52C396.88,-166.29 421.85,-154.89 444.14,-145.06"/>
<polygon fill="#aabbaa" fill-opacity="0.533333" stroke="#aabbaa" stroke-width="1.3" stroke-opacity="0.533333" points="445.28,-148.39 453.03,-141.17 442.47,-141.97 445.28,-148.39"/>
</g>
<!-- /lib/models/game_model.dart&#45;&gt;/lib/models/player_model.dart -->
<g id="edge6" class="edge">
<title>/lib/models/game_model.dart&#45;&gt;/lib/models/player_model.dart</title>
<path fill="none" stroke="#aabbaa" stroke-width="1.3" stroke-dasharray="5,2" stroke-opacity="0.533333" d="M389.4,-175.52C410.33,-166.42 435.16,-155.2 455.93,-145.46"/>
<polygon fill="#aabbaa" fill-opacity="0.533333" stroke="#aabbaa" stroke-width="1.3" stroke-opacity="0.533333" points="457.36,-148.66 464.91,-141.22 454.37,-142.33 457.36,-148.66"/>
</g>
<!-- /lib/models/backend_model.dart -->
<g id="node7" class="node">
<title>/lib/models/backend_model.dart</title>
<path fill="Lavender" stroke="black" stroke-width="1.3" d="M301.5,-140C301.5,-140 204.5,-140 204.5,-140 198.5,-140 192.5,-134 192.5,-128 192.5,-128 192.5,-116 192.5,-116 192.5,-110 198.5,-104 204.5,-104 204.5,-104 301.5,-104 301.5,-104 307.5,-104 313.5,-110 313.5,-116 313.5,-116 313.5,-128 313.5,-128 313.5,-134 307.5,-140 301.5,-140"/>
<text text-anchor="middle" x="253" y="-116.75" font-family="Arial" font-size="15.00">backend_model</text>
</g>
<!-- /lib/models/game_model.dart&#45;&gt;/lib/models/backend_model.dart -->
<g id="edge2" class="edge">
<title>/lib/models/game_model.dart&#45;&gt;/lib/models/backend_model.dart</title>
<path fill="none" stroke="#aabbaa" stroke-width="1.3" stroke-opacity="0.533333" d="M322.26,-175.7C311.09,-167.2 297.44,-156.81 285.22,-147.51"/>
<polygon fill="#aabbaa" fill-opacity="0.533333" stroke="#aabbaa" stroke-width="1.3" stroke-opacity="0.533333" points="287.44,-144.81 277.36,-141.54 283.2,-150.38 287.44,-144.81"/>
</g>
<!-- /lib/models/deck_model.dart -->
<g id="node8" class="node">
<title>/lib/models/deck_model.dart</title>
<path fill="Lavender" stroke="black" stroke-width="1.3" d="M416.12,-140C416.12,-140 343.88,-140 343.88,-140 337.88,-140 331.88,-134 331.88,-128 331.88,-128 331.88,-116 331.88,-116 331.88,-110 337.88,-104 343.88,-104 343.88,-104 416.12,-104 416.12,-104 422.12,-104 428.12,-110 428.12,-116 428.12,-116 428.12,-128 428.12,-128 428.12,-134 422.12,-140 416.12,-140"/>
<text text-anchor="middle" x="380" y="-116.75" font-family="Arial" font-size="15.00">deck_model</text>
</g>
<!-- /lib/models/game_model.dart&#45;&gt;/lib/models/deck_model.dart -->
<g id="edge3" class="edge">
<title>/lib/models/game_model.dart&#45;&gt;/lib/models/deck_model.dart</title>
<path fill="none" stroke="#aabbaa" stroke-width="1.3" stroke-opacity="0.533333" d="M347.74,-175.7C350.76,-168.07 355.11,-158.92 359.7,-150.4"/>
<polygon fill="#aabbaa" fill-opacity="0.533333" stroke="#aabbaa" stroke-width="1.3" stroke-opacity="0.533333" points="362.68,-152.24 364.58,-141.81 356.59,-148.77 362.68,-152.24"/>
</g>
<!-- /lib/models/game_model.dart&#45;&gt;/lib/models/deck_model.dart -->
<g id="edge5" class="edge">
<title>/lib/models/game_model.dart&#45;&gt;/lib/models/deck_model.dart</title>
<path fill="none" stroke="#aabbaa" stroke-width="1.3" stroke-dasharray="5,2" stroke-opacity="0.533333" d="M359.57,-175.7C364.07,-168.24 368.76,-159.32 372.64,-150.97"/>
<polygon fill="#aabbaa" fill-opacity="0.533333" stroke="#aabbaa" stroke-width="1.3" stroke-opacity="0.533333" points="375.8,-152.48 376.56,-141.91 369.38,-149.7 375.8,-152.48"/>
</g>
<!-- /lib/models/game_over_dialog.dart -->
<g id="node3" class="node">
<title>/lib/models/game_over_dialog.dart</title>
<path fill="Lavender" stroke="black" stroke-width="1.3" d="M540.12,-212C540.12,-212 425.88,-212 425.88,-212 419.88,-212 413.88,-206 413.88,-200 413.88,-200 413.88,-188 413.88,-188 413.88,-182 419.88,-176 425.88,-176 425.88,-176 540.12,-176 540.12,-176 546.12,-176 552.12,-182 552.12,-188 552.12,-188 552.12,-200 552.12,-200 552.12,-206 546.12,-212 540.12,-212"/>
<text text-anchor="middle" x="483" y="-188.75" font-family="Arial" font-size="15.00">game_over_dialog</text>
</g>
<!-- /lib/models/game_over_dialog.dart&#45;&gt;/lib/models/player_model.dart -->
<g id="edge7" class="edge">
<title>/lib/models/game_over_dialog.dart&#45;&gt;/lib/models/player_model.dart</title>
<path fill="none" stroke="#aabbaa" stroke-width="1.3" stroke-opacity="0.533333" d="M486.96,-175.7C488.62,-168.41 490.61,-159.73 492.48,-151.54"/>
<polygon fill="#aabbaa" fill-opacity="0.533333" stroke="#aabbaa" stroke-width="1.3" stroke-opacity="0.533333" points="495.84,-152.55 494.65,-142.02 489.01,-150.99 495.84,-152.55"/>
</g>
<!-- /lib/models/firebase_options.dart -->
<g id="node4" class="node">
<title>/lib/models/firebase_options.dart</title>
<path fill="Lavender" stroke="black" stroke-width="1.3" d="M305.75,-68C305.75,-68 204.25,-68 204.25,-68 198.25,-68 192.25,-62 192.25,-56 192.25,-56 192.25,-44 192.25,-44 192.25,-38 198.25,-32 204.25,-32 204.25,-32 305.75,-32 305.75,-32 311.75,-32 317.75,-38 317.75,-44 317.75,-44 317.75,-56 317.75,-56 317.75,-62 311.75,-68 305.75,-68"/>
<text text-anchor="middle" x="255" y="-44.75" font-family="Arial" font-size="15.00">firebase_options</text>
</g>
<!-- /lib/models/card_model.dart -->
<g id="node6" class="node">
<title>/lib/models/card_model.dart</title>
<path fill="Lavender" stroke="black" stroke-width="1.3" d="M534,-68C534,-68 464,-68 464,-68 458,-68 452,-62 452,-56 452,-56 452,-44 452,-44 452,-38 458,-32 464,-32 464,-32 534,-32 534,-32 540,-32 546,-38 546,-44 546,-44 546,-56 546,-56 546,-62 540,-68 534,-68"/>
<text text-anchor="middle" x="499" y="-44.75" font-family="Arial" font-size="15.00">card_model</text>
</g>
<!-- /lib/models/player_model.dart&#45;&gt;/lib/models/card_model.dart -->
<g id="edge8" class="edge">
<title>/lib/models/player_model.dart&#45;&gt;/lib/models/card_model.dart</title>
<path fill="none" stroke="#aabbaa" stroke-width="1.3" stroke-opacity="0.533333" d="M493.08,-103.7C492.34,-96.49 492.09,-87.93 492.34,-79.82"/>
<polygon fill="#aabbaa" fill-opacity="0.533333" stroke="#aabbaa" stroke-width="1.3" stroke-opacity="0.533333" points="495.82,-80.27 492.98,-70.07 488.84,-79.82 495.82,-80.27"/>
</g>
<!-- /lib/models/player_model.dart&#45;&gt;/lib/models/card_model.dart -->
<g id="edge9" class="edge">
<title>/lib/models/player_model.dart&#45;&gt;/lib/models/card_model.dart</title>
<path fill="none" stroke="#aabbaa" stroke-width="1.3" stroke-dasharray="5,2" stroke-opacity="0.533333" d="M504.92,-103.7C505.66,-96.49 505.91,-87.93 505.66,-79.82"/>
<polygon fill="#aabbaa" fill-opacity="0.533333" stroke="#aabbaa" stroke-width="1.3" stroke-opacity="0.533333" points="509.16,-79.82 505.02,-70.07 502.18,-80.27 509.16,-79.82"/>
</g>
<!-- /lib/models/backend_model.dart&#45;&gt;/lib/models/firebase_options.dart -->
<g id="edge10" class="edge">
<title>/lib/models/backend_model.dart&#45;&gt;/lib/models/firebase_options.dart</title>
<path fill="none" stroke="#aabbaa" stroke-width="1.3" stroke-opacity="0.533333" d="M253.49,-103.7C253.7,-96.49 253.94,-87.93 254.18,-79.82"/>
<polygon fill="#aabbaa" fill-opacity="0.533333" stroke="#aabbaa" stroke-width="1.3" stroke-opacity="0.533333" points="257.67,-80.17 254.46,-70.07 250.67,-79.97 257.67,-80.17"/>
</g>
<!-- /lib/models/deck_model.dart&#45;&gt;/lib/models/card_model.dart -->
<g id="edge11" class="edge">
<title>/lib/models/deck_model.dart&#45;&gt;/lib/models/card_model.dart</title>
<path fill="none" stroke="#aabbaa" stroke-width="1.3" stroke-opacity="0.533333" d="M403.79,-103.52C418.05,-94.6 436.54,-83.63 453.46,-74.03"/>
<polygon fill="#aabbaa" fill-opacity="0.533333" stroke="#aabbaa" stroke-width="1.3" stroke-opacity="0.533333" points="455.02,-77.17 462.03,-69.22 451.6,-71.06 455.02,-77.17"/>
</g>
<!-- /lib/models/deck_model.dart&#45;&gt;/lib/models/card_model.dart -->
<g id="edge12" class="edge">
<title>/lib/models/deck_model.dart&#45;&gt;/lib/models/card_model.dart</title>
<path fill="none" stroke="#aabbaa" stroke-width="1.3" stroke-dasharray="5,2" stroke-opacity="0.533333" d="M415.66,-103.52C431.58,-94.68 450.17,-83.84 465.79,-74.3"/>
<polygon fill="#aabbaa" fill-opacity="0.533333" stroke="#aabbaa" stroke-width="1.3" stroke-opacity="0.533333" points="467.23,-77.53 473.89,-69.29 463.55,-71.57 467.23,-77.53"/>
</g>
<!-- /lib/screens/game_screen.dart -->
<g id="node9" class="node">
<title>/lib/screens/game_screen.dart</title>
<path fill="Lavender" stroke="black" stroke-width="1.3" d="M477.38,-517C477.38,-517 394.62,-517 394.62,-517 388.62,-517 382.62,-511 382.62,-505 382.62,-505 382.62,-493 382.62,-493 382.62,-487 388.62,-481 394.62,-481 394.62,-481 477.38,-481 477.38,-481 483.38,-481 489.38,-487 489.38,-493 489.38,-493 489.38,-505 489.38,-505 489.38,-511 483.38,-517 477.38,-517"/>
<text text-anchor="middle" x="436" y="-493.75" font-family="Arial" font-size="15.00">game_screen</text>
</g>
<!-- /lib/screens/game_screen.dart&#45;&gt;/lib/models/game_model.dart -->
<g id="edge13" class="edge">
<title>/lib/screens/game_screen.dart&#45;&gt;/lib/models/game_model.dart</title>
<path fill="none" stroke="#aabbaa" stroke-width="1.3" stroke-opacity="0.533333" d="M437.68,-480.77C439.17,-460.65 440.27,-426.49 434,-398 419.44,-331.81 382.79,-260.62 361.34,-222.63"/>
<polygon fill="#aabbaa" fill-opacity="0.533333" stroke="#aabbaa" stroke-width="1.3" stroke-opacity="0.533333" points="364.45,-221.03 356.44,-214.09 358.38,-224.51 364.45,-221.03"/>
</g>
<!-- /lib/screens/game_screen.dart&#45;&gt;/lib/models/game_over_dialog.dart -->
<g id="edge14" class="edge">
<title>/lib/screens/game_screen.dart&#45;&gt;/lib/models/game_over_dialog.dart</title>
<path fill="none" stroke="#aabbaa" stroke-width="1.3" stroke-opacity="0.533333" d="M446.05,-480.58C447.19,-478.09 448.22,-475.52 449,-473 476.21,-385.23 481.77,-275.55 482.82,-224.13"/>
<polygon fill="#aabbaa" fill-opacity="0.533333" stroke="#aabbaa" stroke-width="1.3" stroke-opacity="0.533333" points="486.32,-224.39 482.97,-214.34 479.32,-224.28 486.32,-224.39"/>
</g>
<!-- /lib/screens/screen.dart -->
<g id="node11" class="node">
<title>/lib/screens/screen.dart</title>
<path fill="Lavender" stroke="black" stroke-width="1.3" d="M412.5,-442C412.5,-442 375.5,-442 375.5,-442 369.5,-442 363.5,-436 363.5,-430 363.5,-430 363.5,-418 363.5,-418 363.5,-412 369.5,-406 375.5,-406 375.5,-406 412.5,-406 412.5,-406 418.5,-406 424.5,-412 424.5,-418 424.5,-418 424.5,-430 424.5,-430 424.5,-436 418.5,-442 412.5,-442"/>
<text text-anchor="middle" x="394" y="-418.75" font-family="Arial" font-size="15.00">screen</text>
</g>
<!-- /lib/screens/game_screen.dart&#45;&gt;/lib/screens/screen.dart -->
<g id="edge15" class="edge">
<title>/lib/screens/game_screen.dart&#45;&gt;/lib/screens/screen.dart</title>
<path fill="none" stroke="#aabbaa" stroke-width="1.3" stroke-opacity="0.533333" d="M426.05,-480.7C421.22,-472.31 415.3,-462.02 409.87,-452.58"/>
<polygon fill="#aabbaa" fill-opacity="0.533333" stroke="#aabbaa" stroke-width="1.3" stroke-opacity="0.533333" points="413.03,-451.06 405.01,-444.13 406.96,-454.55 413.03,-451.06"/>
</g>
<!-- /lib/widgets/player_zone_widget.dart -->
<g id="node21" class="node">
<title>/lib/widgets/player_zone_widget.dart</title>
<path fill="Lavender" stroke="black" stroke-width="1.3" d="M890,-442C890,-442 766,-442 766,-442 760,-442 754,-436 754,-430 754,-430 754,-418 754,-418 754,-412 760,-406 766,-406 766,-406 890,-406 890,-406 896,-406 902,-412 902,-418 902,-418 902,-430 902,-430 902,-436 896,-442 890,-442"/>
<text text-anchor="middle" x="828" y="-418.75" font-family="Arial" font-size="15.00">player_zone_widget</text>
</g>
<!-- /lib/screens/game_screen.dart&#45;&gt;/lib/widgets/player_zone_widget.dart -->
<g id="edge16" class="edge">
<title>/lib/screens/game_screen.dart&#45;&gt;/lib/widgets/player_zone_widget.dart</title>
<path fill="none" stroke="#aabbaa" stroke-width="1.3" stroke-opacity="0.533333" d="M489.62,-496.5C565.15,-493.91 698.82,-487.41 745,-473 762.39,-467.57 780.08,-458.01 794.63,-448.85"/>
<polygon fill="#aabbaa" fill-opacity="0.533333" stroke="#aabbaa" stroke-width="1.3" stroke-opacity="0.533333" points="796.53,-451.79 802.98,-443.38 792.7,-445.93 796.53,-451.79"/>
</g>
<!-- /lib/screens/start_screen.dart -->
<g id="node10" class="node">
<title>/lib/screens/start_screen.dart</title>
<path fill="Lavender" stroke="black" stroke-width="1.3" d="M450.62,-589C450.62,-589 375.38,-589 375.38,-589 369.38,-589 363.38,-583 363.38,-577 363.38,-577 363.38,-565 363.38,-565 363.38,-559 369.38,-553 375.38,-553 375.38,-553 450.62,-553 450.62,-553 456.62,-553 462.62,-559 462.62,-565 462.62,-565 462.62,-577 462.62,-577 462.62,-583 456.62,-589 450.62,-589"/>
<text text-anchor="middle" x="413" y="-565.75" font-family="Arial" font-size="15.00">start_screen</text>
</g>
<!-- /lib/screens/start_screen.dart&#45;&gt;/lib/models/game_model.dart -->
<g id="edge18" class="edge">
<title>/lib/screens/start_screen.dart&#45;&gt;/lib/models/game_model.dart</title>
<path fill="none" stroke="#aabbaa" stroke-width="1.3" stroke-opacity="0.533333" d="M394.6,-552.89C385.13,-543.18 374.12,-530.33 367,-517 347.14,-479.82 344,-467.15 344,-425 344,-425 344,-425 344,-351 344,-306.72 344.41,-255.38 344.7,-224.05"/>
<polygon fill="#aabbaa" fill-opacity="0.533333" stroke="#aabbaa" stroke-width="1.3" stroke-opacity="0.533333" points="348.2,-224.31 344.8,-214.28 341.2,-224.25 348.2,-224.31"/>
</g>
<!-- /lib/screens/start_screen.dart&#45;&gt;/lib/models/backend_model.dart -->
<g id="edge17" class="edge">
<title>/lib/screens/start_screen.dart&#45;&gt;/lib/models/backend_model.dart</title>
<path fill="none" stroke="#aabbaa" stroke-width="1.3" stroke-opacity="0.533333" d="M373.85,-552.68C329.71,-530.17 264,-486.36 264,-425 264,-425 264,-425 264,-276 264,-232.7 259.56,-182.68 256.32,-151.95"/>
<polygon fill="#aabbaa" fill-opacity="0.533333" stroke="#aabbaa" stroke-width="1.3" stroke-opacity="0.533333" points="259.84,-151.93 255.28,-142.37 252.88,-152.69 259.84,-151.93"/>
</g>
<!-- /lib/screens/start_screen.dart&#45;&gt;/lib/screens/game_screen.dart -->
<g id="edge19" class="edge">
<title>/lib/screens/start_screen.dart&#45;&gt;/lib/screens/game_screen.dart</title>
<path fill="none" stroke="#aabbaa" stroke-width="1.3" stroke-opacity="0.533333" d="M418.69,-552.7C421.11,-545.32 424,-536.52 426.72,-528.25"/>
<polygon fill="#aabbaa" fill-opacity="0.533333" stroke="#aabbaa" stroke-width="1.3" stroke-opacity="0.533333" points="429.97,-529.57 429.77,-518.97 423.32,-527.38 429.97,-529.57"/>
</g>
<!-- /lib/screens/start_screen.dart&#45;&gt;/lib/screens/screen.dart -->
<g id="edge20" class="edge">
<title>/lib/screens/start_screen.dart&#45;&gt;/lib/screens/screen.dart</title>
<path fill="none" stroke="#aabbaa" stroke-width="1.3" stroke-opacity="0.533333" d="M395.7,-552.52C387.41,-542.9 378.35,-530.24 374,-517 367.11,-496.01 373.07,-471.53 380.23,-453.11"/>
<polygon fill="#aabbaa" fill-opacity="0.533333" stroke="#aabbaa" stroke-width="1.3" stroke-opacity="0.533333" points="383.4,-454.62 384.1,-444.05 376.96,-451.87 383.4,-454.62"/>
</g>
<!-- /lib/widgets/players_in_room_widget.dart -->
<g id="node19" class="node">
<title>/lib/widgets/players_in_room_widget.dart</title>
<path fill="Lavender" stroke="black" stroke-width="1.3" d="M1263.62,-442C1263.62,-442 1110.38,-442 1110.38,-442 1104.38,-442 1098.38,-436 1098.38,-430 1098.38,-430 1098.38,-418 1098.38,-418 1098.38,-412 1104.38,-406 1110.38,-406 1110.38,-406 1263.62,-406 1263.62,-406 1269.62,-406 1275.62,-412 1275.62,-418 1275.62,-418 1275.62,-430 1275.62,-430 1275.62,-436 1269.62,-442 1263.62,-442"/>
<text text-anchor="middle" x="1187" y="-418.75" font-family="Arial" font-size="15.00">players_in_room_widget</text>
</g>
<!-- /lib/screens/start_screen.dart&#45;&gt;/lib/widgets/players_in_room_widget.dart -->
<g id="edge21" class="edge">
<title>/lib/screens/start_screen.dart&#45;&gt;/lib/widgets/players_in_room_widget.dart</title>
<path fill="none" stroke="#aabbaa" stroke-width="1.3" stroke-opacity="0.533333" d="M462.93,-568.15C576.55,-562.81 862.11,-542.93 1089,-473 1108.94,-466.85 1129.86,-457.11 1147.23,-448"/>
<polygon fill="#aabbaa" fill-opacity="0.533333" stroke="#aabbaa" stroke-width="1.3" stroke-opacity="0.533333" points="1148.67,-451.21 1155.81,-443.39 1145.35,-445.04 1148.67,-451.21"/>
</g>
<!-- /lib/main.dart -->
<g id="node12" class="node">
<title>/lib/main.dart</title>
<path fill="Lavender" stroke="black" stroke-width="1.3" d="M428,-664C428,-664 398,-664 398,-664 392,-664 386,-658 386,-652 386,-652 386,-640 386,-640 386,-634 392,-628 398,-628 398,-628 428,-628 428,-628 434,-628 440,-634 440,-640 440,-640 440,-652 440,-652 440,-658 434,-664 428,-664"/>
<text text-anchor="middle" x="413" y="-640.75" font-family="Arial" font-size="15.00">main</text>
</g>
<!-- /lib/main.dart&#45;&gt;/lib/screens/start_screen.dart -->
<g id="edge22" class="edge">
<title>/lib/main.dart&#45;&gt;/lib/screens/start_screen.dart</title>
<path fill="none" stroke="#aabbaa" stroke-width="1.3" stroke-opacity="0.533333" d="M413,-627.7C413,-619.76 413,-610.12 413,-601.11"/>
<polygon fill="#aabbaa" fill-opacity="0.533333" stroke="#aabbaa" stroke-width="1.3" stroke-opacity="0.533333" points="416.5,-601.4 413,-591.4 409.5,-601.4 416.5,-601.4"/>
</g>
<!-- /lib/widgets/player_zone_cta_widget.dart -->
<g id="node13" class="node">
<title>/lib/widgets/player_zone_cta_widget.dart</title>
<path fill="Lavender" stroke="black" stroke-width="1.3" d="M960.25,-370C960.25,-370 807.75,-370 807.75,-370 801.75,-370 795.75,-364 795.75,-358 795.75,-358 795.75,-346 795.75,-346 795.75,-340 801.75,-334 807.75,-334 807.75,-334 960.25,-334 960.25,-334 966.25,-334 972.25,-340 972.25,-346 972.25,-346 972.25,-358 972.25,-358 972.25,-364 966.25,-370 960.25,-370"/>
<text text-anchor="middle" x="884" y="-346.75" font-family="Arial" font-size="15.00">player_zone_cta_widget</text>
</g>
<!-- /lib/widgets/player_zone_cta_widget.dart&#45;&gt;/lib/models/game_model.dart -->
<g id="edge23" class="edge">
<title>/lib/widgets/player_zone_cta_widget.dart&#45;&gt;/lib/models/game_model.dart</title>
<path fill="none" stroke="#aabbaa" stroke-width="1.3" stroke-opacity="0.533333" d="M815.83,-333.59C716.11,-308.29 535.16,-263.07 469,-251 440.8,-245.86 431.41,-254.15 405,-243 392.3,-237.64 380.07,-228.78 370.01,-220.12"/>
<polygon fill="#aabbaa" fill-opacity="0.533333" stroke="#aabbaa" stroke-width="1.3" stroke-opacity="0.533333" points="372.64,-217.78 362.88,-213.66 367.94,-222.97 372.64,-217.78"/>
</g>
<!-- /lib/widgets/card_pile_widget.dart -->
<g id="node14" class="node">
<title>/lib/widgets/card_pile_widget.dart</title>
<path fill="Lavender" stroke="black" stroke-width="1.3" d="M931.5,-212C931.5,-212 828.5,-212 828.5,-212 822.5,-212 816.5,-206 816.5,-200 816.5,-200 816.5,-188 816.5,-188 816.5,-182 822.5,-176 828.5,-176 828.5,-176 931.5,-176 931.5,-176 937.5,-176 943.5,-182 943.5,-188 943.5,-188 943.5,-200 943.5,-200 943.5,-206 937.5,-212 931.5,-212"/>
<text text-anchor="middle" x="880" y="-188.75" font-family="Arial" font-size="15.00">card_pile_widget</text>
</g>
<!-- /lib/widgets/player_zone_cta_widget.dart&#45;&gt;/lib/widgets/card_pile_widget.dart -->
<g id="edge24" class="edge">
<title>/lib/widgets/player_zone_cta_widget.dart&#45;&gt;/lib/widgets/card_pile_widget.dart</title>
<path fill="none" stroke="#aabbaa" stroke-width="1.3" stroke-opacity="0.533333" d="M883.56,-333.71C882.88,-307.24 881.57,-256.35 880.75,-224.12"/>
<polygon fill="#aabbaa" fill-opacity="0.533333" stroke="#aabbaa" stroke-width="1.3" stroke-opacity="0.533333" points="884.25,-224.24 880.5,-214.34 877.25,-224.42 884.25,-224.24"/>
</g>
<!-- /lib/widgets/card_widget.dart -->
<g id="node16" class="node">
<title>/lib/widgets/card_widget.dart</title>
<path fill="Lavender" stroke="black" stroke-width="1.3" d="M837.12,-140C837.12,-140 764.88,-140 764.88,-140 758.88,-140 752.88,-134 752.88,-128 752.88,-128 752.88,-116 752.88,-116 752.88,-110 758.88,-104 764.88,-104 764.88,-104 837.12,-104 837.12,-104 843.12,-104 849.12,-110 849.12,-116 849.12,-116 849.12,-128 849.12,-128 849.12,-134 843.12,-140 837.12,-140"/>
<text text-anchor="middle" x="801" y="-116.75" font-family="Arial" font-size="15.00">card_widget</text>
</g>
<!-- /lib/widgets/player_zone_cta_widget.dart&#45;&gt;/lib/widgets/card_widget.dart -->
<g id="edge26" class="edge">
<title>/lib/widgets/player_zone_cta_widget.dart&#45;&gt;/lib/widgets/card_widget.dart</title>
<path fill="none" stroke="#aabbaa" stroke-width="1.3" stroke-opacity="0.533333" d="M867.07,-333.66C848.77,-313.68 820.54,-278.93 808,-243 797.64,-213.3 797.05,-176.98 798.32,-152.12"/>
<polygon fill="#aabbaa" fill-opacity="0.533333" stroke="#aabbaa" stroke-width="1.3" stroke-opacity="0.533333" points="801.81,-152.44 798.98,-142.23 794.82,-151.97 801.81,-152.44"/>
</g>
<!-- /lib/widgets/card_piles_widget.dart -->
<g id="node22" class="node">
<title>/lib/widgets/card_piles_widget.dart</title>
<path fill="Lavender" stroke="black" stroke-width="1.3" d="M1018.25,-295C1018.25,-295 907.75,-295 907.75,-295 901.75,-295 895.75,-289 895.75,-283 895.75,-283 895.75,-271 895.75,-271 895.75,-265 901.75,-259 907.75,-259 907.75,-259 1018.25,-259 1018.25,-259 1024.25,-259 1030.25,-265 1030.25,-271 1030.25,-271 1030.25,-283 1030.25,-283 1030.25,-289 1024.25,-295 1018.25,-295"/>
<text text-anchor="middle" x="963" y="-271.75" font-family="Arial" font-size="15.00">card_piles_widget</text>
</g>
<!-- /lib/widgets/player_zone_cta_widget.dart&#45;&gt;/lib/widgets/card_piles_widget.dart -->
<g id="edge25" class="edge">
<title>/lib/widgets/player_zone_cta_widget.dart&#45;&gt;/lib/widgets/card_piles_widget.dart</title>
<path fill="none" stroke="#aabbaa" stroke-width="1.3" stroke-opacity="0.533333" d="M902.72,-333.7C912.49,-324.67 924.63,-313.46 935.44,-303.46"/>
<polygon fill="#aabbaa" fill-opacity="0.533333" stroke="#aabbaa" stroke-width="1.3" stroke-opacity="0.533333" points="937.72,-306.12 942.69,-296.76 932.97,-300.98 937.72,-306.12"/>
</g>
<!-- /lib/widgets/card_pile_widget.dart&#45;&gt;/lib/models/card_model.dart -->
<g id="edge27" class="edge">
<title>/lib/widgets/card_pile_widget.dart&#45;&gt;/lib/models/card_model.dart</title>
<path fill="none" stroke="#aabbaa" stroke-width="1.3" stroke-opacity="0.533333" d="M881.53,-175.73C882.43,-153.74 880.26,-116.18 858,-96 815.18,-57.2 648.47,-50.93 558.07,-50.47"/>
<polygon fill="#aabbaa" fill-opacity="0.533333" stroke="#aabbaa" stroke-width="1.3" stroke-opacity="0.533333" points="558.35,-46.97 548.34,-50.44 558.34,-53.97 558.35,-46.97"/>
</g>
<!-- /lib/widgets/card_pile_widget.dart&#45;&gt;/lib/widgets/card_widget.dart -->
<g id="edge28" class="edge">
<title>/lib/widgets/card_pile_widget.dart&#45;&gt;/lib/widgets/card_widget.dart</title>
<path fill="none" stroke="#aabbaa" stroke-width="1.3" stroke-opacity="0.533333" d="M860.47,-175.7C851.07,-167.37 839.62,-157.22 829.29,-148.07"/>
<polygon fill="#aabbaa" fill-opacity="0.533333" stroke="#aabbaa" stroke-width="1.3" stroke-opacity="0.533333" points="831.86,-145.66 822.05,-141.65 827.21,-150.9 831.86,-145.66"/>
</g>
<!-- /lib/widgets/wiggle_widget.dart -->
<g id="node18" class="node">
<title>/lib/widgets/wiggle_widget.dart</title>
<path fill="Lavender" stroke="black" stroke-width="1.3" d="M723.12,-140C723.12,-140 638.88,-140 638.88,-140 632.88,-140 626.88,-134 626.88,-128 626.88,-128 626.88,-116 626.88,-116 626.88,-110 632.88,-104 638.88,-104 638.88,-104 723.12,-104 723.12,-104 729.12,-104 735.12,-110 735.12,-116 735.12,-116 735.12,-128 735.12,-128 735.12,-134 729.12,-140 723.12,-140"/>
<text text-anchor="middle" x="681" y="-116.75" font-family="Arial" font-size="15.00">wiggle_widget</text>
</g>
<!-- /lib/widgets/card_pile_widget.dart&#45;&gt;/lib/widgets/wiggle_widget.dart -->
<g id="edge29" class="edge">
<title>/lib/widgets/card_pile_widget.dart&#45;&gt;/lib/widgets/wiggle_widget.dart</title>
<path fill="none" stroke="#aabbaa" stroke-width="1.3" stroke-opacity="0.533333" d="M830.3,-175.52C803.37,-166.04 769.87,-154.26 741.44,-144.26"/>
<polygon fill="#aabbaa" fill-opacity="0.533333" stroke="#aabbaa" stroke-width="1.3" stroke-opacity="0.533333" points="742.86,-141.05 732.27,-141.03 740.54,-147.65 742.86,-141.05"/>
</g>
<!-- /lib/widgets/table_surface_painter.dart -->
<g id="node15" class="node">
<title>/lib/widgets/table_surface_painter.dart</title>
<path fill="Lavender" stroke="black" stroke-width="1.3" d="M724,-442C724,-442 588,-442 588,-442 582,-442 576,-436 576,-430 576,-430 576,-418 576,-418 576,-412 582,-406 588,-406 588,-406 724,-406 724,-406 730,-406 736,-412 736,-418 736,-418 736,-430 736,-430 736,-436 730,-442 724,-442"/>
<text text-anchor="middle" x="656" y="-418.75" font-family="Arial" font-size="15.00">table_surface_painter</text>
</g>
<!-- /lib/widgets/card_widget.dart&#45;&gt;/lib/models/card_model.dart -->
<g id="edge30" class="edge">
<title>/lib/widgets/card_widget.dart&#45;&gt;/lib/models/card_model.dart</title>
<path fill="none" stroke="#aabbaa" stroke-width="1.3" stroke-opacity="0.533333" d="M764.68,-103.58C757.91,-100.76 750.82,-98.09 744,-96 681.8,-76.93 608.1,-64.73 557.89,-57.92"/>
<polygon fill="#aabbaa" fill-opacity="0.533333" stroke="#aabbaa" stroke-width="1.3" stroke-opacity="0.533333" points="558.61,-54.48 548.24,-56.64 557.69,-61.42 558.61,-54.48"/>
</g>
<!-- /lib/widgets/player_header_widget.dart -->
<g id="node17" class="node">
<title>/lib/widgets/player_header_widget.dart</title>
<path fill="Lavender" stroke="black" stroke-width="1.3" d="M726.12,-370C726.12,-370 587.88,-370 587.88,-370 581.88,-370 575.88,-364 575.88,-358 575.88,-358 575.88,-346 575.88,-346 575.88,-340 581.88,-334 587.88,-334 587.88,-334 726.12,-334 726.12,-334 732.12,-334 738.12,-340 738.12,-346 738.12,-346 738.12,-358 738.12,-358 738.12,-364 732.12,-370 726.12,-370"/>
<text text-anchor="middle" x="657" y="-346.75" font-family="Arial" font-size="15.00">player_header_widget</text>
</g>
<!-- /lib/widgets/text_edit_with_submit.dart -->
<g id="node20" class="node">
<title>/lib/widgets/text_edit_with_submit.dart</title>
<path fill="Lavender" stroke="black" stroke-width="1.3" d="M1068,-442C1068,-442 932,-442 932,-442 926,-442 920,-436 920,-430 920,-430 920,-418 920,-418 920,-412 926,-406 932,-406 932,-406 1068,-406 1068,-406 1074,-406 1080,-412 1080,-418 1080,-418 1080,-430 1080,-430 1080,-436 1074,-442 1068,-442"/>
<text text-anchor="middle" x="1000" y="-418.75" font-family="Arial" font-size="15.00">text_edit_with_submit</text>
</g>
<!-- /lib/widgets/player_zone_widget.dart&#45;&gt;/lib/models/game_model.dart -->
<g id="edge31" class="edge">
<title>/lib/widgets/player_zone_widget.dart&#45;&gt;/lib/models/game_model.dart</title>
<path fill="none" stroke="#aabbaa" stroke-width="1.3" stroke-opacity="0.533333" d="M773.81,-405.52C764.27,-402.78 754.39,-400.14 745,-398 621.4,-369.8 551.12,-422.58 469,-326 446.65,-299.72 474.36,-274.39 449,-251 434.39,-237.52 423.09,-251.24 405,-243 392.67,-237.39 380.68,-228.67 370.7,-220.2"/>
<polygon fill="#aabbaa" fill-opacity="0.533333" stroke="#aabbaa" stroke-width="1.3" stroke-opacity="0.533333" points="373.07,-217.62 363.28,-213.58 368.41,-222.85 373.07,-217.62"/>
</g>
<!-- /lib/widgets/player_zone_widget.dart&#45;&gt;/lib/widgets/player_zone_cta_widget.dart -->
<g id="edge34" class="edge">
<title>/lib/widgets/player_zone_widget.dart&#45;&gt;/lib/widgets/player_zone_cta_widget.dart</title>
<path fill="none" stroke="#aabbaa" stroke-width="1.3" stroke-opacity="0.533333" d="M841.84,-405.7C848.22,-397.73 855.92,-388.1 862.99,-379.26"/>
<polygon fill="#aabbaa" fill-opacity="0.533333" stroke="#aabbaa" stroke-width="1.3" stroke-opacity="0.533333" points="865.57,-381.64 869.09,-371.64 860.11,-377.26 865.57,-381.64"/>
</g>
<!-- /lib/widgets/player_zone_widget.dart&#45;&gt;/lib/widgets/card_widget.dart -->
<g id="edge32" class="edge">
<title>/lib/widgets/player_zone_widget.dart&#45;&gt;/lib/widgets/card_widget.dart</title>
<path fill="none" stroke="#aabbaa" stroke-width="1.3" stroke-opacity="0.533333" d="M809.83,-405.68C801.12,-396.1 791.59,-383.43 787,-370 761.25,-294.63 780.15,-198.86 792.52,-151.78"/>
<polygon fill="#aabbaa" fill-opacity="0.533333" stroke="#aabbaa" stroke-width="1.3" stroke-opacity="0.533333" points="795.86,-152.84 795.13,-142.27 789.11,-150.99 795.86,-152.84"/>
</g>
<!-- /lib/widgets/player_zone_widget.dart&#45;&gt;/lib/widgets/player_header_widget.dart -->
<g id="edge33" class="edge">
<title>/lib/widgets/player_zone_widget.dart&#45;&gt;/lib/widgets/player_header_widget.dart</title>
<path fill="none" stroke="#aabbaa" stroke-width="1.3" stroke-opacity="0.533333" d="M785.29,-405.52C762.56,-396.21 734.39,-384.68 710.24,-374.79"/>
<polygon fill="#aabbaa" fill-opacity="0.533333" stroke="#aabbaa" stroke-width="1.3" stroke-opacity="0.533333" points="711.86,-371.68 701.28,-371.13 709.21,-378.15 711.86,-371.68"/>
</g>
<!-- /lib/widgets/player_zone_widget.dart&#45;&gt;/lib/widgets/wiggle_widget.dart -->
<g id="edge35" class="edge">
<title>/lib/widgets/player_zone_widget.dart&#45;&gt;/lib/widgets/wiggle_widget.dart</title>
<path fill="none" stroke="#aabbaa" stroke-width="1.3" stroke-opacity="0.533333" d="M806.29,-405.68C795.42,-396.09 782.75,-383.43 774,-370 727.29,-298.31 699.24,-199.77 687.48,-151.71"/>
<polygon fill="#aabbaa" fill-opacity="0.533333" stroke="#aabbaa" stroke-width="1.3" stroke-opacity="0.533333" points="690.95,-151.19 685.23,-142.27 684.15,-152.81 690.95,-151.19"/>
</g>
<!-- /lib/widgets/card_piles_widget.dart&#45;&gt;/lib/models/card_model.dart -->
<g id="edge36" class="edge">
<title>/lib/widgets/card_piles_widget.dart&#45;&gt;/lib/models/card_model.dart</title>
<path fill="none" stroke="#aabbaa" stroke-width="1.3" stroke-opacity="0.533333" d="M964.67,-258.8C965.94,-238.11 965.7,-202.8 953,-176 931.47,-130.56 918.22,-117.99 873,-96 818.82,-69.66 648.93,-57.92 557.93,-53.42"/>
<polygon fill="#aabbaa" fill-opacity="0.533333" stroke="#aabbaa" stroke-width="1.3" stroke-opacity="0.533333" points="558.29,-49.93 548.13,-52.95 557.95,-56.92 558.29,-49.93"/>
</g>
<!-- /lib/widgets/card_piles_widget.dart&#45;&gt;/lib/widgets/card_pile_widget.dart -->
<g id="edge37" class="edge">
<title>/lib/widgets/card_piles_widget.dart&#45;&gt;/lib/widgets/card_pile_widget.dart</title>
<path fill="none" stroke="#aabbaa" stroke-width="1.3" stroke-opacity="0.533333" d="M945.4,-258.82C934.03,-247.73 919.04,-233.09 906.27,-220.64"/>
<polygon fill="#aabbaa" fill-opacity="0.533333" stroke="#aabbaa" stroke-width="1.3" stroke-opacity="0.533333" points="908.87,-218.29 899.27,-213.81 903.98,-223.3 908.87,-218.29"/>
</g>
</g>
</svg>
