<?xml version="1.0" encoding="UTF-8" standalone="no"?>
<!DOCTYPE svg PUBLIC "-//W3C//DTD SVG 1.1//EN"
 "http://www.w3.org/Graphics/SVG/1.1/DTD/svg11.dtd">
<!-- Generated by graphviz version 12.1.2 (20240928.0832)
 -->
<!-- Pages: 1 -->
<svg width="1225pt" height="595pt"
 viewBox="0.00 0.00 1225.00 595.00" xmlns="http://www.w3.org/2000/svg" xmlns:xlink="http://www.w3.org/1999/xlink">
<g id="graph0" class="graph" transform="scale(1 1) rotate(0) translate(4 591)">
<polygon fill="white" stroke="none" points="-4,4 -4,-591 1221,-591 1221,4 -4,4"/>
<g id="clust1" class="cluster">
<title>cluster~</title>
<path fill="none" stroke="lightgray" stroke-width="2.6" d="M20,-8C20,-8 1197,-8 1197,-8 1203,-8 1209,-14 1209,-20 1209,-20 1209,-567 1209,-567 1209,-573 1203,-579 1197,-579 1197,-579 20,-579 20,-579 14,-579 8,-573 8,-567 8,-567 8,-20 8,-20 8,-14 14,-8 20,-8"/>
<text text-anchor="middle" x="608.5" y="-562.65" font-family="Arial Black" font-size="13.00">cards</text>
</g>
<g id="clust2" class="cluster">
<title>cluster~/test</title>
<path fill="none" stroke="lightgray" stroke-width="2.6" d="M28,-323C28,-323 156,-323 156,-323 162,-323 168,-329 168,-335 168,-335 168,-386 168,-386 168,-392 162,-398 156,-398 156,-398 28,-398 28,-398 22,-398 16,-392 16,-386 16,-386 16,-335 16,-335 16,-329 22,-323 28,-323"/>
<text text-anchor="middle" x="92" y="-381.65" font-family="Arial Black" font-size="13.00">test</text>
</g>
<g id="clust3" class="cluster">
<title>cluster~/lib</title>
<path fill="none" stroke="lightgray" stroke-width="2.6" d="M188,-16C188,-16 1189,-16 1189,-16 1195,-16 1201,-22 1201,-28 1201,-28 1201,-536 1201,-536 1201,-542 1195,-548 1189,-548 1189,-548 188,-548 188,-548 182,-548 176,-542 176,-536 176,-536 176,-28 176,-28 176,-22 182,-16 188,-16"/>
<text text-anchor="middle" x="688.5" y="-531.65" font-family="Arial Black" font-size="13.00">lib</text>
</g>
<g id="clust4" class="cluster">
<title>cluster~/lib/models</title>
<path fill="none" stroke="lightgray" stroke-width="2.6" d="M624,-168C624,-168 744,-168 744,-168 750,-168 756,-174 756,-180 756,-180 756,-303 756,-303 756,-309 750,-315 744,-315 744,-315 624,-315 624,-315 618,-315 612,-309 612,-303 612,-303 612,-180 612,-180 612,-174 618,-168 624,-168"/>
<text text-anchor="middle" x="684" y="-298.65" font-family="Arial Black" font-size="13.00">models</text>
</g>
<g id="clust5" class="cluster">
<title>cluster~/lib/screens</title>
<path fill="none" stroke="lightgray" stroke-width="2.6" d="M332,-240C332,-240 592,-240 592,-240 598,-240 604,-246 604,-252 604,-252 604,-461 604,-461 604,-467 598,-473 592,-473 592,-473 332,-473 332,-473 326,-473 320,-467 320,-461 320,-461 320,-252 320,-252 320,-246 326,-240 332,-240"/>
<text text-anchor="middle" x="462" y="-456.65" font-family="Arial Black" font-size="13.00">screens</text>
</g>
<g id="clust6" class="cluster">
<title>cluster~/lib/widgets</title>
<path fill="none" stroke="lightgray" stroke-width="2.6" d="M776,-24C776,-24 1181,-24 1181,-24 1187,-24 1193,-30 1193,-36 1193,-36 1193,-386 1193,-386 1193,-392 1187,-398 1181,-398 1181,-398 776,-398 776,-398 770,-398 764,-392 764,-386 764,-386 764,-36 764,-36 764,-30 770,-24 776,-24"/>
<text text-anchor="middle" x="978.5" y="-381.65" font-family="Arial Black" font-size="13.00">widgets</text>
</g>
<!-- /test/game_model_test.dart -->
<g id="node1" class="node">
<title>/test/game_model_test.dart</title>
<path fill="Lavender" stroke="black" stroke-width="1.3" d="M147.62,-367C147.62,-367 36.38,-367 36.38,-367 30.38,-367 24.38,-361 24.38,-355 24.38,-355 24.38,-343 24.38,-343 24.38,-337 30.38,-331 36.38,-331 36.38,-331 147.62,-331 147.62,-331 153.62,-331 159.62,-337 159.62,-343 159.62,-343 159.62,-355 159.62,-355 159.62,-361 153.62,-367 147.62,-367"/>
<text text-anchor="middle" x="92" y="-343.75" font-family="Arial" font-size="15.00">game_model_test</text>
</g>
<!-- /lib/models/game_model.dart -->
<g id="node4" class="node">
<title>/lib/models/game_model.dart</title>
<path fill="Lavender" stroke="black" stroke-width="1.3" d="M710.12,-284C710.12,-284 631.88,-284 631.88,-284 625.88,-284 619.88,-278 619.88,-272 619.88,-272 619.88,-260 619.88,-260 619.88,-254 625.88,-248 631.88,-248 631.88,-248 710.12,-248 710.12,-248 716.12,-248 722.12,-254 722.12,-260 722.12,-260 722.12,-272 722.12,-272 722.12,-278 716.12,-284 710.12,-284"/>
<text text-anchor="middle" x="671" y="-260.75" font-family="Arial" font-size="15.00">game_model</text>
</g>
<!-- /test/game_model_test.dart&#45;&gt;/lib/models/game_model.dart -->
<g id="edge1" class="edge">
<title>/test/game_model_test.dart&#45;&gt;/lib/models/game_model.dart</title>
<path fill="none" stroke="#aabbaa" stroke-width="1.3" stroke-opacity="0.533333" d="M160,-338.91C204.33,-333.36 263.5,-326.64 316,-323 348.38,-320.75 577.39,-325.8 608,-315 621.74,-310.15 634.9,-301.09 645.6,-292.14"/>
<polygon fill="#aabbaa" fill-opacity="0.533333" stroke="#aabbaa" stroke-width="1.3" stroke-opacity="0.533333" points="647.69,-294.96 652.86,-285.71 643.05,-289.72 647.69,-294.96"/>
</g>
<!-- /lib/firebase_options_private.dart -->
<g id="node2" class="node">
<title>/lib/firebase_options_private.dart</title>
<path fill="Lavender" stroke="black" stroke-width="1.3" d="M350.38,-517C350.38,-517 195.62,-517 195.62,-517 189.62,-517 183.62,-511 183.62,-505 183.62,-505 183.62,-493 183.62,-493 183.62,-487 189.62,-481 195.62,-481 195.62,-481 350.38,-481 350.38,-481 356.38,-481 362.38,-487 362.38,-493 362.38,-493 362.38,-505 362.38,-505 362.38,-511 356.38,-517 350.38,-517"/>
<text text-anchor="middle" x="273" y="-493.75" font-family="Arial" font-size="15.00">firebase_options_private</text>
</g>
<!-- /lib/firebase_options.dart -->
<g id="node3" class="node">
<title>/lib/firebase_options.dart</title>
<path fill="Lavender" stroke="black" stroke-width="1.3" d="M297.75,-442C297.75,-442 196.25,-442 196.25,-442 190.25,-442 184.25,-436 184.25,-430 184.25,-430 184.25,-418 184.25,-418 184.25,-412 190.25,-406 196.25,-406 196.25,-406 297.75,-406 297.75,-406 303.75,-406 309.75,-412 309.75,-418 309.75,-418 309.75,-430 309.75,-430 309.75,-436 303.75,-442 297.75,-442"/>
<text text-anchor="middle" x="247" y="-418.75" font-family="Arial" font-size="15.00">firebase_options</text>
</g>
<!-- /lib/models/deck.dart -->
<g id="node5" class="node">
<title>/lib/models/deck.dart</title>
<path fill="Lavender" stroke="black" stroke-width="1.3" d="M662,-212C662,-212 632,-212 632,-212 626,-212 620,-206 620,-200 620,-200 620,-188 620,-188 620,-182 626,-176 632,-176 632,-176 662,-176 662,-176 668,-176 674,-182 674,-188 674,-188 674,-200 674,-200 674,-206 668,-212 662,-212"/>
<text text-anchor="middle" x="647" y="-188.75" font-family="Arial" font-size="15.00">deck</text>
</g>
<!-- /lib/models/game_model.dart&#45;&gt;/lib/models/deck.dart -->
<g id="edge2" class="edge">
<title>/lib/models/game_model.dart&#45;&gt;/lib/models/deck.dart</title>
<path fill="none" stroke="#aabbaa" stroke-width="1.3" stroke-opacity="0.533333" d="M665.07,-247.7C662.54,-240.32 659.52,-231.52 656.69,-223.25"/>
<polygon fill="#aabbaa" fill-opacity="0.533333" stroke="#aabbaa" stroke-width="1.3" stroke-opacity="0.533333" points="660.06,-222.29 653.5,-213.97 653.43,-224.56 660.06,-222.29"/>
</g>
<!-- /lib/models/player.dart -->
<g id="node6" class="node">
<title>/lib/models/player.dart</title>
<path fill="Lavender" stroke="black" stroke-width="1.3" d="M736.25,-212C736.25,-212 703.75,-212 703.75,-212 697.75,-212 691.75,-206 691.75,-200 691.75,-200 691.75,-188 691.75,-188 691.75,-182 697.75,-176 703.75,-176 703.75,-176 736.25,-176 736.25,-176 742.25,-176 748.25,-182 748.25,-188 748.25,-188 748.25,-200 748.25,-200 748.25,-206 742.25,-212 736.25,-212"/>
<text text-anchor="middle" x="720" y="-188.75" font-family="Arial" font-size="15.00">player</text>
</g>
<!-- /lib/models/game_model.dart&#45;&gt;/lib/models/player.dart -->
<g id="edge3" class="edge">
<title>/lib/models/game_model.dart&#45;&gt;/lib/models/player.dart</title>
<path fill="none" stroke="#aabbaa" stroke-width="1.3" stroke-opacity="0.533333" d="M683.11,-247.7C688.57,-239.9 695.14,-230.51 701.22,-221.83"/>
<polygon fill="#aabbaa" fill-opacity="0.533333" stroke="#aabbaa" stroke-width="1.3" stroke-opacity="0.533333" points="704.03,-223.92 706.9,-213.72 698.3,-219.9 704.03,-223.92"/>
</g>
<!-- /lib/screens/game_over_screen.dart -->
<g id="node8" class="node">
<title>/lib/screens/game_over_screen.dart</title>
<path fill="Lavender" stroke="black" stroke-width="1.3" d="M584.12,-442C584.12,-442 463.88,-442 463.88,-442 457.88,-442 451.88,-436 451.88,-430 451.88,-430 451.88,-418 451.88,-418 451.88,-412 457.88,-406 463.88,-406 463.88,-406 584.12,-406 584.12,-406 590.12,-406 596.12,-412 596.12,-418 596.12,-418 596.12,-430 596.12,-430 596.12,-436 590.12,-442 584.12,-442"/>
<text text-anchor="middle" x="524" y="-418.75" font-family="Arial" font-size="15.00">game_over_screen</text>
</g>
<!-- /lib/models/game_model.dart&#45;&gt;/lib/screens/game_over_screen.dart -->
<g id="edge4" class="edge">
<title>/lib/models/game_model.dart&#45;&gt;/lib/screens/game_over_screen.dart</title>
<path fill="none" stroke="#aabbaa" stroke-width="1.3" stroke-opacity="0.533333" d="M665.5,-284.5C655.87,-312.42 633.31,-367.05 596,-398 595.46,-398.45 594.91,-398.89 594.35,-399.32"/>
<polygon fill="#aabbaa" fill-opacity="0.533333" stroke="#aabbaa" stroke-width="1.3" stroke-opacity="0.533333" points="592.77,-396.17 586.36,-404.6 596.63,-402.01 592.77,-396.17"/>
</g>
<!-- /lib/widgets/playing_card.dart -->
<g id="node18" class="node">
<title>/lib/widgets/playing_card.dart</title>
<path fill="Lavender" stroke="black" stroke-width="1.3" d="M873,-68C873,-68 797,-68 797,-68 791,-68 785,-62 785,-56 785,-56 785,-44 785,-44 785,-38 791,-32 797,-32 797,-32 873,-32 873,-32 879,-32 885,-38 885,-44 885,-44 885,-56 885,-56 885,-62 879,-68 873,-68"/>
<text text-anchor="middle" x="835" y="-44.75" font-family="Arial" font-size="15.00">playing_card</text>
</g>
<!-- /lib/models/game_model.dart&#45;&gt;/lib/widgets/playing_card.dart -->
<g id="edge5" class="edge">
<title>/lib/models/game_model.dart&#45;&gt;/lib/widgets/playing_card.dart</title>
<path fill="none" stroke="#aabbaa" stroke-width="1.3" stroke-opacity="0.533333" d="M642.11,-247.5C630.12,-238.53 617.51,-226.44 611,-212 602.96,-194.17 602.37,-185.55 611,-168 641.27,-106.43 718.14,-76.42 773.39,-62.39"/>
<polygon fill="#aabbaa" fill-opacity="0.533333" stroke="#aabbaa" stroke-width="1.3" stroke-opacity="0.533333" points="774.01,-65.84 782.91,-60.1 772.37,-59.04 774.01,-65.84"/>
</g>
<!-- /lib/models/deck.dart&#45;&gt;/lib/widgets/playing_card.dart -->
<g id="edge6" class="edge">
<title>/lib/models/deck.dart&#45;&gt;/lib/widgets/playing_card.dart</title>
<path fill="none" stroke="#aabbaa" stroke-width="1.3" stroke-opacity="0.533333" d="M661.9,-175.83C679.01,-156.77 708.51,-125.82 738,-104 753.18,-92.76 771.03,-82.33 787.25,-73.75"/>
<polygon fill="#aabbaa" fill-opacity="0.533333" stroke="#aabbaa" stroke-width="1.3" stroke-opacity="0.533333" points="788.61,-76.99 795.88,-69.28 785.39,-70.77 788.61,-76.99"/>
</g>
<!-- /lib/models/player.dart&#45;&gt;/lib/widgets/playing_card.dart -->
<g id="edge7" class="edge">
<title>/lib/models/player.dart&#45;&gt;/lib/widgets/playing_card.dart</title>
<path fill="none" stroke="#aabbaa" stroke-width="1.3" stroke-opacity="0.533333" d="M725.83,-175.54C732.78,-156.51 745.8,-125.86 764,-104 772.98,-93.21 784.58,-83.38 795.8,-75.19"/>
<polygon fill="#aabbaa" fill-opacity="0.533333" stroke="#aabbaa" stroke-width="1.3" stroke-opacity="0.533333" points="797.66,-78.16 803.86,-69.57 793.66,-72.42 797.66,-78.16"/>
</g>
<!-- /lib/screens/game_screen.dart -->
<g id="node7" class="node">
<title>/lib/screens/game_screen.dart</title>
<path fill="Lavender" stroke="black" stroke-width="1.3" d="M539.38,-367C539.38,-367 456.62,-367 456.62,-367 450.62,-367 444.62,-361 444.62,-355 444.62,-355 444.62,-343 444.62,-343 444.62,-337 450.62,-331 456.62,-331 456.62,-331 539.38,-331 539.38,-331 545.38,-331 551.38,-337 551.38,-343 551.38,-343 551.38,-355 551.38,-355 551.38,-361 545.38,-367 539.38,-367"/>
<text text-anchor="middle" x="498" y="-343.75" font-family="Arial" font-size="15.00">game_screen</text>
</g>
<!-- /lib/screens/game_screen.dart&#45;&gt;/lib/models/game_model.dart -->
<g id="edge8" class="edge">
<title>/lib/screens/game_screen.dart&#45;&gt;/lib/models/game_model.dart</title>
<path fill="none" stroke="#aabbaa" stroke-width="1.3" stroke-opacity="0.533333" d="M551.8,-332.79C576.93,-325.51 602.54,-317.78 608,-315 620.29,-308.74 632.62,-300.02 643.07,-291.72"/>
<polygon fill="#aabbaa" fill-opacity="0.533333" stroke="#aabbaa" stroke-width="1.3" stroke-opacity="0.533333" points="645.07,-294.61 650.57,-285.56 640.62,-289.2 645.07,-294.61"/>
</g>
<!-- /lib/screens/screen.dart -->
<g id="node10" class="node">
<title>/lib/screens/screen.dart</title>
<path fill="Lavender" stroke="black" stroke-width="1.3" d="M468.5,-284C468.5,-284 431.5,-284 431.5,-284 425.5,-284 419.5,-278 419.5,-272 419.5,-272 419.5,-260 419.5,-260 419.5,-254 425.5,-248 431.5,-248 431.5,-248 468.5,-248 468.5,-248 474.5,-248 480.5,-254 480.5,-260 480.5,-260 480.5,-272 480.5,-272 480.5,-278 474.5,-284 468.5,-284"/>
<text text-anchor="middle" x="450" y="-260.75" font-family="Arial" font-size="15.00">screen</text>
</g>
<!-- /lib/screens/game_screen.dart&#45;&gt;/lib/screens/screen.dart -->
<g id="edge9" class="edge">
<title>/lib/screens/game_screen.dart&#45;&gt;/lib/screens/screen.dart</title>
<path fill="none" stroke="#aabbaa" stroke-width="1.3" stroke-opacity="0.533333" d="M487.82,-330.82C481.56,-320.26 473.4,-306.49 466.27,-294.45"/>
<polygon fill="#aabbaa" fill-opacity="0.533333" stroke="#aabbaa" stroke-width="1.3" stroke-opacity="0.533333" points="469.44,-292.94 461.33,-286.13 463.42,-296.51 469.44,-292.94"/>
</g>
<!-- /lib/widgets/player_zone.dart -->
<g id="node17" class="node">
<title>/lib/widgets/player_zone.dart</title>
<path fill="Lavender" stroke="black" stroke-width="1.3" d="M1089.5,-367C1089.5,-367 1016.5,-367 1016.5,-367 1010.5,-367 1004.5,-361 1004.5,-355 1004.5,-355 1004.5,-343 1004.5,-343 1004.5,-337 1010.5,-331 1016.5,-331 1016.5,-331 1089.5,-331 1089.5,-331 1095.5,-331 1101.5,-337 1101.5,-343 1101.5,-343 1101.5,-355 1101.5,-355 1101.5,-361 1095.5,-367 1089.5,-367"/>
<text text-anchor="middle" x="1053" y="-343.75" font-family="Arial" font-size="15.00">player_zone</text>
</g>
<!-- /lib/screens/game_screen.dart&#45;&gt;/lib/widgets/player_zone.dart -->
<g id="edge10" class="edge">
<title>/lib/screens/game_screen.dart&#45;&gt;/lib/widgets/player_zone.dart</title>
<path fill="none" stroke="#aabbaa" stroke-width="1.3" stroke-opacity="0.533333" d="M551.79,-362.71C606.15,-375.81 692.77,-394.62 769,-402 793,-404.32 962.41,-407.01 986,-402 1002.88,-398.42 1018.25,-387.15 1030.01,-375.91"/>
<polygon fill="#aabbaa" fill-opacity="0.533333" stroke="#aabbaa" stroke-width="1.3" stroke-opacity="0.533333" points="1032.4,-378.47 1036.88,-368.87 1027.39,-373.58 1032.4,-378.47"/>
</g>
<!-- /lib/screens/game_over_screen.dart&#45;&gt;/lib/models/player.dart -->
<g id="edge11" class="edge">
<title>/lib/screens/game_over_screen.dart&#45;&gt;/lib/models/player.dart</title>
<path fill="none" stroke="#aabbaa" stroke-width="1.3" stroke-opacity="0.533333" d="M596.51,-409.96C607.34,-406.77 618.17,-402.84 628,-398 680.76,-372.05 705.63,-368.03 731,-315 744.81,-286.13 738.19,-248.92 730.62,-223.64"/>
<polygon fill="#aabbaa" fill-opacity="0.533333" stroke="#aabbaa" stroke-width="1.3" stroke-opacity="0.533333" points="733.96,-222.57 727.53,-214.15 727.3,-224.74 733.96,-222.57"/>
</g>
<!-- /lib/screens/setup_screen.dart -->
<g id="node9" class="node">
<title>/lib/screens/setup_screen.dart</title>
<path fill="Lavender" stroke="black" stroke-width="1.3" d="M422,-442C422,-442 340,-442 340,-442 334,-442 328,-436 328,-430 328,-430 328,-418 328,-418 328,-412 334,-406 340,-406 340,-406 422,-406 422,-406 428,-406 434,-412 434,-418 434,-418 434,-430 434,-430 434,-436 428,-442 422,-442"/>
<text text-anchor="middle" x="381" y="-418.75" font-family="Arial" font-size="15.00">setup_screen</text>
</g>
<!-- /lib/screens/setup_screen.dart&#45;&gt;/lib/models/game_model.dart -->
<g id="edge12" class="edge">
<title>/lib/screens/setup_screen.dart&#45;&gt;/lib/models/game_model.dart</title>
<path fill="none" stroke="#aabbaa" stroke-width="1.3" stroke-opacity="0.533333" d="M434.28,-407.67C437.22,-407.05 440.14,-406.49 443,-406 468.69,-401.64 538.43,-412.62 560,-398 590.6,-377.25 571.75,-350.92 596,-323 600.2,-318.16 602.78,-318.72 608,-315 618.33,-307.63 629.39,-299.34 639.32,-291.75"/>
<polygon fill="#aabbaa" fill-opacity="0.533333" stroke="#aabbaa" stroke-width="1.3" stroke-opacity="0.533333" points="641.46,-294.53 647.25,-285.65 637.19,-288.98 641.46,-294.53"/>
</g>
<!-- /lib/screens/setup_screen.dart&#45;&gt;/lib/screens/game_screen.dart -->
<g id="edge13" class="edge">
<title>/lib/screens/setup_screen.dart&#45;&gt;/lib/screens/game_screen.dart</title>
<path fill="none" stroke="#aabbaa" stroke-width="1.3" stroke-opacity="0.533333" d="M409.02,-405.51C424.36,-395.94 443.58,-383.95 460.23,-373.57"/>
<polygon fill="#aabbaa" fill-opacity="0.533333" stroke="#aabbaa" stroke-width="1.3" stroke-opacity="0.533333" points="461.9,-376.65 468.53,-368.38 458.2,-370.71 461.9,-376.65"/>
</g>
<!-- /lib/screens/setup_screen.dart&#45;&gt;/lib/screens/screen.dart -->
<g id="edge14" class="edge">
<title>/lib/screens/setup_screen.dart&#45;&gt;/lib/screens/screen.dart</title>
<path fill="none" stroke="#aabbaa" stroke-width="1.3" stroke-opacity="0.533333" d="M388.65,-405.71C400.46,-379 423.26,-327.45 437.5,-295.27"/>
<polygon fill="#aabbaa" fill-opacity="0.533333" stroke="#aabbaa" stroke-width="1.3" stroke-opacity="0.533333" points="440.68,-296.73 441.52,-286.17 434.28,-293.9 440.68,-296.73"/>
</g>
<!-- /lib/widgets/list_players.dart -->
<g id="node13" class="node">
<title>/lib/widgets/list_players.dart</title>
<path fill="Lavender" stroke="black" stroke-width="1.3" d="M850.12,-367C850.12,-367 783.88,-367 783.88,-367 777.88,-367 771.88,-361 771.88,-355 771.88,-355 771.88,-343 771.88,-343 771.88,-337 777.88,-331 783.88,-331 783.88,-331 850.12,-331 850.12,-331 856.12,-331 862.12,-337 862.12,-343 862.12,-343 862.12,-355 862.12,-355 862.12,-361 856.12,-367 850.12,-367"/>
<text text-anchor="middle" x="817" y="-343.75" font-family="Arial" font-size="15.00">list_players</text>
</g>
<!-- /lib/screens/setup_screen.dart&#45;&gt;/lib/widgets/list_players.dart -->
<g id="edge15" class="edge">
<title>/lib/screens/setup_screen.dart&#45;&gt;/lib/widgets/list_players.dart</title>
<path fill="none" stroke="#aabbaa" stroke-width="1.3" stroke-opacity="0.533333" d="M434.27,-407.6C437.21,-407 440.13,-406.46 443,-406 515.5,-394.45 535.27,-408.03 608,-398 660.25,-390.79 718.68,-376.86 760.45,-365.85"/>
<polygon fill="#aabbaa" fill-opacity="0.533333" stroke="#aabbaa" stroke-width="1.3" stroke-opacity="0.533333" points="761.11,-369.3 769.87,-363.34 759.3,-362.54 761.11,-369.3"/>
</g>
<!-- /lib/widgets/text_url.dart -->
<g id="node22" class="node">
<title>/lib/widgets/text_url.dart</title>
<path fill="Lavender" stroke="black" stroke-width="1.3" d="M1172.75,-367C1172.75,-367 1131.25,-367 1131.25,-367 1125.25,-367 1119.25,-361 1119.25,-355 1119.25,-355 1119.25,-343 1119.25,-343 1119.25,-337 1125.25,-331 1131.25,-331 1131.25,-331 1172.75,-331 1172.75,-331 1178.75,-331 1184.75,-337 1184.75,-343 1184.75,-343 1184.75,-355 1184.75,-355 1184.75,-361 1178.75,-367 1172.75,-367"/>
<text text-anchor="middle" x="1152" y="-343.75" font-family="Arial" font-size="15.00">text_url</text>
</g>
<!-- /lib/screens/setup_screen.dart&#45;&gt;/lib/widgets/text_url.dart -->
<g id="edge16" class="edge">
<title>/lib/screens/setup_screen.dart&#45;&gt;/lib/widgets/text_url.dart</title>
<path fill="none" stroke="#aabbaa" stroke-width="1.3" stroke-opacity="0.533333" d="M434.25,-407.47C437.2,-406.9 440.13,-406.4 443,-406 461.38,-403.41 1094.19,-405.87 1111,-398 1120.84,-393.39 1129.22,-385.15 1135.78,-376.78"/>
<polygon fill="#aabbaa" fill-opacity="0.533333" stroke="#aabbaa" stroke-width="1.3" stroke-opacity="0.533333" points="1138.57,-378.89 1141.49,-368.71 1132.85,-374.85 1138.57,-378.89"/>
</g>
<!-- /lib/main.dart -->
<g id="node11" class="node">
<title>/lib/main.dart</title>
<path fill="Lavender" stroke="black" stroke-width="1.3" d="M422,-517C422,-517 392,-517 392,-517 386,-517 380,-511 380,-505 380,-505 380,-493 380,-493 380,-487 386,-481 392,-481 392,-481 422,-481 422,-481 428,-481 434,-487 434,-493 434,-493 434,-505 434,-505 434,-511 428,-517 422,-517"/>
<text text-anchor="middle" x="407" y="-493.75" font-family="Arial" font-size="15.00">main</text>
</g>
<!-- /lib/main.dart&#45;&gt;/lib/firebase_options.dart -->
<g id="edge17" class="edge">
<title>/lib/main.dart&#45;&gt;/lib/firebase_options.dart</title>
<path fill="none" stroke="#aabbaa" stroke-width="1.3" stroke-opacity="0.533333" d="M379.82,-484.14C376.89,-482.96 373.91,-481.88 371,-481 347.35,-473.87 338.97,-482.07 316,-473 301.79,-467.39 287.66,-458.34 275.93,-449.6"/>
<polygon fill="#aabbaa" fill-opacity="0.533333" stroke="#aabbaa" stroke-width="1.3" stroke-opacity="0.533333" points="278.28,-447 268.24,-443.63 273.99,-452.53 278.28,-447"/>
</g>
<!-- /lib/main.dart&#45;&gt;/lib/screens/setup_screen.dart -->
<g id="edge18" class="edge">
<title>/lib/main.dart&#45;&gt;/lib/screens/setup_screen.dart</title>
<path fill="none" stroke="#aabbaa" stroke-width="1.3" stroke-opacity="0.533333" d="M400.84,-480.7C397.95,-472.58 394.42,-462.68 391.15,-453.5"/>
<polygon fill="#aabbaa" fill-opacity="0.533333" stroke="#aabbaa" stroke-width="1.3" stroke-opacity="0.533333" points="394.52,-452.53 387.87,-444.28 387.93,-454.88 394.52,-452.53"/>
</g>
<!-- /lib/widgets/blink.dart -->
<g id="node12" class="node">
<title>/lib/widgets/blink.dart</title>
<path fill="Lavender" stroke="black" stroke-width="1.3" d="M1016,-140C1016,-140 986,-140 986,-140 980,-140 974,-134 974,-128 974,-128 974,-116 974,-116 974,-110 980,-104 986,-104 986,-104 1016,-104 1016,-104 1022,-104 1028,-110 1028,-116 1028,-116 1028,-128 1028,-128 1028,-134 1022,-140 1016,-140"/>
<text text-anchor="middle" x="1001" y="-116.75" font-family="Arial" font-size="15.00">blink</text>
</g>
<!-- /lib/widgets/playing_card_widget.dart -->
<g id="node14" class="node">
<title>/lib/widgets/playing_card_widget.dart</title>
<path fill="Lavender" stroke="black" stroke-width="1.3" d="M911.5,-140C911.5,-140 784.5,-140 784.5,-140 778.5,-140 772.5,-134 772.5,-128 772.5,-128 772.5,-116 772.5,-116 772.5,-110 778.5,-104 784.5,-104 784.5,-104 911.5,-104 911.5,-104 917.5,-104 923.5,-110 923.5,-116 923.5,-116 923.5,-128 923.5,-128 923.5,-134 917.5,-140 911.5,-140"/>
<text text-anchor="middle" x="848" y="-116.75" font-family="Arial" font-size="15.00">playing_card_widget</text>
</g>
<!-- /lib/widgets/playing_card_widget.dart&#45;&gt;/lib/widgets/playing_card.dart -->
<g id="edge19" class="edge">
<title>/lib/widgets/playing_card_widget.dart&#45;&gt;/lib/widgets/playing_card.dart</title>
<path fill="none" stroke="#aabbaa" stroke-width="1.3" stroke-opacity="0.533333" d="M844.79,-103.7C843.45,-96.49 841.86,-87.93 840.35,-79.82"/>
<polygon fill="#aabbaa" fill-opacity="0.533333" stroke="#aabbaa" stroke-width="1.3" stroke-opacity="0.533333" points="843.8,-79.23 838.54,-70.04 836.92,-80.51 843.8,-79.23"/>
</g>
<!-- /lib/widgets/table_surface.dart -->
<g id="node15" class="node">
<title>/lib/widgets/table_surface.dart</title>
<path fill="Lavender" stroke="black" stroke-width="1.3" d="M974,-367C974,-367 892,-367 892,-367 886,-367 880,-361 880,-355 880,-355 880,-343 880,-343 880,-337 886,-331 892,-331 892,-331 974,-331 974,-331 980,-331 986,-337 986,-343 986,-343 986,-355 986,-355 986,-361 980,-367 974,-367"/>
<text text-anchor="middle" x="933" y="-343.75" font-family="Arial" font-size="15.00">table_surface</text>
</g>
<!-- /lib/widgets/blinking_text.dart -->
<g id="node16" class="node">
<title>/lib/widgets/blinking_text.dart</title>
<path fill="Lavender" stroke="black" stroke-width="1.3" d="M1008.25,-212C1008.25,-212 933.75,-212 933.75,-212 927.75,-212 921.75,-206 921.75,-200 921.75,-200 921.75,-188 921.75,-188 921.75,-182 927.75,-176 933.75,-176 933.75,-176 1008.25,-176 1008.25,-176 1014.25,-176 1020.25,-182 1020.25,-188 1020.25,-188 1020.25,-200 1020.25,-200 1020.25,-206 1014.25,-212 1008.25,-212"/>
<text text-anchor="middle" x="971" y="-188.75" font-family="Arial" font-size="15.00">blinking_text</text>
</g>
<!-- /lib/widgets/blinking_text.dart&#45;&gt;/lib/widgets/blink.dart -->
<g id="edge20" class="edge">
<title>/lib/widgets/blinking_text.dart&#45;&gt;/lib/widgets/blink.dart</title>
<path fill="none" stroke="#aabbaa" stroke-width="1.3" stroke-opacity="0.533333" d="M978.42,-175.7C981.61,-168.24 985.43,-159.32 989.01,-150.97"/>
<polygon fill="#aabbaa" fill-opacity="0.533333" stroke="#aabbaa" stroke-width="1.3" stroke-opacity="0.533333" points="992.17,-152.48 992.89,-141.91 985.74,-149.73 992.17,-152.48"/>
</g>
<!-- /lib/widgets/player_zone.dart&#45;&gt;/lib/models/game_model.dart -->
<g id="edge21" class="edge">
<title>/lib/widgets/player_zone.dart&#45;&gt;/lib/models/game_model.dart</title>
<path fill="none" stroke="#aabbaa" stroke-width="1.3" stroke-opacity="0.533333" d="M1018.43,-330.62C1010.88,-327.53 1002.81,-324.75 995,-323 943.14,-311.39 807.16,-329.37 756,-315 737.84,-309.9 719.4,-300.16 704.36,-290.78"/>
<polygon fill="#aabbaa" fill-opacity="0.533333" stroke="#aabbaa" stroke-width="1.3" stroke-opacity="0.533333" points="706.48,-287.98 696.19,-285.47 702.67,-293.85 706.48,-287.98"/>
</g>
<!-- /lib/widgets/player_zone.dart&#45;&gt;/lib/models/player.dart -->
<g id="edge22" class="edge">
<title>/lib/widgets/player_zone.dart&#45;&gt;/lib/models/player.dart</title>
<path fill="none" stroke="#aabbaa" stroke-width="1.3" stroke-opacity="0.533333" d="M1018.12,-330.51C1010.66,-327.47 1002.7,-324.74 995,-323 971.25,-317.64 795.91,-329.02 776,-315 746.64,-294.33 761.69,-272.29 746,-240 743.14,-234.12 739.82,-227.96 736.52,-222.15"/>
<polygon fill="#aabbaa" fill-opacity="0.533333" stroke="#aabbaa" stroke-width="1.3" stroke-opacity="0.533333" points="739.77,-220.78 731.71,-213.91 733.73,-224.31 739.77,-220.78"/>
</g>
<!-- /lib/widgets/player_zone.dart&#45;&gt;/lib/widgets/playing_card_widget.dart -->
<g id="edge26" class="edge">
<title>/lib/widgets/player_zone.dart&#45;&gt;/lib/widgets/playing_card_widget.dart</title>
<path fill="none" stroke="#aabbaa" stroke-width="1.3" stroke-opacity="0.533333" d="M1018.1,-330.61C1010.64,-327.57 1002.69,-324.8 995,-323 978.75,-319.19 858.68,-324.56 845,-315 789.11,-275.92 774.22,-230.72 801,-168 804.1,-160.74 809.01,-154.09 814.51,-148.26"/>
<polygon fill="#aabbaa" fill-opacity="0.533333" stroke="#aabbaa" stroke-width="1.3" stroke-opacity="0.533333" points="816.59,-151.11 821.42,-141.68 811.76,-146.04 816.59,-151.11"/>
</g>
<!-- /lib/widgets/player_zone.dart&#45;&gt;/lib/widgets/playing_card.dart -->
<g id="edge25" class="edge">
<title>/lib/widgets/player_zone.dart&#45;&gt;/lib/widgets/playing_card.dart</title>
<path fill="none" stroke="#aabbaa" stroke-width="1.3" stroke-opacity="0.533333" d="M1054.38,-330.53C1057.96,-280.55 1065.37,-138.38 1037,-104 1019.2,-82.42 949.45,-67.6 896.85,-59.23"/>
<polygon fill="#aabbaa" fill-opacity="0.533333" stroke="#aabbaa" stroke-width="1.3" stroke-opacity="0.533333" points="897.6,-55.8 887.19,-57.74 896.54,-62.72 897.6,-55.8"/>
</g>
<!-- /lib/widgets/player_zone_cta.dart -->
<g id="node20" class="node">
<title>/lib/widgets/player_zone_cta.dart</title>
<path fill="Lavender" stroke="black" stroke-width="1.3" d="M967.75,-284C967.75,-284 866.25,-284 866.25,-284 860.25,-284 854.25,-278 854.25,-272 854.25,-272 854.25,-260 854.25,-260 854.25,-254 860.25,-248 866.25,-248 866.25,-248 967.75,-248 967.75,-248 973.75,-248 979.75,-254 979.75,-260 979.75,-260 979.75,-272 979.75,-272 979.75,-278 973.75,-284 967.75,-284"/>
<text text-anchor="middle" x="917" y="-260.75" font-family="Arial" font-size="15.00">player_zone_cta</text>
</g>
<!-- /lib/widgets/player_zone.dart&#45;&gt;/lib/widgets/player_zone_cta.dart -->
<g id="edge24" class="edge">
<title>/lib/widgets/player_zone.dart&#45;&gt;/lib/widgets/player_zone_cta.dart</title>
<path fill="none" stroke="#aabbaa" stroke-width="1.3" stroke-opacity="0.533333" d="M1023.82,-330.62C1004.1,-318.88 977.83,-303.23 956.28,-290.39"/>
<polygon fill="#aabbaa" fill-opacity="0.533333" stroke="#aabbaa" stroke-width="1.3" stroke-opacity="0.533333" points="958.2,-287.46 947.82,-285.35 954.62,-293.48 958.2,-287.46"/>
</g>
<!-- /lib/widgets/player_header.dart -->
<g id="node21" class="node">
<title>/lib/widgets/player_header.dart</title>
<path fill="Lavender" stroke="black" stroke-width="1.3" d="M1172.62,-284C1172.62,-284 1085.38,-284 1085.38,-284 1079.38,-284 1073.38,-278 1073.38,-272 1073.38,-272 1073.38,-260 1073.38,-260 1073.38,-254 1079.38,-248 1085.38,-248 1085.38,-248 1172.62,-248 1172.62,-248 1178.62,-248 1184.62,-254 1184.62,-260 1184.62,-260 1184.62,-272 1184.62,-272 1184.62,-278 1178.62,-284 1172.62,-284"/>
<text text-anchor="middle" x="1129" y="-260.75" font-family="Arial" font-size="15.00">player_header</text>
</g>
<!-- /lib/widgets/player_zone.dart&#45;&gt;/lib/widgets/player_header.dart -->
<g id="edge23" class="edge">
<title>/lib/widgets/player_zone.dart&#45;&gt;/lib/widgets/player_header.dart</title>
<path fill="none" stroke="#aabbaa" stroke-width="1.3" stroke-opacity="0.533333" d="M1069.12,-330.82C1079.43,-319.84 1092.99,-305.38 1104.61,-293"/>
<polygon fill="#aabbaa" fill-opacity="0.533333" stroke="#aabbaa" stroke-width="1.3" stroke-opacity="0.533333" points="1107.01,-295.55 1111.3,-285.87 1101.9,-290.77 1107.01,-295.55"/>
</g>
<!-- /lib/widgets/card_piles.dart -->
<g id="node19" class="node">
<title>/lib/widgets/card_piles.dart</title>
<path fill="Lavender" stroke="black" stroke-width="1.3" d="M891.75,-212C891.75,-212 832.25,-212 832.25,-212 826.25,-212 820.25,-206 820.25,-200 820.25,-200 820.25,-188 820.25,-188 820.25,-182 826.25,-176 832.25,-176 832.25,-176 891.75,-176 891.75,-176 897.75,-176 903.75,-182 903.75,-188 903.75,-188 903.75,-200 903.75,-200 903.75,-206 897.75,-212 891.75,-212"/>
<text text-anchor="middle" x="862" y="-188.75" font-family="Arial" font-size="15.00">card_piles</text>
</g>
<!-- /lib/widgets/card_piles.dart&#45;&gt;/lib/widgets/playing_card_widget.dart -->
<g id="edge28" class="edge">
<title>/lib/widgets/card_piles.dart&#45;&gt;/lib/widgets/playing_card_widget.dart</title>
<path fill="none" stroke="#aabbaa" stroke-width="1.3" stroke-opacity="0.533333" d="M858.54,-175.7C857.1,-168.49 855.39,-159.93 853.76,-151.82"/>
<polygon fill="#aabbaa" fill-opacity="0.533333" stroke="#aabbaa" stroke-width="1.3" stroke-opacity="0.533333" points="857.2,-151.15 851.81,-142.03 850.34,-152.53 857.2,-151.15"/>
</g>
<!-- /lib/widgets/card_piles.dart&#45;&gt;/lib/widgets/playing_card.dart -->
<g id="edge27" class="edge">
<title>/lib/widgets/card_piles.dart&#45;&gt;/lib/widgets/playing_card.dart</title>
<path fill="none" stroke="#aabbaa" stroke-width="1.3" stroke-opacity="0.533333" d="M897.54,-175.71C911.24,-167.04 925.42,-155.13 933,-140 940.17,-125.7 941.19,-117.74 933,-104 924.51,-89.76 910.73,-79.12 896.14,-71.25"/>
<polygon fill="#aabbaa" fill-opacity="0.533333" stroke="#aabbaa" stroke-width="1.3" stroke-opacity="0.533333" points="897.73,-68.13 887.21,-66.88 894.64,-74.42 897.73,-68.13"/>
</g>
<!-- /lib/widgets/player_zone_cta.dart&#45;&gt;/lib/models/game_model.dart -->
<g id="edge29" class="edge">
<title>/lib/widgets/player_zone_cta.dart&#45;&gt;/lib/models/game_model.dart</title>
<path fill="none" stroke="#aabbaa" stroke-width="1.3" stroke-opacity="0.533333" d="M853.91,-266C814.02,-266 774.12,-266 734.22,-266"/>
<polygon fill="#aabbaa" fill-opacity="0.533333" stroke="#aabbaa" stroke-width="1.3" stroke-opacity="0.533333" points="734.38,-262.5 724.38,-266 734.38,-269.5 734.38,-262.5"/>
</g>
<!-- /lib/widgets/player_zone_cta.dart&#45;&gt;/lib/widgets/blink.dart -->
<g id="edge30" class="edge">
<title>/lib/widgets/player_zone_cta.dart&#45;&gt;/lib/widgets/blink.dart</title>
<path fill="none" stroke="#aabbaa" stroke-width="1.3" stroke-opacity="0.533333" d="M980.03,-249.46C999.06,-241.51 1017.84,-229.63 1029,-212 1041.01,-193.03 1031.81,-168.52 1020.85,-150.03"/>
<polygon fill="#aabbaa" fill-opacity="0.533333" stroke="#aabbaa" stroke-width="1.3" stroke-opacity="0.533333" points="1023.93,-148.36 1015.58,-141.84 1018.05,-152.14 1023.93,-148.36"/>
</g>
<!-- /lib/widgets/player_zone_cta.dart&#45;&gt;/lib/widgets/playing_card_widget.dart -->
<g id="edge33" class="edge">
<title>/lib/widgets/player_zone_cta.dart&#45;&gt;/lib/widgets/playing_card_widget.dart</title>
<path fill="none" stroke="#aabbaa" stroke-width="1.3" stroke-opacity="0.533333" d="M854.76,-247.57C837.62,-239.6 821.01,-228.19 811,-212 800.72,-195.37 804.4,-186.41 811,-168 813.36,-161.41 817.15,-155.1 821.42,-149.39"/>
<polygon fill="#aabbaa" fill-opacity="0.533333" stroke="#aabbaa" stroke-width="1.3" stroke-opacity="0.533333" points="823.92,-151.85 827.63,-141.93 818.54,-147.37 823.92,-151.85"/>
</g>
<!-- /lib/widgets/player_zone_cta.dart&#45;&gt;/lib/widgets/blinking_text.dart -->
<g id="edge31" class="edge">
<title>/lib/widgets/player_zone_cta.dart&#45;&gt;/lib/widgets/blinking_text.dart</title>
<path fill="none" stroke="#aabbaa" stroke-width="1.3" stroke-opacity="0.533333" d="M930.35,-247.7C936.43,-239.81 943.77,-230.3 950.52,-221.55"/>
<polygon fill="#aabbaa" fill-opacity="0.533333" stroke="#aabbaa" stroke-width="1.3" stroke-opacity="0.533333" points="953.27,-223.72 956.6,-213.66 947.72,-219.44 953.27,-223.72"/>
</g>
<!-- /lib/widgets/player_zone_cta.dart&#45;&gt;/lib/widgets/card_piles.dart -->
<g id="edge32" class="edge">
<title>/lib/widgets/player_zone_cta.dart&#45;&gt;/lib/widgets/card_piles.dart</title>
<path fill="none" stroke="#aabbaa" stroke-width="1.3" stroke-opacity="0.533333" d="M903.4,-247.7C897.14,-239.73 889.58,-230.1 882.64,-221.26"/>
<polygon fill="#aabbaa" fill-opacity="0.533333" stroke="#aabbaa" stroke-width="1.3" stroke-opacity="0.533333" points="885.59,-219.35 876.65,-213.65 880.08,-223.68 885.59,-219.35"/>
</g>
</g>
</svg>
