<?xml version="1.0" encoding="UTF-8" standalone="no"?>
<!DOCTYPE svg PUBLIC "-//W3C//DTD SVG 1.1//EN"
 "http://www.w3.org/Graphics/SVG/1.1/DTD/svg11.dtd">
<!-- Generated by graphviz version 12.1.2 (20240928.0832)
 -->
<!-- Pages: 1 -->
<svg width="458pt" height="620pt"
 viewBox="0.00 0.00 457.75 620.00" xmlns="http://www.w3.org/2000/svg" xmlns:xlink="http://www.w3.org/1999/xlink">
<g id="graph0" class="graph" transform="scale(1 1) rotate(0) translate(4 616)">
<polygon fill="white" stroke="none" points="-4,4 -4,-616 453.75,-616 453.75,4 -4,4"/>
<!-- /lib/game_model.dart -->
<g id="node1" class="node">
<title>/lib/game_model.dart</title>
<path fill="Lavender" stroke="black" stroke-width="1.3" d="M90.25,-180C90.25,-180 12,-180 12,-180 6,-180 0,-174 0,-168 0,-168 0,-156 0,-156 0,-150 6,-144 12,-144 12,-144 90.25,-144 90.25,-144 96.25,-144 102.25,-150 102.25,-156 102.25,-156 102.25,-168 102.25,-168 102.25,-174 96.25,-180 90.25,-180"/>
<text text-anchor="middle" x="51.12" y="-156.75" font-family="Arial" font-size="15.00">game_model</text>
</g>
<!-- /lib/widgets/playing_card.dart -->
<g id="node9" class="node">
<title>/lib/widgets/playing_card.dart</title>
<path fill="Lavender" stroke="black" stroke-width="1.3" d="M192.12,-36C192.12,-36 116.12,-36 116.12,-36 110.12,-36 104.12,-30 104.12,-24 104.12,-24 104.12,-12 104.12,-12 104.12,-6 110.12,0 116.12,0 116.12,0 192.12,0 192.12,0 198.12,0 204.12,-6 204.12,-12 204.12,-12 204.12,-24 204.12,-24 204.12,-30 198.12,-36 192.12,-36"/>
<text text-anchor="middle" x="154.12" y="-12.75" font-family="Arial" font-size="15.00">playing_card</text>
</g>
<!-- /lib/game_model.dart&#45;&gt;/lib/widgets/playing_card.dart -->
<g id="edge1" class="edge">
<title>/lib/game_model.dart&#45;&gt;/lib/widgets/playing_card.dart</title>
<path fill="none" stroke="#aabbaa" stroke-width="1.3" stroke-opacity="0.533333" d="M62.76,-143.76C75.04,-125.7 95.07,-96.59 113.12,-72 119.46,-63.37 126.54,-54.1 133,-45.76"/>
<polygon fill="#aabbaa" fill-opacity="0.533333" stroke="#aabbaa" stroke-width="1.3" stroke-opacity="0.533333" points="135.63,-48.09 139.02,-38.05 130.11,-43.78 135.63,-48.09"/>
</g>
<!-- /lib/main.dart -->
<g id="node2" class="node">
<title>/lib/main.dart</title>
<path fill="Lavender" stroke="black" stroke-width="1.3" d="M196.12,-540C196.12,-540 166.12,-540 166.12,-540 160.12,-540 154.12,-534 154.12,-528 154.12,-528 154.12,-516 154.12,-516 154.12,-510 160.12,-504 166.12,-504 166.12,-504 196.12,-504 196.12,-504 202.12,-504 208.12,-510 208.12,-516 208.12,-516 208.12,-528 208.12,-528 208.12,-534 202.12,-540 196.12,-540"/>
<text text-anchor="middle" x="181.12" y="-516.75" font-family="Arial" font-size="15.00">main</text>
</g>
<!-- /lib/screens/setup_screen.dart -->
<g id="node4" class="node">
<title>/lib/screens/setup_screen.dart</title>
<path fill="Lavender" stroke="black" stroke-width="1.3" d="M222.12,-468C222.12,-468 140.12,-468 140.12,-468 134.12,-468 128.12,-462 128.12,-456 128.12,-456 128.12,-444 128.12,-444 128.12,-438 134.12,-432 140.12,-432 140.12,-432 222.12,-432 222.12,-432 228.12,-432 234.12,-438 234.12,-444 234.12,-444 234.12,-456 234.12,-456 234.12,-462 228.12,-468 222.12,-468"/>
<text text-anchor="middle" x="181.12" y="-444.75" font-family="Arial" font-size="15.00">setup_screen</text>
</g>
<!-- /lib/main.dart&#45;&gt;/lib/screens/setup_screen.dart -->
<g id="edge2" class="edge">
<title>/lib/main.dart&#45;&gt;/lib/screens/setup_screen.dart</title>
<path fill="none" stroke="#aabbaa" stroke-width="1.3" stroke-opacity="0.533333" d="M181.12,-503.7C181.12,-496.49 181.12,-487.93 181.12,-479.82"/>
<polygon fill="#aabbaa" fill-opacity="0.533333" stroke="#aabbaa" stroke-width="1.3" stroke-opacity="0.533333" points="184.63,-480.07 181.13,-470.07 177.63,-480.07 184.63,-480.07"/>
</g>
<!-- /lib/screens/game_screen.dart -->
<g id="node3" class="node">
<title>/lib/screens/game_screen.dart</title>
<path fill="Lavender" stroke="black" stroke-width="1.3" d="M222.5,-396C222.5,-396 139.75,-396 139.75,-396 133.75,-396 127.75,-390 127.75,-384 127.75,-384 127.75,-372 127.75,-372 127.75,-366 133.75,-360 139.75,-360 139.75,-360 222.5,-360 222.5,-360 228.5,-360 234.5,-366 234.5,-372 234.5,-372 234.5,-384 234.5,-384 234.5,-390 228.5,-396 222.5,-396"/>
<text text-anchor="middle" x="181.12" y="-372.75" font-family="Arial" font-size="15.00">game_screen</text>
</g>
<!-- /lib/screens/game_screen.dart&#45;&gt;/lib/game_model.dart -->
<g id="edge5" class="edge">
<title>/lib/screens/game_screen.dart&#45;&gt;/lib/game_model.dart</title>
<path fill="none" stroke="#aabbaa" stroke-width="1.3" stroke-opacity="0.533333" d="M159.4,-359.62C147.9,-349.84 133.95,-337 123.12,-324 98.97,-295 93.74,-286.35 78.12,-252 69.28,-232.53 62.36,-209.39 57.74,-191.58"/>
<polygon fill="#aabbaa" fill-opacity="0.533333" stroke="#aabbaa" stroke-width="1.3" stroke-opacity="0.533333" points="61.2,-190.99 55.39,-182.13 54.41,-192.67 61.2,-190.99"/>
</g>
<!-- /lib/widgets/player_zone.dart -->
<g id="node7" class="node">
<title>/lib/widgets/player_zone.dart</title>
<path fill="Lavender" stroke="black" stroke-width="1.3" d="M217.62,-324C217.62,-324 144.62,-324 144.62,-324 138.62,-324 132.62,-318 132.62,-312 132.62,-312 132.62,-300 132.62,-300 132.62,-294 138.62,-288 144.62,-288 144.62,-288 217.62,-288 217.62,-288 223.62,-288 229.62,-294 229.62,-300 229.62,-300 229.62,-312 229.62,-312 229.62,-318 223.62,-324 217.62,-324"/>
<text text-anchor="middle" x="181.12" y="-300.75" font-family="Arial" font-size="15.00">player_zone</text>
</g>
<!-- /lib/screens/game_screen.dart&#45;&gt;/lib/widgets/player_zone.dart -->
<g id="edge3" class="edge">
<title>/lib/screens/game_screen.dart&#45;&gt;/lib/widgets/player_zone.dart</title>
<path fill="none" stroke="#aabbaa" stroke-width="1.3" stroke-opacity="0.533333" d="M181.12,-359.7C181.12,-352.49 181.12,-343.93 181.12,-335.82"/>
<polygon fill="#aabbaa" fill-opacity="0.533333" stroke="#aabbaa" stroke-width="1.3" stroke-opacity="0.533333" points="184.63,-336.07 181.13,-326.07 177.63,-336.07 184.63,-336.07"/>
</g>
<!-- /lib/widgets/screen.dart -->
<g id="node11" class="node">
<title>/lib/widgets/screen.dart</title>
<path fill="Lavender" stroke="black" stroke-width="1.3" d="M296.62,-324C296.62,-324 259.62,-324 259.62,-324 253.62,-324 247.62,-318 247.62,-312 247.62,-312 247.62,-300 247.62,-300 247.62,-294 253.62,-288 259.62,-288 259.62,-288 296.62,-288 296.62,-288 302.62,-288 308.62,-294 308.62,-300 308.62,-300 308.62,-312 308.62,-312 308.62,-318 302.62,-324 296.62,-324"/>
<text text-anchor="middle" x="278.12" y="-300.75" font-family="Arial" font-size="15.00">screen</text>
</g>
<!-- /lib/screens/game_screen.dart&#45;&gt;/lib/widgets/screen.dart -->
<g id="edge4" class="edge">
<title>/lib/screens/game_screen.dart&#45;&gt;/lib/widgets/screen.dart</title>
<path fill="none" stroke="#aabbaa" stroke-width="1.3" stroke-opacity="0.533333" d="M205.1,-359.7C216.99,-351.11 231.56,-340.61 244.54,-331.24"/>
<polygon fill="#aabbaa" fill-opacity="0.533333" stroke="#aabbaa" stroke-width="1.3" stroke-opacity="0.533333" points="246.43,-334.19 252.49,-325.5 242.33,-328.51 246.43,-334.19"/>
</g>
<!-- /lib/screens/setup_screen.dart&#45;&gt;/lib/game_model.dart -->
<g id="edge6" class="edge">
<title>/lib/screens/setup_screen.dart&#45;&gt;/lib/game_model.dart</title>
<path fill="none" stroke="#aabbaa" stroke-width="1.3" stroke-opacity="0.533333" d="M155.62,-431.7C143.29,-422.31 129.04,-409.8 119.12,-396 78.86,-339.97 78.02,-318.9 61.12,-252 56.16,-232.35 53.66,-209.63 52.4,-192.07"/>
<polygon fill="#aabbaa" fill-opacity="0.533333" stroke="#aabbaa" stroke-width="1.3" stroke-opacity="0.533333" points="55.91,-192.04 51.8,-182.27 48.92,-192.47 55.91,-192.04"/>
</g>
<!-- /lib/screens/setup_screen.dart&#45;&gt;/lib/screens/game_screen.dart -->
<g id="edge7" class="edge">
<title>/lib/screens/setup_screen.dart&#45;&gt;/lib/screens/game_screen.dart</title>
<path fill="none" stroke="#aabbaa" stroke-width="1.3" stroke-opacity="0.533333" d="M181.12,-431.7C181.12,-424.49 181.12,-415.93 181.12,-407.82"/>
<polygon fill="#aabbaa" fill-opacity="0.533333" stroke="#aabbaa" stroke-width="1.3" stroke-opacity="0.533333" points="184.63,-408.07 181.13,-398.07 177.63,-408.07 184.63,-408.07"/>
</g>
<!-- /lib/screens/setup_screen.dart&#45;&gt;/lib/widgets/screen.dart -->
<g id="edge8" class="edge">
<title>/lib/screens/setup_screen.dart&#45;&gt;/lib/widgets/screen.dart</title>
<path fill="none" stroke="#aabbaa" stroke-width="1.3" stroke-opacity="0.533333" d="M206.99,-431.5C219.26,-422.14 233.35,-409.72 243.12,-396 256.1,-377.79 265.11,-354.1 270.74,-335.74"/>
<polygon fill="#aabbaa" fill-opacity="0.533333" stroke="#aabbaa" stroke-width="1.3" stroke-opacity="0.533333" points="274.09,-336.75 273.48,-326.18 267.36,-334.82 274.09,-336.75"/>
</g>
<!-- /lib/widgets/card_deck.dart -->
<g id="node5" class="node">
<title>/lib/widgets/card_deck.dart</title>
<path fill="Lavender" stroke="black" stroke-width="1.3" d="M193.62,-180C193.62,-180 132.62,-180 132.62,-180 126.62,-180 120.62,-174 120.62,-168 120.62,-168 120.62,-156 120.62,-156 120.62,-150 126.62,-144 132.62,-144 132.62,-144 193.62,-144 193.62,-144 199.62,-144 205.62,-150 205.62,-156 205.62,-156 205.62,-168 205.62,-168 205.62,-174 199.62,-180 193.62,-180"/>
<text text-anchor="middle" x="163.12" y="-156.75" font-family="Arial" font-size="15.00">card_deck</text>
</g>
<!-- /lib/widgets/card_deck.dart&#45;&gt;/lib/widgets/playing_card.dart -->
<g id="edge9" class="edge">
<title>/lib/widgets/card_deck.dart&#45;&gt;/lib/widgets/playing_card.dart</title>
<path fill="none" stroke="#aabbaa" stroke-width="1.3" stroke-opacity="0.533333" d="M144.52,-143.76C135.59,-134.2 125.83,-121.53 121.12,-108 115.86,-92.89 116.73,-87.38 121.12,-72 123.69,-63.01 128.28,-54.07 133.22,-46.16"/>
<polygon fill="#aabbaa" fill-opacity="0.533333" stroke="#aabbaa" stroke-width="1.3" stroke-opacity="0.533333" points="135.99,-48.31 138.7,-38.06 130.19,-44.39 135.99,-48.31"/>
</g>
<!-- /lib/widgets/playing_card_widget.dart -->
<g id="node10" class="node">
<title>/lib/widgets/playing_card_widget.dart</title>
<path fill="Lavender" stroke="black" stroke-width="1.3" d="M269.62,-108C269.62,-108 142.62,-108 142.62,-108 136.62,-108 130.62,-102 130.62,-96 130.62,-96 130.62,-84 130.62,-84 130.62,-78 136.62,-72 142.62,-72 142.62,-72 269.62,-72 269.62,-72 275.62,-72 281.62,-78 281.62,-84 281.62,-84 281.62,-96 281.62,-96 281.62,-102 275.62,-108 269.62,-108"/>
<text text-anchor="middle" x="206.12" y="-84.75" font-family="Arial" font-size="15.00">playing_card_widget</text>
</g>
<!-- /lib/widgets/card_deck.dart&#45;&gt;/lib/widgets/playing_card_widget.dart -->
<g id="edge10" class="edge">
<title>/lib/widgets/card_deck.dart&#45;&gt;/lib/widgets/playing_card_widget.dart</title>
<path fill="none" stroke="#aabbaa" stroke-width="1.3" stroke-opacity="0.533333" d="M173.75,-143.7C178.49,-135.98 184.19,-126.71 189.47,-118.11"/>
<polygon fill="#aabbaa" fill-opacity="0.533333" stroke="#aabbaa" stroke-width="1.3" stroke-opacity="0.533333" points="192.34,-120.13 194.59,-109.78 186.37,-116.47 192.34,-120.13"/>
</g>
<!-- /lib/widgets/player_header.dart -->
<g id="node6" class="node">
<title>/lib/widgets/player_header.dart</title>
<path fill="Lavender" stroke="black" stroke-width="1.3" d="M437.75,-252C437.75,-252 350.5,-252 350.5,-252 344.5,-252 338.5,-246 338.5,-240 338.5,-240 338.5,-228 338.5,-228 338.5,-222 344.5,-216 350.5,-216 350.5,-216 437.75,-216 437.75,-216 443.75,-216 449.75,-222 449.75,-228 449.75,-228 449.75,-240 449.75,-240 449.75,-246 443.75,-252 437.75,-252"/>
<text text-anchor="middle" x="394.12" y="-228.75" font-family="Arial" font-size="15.00">player_header</text>
</g>
<!-- /lib/widgets/player_zone.dart&#45;&gt;/lib/game_model.dart -->
<g id="edge11" class="edge">
<title>/lib/widgets/player_zone.dart&#45;&gt;/lib/game_model.dart</title>
<path fill="none" stroke="#aabbaa" stroke-width="1.3" stroke-opacity="0.533333" d="M152.93,-287.72C138.81,-278.24 122.02,-265.65 109.12,-252 91.74,-233.59 76.32,-209.33 65.76,-190.79"/>
<polygon fill="#aabbaa" fill-opacity="0.533333" stroke="#aabbaa" stroke-width="1.3" stroke-opacity="0.533333" points="68.84,-189.13 60.93,-182.08 62.72,-192.52 68.84,-189.13"/>
</g>
<!-- /lib/widgets/player_zone.dart&#45;&gt;/lib/widgets/player_header.dart -->
<g id="edge12" class="edge">
<title>/lib/widgets/player_zone.dart&#45;&gt;/lib/widgets/player_header.dart</title>
<path fill="none" stroke="#aabbaa" stroke-width="1.3" stroke-opacity="0.533333" d="M229.99,-288.94C259.66,-279.19 297.86,-266.64 329.94,-256.09"/>
<polygon fill="#aabbaa" fill-opacity="0.533333" stroke="#aabbaa" stroke-width="1.3" stroke-opacity="0.533333" points="330.73,-259.52 339.14,-253.07 328.55,-252.87 330.73,-259.52"/>
</g>
<!-- /lib/widgets/player_zone_cta.dart -->
<g id="node8" class="node">
<title>/lib/widgets/player_zone_cta.dart</title>
<path fill="Lavender" stroke="black" stroke-width="1.3" d="M231.88,-252C231.88,-252 130.38,-252 130.38,-252 124.38,-252 118.38,-246 118.38,-240 118.38,-240 118.38,-228 118.38,-228 118.38,-222 124.38,-216 130.38,-216 130.38,-216 231.88,-216 231.88,-216 237.88,-216 243.88,-222 243.88,-228 243.88,-228 243.88,-240 243.88,-240 243.88,-246 237.88,-252 231.88,-252"/>
<text text-anchor="middle" x="181.12" y="-228.75" font-family="Arial" font-size="15.00">player_zone_cta</text>
</g>
<!-- /lib/widgets/player_zone.dart&#45;&gt;/lib/widgets/player_zone_cta.dart -->
<g id="edge13" class="edge">
<title>/lib/widgets/player_zone.dart&#45;&gt;/lib/widgets/player_zone_cta.dart</title>
<path fill="none" stroke="#aabbaa" stroke-width="1.3" stroke-opacity="0.533333" d="M181.12,-287.7C181.12,-280.49 181.12,-271.93 181.12,-263.82"/>
<polygon fill="#aabbaa" fill-opacity="0.533333" stroke="#aabbaa" stroke-width="1.3" stroke-opacity="0.533333" points="184.63,-264.07 181.13,-254.07 177.63,-264.07 184.63,-264.07"/>
</g>
<!-- /lib/widgets/player_zone.dart&#45;&gt;/lib/widgets/playing_card.dart -->
<g id="edge14" class="edge">
<title>/lib/widgets/player_zone.dart&#45;&gt;/lib/widgets/playing_card.dart</title>
<path fill="none" stroke="#aabbaa" stroke-width="1.3" stroke-opacity="0.533333" d="M227.56,-287.73C243.84,-279.38 260.66,-267.69 271.12,-252 315.79,-185.04 336.63,-138.4 291.12,-72 274.08,-47.13 243.57,-33.93 215.65,-26.92"/>
<polygon fill="#aabbaa" fill-opacity="0.533333" stroke="#aabbaa" stroke-width="1.3" stroke-opacity="0.533333" points="216.75,-23.58 206.23,-24.8 215.21,-30.41 216.75,-23.58"/>
</g>
<!-- /lib/widgets/player_zone.dart&#45;&gt;/lib/widgets/playing_card_widget.dart -->
<g id="edge15" class="edge">
<title>/lib/widgets/player_zone.dart&#45;&gt;/lib/widgets/playing_card_widget.dart</title>
<path fill="none" stroke="#aabbaa" stroke-width="1.3" stroke-opacity="0.533333" d="M217.53,-287.58C231.31,-278.95 245.49,-267.1 253.12,-252 275.53,-207.68 247.23,-150.96 225.83,-118.03"/>
<polygon fill="#aabbaa" fill-opacity="0.533333" stroke="#aabbaa" stroke-width="1.3" stroke-opacity="0.533333" points="228.8,-116.17 220.3,-109.85 223,-120.09 228.8,-116.17"/>
</g>
<!-- /lib/widgets/player_zone_cta.dart&#45;&gt;/lib/game_model.dart -->
<g id="edge16" class="edge">
<title>/lib/widgets/player_zone_cta.dart&#45;&gt;/lib/game_model.dart</title>
<path fill="none" stroke="#aabbaa" stroke-width="1.3" stroke-opacity="0.533333" d="M148.66,-215.52C132.01,-206.55 111.53,-195.53 93.64,-185.9"/>
<polygon fill="#aabbaa" fill-opacity="0.533333" stroke="#aabbaa" stroke-width="1.3" stroke-opacity="0.533333" points="95.38,-182.85 84.91,-181.19 92.06,-189.02 95.38,-182.85"/>
</g>
<!-- /lib/widgets/player_zone_cta.dart&#45;&gt;/lib/widgets/card_deck.dart -->
<g id="edge17" class="edge">
<title>/lib/widgets/player_zone_cta.dart&#45;&gt;/lib/widgets/card_deck.dart</title>
<path fill="none" stroke="#aabbaa" stroke-width="1.3" stroke-opacity="0.533333" d="M176.68,-215.7C174.8,-208.41 172.57,-199.73 170.46,-191.54"/>
<polygon fill="#aabbaa" fill-opacity="0.533333" stroke="#aabbaa" stroke-width="1.3" stroke-opacity="0.533333" points="173.89,-190.82 168.01,-182.01 167.11,-192.57 173.89,-190.82"/>
</g>
<!-- /lib/widgets/player_zone_cta.dart&#45;&gt;/lib/widgets/playing_card_widget.dart -->
<g id="edge18" class="edge">
<title>/lib/widgets/player_zone_cta.dart&#45;&gt;/lib/widgets/playing_card_widget.dart</title>
<path fill="none" stroke="#aabbaa" stroke-width="1.3" stroke-opacity="0.533333" d="M195.88,-215.63C203.22,-205.85 211.31,-193.01 215.12,-180 220.85,-160.48 218.36,-137.63 214.56,-119.98"/>
<polygon fill="#aabbaa" fill-opacity="0.533333" stroke="#aabbaa" stroke-width="1.3" stroke-opacity="0.533333" points="217.98,-119.22 212.2,-110.33 211.18,-120.88 217.98,-119.22"/>
</g>
<!-- /lib/widgets/playing_card_widget.dart&#45;&gt;/lib/widgets/playing_card.dart -->
<g id="edge19" class="edge">
<title>/lib/widgets/playing_card_widget.dart&#45;&gt;/lib/widgets/playing_card.dart</title>
<path fill="none" stroke="#aabbaa" stroke-width="1.3" stroke-opacity="0.533333" d="M193.27,-71.7C187.41,-63.81 180.35,-54.3 173.85,-45.55"/>
<polygon fill="#aabbaa" fill-opacity="0.533333" stroke="#aabbaa" stroke-width="1.3" stroke-opacity="0.533333" points="176.78,-43.62 168,-37.68 171.16,-47.8 176.78,-43.62"/>
</g>
<!-- /lib/widgets/table_surface.dart -->
<g id="node12" class="node">
<title>/lib/widgets/table_surface.dart</title>
<path fill="Lavender" stroke="black" stroke-width="1.3" d="M339.12,-612C339.12,-612 257.12,-612 257.12,-612 251.12,-612 245.12,-606 245.12,-600 245.12,-600 245.12,-588 245.12,-588 245.12,-582 251.12,-576 257.12,-576 257.12,-576 339.12,-576 339.12,-576 345.12,-576 351.12,-582 351.12,-588 351.12,-588 351.12,-600 351.12,-600 351.12,-606 345.12,-612 339.12,-612"/>
<text text-anchor="middle" x="298.12" y="-588.75" font-family="Arial" font-size="15.00">table_surface</text>
</g>
<!-- /test/widget_test.dart -->
<g id="node13" class="node">
<title>/test/widget_test.dart</title>
<path fill="Lavender" stroke="black" stroke-width="1.3" d="M215,-612C215,-612 147.25,-612 147.25,-612 141.25,-612 135.25,-606 135.25,-600 135.25,-600 135.25,-588 135.25,-588 135.25,-582 141.25,-576 147.25,-576 147.25,-576 215,-576 215,-576 221,-576 227,-582 227,-588 227,-588 227,-600 227,-600 227,-606 221,-612 215,-612"/>
<text text-anchor="middle" x="181.12" y="-588.75" font-family="Arial" font-size="15.00">widget_test</text>
</g>
<!-- /test/widget_test.dart&#45;&gt;/lib/main.dart -->
<g id="edge20" class="edge">
<title>/test/widget_test.dart&#45;&gt;/lib/main.dart</title>
<path fill="none" stroke="#aabbaa" stroke-width="1.3" stroke-opacity="0.533333" d="M181.12,-575.7C181.12,-568.49 181.12,-559.93 181.12,-551.82"/>
<polygon fill="#aabbaa" fill-opacity="0.533333" stroke="#aabbaa" stroke-width="1.3" stroke-opacity="0.533333" points="184.63,-552.07 181.13,-542.07 177.63,-552.07 184.63,-552.07"/>
</g>
</g>
</svg>
