<?xml version="1.0" encoding="UTF-8" standalone="no"?>
<!DOCTYPE svg PUBLIC "-//W3C//DTD SVG 1.1//EN"
 "http://www.w3.org/Graphics/SVG/1.1/DTD/svg11.dtd">
<!-- Generated by graphviz version 12.1.2 (20240928.0832)
 -->
<!-- Pages: 1 -->
<svg width="280pt" height="332pt"
 viewBox="0.00 0.00 279.62 332.00" xmlns="http://www.w3.org/2000/svg" xmlns:xlink="http://www.w3.org/1999/xlink">
<g id="graph0" class="graph" transform="scale(1 1) rotate(0) translate(4 328)">
<polygon fill="white" stroke="none" points="-4,4 -4,-328 275.62,-328 275.62,4 -4,4"/>
<!-- /lib/game_model.dart -->
<g id="node1" class="node">
<title>/lib/game_model.dart</title>
<path fill="Lavender" stroke="black" stroke-width="1.3" d="M90.25,-108C90.25,-108 12,-108 12,-108 6,-108 0,-102 0,-96 0,-96 0,-84 0,-84 0,-78 6,-72 12,-72 12,-72 90.25,-72 90.25,-72 96.25,-72 102.25,-78 102.25,-84 102.25,-84 102.25,-96 102.25,-96 102.25,-102 96.25,-108 90.25,-108"/>
<text text-anchor="middle" x="51.12" y="-84.75" font-family="Arial" font-size="15.00">game_model</text>
</g>
<!-- /lib/playing_card.dart -->
<g id="node4" class="node">
<title>/lib/playing_card.dart</title>
<path fill="Lavender" stroke="black" stroke-width="1.3" d="M161.12,-36C161.12,-36 85.12,-36 85.12,-36 79.12,-36 73.12,-30 73.12,-24 73.12,-24 73.12,-12 73.12,-12 73.12,-6 79.12,0 85.12,0 85.12,0 161.12,0 161.12,0 167.12,0 173.12,-6 173.12,-12 173.12,-12 173.12,-24 173.12,-24 173.12,-30 167.12,-36 161.12,-36"/>
<text text-anchor="middle" x="123.12" y="-12.75" font-family="Arial" font-size="15.00">playing_card</text>
</g>
<!-- /lib/game_model.dart&#45;&gt;/lib/playing_card.dart -->
<g id="edge1" class="edge">
<title>/lib/game_model.dart&#45;&gt;/lib/playing_card.dart</title>
<path fill="none" stroke="#aabbaa" stroke-width="1.3" stroke-opacity="0.533333" d="M68.92,-71.7C77.32,-63.54 87.5,-53.63 96.77,-44.62"/>
<polygon fill="#aabbaa" fill-opacity="0.533333" stroke="#aabbaa" stroke-width="1.3" stroke-opacity="0.533333" points="99.14,-47.2 103.87,-37.72 94.26,-42.18 99.14,-47.2"/>
</g>
<!-- /lib/game_screen.dart -->
<g id="node2" class="node">
<title>/lib/game_screen.dart</title>
<path fill="Lavender" stroke="black" stroke-width="1.3" d="M173.5,-180C173.5,-180 90.75,-180 90.75,-180 84.75,-180 78.75,-174 78.75,-168 78.75,-168 78.75,-156 78.75,-156 78.75,-150 84.75,-144 90.75,-144 90.75,-144 173.5,-144 173.5,-144 179.5,-144 185.5,-150 185.5,-156 185.5,-156 185.5,-168 185.5,-168 185.5,-174 179.5,-180 173.5,-180"/>
<text text-anchor="middle" x="132.12" y="-156.75" font-family="Arial" font-size="15.00">game_screen</text>
</g>
<!-- /lib/game_screen.dart&#45;&gt;/lib/game_model.dart -->
<g id="edge2" class="edge">
<title>/lib/game_screen.dart&#45;&gt;/lib/game_model.dart</title>
<path fill="none" stroke="#aabbaa" stroke-width="1.3" stroke-opacity="0.533333" d="M112.1,-143.7C102.46,-135.37 90.73,-125.22 80.13,-116.07"/>
<polygon fill="#aabbaa" fill-opacity="0.533333" stroke="#aabbaa" stroke-width="1.3" stroke-opacity="0.533333" points="82.54,-113.52 72.69,-109.63 77.96,-118.82 82.54,-113.52"/>
</g>
<!-- /lib/playing_card_widget.dart -->
<g id="node5" class="node">
<title>/lib/playing_card_widget.dart</title>
<path fill="Lavender" stroke="black" stroke-width="1.3" d="M259.62,-108C259.62,-108 132.62,-108 132.62,-108 126.62,-108 120.62,-102 120.62,-96 120.62,-96 120.62,-84 120.62,-84 120.62,-78 126.62,-72 132.62,-72 132.62,-72 259.62,-72 259.62,-72 265.62,-72 271.62,-78 271.62,-84 271.62,-84 271.62,-96 271.62,-96 271.62,-102 265.62,-108 259.62,-108"/>
<text text-anchor="middle" x="196.12" y="-84.75" font-family="Arial" font-size="15.00">playing_card_widget</text>
</g>
<!-- /lib/game_screen.dart&#45;&gt;/lib/playing_card_widget.dart -->
<g id="edge3" class="edge">
<title>/lib/game_screen.dart&#45;&gt;/lib/playing_card_widget.dart</title>
<path fill="none" stroke="#aabbaa" stroke-width="1.3" stroke-opacity="0.533333" d="M147.95,-143.7C155.39,-135.56 164.41,-125.69 172.63,-116.7"/>
<polygon fill="#aabbaa" fill-opacity="0.533333" stroke="#aabbaa" stroke-width="1.3" stroke-opacity="0.533333" points="174.99,-119.3 179.16,-109.56 169.83,-114.58 174.99,-119.3"/>
</g>
<!-- /lib/main.dart -->
<g id="node3" class="node">
<title>/lib/main.dart</title>
<path fill="Lavender" stroke="black" stroke-width="1.3" d="M106.12,-252C106.12,-252 76.12,-252 76.12,-252 70.12,-252 64.12,-246 64.12,-240 64.12,-240 64.12,-228 64.12,-228 64.12,-222 70.12,-216 76.12,-216 76.12,-216 106.12,-216 106.12,-216 112.12,-216 118.12,-222 118.12,-228 118.12,-228 118.12,-240 118.12,-240 118.12,-246 112.12,-252 106.12,-252"/>
<text text-anchor="middle" x="91.12" y="-228.75" font-family="Arial" font-size="15.00">main</text>
</g>
<!-- /lib/main.dart&#45;&gt;/lib/game_model.dart -->
<g id="edge4" class="edge">
<title>/lib/main.dart&#45;&gt;/lib/game_model.dart</title>
<path fill="none" stroke="#aabbaa" stroke-width="1.3" stroke-opacity="0.533333" d="M83.38,-215.59C79.04,-205.38 73.79,-192.13 70.12,-180 64.16,-160.29 59.34,-137.57 56.05,-120.02"/>
<polygon fill="#aabbaa" fill-opacity="0.533333" stroke="#aabbaa" stroke-width="1.3" stroke-opacity="0.533333" points="59.5,-119.43 54.28,-110.21 52.61,-120.68 59.5,-119.43"/>
</g>
<!-- /lib/main.dart&#45;&gt;/lib/game_screen.dart -->
<g id="edge5" class="edge">
<title>/lib/main.dart&#45;&gt;/lib/game_screen.dart</title>
<path fill="none" stroke="#aabbaa" stroke-width="1.3" stroke-opacity="0.533333" d="M101.26,-215.7C105.73,-208.07 111.09,-198.92 116.08,-190.4"/>
<polygon fill="#aabbaa" fill-opacity="0.533333" stroke="#aabbaa" stroke-width="1.3" stroke-opacity="0.533333" points="119.08,-192.2 121.11,-181.8 113.04,-188.66 119.08,-192.2"/>
</g>
<!-- /lib/playing_card_widget.dart&#45;&gt;/lib/playing_card.dart -->
<g id="edge6" class="edge">
<title>/lib/playing_card_widget.dart&#45;&gt;/lib/playing_card.dart</title>
<path fill="none" stroke="#aabbaa" stroke-width="1.3" stroke-opacity="0.533333" d="M178.08,-71.7C169.57,-63.54 159.24,-53.63 149.85,-44.62"/>
<polygon fill="#aabbaa" fill-opacity="0.533333" stroke="#aabbaa" stroke-width="1.3" stroke-opacity="0.533333" points="152.28,-42.1 142.64,-37.71 147.43,-47.16 152.28,-42.1"/>
</g>
<!-- /test/widget_test.dart -->
<g id="node6" class="node">
<title>/test/widget_test.dart</title>
<path fill="Lavender" stroke="black" stroke-width="1.3" d="M125,-324C125,-324 57.25,-324 57.25,-324 51.25,-324 45.25,-318 45.25,-312 45.25,-312 45.25,-300 45.25,-300 45.25,-294 51.25,-288 57.25,-288 57.25,-288 125,-288 125,-288 131,-288 137,-294 137,-300 137,-300 137,-312 137,-312 137,-318 131,-324 125,-324"/>
<text text-anchor="middle" x="91.12" y="-300.75" font-family="Arial" font-size="15.00">widget_test</text>
</g>
<!-- /test/widget_test.dart&#45;&gt;/lib/main.dart -->
<g id="edge7" class="edge">
<title>/test/widget_test.dart&#45;&gt;/lib/main.dart</title>
<path fill="none" stroke="#aabbaa" stroke-width="1.3" stroke-opacity="0.533333" d="M91.12,-287.7C91.12,-280.49 91.12,-271.93 91.12,-263.82"/>
<polygon fill="#aabbaa" fill-opacity="0.533333" stroke="#aabbaa" stroke-width="1.3" stroke-opacity="0.533333" points="94.63,-264.07 91.13,-254.07 87.63,-264.07 94.63,-264.07"/>
</g>
</g>
</svg>
