<?xml version="1.0" encoding="UTF-8" standalone="no"?>
<!DOCTYPE svg PUBLIC "-//W3C//DTD SVG 1.1//EN"
 "http://www.w3.org/Graphics/SVG/1.1/DTD/svg11.dtd">
<!-- Generated by graphviz version 12.1.2 (20240928.0832)
 -->
<!-- Pages: 1 -->
<svg width="1646pt" height="781pt"
 viewBox="0.00 0.00 1646.00 781.00" xmlns="http://www.w3.org/2000/svg" xmlns:xlink="http://www.w3.org/1999/xlink">
<g id="graph0" class="graph" transform="scale(1 1) rotate(0) translate(4 777)">
<polygon fill="white" stroke="none" points="-4,4 -4,-777 1642,-777 1642,4 -4,4"/>
<g id="clust1" class="cluster">
<title>cluster~</title>
<path fill="none" stroke="lightgray" stroke-width="2.6" d="M20,-8C20,-8 1618,-8 1618,-8 1624,-8 1630,-14 1630,-20 1630,-20 1630,-753 1630,-753 1630,-759 1624,-765 1618,-765 1618,-765 20,-765 20,-765 14,-765 8,-759 8,-753 8,-753 8,-20 8,-20 8,-14 14,-8 20,-8"/>
<text text-anchor="middle" x="819" y="-748.65" font-family="Arial Black" font-size="13.00">cards</text>
</g>
<g id="clust2" class="cluster">
<title>cluster~/test</title>
<path fill="none" stroke="lightgray" stroke-width="2.6" d="M28,-251C28,-251 474,-251 474,-251 480,-251 486,-257 486,-263 486,-263 486,-353 486,-353 486,-359 480,-365 474,-365 474,-365 28,-365 28,-365 22,-365 16,-359 16,-353 16,-353 16,-263 16,-263 16,-257 22,-251 28,-251"/>
<text text-anchor="middle" x="251" y="-348.65" font-family="Arial Black" font-size="13.00">test</text>
</g>
<g id="clust3" class="cluster">
<title>cluster~/test/models</title>
<path fill="none" stroke="lightgray" stroke-width="2.6" d="M36,-259C36,-259 466,-259 466,-259 472,-259 478,-265 478,-271 478,-271 478,-322 478,-322 478,-328 472,-334 466,-334 466,-334 36,-334 36,-334 30,-334 24,-328 24,-322 24,-322 24,-271 24,-271 24,-265 30,-259 36,-259"/>
<text text-anchor="middle" x="251" y="-317.65" font-family="Arial Black" font-size="13.00">models</text>
</g>
<g id="clust4" class="cluster">
<title>cluster~/lib</title>
<path fill="none" stroke="lightgray" stroke-width="2.6" d="M506,-16C506,-16 1610,-16 1610,-16 1616,-16 1622,-22 1622,-28 1622,-28 1622,-722 1622,-722 1622,-728 1616,-734 1610,-734 1610,-734 506,-734 506,-734 500,-734 494,-728 494,-722 494,-722 494,-28 494,-28 494,-22 500,-16 506,-16"/>
<text text-anchor="middle" x="1058" y="-717.65" font-family="Arial Black" font-size="13.00">lib</text>
</g>
<g id="clust5" class="cluster">
<title>cluster~/lib/models</title>
<path fill="none" stroke="lightgray" stroke-width="2.6" d="M514,-24C514,-24 866,-24 866,-24 872,-24 878,-30 878,-36 878,-36 878,-231 878,-231 878,-237 872,-243 866,-243 866,-243 514,-243 514,-243 508,-243 502,-237 502,-231 502,-231 502,-36 502,-36 502,-30 508,-24 514,-24"/>
<text text-anchor="middle" x="690" y="-226.65" font-family="Arial Black" font-size="13.00">models</text>
</g>
<g id="clust6" class="cluster">
<title>cluster~/lib/screens</title>
<path fill="none" stroke="lightgray" stroke-width="2.6" d="M628,-437C628,-437 746,-437 746,-437 752,-437 758,-443 758,-449 758,-449 758,-647 758,-647 758,-653 752,-659 746,-659 746,-659 628,-659 628,-659 622,-659 616,-653 616,-647 616,-647 616,-449 616,-449 616,-443 622,-437 628,-437"/>
<text text-anchor="middle" x="687" y="-642.65" font-family="Arial Black" font-size="13.00">screens</text>
</g>
<g id="clust7" class="cluster">
<title>cluster~/lib/widgets</title>
<path fill="none" stroke="lightgray" stroke-width="2.6" d="M898,-24C898,-24 1590,-24 1590,-24 1596,-24 1602,-30 1602,-36 1602,-36 1602,-500 1602,-500 1602,-506 1596,-512 1590,-512 1590,-512 898,-512 898,-512 892,-512 886,-506 886,-500 886,-500 886,-36 886,-36 886,-30 892,-24 898,-24"/>
<text text-anchor="middle" x="1244" y="-495.65" font-family="Arial Black" font-size="13.00">widgets</text>
</g>
<!-- /test/models/game_model_test.dart -->
<g id="node1" class="node">
<title>/test/models/game_model_test.dart</title>
<path fill="Lavender" stroke="black" stroke-width="1.3" d="M457.62,-303C457.62,-303 346.38,-303 346.38,-303 340.38,-303 334.38,-297 334.38,-291 334.38,-291 334.38,-279 334.38,-279 334.38,-273 340.38,-267 346.38,-267 346.38,-267 457.62,-267 457.62,-267 463.62,-267 469.62,-273 469.62,-279 469.62,-279 469.62,-291 469.62,-291 469.62,-297 463.62,-303 457.62,-303"/>
<text text-anchor="middle" x="402" y="-279.75" font-family="Arial" font-size="15.00">game_model_test</text>
</g>
<!-- /lib/models/game_model.dart -->
<g id="node4" class="node">
<title>/lib/models/game_model.dart</title>
<path fill="Lavender" stroke="black" stroke-width="1.3" d="M762.12,-212C762.12,-212 683.88,-212 683.88,-212 677.88,-212 671.88,-206 671.88,-200 671.88,-200 671.88,-188 671.88,-188 671.88,-182 677.88,-176 683.88,-176 683.88,-176 762.12,-176 762.12,-176 768.12,-176 774.12,-182 774.12,-188 774.12,-188 774.12,-200 774.12,-200 774.12,-206 768.12,-212 762.12,-212"/>
<text text-anchor="middle" x="723" y="-188.75" font-family="Arial" font-size="15.00">game_model</text>
</g>
<!-- /test/models/game_model_test.dart&#45;&gt;/lib/models/game_model.dart -->
<g id="edge1" class="edge">
<title>/test/models/game_model_test.dart&#45;&gt;/lib/models/game_model.dart</title>
<path fill="none" stroke="#aabbaa" stroke-width="1.3" stroke-opacity="0.533333" d="M469.97,-282.24C523.51,-278.76 599.02,-269.09 660,-243 672.97,-237.45 685.66,-228.64 696.22,-220.07"/>
<polygon fill="#aabbaa" fill-opacity="0.533333" stroke="#aabbaa" stroke-width="1.3" stroke-opacity="0.533333" points="698.41,-222.8 703.76,-213.65 693.87,-217.47 698.41,-222.8"/>
</g>
<!-- /test/models/player_model_test.dart -->
<g id="node2" class="node">
<title>/test/models/player_model_test.dart</title>
<path fill="Lavender" stroke="black" stroke-width="1.3" d="M304.12,-303C304.12,-303 189.88,-303 189.88,-303 183.88,-303 177.88,-297 177.88,-291 177.88,-291 177.88,-279 177.88,-279 177.88,-273 183.88,-267 189.88,-267 189.88,-267 304.12,-267 304.12,-267 310.12,-267 316.12,-273 316.12,-279 316.12,-279 316.12,-291 316.12,-291 316.12,-297 310.12,-303 304.12,-303"/>
<text text-anchor="middle" x="247" y="-279.75" font-family="Arial" font-size="15.00">player_model_test</text>
</g>
<!-- /lib/models/player_model.dart -->
<g id="node7" class="node">
<title>/lib/models/player_model.dart</title>
<path fill="Lavender" stroke="black" stroke-width="1.3" d="M603.62,-140C603.62,-140 522.38,-140 522.38,-140 516.38,-140 510.38,-134 510.38,-128 510.38,-128 510.38,-116 510.38,-116 510.38,-110 516.38,-104 522.38,-104 522.38,-104 603.62,-104 603.62,-104 609.62,-104 615.62,-110 615.62,-116 615.62,-116 615.62,-128 615.62,-128 615.62,-134 609.62,-140 603.62,-140"/>
<text text-anchor="middle" x="563" y="-116.75" font-family="Arial" font-size="15.00">player_model</text>
</g>
<!-- /test/models/player_model_test.dart&#45;&gt;/lib/models/player_model.dart -->
<g id="edge2" class="edge">
<title>/test/models/player_model_test.dart&#45;&gt;/lib/models/player_model.dart</title>
<path fill="none" stroke="#aabbaa" stroke-width="1.3" stroke-opacity="0.533333" d="M281.12,-266.62C338.6,-237.33 454.69,-178.18 518.5,-145.67"/>
<polygon fill="#aabbaa" fill-opacity="0.533333" stroke="#aabbaa" stroke-width="1.3" stroke-opacity="0.533333" points="519.95,-148.86 527.27,-141.2 516.77,-142.62 519.95,-148.86"/>
</g>
<!-- /test/models/card_model_test.dart -->
<g id="node3" class="node">
<title>/test/models/card_model_test.dart</title>
<path fill="Lavender" stroke="black" stroke-width="1.3" d="M147.5,-303C147.5,-303 44.5,-303 44.5,-303 38.5,-303 32.5,-297 32.5,-291 32.5,-291 32.5,-279 32.5,-279 32.5,-273 38.5,-267 44.5,-267 44.5,-267 147.5,-267 147.5,-267 153.5,-267 159.5,-273 159.5,-279 159.5,-279 159.5,-291 159.5,-291 159.5,-297 153.5,-303 147.5,-303"/>
<text text-anchor="middle" x="96" y="-279.75" font-family="Arial" font-size="15.00">card_model_test</text>
</g>
<!-- /lib/models/card_model.dart -->
<g id="node8" class="node">
<title>/lib/models/card_model.dart</title>
<path fill="Lavender" stroke="black" stroke-width="1.3" d="M714,-68C714,-68 644,-68 644,-68 638,-68 632,-62 632,-56 632,-56 632,-44 632,-44 632,-38 638,-32 644,-32 644,-32 714,-32 714,-32 720,-32 726,-38 726,-44 726,-44 726,-56 726,-56 726,-62 720,-68 714,-68"/>
<text text-anchor="middle" x="679" y="-44.75" font-family="Arial" font-size="15.00">card_model</text>
</g>
<!-- /test/models/card_model_test.dart&#45;&gt;/lib/models/card_model.dart -->
<g id="edge3" class="edge">
<title>/test/models/card_model_test.dart&#45;&gt;/lib/models/card_model.dart</title>
<path fill="none" stroke="#aabbaa" stroke-width="1.3" stroke-opacity="0.533333" d="M130.48,-266.51C199.47,-232.01 360.01,-154.17 501,-104 540.3,-90.01 585.34,-76.63 620.28,-66.81"/>
<polygon fill="#aabbaa" fill-opacity="0.533333" stroke="#aabbaa" stroke-width="1.3" stroke-opacity="0.533333" points="621.13,-70.2 629.82,-64.15 619.25,-63.46 621.13,-70.2"/>
</g>
<!-- /lib/models/game_model.dart&#45;&gt;/lib/models/player_model.dart -->
<g id="edge6" class="edge">
<title>/lib/models/game_model.dart&#45;&gt;/lib/models/player_model.dart</title>
<path fill="none" stroke="#aabbaa" stroke-width="1.3" stroke-opacity="0.533333" d="M677.1,-175.52C655.29,-166.38 629.36,-155.09 607.7,-145.33"/>
<polygon fill="#aabbaa" fill-opacity="0.533333" stroke="#aabbaa" stroke-width="1.3" stroke-opacity="0.533333" points="609.15,-142.14 598.6,-141.2 606.25,-148.52 609.15,-142.14"/>
</g>
<!-- /lib/models/game_model.dart&#45;&gt;/lib/models/player_model.dart -->
<g id="edge8" class="edge">
<title>/lib/models/game_model.dart&#45;&gt;/lib/models/player_model.dart</title>
<path fill="none" stroke="#aabbaa" stroke-width="1.3" stroke-dasharray="5,2" stroke-opacity="0.533333" d="M688.97,-175.52C668.74,-166.25 642.65,-154.78 619.43,-144.93"/>
<polygon fill="#aabbaa" fill-opacity="0.533333" stroke="#aabbaa" stroke-width="1.3" stroke-opacity="0.533333" points="621.04,-141.81 610.47,-141.15 618.32,-148.26 621.04,-141.81"/>
</g>
<!-- /lib/models/backend_model.dart -->
<g id="node9" class="node">
<title>/lib/models/backend_model.dart</title>
<path fill="Lavender" stroke="black" stroke-width="1.3" d="M857.5,-140C857.5,-140 760.5,-140 760.5,-140 754.5,-140 748.5,-134 748.5,-128 748.5,-128 748.5,-116 748.5,-116 748.5,-110 754.5,-104 760.5,-104 760.5,-104 857.5,-104 857.5,-104 863.5,-104 869.5,-110 869.5,-116 869.5,-116 869.5,-128 869.5,-128 869.5,-134 863.5,-140 857.5,-140"/>
<text text-anchor="middle" x="809" y="-116.75" font-family="Arial" font-size="15.00">backend_model</text>
</g>
<!-- /lib/models/game_model.dart&#45;&gt;/lib/models/backend_model.dart -->
<g id="edge4" class="edge">
<title>/lib/models/game_model.dart&#45;&gt;/lib/models/backend_model.dart</title>
<path fill="none" stroke="#aabbaa" stroke-width="1.3" stroke-opacity="0.533333" d="M744.26,-175.7C754.6,-167.28 767.21,-157.02 778.54,-147.79"/>
<polygon fill="#aabbaa" fill-opacity="0.533333" stroke="#aabbaa" stroke-width="1.3" stroke-opacity="0.533333" points="780.62,-150.62 786.16,-141.59 776.2,-145.19 780.62,-150.62"/>
</g>
<!-- /lib/models/deck_model.dart -->
<g id="node10" class="node">
<title>/lib/models/deck_model.dart</title>
<path fill="Lavender" stroke="black" stroke-width="1.3" d="M718.12,-140C718.12,-140 645.88,-140 645.88,-140 639.88,-140 633.88,-134 633.88,-128 633.88,-128 633.88,-116 633.88,-116 633.88,-110 639.88,-104 645.88,-104 645.88,-104 718.12,-104 718.12,-104 724.12,-104 730.12,-110 730.12,-116 730.12,-116 730.12,-128 730.12,-128 730.12,-134 724.12,-140 718.12,-140"/>
<text text-anchor="middle" x="682" y="-116.75" font-family="Arial" font-size="15.00">deck_model</text>
</g>
<!-- /lib/models/game_model.dart&#45;&gt;/lib/models/deck_model.dart -->
<g id="edge5" class="edge">
<title>/lib/models/game_model.dart&#45;&gt;/lib/models/deck_model.dart</title>
<path fill="none" stroke="#aabbaa" stroke-width="1.3" stroke-opacity="0.533333" d="M706.95,-175.7C701.75,-168.15 696.23,-159.12 691.6,-150.68"/>
<polygon fill="#aabbaa" fill-opacity="0.533333" stroke="#aabbaa" stroke-width="1.3" stroke-opacity="0.533333" points="694.73,-149.12 687.03,-141.85 688.51,-152.34 694.73,-149.12"/>
</g>
<!-- /lib/models/game_model.dart&#45;&gt;/lib/models/deck_model.dart -->
<g id="edge7" class="edge">
<title>/lib/models/game_model.dart&#45;&gt;/lib/models/deck_model.dart</title>
<path fill="none" stroke="#aabbaa" stroke-width="1.3" stroke-dasharray="5,2" stroke-opacity="0.533333" d="M718.78,-175.7C715.06,-167.98 709.86,-158.71 704.48,-150.11"/>
<polygon fill="#aabbaa" fill-opacity="0.533333" stroke="#aabbaa" stroke-width="1.3" stroke-opacity="0.533333" points="707.4,-148.19 698.99,-141.75 701.55,-152.03 707.4,-148.19"/>
</g>
<!-- /lib/models/game_over_dialog.dart -->
<g id="node5" class="node">
<title>/lib/models/game_over_dialog.dart</title>
<path fill="Lavender" stroke="black" stroke-width="1.3" d="M639.12,-212C639.12,-212 524.88,-212 524.88,-212 518.88,-212 512.88,-206 512.88,-200 512.88,-200 512.88,-188 512.88,-188 512.88,-182 518.88,-176 524.88,-176 524.88,-176 639.12,-176 639.12,-176 645.12,-176 651.12,-182 651.12,-188 651.12,-188 651.12,-200 651.12,-200 651.12,-206 645.12,-212 639.12,-212"/>
<text text-anchor="middle" x="582" y="-188.75" font-family="Arial" font-size="15.00">game_over_dialog</text>
</g>
<!-- /lib/models/game_over_dialog.dart&#45;&gt;/lib/models/player_model.dart -->
<g id="edge9" class="edge">
<title>/lib/models/game_over_dialog.dart&#45;&gt;/lib/models/player_model.dart</title>
<path fill="none" stroke="#aabbaa" stroke-width="1.3" stroke-opacity="0.533333" d="M577.3,-175.7C575.32,-168.41 572.97,-159.73 570.75,-151.54"/>
<polygon fill="#aabbaa" fill-opacity="0.533333" stroke="#aabbaa" stroke-width="1.3" stroke-opacity="0.533333" points="574.16,-150.74 568.16,-142 567.4,-152.57 574.16,-150.74"/>
</g>
<!-- /lib/models/firebase_options.dart -->
<g id="node6" class="node">
<title>/lib/models/firebase_options.dart</title>
<path fill="Lavender" stroke="black" stroke-width="1.3" d="M857.75,-68C857.75,-68 756.25,-68 756.25,-68 750.25,-68 744.25,-62 744.25,-56 744.25,-56 744.25,-44 744.25,-44 744.25,-38 750.25,-32 756.25,-32 756.25,-32 857.75,-32 857.75,-32 863.75,-32 869.75,-38 869.75,-44 869.75,-44 869.75,-56 869.75,-56 869.75,-62 863.75,-68 857.75,-68"/>
<text text-anchor="middle" x="807" y="-44.75" font-family="Arial" font-size="15.00">firebase_options</text>
</g>
<!-- /lib/models/player_model.dart&#45;&gt;/lib/models/card_model.dart -->
<g id="edge10" class="edge">
<title>/lib/models/player_model.dart&#45;&gt;/lib/models/card_model.dart</title>
<path fill="none" stroke="#aabbaa" stroke-width="1.3" stroke-opacity="0.533333" d="M586.04,-103.52C599.91,-94.6 617.93,-83.63 634.45,-74.03"/>
<polygon fill="#aabbaa" fill-opacity="0.533333" stroke="#aabbaa" stroke-width="1.3" stroke-opacity="0.533333" points="635.85,-77.26 642.78,-69.24 632.37,-71.19 635.85,-77.26"/>
</g>
<!-- /lib/models/player_model.dart&#45;&gt;/lib/models/card_model.dart -->
<g id="edge11" class="edge">
<title>/lib/models/player_model.dart&#45;&gt;/lib/models/card_model.dart</title>
<path fill="none" stroke="#aabbaa" stroke-width="1.3" stroke-dasharray="5,2" stroke-opacity="0.533333" d="M597.91,-103.52C613.3,-94.76 631.23,-84.04 646.35,-74.58"/>
<polygon fill="#aabbaa" fill-opacity="0.533333" stroke="#aabbaa" stroke-width="1.3" stroke-opacity="0.533333" points="648.08,-77.63 654.65,-69.31 644.33,-71.71 648.08,-77.63"/>
</g>
<!-- /lib/models/backend_model.dart&#45;&gt;/lib/models/firebase_options.dart -->
<g id="edge12" class="edge">
<title>/lib/models/backend_model.dart&#45;&gt;/lib/models/firebase_options.dart</title>
<path fill="none" stroke="#aabbaa" stroke-width="1.3" stroke-opacity="0.533333" d="M808.51,-103.7C808.3,-96.49 808.06,-87.93 807.82,-79.82"/>
<polygon fill="#aabbaa" fill-opacity="0.533333" stroke="#aabbaa" stroke-width="1.3" stroke-opacity="0.533333" points="811.33,-79.97 807.54,-70.07 804.33,-80.17 811.33,-79.97"/>
</g>
<!-- /lib/models/deck_model.dart&#45;&gt;/lib/models/card_model.dart -->
<g id="edge13" class="edge">
<title>/lib/models/deck_model.dart&#45;&gt;/lib/models/card_model.dart</title>
<path fill="none" stroke="#aabbaa" stroke-width="1.3" stroke-opacity="0.533333" d="M675.34,-103.7C674.29,-96.49 673.68,-87.93 673.58,-79.82"/>
<polygon fill="#aabbaa" fill-opacity="0.533333" stroke="#aabbaa" stroke-width="1.3" stroke-opacity="0.533333" points="677.07,-80.15 673.79,-70.07 670.07,-79.99 677.07,-80.15"/>
</g>
<!-- /lib/models/deck_model.dart&#45;&gt;/lib/models/card_model.dart -->
<g id="edge14" class="edge">
<title>/lib/models/deck_model.dart&#45;&gt;/lib/models/card_model.dart</title>
<path fill="none" stroke="#aabbaa" stroke-width="1.3" stroke-dasharray="5,2" stroke-opacity="0.533333" d="M687.17,-103.7C687.61,-96.49 687.49,-87.93 686.89,-79.82"/>
<polygon fill="#aabbaa" fill-opacity="0.533333" stroke="#aabbaa" stroke-width="1.3" stroke-opacity="0.533333" points="690.39,-79.63 685.84,-70.06 683.43,-80.38 690.39,-79.63"/>
</g>
<!-- /lib/screens/game_screen.dart -->
<g id="node11" class="node">
<title>/lib/screens/game_screen.dart</title>
<path fill="Lavender" stroke="black" stroke-width="1.3" d="M738.38,-556C738.38,-556 655.62,-556 655.62,-556 649.62,-556 643.62,-550 643.62,-544 643.62,-544 643.62,-532 643.62,-532 643.62,-526 649.62,-520 655.62,-520 655.62,-520 738.38,-520 738.38,-520 744.38,-520 750.38,-526 750.38,-532 750.38,-532 750.38,-544 750.38,-544 750.38,-550 744.38,-556 738.38,-556"/>
<text text-anchor="middle" x="697" y="-532.75" font-family="Arial" font-size="15.00">game_screen</text>
</g>
<!-- /lib/screens/game_screen.dart&#45;&gt;/lib/models/game_model.dart -->
<g id="edge15" class="edge">
<title>/lib/screens/game_screen.dart&#45;&gt;/lib/models/game_model.dart</title>
<path fill="none" stroke="#aabbaa" stroke-width="1.3" stroke-opacity="0.533333" d="M707.24,-519.64C708.35,-517.14 709.32,-514.55 710,-512 737.42,-409.04 730.82,-280.69 725.96,-224.1"/>
<polygon fill="#aabbaa" fill-opacity="0.533333" stroke="#aabbaa" stroke-width="1.3" stroke-opacity="0.533333" points="729.45,-223.83 725.06,-214.19 722.48,-224.47 729.45,-223.83"/>
</g>
<!-- /lib/screens/game_screen.dart&#45;&gt;/lib/models/game_over_dialog.dart -->
<g id="edge16" class="edge">
<title>/lib/screens/game_screen.dart&#45;&gt;/lib/models/game_over_dialog.dart</title>
<path fill="none" stroke="#aabbaa" stroke-width="1.3" stroke-opacity="0.533333" d="M698.8,-519.75C700.4,-499.6 701.61,-465.41 695,-437 675.74,-354.15 626.05,-265.76 599.44,-222.33"/>
<polygon fill="#aabbaa" fill-opacity="0.533333" stroke="#aabbaa" stroke-width="1.3" stroke-opacity="0.533333" points="602.49,-220.6 594.24,-213.95 596.54,-224.3 602.49,-220.6"/>
</g>
<!-- /lib/screens/screen.dart -->
<g id="node13" class="node">
<title>/lib/screens/screen.dart</title>
<path fill="Lavender" stroke="black" stroke-width="1.3" d="M673.5,-481C673.5,-481 636.5,-481 636.5,-481 630.5,-481 624.5,-475 624.5,-469 624.5,-469 624.5,-457 624.5,-457 624.5,-451 630.5,-445 636.5,-445 636.5,-445 673.5,-445 673.5,-445 679.5,-445 685.5,-451 685.5,-457 685.5,-457 685.5,-469 685.5,-469 685.5,-475 679.5,-481 673.5,-481"/>
<text text-anchor="middle" x="655" y="-457.75" font-family="Arial" font-size="15.00">screen</text>
</g>
<!-- /lib/screens/game_screen.dart&#45;&gt;/lib/screens/screen.dart -->
<g id="edge17" class="edge">
<title>/lib/screens/game_screen.dart&#45;&gt;/lib/screens/screen.dart</title>
<path fill="none" stroke="#aabbaa" stroke-width="1.3" stroke-opacity="0.533333" d="M687.05,-519.7C682.22,-511.31 676.3,-501.02 670.87,-491.58"/>
<polygon fill="#aabbaa" fill-opacity="0.533333" stroke="#aabbaa" stroke-width="1.3" stroke-opacity="0.533333" points="674.03,-490.06 666.01,-483.13 667.96,-493.55 674.03,-490.06"/>
</g>
<!-- /lib/widgets/player_zone_widget.dart -->
<g id="node23" class="node">
<title>/lib/widgets/player_zone_widget.dart</title>
<path fill="Lavender" stroke="black" stroke-width="1.3" d="M1208,-481C1208,-481 1084,-481 1084,-481 1078,-481 1072,-475 1072,-469 1072,-469 1072,-457 1072,-457 1072,-451 1078,-445 1084,-445 1084,-445 1208,-445 1208,-445 1214,-445 1220,-451 1220,-457 1220,-457 1220,-469 1220,-469 1220,-475 1214,-481 1208,-481"/>
<text text-anchor="middle" x="1146" y="-457.75" font-family="Arial" font-size="15.00">player_zone_widget</text>
</g>
<!-- /lib/screens/game_screen.dart&#45;&gt;/lib/widgets/player_zone_widget.dart -->
<g id="edge18" class="edge">
<title>/lib/screens/game_screen.dart&#45;&gt;/lib/widgets/player_zone_widget.dart</title>
<path fill="none" stroke="#aabbaa" stroke-width="1.3" stroke-opacity="0.533333" d="M750.72,-536.31C837.91,-534.68 1006.2,-529.34 1063,-512 1080.42,-506.68 1098.12,-497.14 1112.67,-487.95"/>
<polygon fill="#aabbaa" fill-opacity="0.533333" stroke="#aabbaa" stroke-width="1.3" stroke-opacity="0.533333" points="1114.57,-490.89 1121.01,-482.48 1110.73,-485.04 1114.57,-490.89"/>
</g>
<!-- /lib/screens/start_screen.dart -->
<g id="node12" class="node">
<title>/lib/screens/start_screen.dart</title>
<path fill="Lavender" stroke="black" stroke-width="1.3" d="M737.62,-628C737.62,-628 662.38,-628 662.38,-628 656.38,-628 650.38,-622 650.38,-616 650.38,-616 650.38,-604 650.38,-604 650.38,-598 656.38,-592 662.38,-592 662.38,-592 737.62,-592 737.62,-592 743.62,-592 749.62,-598 749.62,-604 749.62,-604 749.62,-616 749.62,-616 749.62,-622 743.62,-628 737.62,-628"/>
<text text-anchor="middle" x="700" y="-604.75" font-family="Arial" font-size="15.00">start_screen</text>
</g>
<!-- /lib/screens/start_screen.dart&#45;&gt;/lib/models/game_model.dart -->
<g id="edge20" class="edge">
<title>/lib/screens/start_screen.dart&#45;&gt;/lib/models/game_model.dart</title>
<path fill="none" stroke="#aabbaa" stroke-width="1.3" stroke-opacity="0.533333" d="M727.1,-591.54C738.92,-582.43 751.72,-570.21 759,-556 777.76,-519.4 769,-505.13 769,-464 769,-464 769,-464 769,-390 769,-329.42 747.71,-261.02 734.1,-223.48"/>
<polygon fill="#aabbaa" fill-opacity="0.533333" stroke="#aabbaa" stroke-width="1.3" stroke-opacity="0.533333" points="737.44,-222.42 730.67,-214.26 730.88,-224.86 737.44,-222.42"/>
</g>
<!-- /lib/screens/start_screen.dart&#45;&gt;/lib/models/backend_model.dart -->
<g id="edge19" class="edge">
<title>/lib/screens/start_screen.dart&#45;&gt;/lib/models/backend_model.dart</title>
<path fill="none" stroke="#aabbaa" stroke-width="1.3" stroke-opacity="0.533333" d="M749.92,-607.55C931.57,-601.74 1549.63,-577.3 1606,-512 1646.37,-465.23 1649.44,-416.92 1606,-373 1591.86,-358.7 897.91,-377.3 882,-365 840.46,-332.88 866.08,-301.29 851,-251 840.68,-216.58 827.62,-177.36 818.82,-151.51"/>
<polygon fill="#aabbaa" fill-opacity="0.533333" stroke="#aabbaa" stroke-width="1.3" stroke-opacity="0.533333" points="822.17,-150.49 815.63,-142.16 815.55,-152.76 822.17,-150.49"/>
</g>
<!-- /lib/screens/start_screen.dart&#45;&gt;/lib/screens/game_screen.dart -->
<g id="edge21" class="edge">
<title>/lib/screens/start_screen.dart&#45;&gt;/lib/screens/game_screen.dart</title>
<path fill="none" stroke="#aabbaa" stroke-width="1.3" stroke-opacity="0.533333" d="M699.26,-591.7C698.95,-584.49 698.58,-575.93 698.24,-567.82"/>
<polygon fill="#aabbaa" fill-opacity="0.533333" stroke="#aabbaa" stroke-width="1.3" stroke-opacity="0.533333" points="701.74,-567.91 697.82,-558.07 694.75,-568.21 701.74,-567.91"/>
</g>
<!-- /lib/screens/start_screen.dart&#45;&gt;/lib/screens/screen.dart -->
<g id="edge22" class="edge">
<title>/lib/screens/start_screen.dart&#45;&gt;/lib/screens/screen.dart</title>
<path fill="none" stroke="#aabbaa" stroke-width="1.3" stroke-opacity="0.533333" d="M668.08,-591.54C655.31,-582.72 642,-570.73 635,-556 625.42,-535.83 631.76,-510.98 639.76,-492.19"/>
<polygon fill="#aabbaa" fill-opacity="0.533333" stroke="#aabbaa" stroke-width="1.3" stroke-opacity="0.533333" points="642.92,-493.7 643.99,-483.16 636.58,-490.73 642.92,-493.7"/>
</g>
<!-- /lib/widgets/players_in_room_widget.dart -->
<g id="node21" class="node">
<title>/lib/widgets/players_in_room_widget.dart</title>
<path fill="Lavender" stroke="black" stroke-width="1.3" d="M1581.62,-481C1581.62,-481 1428.38,-481 1428.38,-481 1422.38,-481 1416.38,-475 1416.38,-469 1416.38,-469 1416.38,-457 1416.38,-457 1416.38,-451 1422.38,-445 1428.38,-445 1428.38,-445 1581.62,-445 1581.62,-445 1587.62,-445 1593.62,-451 1593.62,-457 1593.62,-457 1593.62,-469 1593.62,-469 1593.62,-475 1587.62,-481 1581.62,-481"/>
<text text-anchor="middle" x="1505" y="-457.75" font-family="Arial" font-size="15.00">players_in_room_widget</text>
</g>
<!-- /lib/screens/start_screen.dart&#45;&gt;/lib/widgets/players_in_room_widget.dart -->
<g id="edge23" class="edge">
<title>/lib/screens/start_screen.dart&#45;&gt;/lib/widgets/players_in_room_widget.dart</title>
<path fill="none" stroke="#aabbaa" stroke-width="1.3" stroke-opacity="0.533333" d="M750.02,-607.58C867.31,-603.09 1168.21,-584.8 1407,-512 1427.11,-505.87 1448.2,-496.03 1465.64,-486.86"/>
<polygon fill="#aabbaa" fill-opacity="0.533333" stroke="#aabbaa" stroke-width="1.3" stroke-opacity="0.533333" points="1467.12,-490.04 1474.26,-482.21 1463.79,-483.88 1467.12,-490.04"/>
</g>
<!-- /lib/main.dart -->
<g id="node14" class="node">
<title>/lib/main.dart</title>
<path fill="Lavender" stroke="black" stroke-width="1.3" d="M715,-703C715,-703 685,-703 685,-703 679,-703 673,-697 673,-691 673,-691 673,-679 673,-679 673,-673 679,-667 685,-667 685,-667 715,-667 715,-667 721,-667 727,-673 727,-679 727,-679 727,-691 727,-691 727,-697 721,-703 715,-703"/>
<text text-anchor="middle" x="700" y="-679.75" font-family="Arial" font-size="15.00">main</text>
</g>
<!-- /lib/main.dart&#45;&gt;/lib/screens/start_screen.dart -->
<g id="edge24" class="edge">
<title>/lib/main.dart&#45;&gt;/lib/screens/start_screen.dart</title>
<path fill="none" stroke="#aabbaa" stroke-width="1.3" stroke-opacity="0.533333" d="M700,-666.7C700,-658.76 700,-649.12 700,-640.11"/>
<polygon fill="#aabbaa" fill-opacity="0.533333" stroke="#aabbaa" stroke-width="1.3" stroke-opacity="0.533333" points="703.5,-640.4 700,-630.4 696.5,-640.4 703.5,-640.4"/>
</g>
<!-- /lib/widgets/player_zone_cta_widget.dart -->
<g id="node15" class="node">
<title>/lib/widgets/player_zone_cta_widget.dart</title>
<path fill="Lavender" stroke="black" stroke-width="1.3" d="M1086.25,-409C1086.25,-409 933.75,-409 933.75,-409 927.75,-409 921.75,-403 921.75,-397 921.75,-397 921.75,-385 921.75,-385 921.75,-379 927.75,-373 933.75,-373 933.75,-373 1086.25,-373 1086.25,-373 1092.25,-373 1098.25,-379 1098.25,-385 1098.25,-385 1098.25,-397 1098.25,-397 1098.25,-403 1092.25,-409 1086.25,-409"/>
<text text-anchor="middle" x="1010" y="-385.75" font-family="Arial" font-size="15.00">player_zone_cta_widget</text>
</g>
<!-- /lib/widgets/player_zone_cta_widget.dart&#45;&gt;/lib/models/game_model.dart -->
<g id="edge25" class="edge">
<title>/lib/widgets/player_zone_cta_widget.dart&#45;&gt;/lib/models/game_model.dart</title>
<path fill="none" stroke="#aabbaa" stroke-width="1.3" stroke-opacity="0.533333" d="M921.39,-380.71C899.42,-376.95 879.66,-371.83 871,-365 827.56,-330.74 858,-292.14 821,-251 808.85,-237.49 792.65,-226.43 776.93,-217.8"/>
<polygon fill="#aabbaa" fill-opacity="0.533333" stroke="#aabbaa" stroke-width="1.3" stroke-opacity="0.533333" points="778.94,-214.91 768.46,-213.4 775.71,-221.12 778.94,-214.91"/>
</g>
<!-- /lib/widgets/card_pile_widget.dart -->
<g id="node16" class="node">
<title>/lib/widgets/card_pile_widget.dart</title>
<path fill="Lavender" stroke="black" stroke-width="1.3" d="M1034.5,-212C1034.5,-212 931.5,-212 931.5,-212 925.5,-212 919.5,-206 919.5,-200 919.5,-200 919.5,-188 919.5,-188 919.5,-182 925.5,-176 931.5,-176 931.5,-176 1034.5,-176 1034.5,-176 1040.5,-176 1046.5,-182 1046.5,-188 1046.5,-188 1046.5,-200 1046.5,-200 1046.5,-206 1040.5,-212 1034.5,-212"/>
<text text-anchor="middle" x="983" y="-188.75" font-family="Arial" font-size="15.00">card_pile_widget</text>
</g>
<!-- /lib/widgets/player_zone_cta_widget.dart&#45;&gt;/lib/widgets/card_pile_widget.dart -->
<g id="edge26" class="edge">
<title>/lib/widgets/player_zone_cta_widget.dart&#45;&gt;/lib/widgets/card_pile_widget.dart</title>
<path fill="none" stroke="#aabbaa" stroke-width="1.3" stroke-opacity="0.533333" d="M1033.14,-372.65C1035.09,-370.3 1036.77,-367.74 1038,-365 1058.7,-318.76 1057.18,-297.9 1038,-251 1033.28,-239.46 1024.91,-229.01 1016.1,-220.36"/>
<polygon fill="#aabbaa" fill-opacity="0.533333" stroke="#aabbaa" stroke-width="1.3" stroke-opacity="0.533333" points="1018.47,-217.78 1008.72,-213.64 1013.76,-222.96 1018.47,-217.78"/>
</g>
<!-- /lib/widgets/card_widget.dart -->
<g id="node18" class="node">
<title>/lib/widgets/card_widget.dart</title>
<path fill="Lavender" stroke="black" stroke-width="1.3" d="M1078.12,-140C1078.12,-140 1005.88,-140 1005.88,-140 999.88,-140 993.88,-134 993.88,-128 993.88,-128 993.88,-116 993.88,-116 993.88,-110 999.88,-104 1005.88,-104 1005.88,-104 1078.12,-104 1078.12,-104 1084.12,-104 1090.12,-110 1090.12,-116 1090.12,-116 1090.12,-128 1090.12,-128 1090.12,-134 1084.12,-140 1078.12,-140"/>
<text text-anchor="middle" x="1042" y="-116.75" font-family="Arial" font-size="15.00">card_widget</text>
</g>
<!-- /lib/widgets/player_zone_cta_widget.dart&#45;&gt;/lib/widgets/card_widget.dart -->
<g id="edge28" class="edge">
<title>/lib/widgets/player_zone_cta_widget.dart&#45;&gt;/lib/widgets/card_widget.dart</title>
<path fill="none" stroke="#aabbaa" stroke-width="1.3" stroke-opacity="0.533333" d="M1043.83,-372.67C1046.23,-370.38 1048.34,-367.83 1050,-365 1089.73,-297.3 1067.24,-199.59 1052.16,-151.69"/>
<polygon fill="#aabbaa" fill-opacity="0.533333" stroke="#aabbaa" stroke-width="1.3" stroke-opacity="0.533333" points="1055.5,-150.64 1049.05,-142.23 1048.85,-152.82 1055.5,-150.64"/>
</g>
<!-- /lib/widgets/card_piles_widget.dart -->
<g id="node24" class="node">
<title>/lib/widgets/card_piles_widget.dart</title>
<path fill="Lavender" stroke="black" stroke-width="1.3" d="M1017.25,-303C1017.25,-303 906.75,-303 906.75,-303 900.75,-303 894.75,-297 894.75,-291 894.75,-291 894.75,-279 894.75,-279 894.75,-273 900.75,-267 906.75,-267 906.75,-267 1017.25,-267 1017.25,-267 1023.25,-267 1029.25,-273 1029.25,-279 1029.25,-279 1029.25,-291 1029.25,-291 1029.25,-297 1023.25,-303 1017.25,-303"/>
<text text-anchor="middle" x="962" y="-279.75" font-family="Arial" font-size="15.00">card_piles_widget</text>
</g>
<!-- /lib/widgets/player_zone_cta_widget.dart&#45;&gt;/lib/widgets/card_piles_widget.dart -->
<g id="edge27" class="edge">
<title>/lib/widgets/player_zone_cta_widget.dart&#45;&gt;/lib/widgets/card_piles_widget.dart</title>
<path fill="none" stroke="#aabbaa" stroke-width="1.3" stroke-opacity="0.533333" d="M1002.07,-372.83C994.67,-356.79 983.5,-332.59 974.83,-313.8"/>
<polygon fill="#aabbaa" fill-opacity="0.533333" stroke="#aabbaa" stroke-width="1.3" stroke-opacity="0.533333" points="978.13,-312.6 970.76,-304.99 971.78,-315.53 978.13,-312.6"/>
</g>
<!-- /lib/widgets/card_pile_widget.dart&#45;&gt;/lib/models/card_model.dart -->
<g id="edge29" class="edge">
<title>/lib/widgets/card_pile_widget.dart&#45;&gt;/lib/models/card_model.dart</title>
<path fill="none" stroke="#aabbaa" stroke-width="1.3" stroke-opacity="0.533333" d="M972.52,-175.6C959.23,-155.12 934.35,-121.68 904,-104 840.75,-67.16 812.1,-85.26 737.61,-68.41"/>
<polygon fill="#aabbaa" fill-opacity="0.533333" stroke="#aabbaa" stroke-width="1.3" stroke-opacity="0.533333" points="738.73,-65.08 728.19,-66.12 737.08,-71.88 738.73,-65.08"/>
</g>
<!-- /lib/widgets/card_pile_widget.dart&#45;&gt;/lib/widgets/card_widget.dart -->
<g id="edge30" class="edge">
<title>/lib/widgets/card_pile_widget.dart&#45;&gt;/lib/widgets/card_widget.dart</title>
<path fill="none" stroke="#aabbaa" stroke-width="1.3" stroke-opacity="0.533333" d="M997.58,-175.7C1004.37,-167.64 1012.59,-157.89 1020.1,-148.98"/>
<polygon fill="#aabbaa" fill-opacity="0.533333" stroke="#aabbaa" stroke-width="1.3" stroke-opacity="0.533333" points="1022.55,-151.51 1026.32,-141.61 1017.19,-147 1022.55,-151.51"/>
</g>
<!-- /lib/widgets/table_surface_painter.dart -->
<g id="node17" class="node">
<title>/lib/widgets/table_surface_painter.dart</title>
<path fill="Lavender" stroke="black" stroke-width="1.3" d="M1042,-481C1042,-481 906,-481 906,-481 900,-481 894,-475 894,-469 894,-469 894,-457 894,-457 894,-451 900,-445 906,-445 906,-445 1042,-445 1042,-445 1048,-445 1054,-451 1054,-457 1054,-457 1054,-469 1054,-469 1054,-475 1048,-481 1042,-481"/>
<text text-anchor="middle" x="974" y="-457.75" font-family="Arial" font-size="15.00">table_surface_painter</text>
</g>
<!-- /lib/widgets/card_widget.dart&#45;&gt;/lib/models/card_model.dart -->
<g id="edge31" class="edge">
<title>/lib/widgets/card_widget.dart&#45;&gt;/lib/models/card_model.dart</title>
<path fill="none" stroke="#aabbaa" stroke-width="1.3" stroke-opacity="0.533333" d="M993.73,-111.29C981.14,-108.84 967.57,-106.26 955,-104 861.1,-87.15 833.53,-90.18 737.64,-68.45"/>
<polygon fill="#aabbaa" fill-opacity="0.533333" stroke="#aabbaa" stroke-width="1.3" stroke-opacity="0.533333" points="738.69,-65.1 728.15,-66.26 737.11,-71.92 738.69,-65.1"/>
</g>
<!-- /lib/widgets/wiggle_widget.dart -->
<g id="node20" class="node">
<title>/lib/widgets/wiggle_widget.dart</title>
<path fill="Lavender" stroke="black" stroke-width="1.3" d="M1084.12,-68C1084.12,-68 999.88,-68 999.88,-68 993.88,-68 987.88,-62 987.88,-56 987.88,-56 987.88,-44 987.88,-44 987.88,-38 993.88,-32 999.88,-32 999.88,-32 1084.12,-32 1084.12,-32 1090.12,-32 1096.12,-38 1096.12,-44 1096.12,-44 1096.12,-56 1096.12,-56 1096.12,-62 1090.12,-68 1084.12,-68"/>
<text text-anchor="middle" x="1042" y="-44.75" font-family="Arial" font-size="15.00">wiggle_widget</text>
</g>
<!-- /lib/widgets/card_widget.dart&#45;&gt;/lib/widgets/wiggle_widget.dart -->
<g id="edge32" class="edge">
<title>/lib/widgets/card_widget.dart&#45;&gt;/lib/widgets/wiggle_widget.dart</title>
<path fill="none" stroke="#aabbaa" stroke-width="1.3" stroke-opacity="0.533333" d="M1042,-103.7C1042,-96.49 1042,-87.93 1042,-79.82"/>
<polygon fill="#aabbaa" fill-opacity="0.533333" stroke="#aabbaa" stroke-width="1.3" stroke-opacity="0.533333" points="1045.5,-80.07 1042,-70.07 1038.5,-80.07 1045.5,-80.07"/>
</g>
<!-- /lib/widgets/player_header_widget.dart -->
<g id="node19" class="node">
<title>/lib/widgets/player_header_widget.dart</title>
<path fill="Lavender" stroke="black" stroke-width="1.3" d="M1286.12,-409C1286.12,-409 1147.88,-409 1147.88,-409 1141.88,-409 1135.88,-403 1135.88,-397 1135.88,-397 1135.88,-385 1135.88,-385 1135.88,-379 1141.88,-373 1147.88,-373 1147.88,-373 1286.12,-373 1286.12,-373 1292.12,-373 1298.12,-379 1298.12,-385 1298.12,-385 1298.12,-397 1298.12,-397 1298.12,-403 1292.12,-409 1286.12,-409"/>
<text text-anchor="middle" x="1217" y="-385.75" font-family="Arial" font-size="15.00">player_header_widget</text>
</g>
<!-- /lib/widgets/text_edit_with_submit.dart -->
<g id="node22" class="node">
<title>/lib/widgets/text_edit_with_submit.dart</title>
<path fill="Lavender" stroke="black" stroke-width="1.3" d="M1386,-481C1386,-481 1250,-481 1250,-481 1244,-481 1238,-475 1238,-469 1238,-469 1238,-457 1238,-457 1238,-451 1244,-445 1250,-445 1250,-445 1386,-445 1386,-445 1392,-445 1398,-451 1398,-457 1398,-457 1398,-469 1398,-469 1398,-475 1392,-481 1386,-481"/>
<text text-anchor="middle" x="1318" y="-457.75" font-family="Arial" font-size="15.00">text_edit_with_submit</text>
</g>
<!-- /lib/widgets/player_zone_widget.dart&#45;&gt;/lib/models/game_model.dart -->
<g id="edge33" class="edge">
<title>/lib/widgets/player_zone_widget.dart&#45;&gt;/lib/models/game_model.dart</title>
<path fill="none" stroke="#aabbaa" stroke-width="1.3" stroke-opacity="0.533333" d="M1091.31,-444.62C1081.92,-441.89 1072.21,-439.24 1063,-437 953.96,-410.48 898.13,-446.5 821,-365 783.33,-325.2 803.34,-297.29 774,-251 767.24,-240.34 758.38,-229.8 749.94,-220.79"/>
<polygon fill="#aabbaa" fill-opacity="0.533333" stroke="#aabbaa" stroke-width="1.3" stroke-opacity="0.533333" points="752.59,-218.49 743.11,-213.75 747.57,-223.36 752.59,-218.49"/>
</g>
<!-- /lib/widgets/player_zone_widget.dart&#45;&gt;/lib/widgets/player_zone_cta_widget.dart -->
<g id="edge36" class="edge">
<title>/lib/widgets/player_zone_widget.dart&#45;&gt;/lib/widgets/player_zone_cta_widget.dart</title>
<path fill="none" stroke="#aabbaa" stroke-width="1.3" stroke-opacity="0.533333" d="M1112.03,-444.52C1094.46,-435.47 1072.79,-424.32 1053.96,-414.62"/>
<polygon fill="#aabbaa" fill-opacity="0.533333" stroke="#aabbaa" stroke-width="1.3" stroke-opacity="0.533333" points="1055.78,-411.63 1045.28,-410.16 1052.57,-417.85 1055.78,-411.63"/>
</g>
<!-- /lib/widgets/player_zone_widget.dart&#45;&gt;/lib/widgets/card_widget.dart -->
<g id="edge34" class="edge">
<title>/lib/widgets/player_zone_widget.dart&#45;&gt;/lib/widgets/card_widget.dart</title>
<path fill="none" stroke="#aabbaa" stroke-width="1.3" stroke-opacity="0.533333" d="M1139.38,-444.96C1135.5,-434.65 1130.66,-421.17 1127,-409 1096.3,-306.91 1107.85,-275.66 1070,-176 1066.75,-167.44 1062.42,-158.5 1058.15,-150.46"/>
<polygon fill="#aabbaa" fill-opacity="0.533333" stroke="#aabbaa" stroke-width="1.3" stroke-opacity="0.533333" points="1061.31,-148.94 1053.41,-141.88 1055.18,-152.33 1061.31,-148.94"/>
</g>
<!-- /lib/widgets/player_zone_widget.dart&#45;&gt;/lib/widgets/player_header_widget.dart -->
<g id="edge35" class="edge">
<title>/lib/widgets/player_zone_widget.dart&#45;&gt;/lib/widgets/player_header_widget.dart</title>
<path fill="none" stroke="#aabbaa" stroke-width="1.3" stroke-opacity="0.533333" d="M1163.55,-444.7C1171.89,-436.47 1182.02,-426.48 1191.22,-417.42"/>
<polygon fill="#aabbaa" fill-opacity="0.533333" stroke="#aabbaa" stroke-width="1.3" stroke-opacity="0.533333" points="1193.59,-420 1198.25,-410.49 1188.67,-415.01 1193.59,-420"/>
</g>
<!-- /lib/widgets/card_piles_widget.dart&#45;&gt;/lib/models/card_model.dart -->
<g id="edge37" class="edge">
<title>/lib/widgets/card_piles_widget.dart&#45;&gt;/lib/models/card_model.dart</title>
<path fill="none" stroke="#aabbaa" stroke-width="1.3" stroke-opacity="0.533333" d="M933.66,-266.6C925.23,-260.15 916.73,-252.14 911,-243 877.33,-189.29 923.4,-149.24 879,-104 835.32,-59.49 802.36,-82.68 737.83,-68.41"/>
<polygon fill="#aabbaa" fill-opacity="0.533333" stroke="#aabbaa" stroke-width="1.3" stroke-opacity="0.533333" points="738.77,-65.04 728.22,-66.02 737.07,-71.83 738.77,-65.04"/>
</g>
<!-- /lib/widgets/card_piles_widget.dart&#45;&gt;/lib/widgets/card_pile_widget.dart -->
<g id="edge38" class="edge">
<title>/lib/widgets/card_piles_widget.dart&#45;&gt;/lib/widgets/card_pile_widget.dart</title>
<path fill="none" stroke="#aabbaa" stroke-width="1.3" stroke-opacity="0.533333" d="M966.05,-266.84C968.94,-254.61 972.88,-237.87 976.24,-223.63"/>
<polygon fill="#aabbaa" fill-opacity="0.533333" stroke="#aabbaa" stroke-width="1.3" stroke-opacity="0.533333" points="979.55,-224.86 978.44,-214.33 972.74,-223.26 979.55,-224.86"/>
</g>
</g>
</svg>
