<?xml version="1.0" encoding="UTF-8" standalone="no"?>
<!DOCTYPE svg PUBLIC "-//W3C//DTD SVG 1.1//EN"
 "http://www.w3.org/Graphics/SVG/1.1/DTD/svg11.dtd">
<!-- Generated by graphviz version 12.2.0 (20241103.1931)
 -->
<!-- Pages: 1 -->
<svg width="4293pt" height="764pt"
 viewBox="0.00 0.00 4293.41 764.00" xmlns="http://www.w3.org/2000/svg" xmlns:xlink="http://www.w3.org/1999/xlink">
<g id="graph0" class="graph" transform="scale(1 1) rotate(0) translate(4 760)">
<polygon fill="white" stroke="none" points="-4,4 -4,-760 4289.41,-760 4289.41,4 -4,4"/>
<g id="clust1" class="cluster">
<title>cluster~</title>
<path fill="none" stroke="lightgray" stroke-width="2.6" d="M39.41,-8C39.41,-8 4265.41,-8 4265.41,-8 4271.41,-8 4277.41,-14 4277.41,-20 4277.41,-20 4277.41,-736 4277.41,-736 4277.41,-742 4271.41,-748 4265.41,-748 4265.41,-748 39.41,-748 39.41,-748 33.41,-748 27.41,-742 27.41,-736 27.41,-736 27.41,-20 27.41,-20 27.41,-14 33.41,-8 39.41,-8"/>
<text text-anchor="middle" x="2152.41" y="-731.65" font-family="Arial Black" font-size="13.00">cards</text>
</g>
<g id="clust2" class="cluster">
<title>cluster~/test</title>
<path fill="none" stroke="lightgray" stroke-width="2.6" d="M2119.41,-331C2119.41,-331 4257.41,-331 4257.41,-331 4263.41,-331 4269.41,-337 4269.41,-343 4269.41,-343 4269.41,-555 4269.41,-555 4269.41,-561 4263.41,-567 4257.41,-567 4257.41,-567 2119.41,-567 2119.41,-567 2113.41,-567 2107.41,-561 2107.41,-555 2107.41,-555 2107.41,-343 2107.41,-343 2107.41,-337 2113.41,-331 2119.41,-331"/>
<text text-anchor="middle" x="3188.41" y="-550.65" font-family="Arial Black" font-size="13.00">test</text>
</g>
<g id="clust3" class="cluster">
<title>cluster~/test/models</title>
<path fill="none" stroke="lightgray" stroke-width="2.6" d="M2127.41,-339C2127.41,-339 3901.41,-339 3901.41,-339 3907.41,-339 3913.41,-345 3913.41,-351 3913.41,-351 3913.41,-493 3913.41,-493 3913.41,-499 3907.41,-505 3901.41,-505 3901.41,-505 2127.41,-505 2127.41,-505 2121.41,-505 2115.41,-499 2115.41,-493 2115.41,-493 2115.41,-351 2115.41,-351 2115.41,-345 2121.41,-339 2127.41,-339"/>
<text text-anchor="middle" x="3014.41" y="-488.65" font-family="Arial Black" font-size="13.00">models</text>
</g>
<g id="clust4" class="cluster">
<title>cluster~/test/widgets</title>
<path fill="none" stroke="lightgray" stroke-width="2.6" d="M3933.41,-422C3933.41,-422 4249.41,-422 4249.41,-422 4255.41,-422 4261.41,-428 4261.41,-434 4261.41,-434 4261.41,-524 4261.41,-524 4261.41,-530 4255.41,-536 4249.41,-536 4249.41,-536 3933.41,-536 3933.41,-536 3927.41,-536 3921.41,-530 3921.41,-524 3921.41,-524 3921.41,-434 3921.41,-434 3921.41,-428 3927.41,-422 3933.41,-422"/>
<text text-anchor="middle" x="4091.41" y="-519.65" font-family="Arial Black" font-size="13.00">widgets</text>
</g>
<g id="clust5" class="cluster">
<title>cluster~/test/widgets/cards</title>
<path fill="none" stroke="lightgray" stroke-width="2.6" d="M3941.41,-430C3941.41,-430 4241.41,-430 4241.41,-430 4247.41,-430 4253.41,-436 4253.41,-442 4253.41,-442 4253.41,-493 4253.41,-493 4253.41,-499 4247.41,-505 4241.41,-505 4241.41,-505 3941.41,-505 3941.41,-505 3935.41,-505 3929.41,-499 3929.41,-493 3929.41,-493 3929.41,-442 3929.41,-442 3929.41,-436 3935.41,-430 3941.41,-430"/>
<text text-anchor="middle" x="4091.41" y="-488.65" font-family="Arial Black" font-size="13.00">cards</text>
</g>
<g id="clust6" class="cluster">
<title>cluster~/lib</title>
<path fill="none" stroke="lightgray" stroke-width="2.6" d="M47.41,-16C47.41,-16 2025.41,-16 2025.41,-16 2031.41,-16 2037.41,-22 2037.41,-28 2037.41,-28 2037.41,-705 2037.41,-705 2037.41,-711 2031.41,-717 2025.41,-717 2025.41,-717 47.41,-717 47.41,-717 41.41,-717 35.41,-711 35.41,-705 35.41,-705 35.41,-28 35.41,-28 35.41,-22 41.41,-16 47.41,-16"/>
<text text-anchor="middle" x="1036.41" y="-700.65" font-family="Arial Black" font-size="13.00">lib</text>
</g>
<g id="clust7" class="cluster">
<title>cluster~/lib/models</title>
<path fill="none" stroke="lightgray" stroke-width="2.6" d="M369.41,-32C369.41,-32 1053.41,-32 1053.41,-32 1059.41,-32 1065.41,-38 1065.41,-44 1065.41,-44 1065.41,-402 1065.41,-402 1065.41,-408 1059.41,-414 1053.41,-414 1053.41,-414 369.41,-414 369.41,-414 363.41,-414 357.41,-408 357.41,-402 357.41,-402 357.41,-44 357.41,-44 357.41,-38 363.41,-32 369.41,-32"/>
<text text-anchor="middle" x="711.41" y="-397.65" font-family="Arial Black" font-size="13.00">models</text>
</g>
<g id="clust8" class="cluster">
<title>cluster~/lib/screens</title>
<path fill="none" stroke="lightgray" stroke-width="2.6" d="M127.41,-339C127.41,-339 337.41,-339 337.41,-339 343.41,-339 349.41,-345 349.41,-351 349.41,-351 349.41,-630 349.41,-630 349.41,-636 343.41,-642 337.41,-642 337.41,-642 127.41,-642 127.41,-642 121.41,-642 115.41,-636 115.41,-630 115.41,-630 115.41,-351 115.41,-351 115.41,-345 121.41,-339 127.41,-339"/>
<text text-anchor="middle" x="232.41" y="-625.65" font-family="Arial Black" font-size="13.00">screens</text>
</g>
<g id="clust9" class="cluster">
<title>cluster~/lib/widgets</title>
<path fill="none" stroke="lightgray" stroke-width="2.6" d="M1085.41,-24C1085.41,-24 2005.41,-24 2005.41,-24 2011.41,-24 2017.41,-30 2017.41,-36 2017.41,-36 2017.41,-524 2017.41,-524 2017.41,-530 2011.41,-536 2005.41,-536 2005.41,-536 1085.41,-536 1085.41,-536 1079.41,-536 1073.41,-530 1073.41,-524 1073.41,-524 1073.41,-36 1073.41,-36 1073.41,-30 1079.41,-24 1085.41,-24"/>
<text text-anchor="middle" x="1545.41" y="-519.65" font-family="Arial Black" font-size="13.00">widgets</text>
</g>
<g id="clust10" class="cluster">
<title>cluster~/lib/widgets/cards</title>
<path fill="none" stroke="lightgray" stroke-width="2.6" d="M1673.41,-32C1673.41,-32 1861.41,-32 1861.41,-32 1867.41,-32 1873.41,-38 1873.41,-44 1873.41,-44 1873.41,-311 1873.41,-311 1873.41,-317 1867.41,-323 1861.41,-323 1861.41,-323 1673.41,-323 1673.41,-323 1667.41,-323 1661.41,-317 1661.41,-311 1661.41,-311 1661.41,-44 1661.41,-44 1661.41,-38 1667.41,-32 1673.41,-32"/>
<text text-anchor="middle" x="1767.41" y="-306.65" font-family="Arial Black" font-size="13.00">cards</text>
</g>
<g id="clust11" class="cluster">
<title>cluster~/lib/widgets/player</title>
<path fill="none" stroke="lightgray" stroke-width="2.6" d="M1157.41,-248C1157.41,-248 1505.41,-248 1505.41,-248 1511.41,-248 1517.41,-254 1517.41,-260 1517.41,-260 1517.41,-493 1517.41,-493 1517.41,-499 1511.41,-505 1505.41,-505 1505.41,-505 1157.41,-505 1157.41,-505 1151.41,-505 1145.41,-499 1145.41,-493 1145.41,-493 1145.41,-260 1145.41,-260 1145.41,-254 1151.41,-248 1157.41,-248"/>
<text text-anchor="middle" x="1331.41" y="-488.65" font-family="Arial Black" font-size="13.00">player</text>
</g>
<!-- /test/models/game_model_test.dart -->
<g id="node1" class="node">
<title>/test/models/game_model_test.dart</title>
<path fill="Lavender" stroke="black" stroke-width="1.3" d="M2921.03,-474C2921.03,-474 2809.78,-474 2809.78,-474 2803.78,-474 2797.78,-468 2797.78,-462 2797.78,-462 2797.78,-450 2797.78,-450 2797.78,-444 2803.78,-438 2809.78,-438 2809.78,-438 2921.03,-438 2921.03,-438 2927.03,-438 2933.03,-444 2933.03,-450 2933.03,-450 2933.03,-462 2933.03,-462 2933.03,-468 2927.03,-474 2921.03,-474"/>
<text text-anchor="middle" x="2865.41" y="-450.75" font-family="Arial" font-size="15.00">game_model_test</text>
</g>
<!-- /test/models/golf_game_model_test.dart -->
<g id="node10" class="node">
<title>/test/models/golf_game_model_test.dart</title>
<path fill="Lavender" stroke="black" stroke-width="1.3" d="M2281.16,-383C2281.16,-383 2137.66,-383 2137.66,-383 2131.66,-383 2125.66,-377 2125.66,-371 2125.66,-371 2125.66,-359 2125.66,-359 2125.66,-353 2131.66,-347 2137.66,-347 2137.66,-347 2281.16,-347 2281.16,-347 2287.16,-347 2293.16,-353 2293.16,-359 2293.16,-359 2293.16,-371 2293.16,-371 2293.16,-377 2287.16,-383 2281.16,-383"/>
<text text-anchor="middle" x="2209.41" y="-359.75" font-family="Arial" font-size="15.00">golf_game_model_test</text>
</g>
<!-- /test/models/game_model_test.dart&#45;&gt;/test/models/golf_game_model_test.dart -->
<g id="edge3" class="edge">
<title>/test/models/game_model_test.dart&#45;&gt;/test/models/golf_game_model_test.dart</title>
<path fill="none" stroke="#aabbaa" stroke-width="1.3" stroke-opacity="0.533333" d="M2832.61,-437.61C2819.28,-431.44 2803.48,-425.22 2788.41,-422 2735.59,-410.71 2354.78,-427.18 2302.41,-414 2282.27,-408.93 2261.58,-398.83 2244.84,-389.19"/>
<polygon fill="#aabbaa" fill-opacity="0.533333" stroke="#aabbaa" stroke-width="1.3" stroke-opacity="0.533333" points="2247.04,-386.42 2236.66,-384.3 2243.45,-392.43 2247.04,-386.42"/>
</g>
<!-- /lib/models/game_model.dart -->
<g id="node16" class="node">
<title>/lib/models/game_model.dart</title>
<path fill="Lavender" stroke="black" stroke-width="1.3" d="M986.53,-292C986.53,-292 908.28,-292 908.28,-292 902.28,-292 896.28,-286 896.28,-280 896.28,-280 896.28,-268 896.28,-268 896.28,-262 902.28,-256 908.28,-256 908.28,-256 986.53,-256 986.53,-256 992.53,-256 998.53,-262 998.53,-268 998.53,-268 998.53,-280 998.53,-280 998.53,-286 992.53,-292 986.53,-292"/>
<text text-anchor="middle" x="947.41" y="-268.75" font-family="Arial" font-size="15.00">game_model</text>
</g>
<!-- /test/models/game_model_test.dart&#45;&gt;/lib/models/game_model.dart -->
<g id="edge2" class="edge">
<title>/test/models/game_model_test.dart&#45;&gt;/lib/models/game_model.dart</title>
<path fill="none" stroke="#aabbaa" stroke-width="1.3" stroke-opacity="0.533333" d="M2832.61,-437.57C2819.28,-431.39 2803.49,-425.19 2788.41,-422 2769.73,-418.05 2116.96,-425.05 2101.41,-414 2069.43,-391.28 2103.42,-353.66 2071.41,-331 2060.05,-322.96 1083.07,-325.65 1069.41,-323 1042.91,-317.86 1014.78,-307.19 992.22,-297.2"/>
<polygon fill="#aabbaa" fill-opacity="0.533333" stroke="#aabbaa" stroke-width="1.3" stroke-opacity="0.533333" points="993.96,-294.15 983.41,-293.2 991.06,-300.52 993.96,-294.15"/>
</g>
<!-- /lib/models/game_history.dart -->
<g id="node18" class="node">
<title>/lib/models/game_history.dart</title>
<path fill="Lavender" stroke="black" stroke-width="1.3" d="M1045.41,-148C1045.41,-148 963.41,-148 963.41,-148 957.41,-148 951.41,-142 951.41,-136 951.41,-136 951.41,-124 951.41,-124 951.41,-118 957.41,-112 963.41,-112 963.41,-112 1045.41,-112 1045.41,-112 1051.41,-112 1057.41,-118 1057.41,-124 1057.41,-124 1057.41,-136 1057.41,-136 1057.41,-142 1051.41,-148 1045.41,-148"/>
<text text-anchor="middle" x="1004.41" y="-124.75" font-family="Arial" font-size="15.00">game_history</text>
</g>
<!-- /test/models/game_model_test.dart&#45;&gt;/lib/models/game_history.dart -->
<g id="edge1" class="edge">
<title>/test/models/game_model_test.dart&#45;&gt;/lib/models/game_history.dart</title>
<path fill="none" stroke="#aabbaa" stroke-width="1.3" stroke-opacity="0.533333" d="M2842.66,-437.54C2787.53,-396.28 2640.93,-292.88 2500.41,-248 2227.7,-160.91 1320.65,-137.12 1069.41,-132.13"/>
<polygon fill="#aabbaa" fill-opacity="0.533333" stroke="#aabbaa" stroke-width="1.3" stroke-opacity="0.533333" points="1069.63,-128.64 1059.57,-131.94 1069.5,-135.64 1069.63,-128.64"/>
</g>
<!-- /test/models/deck_model_test.dart -->
<g id="node2" class="node">
<title>/test/models/deck_model_test.dart</title>
<path fill="Lavender" stroke="black" stroke-width="1.3" d="M2241.03,-474C2241.03,-474 2135.78,-474 2135.78,-474 2129.78,-474 2123.78,-468 2123.78,-462 2123.78,-462 2123.78,-450 2123.78,-450 2123.78,-444 2129.78,-438 2135.78,-438 2135.78,-438 2241.03,-438 2241.03,-438 2247.03,-438 2253.03,-444 2253.03,-450 2253.03,-450 2253.03,-462 2253.03,-462 2253.03,-468 2247.03,-474 2241.03,-474"/>
<text text-anchor="middle" x="2188.41" y="-450.75" font-family="Arial" font-size="15.00">deck_model_test</text>
</g>
<!-- /lib/models/game_style.dart -->
<g id="node22" class="node">
<title>/lib/models/game_style.dart</title>
<path fill="Lavender" stroke="black" stroke-width="1.3" d="M1013.66,-383C1013.66,-383 945.16,-383 945.16,-383 939.16,-383 933.16,-377 933.16,-371 933.16,-371 933.16,-359 933.16,-359 933.16,-353 939.16,-347 945.16,-347 945.16,-347 1013.66,-347 1013.66,-347 1019.66,-347 1025.66,-353 1025.66,-359 1025.66,-359 1025.66,-371 1025.66,-371 1025.66,-377 1019.66,-383 1013.66,-383"/>
<text text-anchor="middle" x="979.41" y="-359.75" font-family="Arial" font-size="15.00">game_style</text>
</g>
<!-- /test/models/deck_model_test.dart&#45;&gt;/lib/models/game_style.dart -->
<g id="edge5" class="edge">
<title>/test/models/deck_model_test.dart&#45;&gt;/lib/models/game_style.dart</title>
<path fill="none" stroke="#aabbaa" stroke-width="1.3" stroke-opacity="0.533333" d="M2123.4,-439.23C2092.67,-432.54 2055.36,-425.48 2021.41,-422 1924.13,-412.03 1238.11,-428.47 1141.41,-414 1106.04,-408.71 1067.61,-397.57 1037.06,-387.35"/>
<polygon fill="#aabbaa" fill-opacity="0.533333" stroke="#aabbaa" stroke-width="1.3" stroke-opacity="0.533333" points="1038.22,-384.05 1027.63,-384.13 1035.96,-390.67 1038.22,-384.05"/>
</g>
<!-- /lib/models/deck_model.dart -->
<g id="node25" class="node">
<title>/lib/models/deck_model.dart</title>
<path fill="Lavender" stroke="black" stroke-width="1.3" d="M859.53,-220C859.53,-220 787.28,-220 787.28,-220 781.28,-220 775.28,-214 775.28,-208 775.28,-208 775.28,-196 775.28,-196 775.28,-190 781.28,-184 787.28,-184 787.28,-184 859.53,-184 859.53,-184 865.53,-184 871.53,-190 871.53,-196 871.53,-196 871.53,-208 871.53,-208 871.53,-214 865.53,-220 859.53,-220"/>
<text text-anchor="middle" x="823.41" y="-196.75" font-family="Arial" font-size="15.00">deck_model</text>
</g>
<!-- /test/models/deck_model_test.dart&#45;&gt;/lib/models/deck_model.dart -->
<g id="edge4" class="edge">
<title>/test/models/deck_model_test.dart&#45;&gt;/lib/models/deck_model.dart</title>
<path fill="none" stroke="#aabbaa" stroke-width="1.3" stroke-opacity="0.533333" d="M2220.26,-437.61C2232.99,-431.51 2248.02,-425.36 2262.41,-422 2273.4,-419.43 2457.58,-422.14 2465.41,-414 2490.97,-387.41 2489.6,-358.85 2465.41,-331 2292.32,-131.76 2140.4,-270.18 1877.41,-248 1660.21,-229.68 1117.67,-254.24 883.62,-220.19"/>
<polygon fill="#aabbaa" fill-opacity="0.533333" stroke="#aabbaa" stroke-width="1.3" stroke-opacity="0.533333" points="884.39,-216.77 873.97,-218.71 883.33,-223.69 884.39,-216.77"/>
</g>
<!-- /test/models/golf_player_model_test.dart -->
<g id="node3" class="node">
<title>/test/models/golf_player_model_test.dart</title>
<path fill="Lavender" stroke="black" stroke-width="1.3" d="M3476.66,-474C3476.66,-474 3330.16,-474 3330.16,-474 3324.16,-474 3318.16,-468 3318.16,-462 3318.16,-462 3318.16,-450 3318.16,-450 3318.16,-444 3324.16,-438 3330.16,-438 3330.16,-438 3476.66,-438 3476.66,-438 3482.66,-438 3488.66,-444 3488.66,-450 3488.66,-450 3488.66,-462 3488.66,-462 3488.66,-468 3482.66,-474 3476.66,-474"/>
<text text-anchor="middle" x="3403.41" y="-450.75" font-family="Arial" font-size="15.00">golf_player_model_test</text>
</g>
<!-- /lib/models/player_model.dart -->
<g id="node21" class="node">
<title>/lib/models/player_model.dart</title>
<path fill="Lavender" stroke="black" stroke-width="1.3" d="M983.03,-220C983.03,-220 901.78,-220 901.78,-220 895.78,-220 889.78,-214 889.78,-208 889.78,-208 889.78,-196 889.78,-196 889.78,-190 895.78,-184 901.78,-184 901.78,-184 983.03,-184 983.03,-184 989.03,-184 995.03,-190 995.03,-196 995.03,-196 995.03,-208 995.03,-208 995.03,-214 989.03,-220 983.03,-220"/>
<text text-anchor="middle" x="942.41" y="-196.75" font-family="Arial" font-size="15.00">player_model</text>
</g>
<!-- /test/models/golf_player_model_test.dart&#45;&gt;/lib/models/player_model.dart -->
<g id="edge6" class="edge">
<title>/test/models/golf_player_model_test.dart&#45;&gt;/lib/models/player_model.dart</title>
<path fill="none" stroke="#aabbaa" stroke-width="1.3" stroke-opacity="0.533333" d="M3362.02,-437.56C3345.89,-431.53 3327.06,-425.44 3309.41,-422 3236.04,-407.69 3215.05,-426.84 3141.41,-414 2893.64,-370.79 2848.61,-288.67 2600.41,-248 2560.4,-241.44 1307.28,-211.59 1006.73,-204.51"/>
<polygon fill="#aabbaa" fill-opacity="0.533333" stroke="#aabbaa" stroke-width="1.3" stroke-opacity="0.533333" points="1007.25,-201.02 997.17,-204.28 1007.08,-208.02 1007.25,-201.02"/>
</g>
<!-- /test/models/backend_json_data.dart -->
<g id="node4" class="node">
<title>/test/models/backend_json_data.dart</title>
<path fill="Lavender" stroke="black" stroke-width="1.3" d="M2443.91,-383C2443.91,-383 2322.91,-383 2322.91,-383 2316.91,-383 2310.91,-377 2310.91,-371 2310.91,-371 2310.91,-359 2310.91,-359 2310.91,-353 2316.91,-347 2322.91,-347 2322.91,-347 2443.91,-347 2443.91,-347 2449.91,-347 2455.91,-353 2455.91,-359 2455.91,-359 2455.91,-371 2455.91,-371 2455.91,-377 2449.91,-383 2443.91,-383"/>
<text text-anchor="middle" x="2383.41" y="-359.75" font-family="Arial" font-size="15.00">backend_json_data</text>
</g>
<!-- /test/models/golf_french_suit_card_model_test.dart -->
<g id="node5" class="node">
<title>/test/models/golf_french_suit_card_model_test.dart</title>
<path fill="Lavender" stroke="black" stroke-width="1.3" d="M3892.91,-474C3892.91,-474 3675.91,-474 3675.91,-474 3669.91,-474 3663.91,-468 3663.91,-462 3663.91,-462 3663.91,-450 3663.91,-450 3663.91,-444 3669.91,-438 3675.91,-438 3675.91,-438 3892.91,-438 3892.91,-438 3898.91,-438 3904.91,-444 3904.91,-450 3904.91,-450 3904.91,-462 3904.91,-462 3904.91,-468 3898.91,-474 3892.91,-474"/>
<text text-anchor="middle" x="3784.41" y="-450.75" font-family="Arial" font-size="15.00">golf_french_suit_card_model_test</text>
</g>
<!-- /lib/models/card_model.dart -->
<g id="node23" class="node">
<title>/lib/models/card_model.dart</title>
<path fill="Lavender" stroke="black" stroke-width="1.3" d="M1045.41,-76C1045.41,-76 975.41,-76 975.41,-76 969.41,-76 963.41,-70 963.41,-64 963.41,-64 963.41,-52 963.41,-52 963.41,-46 969.41,-40 975.41,-40 975.41,-40 1045.41,-40 1045.41,-40 1051.41,-40 1057.41,-46 1057.41,-52 1057.41,-52 1057.41,-64 1057.41,-64 1057.41,-70 1051.41,-76 1045.41,-76"/>
<text text-anchor="middle" x="1010.41" y="-52.75" font-family="Arial" font-size="15.00">card_model</text>
</g>
<!-- /test/models/golf_french_suit_card_model_test.dart&#45;&gt;/lib/models/card_model.dart -->
<g id="edge7" class="edge">
<title>/test/models/golf_french_suit_card_model_test.dart&#45;&gt;/lib/models/card_model.dart</title>
<path fill="none" stroke="#aabbaa" stroke-width="1.3" stroke-opacity="0.533333" d="M3806.05,-437.57C3840.12,-408.03 3902.41,-344.5 3902.41,-275 3902.41,-275 3902.41,-275 3902.41,-201 3902.41,-164.21 1482.09,-75.89 1069.78,-61.11"/>
<polygon fill="#aabbaa" fill-opacity="0.533333" stroke="#aabbaa" stroke-width="1.3" stroke-opacity="0.533333" points="1069.98,-57.62 1059.86,-60.76 1069.73,-64.61 1069.98,-57.62"/>
</g>
<!-- /test/models/french_suit_card_model_test.dart -->
<g id="node6" class="node">
<title>/test/models/french_suit_card_model_test.dart</title>
<path fill="Lavender" stroke="black" stroke-width="1.3" d="M2767.78,-474C2767.78,-474 2583.03,-474 2583.03,-474 2577.03,-474 2571.03,-468 2571.03,-462 2571.03,-462 2571.03,-450 2571.03,-450 2571.03,-444 2577.03,-438 2583.03,-438 2583.03,-438 2767.78,-438 2767.78,-438 2773.78,-438 2779.78,-444 2779.78,-450 2779.78,-450 2779.78,-462 2779.78,-462 2779.78,-468 2773.78,-474 2767.78,-474"/>
<text text-anchor="middle" x="2675.41" y="-450.75" font-family="Arial" font-size="15.00">french_suit_card_model_test</text>
</g>
<!-- /lib/models/card_model_french.dart -->
<g id="node17" class="node">
<title>/lib/models/card_model_french.dart</title>
<path fill="Lavender" stroke="black" stroke-width="1.3" d="M497.53,-148C497.53,-148 377.28,-148 377.28,-148 371.28,-148 365.28,-142 365.28,-136 365.28,-136 365.28,-124 365.28,-124 365.28,-118 371.28,-112 377.28,-112 377.28,-112 497.53,-112 497.53,-112 503.53,-112 509.53,-118 509.53,-124 509.53,-124 509.53,-136 509.53,-136 509.53,-142 503.53,-148 497.53,-148"/>
<text text-anchor="middle" x="437.41" y="-124.75" font-family="Arial" font-size="15.00">card_model_french</text>
</g>
<!-- /test/models/french_suit_card_model_test.dart&#45;&gt;/lib/models/card_model_french.dart -->
<g id="edge9" class="edge">
<title>/test/models/french_suit_card_model_test.dart&#45;&gt;/lib/models/card_model_french.dart</title>
<path fill="none" stroke="#aabbaa" stroke-width="1.3" stroke-opacity="0.533333" d="M2626.27,-437.54C2606.66,-431.4 2583.73,-425.23 2562.41,-422 2454.51,-405.67 2180.16,-423.05 2071.41,-414 1825.05,-393.5 1767.8,-351.05 1521.41,-331 1451.19,-325.29 956.52,-336.64 887.41,-323 726.44,-291.22 552.18,-198.09 476.34,-154.28"/>
<polygon fill="#aabbaa" fill-opacity="0.533333" stroke="#aabbaa" stroke-width="1.3" stroke-opacity="0.533333" points="478.4,-151.43 468,-149.43 474.88,-157.48 478.4,-151.43"/>
</g>
<!-- /test/models/french_suit_card_model_test.dart&#45;&gt;/lib/models/card_model.dart -->
<g id="edge8" class="edge">
<title>/test/models/french_suit_card_model_test.dart&#45;&gt;/lib/models/card_model.dart</title>
<path fill="none" stroke="#aabbaa" stroke-width="1.3" stroke-opacity="0.533333" d="M2665.65,-437.54C2642.45,-397.64 2579.9,-299.27 2500.41,-248 2314.43,-128.05 2239.72,-148.24 2021.41,-112 1836.37,-81.28 1257.1,-64.94 1069.61,-60.36"/>
<polygon fill="#aabbaa" fill-opacity="0.533333" stroke="#aabbaa" stroke-width="1.3" stroke-opacity="0.533333" points="1069.88,-56.87 1059.8,-60.12 1069.71,-63.86 1069.88,-56.87"/>
</g>
<!-- /test/models/game_style_test.dart -->
<g id="node7" class="node">
<title>/test/models/game_style_test.dart</title>
<path fill="Lavender" stroke="black" stroke-width="1.3" d="M2541.16,-474C2541.16,-474 2439.66,-474 2439.66,-474 2433.66,-474 2427.66,-468 2427.66,-462 2427.66,-462 2427.66,-450 2427.66,-450 2427.66,-444 2433.66,-438 2439.66,-438 2439.66,-438 2541.16,-438 2541.16,-438 2547.16,-438 2553.16,-444 2553.16,-450 2553.16,-450 2553.16,-462 2553.16,-462 2553.16,-468 2547.16,-474 2541.16,-474"/>
<text text-anchor="middle" x="2490.41" y="-450.75" font-family="Arial" font-size="15.00">game_style_test</text>
</g>
<!-- /test/models/game_style_test.dart&#45;&gt;/lib/models/game_style.dart -->
<g id="edge10" class="edge">
<title>/test/models/game_style_test.dart&#45;&gt;/lib/models/game_style.dart</title>
<path fill="none" stroke="#aabbaa" stroke-width="1.3" stroke-opacity="0.533333" d="M2459.87,-437.53C2447.43,-431.35 2432.64,-425.15 2418.41,-422 2349.14,-406.66 1211.59,-424.4 1141.41,-414 1105.9,-408.74 1067.32,-397.54 1036.72,-387.28"/>
<polygon fill="#aabbaa" fill-opacity="0.533333" stroke="#aabbaa" stroke-width="1.3" stroke-opacity="0.533333" points="1037.87,-383.97 1027.27,-384.05 1035.6,-390.6 1037.87,-383.97"/>
</g>
<!-- /lib/widgets/cards/card_widget.dart -->
<g id="node34" class="node">
<title>/lib/widgets/cards/card_widget.dart</title>
<path fill="Lavender" stroke="black" stroke-width="1.3" d="M1853.53,-220C1853.53,-220 1781.28,-220 1781.28,-220 1775.28,-220 1769.28,-214 1769.28,-208 1769.28,-208 1769.28,-196 1769.28,-196 1769.28,-190 1775.28,-184 1781.28,-184 1781.28,-184 1853.53,-184 1853.53,-184 1859.53,-184 1865.53,-190 1865.53,-196 1865.53,-196 1865.53,-208 1865.53,-208 1865.53,-214 1859.53,-220 1853.53,-220"/>
<text text-anchor="middle" x="1817.41" y="-196.75" font-family="Arial" font-size="15.00">card_widget</text>
</g>
<!-- /test/models/game_style_test.dart&#45;&gt;/lib/widgets/cards/card_widget.dart -->
<g id="edge11" class="edge">
<title>/test/models/game_style_test.dart&#45;&gt;/lib/widgets/cards/card_widget.dart</title>
<path fill="none" stroke="#aabbaa" stroke-width="1.3" stroke-opacity="0.533333" d="M2496.23,-437.59C2508.33,-397.8 2531.04,-299.63 2480.41,-248 2438.71,-205.48 2032.9,-202.28 1877.52,-202.63"/>
<polygon fill="#aabbaa" fill-opacity="0.533333" stroke="#aabbaa" stroke-width="1.3" stroke-opacity="0.533333" points="1877.85,-199.13 1867.86,-202.66 1877.87,-206.13 1877.85,-199.13"/>
</g>
<!-- /test/models/player_status_test.dart -->
<g id="node8" class="node">
<title>/test/models/player_status_test.dart</title>
<path fill="Lavender" stroke="black" stroke-width="1.3" d="M2397.53,-474C2397.53,-474 2283.28,-474 2283.28,-474 2277.28,-474 2271.28,-468 2271.28,-462 2271.28,-462 2271.28,-450 2271.28,-450 2271.28,-444 2277.28,-438 2283.28,-438 2283.28,-438 2397.53,-438 2397.53,-438 2403.53,-438 2409.53,-444 2409.53,-450 2409.53,-450 2409.53,-462 2409.53,-462 2409.53,-468 2403.53,-474 2397.53,-474"/>
<text text-anchor="middle" x="2340.41" y="-450.75" font-family="Arial" font-size="15.00">player_status_test</text>
</g>
<!-- /lib/models/player_status.dart -->
<g id="node15" class="node">
<title>/lib/models/player_status.dart</title>
<path fill="Lavender" stroke="black" stroke-width="1.3" d="M641.03,-148C641.03,-148 559.78,-148 559.78,-148 553.78,-148 547.78,-142 547.78,-136 547.78,-136 547.78,-124 547.78,-124 547.78,-118 553.78,-112 559.78,-112 559.78,-112 641.03,-112 641.03,-112 647.03,-112 653.03,-118 653.03,-124 653.03,-124 653.03,-136 653.03,-136 653.03,-142 647.03,-148 641.03,-148"/>
<text text-anchor="middle" x="600.41" y="-124.75" font-family="Arial" font-size="15.00">player_status</text>
</g>
<!-- /test/models/player_status_test.dart&#45;&gt;/lib/models/player_status.dart -->
<g id="edge12" class="edge">
<title>/test/models/player_status_test.dart&#45;&gt;/lib/models/player_status.dart</title>
<path fill="none" stroke="#aabbaa" stroke-width="1.3" stroke-opacity="0.533333" d="M2306.73,-437.63C2293.3,-431.54 2277.47,-425.38 2262.41,-422 2220.09,-412.51 2110.58,-418.15 2067.41,-414 1823.08,-390.49 1766.04,-351.04 1521.41,-331 1451.19,-325.25 956.52,-336.64 887.41,-323 765.47,-298.93 711.59,-311.44 627.41,-220 612.34,-203.63 605.67,-179.09 602.72,-159.92"/>
<polygon fill="#aabbaa" fill-opacity="0.533333" stroke="#aabbaa" stroke-width="1.3" stroke-opacity="0.533333" points="606.22,-159.69 601.51,-150.2 599.27,-160.55 606.22,-159.69"/>
</g>
<!-- /test/models/skyjo_game_model_test.dart -->
<g id="node9" class="node">
<title>/test/models/skyjo_game_model_test.dart</title>
<path fill="Lavender" stroke="black" stroke-width="1.3" d="M3116.03,-474C3116.03,-474 2962.78,-474 2962.78,-474 2956.78,-474 2950.78,-468 2950.78,-462 2950.78,-462 2950.78,-450 2950.78,-450 2950.78,-444 2956.78,-438 2962.78,-438 2962.78,-438 3116.03,-438 3116.03,-438 3122.03,-438 3128.03,-444 3128.03,-450 3128.03,-450 3128.03,-462 3128.03,-462 3128.03,-468 3122.03,-474 3116.03,-474"/>
<text text-anchor="middle" x="3039.41" y="-450.75" font-family="Arial" font-size="15.00">skyjo_game_model_test</text>
</g>
<!-- /test/models/skyjo_game_model_test.dart&#45;&gt;/test/models/golf_game_model_test.dart -->
<g id="edge14" class="edge">
<title>/test/models/skyjo_game_model_test.dart&#45;&gt;/test/models/golf_game_model_test.dart</title>
<path fill="none" stroke="#aabbaa" stroke-width="1.3" stroke-opacity="0.533333" d="M2997.67,-437.58C2980.81,-431.4 2960.99,-425.19 2942.41,-422 2872.32,-409.95 2371.41,-431.21 2302.41,-414 2282.26,-408.97 2261.57,-398.87 2244.83,-389.22"/>
<polygon fill="#aabbaa" fill-opacity="0.533333" stroke="#aabbaa" stroke-width="1.3" stroke-opacity="0.533333" points="2247.03,-386.46 2236.65,-384.33 2243.44,-392.47 2247.03,-386.46"/>
</g>
<!-- /test/models/skyjo_game_model_test.dart&#45;&gt;/lib/models/game_model.dart -->
<g id="edge13" class="edge">
<title>/test/models/skyjo_game_model_test.dart&#45;&gt;/lib/models/game_model.dart</title>
<path fill="none" stroke="#aabbaa" stroke-width="1.3" stroke-opacity="0.533333" d="M2997.16,-437.55C2980.41,-431.45 2960.79,-425.3 2942.41,-422 2878.52,-410.53 2713.69,-428.45 2650.41,-414 2562.55,-393.93 2553.47,-350.11 2465.41,-331 2389.61,-314.55 1145.56,-337.67 1069.41,-323 1042.9,-317.89 1014.77,-307.22 992.21,-297.23"/>
<polygon fill="#aabbaa" fill-opacity="0.533333" stroke="#aabbaa" stroke-width="1.3" stroke-opacity="0.533333" points="993.96,-294.18 983.4,-293.22 991.06,-300.55 993.96,-294.18"/>
</g>
<!-- /test/models/golf_game_model_test.dart&#45;&gt;/lib/models/game_model.dart -->
<g id="edge15" class="edge">
<title>/test/models/golf_game_model_test.dart&#45;&gt;/lib/models/game_model.dart</title>
<path fill="none" stroke="#aabbaa" stroke-width="1.3" stroke-opacity="0.533333" d="M2158.34,-346.53C2137.8,-340.35 2113.73,-334.15 2091.41,-331 2035.18,-323.06 1125.15,-333.8 1069.41,-323 1042.91,-317.87 1014.78,-307.19 992.21,-297.2"/>
<polygon fill="#aabbaa" fill-opacity="0.533333" stroke="#aabbaa" stroke-width="1.3" stroke-opacity="0.533333" points="993.96,-294.15 983.41,-293.2 991.06,-300.53 993.96,-294.15"/>
</g>
<!-- /test/models/game_history_test.dart -->
<g id="node11" class="node">
<title>/test/models/game_history_test.dart</title>
<path fill="Lavender" stroke="black" stroke-width="1.3" d="M3633.91,-474C3633.91,-474 3518.91,-474 3518.91,-474 3512.91,-474 3506.91,-468 3506.91,-462 3506.91,-462 3506.91,-450 3506.91,-450 3506.91,-444 3512.91,-438 3518.91,-438 3518.91,-438 3633.91,-438 3633.91,-438 3639.91,-438 3645.91,-444 3645.91,-450 3645.91,-450 3645.91,-462 3645.91,-462 3645.91,-468 3639.91,-474 3633.91,-474"/>
<text text-anchor="middle" x="3576.41" y="-450.75" font-family="Arial" font-size="15.00">game_history_test</text>
</g>
<!-- /test/models/game_history_test.dart&#45;&gt;/lib/models/game_history.dart -->
<g id="edge16" class="edge">
<title>/test/models/game_history_test.dart&#45;&gt;/lib/models/game_history.dart</title>
<path fill="none" stroke="#aabbaa" stroke-width="1.3" stroke-opacity="0.533333" d="M3539.22,-437.6C3526.2,-432.01 3511.36,-426.19 3497.41,-422 2956.23,-259.33 2809.75,-249.09 2248.41,-184 2016.6,-157.12 1290.97,-137.88 1069.34,-132.52"/>
<polygon fill="#aabbaa" fill-opacity="0.533333" stroke="#aabbaa" stroke-width="1.3" stroke-opacity="0.533333" points="1069.68,-129.02 1059.6,-132.28 1069.51,-136.02 1069.68,-129.02"/>
</g>
<!-- /test/models/backend_model_test.dart -->
<g id="node12" class="node">
<title>/test/models/backend_model_test.dart</title>
<path fill="Lavender" stroke="black" stroke-width="1.3" d="M3288.41,-474C3288.41,-474 3158.41,-474 3158.41,-474 3152.41,-474 3146.41,-468 3146.41,-462 3146.41,-462 3146.41,-450 3146.41,-450 3146.41,-444 3152.41,-438 3158.41,-438 3158.41,-438 3288.41,-438 3288.41,-438 3294.41,-438 3300.41,-444 3300.41,-450 3300.41,-450 3300.41,-462 3300.41,-462 3300.41,-468 3294.41,-474 3288.41,-474"/>
<text text-anchor="middle" x="3223.41" y="-450.75" font-family="Arial" font-size="15.00">backend_model_test</text>
</g>
<!-- /test/models/backend_model_test.dart&#45;&gt;/test/models/backend_json_data.dart -->
<g id="edge19" class="edge">
<title>/test/models/backend_model_test.dart&#45;&gt;/test/models/backend_json_data.dart</title>
<path fill="none" stroke="#aabbaa" stroke-width="1.3" stroke-opacity="0.533333" d="M3186.57,-437.61C3171.65,-431.44 3154.05,-425.22 3137.41,-422 3084.28,-411.7 2704.27,-419.25 2650.41,-414 2588.85,-408 2520.19,-395.53 2467.91,-384.8"/>
<polygon fill="#aabbaa" fill-opacity="0.533333" stroke="#aabbaa" stroke-width="1.3" stroke-opacity="0.533333" points="2468.77,-381.4 2458.27,-382.8 2467.35,-388.26 2468.77,-381.4"/>
</g>
<!-- /lib/models/firebase_options.dart -->
<g id="node19" class="node">
<title>/lib/models/firebase_options.dart</title>
<path fill="Lavender" stroke="black" stroke-width="1.3" d="M805.16,-148C805.16,-148 703.66,-148 703.66,-148 697.66,-148 691.66,-142 691.66,-136 691.66,-136 691.66,-124 691.66,-124 691.66,-118 697.66,-112 703.66,-112 703.66,-112 805.16,-112 805.16,-112 811.16,-112 817.16,-118 817.16,-124 817.16,-124 817.16,-136 817.16,-136 817.16,-142 811.16,-148 805.16,-148"/>
<text text-anchor="middle" x="754.41" y="-124.75" font-family="Arial" font-size="15.00">firebase_options</text>
</g>
<!-- /test/models/backend_model_test.dart&#45;&gt;/lib/models/firebase_options.dart -->
<g id="edge18" class="edge">
<title>/test/models/backend_model_test.dart&#45;&gt;/lib/models/firebase_options.dart</title>
<path fill="none" stroke="#aabbaa" stroke-width="1.3" stroke-opacity="0.533333" d="M3182.33,-437.65C3168.25,-432.13 3152.3,-426.34 3137.41,-422 2942.76,-365.27 2889.51,-369.26 2690.41,-331 2329.81,-261.7 2242.52,-223.05 1877.41,-184 1416.53,-134.7 1291.73,-208.75 829.18,-148.19"/>
<polygon fill="#aabbaa" fill-opacity="0.533333" stroke="#aabbaa" stroke-width="1.3" stroke-opacity="0.533333" points="829.82,-144.74 819.44,-146.9 828.89,-151.68 829.82,-144.74"/>
</g>
<!-- /lib/models/backend_model.dart -->
<g id="node24" class="node">
<title>/lib/models/backend_model.dart</title>
<path fill="Lavender" stroke="black" stroke-width="1.3" d="M744.91,-220C744.91,-220 647.91,-220 647.91,-220 641.91,-220 635.91,-214 635.91,-208 635.91,-208 635.91,-196 635.91,-196 635.91,-190 641.91,-184 647.91,-184 647.91,-184 744.91,-184 744.91,-184 750.91,-184 756.91,-190 756.91,-196 756.91,-196 756.91,-208 756.91,-208 756.91,-214 750.91,-220 744.91,-220"/>
<text text-anchor="middle" x="696.41" y="-196.75" font-family="Arial" font-size="15.00">backend_model</text>
</g>
<!-- /test/models/backend_model_test.dart&#45;&gt;/lib/models/backend_model.dart -->
<g id="edge17" class="edge">
<title>/test/models/backend_model_test.dart&#45;&gt;/lib/models/backend_model.dart</title>
<path fill="none" stroke="#aabbaa" stroke-width="1.3" stroke-opacity="0.533333" d="M3186.12,-437.55C3171.29,-431.45 3153.87,-425.31 3137.41,-422 3079.86,-410.43 2931.48,-422.54 2873.41,-414 2732.29,-393.26 2703.44,-358.08 2563.41,-331 2261.88,-272.7 2183.71,-270.34 1877.41,-248 1634.82,-230.31 1029.91,-251.77 769.12,-220.11"/>
<polygon fill="#aabbaa" fill-opacity="0.533333" stroke="#aabbaa" stroke-width="1.3" stroke-opacity="0.533333" points="769.66,-216.65 759.3,-218.86 768.78,-223.59 769.66,-216.65"/>
</g>
<!-- /test/widgets/cards/card_pile_widget_test.dart -->
<g id="node13" class="node">
<title>/test/widgets/cards/card_pile_widget_test.dart</title>
<path fill="Lavender" stroke="black" stroke-width="1.3" d="M4085.41,-474C4085.41,-474 3949.41,-474 3949.41,-474 3943.41,-474 3937.41,-468 3937.41,-462 3937.41,-462 3937.41,-450 3937.41,-450 3937.41,-444 3943.41,-438 3949.41,-438 3949.41,-438 4085.41,-438 4085.41,-438 4091.41,-438 4097.41,-444 4097.41,-450 4097.41,-450 4097.41,-462 4097.41,-462 4097.41,-468 4091.41,-474 4085.41,-474"/>
<text text-anchor="middle" x="4017.41" y="-450.75" font-family="Arial" font-size="15.00">card_pile_widget_test</text>
</g>
<!-- /test/widgets/cards/card_pile_widget_test.dart&#45;&gt;/lib/models/card_model.dart -->
<g id="edge20" class="edge">
<title>/test/widgets/cards/card_pile_widget_test.dart&#45;&gt;/lib/models/card_model.dart</title>
<path fill="none" stroke="#aabbaa" stroke-width="1.3" stroke-opacity="0.533333" d="M4004.68,-437.61C3983.29,-406.6 3942.41,-338.98 3942.41,-275 3942.41,-275 3942.41,-275 3942.41,-201 3942.41,-73.28 2923.98,-118.02 2796.41,-112 2621.05,-103.72 1359.28,-68.64 1069.58,-60.63"/>
<polygon fill="#aabbaa" fill-opacity="0.533333" stroke="#aabbaa" stroke-width="1.3" stroke-opacity="0.533333" points="1069.77,-57.14 1059.68,-60.36 1069.58,-64.13 1069.77,-57.14"/>
</g>
<!-- /lib/widgets/cards/card_pile_widget.dart -->
<g id="node32" class="node">
<title>/lib/widgets/cards/card_pile_widget.dart</title>
<path fill="Lavender" stroke="black" stroke-width="1.3" d="M1785.91,-292C1785.91,-292 1682.91,-292 1682.91,-292 1676.91,-292 1670.91,-286 1670.91,-280 1670.91,-280 1670.91,-268 1670.91,-268 1670.91,-262 1676.91,-256 1682.91,-256 1682.91,-256 1785.91,-256 1785.91,-256 1791.91,-256 1797.91,-262 1797.91,-268 1797.91,-268 1797.91,-280 1797.91,-280 1797.91,-286 1791.91,-292 1785.91,-292"/>
<text text-anchor="middle" x="1734.41" y="-268.75" font-family="Arial" font-size="15.00">card_pile_widget</text>
</g>
<!-- /test/widgets/cards/card_pile_widget_test.dart&#45;&gt;/lib/widgets/cards/card_pile_widget.dart -->
<g id="edge21" class="edge">
<title>/test/widgets/cards/card_pile_widget_test.dart&#45;&gt;/lib/widgets/cards/card_pile_widget.dart</title>
<path fill="none" stroke="#aabbaa" stroke-width="1.3" stroke-opacity="0.533333" d="M3974.83,-437.67C3957.35,-431.43 3936.71,-425.15 3917.41,-422 3905.03,-419.98 2121.24,-421.78 2111.41,-414 2081.65,-390.46 2119.3,-356.72 2091.41,-331 2051.53,-294.23 1902.64,-281.58 1810.2,-277.25"/>
<polygon fill="#aabbaa" fill-opacity="0.533333" stroke="#aabbaa" stroke-width="1.3" stroke-opacity="0.533333" points="1810.5,-273.76 1800.35,-276.81 1810.19,-280.75 1810.5,-273.76"/>
</g>
<!-- /test/widgets/cards/card_widget_test.dart -->
<g id="node14" class="node">
<title>/test/widgets/cards/card_widget_test.dart</title>
<path fill="Lavender" stroke="black" stroke-width="1.3" d="M4233.03,-474C4233.03,-474 4127.78,-474 4127.78,-474 4121.78,-474 4115.78,-468 4115.78,-462 4115.78,-462 4115.78,-450 4115.78,-450 4115.78,-444 4121.78,-438 4127.78,-438 4127.78,-438 4233.03,-438 4233.03,-438 4239.03,-438 4245.03,-444 4245.03,-450 4245.03,-450 4245.03,-462 4245.03,-462 4245.03,-468 4239.03,-474 4233.03,-474"/>
<text text-anchor="middle" x="4180.41" y="-450.75" font-family="Arial" font-size="15.00">card_widget_test</text>
</g>
<!-- /test/widgets/cards/card_widget_test.dart&#45;&gt;/lib/models/card_model_french.dart -->
<g id="edge23" class="edge">
<title>/test/widgets/cards/card_widget_test.dart&#45;&gt;/lib/models/card_model_french.dart</title>
<path fill="none" stroke="#aabbaa" stroke-width="1.3" stroke-opacity="0.533333" d="M4144.36,-437.55C4132.44,-432.15 4119,-426.46 4106.41,-422 4093.4,-417.4 4089.08,-419.47 4076.41,-414 4012.09,-386.23 4008.47,-354.3 3942.41,-331 3659.85,-231.37 3571.95,-273.32 3273.41,-248 2654.53,-195.5 2498.09,-206.57 1877.41,-184 1282.47,-162.37 1130.94,-205.55 538.41,-148 532.89,-147.46 527.22,-146.81 521.51,-146.07"/>
<polygon fill="#aabbaa" fill-opacity="0.533333" stroke="#aabbaa" stroke-width="1.3" stroke-opacity="0.533333" points="522.13,-142.62 511.74,-144.71 521.16,-149.55 522.13,-142.62"/>
</g>
<!-- /test/widgets/cards/card_widget_test.dart&#45;&gt;/lib/models/card_model.dart -->
<g id="edge22" class="edge">
<title>/test/widgets/cards/card_widget_test.dart&#45;&gt;/lib/models/card_model.dart</title>
<path fill="none" stroke="#aabbaa" stroke-width="1.3" stroke-opacity="0.533333" d="M4163.16,-437.84C4134.8,-407.7 4081.41,-342.05 4081.41,-275 4081.41,-275 4081.41,-275 4081.41,-201 4081.41,-36.64 2970.92,-107.39 1657.41,-76 1440.91,-70.83 1183.69,-63.81 1069.76,-60.65"/>
<polygon fill="#aabbaa" fill-opacity="0.533333" stroke="#aabbaa" stroke-width="1.3" stroke-opacity="0.533333" points="1069.95,-57.16 1059.86,-60.38 1069.76,-64.16 1069.95,-57.16"/>
</g>
<!-- /test/widgets/cards/card_widget_test.dart&#45;&gt;/lib/widgets/cards/card_widget.dart -->
<g id="edge24" class="edge">
<title>/test/widgets/cards/card_widget_test.dart&#45;&gt;/lib/widgets/cards/card_widget.dart</title>
<path fill="none" stroke="#aabbaa" stroke-width="1.3" stroke-opacity="0.533333" d="M4148.16,-437.54C4135.51,-431.52 4120.63,-425.43 4106.41,-422 4090.29,-418.11 3971.2,-423.19 3957.41,-414 3923.33,-391.3 3951.36,-353.89 3917.41,-331 3681.63,-172 2924.28,-264.99 2640.41,-248 2354.78,-230.91 2013.22,-213.06 1877.38,-206.07"/>
<polygon fill="#aabbaa" fill-opacity="0.533333" stroke="#aabbaa" stroke-width="1.3" stroke-opacity="0.533333" points="1877.79,-202.58 1867.62,-205.57 1877.43,-209.57 1877.79,-202.58"/>
</g>
<!-- /lib/models/game_model.dart&#45;&gt;/lib/models/game_history.dart -->
<g id="edge27" class="edge">
<title>/lib/models/game_model.dart&#45;&gt;/lib/models/game_history.dart</title>
<path fill="none" stroke="#aabbaa" stroke-width="1.3" stroke-opacity="0.533333" d="M974.29,-255.68C985.86,-246.6 998.15,-234.37 1004.41,-220 1012.59,-201.22 1012.3,-178.01 1010.11,-160.01"/>
<polygon fill="#aabbaa" fill-opacity="0.533333" stroke="#aabbaa" stroke-width="1.3" stroke-opacity="0.533333" points="1013.58,-159.53 1008.62,-150.17 1006.66,-160.58 1013.58,-159.53"/>
</g>
<!-- /lib/models/game_model.dart&#45;&gt;/lib/models/player_model.dart -->
<g id="edge29" class="edge">
<title>/lib/models/game_model.dart&#45;&gt;/lib/models/player_model.dart</title>
<path fill="none" stroke="#aabbaa" stroke-width="1.3" stroke-opacity="0.533333" d="M940.26,-255.7C939,-248.49 938.14,-239.93 937.81,-231.82"/>
<polygon fill="#aabbaa" fill-opacity="0.533333" stroke="#aabbaa" stroke-width="1.3" stroke-opacity="0.533333" points="941.31,-232.05 937.75,-222.07 934.31,-232.09 941.31,-232.05"/>
</g>
<!-- /lib/models/game_model.dart&#45;&gt;/lib/models/player_model.dart -->
<g id="edge32" class="edge">
<title>/lib/models/game_model.dart&#45;&gt;/lib/models/player_model.dart</title>
<path fill="none" stroke="#aabbaa" stroke-width="1.3" stroke-dasharray="5,2" stroke-opacity="0.533333" d="M952.09,-255.7C952.32,-248.49 951.95,-239.93 951.12,-231.82"/>
<polygon fill="#aabbaa" fill-opacity="0.533333" stroke="#aabbaa" stroke-width="1.3" stroke-opacity="0.533333" points="954.61,-231.49 949.79,-222.05 947.67,-232.44 954.61,-231.49"/>
</g>
<!-- /lib/models/game_model.dart&#45;&gt;/lib/models/game_style.dart -->
<g id="edge28" class="edge">
<title>/lib/models/game_model.dart&#45;&gt;/lib/models/game_style.dart</title>
<path fill="none" stroke="#aabbaa" stroke-width="1.3" stroke-opacity="0.533333" d="M953.67,-292.41C958.09,-304.71 964.11,-321.45 969.22,-335.66"/>
<polygon fill="#aabbaa" fill-opacity="0.533333" stroke="#aabbaa" stroke-width="1.3" stroke-opacity="0.533333" points="965.89,-336.76 972.57,-344.99 972.48,-334.39 965.89,-336.76"/>
</g>
<!-- /lib/models/game_model.dart&#45;&gt;/lib/models/game_style.dart -->
<g id="edge31" class="edge">
<title>/lib/models/game_model.dart&#45;&gt;/lib/models/game_style.dart</title>
<path fill="none" stroke="#aabbaa" stroke-width="1.3" stroke-dasharray="5,2" stroke-opacity="0.533333" d="M964.64,-292.41C971.64,-304.58 978.17,-321.12 981.78,-335.23"/>
<polygon fill="#aabbaa" fill-opacity="0.533333" stroke="#aabbaa" stroke-width="1.3" stroke-opacity="0.533333" points="978.33,-335.81 983.76,-344.91 985.19,-334.41 978.33,-335.81"/>
</g>
<!-- /lib/models/game_model.dart&#45;&gt;/lib/models/backend_model.dart -->
<g id="edge25" class="edge">
<title>/lib/models/game_model.dart&#45;&gt;/lib/models/backend_model.dart</title>
<path fill="none" stroke="#aabbaa" stroke-width="1.3" stroke-opacity="0.533333" d="M896.01,-258.67C859.25,-248.41 809.27,-234.48 768.53,-223.11"/>
<polygon fill="#aabbaa" fill-opacity="0.533333" stroke="#aabbaa" stroke-width="1.3" stroke-opacity="0.533333" points="769.49,-219.75 758.92,-220.43 767.61,-226.49 769.49,-219.75"/>
</g>
<!-- /lib/models/game_model.dart&#45;&gt;/lib/models/deck_model.dart -->
<g id="edge26" class="edge">
<title>/lib/models/game_model.dart&#45;&gt;/lib/models/deck_model.dart</title>
<path fill="none" stroke="#aabbaa" stroke-width="1.3" stroke-opacity="0.533333" d="M910.5,-255.52C893.95,-246.68 874.59,-235.84 858.28,-226.3"/>
<polygon fill="#aabbaa" fill-opacity="0.533333" stroke="#aabbaa" stroke-width="1.3" stroke-opacity="0.533333" points="860.15,-223.34 849.76,-221.26 856.59,-229.37 860.15,-223.34"/>
</g>
<!-- /lib/models/game_model.dart&#45;&gt;/lib/models/deck_model.dart -->
<g id="edge30" class="edge">
<title>/lib/models/game_model.dart&#45;&gt;/lib/models/deck_model.dart</title>
<path fill="none" stroke="#aabbaa" stroke-width="1.3" stroke-dasharray="5,2" stroke-opacity="0.533333" d="M922.37,-255.52C907.34,-246.51 887.84,-235.42 870.09,-225.76"/>
<polygon fill="#aabbaa" fill-opacity="0.533333" stroke="#aabbaa" stroke-width="1.3" stroke-opacity="0.533333" points="872.09,-222.86 861.63,-221.19 868.77,-229.02 872.09,-222.86"/>
</g>
<!-- /lib/models/card_model_french.dart&#45;&gt;/lib/models/card_model.dart -->
<g id="edge33" class="edge">
<title>/lib/models/card_model_french.dart&#45;&gt;/lib/models/card_model.dart</title>
<path fill="none" stroke="#aabbaa" stroke-width="1.3" stroke-opacity="0.533333" d="M509.59,-114.26C514.26,-113.45 518.89,-112.69 523.41,-112 677.08,-88.49 859.59,-71.53 951.41,-63.76"/>
<polygon fill="#aabbaa" fill-opacity="0.533333" stroke="#aabbaa" stroke-width="1.3" stroke-opacity="0.533333" points="951.58,-67.25 961.26,-62.93 951,-60.28 951.58,-67.25"/>
</g>
<!-- /lib/models/hand_model.dart -->
<g id="node20" class="node">
<title>/lib/models/hand_model.dart</title>
<path fill="Lavender" stroke="black" stroke-width="1.3" d="M921.28,-148C921.28,-148 847.53,-148 847.53,-148 841.53,-148 835.53,-142 835.53,-136 835.53,-136 835.53,-124 835.53,-124 835.53,-118 841.53,-112 847.53,-112 847.53,-112 921.28,-112 921.28,-112 927.28,-112 933.28,-118 933.28,-124 933.28,-124 933.28,-136 933.28,-136 933.28,-142 927.28,-148 921.28,-148"/>
<text text-anchor="middle" x="884.41" y="-124.75" font-family="Arial" font-size="15.00">hand_model</text>
</g>
<!-- /lib/models/hand_model.dart&#45;&gt;/lib/models/card_model.dart -->
<g id="edge34" class="edge">
<title>/lib/models/hand_model.dart&#45;&gt;/lib/models/card_model.dart</title>
<path fill="none" stroke="#aabbaa" stroke-width="1.3" stroke-opacity="0.533333" d="M909.94,-111.52C925.24,-102.51 945.05,-91.42 963.07,-81.76"/>
<polygon fill="#aabbaa" fill-opacity="0.533333" stroke="#aabbaa" stroke-width="1.3" stroke-opacity="0.533333" points="964.5,-84.96 971.69,-77.18 961.22,-78.78 964.5,-84.96"/>
</g>
<!-- /lib/models/hand_model.dart&#45;&gt;/lib/models/card_model.dart -->
<g id="edge35" class="edge">
<title>/lib/models/hand_model.dart&#45;&gt;/lib/models/card_model.dart</title>
<path fill="none" stroke="#aabbaa" stroke-width="1.3" stroke-dasharray="5,2" stroke-opacity="0.533333" d="M921.81,-111.52C938.77,-102.6 958.66,-91.63 975.34,-82.03"/>
<polygon fill="#aabbaa" fill-opacity="0.533333" stroke="#aabbaa" stroke-width="1.3" stroke-opacity="0.533333" points="976.67,-85.31 983.55,-77.25 973.15,-79.26 976.67,-85.31"/>
</g>
<!-- /lib/models/player_model.dart&#45;&gt;/lib/models/player_status.dart -->
<g id="edge37" class="edge">
<title>/lib/models/player_model.dart&#45;&gt;/lib/models/player_status.dart</title>
<path fill="none" stroke="#aabbaa" stroke-width="1.3" stroke-opacity="0.533333" d="M889.6,-188.38C883.45,-186.81 877.29,-185.3 871.41,-184 781.41,-164.11 754.48,-167.5 664.96,-149.31"/>
<polygon fill="#aabbaa" fill-opacity="0.533333" stroke="#aabbaa" stroke-width="1.3" stroke-opacity="0.533333" points="665.85,-145.92 655.35,-147.32 664.43,-152.78 665.85,-145.92"/>
</g>
<!-- /lib/models/player_model.dart&#45;&gt;/lib/models/player_status.dart -->
<g id="edge40" class="edge">
<title>/lib/models/player_model.dart&#45;&gt;/lib/models/player_status.dart</title>
<path fill="none" stroke="#aabbaa" stroke-width="1.3" stroke-dasharray="5,2" stroke-opacity="0.533333" d="M889.13,-183.94C795.61,-163.29 770.26,-167.8 676.41,-148 672.71,-147.22 668.91,-146.37 665.06,-145.49"/>
<polygon fill="#aabbaa" fill-opacity="0.533333" stroke="#aabbaa" stroke-width="1.3" stroke-opacity="0.533333" points="665.93,-142.1 655.4,-143.21 664.33,-148.91 665.93,-142.1"/>
</g>
<!-- /lib/models/player_model.dart&#45;&gt;/lib/models/hand_model.dart -->
<g id="edge36" class="edge">
<title>/lib/models/player_model.dart&#45;&gt;/lib/models/hand_model.dart</title>
<path fill="none" stroke="#aabbaa" stroke-width="1.3" stroke-opacity="0.533333" d="M922.15,-183.7C914.81,-175.81 906.71,-166.3 899.83,-157.55"/>
<polygon fill="#aabbaa" fill-opacity="0.533333" stroke="#aabbaa" stroke-width="1.3" stroke-opacity="0.533333" points="902.7,-155.53 893.87,-149.67 897.12,-159.76 902.7,-155.53"/>
</g>
<!-- /lib/models/player_model.dart&#45;&gt;/lib/models/hand_model.dart -->
<g id="edge39" class="edge">
<title>/lib/models/player_model.dart&#45;&gt;/lib/models/hand_model.dart</title>
<path fill="none" stroke="#aabbaa" stroke-width="1.3" stroke-dasharray="5,2" stroke-opacity="0.533333" d="M933.99,-183.7C928.14,-175.64 920.28,-165.89 912.48,-156.98"/>
<polygon fill="#aabbaa" fill-opacity="0.533333" stroke="#aabbaa" stroke-width="1.3" stroke-opacity="0.533333" points="915.09,-154.65 905.79,-149.57 909.89,-159.34 915.09,-154.65"/>
</g>
<!-- /lib/models/player_model.dart&#45;&gt;/lib/models/card_model.dart -->
<g id="edge38" class="edge">
<title>/lib/models/player_model.dart&#45;&gt;/lib/models/card_model.dart</title>
<path fill="none" stroke="#aabbaa" stroke-width="1.3" stroke-dasharray="5,2" stroke-opacity="0.533333" d="M889.38,-186.13C886.35,-185.39 883.35,-184.67 880.41,-184 789.1,-163.22 621.71,-183.3 682.41,-112 716.26,-72.24 866.27,-62.21 951.22,-59.75"/>
<polygon fill="#aabbaa" fill-opacity="0.533333" stroke="#aabbaa" stroke-width="1.3" stroke-opacity="0.533333" points="951.13,-63.25 961.04,-59.49 950.95,-56.25 951.13,-63.25"/>
</g>
<!-- /lib/models/game_style.dart&#45;&gt;/lib/models/game_model.dart -->
<g id="edge42" class="edge">
<title>/lib/models/game_style.dart&#45;&gt;/lib/models/game_model.dart</title>
<path fill="none" stroke="#aabbaa" stroke-width="1.3" stroke-opacity="0.533333" d="M962.32,-346.84C955.32,-334.73 948.76,-318.21 945.11,-304.06"/>
<polygon fill="#aabbaa" fill-opacity="0.533333" stroke="#aabbaa" stroke-width="1.3" stroke-opacity="0.533333" points="948.55,-303.42 943.09,-294.34 941.69,-304.84 948.55,-303.42"/>
</g>
<!-- /lib/models/game_style.dart&#45;&gt;/lib/models/card_model_french.dart -->
<g id="edge41" class="edge">
<title>/lib/models/game_style.dart&#45;&gt;/lib/models/card_model_french.dart</title>
<path fill="none" stroke="#aabbaa" stroke-width="1.3" stroke-opacity="0.533333" d="M932.71,-352.75C904.45,-345.41 867.9,-334.99 836.41,-323 701.96,-271.8 550.86,-192.85 479.3,-154.09"/>
<polygon fill="#aabbaa" fill-opacity="0.533333" stroke="#aabbaa" stroke-width="1.3" stroke-opacity="0.533333" points="481.1,-151.09 470.65,-149.38 477.76,-157.24 481.1,-151.09"/>
</g>
<!-- /lib/models/game_style.dart&#45;&gt;/lib/widgets/cards/card_widget.dart -->
<g id="edge43" class="edge">
<title>/lib/models/game_style.dart&#45;&gt;/lib/widgets/cards/card_widget.dart</title>
<path fill="none" stroke="#aabbaa" stroke-width="1.3" stroke-opacity="0.533333" d="M991.44,-346.95C1013.37,-316.1 1058.59,-253.71 1069.41,-248 1129.53,-216.28 1590.05,-206.36 1757.11,-203.79"/>
<polygon fill="#aabbaa" fill-opacity="0.533333" stroke="#aabbaa" stroke-width="1.3" stroke-opacity="0.533333" points="1756.94,-207.29 1766.89,-203.64 1756.84,-200.29 1756.94,-207.29"/>
</g>
<!-- /lib/models/backend_model.dart&#45;&gt;/lib/models/game_history.dart -->
<g id="edge45" class="edge">
<title>/lib/models/backend_model.dart&#45;&gt;/lib/models/game_history.dart</title>
<path fill="none" stroke="#aabbaa" stroke-width="1.3" stroke-opacity="0.533333" d="M757.08,-186.12C760.23,-185.39 763.36,-184.68 766.41,-184 840.82,-167.36 862.8,-166.6 939.79,-148.54"/>
<polygon fill="#aabbaa" fill-opacity="0.533333" stroke="#aabbaa" stroke-width="1.3" stroke-opacity="0.533333" points="940.19,-152.04 949.12,-146.33 938.58,-145.23 940.19,-152.04"/>
</g>
<!-- /lib/models/backend_model.dart&#45;&gt;/lib/models/firebase_options.dart -->
<g id="edge44" class="edge">
<title>/lib/models/backend_model.dart&#45;&gt;/lib/models/firebase_options.dart</title>
<path fill="none" stroke="#aabbaa" stroke-width="1.3" stroke-opacity="0.533333" d="M710.74,-183.7C717.35,-175.73 725.32,-166.1 732.64,-157.26"/>
<polygon fill="#aabbaa" fill-opacity="0.533333" stroke="#aabbaa" stroke-width="1.3" stroke-opacity="0.533333" points="735.29,-159.55 738.98,-149.62 729.9,-155.09 735.29,-159.55"/>
</g>
<!-- /lib/models/deck_model.dart&#45;&gt;/lib/models/card_model_french.dart -->
<g id="edge47" class="edge">
<title>/lib/models/deck_model.dart&#45;&gt;/lib/models/card_model_french.dart</title>
<path fill="none" stroke="#aabbaa" stroke-width="1.3" stroke-opacity="0.533333" d="M775.02,-186.06C772.12,-185.32 769.23,-184.63 766.41,-184 659.82,-160.34 630.99,-166.59 523.41,-148 522.7,-147.88 522,-147.76 521.29,-147.63"/>
<polygon fill="#aabbaa" fill-opacity="0.533333" stroke="#aabbaa" stroke-width="1.3" stroke-opacity="0.533333" points="522.02,-144.21 511.56,-145.88 520.78,-151.1 522.02,-144.21"/>
</g>
<!-- /lib/models/deck_model.dart&#45;&gt;/lib/models/game_style.dart -->
<g id="edge48" class="edge">
<title>/lib/models/deck_model.dart&#45;&gt;/lib/models/game_style.dart</title>
<path fill="none" stroke="#aabbaa" stroke-width="1.3" stroke-opacity="0.533333" d="M828.62,-220.36C837.09,-245.94 856.14,-293.87 887.41,-323 897.3,-332.22 909.62,-339.61 921.98,-345.44"/>
<polygon fill="#aabbaa" fill-opacity="0.533333" stroke="#aabbaa" stroke-width="1.3" stroke-opacity="0.533333" points="920.44,-348.58 931,-349.37 923.24,-342.16 920.44,-348.58"/>
</g>
<!-- /lib/models/deck_model.dart&#45;&gt;/lib/models/card_model.dart -->
<g id="edge46" class="edge">
<title>/lib/models/deck_model.dart&#45;&gt;/lib/models/card_model.dart</title>
<path fill="none" stroke="#aabbaa" stroke-width="1.3" stroke-opacity="0.533333" d="M774.82,-188.43C768.95,-186.81 763.05,-185.28 757.41,-184 653.78,-160.48 458.58,-191.22 529.41,-112 556.86,-81.29 829.09,-66.23 951.48,-61.1"/>
<polygon fill="#aabbaa" fill-opacity="0.533333" stroke="#aabbaa" stroke-width="1.3" stroke-opacity="0.533333" points="951.38,-64.61 961.23,-60.7 951.1,-57.61 951.38,-64.61"/>
</g>
<!-- /lib/models/deck_model.dart&#45;&gt;/lib/models/card_model.dart -->
<g id="edge49" class="edge">
<title>/lib/models/deck_model.dart&#45;&gt;/lib/models/card_model.dart</title>
<path fill="none" stroke="#aabbaa" stroke-width="1.3" stroke-dasharray="5,2" stroke-opacity="0.533333" d="M774.8,-183.86C671.02,-160.6 476.72,-191.07 547.41,-112 574.14,-82.1 832.89,-67.03 951.58,-61.53"/>
<polygon fill="#aabbaa" fill-opacity="0.533333" stroke="#aabbaa" stroke-width="1.3" stroke-opacity="0.533333" points="951.5,-65.03 961.33,-61.08 951.18,-58.04 951.5,-65.03"/>
</g>
<!-- /lib/screens/game_over_dialog.dart -->
<g id="node26" class="node">
<title>/lib/screens/game_over_dialog.dart</title>
<path fill="Lavender" stroke="black" stroke-width="1.3" d="M249.53,-383C249.53,-383 135.28,-383 135.28,-383 129.28,-383 123.28,-377 123.28,-371 123.28,-371 123.28,-359 123.28,-359 123.28,-353 129.28,-347 135.28,-347 135.28,-347 249.53,-347 249.53,-347 255.53,-347 261.53,-353 261.53,-359 261.53,-359 261.53,-371 261.53,-371 261.53,-377 255.53,-383 249.53,-383"/>
<text text-anchor="middle" x="192.41" y="-359.75" font-family="Arial" font-size="15.00">game_over_dialog</text>
</g>
<!-- /lib/screens/game_over_dialog.dart&#45;&gt;/lib/models/game_model.dart -->
<g id="edge51" class="edge">
<title>/lib/screens/game_over_dialog.dart&#45;&gt;/lib/models/game_model.dart</title>
<path fill="none" stroke="#aabbaa" stroke-width="1.3" stroke-opacity="0.533333" d="M226.12,-346.67C239.8,-340.51 256,-334.28 271.41,-331 343.15,-315.71 528.29,-328.94 601.41,-323 700.83,-314.92 815.33,-297.41 884.49,-285.92"/>
<polygon fill="#aabbaa" fill-opacity="0.533333" stroke="#aabbaa" stroke-width="1.3" stroke-opacity="0.533333" points="884.8,-289.42 894.08,-284.31 883.64,-282.51 884.8,-289.42"/>
</g>
<!-- /lib/screens/game_over_dialog.dart&#45;&gt;/lib/models/backend_model.dart -->
<g id="edge50" class="edge">
<title>/lib/screens/game_over_dialog.dart&#45;&gt;/lib/models/backend_model.dart</title>
<path fill="none" stroke="#aabbaa" stroke-width="1.3" stroke-opacity="0.533333" d="M226.51,-346.51C240.11,-340.4 256.15,-334.26 271.41,-331 305.1,-323.79 549.89,-336.93 581.41,-323 625.13,-303.67 660.42,-259.11 679.88,-230.07"/>
<polygon fill="#aabbaa" fill-opacity="0.533333" stroke="#aabbaa" stroke-width="1.3" stroke-opacity="0.533333" points="682.74,-232.09 685.25,-221.79 676.87,-228.27 682.74,-232.09"/>
</g>
<!-- /lib/widgets/dialog.dart -->
<g id="node36" class="node">
<title>/lib/widgets/dialog.dart</title>
<path fill="Lavender" stroke="black" stroke-width="1.3" d="M1124.91,-292C1124.91,-292 1093.91,-292 1093.91,-292 1087.91,-292 1081.91,-286 1081.91,-280 1081.91,-280 1081.91,-268 1081.91,-268 1081.91,-262 1087.91,-256 1093.91,-256 1093.91,-256 1124.91,-256 1124.91,-256 1130.91,-256 1136.91,-262 1136.91,-268 1136.91,-268 1136.91,-280 1136.91,-280 1136.91,-286 1130.91,-292 1124.91,-292"/>
<text text-anchor="middle" x="1109.41" y="-268.75" font-family="Arial" font-size="15.00">dialog</text>
</g>
<!-- /lib/screens/game_over_dialog.dart&#45;&gt;/lib/widgets/dialog.dart -->
<g id="edge52" class="edge">
<title>/lib/screens/game_over_dialog.dart&#45;&gt;/lib/widgets/dialog.dart</title>
<path fill="none" stroke="#aabbaa" stroke-width="1.3" stroke-opacity="0.533333" d="M226.09,-346.56C239.78,-340.38 255.97,-334.17 271.41,-331 293.12,-326.53 1049.38,-332.5 1069.41,-323 1079.13,-318.39 1087.32,-310.14 1093.71,-301.77"/>
<polygon fill="#aabbaa" fill-opacity="0.533333" stroke="#aabbaa" stroke-width="1.3" stroke-opacity="0.533333" points="1096.46,-303.95 1099.25,-293.72 1090.7,-299.98 1096.46,-303.95"/>
</g>
<!-- /lib/screens/game_screen.dart -->
<g id="node27" class="node">
<title>/lib/screens/game_screen.dart</title>
<path fill="Lavender" stroke="black" stroke-width="1.3" d="M247.78,-474C247.78,-474 165.03,-474 165.03,-474 159.03,-474 153.03,-468 153.03,-462 153.03,-462 153.03,-450 153.03,-450 153.03,-444 159.03,-438 165.03,-438 165.03,-438 247.78,-438 247.78,-438 253.78,-438 259.78,-444 259.78,-450 259.78,-450 259.78,-462 259.78,-462 259.78,-468 253.78,-474 247.78,-474"/>
<text text-anchor="middle" x="206.41" y="-450.75" font-family="Arial" font-size="15.00">game_screen</text>
</g>
<!-- /lib/screens/game_screen.dart&#45;&gt;/lib/models/game_model.dart -->
<g id="edge54" class="edge">
<title>/lib/screens/game_screen.dart&#45;&gt;/lib/models/game_model.dart</title>
<path fill="none" stroke="#aabbaa" stroke-width="1.3" stroke-opacity="0.533333" d="M152.78,-442.89C137.82,-436.78 123.26,-427.64 114.41,-414 94.32,-383.06 88.55,-357.31 114.41,-331 123.5,-321.75 568.47,-323.96 581.41,-323 688.26,-315.1 811.66,-297.05 884.41,-285.47"/>
<polygon fill="#aabbaa" fill-opacity="0.533333" stroke="#aabbaa" stroke-width="1.3" stroke-opacity="0.533333" points="884.81,-288.95 894.13,-283.91 883.7,-282.04 884.81,-288.95"/>
</g>
<!-- /lib/screens/game_screen.dart&#45;&gt;/lib/models/backend_model.dart -->
<g id="edge53" class="edge">
<title>/lib/screens/game_screen.dart&#45;&gt;/lib/models/backend_model.dart</title>
<path fill="none" stroke="#aabbaa" stroke-width="1.3" stroke-opacity="0.533333" d="M152.69,-448.99C130.55,-443.56 106.94,-433.31 93.41,-414 72.23,-383.79 67.55,-357.31 93.41,-331 111.64,-312.46 540.92,-339.02 561.41,-323 588.58,-301.75 558.42,-273.73 581.41,-248 592.9,-235.14 608.52,-225.92 624.54,-219.32"/>
<polygon fill="#aabbaa" fill-opacity="0.533333" stroke="#aabbaa" stroke-width="1.3" stroke-opacity="0.533333" points="625.68,-222.63 633.81,-215.85 623.22,-216.08 625.68,-222.63"/>
</g>
<!-- /lib/screens/game_screen.dart&#45;&gt;/lib/screens/game_over_dialog.dart -->
<g id="edge55" class="edge">
<title>/lib/screens/game_screen.dart&#45;&gt;/lib/screens/game_over_dialog.dart</title>
<path fill="none" stroke="#aabbaa" stroke-width="1.3" stroke-opacity="0.533333" d="M203.71,-437.84C201.8,-425.73 199.2,-409.21 196.98,-395.06"/>
<polygon fill="#aabbaa" fill-opacity="0.533333" stroke="#aabbaa" stroke-width="1.3" stroke-opacity="0.533333" points="200.46,-394.69 195.45,-385.35 193.55,-395.78 200.46,-394.69"/>
</g>
<!-- /lib/screens/screen.dart -->
<g id="node29" class="node">
<title>/lib/screens/screen.dart</title>
<path fill="Lavender" stroke="black" stroke-width="1.3" d="M328.91,-383C328.91,-383 291.91,-383 291.91,-383 285.91,-383 279.91,-377 279.91,-371 279.91,-371 279.91,-359 279.91,-359 279.91,-353 285.91,-347 291.91,-347 291.91,-347 328.91,-347 328.91,-347 334.91,-347 340.91,-353 340.91,-359 340.91,-359 340.91,-371 340.91,-371 340.91,-377 334.91,-383 328.91,-383"/>
<text text-anchor="middle" x="310.41" y="-359.75" font-family="Arial" font-size="15.00">screen</text>
</g>
<!-- /lib/screens/game_screen.dart&#45;&gt;/lib/screens/screen.dart -->
<g id="edge56" class="edge">
<title>/lib/screens/game_screen.dart&#45;&gt;/lib/screens/screen.dart</title>
<path fill="none" stroke="#aabbaa" stroke-width="1.3" stroke-opacity="0.533333" d="M237.72,-437.61C248.58,-430.9 260.51,-422.73 270.41,-414 277.73,-407.54 284.84,-399.69 291,-392.23"/>
<polygon fill="#aabbaa" fill-opacity="0.533333" stroke="#aabbaa" stroke-width="1.3" stroke-opacity="0.533333" points="293.53,-394.67 296.99,-384.65 288.04,-390.32 293.53,-394.67"/>
</g>
<!-- /lib/widgets/player/player_zone_widget.dart -->
<g id="node44" class="node">
<title>/lib/widgets/player/player_zone_widget.dart</title>
<path fill="Lavender" stroke="black" stroke-width="1.3" d="M1296.41,-474C1296.41,-474 1172.41,-474 1172.41,-474 1166.41,-474 1160.41,-468 1160.41,-462 1160.41,-462 1160.41,-450 1160.41,-450 1160.41,-444 1166.41,-438 1172.41,-438 1172.41,-438 1296.41,-438 1296.41,-438 1302.41,-438 1308.41,-444 1308.41,-450 1308.41,-450 1308.41,-462 1308.41,-462 1308.41,-468 1302.41,-474 1296.41,-474"/>
<text text-anchor="middle" x="1234.41" y="-450.75" font-family="Arial" font-size="15.00">player_zone_widget</text>
</g>
<!-- /lib/screens/game_screen.dart&#45;&gt;/lib/widgets/player/player_zone_widget.dart -->
<g id="edge57" class="edge">
<title>/lib/screens/game_screen.dart&#45;&gt;/lib/widgets/player/player_zone_widget.dart</title>
<path fill="none" stroke="#aabbaa" stroke-width="1.3" stroke-opacity="0.533333" d="M260.12,-456C556.19,-456 852.26,-456 1148.33,-456"/>
<polygon fill="#aabbaa" fill-opacity="0.533333" stroke="#aabbaa" stroke-width="1.3" stroke-opacity="0.533333" points="1148.23,-459.5 1158.23,-456 1148.23,-452.5 1148.23,-459.5"/>
</g>
<!-- /lib/screens/start_screen.dart -->
<g id="node28" class="node">
<title>/lib/screens/start_screen.dart</title>
<path fill="Lavender" stroke="black" stroke-width="1.3" d="M329.03,-611C329.03,-611 253.78,-611 253.78,-611 247.78,-611 241.78,-605 241.78,-599 241.78,-599 241.78,-587 241.78,-587 241.78,-581 247.78,-575 253.78,-575 253.78,-575 329.03,-575 329.03,-575 335.03,-575 341.03,-581 341.03,-587 341.03,-587 341.03,-599 341.03,-599 341.03,-605 335.03,-611 329.03,-611"/>
<text text-anchor="middle" x="291.41" y="-587.75" font-family="Arial" font-size="15.00">start_screen</text>
</g>
<!-- /lib/screens/start_screen.dart&#45;&gt;/lib/models/game_model.dart -->
<g id="edge60" class="edge">
<title>/lib/screens/start_screen.dart&#45;&gt;/lib/models/game_model.dart</title>
<path fill="none" stroke="#aabbaa" stroke-width="1.3" stroke-opacity="0.533333" d="M241.63,-588.97C204.86,-585.75 158.8,-579.34 144.41,-567 62.94,-497.15 18.18,-407.53 93.41,-331 102.52,-321.73 548.44,-323.91 561.41,-323 675.7,-314.94 808.06,-296.48 884.32,-284.94"/>
<polygon fill="#aabbaa" fill-opacity="0.533333" stroke="#aabbaa" stroke-width="1.3" stroke-opacity="0.533333" points="884.76,-288.42 894.12,-283.45 883.71,-281.5 884.76,-288.42"/>
</g>
<!-- /lib/screens/start_screen.dart&#45;&gt;/lib/models/game_history.dart -->
<g id="edge59" class="edge">
<title>/lib/screens/start_screen.dart&#45;&gt;/lib/models/game_history.dart</title>
<path fill="none" stroke="#aabbaa" stroke-width="1.3" stroke-opacity="0.533333" d="M341.31,-591.75C623.39,-590.29 2006.26,-582.37 2021.41,-567 2066.65,-521.1 2062.69,-471.48 2021.41,-422 1949.05,-335.29 1633.79,-342.15 1521.41,-331 1508.91,-329.76 1079.55,-330.41 1069.41,-323 1042.61,-303.42 1020.02,-208.5 1009.98,-159.86"/>
<polygon fill="#aabbaa" fill-opacity="0.533333" stroke="#aabbaa" stroke-width="1.3" stroke-opacity="0.533333" points="1013.45,-159.33 1008.04,-150.22 1006.58,-160.71 1013.45,-159.33"/>
</g>
<!-- /lib/screens/start_screen.dart&#45;&gt;/lib/models/backend_model.dart -->
<g id="edge58" class="edge">
<title>/lib/screens/start_screen.dart&#45;&gt;/lib/models/backend_model.dart</title>
<path fill="none" stroke="#aabbaa" stroke-width="1.3" stroke-opacity="0.533333" d="M241.34,-590.3C174.73,-587.51 63.87,-580.83 51.41,-567 -18.81,-489.08 -15.15,-412.07 51.41,-331 123.25,-243.5 470.91,-214.75 623.9,-206.24"/>
<polygon fill="#aabbaa" fill-opacity="0.533333" stroke="#aabbaa" stroke-width="1.3" stroke-opacity="0.533333" points="623.69,-209.76 633.49,-205.72 623.31,-202.77 623.69,-209.76"/>
</g>
<!-- /lib/screens/start_screen.dart&#45;&gt;/lib/screens/game_screen.dart -->
<g id="edge61" class="edge">
<title>/lib/screens/start_screen.dart&#45;&gt;/lib/screens/game_screen.dart</title>
<path fill="none" stroke="#aabbaa" stroke-width="1.3" stroke-opacity="0.533333" d="M280.47,-574.63C266.06,-551.74 240.56,-511.25 223.57,-484.27"/>
<polygon fill="#aabbaa" fill-opacity="0.533333" stroke="#aabbaa" stroke-width="1.3" stroke-opacity="0.533333" points="226.64,-482.57 218.35,-475.97 220.72,-486.3 226.64,-482.57"/>
</g>
<!-- /lib/screens/start_screen.dart&#45;&gt;/lib/screens/screen.dart -->
<g id="edge62" class="edge">
<title>/lib/screens/start_screen.dart&#45;&gt;/lib/screens/screen.dart</title>
<path fill="none" stroke="#aabbaa" stroke-width="1.3" stroke-opacity="0.533333" d="M292.87,-574.64C296.11,-536.11 303.93,-443.07 307.94,-395.33"/>
<polygon fill="#aabbaa" fill-opacity="0.533333" stroke="#aabbaa" stroke-width="1.3" stroke-opacity="0.533333" points="311.43,-395.64 308.78,-385.38 304.45,-395.05 311.43,-395.64"/>
</g>
<!-- /lib/widgets/players_in_room_widget.dart -->
<g id="node38" class="node">
<title>/lib/widgets/players_in_room_widget.dart</title>
<path fill="Lavender" stroke="black" stroke-width="1.3" d="M1691.03,-474C1691.03,-474 1537.78,-474 1537.78,-474 1531.78,-474 1525.78,-468 1525.78,-462 1525.78,-462 1525.78,-450 1525.78,-450 1525.78,-444 1531.78,-438 1537.78,-438 1537.78,-438 1691.03,-438 1691.03,-438 1697.03,-438 1703.03,-444 1703.03,-450 1703.03,-450 1703.03,-462 1703.03,-462 1703.03,-468 1697.03,-474 1691.03,-474"/>
<text text-anchor="middle" x="1614.41" y="-450.75" font-family="Arial" font-size="15.00">players_in_room_widget</text>
</g>
<!-- /lib/screens/start_screen.dart&#45;&gt;/lib/widgets/players_in_room_widget.dart -->
<g id="edge63" class="edge">
<title>/lib/screens/start_screen.dart&#45;&gt;/lib/widgets/players_in_room_widget.dart</title>
<path fill="none" stroke="#aabbaa" stroke-width="1.3" stroke-opacity="0.533333" d="M341.35,-592.13C565.18,-592.57 1467.39,-592.74 1521.41,-567 1557.52,-549.79 1584.81,-511.14 1600.21,-484.56"/>
<polygon fill="#aabbaa" fill-opacity="0.533333" stroke="#aabbaa" stroke-width="1.3" stroke-opacity="0.533333" points="1603.13,-486.51 1604.93,-476.07 1597.01,-483.11 1603.13,-486.51"/>
</g>
<!-- /lib/widgets/rooms_widget.dart -->
<g id="node40" class="node">
<title>/lib/widgets/rooms_widget.dart</title>
<path fill="Lavender" stroke="black" stroke-width="1.3" d="M1996.91,-474C1996.91,-474 1911.91,-474 1911.91,-474 1905.91,-474 1899.91,-468 1899.91,-462 1899.91,-462 1899.91,-450 1899.91,-450 1899.91,-444 1905.91,-438 1911.91,-438 1911.91,-438 1996.91,-438 1996.91,-438 2002.91,-438 2008.91,-444 2008.91,-450 2008.91,-450 2008.91,-462 2008.91,-462 2008.91,-468 2002.91,-474 1996.91,-474"/>
<text text-anchor="middle" x="1954.41" y="-450.75" font-family="Arial" font-size="15.00">rooms_widget</text>
</g>
<!-- /lib/screens/start_screen.dart&#45;&gt;/lib/widgets/rooms_widget.dart -->
<g id="edge64" class="edge">
<title>/lib/screens/start_screen.dart&#45;&gt;/lib/widgets/rooms_widget.dart</title>
<path fill="none" stroke="#aabbaa" stroke-width="1.3" stroke-opacity="0.533333" d="M341.17,-591.89C607.77,-591.23 1856.17,-587.05 1890.41,-567 1920.5,-549.38 1937.81,-511.68 1946.67,-485.35"/>
<polygon fill="#aabbaa" fill-opacity="0.533333" stroke="#aabbaa" stroke-width="1.3" stroke-opacity="0.533333" points="1949.93,-486.63 1949.57,-476.04 1943.25,-484.55 1949.93,-486.63"/>
</g>
<!-- /lib/main.dart -->
<g id="node30" class="node">
<title>/lib/main.dart</title>
<path fill="Lavender" stroke="black" stroke-width="1.3" d="M306.41,-686C306.41,-686 276.41,-686 276.41,-686 270.41,-686 264.41,-680 264.41,-674 264.41,-674 264.41,-662 264.41,-662 264.41,-656 270.41,-650 276.41,-650 276.41,-650 306.41,-650 306.41,-650 312.41,-650 318.41,-656 318.41,-662 318.41,-662 318.41,-674 318.41,-674 318.41,-680 312.41,-686 306.41,-686"/>
<text text-anchor="middle" x="291.41" y="-662.75" font-family="Arial" font-size="15.00">main</text>
</g>
<!-- /lib/main.dart&#45;&gt;/lib/screens/start_screen.dart -->
<g id="edge65" class="edge">
<title>/lib/main.dart&#45;&gt;/lib/screens/start_screen.dart</title>
<path fill="none" stroke="#aabbaa" stroke-width="1.3" stroke-opacity="0.533333" d="M291.41,-649.7C291.41,-641.76 291.41,-632.12 291.41,-623.11"/>
<polygon fill="#aabbaa" fill-opacity="0.533333" stroke="#aabbaa" stroke-width="1.3" stroke-opacity="0.533333" points="294.91,-623.4 291.41,-613.4 287.91,-623.4 294.91,-623.4"/>
</g>
<!-- /lib/widgets/date_importance.dart -->
<g id="node31" class="node">
<title>/lib/widgets/date_importance.dart</title>
<path fill="Lavender" stroke="black" stroke-width="1.3" d="M1641.28,-292C1641.28,-292 1537.53,-292 1537.53,-292 1531.53,-292 1525.53,-286 1525.53,-280 1525.53,-280 1525.53,-268 1525.53,-268 1525.53,-262 1531.53,-256 1537.53,-256 1537.53,-256 1641.28,-256 1641.28,-256 1647.28,-256 1653.28,-262 1653.28,-268 1653.28,-268 1653.28,-280 1653.28,-280 1653.28,-286 1647.28,-292 1641.28,-292"/>
<text text-anchor="middle" x="1589.41" y="-268.75" font-family="Arial" font-size="15.00">date_importance</text>
</g>
<!-- /lib/widgets/cards/card_pile_widget.dart&#45;&gt;/lib/models/card_model.dart -->
<g id="edge66" class="edge">
<title>/lib/widgets/cards/card_pile_widget.dart&#45;&gt;/lib/models/card_model.dart</title>
<path fill="none" stroke="#aabbaa" stroke-width="1.3" stroke-opacity="0.533333" d="M1689.16,-255.58C1681.92,-252.95 1674.48,-250.33 1667.41,-248 1448.92,-175.93 1184.62,-104.64 1069.15,-74.27"/>
<polygon fill="#aabbaa" fill-opacity="0.533333" stroke="#aabbaa" stroke-width="1.3" stroke-opacity="0.533333" points="1070.25,-70.94 1059.69,-71.79 1068.48,-77.71 1070.25,-70.94"/>
</g>
<!-- /lib/widgets/cards/card_pile_widget.dart&#45;&gt;/lib/widgets/cards/card_widget.dart -->
<g id="edge67" class="edge">
<title>/lib/widgets/cards/card_pile_widget.dart&#45;&gt;/lib/widgets/cards/card_widget.dart</title>
<path fill="none" stroke="#aabbaa" stroke-width="1.3" stroke-opacity="0.533333" d="M1754.92,-255.7C1764.9,-247.28 1777.07,-237.02 1788.01,-227.79"/>
<polygon fill="#aabbaa" fill-opacity="0.533333" stroke="#aabbaa" stroke-width="1.3" stroke-opacity="0.533333" points="1789.95,-230.74 1795.33,-221.62 1785.43,-225.39 1789.95,-230.74"/>
</g>
<!-- /lib/widgets/cards/card_face_skyjo_widget.dart -->
<g id="node33" class="node">
<title>/lib/widgets/cards/card_face_skyjo_widget.dart</title>
<path fill="Lavender" stroke="black" stroke-width="1.3" d="M1832.91,-148C1832.91,-148 1681.91,-148 1681.91,-148 1675.91,-148 1669.91,-142 1669.91,-136 1669.91,-136 1669.91,-124 1669.91,-124 1669.91,-118 1675.91,-112 1681.91,-112 1681.91,-112 1832.91,-112 1832.91,-112 1838.91,-112 1844.91,-118 1844.91,-124 1844.91,-124 1844.91,-136 1844.91,-136 1844.91,-142 1838.91,-148 1832.91,-148"/>
<text text-anchor="middle" x="1757.41" y="-124.75" font-family="Arial" font-size="15.00">card_face_skyjo_widget</text>
</g>
<!-- /lib/widgets/cards/card_face_skyjo_widget.dart&#45;&gt;/lib/models/card_model.dart -->
<g id="edge68" class="edge">
<title>/lib/widgets/cards/card_face_skyjo_widget.dart&#45;&gt;/lib/models/card_model.dart</title>
<path fill="none" stroke="#aabbaa" stroke-width="1.3" stroke-opacity="0.533333" d="M1669.52,-120.76C1515.43,-106.33 1200.48,-76.81 1069.54,-64.54"/>
<polygon fill="#aabbaa" fill-opacity="0.533333" stroke="#aabbaa" stroke-width="1.3" stroke-opacity="0.533333" points="1070.07,-61.08 1059.79,-63.63 1069.42,-68.05 1070.07,-61.08"/>
</g>
<!-- /lib/widgets/cards/card_face_french_widget.dart -->
<g id="node35" class="node">
<title>/lib/widgets/cards/card_face_french_widget.dart</title>
<path fill="Lavender" stroke="black" stroke-width="1.3" d="M1841.03,-76C1841.03,-76 1681.78,-76 1681.78,-76 1675.78,-76 1669.78,-70 1669.78,-64 1669.78,-64 1669.78,-52 1669.78,-52 1669.78,-46 1675.78,-40 1681.78,-40 1681.78,-40 1841.03,-40 1841.03,-40 1847.03,-40 1853.03,-46 1853.03,-52 1853.03,-52 1853.03,-64 1853.03,-64 1853.03,-70 1847.03,-76 1841.03,-76"/>
<text text-anchor="middle" x="1761.41" y="-52.75" font-family="Arial" font-size="15.00">card_face_french_widget</text>
</g>
<!-- /lib/widgets/cards/card_face_skyjo_widget.dart&#45;&gt;/lib/widgets/cards/card_face_french_widget.dart -->
<g id="edge69" class="edge">
<title>/lib/widgets/cards/card_face_skyjo_widget.dart&#45;&gt;/lib/widgets/cards/card_face_french_widget.dart</title>
<path fill="none" stroke="#aabbaa" stroke-width="1.3" stroke-opacity="0.533333" d="M1758.4,-111.7C1758.81,-104.49 1759.3,-95.93 1759.76,-87.82"/>
<polygon fill="#aabbaa" fill-opacity="0.533333" stroke="#aabbaa" stroke-width="1.3" stroke-opacity="0.533333" points="1763.24,-88.25 1760.32,-78.07 1756.25,-87.85 1763.24,-88.25"/>
</g>
<!-- /lib/widgets/cards/card_widget.dart&#45;&gt;/lib/models/card_model.dart -->
<g id="edge70" class="edge">
<title>/lib/widgets/cards/card_widget.dart&#45;&gt;/lib/models/card_model.dart</title>
<path fill="none" stroke="#aabbaa" stroke-width="1.3" stroke-opacity="0.533333" d="M1769.09,-189.37C1691.93,-171.09 1535.97,-135.32 1402.41,-112 1284.89,-91.49 1146.37,-74.41 1069.46,-65.55"/>
<polygon fill="#aabbaa" fill-opacity="0.533333" stroke="#aabbaa" stroke-width="1.3" stroke-opacity="0.533333" points="1069.94,-62.08 1059.61,-64.42 1069.14,-69.04 1069.94,-62.08"/>
</g>
<!-- /lib/widgets/cards/card_widget.dart&#45;&gt;/lib/widgets/cards/card_face_skyjo_widget.dart -->
<g id="edge72" class="edge">
<title>/lib/widgets/cards/card_widget.dart&#45;&gt;/lib/widgets/cards/card_face_skyjo_widget.dart</title>
<path fill="none" stroke="#aabbaa" stroke-width="1.3" stroke-opacity="0.533333" d="M1802.58,-183.7C1795.67,-175.64 1787.32,-165.89 1779.68,-156.98"/>
<polygon fill="#aabbaa" fill-opacity="0.533333" stroke="#aabbaa" stroke-width="1.3" stroke-opacity="0.533333" points="1782.51,-154.91 1773.35,-149.6 1777.2,-159.47 1782.51,-154.91"/>
</g>
<!-- /lib/widgets/cards/card_widget.dart&#45;&gt;/lib/widgets/cards/card_face_french_widget.dart -->
<g id="edge71" class="edge">
<title>/lib/widgets/cards/card_widget.dart&#45;&gt;/lib/widgets/cards/card_face_french_widget.dart</title>
<path fill="none" stroke="#aabbaa" stroke-width="1.3" stroke-opacity="0.533333" d="M1833.93,-183.63C1849.36,-165.22 1868.11,-135.58 1854.41,-112 1847.11,-99.45 1835.61,-89.62 1823.15,-82.03"/>
<polygon fill="#aabbaa" fill-opacity="0.533333" stroke="#aabbaa" stroke-width="1.3" stroke-opacity="0.533333" points="1825.17,-79.15 1814.73,-77.36 1821.78,-85.27 1825.17,-79.15"/>
</g>
<!-- /lib/widgets/wiggle_widget.dart -->
<g id="node37" class="node">
<title>/lib/widgets/wiggle_widget.dart</title>
<path fill="Lavender" stroke="black" stroke-width="1.3" d="M1979.53,-148C1979.53,-148 1895.28,-148 1895.28,-148 1889.28,-148 1883.28,-142 1883.28,-136 1883.28,-136 1883.28,-124 1883.28,-124 1883.28,-118 1889.28,-112 1895.28,-112 1895.28,-112 1979.53,-112 1979.53,-112 1985.53,-112 1991.53,-118 1991.53,-124 1991.53,-124 1991.53,-136 1991.53,-136 1991.53,-142 1985.53,-148 1979.53,-148"/>
<text text-anchor="middle" x="1937.41" y="-124.75" font-family="Arial" font-size="15.00">wiggle_widget</text>
</g>
<!-- /lib/widgets/cards/card_widget.dart&#45;&gt;/lib/widgets/wiggle_widget.dart -->
<g id="edge73" class="edge">
<title>/lib/widgets/cards/card_widget.dart&#45;&gt;/lib/widgets/wiggle_widget.dart</title>
<path fill="none" stroke="#aabbaa" stroke-width="1.3" stroke-opacity="0.533333" d="M1847.38,-183.52C1862.67,-174.6 1881.47,-163.63 1897.93,-154.03"/>
<polygon fill="#aabbaa" fill-opacity="0.533333" stroke="#aabbaa" stroke-width="1.3" stroke-opacity="0.533333" points="1899.24,-157.31 1906.12,-149.25 1895.72,-151.27 1899.24,-157.31"/>
</g>
<!-- /lib/widgets/cards/card_face_french_widget.dart&#45;&gt;/lib/models/card_model.dart -->
<g id="edge74" class="edge">
<title>/lib/widgets/cards/card_face_french_widget.dart&#45;&gt;/lib/models/card_model.dart</title>
<path fill="none" stroke="#aabbaa" stroke-width="1.3" stroke-opacity="0.533333" d="M1669.32,-58C1469.43,-58 1269.54,-58 1069.66,-58"/>
<polygon fill="#aabbaa" fill-opacity="0.533333" stroke="#aabbaa" stroke-width="1.3" stroke-opacity="0.533333" points="1069.68,-54.5 1059.68,-58 1069.68,-61.5 1069.68,-54.5"/>
</g>
<!-- /lib/widgets/text_edit_with_submit.dart -->
<g id="node39" class="node">
<title>/lib/widgets/text_edit_with_submit.dart</title>
<path fill="Lavender" stroke="black" stroke-width="1.3" d="M1869.41,-474C1869.41,-474 1733.41,-474 1733.41,-474 1727.41,-474 1721.41,-468 1721.41,-462 1721.41,-462 1721.41,-450 1721.41,-450 1721.41,-444 1727.41,-438 1733.41,-438 1733.41,-438 1869.41,-438 1869.41,-438 1875.41,-438 1881.41,-444 1881.41,-450 1881.41,-450 1881.41,-462 1881.41,-462 1881.41,-468 1875.41,-474 1869.41,-474"/>
<text text-anchor="middle" x="1801.41" y="-450.75" font-family="Arial" font-size="15.00">text_edit_with_submit</text>
</g>
<!-- /lib/widgets/player/player_zone_cta_widget.dart -->
<g id="node41" class="node">
<title>/lib/widgets/player/player_zone_cta_widget.dart</title>
<path fill="Lavender" stroke="black" stroke-width="1.3" d="M1497.66,-383C1497.66,-383 1345.16,-383 1345.16,-383 1339.16,-383 1333.16,-377 1333.16,-371 1333.16,-371 1333.16,-359 1333.16,-359 1333.16,-353 1339.16,-347 1345.16,-347 1345.16,-347 1497.66,-347 1497.66,-347 1503.66,-347 1509.66,-353 1509.66,-359 1509.66,-359 1509.66,-371 1509.66,-371 1509.66,-377 1503.66,-383 1497.66,-383"/>
<text text-anchor="middle" x="1421.41" y="-359.75" font-family="Arial" font-size="15.00">player_zone_cta_widget</text>
</g>
<!-- /lib/widgets/player/player_zone_cta_widget.dart&#45;&gt;/lib/models/game_model.dart -->
<g id="edge75" class="edge">
<title>/lib/widgets/player/player_zone_cta_widget.dart&#45;&gt;/lib/models/game_model.dart</title>
<path fill="none" stroke="#aabbaa" stroke-width="1.3" stroke-opacity="0.533333" d="M1379.16,-346.57C1362.41,-340.47 1342.79,-334.32 1324.41,-331 1265.99,-320.43 1115.33,-335.99 1057.41,-323 1033.91,-317.73 1009.2,-307.43 989.17,-297.72"/>
<polygon fill="#aabbaa" fill-opacity="0.533333" stroke="#aabbaa" stroke-width="1.3" stroke-opacity="0.533333" points="990.83,-294.64 980.32,-293.3 987.7,-300.9 990.83,-294.64"/>
</g>
<!-- /lib/widgets/player/player_zone_cta_widget.dart&#45;&gt;/lib/widgets/cards/card_pile_widget.dart -->
<g id="edge76" class="edge">
<title>/lib/widgets/player/player_zone_cta_widget.dart&#45;&gt;/lib/widgets/cards/card_pile_widget.dart</title>
<path fill="none" stroke="#aabbaa" stroke-width="1.3" stroke-opacity="0.533333" d="M1510.04,-359.02C1558.08,-353.93 1617.62,-343.66 1667.41,-323 1681.1,-317.32 1694.69,-308.37 1706.01,-299.73"/>
<polygon fill="#aabbaa" fill-opacity="0.533333" stroke="#aabbaa" stroke-width="1.3" stroke-opacity="0.533333" points="1708.15,-302.5 1713.79,-293.53 1703.79,-297.03 1708.15,-302.5"/>
</g>
<!-- /lib/widgets/player/status_picker.dart -->
<g id="node42" class="node">
<title>/lib/widgets/player/status_picker.dart</title>
<path fill="Lavender" stroke="black" stroke-width="1.3" d="M1260.66,-292C1260.66,-292 1180.16,-292 1180.16,-292 1174.16,-292 1168.16,-286 1168.16,-280 1168.16,-280 1168.16,-268 1168.16,-268 1168.16,-262 1174.16,-256 1180.16,-256 1180.16,-256 1260.66,-256 1260.66,-256 1266.66,-256 1272.66,-262 1272.66,-268 1272.66,-268 1272.66,-280 1272.66,-280 1272.66,-286 1266.66,-292 1260.66,-292"/>
<text text-anchor="middle" x="1220.41" y="-268.75" font-family="Arial" font-size="15.00">status_picker</text>
</g>
<!-- /lib/widgets/player/status_picker.dart&#45;&gt;/lib/models/player_status.dart -->
<g id="edge77" class="edge">
<title>/lib/widgets/player/status_picker.dart&#45;&gt;/lib/models/player_status.dart</title>
<path fill="none" stroke="#aabbaa" stroke-width="1.3" stroke-opacity="0.533333" d="M1187.03,-255.66C1145.45,-234.92 1071.68,-200.88 1004.41,-184 864.74,-148.94 824.62,-170.64 682.41,-148 676.63,-147.08 670.65,-146.03 664.66,-144.91"/>
<polygon fill="#aabbaa" fill-opacity="0.533333" stroke="#aabbaa" stroke-width="1.3" stroke-opacity="0.533333" points="665.62,-141.53 655.14,-143.07 664.29,-148.41 665.62,-141.53"/>
</g>
<!-- /lib/widgets/player/player_header_widget.dart -->
<g id="node43" class="node">
<title>/lib/widgets/player/player_header_widget.dart</title>
<path fill="Lavender" stroke="black" stroke-width="1.3" d="M1303.53,-383C1303.53,-383 1165.28,-383 1165.28,-383 1159.28,-383 1153.28,-377 1153.28,-371 1153.28,-371 1153.28,-359 1153.28,-359 1153.28,-353 1159.28,-347 1165.28,-347 1165.28,-347 1303.53,-347 1303.53,-347 1309.53,-347 1315.53,-353 1315.53,-359 1315.53,-359 1315.53,-371 1315.53,-371 1315.53,-377 1309.53,-383 1303.53,-383"/>
<text text-anchor="middle" x="1234.41" y="-359.75" font-family="Arial" font-size="15.00">player_header_widget</text>
</g>
<!-- /lib/widgets/player/player_header_widget.dart&#45;&gt;/lib/models/game_model.dart -->
<g id="edge78" class="edge">
<title>/lib/widgets/player/player_header_widget.dart&#45;&gt;/lib/models/game_model.dart</title>
<path fill="none" stroke="#aabbaa" stroke-width="1.3" stroke-opacity="0.533333" d="M1152.92,-348.41C1122.59,-341.75 1088.1,-333.16 1057.41,-323 1035.98,-315.91 1012.98,-306.22 993.59,-297.41"/>
<polygon fill="#aabbaa" fill-opacity="0.533333" stroke="#aabbaa" stroke-width="1.3" stroke-opacity="0.533333" points="995.25,-294.32 984.71,-293.31 992.32,-300.68 995.25,-294.32"/>
</g>
<!-- /lib/widgets/player/player_header_widget.dart&#45;&gt;/lib/widgets/date_importance.dart -->
<g id="edge79" class="edge">
<title>/lib/widgets/player/player_header_widget.dart&#45;&gt;/lib/widgets/date_importance.dart</title>
<path fill="none" stroke="#aabbaa" stroke-width="1.3" stroke-opacity="0.533333" d="M1273.52,-346.65C1289.05,-340.57 1307.27,-334.4 1324.41,-331 1367.38,-322.47 1479.92,-337.1 1521.41,-323 1536.05,-318.02 1550.34,-308.82 1562,-299.79"/>
<polygon fill="#aabbaa" fill-opacity="0.533333" stroke="#aabbaa" stroke-width="1.3" stroke-opacity="0.533333" points="1564.07,-302.62 1569.61,-293.59 1559.65,-297.19 1564.07,-302.62"/>
</g>
<!-- /lib/widgets/player/player_header_widget.dart&#45;&gt;/lib/widgets/dialog.dart -->
<g id="edge80" class="edge">
<title>/lib/widgets/player/player_header_widget.dart&#45;&gt;/lib/widgets/dialog.dart</title>
<path fill="none" stroke="#aabbaa" stroke-width="1.3" stroke-opacity="0.533333" d="M1181.21,-346.69C1167.33,-340.6 1153.02,-332.76 1141.41,-323 1134.63,-317.31 1128.72,-309.82 1123.89,-302.47"/>
<polygon fill="#aabbaa" fill-opacity="0.533333" stroke="#aabbaa" stroke-width="1.3" stroke-opacity="0.533333" points="1126.96,-300.79 1118.8,-294.03 1120.97,-304.41 1126.96,-300.79"/>
</g>
<!-- /lib/widgets/player/player_header_widget.dart&#45;&gt;/lib/widgets/player/status_picker.dart -->
<g id="edge81" class="edge">
<title>/lib/widgets/player/player_header_widget.dart&#45;&gt;/lib/widgets/player/status_picker.dart</title>
<path fill="none" stroke="#aabbaa" stroke-width="1.3" stroke-opacity="0.533333" d="M1231.71,-346.84C1229.8,-334.73 1227.2,-318.21 1224.98,-304.06"/>
<polygon fill="#aabbaa" fill-opacity="0.533333" stroke="#aabbaa" stroke-width="1.3" stroke-opacity="0.533333" points="1228.46,-303.69 1223.45,-294.35 1221.55,-304.78 1228.46,-303.69"/>
</g>
<!-- /lib/widgets/player/player_zone_widget.dart&#45;&gt;/lib/models/game_model.dart -->
<g id="edge82" class="edge">
<title>/lib/widgets/player/player_zone_widget.dart&#45;&gt;/lib/models/game_model.dart</title>
<path fill="none" stroke="#aabbaa" stroke-width="1.3" stroke-opacity="0.533333" d="M1160.01,-450.24C1073.27,-443.92 939.73,-431.48 924.41,-414 897.56,-383.36 915.38,-333.76 931.11,-302.83"/>
<polygon fill="#aabbaa" fill-opacity="0.533333" stroke="#aabbaa" stroke-width="1.3" stroke-opacity="0.533333" points="934.16,-304.56 935.79,-294.09 927.99,-301.25 934.16,-304.56"/>
</g>
<!-- /lib/widgets/player/player_zone_widget.dart&#45;&gt;/lib/widgets/cards/card_widget.dart -->
<g id="edge83" class="edge">
<title>/lib/widgets/player/player_zone_widget.dart&#45;&gt;/lib/widgets/cards/card_widget.dart</title>
<path fill="none" stroke="#aabbaa" stroke-width="1.3" stroke-opacity="0.533333" d="M1268.08,-437.61C1281.51,-431.52 1297.34,-425.36 1312.41,-422 1401.83,-402.05 1428.13,-429.68 1518.41,-414 1651.08,-390.96 1723.32,-428.18 1807.41,-323 1827.81,-297.49 1827.03,-258.41 1823.33,-231.84"/>
<polygon fill="#aabbaa" fill-opacity="0.533333" stroke="#aabbaa" stroke-width="1.3" stroke-opacity="0.533333" points="1826.82,-231.49 1821.74,-222.2 1819.91,-232.63 1826.82,-231.49"/>
</g>
<!-- /lib/widgets/player/player_zone_widget.dart&#45;&gt;/lib/widgets/player/player_zone_cta_widget.dart -->
<g id="edge85" class="edge">
<title>/lib/widgets/player/player_zone_widget.dart&#45;&gt;/lib/widgets/player/player_zone_cta_widget.dart</title>
<path fill="none" stroke="#aabbaa" stroke-width="1.3" stroke-opacity="0.533333" d="M1273.52,-437.51C1289.37,-430.34 1307.81,-421.88 1324.41,-414 1341.53,-405.87 1360.22,-396.69 1376.59,-388.55"/>
<polygon fill="#aabbaa" fill-opacity="0.533333" stroke="#aabbaa" stroke-width="1.3" stroke-opacity="0.533333" points="1377.82,-391.85 1385.21,-384.25 1374.7,-385.58 1377.82,-391.85"/>
</g>
<!-- /lib/widgets/player/player_zone_widget.dart&#45;&gt;/lib/widgets/player/player_header_widget.dart -->
<g id="edge84" class="edge">
<title>/lib/widgets/player/player_zone_widget.dart&#45;&gt;/lib/widgets/player/player_header_widget.dart</title>
<path fill="none" stroke="#aabbaa" stroke-width="1.3" stroke-opacity="0.533333" d="M1234.41,-437.84C1234.41,-425.73 1234.41,-409.21 1234.41,-395.06"/>
<polygon fill="#aabbaa" fill-opacity="0.533333" stroke="#aabbaa" stroke-width="1.3" stroke-opacity="0.533333" points="1237.91,-395.38 1234.41,-385.38 1230.91,-395.38 1237.91,-395.38"/>
</g>
</g>
</svg>
