<?xml version="1.0" encoding="UTF-8" standalone="no"?>
<!DOCTYPE svg PUBLIC "-//W3C//DTD SVG 1.1//EN"
 "http://www.w3.org/Graphics/SVG/1.1/DTD/svg11.dtd">
<!-- Generated by graphviz version 12.1.2 (20240928.0832)
 -->
<!-- Pages: 1 -->
<svg width="1211pt" height="595pt"
 viewBox="0.00 0.00 1211.00 595.00" xmlns="http://www.w3.org/2000/svg" xmlns:xlink="http://www.w3.org/1999/xlink">
<g id="graph0" class="graph" transform="scale(1 1) rotate(0) translate(4 591)">
<polygon fill="white" stroke="none" points="-4,4 -4,-591 1207,-591 1207,4 -4,4"/>
<g id="clust1" class="cluster">
<title>cluster~</title>
<path fill="none" stroke="lightgray" stroke-width="2.6" d="M20,-8C20,-8 1183,-8 1183,-8 1189,-8 1195,-14 1195,-20 1195,-20 1195,-567 1195,-567 1195,-573 1189,-579 1183,-579 1183,-579 20,-579 20,-579 14,-579 8,-573 8,-567 8,-567 8,-20 8,-20 8,-14 14,-8 20,-8"/>
<text text-anchor="middle" x="601.5" y="-562.65" font-family="Arial Black" font-size="13.00">cards</text>
</g>
<g id="clust2" class="cluster">
<title>cluster~/test</title>
<path fill="none" stroke="lightgray" stroke-width="2.6" d="M28,-323C28,-323 156,-323 156,-323 162,-323 168,-329 168,-335 168,-335 168,-386 168,-386 168,-392 162,-398 156,-398 156,-398 28,-398 28,-398 22,-398 16,-392 16,-386 16,-386 16,-335 16,-335 16,-329 22,-323 28,-323"/>
<text text-anchor="middle" x="92" y="-381.65" font-family="Arial Black" font-size="13.00">test</text>
</g>
<g id="clust3" class="cluster">
<title>cluster~/lib</title>
<path fill="none" stroke="lightgray" stroke-width="2.6" d="M188,-16C188,-16 1175,-16 1175,-16 1181,-16 1187,-22 1187,-28 1187,-28 1187,-536 1187,-536 1187,-542 1181,-548 1175,-548 1175,-548 188,-548 188,-548 182,-548 176,-542 176,-536 176,-536 176,-28 176,-28 176,-22 182,-16 188,-16"/>
<text text-anchor="middle" x="681.5" y="-531.65" font-family="Arial Black" font-size="13.00">lib</text>
</g>
<g id="clust4" class="cluster">
<title>cluster~/lib/models</title>
<path fill="none" stroke="lightgray" stroke-width="2.6" d="M624,-168C624,-168 718,-168 718,-168 724,-168 730,-174 730,-180 730,-180 730,-303 730,-303 730,-309 724,-315 718,-315 718,-315 624,-315 624,-315 618,-315 612,-309 612,-303 612,-303 612,-180 612,-180 612,-174 618,-168 624,-168"/>
<text text-anchor="middle" x="671" y="-298.65" font-family="Arial Black" font-size="13.00">models</text>
</g>
<g id="clust5" class="cluster">
<title>cluster~/lib/screens</title>
<path fill="none" stroke="lightgray" stroke-width="2.6" d="M332,-240C332,-240 592,-240 592,-240 598,-240 604,-246 604,-252 604,-252 604,-461 604,-461 604,-467 598,-473 592,-473 592,-473 332,-473 332,-473 326,-473 320,-467 320,-461 320,-461 320,-252 320,-252 320,-246 326,-240 332,-240"/>
<text text-anchor="middle" x="462" y="-456.65" font-family="Arial Black" font-size="13.00">screens</text>
</g>
<g id="clust6" class="cluster">
<title>cluster~/lib/widgets</title>
<path fill="none" stroke="lightgray" stroke-width="2.6" d="M762,-24C762,-24 1167,-24 1167,-24 1173,-24 1179,-30 1179,-36 1179,-36 1179,-386 1179,-386 1179,-392 1173,-398 1167,-398 1167,-398 762,-398 762,-398 756,-398 750,-392 750,-386 750,-386 750,-36 750,-36 750,-30 756,-24 762,-24"/>
<text text-anchor="middle" x="964.5" y="-381.65" font-family="Arial Black" font-size="13.00">widgets</text>
</g>
<!-- /test/game_model_test.dart -->
<g id="node1" class="node">
<title>/test/game_model_test.dart</title>
<path fill="Lavender" stroke="black" stroke-width="1.3" d="M147.62,-367C147.62,-367 36.38,-367 36.38,-367 30.38,-367 24.38,-361 24.38,-355 24.38,-355 24.38,-343 24.38,-343 24.38,-337 30.38,-331 36.38,-331 36.38,-331 147.62,-331 147.62,-331 153.62,-331 159.62,-337 159.62,-343 159.62,-343 159.62,-355 159.62,-355 159.62,-361 153.62,-367 147.62,-367"/>
<text text-anchor="middle" x="92" y="-343.75" font-family="Arial" font-size="15.00">game_model_test</text>
</g>
<!-- /lib/models/game_model.dart -->
<g id="node4" class="node">
<title>/lib/models/game_model.dart</title>
<path fill="Lavender" stroke="black" stroke-width="1.3" d="M710.12,-284C710.12,-284 631.88,-284 631.88,-284 625.88,-284 619.88,-278 619.88,-272 619.88,-272 619.88,-260 619.88,-260 619.88,-254 625.88,-248 631.88,-248 631.88,-248 710.12,-248 710.12,-248 716.12,-248 722.12,-254 722.12,-260 722.12,-260 722.12,-272 722.12,-272 722.12,-278 716.12,-284 710.12,-284"/>
<text text-anchor="middle" x="671" y="-260.75" font-family="Arial" font-size="15.00">game_model</text>
</g>
<!-- /test/game_model_test.dart&#45;&gt;/lib/models/game_model.dart -->
<g id="edge1" class="edge">
<title>/test/game_model_test.dart&#45;&gt;/lib/models/game_model.dart</title>
<path fill="none" stroke="#aabbaa" stroke-width="1.3" stroke-opacity="0.533333" d="M160,-338.91C204.33,-333.36 263.5,-326.64 316,-323 348.38,-320.75 577.39,-325.8 608,-315 621.74,-310.15 634.9,-301.09 645.6,-292.14"/>
<polygon fill="#aabbaa" fill-opacity="0.533333" stroke="#aabbaa" stroke-width="1.3" stroke-opacity="0.533333" points="647.69,-294.96 652.86,-285.71 643.05,-289.72 647.69,-294.96"/>
</g>
<!-- /lib/firebase_options_private.dart -->
<g id="node2" class="node">
<title>/lib/firebase_options_private.dart</title>
<path fill="Lavender" stroke="black" stroke-width="1.3" d="M350.38,-517C350.38,-517 195.62,-517 195.62,-517 189.62,-517 183.62,-511 183.62,-505 183.62,-505 183.62,-493 183.62,-493 183.62,-487 189.62,-481 195.62,-481 195.62,-481 350.38,-481 350.38,-481 356.38,-481 362.38,-487 362.38,-493 362.38,-493 362.38,-505 362.38,-505 362.38,-511 356.38,-517 350.38,-517"/>
<text text-anchor="middle" x="273" y="-493.75" font-family="Arial" font-size="15.00">firebase_options_private</text>
</g>
<!-- /lib/firebase_options.dart -->
<g id="node3" class="node">
<title>/lib/firebase_options.dart</title>
<path fill="Lavender" stroke="black" stroke-width="1.3" d="M297.75,-442C297.75,-442 196.25,-442 196.25,-442 190.25,-442 184.25,-436 184.25,-430 184.25,-430 184.25,-418 184.25,-418 184.25,-412 190.25,-406 196.25,-406 196.25,-406 297.75,-406 297.75,-406 303.75,-406 309.75,-412 309.75,-418 309.75,-418 309.75,-430 309.75,-430 309.75,-436 303.75,-442 297.75,-442"/>
<text text-anchor="middle" x="247" y="-418.75" font-family="Arial" font-size="15.00">firebase_options</text>
</g>
<!-- /lib/models/player.dart -->
<g id="node5" class="node">
<title>/lib/models/player.dart</title>
<path fill="Lavender" stroke="black" stroke-width="1.3" d="M710.25,-212C710.25,-212 677.75,-212 677.75,-212 671.75,-212 665.75,-206 665.75,-200 665.75,-200 665.75,-188 665.75,-188 665.75,-182 671.75,-176 677.75,-176 677.75,-176 710.25,-176 710.25,-176 716.25,-176 722.25,-182 722.25,-188 722.25,-188 722.25,-200 722.25,-200 722.25,-206 716.25,-212 710.25,-212"/>
<text text-anchor="middle" x="694" y="-188.75" font-family="Arial" font-size="15.00">player</text>
</g>
<!-- /lib/models/game_model.dart&#45;&gt;/lib/models/player.dart -->
<g id="edge2" class="edge">
<title>/lib/models/game_model.dart&#45;&gt;/lib/models/player.dart</title>
<path fill="none" stroke="#aabbaa" stroke-width="1.3" stroke-opacity="0.533333" d="M676.69,-247.7C679.11,-240.32 682,-231.52 684.72,-223.25"/>
<polygon fill="#aabbaa" fill-opacity="0.533333" stroke="#aabbaa" stroke-width="1.3" stroke-opacity="0.533333" points="687.97,-224.57 687.77,-213.97 681.32,-222.38 687.97,-224.57"/>
</g>
<!-- /lib/screens/game_over_screen.dart -->
<g id="node7" class="node">
<title>/lib/screens/game_over_screen.dart</title>
<path fill="Lavender" stroke="black" stroke-width="1.3" d="M584.12,-442C584.12,-442 463.88,-442 463.88,-442 457.88,-442 451.88,-436 451.88,-430 451.88,-430 451.88,-418 451.88,-418 451.88,-412 457.88,-406 463.88,-406 463.88,-406 584.12,-406 584.12,-406 590.12,-406 596.12,-412 596.12,-418 596.12,-418 596.12,-430 596.12,-430 596.12,-436 590.12,-442 584.12,-442"/>
<text text-anchor="middle" x="524" y="-418.75" font-family="Arial" font-size="15.00">game_over_screen</text>
</g>
<!-- /lib/models/game_model.dart&#45;&gt;/lib/screens/game_over_screen.dart -->
<g id="edge3" class="edge">
<title>/lib/models/game_model.dart&#45;&gt;/lib/screens/game_over_screen.dart</title>
<path fill="none" stroke="#aabbaa" stroke-width="1.3" stroke-opacity="0.533333" d="M665.5,-284.5C655.87,-312.42 633.31,-367.05 596,-398 595.46,-398.45 594.91,-398.89 594.35,-399.32"/>
<polygon fill="#aabbaa" fill-opacity="0.533333" stroke="#aabbaa" stroke-width="1.3" stroke-opacity="0.533333" points="592.77,-396.17 586.36,-404.6 596.63,-402.01 592.77,-396.17"/>
</g>
<!-- /lib/widgets/playing_card.dart -->
<g id="node17" class="node">
<title>/lib/widgets/playing_card.dart</title>
<path fill="Lavender" stroke="black" stroke-width="1.3" d="M872,-68C872,-68 796,-68 796,-68 790,-68 784,-62 784,-56 784,-56 784,-44 784,-44 784,-38 790,-32 796,-32 796,-32 872,-32 872,-32 878,-32 884,-38 884,-44 884,-44 884,-56 884,-56 884,-62 878,-68 872,-68"/>
<text text-anchor="middle" x="834" y="-44.75" font-family="Arial" font-size="15.00">playing_card</text>
</g>
<!-- /lib/models/game_model.dart&#45;&gt;/lib/widgets/playing_card.dart -->
<g id="edge4" class="edge">
<title>/lib/models/game_model.dart&#45;&gt;/lib/widgets/playing_card.dart</title>
<path fill="none" stroke="#aabbaa" stroke-width="1.3" stroke-opacity="0.533333" d="M663.23,-247.53C655.54,-227.59 646.33,-194.34 657,-168 676.78,-119.16 729.72,-88.37 772.59,-70.71"/>
<polygon fill="#aabbaa" fill-opacity="0.533333" stroke="#aabbaa" stroke-width="1.3" stroke-opacity="0.533333" points="773.68,-74.04 781.69,-67.11 771.11,-67.53 773.68,-74.04"/>
</g>
<!-- /lib/models/player.dart&#45;&gt;/lib/widgets/playing_card.dart -->
<g id="edge5" class="edge">
<title>/lib/models/player.dart&#45;&gt;/lib/widgets/playing_card.dart</title>
<path fill="none" stroke="#aabbaa" stroke-width="1.3" stroke-opacity="0.533333" d="M701.96,-175.68C711.4,-156.5 728.58,-125.44 750,-104 761.36,-92.62 775.59,-82.51 789.09,-74.24"/>
<polygon fill="#aabbaa" fill-opacity="0.533333" stroke="#aabbaa" stroke-width="1.3" stroke-opacity="0.533333" points="790.67,-77.37 797.51,-69.28 787.12,-71.33 790.67,-77.37"/>
</g>
<!-- /lib/screens/game_screen.dart -->
<g id="node6" class="node">
<title>/lib/screens/game_screen.dart</title>
<path fill="Lavender" stroke="black" stroke-width="1.3" d="M539.38,-367C539.38,-367 456.62,-367 456.62,-367 450.62,-367 444.62,-361 444.62,-355 444.62,-355 444.62,-343 444.62,-343 444.62,-337 450.62,-331 456.62,-331 456.62,-331 539.38,-331 539.38,-331 545.38,-331 551.38,-337 551.38,-343 551.38,-343 551.38,-355 551.38,-355 551.38,-361 545.38,-367 539.38,-367"/>
<text text-anchor="middle" x="498" y="-343.75" font-family="Arial" font-size="15.00">game_screen</text>
</g>
<!-- /lib/screens/game_screen.dart&#45;&gt;/lib/models/game_model.dart -->
<g id="edge6" class="edge">
<title>/lib/screens/game_screen.dart&#45;&gt;/lib/models/game_model.dart</title>
<path fill="none" stroke="#aabbaa" stroke-width="1.3" stroke-opacity="0.533333" d="M551.8,-332.79C576.93,-325.51 602.54,-317.78 608,-315 620.29,-308.74 632.62,-300.02 643.07,-291.72"/>
<polygon fill="#aabbaa" fill-opacity="0.533333" stroke="#aabbaa" stroke-width="1.3" stroke-opacity="0.533333" points="645.07,-294.61 650.57,-285.56 640.62,-289.2 645.07,-294.61"/>
</g>
<!-- /lib/screens/screen.dart -->
<g id="node9" class="node">
<title>/lib/screens/screen.dart</title>
<path fill="Lavender" stroke="black" stroke-width="1.3" d="M468.5,-284C468.5,-284 431.5,-284 431.5,-284 425.5,-284 419.5,-278 419.5,-272 419.5,-272 419.5,-260 419.5,-260 419.5,-254 425.5,-248 431.5,-248 431.5,-248 468.5,-248 468.5,-248 474.5,-248 480.5,-254 480.5,-260 480.5,-260 480.5,-272 480.5,-272 480.5,-278 474.5,-284 468.5,-284"/>
<text text-anchor="middle" x="450" y="-260.75" font-family="Arial" font-size="15.00">screen</text>
</g>
<!-- /lib/screens/game_screen.dart&#45;&gt;/lib/screens/screen.dart -->
<g id="edge7" class="edge">
<title>/lib/screens/game_screen.dart&#45;&gt;/lib/screens/screen.dart</title>
<path fill="none" stroke="#aabbaa" stroke-width="1.3" stroke-opacity="0.533333" d="M487.82,-330.82C481.56,-320.26 473.4,-306.49 466.27,-294.45"/>
<polygon fill="#aabbaa" fill-opacity="0.533333" stroke="#aabbaa" stroke-width="1.3" stroke-opacity="0.533333" points="469.44,-292.94 461.33,-286.13 463.42,-296.51 469.44,-292.94"/>
</g>
<!-- /lib/widgets/player_zone.dart -->
<g id="node16" class="node">
<title>/lib/widgets/player_zone.dart</title>
<path fill="Lavender" stroke="black" stroke-width="1.3" d="M1075.5,-367C1075.5,-367 1002.5,-367 1002.5,-367 996.5,-367 990.5,-361 990.5,-355 990.5,-355 990.5,-343 990.5,-343 990.5,-337 996.5,-331 1002.5,-331 1002.5,-331 1075.5,-331 1075.5,-331 1081.5,-331 1087.5,-337 1087.5,-343 1087.5,-343 1087.5,-355 1087.5,-355 1087.5,-361 1081.5,-367 1075.5,-367"/>
<text text-anchor="middle" x="1039" y="-343.75" font-family="Arial" font-size="15.00">player_zone</text>
</g>
<!-- /lib/screens/game_screen.dart&#45;&gt;/lib/widgets/player_zone.dart -->
<g id="edge8" class="edge">
<title>/lib/screens/game_screen.dart&#45;&gt;/lib/widgets/player_zone.dart</title>
<path fill="none" stroke="#aabbaa" stroke-width="1.3" stroke-opacity="0.533333" d="M551.65,-363.39C603.3,-376.45 683.85,-394.74 755,-402 778.99,-404.45 948.41,-407.01 972,-402 988.88,-398.42 1004.25,-387.15 1016.01,-375.91"/>
<polygon fill="#aabbaa" fill-opacity="0.533333" stroke="#aabbaa" stroke-width="1.3" stroke-opacity="0.533333" points="1018.4,-378.47 1022.88,-368.87 1013.39,-373.58 1018.4,-378.47"/>
</g>
<!-- /lib/screens/game_over_screen.dart&#45;&gt;/lib/models/player.dart -->
<g id="edge9" class="edge">
<title>/lib/screens/game_over_screen.dart&#45;&gt;/lib/models/player.dart</title>
<path fill="none" stroke="#aabbaa" stroke-width="1.3" stroke-opacity="0.533333" d="M596.51,-409.96C607.34,-406.77 618.17,-402.84 628,-398 680.76,-372.05 705.63,-368.03 731,-315 745.39,-284.93 742.24,-271.38 731,-240 728.64,-233.41 724.85,-227.1 720.58,-221.39"/>
<polygon fill="#aabbaa" fill-opacity="0.533333" stroke="#aabbaa" stroke-width="1.3" stroke-opacity="0.533333" points="723.46,-219.37 714.37,-213.93 718.08,-223.85 723.46,-219.37"/>
</g>
<!-- /lib/screens/setup_screen.dart -->
<g id="node8" class="node">
<title>/lib/screens/setup_screen.dart</title>
<path fill="Lavender" stroke="black" stroke-width="1.3" d="M422,-442C422,-442 340,-442 340,-442 334,-442 328,-436 328,-430 328,-430 328,-418 328,-418 328,-412 334,-406 340,-406 340,-406 422,-406 422,-406 428,-406 434,-412 434,-418 434,-418 434,-430 434,-430 434,-436 428,-442 422,-442"/>
<text text-anchor="middle" x="381" y="-418.75" font-family="Arial" font-size="15.00">setup_screen</text>
</g>
<!-- /lib/screens/setup_screen.dart&#45;&gt;/lib/models/game_model.dart -->
<g id="edge10" class="edge">
<title>/lib/screens/setup_screen.dart&#45;&gt;/lib/models/game_model.dart</title>
<path fill="none" stroke="#aabbaa" stroke-width="1.3" stroke-opacity="0.533333" d="M434.28,-407.67C437.22,-407.05 440.14,-406.49 443,-406 468.69,-401.64 538.43,-412.62 560,-398 590.6,-377.25 571.75,-350.92 596,-323 600.2,-318.16 602.78,-318.72 608,-315 618.33,-307.63 629.39,-299.34 639.32,-291.75"/>
<polygon fill="#aabbaa" fill-opacity="0.533333" stroke="#aabbaa" stroke-width="1.3" stroke-opacity="0.533333" points="641.46,-294.53 647.25,-285.65 637.19,-288.98 641.46,-294.53"/>
</g>
<!-- /lib/screens/setup_screen.dart&#45;&gt;/lib/screens/game_screen.dart -->
<g id="edge11" class="edge">
<title>/lib/screens/setup_screen.dart&#45;&gt;/lib/screens/game_screen.dart</title>
<path fill="none" stroke="#aabbaa" stroke-width="1.3" stroke-opacity="0.533333" d="M409.02,-405.51C424.36,-395.94 443.58,-383.95 460.23,-373.57"/>
<polygon fill="#aabbaa" fill-opacity="0.533333" stroke="#aabbaa" stroke-width="1.3" stroke-opacity="0.533333" points="461.9,-376.65 468.53,-368.38 458.2,-370.71 461.9,-376.65"/>
</g>
<!-- /lib/screens/setup_screen.dart&#45;&gt;/lib/screens/screen.dart -->
<g id="edge12" class="edge">
<title>/lib/screens/setup_screen.dart&#45;&gt;/lib/screens/screen.dart</title>
<path fill="none" stroke="#aabbaa" stroke-width="1.3" stroke-opacity="0.533333" d="M388.65,-405.71C400.46,-379 423.26,-327.45 437.5,-295.27"/>
<polygon fill="#aabbaa" fill-opacity="0.533333" stroke="#aabbaa" stroke-width="1.3" stroke-opacity="0.533333" points="440.68,-296.73 441.52,-286.17 434.28,-293.9 440.68,-296.73"/>
</g>
<!-- /lib/widgets/list_players.dart -->
<g id="node12" class="node">
<title>/lib/widgets/list_players.dart</title>
<path fill="Lavender" stroke="black" stroke-width="1.3" d="M836.12,-367C836.12,-367 769.88,-367 769.88,-367 763.88,-367 757.88,-361 757.88,-355 757.88,-355 757.88,-343 757.88,-343 757.88,-337 763.88,-331 769.88,-331 769.88,-331 836.12,-331 836.12,-331 842.12,-331 848.12,-337 848.12,-343 848.12,-343 848.12,-355 848.12,-355 848.12,-361 842.12,-367 836.12,-367"/>
<text text-anchor="middle" x="803" y="-343.75" font-family="Arial" font-size="15.00">list_players</text>
</g>
<!-- /lib/screens/setup_screen.dart&#45;&gt;/lib/widgets/list_players.dart -->
<g id="edge13" class="edge">
<title>/lib/screens/setup_screen.dart&#45;&gt;/lib/widgets/list_players.dart</title>
<path fill="none" stroke="#aabbaa" stroke-width="1.3" stroke-opacity="0.533333" d="M434.27,-407.6C437.21,-407 440.13,-406.46 443,-406 515.5,-394.45 535.35,-408.6 608,-398 655.05,-391.13 707.32,-377.96 745.89,-367.15"/>
<polygon fill="#aabbaa" fill-opacity="0.533333" stroke="#aabbaa" stroke-width="1.3" stroke-opacity="0.533333" points="746.84,-370.51 755.5,-364.41 744.93,-363.78 746.84,-370.51"/>
</g>
<!-- /lib/widgets/text_url.dart -->
<g id="node21" class="node">
<title>/lib/widgets/text_url.dart</title>
<path fill="Lavender" stroke="black" stroke-width="1.3" d="M1158.75,-367C1158.75,-367 1117.25,-367 1117.25,-367 1111.25,-367 1105.25,-361 1105.25,-355 1105.25,-355 1105.25,-343 1105.25,-343 1105.25,-337 1111.25,-331 1117.25,-331 1117.25,-331 1158.75,-331 1158.75,-331 1164.75,-331 1170.75,-337 1170.75,-343 1170.75,-343 1170.75,-355 1170.75,-355 1170.75,-361 1164.75,-367 1158.75,-367"/>
<text text-anchor="middle" x="1138" y="-343.75" font-family="Arial" font-size="15.00">text_url</text>
</g>
<!-- /lib/screens/setup_screen.dart&#45;&gt;/lib/widgets/text_url.dart -->
<g id="edge14" class="edge">
<title>/lib/screens/setup_screen.dart&#45;&gt;/lib/widgets/text_url.dart</title>
<path fill="none" stroke="#aabbaa" stroke-width="1.3" stroke-opacity="0.533333" d="M434.25,-407.47C437.2,-406.9 440.13,-406.4 443,-406 460.99,-403.47 1080.55,-405.71 1097,-398 1106.84,-393.39 1115.21,-385.15 1121.78,-376.78"/>
<polygon fill="#aabbaa" fill-opacity="0.533333" stroke="#aabbaa" stroke-width="1.3" stroke-opacity="0.533333" points="1124.57,-378.89 1127.49,-368.71 1118.85,-374.85 1124.57,-378.89"/>
</g>
<!-- /lib/main.dart -->
<g id="node10" class="node">
<title>/lib/main.dart</title>
<path fill="Lavender" stroke="black" stroke-width="1.3" d="M422,-517C422,-517 392,-517 392,-517 386,-517 380,-511 380,-505 380,-505 380,-493 380,-493 380,-487 386,-481 392,-481 392,-481 422,-481 422,-481 428,-481 434,-487 434,-493 434,-493 434,-505 434,-505 434,-511 428,-517 422,-517"/>
<text text-anchor="middle" x="407" y="-493.75" font-family="Arial" font-size="15.00">main</text>
</g>
<!-- /lib/main.dart&#45;&gt;/lib/firebase_options.dart -->
<g id="edge15" class="edge">
<title>/lib/main.dart&#45;&gt;/lib/firebase_options.dart</title>
<path fill="none" stroke="#aabbaa" stroke-width="1.3" stroke-opacity="0.533333" d="M379.82,-484.14C376.89,-482.96 373.91,-481.88 371,-481 347.35,-473.87 338.97,-482.07 316,-473 301.79,-467.39 287.66,-458.34 275.93,-449.6"/>
<polygon fill="#aabbaa" fill-opacity="0.533333" stroke="#aabbaa" stroke-width="1.3" stroke-opacity="0.533333" points="278.28,-447 268.24,-443.63 273.99,-452.53 278.28,-447"/>
</g>
<!-- /lib/main.dart&#45;&gt;/lib/screens/setup_screen.dart -->
<g id="edge16" class="edge">
<title>/lib/main.dart&#45;&gt;/lib/screens/setup_screen.dart</title>
<path fill="none" stroke="#aabbaa" stroke-width="1.3" stroke-opacity="0.533333" d="M400.84,-480.7C397.95,-472.58 394.42,-462.68 391.15,-453.5"/>
<polygon fill="#aabbaa" fill-opacity="0.533333" stroke="#aabbaa" stroke-width="1.3" stroke-opacity="0.533333" points="394.52,-452.53 387.87,-444.28 387.93,-454.88 394.52,-452.53"/>
</g>
<!-- /lib/widgets/blink.dart -->
<g id="node11" class="node">
<title>/lib/widgets/blink.dart</title>
<path fill="Lavender" stroke="black" stroke-width="1.3" d="M998,-140C998,-140 968,-140 968,-140 962,-140 956,-134 956,-128 956,-128 956,-116 956,-116 956,-110 962,-104 968,-104 968,-104 998,-104 998,-104 1004,-104 1010,-110 1010,-116 1010,-116 1010,-128 1010,-128 1010,-134 1004,-140 998,-140"/>
<text text-anchor="middle" x="983" y="-116.75" font-family="Arial" font-size="15.00">blink</text>
</g>
<!-- /lib/widgets/playing_card_widget.dart -->
<g id="node13" class="node">
<title>/lib/widgets/playing_card_widget.dart</title>
<path fill="Lavender" stroke="black" stroke-width="1.3" d="M897.5,-140C897.5,-140 770.5,-140 770.5,-140 764.5,-140 758.5,-134 758.5,-128 758.5,-128 758.5,-116 758.5,-116 758.5,-110 764.5,-104 770.5,-104 770.5,-104 897.5,-104 897.5,-104 903.5,-104 909.5,-110 909.5,-116 909.5,-116 909.5,-128 909.5,-128 909.5,-134 903.5,-140 897.5,-140"/>
<text text-anchor="middle" x="834" y="-116.75" font-family="Arial" font-size="15.00">playing_card_widget</text>
</g>
<!-- /lib/widgets/playing_card_widget.dart&#45;&gt;/lib/widgets/playing_card.dart -->
<g id="edge17" class="edge">
<title>/lib/widgets/playing_card_widget.dart&#45;&gt;/lib/widgets/playing_card.dart</title>
<path fill="none" stroke="#aabbaa" stroke-width="1.3" stroke-opacity="0.533333" d="M834,-103.7C834,-96.49 834,-87.93 834,-79.82"/>
<polygon fill="#aabbaa" fill-opacity="0.533333" stroke="#aabbaa" stroke-width="1.3" stroke-opacity="0.533333" points="837.5,-80.07 834,-70.07 830.5,-80.07 837.5,-80.07"/>
</g>
<!-- /lib/widgets/table_surface.dart -->
<g id="node14" class="node">
<title>/lib/widgets/table_surface.dart</title>
<path fill="Lavender" stroke="black" stroke-width="1.3" d="M960,-367C960,-367 878,-367 878,-367 872,-367 866,-361 866,-355 866,-355 866,-343 866,-343 866,-337 872,-331 878,-331 878,-331 960,-331 960,-331 966,-331 972,-337 972,-343 972,-343 972,-355 972,-355 972,-361 966,-367 960,-367"/>
<text text-anchor="middle" x="919" y="-343.75" font-family="Arial" font-size="15.00">table_surface</text>
</g>
<!-- /lib/widgets/blinking_text.dart -->
<g id="node15" class="node">
<title>/lib/widgets/blinking_text.dart</title>
<path fill="Lavender" stroke="black" stroke-width="1.3" d="M1028.25,-212C1028.25,-212 953.75,-212 953.75,-212 947.75,-212 941.75,-206 941.75,-200 941.75,-200 941.75,-188 941.75,-188 941.75,-182 947.75,-176 953.75,-176 953.75,-176 1028.25,-176 1028.25,-176 1034.25,-176 1040.25,-182 1040.25,-188 1040.25,-188 1040.25,-200 1040.25,-200 1040.25,-206 1034.25,-212 1028.25,-212"/>
<text text-anchor="middle" x="991" y="-188.75" font-family="Arial" font-size="15.00">blinking_text</text>
</g>
<!-- /lib/widgets/blinking_text.dart&#45;&gt;/lib/widgets/blink.dart -->
<g id="edge18" class="edge">
<title>/lib/widgets/blinking_text.dart&#45;&gt;/lib/widgets/blink.dart</title>
<path fill="none" stroke="#aabbaa" stroke-width="1.3" stroke-opacity="0.533333" d="M989.02,-175.7C988.2,-168.49 987.22,-159.93 986.29,-151.82"/>
<polygon fill="#aabbaa" fill-opacity="0.533333" stroke="#aabbaa" stroke-width="1.3" stroke-opacity="0.533333" points="989.79,-151.6 985.18,-142.06 982.84,-152.39 989.79,-151.6"/>
</g>
<!-- /lib/widgets/player_zone.dart&#45;&gt;/lib/models/game_model.dart -->
<g id="edge19" class="edge">
<title>/lib/widgets/player_zone.dart&#45;&gt;/lib/models/game_model.dart</title>
<path fill="none" stroke="#aabbaa" stroke-width="1.3" stroke-opacity="0.533333" d="M1004.43,-330.62C996.88,-327.54 988.81,-324.75 981,-323 930.01,-311.57 795.89,-330.53 746,-315 729.89,-309.99 713.87,-300.52 700.81,-291.31"/>
<polygon fill="#aabbaa" fill-opacity="0.533333" stroke="#aabbaa" stroke-width="1.3" stroke-opacity="0.533333" points="703.15,-288.68 693.03,-285.56 698.99,-294.32 703.15,-288.68"/>
</g>
<!-- /lib/widgets/player_zone.dart&#45;&gt;/lib/models/player.dart -->
<g id="edge20" class="edge">
<title>/lib/widgets/player_zone.dart&#45;&gt;/lib/models/player.dart</title>
<path fill="none" stroke="#aabbaa" stroke-width="1.3" stroke-opacity="0.533333" d="M1004.12,-330.53C996.66,-327.49 988.7,-324.75 981,-323 958.77,-317.96 794.62,-328.15 776,-315 746.67,-294.3 766.83,-269.24 746,-240 740.9,-232.85 734.44,-226.09 727.82,-220.09"/>
<polygon fill="#aabbaa" fill-opacity="0.533333" stroke="#aabbaa" stroke-width="1.3" stroke-opacity="0.533333" points="730.19,-217.51 720.31,-213.69 725.65,-222.84 730.19,-217.51"/>
</g>
<!-- /lib/widgets/player_zone.dart&#45;&gt;/lib/widgets/playing_card_widget.dart -->
<g id="edge24" class="edge">
<title>/lib/widgets/player_zone.dart&#45;&gt;/lib/widgets/playing_card_widget.dart</title>
<path fill="none" stroke="#aabbaa" stroke-width="1.3" stroke-opacity="0.533333" d="M1004.1,-330.59C996.64,-327.55 988.69,-324.79 981,-323 963.66,-318.97 834.39,-326.73 821,-315 771.44,-271.6 781.96,-230.76 802,-168 804,-161.72 807.24,-155.57 810.9,-149.93"/>
<polygon fill="#aabbaa" fill-opacity="0.533333" stroke="#aabbaa" stroke-width="1.3" stroke-opacity="0.533333" points="813.61,-152.16 816.62,-142.01 807.93,-148.06 813.61,-152.16"/>
</g>
<!-- /lib/widgets/player_zone.dart&#45;&gt;/lib/widgets/playing_card.dart -->
<g id="edge23" class="edge">
<title>/lib/widgets/player_zone.dart&#45;&gt;/lib/widgets/playing_card.dart</title>
<path fill="none" stroke="#aabbaa" stroke-width="1.3" stroke-opacity="0.533333" d="M1041.17,-330.61C1045.82,-291.69 1055.82,-198.63 1049,-168 1042.17,-137.34 1042.91,-124.38 1019,-104 984.78,-74.84 935.41,-61.69 896.28,-55.78"/>
<polygon fill="#aabbaa" fill-opacity="0.533333" stroke="#aabbaa" stroke-width="1.3" stroke-opacity="0.533333" points="896.82,-52.32 886.44,-54.43 895.87,-59.25 896.82,-52.32"/>
</g>
<!-- /lib/widgets/player_zone_cta.dart -->
<g id="node19" class="node">
<title>/lib/widgets/player_zone_cta.dart</title>
<path fill="Lavender" stroke="black" stroke-width="1.3" d="M943.75,-284C943.75,-284 842.25,-284 842.25,-284 836.25,-284 830.25,-278 830.25,-272 830.25,-272 830.25,-260 830.25,-260 830.25,-254 836.25,-248 842.25,-248 842.25,-248 943.75,-248 943.75,-248 949.75,-248 955.75,-254 955.75,-260 955.75,-260 955.75,-272 955.75,-272 955.75,-278 949.75,-284 943.75,-284"/>
<text text-anchor="middle" x="893" y="-260.75" font-family="Arial" font-size="15.00">player_zone_cta</text>
</g>
<!-- /lib/widgets/player_zone.dart&#45;&gt;/lib/widgets/player_zone_cta.dart -->
<g id="edge22" class="edge">
<title>/lib/widgets/player_zone.dart&#45;&gt;/lib/widgets/player_zone_cta.dart</title>
<path fill="none" stroke="#aabbaa" stroke-width="1.3" stroke-opacity="0.533333" d="M1007.68,-330.62C986.39,-318.81 957.99,-303.05 934.78,-290.18"/>
<polygon fill="#aabbaa" fill-opacity="0.533333" stroke="#aabbaa" stroke-width="1.3" stroke-opacity="0.533333" points="936.68,-287.23 926.24,-285.44 933.29,-293.35 936.68,-287.23"/>
</g>
<!-- /lib/widgets/player_header.dart -->
<g id="node20" class="node">
<title>/lib/widgets/player_header.dart</title>
<path fill="Lavender" stroke="black" stroke-width="1.3" d="M1158.62,-284C1158.62,-284 1071.38,-284 1071.38,-284 1065.38,-284 1059.38,-278 1059.38,-272 1059.38,-272 1059.38,-260 1059.38,-260 1059.38,-254 1065.38,-248 1071.38,-248 1071.38,-248 1158.62,-248 1158.62,-248 1164.62,-248 1170.62,-254 1170.62,-260 1170.62,-260 1170.62,-272 1170.62,-272 1170.62,-278 1164.62,-284 1158.62,-284"/>
<text text-anchor="middle" x="1115" y="-260.75" font-family="Arial" font-size="15.00">player_header</text>
</g>
<!-- /lib/widgets/player_zone.dart&#45;&gt;/lib/widgets/player_header.dart -->
<g id="edge21" class="edge">
<title>/lib/widgets/player_zone.dart&#45;&gt;/lib/widgets/player_header.dart</title>
<path fill="none" stroke="#aabbaa" stroke-width="1.3" stroke-opacity="0.533333" d="M1055.12,-330.82C1065.43,-319.84 1078.99,-305.38 1090.61,-293"/>
<polygon fill="#aabbaa" fill-opacity="0.533333" stroke="#aabbaa" stroke-width="1.3" stroke-opacity="0.533333" points="1093.01,-295.55 1097.3,-285.87 1087.9,-290.77 1093.01,-295.55"/>
</g>
<!-- /lib/widgets/card_piles.dart -->
<g id="node18" class="node">
<title>/lib/widgets/card_piles.dart</title>
<path fill="Lavender" stroke="black" stroke-width="1.3" d="M891.75,-212C891.75,-212 832.25,-212 832.25,-212 826.25,-212 820.25,-206 820.25,-200 820.25,-200 820.25,-188 820.25,-188 820.25,-182 826.25,-176 832.25,-176 832.25,-176 891.75,-176 891.75,-176 897.75,-176 903.75,-182 903.75,-188 903.75,-188 903.75,-200 903.75,-200 903.75,-206 897.75,-212 891.75,-212"/>
<text text-anchor="middle" x="862" y="-188.75" font-family="Arial" font-size="15.00">card_piles</text>
</g>
<!-- /lib/widgets/card_piles.dart&#45;&gt;/lib/widgets/playing_card_widget.dart -->
<g id="edge26" class="edge">
<title>/lib/widgets/card_piles.dart&#45;&gt;/lib/widgets/playing_card_widget.dart</title>
<path fill="none" stroke="#aabbaa" stroke-width="1.3" stroke-opacity="0.533333" d="M855.08,-175.7C852.09,-168.24 848.53,-159.32 845.19,-150.97"/>
<polygon fill="#aabbaa" fill-opacity="0.533333" stroke="#aabbaa" stroke-width="1.3" stroke-opacity="0.533333" points="848.54,-149.92 841.57,-141.93 842.04,-152.52 848.54,-149.92"/>
</g>
<!-- /lib/widgets/card_piles.dart&#45;&gt;/lib/widgets/playing_card.dart -->
<g id="edge25" class="edge">
<title>/lib/widgets/card_piles.dart&#45;&gt;/lib/widgets/playing_card.dart</title>
<path fill="none" stroke="#aabbaa" stroke-width="1.3" stroke-opacity="0.533333" d="M888.88,-175.68C900.45,-166.6 912.74,-154.37 919,-140 925.39,-125.33 926.76,-117.99 919,-104 912.21,-91.76 901.29,-81.98 889.51,-74.32"/>
<polygon fill="#aabbaa" fill-opacity="0.533333" stroke="#aabbaa" stroke-width="1.3" stroke-opacity="0.533333" points="891.56,-71.47 881.17,-69.38 887.99,-77.49 891.56,-71.47"/>
</g>
<!-- /lib/widgets/player_zone_cta.dart&#45;&gt;/lib/models/game_model.dart -->
<g id="edge27" class="edge">
<title>/lib/widgets/player_zone_cta.dart&#45;&gt;/lib/models/game_model.dart</title>
<path fill="none" stroke="#aabbaa" stroke-width="1.3" stroke-opacity="0.533333" d="M829.76,-266C797.95,-266 766.13,-266 734.32,-266"/>
<polygon fill="#aabbaa" fill-opacity="0.533333" stroke="#aabbaa" stroke-width="1.3" stroke-opacity="0.533333" points="734.57,-262.5 724.57,-266 734.57,-269.5 734.57,-262.5"/>
</g>
<!-- /lib/widgets/player_zone_cta.dart&#45;&gt;/lib/widgets/blink.dart -->
<g id="edge28" class="edge">
<title>/lib/widgets/player_zone_cta.dart&#45;&gt;/lib/widgets/blink.dart</title>
<path fill="none" stroke="#aabbaa" stroke-width="1.3" stroke-opacity="0.533333" d="M899.57,-247.92C909.62,-221.96 928.17,-174.85 933,-168 938,-160.92 944.31,-154.15 950.74,-148.13"/>
<polygon fill="#aabbaa" fill-opacity="0.533333" stroke="#aabbaa" stroke-width="1.3" stroke-opacity="0.533333" points="952.83,-150.95 958.01,-141.7 948.2,-145.7 952.83,-150.95"/>
</g>
<!-- /lib/widgets/player_zone_cta.dart&#45;&gt;/lib/widgets/playing_card_widget.dart -->
<g id="edge31" class="edge">
<title>/lib/widgets/player_zone_cta.dart&#45;&gt;/lib/widgets/playing_card_widget.dart</title>
<path fill="none" stroke="#aabbaa" stroke-width="1.3" stroke-opacity="0.533333" d="M849.52,-247.51C834.54,-239.13 819.43,-227.48 811,-212 800.64,-192.96 807.74,-169.08 816.7,-150.84"/>
<polygon fill="#aabbaa" fill-opacity="0.533333" stroke="#aabbaa" stroke-width="1.3" stroke-opacity="0.533333" points="819.78,-152.51 821.44,-142.05 813.62,-149.19 819.78,-152.51"/>
</g>
<!-- /lib/widgets/player_zone_cta.dart&#45;&gt;/lib/widgets/blinking_text.dart -->
<g id="edge29" class="edge">
<title>/lib/widgets/player_zone_cta.dart&#45;&gt;/lib/widgets/blinking_text.dart</title>
<path fill="none" stroke="#aabbaa" stroke-width="1.3" stroke-opacity="0.533333" d="M917.48,-247.52C929.49,-238.93 944.16,-228.46 957.23,-219.12"/>
<polygon fill="#aabbaa" fill-opacity="0.533333" stroke="#aabbaa" stroke-width="1.3" stroke-opacity="0.533333" points="959.13,-222.06 965.23,-213.4 955.06,-216.37 959.13,-222.06"/>
</g>
<!-- /lib/widgets/player_zone_cta.dart&#45;&gt;/lib/widgets/card_piles.dart -->
<g id="edge30" class="edge">
<title>/lib/widgets/player_zone_cta.dart&#45;&gt;/lib/widgets/card_piles.dart</title>
<path fill="none" stroke="#aabbaa" stroke-width="1.3" stroke-opacity="0.533333" d="M885.34,-247.7C882.03,-240.24 878.09,-231.32 874.38,-222.97"/>
<polygon fill="#aabbaa" fill-opacity="0.533333" stroke="#aabbaa" stroke-width="1.3" stroke-opacity="0.533333" points="877.62,-221.63 870.37,-213.9 871.22,-224.46 877.62,-221.63"/>
</g>
</g>
</svg>
