<?xml version="1.0" encoding="UTF-8" standalone="no"?>
<!DOCTYPE svg PUBLIC "-//W3C//DTD SVG 1.1//EN"
 "http://www.w3.org/Graphics/SVG/1.1/DTD/svg11.dtd">
<!-- Generated by graphviz version 12.1.2 (20240928.0832)
 -->
<!-- Pages: 1 -->
<svg width="1156pt" height="754pt"
 viewBox="0.00 0.00 1156.00 753.50" xmlns="http://www.w3.org/2000/svg" xmlns:xlink="http://www.w3.org/1999/xlink">
<g id="graph0" class="graph" transform="scale(1 1) rotate(0) translate(4 749.5)">
<polygon fill="white" stroke="none" points="-4,4 -4,-749.5 1152,-749.5 1152,4 -4,4"/>
<g id="clust1" class="cluster">
<title>cluster~</title>
<path fill="none" stroke="lightgray" stroke-width="2.6" d="M20,-8C20,-8 1128,-8 1128,-8 1134,-8 1140,-14 1140,-20 1140,-20 1140,-725.5 1140,-725.5 1140,-731.5 1134,-737.5 1128,-737.5 1128,-737.5 20,-737.5 20,-737.5 14,-737.5 8,-731.5 8,-725.5 8,-725.5 8,-20 8,-20 8,-14 14,-8 20,-8"/>
<text text-anchor="middle" x="574" y="-721.15" font-family="Arial Black" font-size="13.00">cards</text>
</g>
<g id="clust2" class="cluster">
<title>cluster~/lib</title>
<path fill="none" stroke="lightgray" stroke-width="2.6" d="M28,-16C28,-16 1120,-16 1120,-16 1126,-16 1132,-22 1132,-28 1132,-28 1132,-690 1132,-690 1132,-696 1126,-702 1120,-702 1120,-702 28,-702 28,-702 22,-702 16,-696 16,-690 16,-690 16,-28 16,-28 16,-22 22,-16 28,-16"/>
<text text-anchor="middle" x="574" y="-685.65" font-family="Arial Black" font-size="13.00">lib</text>
</g>
<g id="clust3" class="cluster">
<title>cluster~/lib/models</title>
<path fill="none" stroke="lightgray" stroke-width="2.6" d="M36,-24C36,-24 388,-24 388,-24 394,-24 400,-30 400,-36 400,-36 400,-235.5 400,-235.5 400,-241.5 394,-247.5 388,-247.5 388,-247.5 36,-247.5 36,-247.5 30,-247.5 24,-241.5 24,-235.5 24,-235.5 24,-36 24,-36 24,-30 30,-24 36,-24"/>
<text text-anchor="middle" x="212" y="-231.15" font-family="Arial Black" font-size="13.00">models</text>
</g>
<g id="clust4" class="cluster">
<title>cluster~/lib/screens</title>
<path fill="none" stroke="lightgray" stroke-width="2.6" d="M197,-391.5C197,-391.5 315,-391.5 315,-391.5 321,-391.5 327,-397.5 327,-403.5 327,-403.5 327,-610.5 327,-610.5 327,-616.5 321,-622.5 315,-622.5 315,-622.5 197,-622.5 197,-622.5 191,-622.5 185,-616.5 185,-610.5 185,-610.5 185,-403.5 185,-403.5 185,-397.5 191,-391.5 197,-391.5"/>
<text text-anchor="middle" x="256" y="-606.15" font-family="Arial Black" font-size="13.00">screens</text>
</g>
<g id="clust5" class="cluster">
<title>cluster~/lib/widgets</title>
<path fill="none" stroke="lightgray" stroke-width="2.6" d="M420,-96C420,-96 1112,-96 1112,-96 1118,-96 1124,-102 1124,-108 1124,-108 1124,-459 1124,-459 1124,-465 1118,-471 1112,-471 1112,-471 420,-471 420,-471 414,-471 408,-465 408,-459 408,-459 408,-108 408,-108 408,-102 414,-96 420,-96"/>
<text text-anchor="middle" x="766" y="-454.65" font-family="Arial Black" font-size="13.00">widgets</text>
</g>
<!-- /lib/main.dart -->
<g id="node1" class="node">
<title>/lib/main.dart</title>
<path fill="Lavender" stroke="black" stroke-width="1.3" d="M258,-666.5C258,-666.5 228,-666.5 228,-666.5 222,-666.5 216,-660.5 216,-654.5 216,-654.5 216,-642.5 216,-642.5 216,-636.5 222,-630.5 228,-630.5 228,-630.5 258,-630.5 258,-630.5 264,-630.5 270,-636.5 270,-642.5 270,-642.5 270,-654.5 270,-654.5 270,-660.5 264,-666.5 258,-666.5"/>
<text text-anchor="middle" x="243" y="-643.25" font-family="Arial" font-size="15.00">main</text>
</g>
<!-- /lib/screens/start_screen.dart -->
<g id="node11" class="node">
<title>/lib/screens/start_screen.dart</title>
<path fill="Lavender" stroke="black" stroke-width="1.3" d="M280.62,-587C280.62,-587 205.38,-587 205.38,-587 199.38,-587 193.38,-581 193.38,-575 193.38,-575 193.38,-563 193.38,-563 193.38,-557 199.38,-551 205.38,-551 205.38,-551 280.62,-551 280.62,-551 286.62,-551 292.62,-557 292.62,-563 292.62,-563 292.62,-575 292.62,-575 292.62,-581 286.62,-587 280.62,-587"/>
<text text-anchor="middle" x="243" y="-563.75" font-family="Arial" font-size="15.00">start_screen</text>
</g>
<!-- /lib/main.dart&#45;&gt;/lib/screens/start_screen.dart -->
<g id="edge1" class="edge">
<title>/lib/main.dart&#45;&gt;/lib/screens/start_screen.dart</title>
<path fill="none" stroke="#aabbaa" stroke-width="1.3" stroke-opacity="0.533333" d="M243,-630.3C243,-621.13 243,-609.61 243,-599.09"/>
<polygon fill="#aabbaa" fill-opacity="0.533333" stroke="#aabbaa" stroke-width="1.3" stroke-opacity="0.533333" points="246.5,-599.39 243,-589.39 239.5,-599.39 246.5,-599.39"/>
</g>
<!-- /lib/models/backend_model.dart -->
<g id="node2" class="node">
<title>/lib/models/backend_model.dart</title>
<path fill="Lavender" stroke="black" stroke-width="1.3" d="M141.5,-140C141.5,-140 44.5,-140 44.5,-140 38.5,-140 32.5,-134 32.5,-128 32.5,-128 32.5,-116 32.5,-116 32.5,-110 38.5,-104 44.5,-104 44.5,-104 141.5,-104 141.5,-104 147.5,-104 153.5,-110 153.5,-116 153.5,-116 153.5,-128 153.5,-128 153.5,-134 147.5,-140 141.5,-140"/>
<text text-anchor="middle" x="93" y="-116.75" font-family="Arial" font-size="15.00">backend_model</text>
</g>
<!-- /lib/models/firebase_options.dart -->
<g id="node5" class="node">
<title>/lib/models/firebase_options.dart</title>
<path fill="Lavender" stroke="black" stroke-width="1.3" d="M145.75,-68C145.75,-68 44.25,-68 44.25,-68 38.25,-68 32.25,-62 32.25,-56 32.25,-56 32.25,-44 32.25,-44 32.25,-38 38.25,-32 44.25,-32 44.25,-32 145.75,-32 145.75,-32 151.75,-32 157.75,-38 157.75,-44 157.75,-44 157.75,-56 157.75,-56 157.75,-62 151.75,-68 145.75,-68"/>
<text text-anchor="middle" x="95" y="-44.75" font-family="Arial" font-size="15.00">firebase_options</text>
</g>
<!-- /lib/models/backend_model.dart&#45;&gt;/lib/models/firebase_options.dart -->
<g id="edge2" class="edge">
<title>/lib/models/backend_model.dart&#45;&gt;/lib/models/firebase_options.dart</title>
<path fill="none" stroke="#aabbaa" stroke-width="1.3" stroke-opacity="0.533333" d="M93.49,-103.7C93.7,-96.49 93.94,-87.93 94.18,-79.82"/>
<polygon fill="#aabbaa" fill-opacity="0.533333" stroke="#aabbaa" stroke-width="1.3" stroke-opacity="0.533333" points="97.67,-80.17 94.46,-70.07 90.67,-79.97 97.67,-80.17"/>
</g>
<!-- /lib/models/card_model.dart -->
<g id="node3" class="node">
<title>/lib/models/card_model.dart</title>
<path fill="Lavender" stroke="black" stroke-width="1.3" d="M374,-68C374,-68 304,-68 304,-68 298,-68 292,-62 292,-56 292,-56 292,-44 292,-44 292,-38 298,-32 304,-32 304,-32 374,-32 374,-32 380,-32 386,-38 386,-44 386,-44 386,-56 386,-56 386,-62 380,-68 374,-68"/>
<text text-anchor="middle" x="339" y="-44.75" font-family="Arial" font-size="15.00">card_model</text>
</g>
<!-- /lib/models/deck_model.dart -->
<g id="node4" class="node">
<title>/lib/models/deck_model.dart</title>
<path fill="Lavender" stroke="black" stroke-width="1.3" d="M256.12,-140C256.12,-140 183.88,-140 183.88,-140 177.88,-140 171.88,-134 171.88,-128 171.88,-128 171.88,-116 171.88,-116 171.88,-110 177.88,-104 183.88,-104 183.88,-104 256.12,-104 256.12,-104 262.12,-104 268.12,-110 268.12,-116 268.12,-116 268.12,-128 268.12,-128 268.12,-134 262.12,-140 256.12,-140"/>
<text text-anchor="middle" x="220" y="-116.75" font-family="Arial" font-size="15.00">deck_model</text>
</g>
<!-- /lib/models/deck_model.dart&#45;&gt;/lib/models/card_model.dart -->
<g id="edge3" class="edge">
<title>/lib/models/deck_model.dart&#45;&gt;/lib/models/card_model.dart</title>
<path fill="none" stroke="#aabbaa" stroke-width="1.3" stroke-opacity="0.533333" d="M243.79,-103.52C258.05,-94.6 276.54,-83.63 293.46,-74.03"/>
<polygon fill="#aabbaa" fill-opacity="0.533333" stroke="#aabbaa" stroke-width="1.3" stroke-opacity="0.533333" points="295.02,-77.17 302.03,-69.22 291.6,-71.06 295.02,-77.17"/>
</g>
<!-- /lib/models/deck_model.dart&#45;&gt;/lib/models/card_model.dart -->
<g id="edge4" class="edge">
<title>/lib/models/deck_model.dart&#45;&gt;/lib/models/card_model.dart</title>
<path fill="none" stroke="#aabbaa" stroke-width="1.3" stroke-dasharray="5,2" stroke-opacity="0.533333" d="M255.66,-103.52C271.58,-94.68 290.17,-83.84 305.79,-74.3"/>
<polygon fill="#aabbaa" fill-opacity="0.533333" stroke="#aabbaa" stroke-width="1.3" stroke-opacity="0.533333" points="307.23,-77.53 313.89,-69.29 303.55,-71.57 307.23,-77.53"/>
</g>
<!-- /lib/models/game_model.dart -->
<g id="node6" class="node">
<title>/lib/models/game_model.dart</title>
<path fill="Lavender" stroke="black" stroke-width="1.3" d="M224.12,-212C224.12,-212 145.88,-212 145.88,-212 139.88,-212 133.88,-206 133.88,-200 133.88,-200 133.88,-188 133.88,-188 133.88,-182 139.88,-176 145.88,-176 145.88,-176 224.12,-176 224.12,-176 230.12,-176 236.12,-182 236.12,-188 236.12,-188 236.12,-200 236.12,-200 236.12,-206 230.12,-212 224.12,-212"/>
<text text-anchor="middle" x="185" y="-188.75" font-family="Arial" font-size="15.00">game_model</text>
</g>
<!-- /lib/models/game_model.dart&#45;&gt;/lib/models/backend_model.dart -->
<g id="edge5" class="edge">
<title>/lib/models/game_model.dart&#45;&gt;/lib/models/backend_model.dart</title>
<path fill="none" stroke="#aabbaa" stroke-width="1.3" stroke-opacity="0.533333" d="M162.26,-175.7C151.09,-167.2 137.44,-156.81 125.22,-147.51"/>
<polygon fill="#aabbaa" fill-opacity="0.533333" stroke="#aabbaa" stroke-width="1.3" stroke-opacity="0.533333" points="127.44,-144.81 117.36,-141.54 123.2,-150.38 127.44,-144.81"/>
</g>
<!-- /lib/models/game_model.dart&#45;&gt;/lib/models/deck_model.dart -->
<g id="edge6" class="edge">
<title>/lib/models/game_model.dart&#45;&gt;/lib/models/deck_model.dart</title>
<path fill="none" stroke="#aabbaa" stroke-width="1.3" stroke-opacity="0.533333" d="M187.74,-175.7C190.76,-168.07 195.11,-158.92 199.7,-150.4"/>
<polygon fill="#aabbaa" fill-opacity="0.533333" stroke="#aabbaa" stroke-width="1.3" stroke-opacity="0.533333" points="202.68,-152.24 204.58,-141.81 196.59,-148.77 202.68,-152.24"/>
</g>
<!-- /lib/models/game_model.dart&#45;&gt;/lib/models/deck_model.dart -->
<g id="edge8" class="edge">
<title>/lib/models/game_model.dart&#45;&gt;/lib/models/deck_model.dart</title>
<path fill="none" stroke="#aabbaa" stroke-width="1.3" stroke-dasharray="5,2" stroke-opacity="0.533333" d="M199.57,-175.7C204.07,-168.24 208.76,-159.32 212.64,-150.97"/>
<polygon fill="#aabbaa" fill-opacity="0.533333" stroke="#aabbaa" stroke-width="1.3" stroke-opacity="0.533333" points="215.8,-152.48 216.56,-141.91 209.38,-149.7 215.8,-152.48"/>
</g>
<!-- /lib/models/player_model.dart -->
<g id="node8" class="node">
<title>/lib/models/player_model.dart</title>
<path fill="Lavender" stroke="black" stroke-width="1.3" d="M379.62,-140C379.62,-140 298.38,-140 298.38,-140 292.38,-140 286.38,-134 286.38,-128 286.38,-128 286.38,-116 286.38,-116 286.38,-110 292.38,-104 298.38,-104 298.38,-104 379.62,-104 379.62,-104 385.62,-104 391.62,-110 391.62,-116 391.62,-116 391.62,-128 391.62,-128 391.62,-134 385.62,-140 379.62,-140"/>
<text text-anchor="middle" x="339" y="-116.75" font-family="Arial" font-size="15.00">player_model</text>
</g>
<!-- /lib/models/game_model.dart&#45;&gt;/lib/models/player_model.dart -->
<g id="edge7" class="edge">
<title>/lib/models/game_model.dart&#45;&gt;/lib/models/player_model.dart</title>
<path fill="none" stroke="#aabbaa" stroke-width="1.3" stroke-opacity="0.533333" d="M217.53,-175.52C236.88,-166.29 261.85,-154.89 284.14,-145.06"/>
<polygon fill="#aabbaa" fill-opacity="0.533333" stroke="#aabbaa" stroke-width="1.3" stroke-opacity="0.533333" points="285.28,-148.39 293.03,-141.17 282.47,-141.97 285.28,-148.39"/>
</g>
<!-- /lib/models/game_model.dart&#45;&gt;/lib/models/player_model.dart -->
<g id="edge9" class="edge">
<title>/lib/models/game_model.dart&#45;&gt;/lib/models/player_model.dart</title>
<path fill="none" stroke="#aabbaa" stroke-width="1.3" stroke-dasharray="5,2" stroke-opacity="0.533333" d="M229.4,-175.52C250.33,-166.42 275.16,-155.2 295.93,-145.46"/>
<polygon fill="#aabbaa" fill-opacity="0.533333" stroke="#aabbaa" stroke-width="1.3" stroke-opacity="0.533333" points="297.36,-148.66 304.91,-141.22 294.37,-142.33 297.36,-148.66"/>
</g>
<!-- /lib/models/game_over_dialog.dart -->
<g id="node7" class="node">
<title>/lib/models/game_over_dialog.dart</title>
<path fill="Lavender" stroke="black" stroke-width="1.3" d="M380.12,-212C380.12,-212 265.88,-212 265.88,-212 259.88,-212 253.88,-206 253.88,-200 253.88,-200 253.88,-188 253.88,-188 253.88,-182 259.88,-176 265.88,-176 265.88,-176 380.12,-176 380.12,-176 386.12,-176 392.12,-182 392.12,-188 392.12,-188 392.12,-200 392.12,-200 392.12,-206 386.12,-212 380.12,-212"/>
<text text-anchor="middle" x="323" y="-188.75" font-family="Arial" font-size="15.00">game_over_dialog</text>
</g>
<!-- /lib/models/game_over_dialog.dart&#45;&gt;/lib/models/player_model.dart -->
<g id="edge10" class="edge">
<title>/lib/models/game_over_dialog.dart&#45;&gt;/lib/models/player_model.dart</title>
<path fill="none" stroke="#aabbaa" stroke-width="1.3" stroke-opacity="0.533333" d="M326.96,-175.7C328.62,-168.41 330.61,-159.73 332.48,-151.54"/>
<polygon fill="#aabbaa" fill-opacity="0.533333" stroke="#aabbaa" stroke-width="1.3" stroke-opacity="0.533333" points="335.84,-152.55 334.65,-142.02 329.01,-150.99 335.84,-152.55"/>
</g>
<!-- /lib/models/player_model.dart&#45;&gt;/lib/models/card_model.dart -->
<g id="edge11" class="edge">
<title>/lib/models/player_model.dart&#45;&gt;/lib/models/card_model.dart</title>
<path fill="none" stroke="#aabbaa" stroke-width="1.3" stroke-opacity="0.533333" d="M333.08,-103.7C332.34,-96.49 332.09,-87.93 332.34,-79.82"/>
<polygon fill="#aabbaa" fill-opacity="0.533333" stroke="#aabbaa" stroke-width="1.3" stroke-opacity="0.533333" points="335.82,-80.27 332.98,-70.07 328.84,-79.82 335.82,-80.27"/>
</g>
<!-- /lib/models/player_model.dart&#45;&gt;/lib/models/card_model.dart -->
<g id="edge12" class="edge">
<title>/lib/models/player_model.dart&#45;&gt;/lib/models/card_model.dart</title>
<path fill="none" stroke="#aabbaa" stroke-width="1.3" stroke-dasharray="5,2" stroke-opacity="0.533333" d="M344.92,-103.7C345.66,-96.49 345.91,-87.93 345.66,-79.82"/>
<polygon fill="#aabbaa" fill-opacity="0.533333" stroke="#aabbaa" stroke-width="1.3" stroke-opacity="0.533333" points="349.16,-79.82 345.02,-70.07 342.18,-80.27 349.16,-79.82"/>
</g>
<!-- /lib/screens/game_screen.dart -->
<g id="node9" class="node">
<title>/lib/screens/game_screen.dart</title>
<path fill="Lavender" stroke="black" stroke-width="1.3" d="M307.38,-515C307.38,-515 224.62,-515 224.62,-515 218.62,-515 212.62,-509 212.62,-503 212.62,-503 212.62,-491 212.62,-491 212.62,-485 218.62,-479 224.62,-479 224.62,-479 307.38,-479 307.38,-479 313.38,-479 319.38,-485 319.38,-491 319.38,-491 319.38,-503 319.38,-503 319.38,-509 313.38,-515 307.38,-515"/>
<text text-anchor="middle" x="266" y="-491.75" font-family="Arial" font-size="15.00">game_screen</text>
</g>
<!-- /lib/screens/game_screen.dart&#45;&gt;/lib/models/game_model.dart -->
<g id="edge13" class="edge">
<title>/lib/screens/game_screen.dart&#45;&gt;/lib/models/game_model.dart</title>
<path fill="none" stroke="#aabbaa" stroke-width="1.3" stroke-opacity="0.533333" d="M267.56,-478.78C269.01,-457.89 270.15,-421.73 264,-391.5 251.21,-328.64 219.17,-260.2 200.05,-222.98"/>
<polygon fill="#aabbaa" fill-opacity="0.533333" stroke="#aabbaa" stroke-width="1.3" stroke-opacity="0.533333" points="203.2,-221.46 195.48,-214.21 197,-224.7 203.2,-221.46"/>
</g>
<!-- /lib/screens/game_screen.dart&#45;&gt;/lib/models/game_over_dialog.dart -->
<g id="edge14" class="edge">
<title>/lib/screens/game_screen.dart&#45;&gt;/lib/models/game_over_dialog.dart</title>
<path fill="none" stroke="#aabbaa" stroke-width="1.3" stroke-opacity="0.533333" d="M275.96,-478.55C277.11,-476.07 278.17,-473.51 279,-471 307.74,-383.92 318.03,-275 321.44,-223.94"/>
<polygon fill="#aabbaa" fill-opacity="0.533333" stroke="#aabbaa" stroke-width="1.3" stroke-opacity="0.533333" points="324.92,-224.41 322.05,-214.21 317.93,-223.98 324.92,-224.41"/>
</g>
<!-- /lib/screens/screen.dart -->
<g id="node10" class="node">
<title>/lib/screens/screen.dart</title>
<path fill="Lavender" stroke="black" stroke-width="1.3" d="M242.5,-435.5C242.5,-435.5 205.5,-435.5 205.5,-435.5 199.5,-435.5 193.5,-429.5 193.5,-423.5 193.5,-423.5 193.5,-411.5 193.5,-411.5 193.5,-405.5 199.5,-399.5 205.5,-399.5 205.5,-399.5 242.5,-399.5 242.5,-399.5 248.5,-399.5 254.5,-405.5 254.5,-411.5 254.5,-411.5 254.5,-423.5 254.5,-423.5 254.5,-429.5 248.5,-435.5 242.5,-435.5"/>
<text text-anchor="middle" x="224" y="-412.25" font-family="Arial" font-size="15.00">screen</text>
</g>
<!-- /lib/screens/game_screen.dart&#45;&gt;/lib/screens/screen.dart -->
<g id="edge15" class="edge">
<title>/lib/screens/game_screen.dart&#45;&gt;/lib/screens/screen.dart</title>
<path fill="none" stroke="#aabbaa" stroke-width="1.3" stroke-opacity="0.533333" d="M256.68,-478.8C251.5,-469.23 244.92,-457.1 239.03,-446.23"/>
<polygon fill="#aabbaa" fill-opacity="0.533333" stroke="#aabbaa" stroke-width="1.3" stroke-opacity="0.533333" points="242.22,-444.77 234.38,-437.65 236.07,-448.11 242.22,-444.77"/>
</g>
<!-- /lib/widgets/player_zone_widget.dart -->
<g id="node18" class="node">
<title>/lib/widgets/player_zone_widget.dart</title>
<path fill="Lavender" stroke="black" stroke-width="1.3" d="M552,-435.5C552,-435.5 428,-435.5 428,-435.5 422,-435.5 416,-429.5 416,-423.5 416,-423.5 416,-411.5 416,-411.5 416,-405.5 422,-399.5 428,-399.5 428,-399.5 552,-399.5 552,-399.5 558,-399.5 564,-405.5 564,-411.5 564,-411.5 564,-423.5 564,-423.5 564,-429.5 558,-435.5 552,-435.5"/>
<text text-anchor="middle" x="490" y="-412.25" font-family="Arial" font-size="15.00">player_zone_widget</text>
</g>
<!-- /lib/screens/game_screen.dart&#45;&gt;/lib/widgets/player_zone_widget.dart -->
<g id="edge16" class="edge">
<title>/lib/screens/game_screen.dart&#45;&gt;/lib/widgets/player_zone_widget.dart</title>
<path fill="none" stroke="#aabbaa" stroke-width="1.3" stroke-opacity="0.533333" d="M317.06,-478.55C324.43,-476.02 331.91,-473.45 339,-471 368.63,-460.78 401.51,-449.35 429,-439.78"/>
<polygon fill="#aabbaa" fill-opacity="0.533333" stroke="#aabbaa" stroke-width="1.3" stroke-opacity="0.533333" points="429.88,-443.18 438.17,-436.59 427.58,-436.57 429.88,-443.18"/>
</g>
<!-- /lib/screens/start_screen.dart&#45;&gt;/lib/models/backend_model.dart -->
<g id="edge17" class="edge">
<title>/lib/screens/start_screen.dart&#45;&gt;/lib/models/backend_model.dart</title>
<path fill="none" stroke="#aabbaa" stroke-width="1.3" stroke-opacity="0.533333" d="M209,-550.59C167.85,-526.8 104,-479.99 104,-418.5 104,-418.5 104,-418.5 104,-272.5 104,-230.6 99.65,-182.27 96.42,-152.17"/>
<polygon fill="#aabbaa" fill-opacity="0.533333" stroke="#aabbaa" stroke-width="1.3" stroke-opacity="0.533333" points="99.92,-151.97 95.34,-142.42 92.96,-152.74 99.92,-151.97"/>
</g>
<!-- /lib/screens/start_screen.dart&#45;&gt;/lib/models/game_model.dart -->
<g id="edge18" class="edge">
<title>/lib/screens/start_screen.dart&#45;&gt;/lib/models/game_model.dart</title>
<path fill="none" stroke="#aabbaa" stroke-width="1.3" stroke-opacity="0.533333" d="M224.6,-550.89C215.13,-541.18 204.12,-528.33 197,-515 176.23,-476.11 174,-462.59 174,-418.5 174,-418.5 174,-418.5 174,-344.5 174,-302.6 178.35,-254.27 181.58,-224.17"/>
<polygon fill="#aabbaa" fill-opacity="0.533333" stroke="#aabbaa" stroke-width="1.3" stroke-opacity="0.533333" points="185.04,-224.74 182.66,-214.42 178.08,-223.97 185.04,-224.74"/>
</g>
<!-- /lib/screens/start_screen.dart&#45;&gt;/lib/screens/game_screen.dart -->
<g id="edge19" class="edge">
<title>/lib/screens/start_screen.dart&#45;&gt;/lib/screens/game_screen.dart</title>
<path fill="none" stroke="#aabbaa" stroke-width="1.3" stroke-opacity="0.533333" d="M248.69,-550.7C251.11,-543.32 254,-534.52 256.72,-526.25"/>
<polygon fill="#aabbaa" fill-opacity="0.533333" stroke="#aabbaa" stroke-width="1.3" stroke-opacity="0.533333" points="259.97,-527.57 259.77,-516.97 253.32,-525.38 259.97,-527.57"/>
</g>
<!-- /lib/screens/start_screen.dart&#45;&gt;/lib/screens/screen.dart -->
<g id="edge20" class="edge">
<title>/lib/screens/start_screen.dart&#45;&gt;/lib/screens/screen.dart</title>
<path fill="none" stroke="#aabbaa" stroke-width="1.3" stroke-opacity="0.533333" d="M225.7,-550.52C217.41,-540.9 208.35,-528.24 204,-515 196.63,-492.55 203.03,-466.23 210.49,-446.76"/>
<polygon fill="#aabbaa" fill-opacity="0.533333" stroke="#aabbaa" stroke-width="1.3" stroke-opacity="0.533333" points="213.65,-448.28 214.28,-437.7 207.19,-445.58 213.65,-448.28"/>
</g>
<!-- /lib/widgets/players_in_room_widget.dart -->
<g id="node15" class="node">
<title>/lib/widgets/players_in_room_widget.dart</title>
<path fill="Lavender" stroke="black" stroke-width="1.3" d="M747.62,-435.5C747.62,-435.5 594.38,-435.5 594.38,-435.5 588.38,-435.5 582.38,-429.5 582.38,-423.5 582.38,-423.5 582.38,-411.5 582.38,-411.5 582.38,-405.5 588.38,-399.5 594.38,-399.5 594.38,-399.5 747.62,-399.5 747.62,-399.5 753.62,-399.5 759.62,-405.5 759.62,-411.5 759.62,-411.5 759.62,-423.5 759.62,-423.5 759.62,-429.5 753.62,-435.5 747.62,-435.5"/>
<text text-anchor="middle" x="671" y="-412.25" font-family="Arial" font-size="15.00">players_in_room_widget</text>
</g>
<!-- /lib/screens/start_screen.dart&#45;&gt;/lib/widgets/players_in_room_widget.dart -->
<g id="edge21" class="edge">
<title>/lib/screens/start_screen.dart&#45;&gt;/lib/widgets/players_in_room_widget.dart</title>
<path fill="none" stroke="#aabbaa" stroke-width="1.3" stroke-opacity="0.533333" d="M293.01,-556.71C358.61,-541.14 476.71,-510.45 573,-471 593.16,-462.74 614.59,-451.56 632.25,-441.64"/>
<polygon fill="#aabbaa" fill-opacity="0.533333" stroke="#aabbaa" stroke-width="1.3" stroke-opacity="0.533333" points="633.52,-444.95 640.47,-436.95 630.05,-438.87 633.52,-444.95"/>
</g>
<!-- /lib/widgets/card_piles_widget.dart -->
<g id="node12" class="node">
<title>/lib/widgets/card_piles_widget.dart</title>
<path fill="Lavender" stroke="black" stroke-width="1.3" d="M738.25,-291.5C738.25,-291.5 627.75,-291.5 627.75,-291.5 621.75,-291.5 615.75,-285.5 615.75,-279.5 615.75,-279.5 615.75,-267.5 615.75,-267.5 615.75,-261.5 621.75,-255.5 627.75,-255.5 627.75,-255.5 738.25,-255.5 738.25,-255.5 744.25,-255.5 750.25,-261.5 750.25,-267.5 750.25,-267.5 750.25,-279.5 750.25,-279.5 750.25,-285.5 744.25,-291.5 738.25,-291.5"/>
<text text-anchor="middle" x="683" y="-268.25" font-family="Arial" font-size="15.00">card_piles_widget</text>
</g>
<!-- /lib/widgets/card_piles_widget.dart&#45;&gt;/lib/models/card_model.dart -->
<g id="edge22" class="edge">
<title>/lib/widgets/card_piles_widget.dart&#45;&gt;/lib/models/card_model.dart</title>
<path fill="none" stroke="#aabbaa" stroke-width="1.3" stroke-opacity="0.533333" d="M647.67,-255.1C643.03,-252.63 638.37,-250.06 634,-247.5 536.22,-190.25 426.48,-113.7 372.57,-75.23"/>
<polygon fill="#aabbaa" fill-opacity="0.533333" stroke="#aabbaa" stroke-width="1.3" stroke-opacity="0.533333" points="374.64,-72.4 364.47,-69.42 370.56,-78.09 374.64,-72.4"/>
</g>
<!-- /lib/widgets/card_pile_widget.dart -->
<g id="node13" class="node">
<title>/lib/widgets/card_pile_widget.dart</title>
<path fill="Lavender" stroke="black" stroke-width="1.3" d="M757.5,-212C757.5,-212 654.5,-212 654.5,-212 648.5,-212 642.5,-206 642.5,-200 642.5,-200 642.5,-188 642.5,-188 642.5,-182 648.5,-176 654.5,-176 654.5,-176 757.5,-176 757.5,-176 763.5,-176 769.5,-182 769.5,-188 769.5,-188 769.5,-200 769.5,-200 769.5,-206 763.5,-212 757.5,-212"/>
<text text-anchor="middle" x="706" y="-188.75" font-family="Arial" font-size="15.00">card_pile_widget</text>
</g>
<!-- /lib/widgets/card_piles_widget.dart&#45;&gt;/lib/widgets/card_pile_widget.dart -->
<g id="edge23" class="edge">
<title>/lib/widgets/card_piles_widget.dart&#45;&gt;/lib/widgets/card_pile_widget.dart</title>
<path fill="none" stroke="#aabbaa" stroke-width="1.3" stroke-opacity="0.533333" d="M688.1,-255.3C690.85,-246.03 694.32,-234.36 697.47,-223.75"/>
<polygon fill="#aabbaa" fill-opacity="0.533333" stroke="#aabbaa" stroke-width="1.3" stroke-opacity="0.533333" points="700.78,-224.89 700.27,-214.31 694.07,-222.9 700.78,-224.89"/>
</g>
<!-- /lib/widgets/card_pile_widget.dart&#45;&gt;/lib/models/card_model.dart -->
<g id="edge24" class="edge">
<title>/lib/widgets/card_pile_widget.dart&#45;&gt;/lib/models/card_model.dart</title>
<path fill="none" stroke="#aabbaa" stroke-width="1.3" stroke-opacity="0.533333" d="M736.63,-175.57C749.11,-166.68 762.18,-154.64 769,-140 777.25,-122.27 782.09,-110.53 769,-96 744.61,-68.93 509.84,-57.03 397.86,-52.87"/>
<polygon fill="#aabbaa" fill-opacity="0.533333" stroke="#aabbaa" stroke-width="1.3" stroke-opacity="0.533333" points="398.21,-49.38 388.09,-52.52 397.96,-56.38 398.21,-49.38"/>
</g>
<!-- /lib/widgets/card_widget.dart -->
<g id="node14" class="node">
<title>/lib/widgets/card_widget.dart</title>
<path fill="Lavender" stroke="black" stroke-width="1.3" d="M748.12,-140C748.12,-140 675.88,-140 675.88,-140 669.88,-140 663.88,-134 663.88,-128 663.88,-128 663.88,-116 663.88,-116 663.88,-110 669.88,-104 675.88,-104 675.88,-104 748.12,-104 748.12,-104 754.12,-104 760.12,-110 760.12,-116 760.12,-116 760.12,-128 760.12,-128 760.12,-134 754.12,-140 748.12,-140"/>
<text text-anchor="middle" x="712" y="-116.75" font-family="Arial" font-size="15.00">card_widget</text>
</g>
<!-- /lib/widgets/card_pile_widget.dart&#45;&gt;/lib/widgets/card_widget.dart -->
<g id="edge25" class="edge">
<title>/lib/widgets/card_pile_widget.dart&#45;&gt;/lib/widgets/card_widget.dart</title>
<path fill="none" stroke="#aabbaa" stroke-width="1.3" stroke-opacity="0.533333" d="M707.48,-175.7C708.1,-168.49 708.83,-159.93 709.53,-151.82"/>
<polygon fill="#aabbaa" fill-opacity="0.533333" stroke="#aabbaa" stroke-width="1.3" stroke-opacity="0.533333" points="713,-152.33 710.37,-142.06 706.02,-151.73 713,-152.33"/>
</g>
<!-- /lib/widgets/wiggle_widget.dart -->
<g id="node21" class="node">
<title>/lib/widgets/wiggle_widget.dart</title>
<path fill="Lavender" stroke="black" stroke-width="1.3" d="M634.12,-140C634.12,-140 549.88,-140 549.88,-140 543.88,-140 537.88,-134 537.88,-128 537.88,-128 537.88,-116 537.88,-116 537.88,-110 543.88,-104 549.88,-104 549.88,-104 634.12,-104 634.12,-104 640.12,-104 646.12,-110 646.12,-116 646.12,-116 646.12,-128 646.12,-128 646.12,-134 640.12,-140 634.12,-140"/>
<text text-anchor="middle" x="592" y="-116.75" font-family="Arial" font-size="15.00">wiggle_widget</text>
</g>
<!-- /lib/widgets/card_pile_widget.dart&#45;&gt;/lib/widgets/wiggle_widget.dart -->
<g id="edge26" class="edge">
<title>/lib/widgets/card_pile_widget.dart&#45;&gt;/lib/widgets/wiggle_widget.dart</title>
<path fill="none" stroke="#aabbaa" stroke-width="1.3" stroke-opacity="0.533333" d="M677.53,-175.52C663.14,-166.68 645.48,-155.84 629.95,-146.3"/>
<polygon fill="#aabbaa" fill-opacity="0.533333" stroke="#aabbaa" stroke-width="1.3" stroke-opacity="0.533333" points="632.14,-143.54 621.79,-141.29 628.48,-149.51 632.14,-143.54"/>
</g>
<!-- /lib/widgets/card_widget.dart&#45;&gt;/lib/models/card_model.dart -->
<g id="edge27" class="edge">
<title>/lib/widgets/card_widget.dart&#45;&gt;/lib/models/card_model.dart</title>
<path fill="none" stroke="#aabbaa" stroke-width="1.3" stroke-opacity="0.533333" d="M676.36,-103.61C669.4,-100.72 662.07,-98.01 655,-96 567.63,-71.12 462.57,-59.65 398.31,-54.62"/>
<polygon fill="#aabbaa" fill-opacity="0.533333" stroke="#aabbaa" stroke-width="1.3" stroke-opacity="0.533333" points="398.61,-51.13 388.37,-53.87 398.08,-58.11 398.61,-51.13"/>
</g>
<!-- /lib/widgets/player_header_widget.dart -->
<g id="node16" class="node">
<title>/lib/widgets/player_header_widget.dart</title>
<path fill="Lavender" stroke="black" stroke-width="1.3" d="M566.12,-363.5C566.12,-363.5 427.88,-363.5 427.88,-363.5 421.88,-363.5 415.88,-357.5 415.88,-351.5 415.88,-351.5 415.88,-339.5 415.88,-339.5 415.88,-333.5 421.88,-327.5 427.88,-327.5 427.88,-327.5 566.12,-327.5 566.12,-327.5 572.12,-327.5 578.12,-333.5 578.12,-339.5 578.12,-339.5 578.12,-351.5 578.12,-351.5 578.12,-357.5 572.12,-363.5 566.12,-363.5"/>
<text text-anchor="middle" x="497" y="-340.25" font-family="Arial" font-size="15.00">player_header_widget</text>
</g>
<!-- /lib/widgets/player_zone_cta_widget.dart -->
<g id="node17" class="node">
<title>/lib/widgets/player_zone_cta_widget.dart</title>
<path fill="Lavender" stroke="black" stroke-width="1.3" d="M780.25,-363.5C780.25,-363.5 627.75,-363.5 627.75,-363.5 621.75,-363.5 615.75,-357.5 615.75,-351.5 615.75,-351.5 615.75,-339.5 615.75,-339.5 615.75,-333.5 621.75,-327.5 627.75,-327.5 627.75,-327.5 780.25,-327.5 780.25,-327.5 786.25,-327.5 792.25,-333.5 792.25,-339.5 792.25,-339.5 792.25,-351.5 792.25,-351.5 792.25,-357.5 786.25,-363.5 780.25,-363.5"/>
<text text-anchor="middle" x="704" y="-340.25" font-family="Arial" font-size="15.00">player_zone_cta_widget</text>
</g>
<!-- /lib/widgets/player_zone_cta_widget.dart&#45;&gt;/lib/models/game_model.dart -->
<g id="edge28" class="edge">
<title>/lib/widgets/player_zone_cta_widget.dart&#45;&gt;/lib/models/game_model.dart</title>
<path fill="none" stroke="#aabbaa" stroke-width="1.3" stroke-opacity="0.533333" d="M631.88,-327.07C551.12,-307.92 416.18,-277.03 299,-255.5 275.14,-251.12 267.02,-257.68 245,-247.5 231.3,-241.17 218.38,-230.7 208.07,-220.78"/>
<polygon fill="#aabbaa" fill-opacity="0.533333" stroke="#aabbaa" stroke-width="1.3" stroke-opacity="0.533333" points="210.61,-218.37 201.1,-213.71 205.63,-223.29 210.61,-218.37"/>
</g>
<!-- /lib/widgets/player_zone_cta_widget.dart&#45;&gt;/lib/widgets/card_piles_widget.dart -->
<g id="edge30" class="edge">
<title>/lib/widgets/player_zone_cta_widget.dart&#45;&gt;/lib/widgets/card_piles_widget.dart</title>
<path fill="none" stroke="#aabbaa" stroke-width="1.3" stroke-opacity="0.533333" d="M698.81,-327.2C696.62,-319.91 694.02,-311.23 691.56,-303.04"/>
<polygon fill="#aabbaa" fill-opacity="0.533333" stroke="#aabbaa" stroke-width="1.3" stroke-opacity="0.533333" points="694.92,-302.06 688.7,-293.49 688.22,-304.07 694.92,-302.06"/>
</g>
<!-- /lib/widgets/player_zone_cta_widget.dart&#45;&gt;/lib/widgets/card_pile_widget.dart -->
<g id="edge29" class="edge">
<title>/lib/widgets/player_zone_cta_widget.dart&#45;&gt;/lib/widgets/card_pile_widget.dart</title>
<path fill="none" stroke="#aabbaa" stroke-width="1.3" stroke-opacity="0.533333" d="M729.67,-327.22C740.92,-318.08 752.93,-305.78 759,-291.5 765.26,-276.78 764.63,-270.48 759,-255.5 754.15,-242.59 745.15,-230.64 735.93,-220.82"/>
<polygon fill="#aabbaa" fill-opacity="0.533333" stroke="#aabbaa" stroke-width="1.3" stroke-opacity="0.533333" points="738.46,-218.41 728.9,-213.83 733.52,-223.37 738.46,-218.41"/>
</g>
<!-- /lib/widgets/player_zone_cta_widget.dart&#45;&gt;/lib/widgets/card_widget.dart -->
<g id="edge31" class="edge">
<title>/lib/widgets/player_zone_cta_widget.dart&#45;&gt;/lib/widgets/card_widget.dart</title>
<path fill="none" stroke="#aabbaa" stroke-width="1.3" stroke-opacity="0.533333" d="M730.7,-327.12C743.02,-317.87 756.91,-305.52 766,-291.5 777.1,-274.39 776.08,-267.68 779,-247.5 783.55,-216.05 792.84,-204.6 779,-176 773.56,-164.77 764.47,-155.2 754.7,-147.41"/>
<polygon fill="#aabbaa" fill-opacity="0.533333" stroke="#aabbaa" stroke-width="1.3" stroke-opacity="0.533333" points="756.96,-144.72 746.82,-141.65 752.83,-150.37 756.96,-144.72"/>
</g>
<!-- /lib/widgets/player_zone_widget.dart&#45;&gt;/lib/models/game_model.dart -->
<g id="edge32" class="edge">
<title>/lib/widgets/player_zone_widget.dart&#45;&gt;/lib/models/game_model.dart</title>
<path fill="none" stroke="#aabbaa" stroke-width="1.3" stroke-opacity="0.533333" d="M462.62,-399.21C446.4,-388.92 425.47,-375.55 407,-363.5 358.69,-331.97 338.11,-333.91 299,-291.5 286.59,-278.04 293.6,-266.54 279,-255.5 266.62,-246.14 258.81,-254.6 245,-247.5 231.77,-240.7 219.07,-230.35 208.79,-220.63"/>
<polygon fill="#aabbaa" fill-opacity="0.533333" stroke="#aabbaa" stroke-width="1.3" stroke-opacity="0.533333" points="211.39,-218.29 201.82,-213.74 206.47,-223.26 211.39,-218.29"/>
</g>
<!-- /lib/widgets/player_zone_widget.dart&#45;&gt;/lib/widgets/card_widget.dart -->
<g id="edge33" class="edge">
<title>/lib/widgets/player_zone_widget.dart&#45;&gt;/lib/widgets/card_widget.dart</title>
<path fill="none" stroke="#aabbaa" stroke-width="1.3" stroke-opacity="0.533333" d="M543.23,-399.01C553.06,-396.2 563.28,-393.55 573,-391.5 622.95,-380.99 767.18,-401.73 801,-363.5 826.04,-335.2 875.04,-326.72 788,-176 781.22,-164.26 770.66,-154.5 759.55,-146.69"/>
<polygon fill="#aabbaa" fill-opacity="0.533333" stroke="#aabbaa" stroke-width="1.3" stroke-opacity="0.533333" points="761.67,-143.9 751.38,-141.41 757.87,-149.78 761.67,-143.9"/>
</g>
<!-- /lib/widgets/player_zone_widget.dart&#45;&gt;/lib/widgets/player_header_widget.dart -->
<g id="edge34" class="edge">
<title>/lib/widgets/player_zone_widget.dart&#45;&gt;/lib/widgets/player_header_widget.dart</title>
<path fill="none" stroke="#aabbaa" stroke-width="1.3" stroke-opacity="0.533333" d="M491.73,-399.2C492.45,-391.99 493.31,-383.43 494.12,-375.32"/>
<polygon fill="#aabbaa" fill-opacity="0.533333" stroke="#aabbaa" stroke-width="1.3" stroke-opacity="0.533333" points="497.58,-375.86 495.09,-365.56 490.62,-375.16 497.58,-375.86"/>
</g>
<!-- /lib/widgets/player_zone_widget.dart&#45;&gt;/lib/widgets/player_zone_cta_widget.dart -->
<g id="edge35" class="edge">
<title>/lib/widgets/player_zone_widget.dart&#45;&gt;/lib/widgets/player_zone_cta_widget.dart</title>
<path fill="none" stroke="#aabbaa" stroke-width="1.3" stroke-opacity="0.533333" d="M543.45,-399.02C572.67,-389.46 609.06,-377.55 639.81,-367.5"/>
<polygon fill="#aabbaa" fill-opacity="0.533333" stroke="#aabbaa" stroke-width="1.3" stroke-opacity="0.533333" points="640.58,-370.93 648.99,-364.49 638.4,-364.28 640.58,-370.93"/>
</g>
<!-- /lib/widgets/player_zone_widget.dart&#45;&gt;/lib/widgets/wiggle_widget.dart -->
<g id="edge36" class="edge">
<title>/lib/widgets/player_zone_widget.dart&#45;&gt;/lib/widgets/wiggle_widget.dart</title>
<path fill="none" stroke="#aabbaa" stroke-width="1.3" stroke-opacity="0.533333" d="M544.34,-399.1C560.9,-390.99 577.29,-379.49 587,-363.5 608.07,-328.81 600.03,-208.17 594.93,-152.08"/>
<polygon fill="#aabbaa" fill-opacity="0.533333" stroke="#aabbaa" stroke-width="1.3" stroke-opacity="0.533333" points="598.42,-151.81 594,-142.18 591.45,-152.47 598.42,-151.81"/>
</g>
<!-- /lib/widgets/table_surface_painter.dart -->
<g id="node19" class="node">
<title>/lib/widgets/table_surface_painter.dart</title>
<path fill="Lavender" stroke="black" stroke-width="1.3" d="M926,-435.5C926,-435.5 790,-435.5 790,-435.5 784,-435.5 778,-429.5 778,-423.5 778,-423.5 778,-411.5 778,-411.5 778,-405.5 784,-399.5 790,-399.5 790,-399.5 926,-399.5 926,-399.5 932,-399.5 938,-405.5 938,-411.5 938,-411.5 938,-423.5 938,-423.5 938,-429.5 932,-435.5 926,-435.5"/>
<text text-anchor="middle" x="858" y="-412.25" font-family="Arial" font-size="15.00">table_surface_painter</text>
</g>
<!-- /lib/widgets/text_edit_with_submit.dart -->
<g id="node20" class="node">
<title>/lib/widgets/text_edit_with_submit.dart</title>
<path fill="Lavender" stroke="black" stroke-width="1.3" d="M1104,-435.5C1104,-435.5 968,-435.5 968,-435.5 962,-435.5 956,-429.5 956,-423.5 956,-423.5 956,-411.5 956,-411.5 956,-405.5 962,-399.5 968,-399.5 968,-399.5 1104,-399.5 1104,-399.5 1110,-399.5 1116,-405.5 1116,-411.5 1116,-411.5 1116,-423.5 1116,-423.5 1116,-429.5 1110,-435.5 1104,-435.5"/>
<text text-anchor="middle" x="1036" y="-412.25" font-family="Arial" font-size="15.00">text_edit_with_submit</text>
</g>
</g>
</svg>
