<?xml version="1.0" encoding="UTF-8" standalone="no"?>
<!DOCTYPE svg PUBLIC "-//W3C//DTD SVG 1.1//EN"
 "http://www.w3.org/Graphics/SVG/1.1/DTD/svg11.dtd">
<!-- Generated by graphviz version 12.1.2 (20240928.0832)
 -->
<!-- Pages: 1 -->
<svg width="623pt" height="603pt"
 viewBox="0.00 0.00 623.00 603.00" xmlns="http://www.w3.org/2000/svg" xmlns:xlink="http://www.w3.org/1999/xlink">
<g id="graph0" class="graph" transform="scale(1 1) rotate(0) translate(4 599)">
<polygon fill="white" stroke="none" points="-4,4 -4,-599 619,-599 619,4 -4,4"/>
<g id="clust1" class="cluster">
<title>cluster~</title>
<path fill="none" stroke="lightgray" stroke-width="2.6" d="M20,-8C20,-8 595,-8 595,-8 601,-8 607,-14 607,-20 607,-20 607,-575 607,-575 607,-581 601,-587 595,-587 595,-587 20,-587 20,-587 14,-587 8,-581 8,-575 8,-575 8,-20 8,-20 8,-14 14,-8 20,-8"/>
<text text-anchor="middle" x="307.5" y="-570.65" font-family="Arial Black" font-size="13.00">cards</text>
</g>
<g id="clust2" class="cluster">
<title>cluster~/test</title>
<path fill="none" stroke="lightgray" stroke-width="2.6" d="M353,-481C353,-481 437,-481 437,-481 443,-481 449,-487 449,-493 449,-493 449,-544 449,-544 449,-550 443,-556 437,-556 437,-556 353,-556 353,-556 347,-556 341,-550 341,-544 341,-544 341,-493 341,-493 341,-487 347,-481 353,-481"/>
<text text-anchor="middle" x="395" y="-539.65" font-family="Arial Black" font-size="13.00">test</text>
</g>
<g id="clust3" class="cluster">
<title>cluster~/lib</title>
<path fill="none" stroke="lightgray" stroke-width="2.6" d="M28,-16C28,-16 587,-16 587,-16 593,-16 599,-22 599,-28 599,-28 599,-461 599,-461 599,-467 593,-473 587,-473 587,-473 28,-473 28,-473 22,-473 16,-467 16,-461 16,-461 16,-28 16,-28 16,-22 22,-16 28,-16"/>
<text text-anchor="middle" x="307.5" y="-456.65" font-family="Arial Black" font-size="13.00">lib</text>
</g>
<g id="clust4" class="cluster">
<title>cluster~/lib/screens</title>
<path fill="none" stroke="lightgray" stroke-width="2.6" d="M346,-251C346,-251 444,-251 444,-251 450,-251 456,-257 456,-263 456,-263 456,-386 456,-386 456,-392 450,-398 444,-398 444,-398 346,-398 346,-398 340,-398 334,-392 334,-386 334,-386 334,-263 334,-263 334,-257 340,-251 346,-251"/>
<text text-anchor="middle" x="395" y="-381.65" font-family="Arial Black" font-size="13.00">screens</text>
</g>
<g id="clust5" class="cluster">
<title>cluster~/lib/widgets</title>
<path fill="none" stroke="lightgray" stroke-width="2.6" d="M36,-24C36,-24 447,-24 447,-24 453,-24 459,-30 459,-36 459,-36 459,-231 459,-231 459,-237 453,-243 447,-243 447,-243 36,-243 36,-243 30,-243 24,-237 24,-231 24,-231 24,-36 24,-36 24,-30 30,-24 36,-24"/>
<text text-anchor="middle" x="241.5" y="-226.65" font-family="Arial Black" font-size="13.00">widgets</text>
</g>
<!-- /test/widget_test.dart -->
<g id="node1" class="node">
<title>/test/widget_test.dart</title>
<path fill="Lavender" stroke="black" stroke-width="1.3" d="M428.88,-525C428.88,-525 361.12,-525 361.12,-525 355.12,-525 349.12,-519 349.12,-513 349.12,-513 349.12,-501 349.12,-501 349.12,-495 355.12,-489 361.12,-489 361.12,-489 428.88,-489 428.88,-489 434.88,-489 440.88,-495 440.88,-501 440.88,-501 440.88,-513 440.88,-513 440.88,-519 434.88,-525 428.88,-525"/>
<text text-anchor="middle" x="395" y="-501.75" font-family="Arial" font-size="15.00">widget_test</text>
</g>
<!-- /lib/main.dart -->
<g id="node5" class="node">
<title>/lib/main.dart</title>
<path fill="Lavender" stroke="black" stroke-width="1.3" d="M410,-442C410,-442 380,-442 380,-442 374,-442 368,-436 368,-430 368,-430 368,-418 368,-418 368,-412 374,-406 380,-406 380,-406 410,-406 410,-406 416,-406 422,-412 422,-418 422,-418 422,-430 422,-430 422,-436 416,-442 410,-442"/>
<text text-anchor="middle" x="395" y="-418.75" font-family="Arial" font-size="15.00">main</text>
</g>
<!-- /test/widget_test.dart&#45;&gt;/lib/main.dart -->
<g id="edge1" class="edge">
<title>/test/widget_test.dart&#45;&gt;/lib/main.dart</title>
<path fill="none" stroke="#aabbaa" stroke-width="1.3" stroke-opacity="0.533333" d="M395,-488.82C395,-478.8 395,-465.88 395,-454.29"/>
<polygon fill="#aabbaa" fill-opacity="0.533333" stroke="#aabbaa" stroke-width="1.3" stroke-opacity="0.533333" points="398.5,-454.4 395,-444.4 391.5,-454.4 398.5,-454.4"/>
</g>
<!-- /lib/game_model.dart -->
<g id="node2" class="node">
<title>/lib/game_model.dart</title>
<path fill="Lavender" stroke="black" stroke-width="1.3" d="M579.12,-212C579.12,-212 500.88,-212 500.88,-212 494.88,-212 488.88,-206 488.88,-200 488.88,-200 488.88,-188 488.88,-188 488.88,-182 494.88,-176 500.88,-176 500.88,-176 579.12,-176 579.12,-176 585.12,-176 591.12,-182 591.12,-188 591.12,-188 591.12,-200 591.12,-200 591.12,-206 585.12,-212 579.12,-212"/>
<text text-anchor="middle" x="540" y="-188.75" font-family="Arial" font-size="15.00">game_model</text>
</g>
<!-- /lib/widgets/playing_card.dart -->
<g id="node9" class="node">
<title>/lib/widgets/playing_card.dart</title>
<path fill="Lavender" stroke="black" stroke-width="1.3" d="M412,-68C412,-68 336,-68 336,-68 330,-68 324,-62 324,-56 324,-56 324,-44 324,-44 324,-38 330,-32 336,-32 336,-32 412,-32 412,-32 418,-32 424,-38 424,-44 424,-44 424,-56 424,-56 424,-62 418,-68 412,-68"/>
<text text-anchor="middle" x="374" y="-44.75" font-family="Arial" font-size="15.00">playing_card</text>
</g>
<!-- /lib/game_model.dart&#45;&gt;/lib/widgets/playing_card.dart -->
<g id="edge2" class="edge">
<title>/lib/game_model.dart&#45;&gt;/lib/widgets/playing_card.dart</title>
<path fill="none" stroke="#aabbaa" stroke-width="1.3" stroke-opacity="0.533333" d="M526.61,-175.63C511.47,-156.67 485.48,-126.08 459,-104 445.99,-93.16 430.59,-82.89 416.48,-74.34"/>
<polygon fill="#aabbaa" fill-opacity="0.533333" stroke="#aabbaa" stroke-width="1.3" stroke-opacity="0.533333" points="418.58,-71.51 408.19,-69.43 415.01,-77.54 418.58,-71.51"/>
</g>
<!-- /lib/screens/game_screen.dart -->
<g id="node3" class="node">
<title>/lib/screens/game_screen.dart</title>
<path fill="Lavender" stroke="black" stroke-width="1.3" d="M436.38,-295C436.38,-295 353.62,-295 353.62,-295 347.62,-295 341.62,-289 341.62,-283 341.62,-283 341.62,-271 341.62,-271 341.62,-265 347.62,-259 353.62,-259 353.62,-259 436.38,-259 436.38,-259 442.38,-259 448.38,-265 448.38,-271 448.38,-271 448.38,-283 448.38,-283 448.38,-289 442.38,-295 436.38,-295"/>
<text text-anchor="middle" x="395" y="-271.75" font-family="Arial" font-size="15.00">game_screen</text>
</g>
<!-- /lib/screens/game_screen.dart&#45;&gt;/lib/game_model.dart -->
<g id="edge7" class="edge">
<title>/lib/screens/game_screen.dart&#45;&gt;/lib/game_model.dart</title>
<path fill="none" stroke="#aabbaa" stroke-width="1.3" stroke-opacity="0.533333" d="M433.77,-258.51C439.84,-255.91 446.07,-253.33 452,-251 462.07,-247.05 465.43,-248.05 475,-243 487.25,-236.54 499.73,-227.91 510.43,-219.76"/>
<polygon fill="#aabbaa" fill-opacity="0.533333" stroke="#aabbaa" stroke-width="1.3" stroke-opacity="0.533333" points="512.45,-222.63 518.15,-213.7 508.12,-217.12 512.45,-222.63"/>
</g>
<!-- /lib/widgets/playing_card_widget.dart -->
<g id="node6" class="node">
<title>/lib/widgets/playing_card_widget.dart</title>
<path fill="Lavender" stroke="black" stroke-width="1.3" d="M437.5,-140C437.5,-140 310.5,-140 310.5,-140 304.5,-140 298.5,-134 298.5,-128 298.5,-128 298.5,-116 298.5,-116 298.5,-110 304.5,-104 310.5,-104 310.5,-104 437.5,-104 437.5,-104 443.5,-104 449.5,-110 449.5,-116 449.5,-116 449.5,-128 449.5,-128 449.5,-134 443.5,-140 437.5,-140"/>
<text text-anchor="middle" x="374" y="-116.75" font-family="Arial" font-size="15.00">playing_card_widget</text>
</g>
<!-- /lib/screens/game_screen.dart&#45;&gt;/lib/widgets/playing_card_widget.dart -->
<g id="edge5" class="edge">
<title>/lib/screens/game_screen.dart&#45;&gt;/lib/widgets/playing_card_widget.dart</title>
<path fill="none" stroke="#aabbaa" stroke-width="1.3" stroke-opacity="0.533333" d="M437.45,-258.66C447.9,-253.5 456.99,-247.91 460,-243 475.58,-217.62 474.52,-202 460,-176 453.12,-163.68 442.07,-153.87 430.15,-146.2"/>
<polygon fill="#aabbaa" fill-opacity="0.533333" stroke="#aabbaa" stroke-width="1.3" stroke-opacity="0.533333" points="432.1,-143.29 421.7,-141.26 428.56,-149.33 432.1,-143.29"/>
</g>
<!-- /lib/widgets/card_deck.dart -->
<g id="node7" class="node">
<title>/lib/widgets/card_deck.dart</title>
<path fill="Lavender" stroke="black" stroke-width="1.3" d="M309.5,-212C309.5,-212 248.5,-212 248.5,-212 242.5,-212 236.5,-206 236.5,-200 236.5,-200 236.5,-188 236.5,-188 236.5,-182 242.5,-176 248.5,-176 248.5,-176 309.5,-176 309.5,-176 315.5,-176 321.5,-182 321.5,-188 321.5,-188 321.5,-200 321.5,-200 321.5,-206 315.5,-212 309.5,-212"/>
<text text-anchor="middle" x="279" y="-188.75" font-family="Arial" font-size="15.00">card_deck</text>
</g>
<!-- /lib/screens/game_screen.dart&#45;&gt;/lib/widgets/card_deck.dart -->
<g id="edge3" class="edge">
<title>/lib/screens/game_screen.dart&#45;&gt;/lib/widgets/card_deck.dart</title>
<path fill="none" stroke="#aabbaa" stroke-width="1.3" stroke-opacity="0.533333" d="M356.14,-258.55C347.27,-253.96 338.08,-248.67 330,-243 320.75,-236.5 311.49,-228.39 303.45,-220.69"/>
<polygon fill="#aabbaa" fill-opacity="0.533333" stroke="#aabbaa" stroke-width="1.3" stroke-opacity="0.533333" points="305.92,-218.22 296.35,-213.67 301,-223.19 305.92,-218.22"/>
</g>
<!-- /lib/widgets/screen.dart -->
<g id="node10" class="node">
<title>/lib/widgets/screen.dart</title>
<path fill="Lavender" stroke="black" stroke-width="1.3" d="M81.5,-212C81.5,-212 44.5,-212 44.5,-212 38.5,-212 32.5,-206 32.5,-200 32.5,-200 32.5,-188 32.5,-188 32.5,-182 38.5,-176 44.5,-176 44.5,-176 81.5,-176 81.5,-176 87.5,-176 93.5,-182 93.5,-188 93.5,-188 93.5,-200 93.5,-200 93.5,-206 87.5,-212 81.5,-212"/>
<text text-anchor="middle" x="63" y="-188.75" font-family="Arial" font-size="15.00">screen</text>
</g>
<!-- /lib/screens/game_screen.dart&#45;&gt;/lib/widgets/screen.dart -->
<g id="edge6" class="edge">
<title>/lib/screens/game_screen.dart&#45;&gt;/lib/widgets/screen.dart</title>
<path fill="none" stroke="#aabbaa" stroke-width="1.3" stroke-opacity="0.533333" d="M341.14,-268.54C301.58,-263.22 246.51,-256.12 198,-251 176.93,-248.78 121.79,-252.78 103,-243 93.7,-238.16 85.72,-230.12 79.38,-222"/>
<polygon fill="#aabbaa" fill-opacity="0.533333" stroke="#aabbaa" stroke-width="1.3" stroke-opacity="0.533333" points="82.27,-220.02 73.64,-213.87 76.55,-224.06 82.27,-220.02"/>
</g>
<!-- /lib/widgets/player_header.dart -->
<g id="node11" class="node">
<title>/lib/widgets/player_header.dart</title>
<path fill="Lavender" stroke="black" stroke-width="1.3" d="M438.62,-212C438.62,-212 351.38,-212 351.38,-212 345.38,-212 339.38,-206 339.38,-200 339.38,-200 339.38,-188 339.38,-188 339.38,-182 345.38,-176 351.38,-176 351.38,-176 438.62,-176 438.62,-176 444.62,-176 450.62,-182 450.62,-188 450.62,-188 450.62,-200 450.62,-200 450.62,-206 444.62,-212 438.62,-212"/>
<text text-anchor="middle" x="395" y="-188.75" font-family="Arial" font-size="15.00">player_header</text>
</g>
<!-- /lib/screens/game_screen.dart&#45;&gt;/lib/widgets/player_header.dart -->
<g id="edge4" class="edge">
<title>/lib/screens/game_screen.dart&#45;&gt;/lib/widgets/player_header.dart</title>
<path fill="none" stroke="#aabbaa" stroke-width="1.3" stroke-opacity="0.533333" d="M395,-258.82C395,-248.8 395,-235.88 395,-224.29"/>
<polygon fill="#aabbaa" fill-opacity="0.533333" stroke="#aabbaa" stroke-width="1.3" stroke-opacity="0.533333" points="398.5,-224.4 395,-214.4 391.5,-224.4 398.5,-224.4"/>
</g>
<!-- /lib/screens/setup_screen.dart -->
<g id="node4" class="node">
<title>/lib/screens/setup_screen.dart</title>
<path fill="Lavender" stroke="black" stroke-width="1.3" d="M436,-367C436,-367 354,-367 354,-367 348,-367 342,-361 342,-355 342,-355 342,-343 342,-343 342,-337 348,-331 354,-331 354,-331 436,-331 436,-331 442,-331 448,-337 448,-343 448,-343 448,-355 448,-355 448,-361 442,-367 436,-367"/>
<text text-anchor="middle" x="395" y="-343.75" font-family="Arial" font-size="15.00">setup_screen</text>
</g>
<!-- /lib/screens/setup_screen.dart&#45;&gt;/lib/game_model.dart -->
<g id="edge8" class="edge">
<title>/lib/screens/setup_screen.dart&#45;&gt;/lib/game_model.dart</title>
<path fill="none" stroke="#aabbaa" stroke-width="1.3" stroke-opacity="0.533333" d="M417.04,-330.71C429.26,-320.75 444.48,-307.71 457,-295 480,-271.66 503.62,-242.62 519.75,-221.86"/>
<polygon fill="#aabbaa" fill-opacity="0.533333" stroke="#aabbaa" stroke-width="1.3" stroke-opacity="0.533333" points="522.51,-224.01 525.83,-213.95 516.96,-219.74 522.51,-224.01"/>
</g>
<!-- /lib/screens/setup_screen.dart&#45;&gt;/lib/screens/game_screen.dart -->
<g id="edge9" class="edge">
<title>/lib/screens/setup_screen.dart&#45;&gt;/lib/screens/game_screen.dart</title>
<path fill="none" stroke="#aabbaa" stroke-width="1.3" stroke-opacity="0.533333" d="M395,-330.7C395,-323.49 395,-314.93 395,-306.82"/>
<polygon fill="#aabbaa" fill-opacity="0.533333" stroke="#aabbaa" stroke-width="1.3" stroke-opacity="0.533333" points="398.5,-307.07 395,-297.07 391.5,-307.07 398.5,-307.07"/>
</g>
<!-- /lib/screens/setup_screen.dart&#45;&gt;/lib/widgets/screen.dart -->
<g id="edge10" class="edge">
<title>/lib/screens/setup_screen.dart&#45;&gt;/lib/widgets/screen.dart</title>
<path fill="none" stroke="#aabbaa" stroke-width="1.3" stroke-opacity="0.533333" d="M341.77,-337.77C280.04,-323.98 177.26,-294.97 103,-243 94.75,-237.23 87.23,-229.33 80.98,-221.61"/>
<polygon fill="#aabbaa" fill-opacity="0.533333" stroke="#aabbaa" stroke-width="1.3" stroke-opacity="0.533333" points="83.81,-219.54 74.99,-213.67 78.22,-223.76 83.81,-219.54"/>
</g>
<!-- /lib/main.dart&#45;&gt;/lib/screens/setup_screen.dart -->
<g id="edge11" class="edge">
<title>/lib/main.dart&#45;&gt;/lib/screens/setup_screen.dart</title>
<path fill="none" stroke="#aabbaa" stroke-width="1.3" stroke-opacity="0.533333" d="M395,-405.7C395,-397.76 395,-388.12 395,-379.11"/>
<polygon fill="#aabbaa" fill-opacity="0.533333" stroke="#aabbaa" stroke-width="1.3" stroke-opacity="0.533333" points="398.5,-379.4 395,-369.4 391.5,-379.4 398.5,-379.4"/>
</g>
<!-- /lib/widgets/playing_card_widget.dart&#45;&gt;/lib/widgets/playing_card.dart -->
<g id="edge12" class="edge">
<title>/lib/widgets/playing_card_widget.dart&#45;&gt;/lib/widgets/playing_card.dart</title>
<path fill="none" stroke="#aabbaa" stroke-width="1.3" stroke-opacity="0.533333" d="M374,-103.7C374,-96.49 374,-87.93 374,-79.82"/>
<polygon fill="#aabbaa" fill-opacity="0.533333" stroke="#aabbaa" stroke-width="1.3" stroke-opacity="0.533333" points="377.5,-80.07 374,-70.07 370.5,-80.07 377.5,-80.07"/>
</g>
<!-- /lib/widgets/card_deck.dart&#45;&gt;/lib/widgets/playing_card_widget.dart -->
<g id="edge14" class="edge">
<title>/lib/widgets/card_deck.dart&#45;&gt;/lib/widgets/playing_card_widget.dart</title>
<path fill="none" stroke="#aabbaa" stroke-width="1.3" stroke-opacity="0.533333" d="M302.48,-175.7C314.13,-167.11 328.39,-156.61 341.11,-147.24"/>
<polygon fill="#aabbaa" fill-opacity="0.533333" stroke="#aabbaa" stroke-width="1.3" stroke-opacity="0.533333" points="342.9,-150.26 348.87,-141.51 338.75,-144.63 342.9,-150.26"/>
</g>
<!-- /lib/widgets/card_deck.dart&#45;&gt;/lib/widgets/playing_card.dart -->
<g id="edge13" class="edge">
<title>/lib/widgets/card_deck.dart&#45;&gt;/lib/widgets/playing_card.dart</title>
<path fill="none" stroke="#aabbaa" stroke-width="1.3" stroke-opacity="0.533333" d="M276.99,-175.83C275.64,-156.77 276.15,-125.82 290,-104 297.65,-91.94 309.14,-82.14 321.19,-74.4"/>
<polygon fill="#aabbaa" fill-opacity="0.533333" stroke="#aabbaa" stroke-width="1.3" stroke-opacity="0.533333" points="322.85,-77.48 329.67,-69.37 319.28,-71.46 322.85,-77.48"/>
</g>
<!-- /lib/widgets/table_surface.dart -->
<g id="node8" class="node">
<title>/lib/widgets/table_surface.dart</title>
<path fill="Lavender" stroke="black" stroke-width="1.3" d="M206,-212C206,-212 124,-212 124,-212 118,-212 112,-206 112,-200 112,-200 112,-188 112,-188 112,-182 118,-176 124,-176 124,-176 206,-176 206,-176 212,-176 218,-182 218,-188 218,-188 218,-200 218,-200 218,-206 212,-212 206,-212"/>
<text text-anchor="middle" x="165" y="-188.75" font-family="Arial" font-size="15.00">table_surface</text>
</g>
</g>
</svg>
