<?xml version="1.0" encoding="UTF-8" standalone="no"?>
<!DOCTYPE svg PUBLIC "-//W3C//DTD SVG 1.1//EN"
 "http://www.w3.org/Graphics/SVG/1.1/DTD/svg11.dtd">
<!-- Generated by graphviz version 12.1.2 (20240928.0832)
 -->
<!-- Pages: 1 -->
<svg width="327pt" height="476pt"
 viewBox="0.00 0.00 327.38 476.00" xmlns="http://www.w3.org/2000/svg" xmlns:xlink="http://www.w3.org/1999/xlink">
<g id="graph0" class="graph" transform="scale(1 1) rotate(0) translate(4 472)">
<polygon fill="white" stroke="none" points="-4,4 -4,-472 323.38,-472 323.38,4 -4,4"/>
<!-- /lib/game_model.dart -->
<g id="node1" class="node">
<title>/lib/game_model.dart</title>
<path fill="Lavender" stroke="black" stroke-width="1.3" d="M90.25,-180C90.25,-180 12,-180 12,-180 6,-180 0,-174 0,-168 0,-168 0,-156 0,-156 0,-150 6,-144 12,-144 12,-144 90.25,-144 90.25,-144 96.25,-144 102.25,-150 102.25,-156 102.25,-156 102.25,-168 102.25,-168 102.25,-174 96.25,-180 90.25,-180"/>
<text text-anchor="middle" x="51.12" y="-156.75" font-family="Arial" font-size="15.00">game_model</text>
</g>
<!-- /lib/playing_card.dart -->
<g id="node4" class="node">
<title>/lib/playing_card.dart</title>
<path fill="Lavender" stroke="black" stroke-width="1.3" d="M181.12,-36C181.12,-36 105.12,-36 105.12,-36 99.12,-36 93.12,-30 93.12,-24 93.12,-24 93.12,-12 93.12,-12 93.12,-6 99.12,0 105.12,0 105.12,0 181.12,0 181.12,0 187.12,0 193.12,-6 193.12,-12 193.12,-12 193.12,-24 193.12,-24 193.12,-30 187.12,-36 181.12,-36"/>
<text text-anchor="middle" x="143.12" y="-12.75" font-family="Arial" font-size="15.00">playing_card</text>
</g>
<!-- /lib/game_model.dart&#45;&gt;/lib/playing_card.dart -->
<g id="edge1" class="edge">
<title>/lib/game_model.dart&#45;&gt;/lib/playing_card.dart</title>
<path fill="none" stroke="#aabbaa" stroke-width="1.3" stroke-opacity="0.533333" d="M48.12,-143.54C45.78,-124.51 44.85,-93.86 58.12,-72 65.53,-59.81 76.92,-49.99 88.98,-42.27"/>
<polygon fill="#aabbaa" fill-opacity="0.533333" stroke="#aabbaa" stroke-width="1.3" stroke-opacity="0.533333" points="90.64,-45.35 97.49,-37.27 87.09,-39.32 90.64,-45.35"/>
</g>
<!-- /lib/game_screen.dart -->
<g id="node2" class="node">
<title>/lib/game_screen.dart</title>
<path fill="Lavender" stroke="black" stroke-width="1.3" d="M173.5,-252C173.5,-252 90.75,-252 90.75,-252 84.75,-252 78.75,-246 78.75,-240 78.75,-240 78.75,-228 78.75,-228 78.75,-222 84.75,-216 90.75,-216 90.75,-216 173.5,-216 173.5,-216 179.5,-216 185.5,-222 185.5,-228 185.5,-228 185.5,-240 185.5,-240 185.5,-246 179.5,-252 173.5,-252"/>
<text text-anchor="middle" x="132.12" y="-228.75" font-family="Arial" font-size="15.00">game_screen</text>
</g>
<!-- /lib/game_screen.dart&#45;&gt;/lib/game_model.dart -->
<g id="edge5" class="edge">
<title>/lib/game_screen.dart&#45;&gt;/lib/game_model.dart</title>
<path fill="none" stroke="#aabbaa" stroke-width="1.3" stroke-opacity="0.533333" d="M112.1,-215.7C102.46,-207.37 90.73,-197.22 80.13,-188.07"/>
<polygon fill="#aabbaa" fill-opacity="0.533333" stroke="#aabbaa" stroke-width="1.3" stroke-opacity="0.533333" points="82.54,-185.52 72.69,-181.63 77.96,-190.82 82.54,-185.52"/>
</g>
<!-- /lib/playing_card_widget.dart -->
<g id="node5" class="node">
<title>/lib/playing_card_widget.dart</title>
<path fill="Lavender" stroke="black" stroke-width="1.3" d="M206.62,-108C206.62,-108 79.62,-108 79.62,-108 73.62,-108 67.62,-102 67.62,-96 67.62,-96 67.62,-84 67.62,-84 67.62,-78 73.62,-72 79.62,-72 79.62,-72 206.62,-72 206.62,-72 212.62,-72 218.62,-78 218.62,-84 218.62,-84 218.62,-96 218.62,-96 218.62,-102 212.62,-108 206.62,-108"/>
<text text-anchor="middle" x="143.12" y="-84.75" font-family="Arial" font-size="15.00">playing_card_widget</text>
</g>
<!-- /lib/game_screen.dart&#45;&gt;/lib/playing_card_widget.dart -->
<g id="edge2" class="edge">
<title>/lib/game_screen.dart&#45;&gt;/lib/playing_card_widget.dart</title>
<path fill="none" stroke="#aabbaa" stroke-width="1.3" stroke-opacity="0.533333" d="M133.47,-215.59C135.32,-191.72 138.67,-148.53 140.89,-119.8"/>
<polygon fill="#aabbaa" fill-opacity="0.533333" stroke="#aabbaa" stroke-width="1.3" stroke-opacity="0.533333" points="144.36,-120.31 141.65,-110.07 137.39,-119.77 144.36,-120.31"/>
</g>
<!-- /lib/widgets/card_deck.dart -->
<g id="node7" class="node">
<title>/lib/widgets/card_deck.dart</title>
<path fill="Lavender" stroke="black" stroke-width="1.3" d="M232.62,-180C232.62,-180 171.62,-180 171.62,-180 165.62,-180 159.62,-174 159.62,-168 159.62,-168 159.62,-156 159.62,-156 159.62,-150 165.62,-144 171.62,-144 171.62,-144 232.62,-144 232.62,-144 238.62,-144 244.62,-150 244.62,-156 244.62,-156 244.62,-168 244.62,-168 244.62,-174 238.62,-180 232.62,-180"/>
<text text-anchor="middle" x="202.12" y="-156.75" font-family="Arial" font-size="15.00">card_deck</text>
</g>
<!-- /lib/game_screen.dart&#45;&gt;/lib/widgets/card_deck.dart -->
<g id="edge3" class="edge">
<title>/lib/game_screen.dart&#45;&gt;/lib/widgets/card_deck.dart</title>
<path fill="none" stroke="#aabbaa" stroke-width="1.3" stroke-opacity="0.533333" d="M149.43,-215.7C157.65,-207.47 167.64,-197.48 176.7,-188.42"/>
<polygon fill="#aabbaa" fill-opacity="0.533333" stroke="#aabbaa" stroke-width="1.3" stroke-opacity="0.533333" points="179.03,-191.04 183.63,-181.5 174.08,-186.09 179.03,-191.04"/>
</g>
<!-- /lib/widgets/player.dart -->
<g id="node8" class="node">
<title>/lib/widgets/player.dart</title>
<path fill="Lavender" stroke="black" stroke-width="1.3" d="M307.38,-180C307.38,-180 274.88,-180 274.88,-180 268.88,-180 262.88,-174 262.88,-168 262.88,-168 262.88,-156 262.88,-156 262.88,-150 268.88,-144 274.88,-144 274.88,-144 307.38,-144 307.38,-144 313.38,-144 319.38,-150 319.38,-156 319.38,-156 319.38,-168 319.38,-168 319.38,-174 313.38,-180 307.38,-180"/>
<text text-anchor="middle" x="291.12" y="-156.75" font-family="Arial" font-size="15.00">player</text>
</g>
<!-- /lib/game_screen.dart&#45;&gt;/lib/widgets/player.dart -->
<g id="edge4" class="edge">
<title>/lib/game_screen.dart&#45;&gt;/lib/widgets/player.dart</title>
<path fill="none" stroke="#aabbaa" stroke-width="1.3" stroke-opacity="0.533333" d="M172.88,-215.54C194.23,-206.35 221.01,-194.72 251.86,-180.98"/>
<polygon fill="#aabbaa" fill-opacity="0.533333" stroke="#aabbaa" stroke-width="1.3" stroke-opacity="0.533333" points="252.97,-184.31 260.67,-177.04 250.11,-177.92 252.97,-184.31"/>
</g>
<!-- /lib/main.dart -->
<g id="node3" class="node">
<title>/lib/main.dart</title>
<path fill="Lavender" stroke="black" stroke-width="1.3" d="M106.12,-396C106.12,-396 76.12,-396 76.12,-396 70.12,-396 64.12,-390 64.12,-384 64.12,-384 64.12,-372 64.12,-372 64.12,-366 70.12,-360 76.12,-360 76.12,-360 106.12,-360 106.12,-360 112.12,-360 118.12,-366 118.12,-372 118.12,-372 118.12,-384 118.12,-384 118.12,-390 112.12,-396 106.12,-396"/>
<text text-anchor="middle" x="91.12" y="-372.75" font-family="Arial" font-size="15.00">main</text>
</g>
<!-- /lib/setup_screen.dart -->
<g id="node6" class="node">
<title>/lib/setup_screen.dart</title>
<path fill="Lavender" stroke="black" stroke-width="1.3" d="M132.12,-324C132.12,-324 50.12,-324 50.12,-324 44.12,-324 38.12,-318 38.12,-312 38.12,-312 38.12,-300 38.12,-300 38.12,-294 44.12,-288 50.12,-288 50.12,-288 132.12,-288 132.12,-288 138.12,-288 144.12,-294 144.12,-300 144.12,-300 144.12,-312 144.12,-312 144.12,-318 138.12,-324 132.12,-324"/>
<text text-anchor="middle" x="91.12" y="-300.75" font-family="Arial" font-size="15.00">setup_screen</text>
</g>
<!-- /lib/main.dart&#45;&gt;/lib/setup_screen.dart -->
<g id="edge6" class="edge">
<title>/lib/main.dart&#45;&gt;/lib/setup_screen.dart</title>
<path fill="none" stroke="#aabbaa" stroke-width="1.3" stroke-opacity="0.533333" d="M91.12,-359.7C91.12,-352.49 91.12,-343.93 91.12,-335.82"/>
<polygon fill="#aabbaa" fill-opacity="0.533333" stroke="#aabbaa" stroke-width="1.3" stroke-opacity="0.533333" points="94.63,-336.07 91.13,-326.07 87.63,-336.07 94.63,-336.07"/>
</g>
<!-- /lib/playing_card_widget.dart&#45;&gt;/lib/playing_card.dart -->
<g id="edge7" class="edge">
<title>/lib/playing_card_widget.dart&#45;&gt;/lib/playing_card.dart</title>
<path fill="none" stroke="#aabbaa" stroke-width="1.3" stroke-opacity="0.533333" d="M143.12,-71.7C143.12,-64.49 143.12,-55.93 143.12,-47.82"/>
<polygon fill="#aabbaa" fill-opacity="0.533333" stroke="#aabbaa" stroke-width="1.3" stroke-opacity="0.533333" points="146.63,-48.07 143.13,-38.07 139.63,-48.07 146.63,-48.07"/>
</g>
<!-- /lib/setup_screen.dart&#45;&gt;/lib/game_model.dart -->
<g id="edge8" class="edge">
<title>/lib/setup_screen.dart&#45;&gt;/lib/game_model.dart</title>
<path fill="none" stroke="#aabbaa" stroke-width="1.3" stroke-opacity="0.533333" d="M83.38,-287.59C79.04,-277.38 73.79,-264.13 70.12,-252 64.16,-232.29 59.34,-209.57 56.05,-192.02"/>
<polygon fill="#aabbaa" fill-opacity="0.533333" stroke="#aabbaa" stroke-width="1.3" stroke-opacity="0.533333" points="59.5,-191.43 54.28,-182.21 52.61,-192.68 59.5,-191.43"/>
</g>
<!-- /lib/setup_screen.dart&#45;&gt;/lib/game_screen.dart -->
<g id="edge9" class="edge">
<title>/lib/setup_screen.dart&#45;&gt;/lib/game_screen.dart</title>
<path fill="none" stroke="#aabbaa" stroke-width="1.3" stroke-opacity="0.533333" d="M101.26,-287.7C105.73,-280.07 111.09,-270.92 116.08,-262.4"/>
<polygon fill="#aabbaa" fill-opacity="0.533333" stroke="#aabbaa" stroke-width="1.3" stroke-opacity="0.533333" points="119.08,-264.2 121.11,-253.8 113.04,-260.66 119.08,-264.2"/>
</g>
<!-- /lib/widgets/card_deck.dart&#45;&gt;/lib/playing_card.dart -->
<g id="edge10" class="edge">
<title>/lib/widgets/card_deck.dart&#45;&gt;/lib/playing_card.dart</title>
<path fill="none" stroke="#aabbaa" stroke-width="1.3" stroke-opacity="0.533333" d="M214.75,-143.72C226.66,-125.12 240.93,-95.08 228.12,-72 221.33,-59.76 210.41,-49.98 198.63,-42.32"/>
<polygon fill="#aabbaa" fill-opacity="0.533333" stroke="#aabbaa" stroke-width="1.3" stroke-opacity="0.533333" points="200.68,-39.47 190.3,-37.38 197.12,-45.49 200.68,-39.47"/>
</g>
<!-- /lib/widgets/card_deck.dart&#45;&gt;/lib/playing_card_widget.dart -->
<g id="edge11" class="edge">
<title>/lib/widgets/card_deck.dart&#45;&gt;/lib/playing_card_widget.dart</title>
<path fill="none" stroke="#aabbaa" stroke-width="1.3" stroke-opacity="0.533333" d="M187.54,-143.7C180.75,-135.64 172.54,-125.89 165.02,-116.98"/>
<polygon fill="#aabbaa" fill-opacity="0.533333" stroke="#aabbaa" stroke-width="1.3" stroke-opacity="0.533333" points="167.93,-115 158.81,-109.61 162.58,-119.51 167.93,-115"/>
</g>
<!-- /lib/widgets/table_surface.dart -->
<g id="node9" class="node">
<title>/lib/widgets/table_surface.dart</title>
<path fill="Lavender" stroke="black" stroke-width="1.3" d="M249.12,-468C249.12,-468 167.12,-468 167.12,-468 161.12,-468 155.12,-462 155.12,-456 155.12,-456 155.12,-444 155.12,-444 155.12,-438 161.12,-432 167.12,-432 167.12,-432 249.12,-432 249.12,-432 255.12,-432 261.12,-438 261.12,-444 261.12,-444 261.12,-456 261.12,-456 261.12,-462 255.12,-468 249.12,-468"/>
<text text-anchor="middle" x="208.12" y="-444.75" font-family="Arial" font-size="15.00">table_surface</text>
</g>
<!-- /test/widget_test.dart -->
<g id="node10" class="node">
<title>/test/widget_test.dart</title>
<path fill="Lavender" stroke="black" stroke-width="1.3" d="M125,-468C125,-468 57.25,-468 57.25,-468 51.25,-468 45.25,-462 45.25,-456 45.25,-456 45.25,-444 45.25,-444 45.25,-438 51.25,-432 57.25,-432 57.25,-432 125,-432 125,-432 131,-432 137,-438 137,-444 137,-444 137,-456 137,-456 137,-462 131,-468 125,-468"/>
<text text-anchor="middle" x="91.12" y="-444.75" font-family="Arial" font-size="15.00">widget_test</text>
</g>
<!-- /test/widget_test.dart&#45;&gt;/lib/main.dart -->
<g id="edge12" class="edge">
<title>/test/widget_test.dart&#45;&gt;/lib/main.dart</title>
<path fill="none" stroke="#aabbaa" stroke-width="1.3" stroke-opacity="0.533333" d="M91.12,-431.7C91.12,-424.49 91.12,-415.93 91.12,-407.82"/>
<polygon fill="#aabbaa" fill-opacity="0.533333" stroke="#aabbaa" stroke-width="1.3" stroke-opacity="0.533333" points="94.63,-408.07 91.13,-398.07 87.63,-408.07 94.63,-408.07"/>
</g>
</g>
</svg>
