<?xml version="1.0" encoding="UTF-8" standalone="no"?>
<!DOCTYPE svg PUBLIC "-//W3C//DTD SVG 1.1//EN"
 "http://www.w3.org/Graphics/SVG/1.1/DTD/svg11.dtd">
<!-- Generated by graphviz version 12.1.2 (20240928.0832)
 -->
<!-- Pages: 1 -->
<svg width="568pt" height="603pt"
 viewBox="0.00 0.00 568.00 603.00" xmlns="http://www.w3.org/2000/svg" xmlns:xlink="http://www.w3.org/1999/xlink">
<g id="graph0" class="graph" transform="scale(1 1) rotate(0) translate(4 599)">
<polygon fill="white" stroke="none" points="-4,4 -4,-599 564,-599 564,4 -4,4"/>
<g id="clust1" class="cluster">
<title>cluster~</title>
<path fill="none" stroke="lightgray" stroke-width="2.6" d="M20,-8C20,-8 540,-8 540,-8 546,-8 552,-14 552,-20 552,-20 552,-575 552,-575 552,-581 546,-587 540,-587 540,-587 20,-587 20,-587 14,-587 8,-581 8,-575 8,-575 8,-20 8,-20 8,-14 14,-8 20,-8"/>
<text text-anchor="middle" x="280" y="-570.65" font-family="Arial Black" font-size="13.00">cards</text>
</g>
<g id="clust2" class="cluster">
<title>cluster~/test</title>
<path fill="none" stroke="lightgray" stroke-width="2.6" d="M326,-481C326,-481 410,-481 410,-481 416,-481 422,-487 422,-493 422,-493 422,-544 422,-544 422,-550 416,-556 410,-556 410,-556 326,-556 326,-556 320,-556 314,-550 314,-544 314,-544 314,-493 314,-493 314,-487 320,-481 326,-481"/>
<text text-anchor="middle" x="368" y="-539.65" font-family="Arial Black" font-size="13.00">test</text>
</g>
<g id="clust3" class="cluster">
<title>cluster~/lib</title>
<path fill="none" stroke="lightgray" stroke-width="2.6" d="M28,-16C28,-16 532,-16 532,-16 538,-16 544,-22 544,-28 544,-28 544,-461 544,-461 544,-467 538,-473 532,-473 532,-473 28,-473 28,-473 22,-473 16,-467 16,-461 16,-461 16,-28 16,-28 16,-22 22,-16 28,-16"/>
<text text-anchor="middle" x="280" y="-456.65" font-family="Arial Black" font-size="13.00">lib</text>
</g>
<g id="clust4" class="cluster">
<title>cluster~/lib/screens</title>
<path fill="none" stroke="lightgray" stroke-width="2.6" d="M319,-251C319,-251 417,-251 417,-251 423,-251 429,-257 429,-263 429,-263 429,-386 429,-386 429,-392 423,-398 417,-398 417,-398 319,-398 319,-398 313,-398 307,-392 307,-386 307,-386 307,-263 307,-263 307,-257 313,-251 319,-251"/>
<text text-anchor="middle" x="368" y="-381.65" font-family="Arial Black" font-size="13.00">screens</text>
</g>
<g id="clust5" class="cluster">
<title>cluster~/lib/widgets</title>
<path fill="none" stroke="lightgray" stroke-width="2.6" d="M36,-24C36,-24 392,-24 392,-24 398,-24 404,-30 404,-36 404,-36 404,-231 404,-231 404,-237 398,-243 392,-243 392,-243 36,-243 36,-243 30,-243 24,-237 24,-231 24,-231 24,-36 24,-36 24,-30 30,-24 36,-24"/>
<text text-anchor="middle" x="214" y="-226.65" font-family="Arial Black" font-size="13.00">widgets</text>
</g>
<!-- /test/widget_test.dart -->
<g id="node1" class="node">
<title>/test/widget_test.dart</title>
<path fill="Lavender" stroke="black" stroke-width="1.3" d="M401.88,-525C401.88,-525 334.12,-525 334.12,-525 328.12,-525 322.12,-519 322.12,-513 322.12,-513 322.12,-501 322.12,-501 322.12,-495 328.12,-489 334.12,-489 334.12,-489 401.88,-489 401.88,-489 407.88,-489 413.88,-495 413.88,-501 413.88,-501 413.88,-513 413.88,-513 413.88,-519 407.88,-525 401.88,-525"/>
<text text-anchor="middle" x="368" y="-501.75" font-family="Arial" font-size="15.00">widget_test</text>
</g>
<!-- /lib/main.dart -->
<g id="node5" class="node">
<title>/lib/main.dart</title>
<path fill="Lavender" stroke="black" stroke-width="1.3" d="M383,-442C383,-442 353,-442 353,-442 347,-442 341,-436 341,-430 341,-430 341,-418 341,-418 341,-412 347,-406 353,-406 353,-406 383,-406 383,-406 389,-406 395,-412 395,-418 395,-418 395,-430 395,-430 395,-436 389,-442 383,-442"/>
<text text-anchor="middle" x="368" y="-418.75" font-family="Arial" font-size="15.00">main</text>
</g>
<!-- /test/widget_test.dart&#45;&gt;/lib/main.dart -->
<g id="edge1" class="edge">
<title>/test/widget_test.dart&#45;&gt;/lib/main.dart</title>
<path fill="none" stroke="#aabbaa" stroke-width="1.3" stroke-opacity="0.533333" d="M368,-488.82C368,-478.8 368,-465.88 368,-454.29"/>
<polygon fill="#aabbaa" fill-opacity="0.533333" stroke="#aabbaa" stroke-width="1.3" stroke-opacity="0.533333" points="371.5,-454.4 368,-444.4 364.5,-454.4 371.5,-454.4"/>
</g>
<!-- /lib/game_model.dart -->
<g id="node2" class="node">
<title>/lib/game_model.dart</title>
<path fill="Lavender" stroke="black" stroke-width="1.3" d="M524.12,-212C524.12,-212 445.88,-212 445.88,-212 439.88,-212 433.88,-206 433.88,-200 433.88,-200 433.88,-188 433.88,-188 433.88,-182 439.88,-176 445.88,-176 445.88,-176 524.12,-176 524.12,-176 530.12,-176 536.12,-182 536.12,-188 536.12,-188 536.12,-200 536.12,-200 536.12,-206 530.12,-212 524.12,-212"/>
<text text-anchor="middle" x="485" y="-188.75" font-family="Arial" font-size="15.00">game_model</text>
</g>
<!-- /lib/widgets/playing_card.dart -->
<g id="node10" class="node">
<title>/lib/widgets/playing_card.dart</title>
<path fill="Lavender" stroke="black" stroke-width="1.3" d="M358,-68C358,-68 282,-68 282,-68 276,-68 270,-62 270,-56 270,-56 270,-44 270,-44 270,-38 276,-32 282,-32 282,-32 358,-32 358,-32 364,-32 370,-38 370,-44 370,-44 370,-56 370,-56 370,-62 364,-68 358,-68"/>
<text text-anchor="middle" x="320" y="-44.75" font-family="Arial" font-size="15.00">playing_card</text>
</g>
<!-- /lib/game_model.dart&#45;&gt;/lib/widgets/playing_card.dart -->
<g id="edge2" class="edge">
<title>/lib/game_model.dart&#45;&gt;/lib/widgets/playing_card.dart</title>
<path fill="none" stroke="#aabbaa" stroke-width="1.3" stroke-opacity="0.533333" d="M471.82,-175.61C456.9,-156.64 431.26,-126.03 405,-104 392.03,-93.12 376.63,-82.85 362.52,-74.29"/>
<polygon fill="#aabbaa" fill-opacity="0.533333" stroke="#aabbaa" stroke-width="1.3" stroke-opacity="0.533333" points="364.62,-71.47 354.23,-69.39 361.05,-77.49 364.62,-71.47"/>
</g>
<!-- /lib/screens/game_screen.dart -->
<g id="node3" class="node">
<title>/lib/screens/game_screen.dart</title>
<path fill="Lavender" stroke="black" stroke-width="1.3" d="M409.38,-295C409.38,-295 326.62,-295 326.62,-295 320.62,-295 314.62,-289 314.62,-283 314.62,-283 314.62,-271 314.62,-271 314.62,-265 320.62,-259 326.62,-259 326.62,-259 409.38,-259 409.38,-259 415.38,-259 421.38,-265 421.38,-271 421.38,-271 421.38,-283 421.38,-283 421.38,-289 415.38,-295 409.38,-295"/>
<text text-anchor="middle" x="368" y="-271.75" font-family="Arial" font-size="15.00">game_screen</text>
</g>
<!-- /lib/screens/game_screen.dart&#45;&gt;/lib/game_model.dart -->
<g id="edge7" class="edge">
<title>/lib/screens/game_screen.dart&#45;&gt;/lib/game_model.dart</title>
<path fill="none" stroke="#aabbaa" stroke-width="1.3" stroke-opacity="0.533333" d="M396.3,-258.55C404.06,-253.63 412.41,-248.2 420,-243 430.87,-235.55 442.52,-227.1 452.91,-219.39"/>
<polygon fill="#aabbaa" fill-opacity="0.533333" stroke="#aabbaa" stroke-width="1.3" stroke-opacity="0.533333" points="454.93,-222.25 460.85,-213.46 450.74,-216.64 454.93,-222.25"/>
</g>
<!-- /lib/widgets/playing_card_widget.dart -->
<g id="node6" class="node">
<title>/lib/widgets/playing_card_widget.dart</title>
<path fill="Lavender" stroke="black" stroke-width="1.3" d="M383.5,-140C383.5,-140 256.5,-140 256.5,-140 250.5,-140 244.5,-134 244.5,-128 244.5,-128 244.5,-116 244.5,-116 244.5,-110 250.5,-104 256.5,-104 256.5,-104 383.5,-104 383.5,-104 389.5,-104 395.5,-110 395.5,-116 395.5,-116 395.5,-128 395.5,-128 395.5,-134 389.5,-140 383.5,-140"/>
<text text-anchor="middle" x="320" y="-116.75" font-family="Arial" font-size="15.00">playing_card_widget</text>
</g>
<!-- /lib/screens/game_screen.dart&#45;&gt;/lib/widgets/playing_card_widget.dart -->
<g id="edge5" class="edge">
<title>/lib/screens/game_screen.dart&#45;&gt;/lib/widgets/playing_card_widget.dart</title>
<path fill="none" stroke="#aabbaa" stroke-width="1.3" stroke-opacity="0.533333" d="M393.19,-258.85C397.98,-254.3 402.33,-248.97 405,-243 417.18,-215.83 419.45,-202.04 405,-176 398.21,-163.76 387.29,-153.98 375.51,-146.32"/>
<polygon fill="#aabbaa" fill-opacity="0.533333" stroke="#aabbaa" stroke-width="1.3" stroke-opacity="0.533333" points="377.56,-143.47 367.17,-141.38 373.99,-149.49 377.56,-143.47"/>
</g>
<!-- /lib/widgets/card_deck.dart -->
<g id="node7" class="node">
<title>/lib/widgets/card_deck.dart</title>
<path fill="Lavender" stroke="black" stroke-width="1.3" d="M309.5,-212C309.5,-212 248.5,-212 248.5,-212 242.5,-212 236.5,-206 236.5,-200 236.5,-200 236.5,-188 236.5,-188 236.5,-182 242.5,-176 248.5,-176 248.5,-176 309.5,-176 309.5,-176 315.5,-176 321.5,-182 321.5,-188 321.5,-188 321.5,-200 321.5,-200 321.5,-206 315.5,-212 309.5,-212"/>
<text text-anchor="middle" x="279" y="-188.75" font-family="Arial" font-size="15.00">card_deck</text>
</g>
<!-- /lib/screens/game_screen.dart&#45;&gt;/lib/widgets/card_deck.dart -->
<g id="edge3" class="edge">
<title>/lib/screens/game_screen.dart&#45;&gt;/lib/widgets/card_deck.dart</title>
<path fill="none" stroke="#aabbaa" stroke-width="1.3" stroke-opacity="0.533333" d="M348.36,-258.59C342.73,-253.58 336.61,-248.09 331,-243 322.93,-235.68 314.22,-227.68 306.27,-220.34"/>
<polygon fill="#aabbaa" fill-opacity="0.533333" stroke="#aabbaa" stroke-width="1.3" stroke-opacity="0.533333" points="308.86,-217.97 299.15,-213.74 304.11,-223.1 308.86,-217.97"/>
</g>
<!-- /lib/widgets/player.dart -->
<g id="node9" class="node">
<title>/lib/widgets/player.dart</title>
<path fill="Lavender" stroke="black" stroke-width="1.3" d="M384.25,-212C384.25,-212 351.75,-212 351.75,-212 345.75,-212 339.75,-206 339.75,-200 339.75,-200 339.75,-188 339.75,-188 339.75,-182 345.75,-176 351.75,-176 351.75,-176 384.25,-176 384.25,-176 390.25,-176 396.25,-182 396.25,-188 396.25,-188 396.25,-200 396.25,-200 396.25,-206 390.25,-212 384.25,-212"/>
<text text-anchor="middle" x="368" y="-188.75" font-family="Arial" font-size="15.00">player</text>
</g>
<!-- /lib/screens/game_screen.dart&#45;&gt;/lib/widgets/player.dart -->
<g id="edge4" class="edge">
<title>/lib/screens/game_screen.dart&#45;&gt;/lib/widgets/player.dart</title>
<path fill="none" stroke="#aabbaa" stroke-width="1.3" stroke-opacity="0.533333" d="M368,-258.82C368,-248.8 368,-235.88 368,-224.29"/>
<polygon fill="#aabbaa" fill-opacity="0.533333" stroke="#aabbaa" stroke-width="1.3" stroke-opacity="0.533333" points="371.5,-224.4 368,-214.4 364.5,-224.4 371.5,-224.4"/>
</g>
<!-- /lib/widgets/screen.dart -->
<g id="node11" class="node">
<title>/lib/widgets/screen.dart</title>
<path fill="Lavender" stroke="black" stroke-width="1.3" d="M81.5,-212C81.5,-212 44.5,-212 44.5,-212 38.5,-212 32.5,-206 32.5,-200 32.5,-200 32.5,-188 32.5,-188 32.5,-182 38.5,-176 44.5,-176 44.5,-176 81.5,-176 81.5,-176 87.5,-176 93.5,-182 93.5,-188 93.5,-188 93.5,-200 93.5,-200 93.5,-206 87.5,-212 81.5,-212"/>
<text text-anchor="middle" x="63" y="-188.75" font-family="Arial" font-size="15.00">screen</text>
</g>
<!-- /lib/screens/game_screen.dart&#45;&gt;/lib/widgets/screen.dart -->
<g id="edge6" class="edge">
<title>/lib/screens/game_screen.dart&#45;&gt;/lib/widgets/screen.dart</title>
<path fill="none" stroke="#aabbaa" stroke-width="1.3" stroke-opacity="0.533333" d="M314.52,-268.21C277.84,-262.99 228.03,-256.16 184,-251 166.04,-248.89 118.98,-251.47 103,-243 93.73,-238.09 85.76,-230.04 79.43,-221.93"/>
<polygon fill="#aabbaa" fill-opacity="0.533333" stroke="#aabbaa" stroke-width="1.3" stroke-opacity="0.533333" points="82.31,-219.94 73.67,-213.81 76.6,-223.99 82.31,-219.94"/>
</g>
<!-- /lib/screens/setup_screen.dart -->
<g id="node4" class="node">
<title>/lib/screens/setup_screen.dart</title>
<path fill="Lavender" stroke="black" stroke-width="1.3" d="M409,-367C409,-367 327,-367 327,-367 321,-367 315,-361 315,-355 315,-355 315,-343 315,-343 315,-337 321,-331 327,-331 327,-331 409,-331 409,-331 415,-331 421,-337 421,-343 421,-343 421,-355 421,-355 421,-361 415,-367 409,-367"/>
<text text-anchor="middle" x="368" y="-343.75" font-family="Arial" font-size="15.00">setup_screen</text>
</g>
<!-- /lib/screens/setup_screen.dart&#45;&gt;/lib/game_model.dart -->
<g id="edge8" class="edge">
<title>/lib/screens/setup_screen.dart&#45;&gt;/lib/game_model.dart</title>
<path fill="none" stroke="#aabbaa" stroke-width="1.3" stroke-opacity="0.533333" d="M392.21,-330.65C404.5,-321.06 419.09,-308.4 430,-295 447.94,-272.96 463.04,-244.22 472.86,-223.21"/>
<polygon fill="#aabbaa" fill-opacity="0.533333" stroke="#aabbaa" stroke-width="1.3" stroke-opacity="0.533333" points="475.99,-224.77 476.94,-214.22 469.62,-221.88 475.99,-224.77"/>
</g>
<!-- /lib/screens/setup_screen.dart&#45;&gt;/lib/screens/game_screen.dart -->
<g id="edge9" class="edge">
<title>/lib/screens/setup_screen.dart&#45;&gt;/lib/screens/game_screen.dart</title>
<path fill="none" stroke="#aabbaa" stroke-width="1.3" stroke-opacity="0.533333" d="M368,-330.7C368,-323.49 368,-314.93 368,-306.82"/>
<polygon fill="#aabbaa" fill-opacity="0.533333" stroke="#aabbaa" stroke-width="1.3" stroke-opacity="0.533333" points="371.5,-307.07 368,-297.07 364.5,-307.07 371.5,-307.07"/>
</g>
<!-- /lib/screens/setup_screen.dart&#45;&gt;/lib/widgets/screen.dart -->
<g id="edge10" class="edge">
<title>/lib/screens/setup_screen.dart&#45;&gt;/lib/widgets/screen.dart</title>
<path fill="none" stroke="#aabbaa" stroke-width="1.3" stroke-opacity="0.533333" d="M314.62,-335.3C258.18,-320.03 168.44,-290.38 103,-243 94.97,-237.19 87.57,-229.4 81.38,-221.8"/>
<polygon fill="#aabbaa" fill-opacity="0.533333" stroke="#aabbaa" stroke-width="1.3" stroke-opacity="0.533333" points="84.27,-219.82 75.42,-213.99 78.71,-224.06 84.27,-219.82"/>
</g>
<!-- /lib/main.dart&#45;&gt;/lib/screens/setup_screen.dart -->
<g id="edge11" class="edge">
<title>/lib/main.dart&#45;&gt;/lib/screens/setup_screen.dart</title>
<path fill="none" stroke="#aabbaa" stroke-width="1.3" stroke-opacity="0.533333" d="M368,-405.7C368,-397.76 368,-388.12 368,-379.11"/>
<polygon fill="#aabbaa" fill-opacity="0.533333" stroke="#aabbaa" stroke-width="1.3" stroke-opacity="0.533333" points="371.5,-379.4 368,-369.4 364.5,-379.4 371.5,-379.4"/>
</g>
<!-- /lib/widgets/playing_card_widget.dart&#45;&gt;/lib/widgets/playing_card.dart -->
<g id="edge12" class="edge">
<title>/lib/widgets/playing_card_widget.dart&#45;&gt;/lib/widgets/playing_card.dart</title>
<path fill="none" stroke="#aabbaa" stroke-width="1.3" stroke-opacity="0.533333" d="M320,-103.7C320,-96.49 320,-87.93 320,-79.82"/>
<polygon fill="#aabbaa" fill-opacity="0.533333" stroke="#aabbaa" stroke-width="1.3" stroke-opacity="0.533333" points="323.5,-80.07 320,-70.07 316.5,-80.07 323.5,-80.07"/>
</g>
<!-- /lib/widgets/card_deck.dart&#45;&gt;/lib/widgets/playing_card_widget.dart -->
<g id="edge14" class="edge">
<title>/lib/widgets/card_deck.dart&#45;&gt;/lib/widgets/playing_card_widget.dart</title>
<path fill="none" stroke="#aabbaa" stroke-width="1.3" stroke-opacity="0.533333" d="M289.13,-175.7C293.6,-168.07 298.96,-158.92 303.95,-150.4"/>
<polygon fill="#aabbaa" fill-opacity="0.533333" stroke="#aabbaa" stroke-width="1.3" stroke-opacity="0.533333" points="306.95,-152.2 308.99,-141.8 300.91,-148.66 306.95,-152.2"/>
</g>
<!-- /lib/widgets/card_deck.dart&#45;&gt;/lib/widgets/playing_card.dart -->
<g id="edge13" class="edge">
<title>/lib/widgets/card_deck.dart&#45;&gt;/lib/widgets/playing_card.dart</title>
<path fill="none" stroke="#aabbaa" stroke-width="1.3" stroke-opacity="0.533333" d="M260.44,-175.66C243.36,-157.52 222.58,-128.34 236,-104 242.7,-91.85 253.49,-82.1 265.13,-74.44"/>
<polygon fill="#aabbaa" fill-opacity="0.533333" stroke="#aabbaa" stroke-width="1.3" stroke-opacity="0.533333" points="266.58,-77.66 273.36,-69.51 262.98,-71.65 266.58,-77.66"/>
</g>
<!-- /lib/widgets/table_surface.dart -->
<g id="node8" class="node">
<title>/lib/widgets/table_surface.dart</title>
<path fill="Lavender" stroke="black" stroke-width="1.3" d="M206,-212C206,-212 124,-212 124,-212 118,-212 112,-206 112,-200 112,-200 112,-188 112,-188 112,-182 118,-176 124,-176 124,-176 206,-176 206,-176 212,-176 218,-182 218,-188 218,-188 218,-200 218,-200 218,-206 212,-212 206,-212"/>
<text text-anchor="middle" x="165" y="-188.75" font-family="Arial" font-size="15.00">table_surface</text>
</g>
</g>
</svg>
