<?xml version="1.0" encoding="UTF-8" standalone="no"?>
<!DOCTYPE svg PUBLIC "-//W3C//DTD SVG 1.1//EN"
 "http://www.w3.org/Graphics/SVG/1.1/DTD/svg11.dtd">
<!-- Generated by graphviz version 12.1.2 (20240928.0832)
 -->
<!-- Pages: 1 -->
<svg width="812pt" height="667pt"
 viewBox="0.00 0.00 812.00 667.00" xmlns="http://www.w3.org/2000/svg" xmlns:xlink="http://www.w3.org/1999/xlink">
<g id="graph0" class="graph" transform="scale(1 1) rotate(0) translate(4 663)">
<polygon fill="white" stroke="none" points="-4,4 -4,-663 808,-663 808,4 -4,4"/>
<g id="clust1" class="cluster">
<title>cluster~</title>
<path fill="none" stroke="lightgray" stroke-width="2.6" d="M20,-8C20,-8 784,-8 784,-8 790,-8 796,-14 796,-20 796,-20 796,-639 796,-639 796,-645 790,-651 784,-651 784,-651 20,-651 20,-651 14,-651 8,-645 8,-639 8,-639 8,-20 8,-20 8,-14 14,-8 20,-8"/>
<text text-anchor="middle" x="402" y="-634.65" font-family="Arial Black" font-size="13.00">cards</text>
</g>
<g id="clust2" class="cluster">
<title>cluster~/test</title>
<path fill="none" stroke="lightgray" stroke-width="2.6" d="M43,-545C43,-545 127,-545 127,-545 133,-545 139,-551 139,-557 139,-557 139,-608 139,-608 139,-614 133,-620 127,-620 127,-620 43,-620 43,-620 37,-620 31,-614 31,-608 31,-608 31,-557 31,-557 31,-551 37,-545 43,-545"/>
<text text-anchor="middle" x="85" y="-603.65" font-family="Arial Black" font-size="13.00">test</text>
</g>
<g id="clust3" class="cluster">
<title>cluster~/lib</title>
<path fill="none" stroke="lightgray" stroke-width="2.6" d="M28,-16C28,-16 776,-16 776,-16 782,-16 788,-22 788,-28 788,-28 788,-525 788,-525 788,-531 782,-537 776,-537 776,-537 28,-537 28,-537 22,-537 16,-531 16,-525 16,-525 16,-28 16,-28 16,-22 22,-16 28,-16"/>
<text text-anchor="middle" x="402" y="-520.65" font-family="Arial Black" font-size="13.00">lib</text>
</g>
<g id="clust4" class="cluster">
<title>cluster~/lib/screens</title>
<path fill="none" stroke="lightgray" stroke-width="2.6" d="M36,-240C36,-240 296,-240 296,-240 302,-240 308,-246 308,-252 308,-252 308,-450 308,-450 308,-456 302,-462 296,-462 296,-462 36,-462 36,-462 30,-462 24,-456 24,-450 24,-450 24,-252 24,-252 24,-246 30,-240 36,-240"/>
<text text-anchor="middle" x="166" y="-445.65" font-family="Arial Black" font-size="13.00">screens</text>
</g>
<g id="clust5" class="cluster">
<title>cluster~/lib/widgets</title>
<path fill="none" stroke="lightgray" stroke-width="2.6" d="M471,-24C471,-24 768,-24 768,-24 774,-24 780,-30 780,-36 780,-36 780,-375 780,-375 780,-381 774,-387 768,-387 768,-387 471,-387 471,-387 465,-387 459,-381 459,-375 459,-375 459,-36 459,-36 459,-30 465,-24 471,-24"/>
<text text-anchor="middle" x="619.5" y="-370.65" font-family="Arial Black" font-size="13.00">widgets</text>
</g>
<!-- /test/widget_test.dart -->
<g id="node1" class="node">
<title>/test/widget_test.dart</title>
<path fill="Lavender" stroke="black" stroke-width="1.3" d="M118.88,-589C118.88,-589 51.12,-589 51.12,-589 45.12,-589 39.12,-583 39.12,-577 39.12,-577 39.12,-565 39.12,-565 39.12,-559 45.12,-553 51.12,-553 51.12,-553 118.88,-553 118.88,-553 124.88,-553 130.88,-559 130.88,-565 130.88,-565 130.88,-577 130.88,-577 130.88,-583 124.88,-589 118.88,-589"/>
<text text-anchor="middle" x="85" y="-565.75" font-family="Arial" font-size="15.00">widget_test</text>
</g>
<!-- /lib/main.dart -->
<g id="node7" class="node">
<title>/lib/main.dart</title>
<path fill="Lavender" stroke="black" stroke-width="1.3" d="M100,-506C100,-506 70,-506 70,-506 64,-506 58,-500 58,-494 58,-494 58,-482 58,-482 58,-476 64,-470 70,-470 70,-470 100,-470 100,-470 106,-470 112,-476 112,-482 112,-482 112,-494 112,-494 112,-500 106,-506 100,-506"/>
<text text-anchor="middle" x="85" y="-482.75" font-family="Arial" font-size="15.00">main</text>
</g>
<!-- /test/widget_test.dart&#45;&gt;/lib/main.dart -->
<g id="edge1" class="edge">
<title>/test/widget_test.dart&#45;&gt;/lib/main.dart</title>
<path fill="none" stroke="#aabbaa" stroke-width="1.3" stroke-opacity="0.533333" d="M85,-552.82C85,-542.8 85,-529.88 85,-518.29"/>
<polygon fill="#aabbaa" fill-opacity="0.533333" stroke="#aabbaa" stroke-width="1.3" stroke-opacity="0.533333" points="88.5,-518.4 85,-508.4 81.5,-518.4 88.5,-518.4"/>
</g>
<!-- /lib/game_model.dart -->
<g id="node2" class="node">
<title>/lib/game_model.dart</title>
<path fill="Lavender" stroke="black" stroke-width="1.3" d="M406.12,-284C406.12,-284 327.88,-284 327.88,-284 321.88,-284 315.88,-278 315.88,-272 315.88,-272 315.88,-260 315.88,-260 315.88,-254 321.88,-248 327.88,-248 327.88,-248 406.12,-248 406.12,-248 412.12,-248 418.12,-254 418.12,-260 418.12,-260 418.12,-272 418.12,-272 418.12,-278 412.12,-284 406.12,-284"/>
<text text-anchor="middle" x="367" y="-260.75" font-family="Arial" font-size="15.00">game_model</text>
</g>
<!-- /lib/screens/game_over_screen.dart -->
<g id="node4" class="node">
<title>/lib/screens/game_over_screen.dart</title>
<path fill="Lavender" stroke="black" stroke-width="1.3" d="M288.12,-431C288.12,-431 167.88,-431 167.88,-431 161.88,-431 155.88,-425 155.88,-419 155.88,-419 155.88,-407 155.88,-407 155.88,-401 161.88,-395 167.88,-395 167.88,-395 288.12,-395 288.12,-395 294.12,-395 300.12,-401 300.12,-407 300.12,-407 300.12,-419 300.12,-419 300.12,-425 294.12,-431 288.12,-431"/>
<text text-anchor="middle" x="228" y="-407.75" font-family="Arial" font-size="15.00">game_over_screen</text>
</g>
<!-- /lib/game_model.dart&#45;&gt;/lib/screens/game_over_screen.dart -->
<g id="edge3" class="edge">
<title>/lib/game_model.dart&#45;&gt;/lib/screens/game_over_screen.dart</title>
<path fill="none" stroke="#aabbaa" stroke-width="1.3" stroke-opacity="0.533333" d="M361.45,-284.25C352.28,-310.14 331.57,-358.96 298,-387 297.58,-387.35 297.15,-387.7 296.72,-388.04"/>
<polygon fill="#aabbaa" fill-opacity="0.533333" stroke="#aabbaa" stroke-width="1.3" stroke-opacity="0.533333" points="295.01,-384.97 288.66,-393.46 298.91,-390.78 295.01,-384.97"/>
</g>
<!-- /lib/player.dart -->
<g id="node8" class="node">
<title>/lib/player.dart</title>
<path fill="Lavender" stroke="black" stroke-width="1.3" d="M439.25,-212C439.25,-212 406.75,-212 406.75,-212 400.75,-212 394.75,-206 394.75,-200 394.75,-200 394.75,-188 394.75,-188 394.75,-182 400.75,-176 406.75,-176 406.75,-176 439.25,-176 439.25,-176 445.25,-176 451.25,-182 451.25,-188 451.25,-188 451.25,-200 451.25,-200 451.25,-206 445.25,-212 439.25,-212"/>
<text text-anchor="middle" x="423" y="-188.75" font-family="Arial" font-size="15.00">player</text>
</g>
<!-- /lib/game_model.dart&#45;&gt;/lib/player.dart -->
<g id="edge2" class="edge">
<title>/lib/game_model.dart&#45;&gt;/lib/player.dart</title>
<path fill="none" stroke="#aabbaa" stroke-width="1.3" stroke-opacity="0.533333" d="M380.84,-247.7C387.22,-239.73 394.92,-230.1 401.99,-221.26"/>
<polygon fill="#aabbaa" fill-opacity="0.533333" stroke="#aabbaa" stroke-width="1.3" stroke-opacity="0.533333" points="404.57,-223.64 408.09,-213.64 399.11,-219.26 404.57,-223.64"/>
</g>
<!-- /lib/widgets/playing_card.dart -->
<g id="node12" class="node">
<title>/lib/widgets/playing_card.dart</title>
<path fill="Lavender" stroke="black" stroke-width="1.3" d="M581,-68C581,-68 505,-68 505,-68 499,-68 493,-62 493,-56 493,-56 493,-44 493,-44 493,-38 499,-32 505,-32 505,-32 581,-32 581,-32 587,-32 593,-38 593,-44 593,-44 593,-56 593,-56 593,-62 587,-68 581,-68"/>
<text text-anchor="middle" x="543" y="-44.75" font-family="Arial" font-size="15.00">playing_card</text>
</g>
<!-- /lib/game_model.dart&#45;&gt;/lib/widgets/playing_card.dart -->
<g id="edge4" class="edge">
<title>/lib/game_model.dart&#45;&gt;/lib/widgets/playing_card.dart</title>
<path fill="none" stroke="#aabbaa" stroke-width="1.3" stroke-opacity="0.533333" d="M368.69,-247.67C370.94,-229.29 375.88,-199.68 386,-176 401.21,-140.41 405.77,-129.37 435,-104 449.17,-91.7 466.69,-81.51 483.47,-73.46"/>
<polygon fill="#aabbaa" fill-opacity="0.533333" stroke="#aabbaa" stroke-width="1.3" stroke-opacity="0.533333" points="484.92,-76.64 492.56,-69.3 482.01,-70.28 484.92,-76.64"/>
</g>
<!-- /lib/screens/game_screen.dart -->
<g id="node3" class="node">
<title>/lib/screens/game_screen.dart</title>
<path fill="Lavender" stroke="black" stroke-width="1.3" d="M243.38,-356C243.38,-356 160.62,-356 160.62,-356 154.62,-356 148.62,-350 148.62,-344 148.62,-344 148.62,-332 148.62,-332 148.62,-326 154.62,-320 160.62,-320 160.62,-320 243.38,-320 243.38,-320 249.38,-320 255.38,-326 255.38,-332 255.38,-332 255.38,-344 255.38,-344 255.38,-350 249.38,-356 243.38,-356"/>
<text text-anchor="middle" x="202" y="-332.75" font-family="Arial" font-size="15.00">game_screen</text>
</g>
<!-- /lib/screens/game_screen.dart&#45;&gt;/lib/game_model.dart -->
<g id="edge7" class="edge">
<title>/lib/screens/game_screen.dart&#45;&gt;/lib/game_model.dart</title>
<path fill="none" stroke="#aabbaa" stroke-width="1.3" stroke-opacity="0.533333" d="M243.21,-319.52C265.05,-310.25 292.08,-298.78 315.31,-288.93"/>
<polygon fill="#aabbaa" fill-opacity="0.533333" stroke="#aabbaa" stroke-width="1.3" stroke-opacity="0.533333" points="316.38,-292.28 324.22,-285.15 313.64,-285.83 316.38,-292.28"/>
</g>
<!-- /lib/screens/screen.dart -->
<g id="node6" class="node">
<title>/lib/screens/screen.dart</title>
<path fill="Lavender" stroke="black" stroke-width="1.3" d="M172.5,-284C172.5,-284 135.5,-284 135.5,-284 129.5,-284 123.5,-278 123.5,-272 123.5,-272 123.5,-260 123.5,-260 123.5,-254 129.5,-248 135.5,-248 135.5,-248 172.5,-248 172.5,-248 178.5,-248 184.5,-254 184.5,-260 184.5,-260 184.5,-272 184.5,-272 184.5,-278 178.5,-284 172.5,-284"/>
<text text-anchor="middle" x="154" y="-260.75" font-family="Arial" font-size="15.00">screen</text>
</g>
<!-- /lib/screens/game_screen.dart&#45;&gt;/lib/screens/screen.dart -->
<g id="edge5" class="edge">
<title>/lib/screens/game_screen.dart&#45;&gt;/lib/screens/screen.dart</title>
<path fill="none" stroke="#aabbaa" stroke-width="1.3" stroke-opacity="0.533333" d="M190.13,-319.7C184.79,-311.9 178.35,-302.51 172.4,-293.83"/>
<polygon fill="#aabbaa" fill-opacity="0.533333" stroke="#aabbaa" stroke-width="1.3" stroke-opacity="0.533333" points="175.38,-292 166.84,-285.73 169.61,-295.95 175.38,-292"/>
</g>
<!-- /lib/widgets/player_zone.dart -->
<g id="node11" class="node">
<title>/lib/widgets/player_zone.dart</title>
<path fill="Lavender" stroke="black" stroke-width="1.3" d="M676.5,-356C676.5,-356 603.5,-356 603.5,-356 597.5,-356 591.5,-350 591.5,-344 591.5,-344 591.5,-332 591.5,-332 591.5,-326 597.5,-320 603.5,-320 603.5,-320 676.5,-320 676.5,-320 682.5,-320 688.5,-326 688.5,-332 688.5,-332 688.5,-344 688.5,-344 688.5,-350 682.5,-356 676.5,-356"/>
<text text-anchor="middle" x="640" y="-332.75" font-family="Arial" font-size="15.00">player_zone</text>
</g>
<!-- /lib/screens/game_screen.dart&#45;&gt;/lib/widgets/player_zone.dart -->
<g id="edge6" class="edge">
<title>/lib/screens/game_screen.dart&#45;&gt;/lib/widgets/player_zone.dart</title>
<path fill="none" stroke="#aabbaa" stroke-width="1.3" stroke-opacity="0.533333" d="M255.71,-352.14C308.34,-365.22 391.04,-383.69 464,-391 488.1,-393.41 549.31,-396.03 573,-391 589.88,-387.42 605.25,-376.15 617.01,-364.91"/>
<polygon fill="#aabbaa" fill-opacity="0.533333" stroke="#aabbaa" stroke-width="1.3" stroke-opacity="0.533333" points="619.4,-367.47 623.88,-357.87 614.39,-362.58 619.4,-367.47"/>
</g>
<!-- /lib/screens/game_over_screen.dart&#45;&gt;/lib/player.dart -->
<g id="edge8" class="edge">
<title>/lib/screens/game_over_screen.dart&#45;&gt;/lib/player.dart</title>
<path fill="none" stroke="#aabbaa" stroke-width="1.3" stroke-opacity="0.533333" d="M300.42,-398.72C309.68,-395.6 318.79,-391.74 327,-387 382.25,-355.09 403.02,-343.13 427,-284 434.66,-265.11 433.37,-242.08 430.32,-224.18"/>
<polygon fill="#aabbaa" fill-opacity="0.533333" stroke="#aabbaa" stroke-width="1.3" stroke-opacity="0.533333" points="433.75,-223.49 428.34,-214.38 426.89,-224.88 433.75,-223.49"/>
</g>
<!-- /lib/screens/setup_screen.dart -->
<g id="node5" class="node">
<title>/lib/screens/setup_screen.dart</title>
<path fill="Lavender" stroke="black" stroke-width="1.3" d="M126,-431C126,-431 44,-431 44,-431 38,-431 32,-425 32,-419 32,-419 32,-407 32,-407 32,-401 38,-395 44,-395 44,-395 126,-395 126,-395 132,-395 138,-401 138,-407 138,-407 138,-419 138,-419 138,-425 132,-431 126,-431"/>
<text text-anchor="middle" x="85" y="-407.75" font-family="Arial" font-size="15.00">setup_screen</text>
</g>
<!-- /lib/screens/setup_screen.dart&#45;&gt;/lib/game_model.dart -->
<g id="edge9" class="edge">
<title>/lib/screens/setup_screen.dart&#45;&gt;/lib/game_model.dart</title>
<path fill="none" stroke="#aabbaa" stroke-width="1.3" stroke-opacity="0.533333" d="M138.28,-396.67C141.22,-396.05 144.14,-395.49 147,-395 172.69,-390.64 242.27,-401.38 264,-387 291.84,-368.57 276.67,-345.7 298,-320 306.88,-309.3 318.29,-299.45 329.27,-291.21"/>
<polygon fill="#aabbaa" fill-opacity="0.533333" stroke="#aabbaa" stroke-width="1.3" stroke-opacity="0.533333" points="331.06,-294.23 337.13,-285.55 326.97,-288.55 331.06,-294.23"/>
</g>
<!-- /lib/screens/setup_screen.dart&#45;&gt;/lib/screens/game_screen.dart -->
<g id="edge10" class="edge">
<title>/lib/screens/setup_screen.dart&#45;&gt;/lib/screens/game_screen.dart</title>
<path fill="none" stroke="#aabbaa" stroke-width="1.3" stroke-opacity="0.533333" d="M113.02,-394.51C128.36,-384.94 147.58,-372.95 164.23,-362.57"/>
<polygon fill="#aabbaa" fill-opacity="0.533333" stroke="#aabbaa" stroke-width="1.3" stroke-opacity="0.533333" points="165.9,-365.65 172.53,-357.38 162.2,-359.71 165.9,-365.65"/>
</g>
<!-- /lib/screens/setup_screen.dart&#45;&gt;/lib/screens/screen.dart -->
<g id="edge11" class="edge">
<title>/lib/screens/setup_screen.dart&#45;&gt;/lib/screens/screen.dart</title>
<path fill="none" stroke="#aabbaa" stroke-width="1.3" stroke-opacity="0.533333" d="M93.32,-394.51C105.09,-369.77 126.73,-324.31 140.73,-294.89"/>
<polygon fill="#aabbaa" fill-opacity="0.533333" stroke="#aabbaa" stroke-width="1.3" stroke-opacity="0.533333" points="143.88,-296.41 145.02,-285.88 137.56,-293.4 143.88,-296.41"/>
</g>
<!-- /lib/widgets/text_url.dart -->
<g id="node16" class="node">
<title>/lib/widgets/text_url.dart</title>
<path fill="Lavender" stroke="black" stroke-width="1.3" d="M759.75,-356C759.75,-356 718.25,-356 718.25,-356 712.25,-356 706.25,-350 706.25,-344 706.25,-344 706.25,-332 706.25,-332 706.25,-326 712.25,-320 718.25,-320 718.25,-320 759.75,-320 759.75,-320 765.75,-320 771.75,-326 771.75,-332 771.75,-332 771.75,-344 771.75,-344 771.75,-350 765.75,-356 759.75,-356"/>
<text text-anchor="middle" x="739" y="-332.75" font-family="Arial" font-size="15.00">text_url</text>
</g>
<!-- /lib/screens/setup_screen.dart&#45;&gt;/lib/widgets/text_url.dart -->
<g id="edge12" class="edge">
<title>/lib/screens/setup_screen.dart&#45;&gt;/lib/widgets/text_url.dart</title>
<path fill="none" stroke="#aabbaa" stroke-width="1.3" stroke-opacity="0.533333" d="M138.25,-396.48C141.2,-395.91 144.13,-395.41 147,-395 177.31,-390.7 670.29,-400.02 698,-387 707.84,-382.38 716.21,-374.13 722.77,-365.76"/>
<polygon fill="#aabbaa" fill-opacity="0.533333" stroke="#aabbaa" stroke-width="1.3" stroke-opacity="0.533333" points="725.56,-367.88 728.48,-357.7 719.85,-363.83 725.56,-367.88"/>
</g>
<!-- /lib/main.dart&#45;&gt;/lib/screens/setup_screen.dart -->
<g id="edge13" class="edge">
<title>/lib/main.dart&#45;&gt;/lib/screens/setup_screen.dart</title>
<path fill="none" stroke="#aabbaa" stroke-width="1.3" stroke-opacity="0.533333" d="M85,-469.7C85,-461.76 85,-452.12 85,-443.11"/>
<polygon fill="#aabbaa" fill-opacity="0.533333" stroke="#aabbaa" stroke-width="1.3" stroke-opacity="0.533333" points="88.5,-443.4 85,-433.4 81.5,-443.4 88.5,-443.4"/>
</g>
<!-- /lib/player.dart&#45;&gt;/lib/widgets/playing_card.dart -->
<g id="edge14" class="edge">
<title>/lib/player.dart&#45;&gt;/lib/widgets/playing_card.dart</title>
<path fill="none" stroke="#aabbaa" stroke-width="1.3" stroke-opacity="0.533333" d="M426.64,-175.61C431.39,-156.35 441.26,-125.23 459,-104 468.77,-92.31 481.81,-82.37 494.69,-74.37"/>
<polygon fill="#aabbaa" fill-opacity="0.533333" stroke="#aabbaa" stroke-width="1.3" stroke-opacity="0.533333" points="496.37,-77.45 503.22,-69.37 492.83,-71.41 496.37,-77.45"/>
</g>
<!-- /lib/widgets/playing_card_widget.dart -->
<g id="node9" class="node">
<title>/lib/widgets/playing_card_widget.dart</title>
<path fill="Lavender" stroke="black" stroke-width="1.3" d="M606.5,-140C606.5,-140 479.5,-140 479.5,-140 473.5,-140 467.5,-134 467.5,-128 467.5,-128 467.5,-116 467.5,-116 467.5,-110 473.5,-104 479.5,-104 479.5,-104 606.5,-104 606.5,-104 612.5,-104 618.5,-110 618.5,-116 618.5,-116 618.5,-128 618.5,-128 618.5,-134 612.5,-140 606.5,-140"/>
<text text-anchor="middle" x="543" y="-116.75" font-family="Arial" font-size="15.00">playing_card_widget</text>
</g>
<!-- /lib/widgets/playing_card_widget.dart&#45;&gt;/lib/widgets/playing_card.dart -->
<g id="edge15" class="edge">
<title>/lib/widgets/playing_card_widget.dart&#45;&gt;/lib/widgets/playing_card.dart</title>
<path fill="none" stroke="#aabbaa" stroke-width="1.3" stroke-opacity="0.533333" d="M543,-103.7C543,-96.49 543,-87.93 543,-79.82"/>
<polygon fill="#aabbaa" fill-opacity="0.533333" stroke="#aabbaa" stroke-width="1.3" stroke-opacity="0.533333" points="546.5,-80.07 543,-70.07 539.5,-80.07 546.5,-80.07"/>
</g>
<!-- /lib/widgets/table_surface.dart -->
<g id="node10" class="node">
<title>/lib/widgets/table_surface.dart</title>
<path fill="Lavender" stroke="black" stroke-width="1.3" d="M561,-356C561,-356 479,-356 479,-356 473,-356 467,-350 467,-344 467,-344 467,-332 467,-332 467,-326 473,-320 479,-320 479,-320 561,-320 561,-320 567,-320 573,-326 573,-332 573,-332 573,-344 573,-344 573,-350 567,-356 561,-356"/>
<text text-anchor="middle" x="520" y="-332.75" font-family="Arial" font-size="15.00">table_surface</text>
</g>
<!-- /lib/widgets/player_zone.dart&#45;&gt;/lib/game_model.dart -->
<g id="edge16" class="edge">
<title>/lib/widgets/player_zone.dart&#45;&gt;/lib/game_model.dart</title>
<path fill="none" stroke="#aabbaa" stroke-width="1.3" stroke-opacity="0.533333" d="M591.31,-322.56C588.16,-321.68 585.04,-320.82 582,-320 531,-306.25 472.81,-291.99 429.84,-281.73"/>
<polygon fill="#aabbaa" fill-opacity="0.533333" stroke="#aabbaa" stroke-width="1.3" stroke-opacity="0.533333" points="430.87,-278.38 420.34,-279.47 429.25,-285.19 430.87,-278.38"/>
</g>
<!-- /lib/widgets/player_zone.dart&#45;&gt;/lib/player.dart -->
<g id="edge17" class="edge">
<title>/lib/widgets/player_zone.dart&#45;&gt;/lib/player.dart</title>
<path fill="none" stroke="#aabbaa" stroke-width="1.3" stroke-opacity="0.533333" d="M591.06,-322.53C543.2,-308.23 476.8,-287.94 472,-284 461.67,-275.54 446.42,-245.95 435.68,-223.19"/>
<polygon fill="#aabbaa" fill-opacity="0.533333" stroke="#aabbaa" stroke-width="1.3" stroke-opacity="0.533333" points="438.88,-221.76 431.5,-214.15 432.52,-224.7 438.88,-221.76"/>
</g>
<!-- /lib/widgets/player_zone.dart&#45;&gt;/lib/widgets/playing_card_widget.dart -->
<g id="edge21" class="edge">
<title>/lib/widgets/player_zone.dart&#45;&gt;/lib/widgets/playing_card_widget.dart</title>
<path fill="none" stroke="#aabbaa" stroke-width="1.3" stroke-opacity="0.533333" d="M591.32,-321.63C547.75,-307.65 490.22,-288.52 487,-284 457.32,-242.31 493.29,-183.48 519.76,-149.69"/>
<polygon fill="#aabbaa" fill-opacity="0.533333" stroke="#aabbaa" stroke-width="1.3" stroke-opacity="0.533333" points="522.43,-151.95 526.01,-141.98 516.99,-147.54 522.43,-151.95"/>
</g>
<!-- /lib/widgets/player_zone.dart&#45;&gt;/lib/widgets/playing_card.dart -->
<g id="edge20" class="edge">
<title>/lib/widgets/player_zone.dart&#45;&gt;/lib/widgets/playing_card.dart</title>
<path fill="none" stroke="#aabbaa" stroke-width="1.3" stroke-opacity="0.533333" d="M642.02,-319.82C647.27,-271.99 659.34,-138.57 635,-104 626.21,-91.51 613.46,-81.55 600.25,-73.79"/>
<polygon fill="#aabbaa" fill-opacity="0.533333" stroke="#aabbaa" stroke-width="1.3" stroke-opacity="0.533333" points="602.3,-70.92 591.84,-69.23 598.96,-77.08 602.3,-70.92"/>
</g>
<!-- /lib/widgets/player_zone_cta.dart -->
<g id="node14" class="node">
<title>/lib/widgets/player_zone_cta.dart</title>
<path fill="Lavender" stroke="black" stroke-width="1.3" d="M609.75,-284C609.75,-284 508.25,-284 508.25,-284 502.25,-284 496.25,-278 496.25,-272 496.25,-272 496.25,-260 496.25,-260 496.25,-254 502.25,-248 508.25,-248 508.25,-248 609.75,-248 609.75,-248 615.75,-248 621.75,-254 621.75,-260 621.75,-260 621.75,-272 621.75,-272 621.75,-278 615.75,-284 609.75,-284"/>
<text text-anchor="middle" x="559" y="-260.75" font-family="Arial" font-size="15.00">player_zone_cta</text>
</g>
<!-- /lib/widgets/player_zone.dart&#45;&gt;/lib/widgets/player_zone_cta.dart -->
<g id="edge19" class="edge">
<title>/lib/widgets/player_zone.dart&#45;&gt;/lib/widgets/player_zone_cta.dart</title>
<path fill="none" stroke="#aabbaa" stroke-width="1.3" stroke-opacity="0.533333" d="M619.98,-319.7C610.34,-311.37 598.6,-301.22 588.01,-292.07"/>
<polygon fill="#aabbaa" fill-opacity="0.533333" stroke="#aabbaa" stroke-width="1.3" stroke-opacity="0.533333" points="590.42,-289.52 580.56,-285.63 585.84,-294.82 590.42,-289.52"/>
</g>
<!-- /lib/widgets/player_header.dart -->
<g id="node15" class="node">
<title>/lib/widgets/player_header.dart</title>
<path fill="Lavender" stroke="black" stroke-width="1.3" d="M759.62,-284C759.62,-284 672.38,-284 672.38,-284 666.38,-284 660.38,-278 660.38,-272 660.38,-272 660.38,-260 660.38,-260 660.38,-254 666.38,-248 672.38,-248 672.38,-248 759.62,-248 759.62,-248 765.62,-248 771.62,-254 771.62,-260 771.62,-260 771.62,-272 771.62,-272 771.62,-278 765.62,-284 759.62,-284"/>
<text text-anchor="middle" x="716" y="-260.75" font-family="Arial" font-size="15.00">player_header</text>
</g>
<!-- /lib/widgets/player_zone.dart&#45;&gt;/lib/widgets/player_header.dart -->
<g id="edge18" class="edge">
<title>/lib/widgets/player_zone.dart&#45;&gt;/lib/widgets/player_header.dart</title>
<path fill="none" stroke="#aabbaa" stroke-width="1.3" stroke-opacity="0.533333" d="M658.79,-319.7C667.74,-311.45 678.62,-301.43 688.48,-292.35"/>
<polygon fill="#aabbaa" fill-opacity="0.533333" stroke="#aabbaa" stroke-width="1.3" stroke-opacity="0.533333" points="690.73,-295.03 695.72,-285.68 685.99,-289.88 690.73,-295.03"/>
</g>
<!-- /lib/widgets/card_piles.dart -->
<g id="node13" class="node">
<title>/lib/widgets/card_piles.dart</title>
<path fill="Lavender" stroke="black" stroke-width="1.3" d="M626.75,-212C626.75,-212 567.25,-212 567.25,-212 561.25,-212 555.25,-206 555.25,-200 555.25,-200 555.25,-188 555.25,-188 555.25,-182 561.25,-176 567.25,-176 567.25,-176 626.75,-176 626.75,-176 632.75,-176 638.75,-182 638.75,-188 638.75,-188 638.75,-200 638.75,-200 638.75,-206 632.75,-212 626.75,-212"/>
<text text-anchor="middle" x="597" y="-188.75" font-family="Arial" font-size="15.00">card_piles</text>
</g>
<!-- /lib/widgets/card_piles.dart&#45;&gt;/lib/widgets/playing_card_widget.dart -->
<g id="edge23" class="edge">
<title>/lib/widgets/card_piles.dart&#45;&gt;/lib/widgets/playing_card_widget.dart</title>
<path fill="none" stroke="#aabbaa" stroke-width="1.3" stroke-opacity="0.533333" d="M583.65,-175.7C577.57,-167.81 570.23,-158.3 563.48,-149.55"/>
<polygon fill="#aabbaa" fill-opacity="0.533333" stroke="#aabbaa" stroke-width="1.3" stroke-opacity="0.533333" points="566.28,-147.44 557.4,-141.66 560.73,-151.72 566.28,-147.44"/>
</g>
<!-- /lib/widgets/card_piles.dart&#45;&gt;/lib/widgets/playing_card.dart -->
<g id="edge22" class="edge">
<title>/lib/widgets/card_piles.dart&#45;&gt;/lib/widgets/playing_card.dart</title>
<path fill="none" stroke="#aabbaa" stroke-width="1.3" stroke-opacity="0.533333" d="M611.42,-175.53C624.83,-157.02 640.94,-127.32 628,-104 621.21,-91.76 610.29,-81.98 598.51,-74.32"/>
<polygon fill="#aabbaa" fill-opacity="0.533333" stroke="#aabbaa" stroke-width="1.3" stroke-opacity="0.533333" points="600.56,-71.47 590.17,-69.38 596.99,-77.49 600.56,-71.47"/>
</g>
<!-- /lib/widgets/player_zone_cta.dart&#45;&gt;/lib/game_model.dart -->
<g id="edge24" class="edge">
<title>/lib/widgets/player_zone_cta.dart&#45;&gt;/lib/game_model.dart</title>
<path fill="none" stroke="#aabbaa" stroke-width="1.3" stroke-opacity="0.533333" d="M495.83,-266C473.94,-266 452.06,-266 430.17,-266"/>
<polygon fill="#aabbaa" fill-opacity="0.533333" stroke="#aabbaa" stroke-width="1.3" stroke-opacity="0.533333" points="430.34,-262.5 420.34,-266 430.34,-269.5 430.34,-262.5"/>
</g>
<!-- /lib/widgets/player_zone_cta.dart&#45;&gt;/lib/widgets/playing_card_widget.dart -->
<g id="edge26" class="edge">
<title>/lib/widgets/player_zone_cta.dart&#45;&gt;/lib/widgets/playing_card_widget.dart</title>
<path fill="none" stroke="#aabbaa" stroke-width="1.3" stroke-opacity="0.533333" d="M553.74,-247.51C550.91,-237.26 547.66,-224.01 546,-212 543.28,-192.25 542.53,-169.82 542.47,-152.42"/>
<polygon fill="#aabbaa" fill-opacity="0.533333" stroke="#aabbaa" stroke-width="1.3" stroke-opacity="0.533333" points="545.97,-152.47 542.52,-142.45 538.97,-152.44 545.97,-152.47"/>
</g>
<!-- /lib/widgets/player_zone_cta.dart&#45;&gt;/lib/widgets/card_piles.dart -->
<g id="edge25" class="edge">
<title>/lib/widgets/player_zone_cta.dart&#45;&gt;/lib/widgets/card_piles.dart</title>
<path fill="none" stroke="#aabbaa" stroke-width="1.3" stroke-opacity="0.533333" d="M568.39,-247.7C572.53,-240.07 577.5,-230.92 582.13,-222.4"/>
<polygon fill="#aabbaa" fill-opacity="0.533333" stroke="#aabbaa" stroke-width="1.3" stroke-opacity="0.533333" points="585.08,-224.29 586.78,-213.83 578.93,-220.95 585.08,-224.29"/>
</g>
</g>
</svg>
