<?xml version="1.0" encoding="UTF-8" standalone="no"?>
<!DOCTYPE svg PUBLIC "-//W3C//DTD SVG 1.1//EN"
 "http://www.w3.org/Graphics/SVG/1.1/DTD/svg11.dtd">
<!-- Generated by graphviz version 12.2.0 (20241103.1931)
 -->
<!-- Pages: 1 -->
<svg width="1772pt" height="789pt"
 viewBox="0.00 0.00 1772.00 789.00" xmlns="http://www.w3.org/2000/svg" xmlns:xlink="http://www.w3.org/1999/xlink">
<g id="graph0" class="graph" transform="scale(1 1) rotate(0) translate(4 785)">
<polygon fill="white" stroke="none" points="-4,4 -4,-785 1768,-785 1768,4 -4,4"/>
<g id="clust1" class="cluster">
<title>cluster~</title>
<path fill="none" stroke="lightgray" stroke-width="2.6" d="M20,-8C20,-8 1744,-8 1744,-8 1750,-8 1756,-14 1756,-20 1756,-20 1756,-761 1756,-761 1756,-767 1750,-773 1744,-773 1744,-773 20,-773 20,-773 14,-773 8,-767 8,-761 8,-761 8,-20 8,-20 8,-14 14,-8 20,-8"/>
<text text-anchor="middle" x="882" y="-756.65" font-family="Arial Black" font-size="13.00">cards</text>
</g>
<g id="clust2" class="cluster">
<title>cluster~/test</title>
<path fill="none" stroke="lightgray" stroke-width="2.6" d="M28,-323C28,-323 474,-323 474,-323 480,-323 486,-329 486,-335 486,-335 486,-425 486,-425 486,-431 480,-437 474,-437 474,-437 28,-437 28,-437 22,-437 16,-431 16,-425 16,-425 16,-335 16,-335 16,-329 22,-323 28,-323"/>
<text text-anchor="middle" x="251" y="-420.65" font-family="Arial Black" font-size="13.00">test</text>
</g>
<g id="clust3" class="cluster">
<title>cluster~/test/models</title>
<path fill="none" stroke="lightgray" stroke-width="2.6" d="M36,-331C36,-331 466,-331 466,-331 472,-331 478,-337 478,-343 478,-343 478,-394 478,-394 478,-400 472,-406 466,-406 466,-406 36,-406 36,-406 30,-406 24,-400 24,-394 24,-394 24,-343 24,-343 24,-337 30,-331 36,-331"/>
<text text-anchor="middle" x="251" y="-389.65" font-family="Arial Black" font-size="13.00">models</text>
</g>
<g id="clust4" class="cluster">
<title>cluster~/lib</title>
<path fill="none" stroke="lightgray" stroke-width="2.6" d="M506,-16C506,-16 1736,-16 1736,-16 1742,-16 1748,-22 1748,-28 1748,-28 1748,-730 1748,-730 1748,-736 1742,-742 1736,-742 1736,-742 506,-742 506,-742 500,-742 494,-736 494,-730 494,-730 494,-28 494,-28 494,-22 500,-16 506,-16"/>
<text text-anchor="middle" x="1121" y="-725.65" font-family="Arial Black" font-size="13.00">lib</text>
</g>
<g id="clust5" class="cluster">
<title>cluster~/lib/models</title>
<path fill="none" stroke="lightgray" stroke-width="2.6" d="M514,-96C514,-96 865,-96 865,-96 871,-96 877,-102 877,-108 877,-108 877,-303 877,-303 877,-309 871,-315 865,-315 865,-315 514,-315 514,-315 508,-315 502,-309 502,-303 502,-303 502,-108 502,-108 502,-102 508,-96 514,-96"/>
<text text-anchor="middle" x="689.5" y="-298.65" font-family="Arial Black" font-size="13.00">models</text>
</g>
<g id="clust6" class="cluster">
<title>cluster~/lib/screens</title>
<path fill="none" stroke="lightgray" stroke-width="2.6" d="M743,-445C743,-445 861,-445 861,-445 867,-445 873,-451 873,-457 873,-457 873,-655 873,-655 873,-661 867,-667 861,-667 861,-667 743,-667 743,-667 737,-667 731,-661 731,-655 731,-655 731,-457 731,-457 731,-451 737,-445 743,-445"/>
<text text-anchor="middle" x="802" y="-650.65" font-family="Arial Black" font-size="13.00">screens</text>
</g>
<g id="clust7" class="cluster">
<title>cluster~/lib/widgets</title>
<path fill="none" stroke="lightgray" stroke-width="2.6" d="M909,-24C909,-24 1728,-24 1728,-24 1734,-24 1740,-30 1740,-36 1740,-36 1740,-508 1740,-508 1740,-514 1734,-520 1728,-520 1728,-520 909,-520 909,-520 903,-520 897,-514 897,-508 897,-508 897,-36 897,-36 897,-30 903,-24 909,-24"/>
<text text-anchor="middle" x="1318.5" y="-503.65" font-family="Arial Black" font-size="13.00">widgets</text>
</g>
<!-- /test/models/game_model_test.dart -->
<g id="node1" class="node">
<title>/test/models/game_model_test.dart</title>
<path fill="Lavender" stroke="black" stroke-width="1.3" d="M457.62,-375C457.62,-375 346.38,-375 346.38,-375 340.38,-375 334.38,-369 334.38,-363 334.38,-363 334.38,-351 334.38,-351 334.38,-345 340.38,-339 346.38,-339 346.38,-339 457.62,-339 457.62,-339 463.62,-339 469.62,-345 469.62,-351 469.62,-351 469.62,-363 469.62,-363 469.62,-369 463.62,-375 457.62,-375"/>
<text text-anchor="middle" x="402" y="-351.75" font-family="Arial" font-size="15.00">game_model_test</text>
</g>
<!-- /lib/models/game_model.dart -->
<g id="node4" class="node">
<title>/lib/models/game_model.dart</title>
<path fill="Lavender" stroke="black" stroke-width="1.3" d="M857.12,-284C857.12,-284 778.88,-284 778.88,-284 772.88,-284 766.88,-278 766.88,-272 766.88,-272 766.88,-260 766.88,-260 766.88,-254 772.88,-248 778.88,-248 778.88,-248 857.12,-248 857.12,-248 863.12,-248 869.12,-254 869.12,-260 869.12,-260 869.12,-272 869.12,-272 869.12,-278 863.12,-284 857.12,-284"/>
<text text-anchor="middle" x="818" y="-260.75" font-family="Arial" font-size="15.00">game_model</text>
</g>
<!-- /test/models/game_model_test.dart&#45;&gt;/lib/models/game_model.dart -->
<g id="edge1" class="edge">
<title>/test/models/game_model_test.dart&#45;&gt;/lib/models/game_model.dart</title>
<path fill="none" stroke="#aabbaa" stroke-width="1.3" stroke-opacity="0.533333" d="M469.76,-352.66C558.15,-347.54 707.46,-336.05 758,-315 770.73,-309.7 782.96,-300.85 793.02,-292.19"/>
<polygon fill="#aabbaa" fill-opacity="0.533333" stroke="#aabbaa" stroke-width="1.3" stroke-opacity="0.533333" points="795.1,-295.03 800.14,-285.72 790.39,-289.85 795.1,-295.03"/>
</g>
<!-- /test/models/player_model_test.dart -->
<g id="node2" class="node">
<title>/test/models/player_model_test.dart</title>
<path fill="Lavender" stroke="black" stroke-width="1.3" d="M304.12,-375C304.12,-375 189.88,-375 189.88,-375 183.88,-375 177.88,-369 177.88,-363 177.88,-363 177.88,-351 177.88,-351 177.88,-345 183.88,-339 189.88,-339 189.88,-339 304.12,-339 304.12,-339 310.12,-339 316.12,-345 316.12,-351 316.12,-351 316.12,-363 316.12,-363 316.12,-369 310.12,-375 304.12,-375"/>
<text text-anchor="middle" x="247" y="-351.75" font-family="Arial" font-size="15.00">player_model_test</text>
</g>
<!-- /lib/models/player_model.dart -->
<g id="node7" class="node">
<title>/lib/models/player_model.dart</title>
<path fill="Lavender" stroke="black" stroke-width="1.3" d="M603.62,-212C603.62,-212 522.38,-212 522.38,-212 516.38,-212 510.38,-206 510.38,-200 510.38,-200 510.38,-188 510.38,-188 510.38,-182 516.38,-176 522.38,-176 522.38,-176 603.62,-176 603.62,-176 609.62,-176 615.62,-182 615.62,-188 615.62,-188 615.62,-200 615.62,-200 615.62,-206 609.62,-212 603.62,-212"/>
<text text-anchor="middle" x="563" y="-188.75" font-family="Arial" font-size="15.00">player_model</text>
</g>
<!-- /test/models/player_model_test.dart&#45;&gt;/lib/models/player_model.dart -->
<g id="edge2" class="edge">
<title>/test/models/player_model_test.dart&#45;&gt;/lib/models/player_model.dart</title>
<path fill="none" stroke="#aabbaa" stroke-width="1.3" stroke-opacity="0.533333" d="M281.12,-338.62C338.6,-309.33 454.69,-250.18 518.5,-217.67"/>
<polygon fill="#aabbaa" fill-opacity="0.533333" stroke="#aabbaa" stroke-width="1.3" stroke-opacity="0.533333" points="519.95,-220.86 527.27,-213.2 516.77,-214.62 519.95,-220.86"/>
</g>
<!-- /test/models/card_model_test.dart -->
<g id="node3" class="node">
<title>/test/models/card_model_test.dart</title>
<path fill="Lavender" stroke="black" stroke-width="1.3" d="M147.5,-375C147.5,-375 44.5,-375 44.5,-375 38.5,-375 32.5,-369 32.5,-363 32.5,-363 32.5,-351 32.5,-351 32.5,-345 38.5,-339 44.5,-339 44.5,-339 147.5,-339 147.5,-339 153.5,-339 159.5,-345 159.5,-351 159.5,-351 159.5,-363 159.5,-363 159.5,-369 153.5,-375 147.5,-375"/>
<text text-anchor="middle" x="96" y="-351.75" font-family="Arial" font-size="15.00">card_model_test</text>
</g>
<!-- /lib/models/card_model.dart -->
<g id="node9" class="node">
<title>/lib/models/card_model.dart</title>
<path fill="Lavender" stroke="black" stroke-width="1.3" d="M785,-140C785,-140 715,-140 715,-140 709,-140 703,-134 703,-128 703,-128 703,-116 703,-116 703,-110 709,-104 715,-104 715,-104 785,-104 785,-104 791,-104 797,-110 797,-116 797,-116 797,-128 797,-128 797,-134 791,-140 785,-140"/>
<text text-anchor="middle" x="750" y="-116.75" font-family="Arial" font-size="15.00">card_model</text>
</g>
<!-- /test/models/card_model_test.dart&#45;&gt;/lib/models/card_model.dart -->
<g id="edge3" class="edge">
<title>/test/models/card_model_test.dart&#45;&gt;/lib/models/card_model.dart</title>
<path fill="none" stroke="#aabbaa" stroke-width="1.3" stroke-opacity="0.533333" d="M127.47,-338.62C194.2,-302.53 355.72,-219.26 501,-176 581.12,-152.14 607.06,-159.96 691.32,-140.47"/>
<polygon fill="#aabbaa" fill-opacity="0.533333" stroke="#aabbaa" stroke-width="1.3" stroke-opacity="0.533333" points="691.92,-143.93 700.83,-138.2 690.29,-137.12 691.92,-143.93"/>
</g>
<!-- /lib/models/game_model.dart&#45;&gt;/lib/models/player_model.dart -->
<g id="edge6" class="edge">
<title>/lib/models/game_model.dart&#45;&gt;/lib/models/player_model.dart</title>
<path fill="none" stroke="#aabbaa" stroke-width="1.3" stroke-opacity="0.533333" d="M766.49,-252.87C760.56,-251.22 754.63,-249.56 749,-248 694.13,-232.8 677.39,-228.66 627.82,-215.21"/>
<polygon fill="#aabbaa" fill-opacity="0.533333" stroke="#aabbaa" stroke-width="1.3" stroke-opacity="0.533333" points="628.81,-211.86 618.24,-212.61 626.98,-218.61 628.81,-211.86"/>
</g>
<!-- /lib/models/game_model.dart&#45;&gt;/lib/models/player_model.dart -->
<g id="edge8" class="edge">
<title>/lib/models/game_model.dart&#45;&gt;/lib/models/player_model.dart</title>
<path fill="none" stroke="#aabbaa" stroke-width="1.3" stroke-dasharray="5,2" stroke-opacity="0.533333" d="M766.65,-247.9C707.93,-231.64 692.97,-228.07 634,-212 631.82,-211.41 629.6,-210.8 627.35,-210.19"/>
<polygon fill="#aabbaa" fill-opacity="0.533333" stroke="#aabbaa" stroke-width="1.3" stroke-opacity="0.533333" points="628.41,-206.85 617.84,-207.61 626.57,-213.6 628.41,-206.85"/>
</g>
<!-- /lib/models/backend_model.dart -->
<g id="node10" class="node">
<title>/lib/models/backend_model.dart</title>
<path fill="Lavender" stroke="black" stroke-width="1.3" d="M742.5,-212C742.5,-212 645.5,-212 645.5,-212 639.5,-212 633.5,-206 633.5,-200 633.5,-200 633.5,-188 633.5,-188 633.5,-182 639.5,-176 645.5,-176 645.5,-176 742.5,-176 742.5,-176 748.5,-176 754.5,-182 754.5,-188 754.5,-188 754.5,-200 754.5,-200 754.5,-206 748.5,-212 742.5,-212"/>
<text text-anchor="middle" x="694" y="-188.75" font-family="Arial" font-size="15.00">backend_model</text>
</g>
<!-- /lib/models/game_model.dart&#45;&gt;/lib/models/backend_model.dart -->
<g id="edge4" class="edge">
<title>/lib/models/game_model.dart&#45;&gt;/lib/models/backend_model.dart</title>
<path fill="none" stroke="#aabbaa" stroke-width="1.3" stroke-opacity="0.533333" d="M787.03,-247.52C771.23,-238.6 751.8,-227.63 734.8,-218.03"/>
<polygon fill="#aabbaa" fill-opacity="0.533333" stroke="#aabbaa" stroke-width="1.3" stroke-opacity="0.533333" points="736.72,-215.1 726.29,-213.23 733.28,-221.19 736.72,-215.1"/>
</g>
<!-- /lib/models/deck_model.dart -->
<g id="node11" class="node">
<title>/lib/models/deck_model.dart</title>
<path fill="Lavender" stroke="black" stroke-width="1.3" d="M857.12,-212C857.12,-212 784.88,-212 784.88,-212 778.88,-212 772.88,-206 772.88,-200 772.88,-200 772.88,-188 772.88,-188 772.88,-182 778.88,-176 784.88,-176 784.88,-176 857.12,-176 857.12,-176 863.12,-176 869.12,-182 869.12,-188 869.12,-188 869.12,-200 869.12,-200 869.12,-206 863.12,-212 857.12,-212"/>
<text text-anchor="middle" x="821" y="-188.75" font-family="Arial" font-size="15.00">deck_model</text>
</g>
<!-- /lib/models/game_model.dart&#45;&gt;/lib/models/deck_model.dart -->
<g id="edge5" class="edge">
<title>/lib/models/game_model.dart&#45;&gt;/lib/models/deck_model.dart</title>
<path fill="none" stroke="#aabbaa" stroke-width="1.3" stroke-opacity="0.533333" d="M812.83,-247.7C812.39,-240.49 812.51,-231.93 813.11,-223.82"/>
<polygon fill="#aabbaa" fill-opacity="0.533333" stroke="#aabbaa" stroke-width="1.3" stroke-opacity="0.533333" points="816.57,-224.38 814.16,-214.06 809.61,-223.63 816.57,-224.38"/>
</g>
<!-- /lib/models/game_model.dart&#45;&gt;/lib/models/deck_model.dart -->
<g id="edge7" class="edge">
<title>/lib/models/game_model.dart&#45;&gt;/lib/models/deck_model.dart</title>
<path fill="none" stroke="#aabbaa" stroke-width="1.3" stroke-dasharray="5,2" stroke-opacity="0.533333" d="M824.66,-247.7C825.71,-240.49 826.32,-231.93 826.42,-223.82"/>
<polygon fill="#aabbaa" fill-opacity="0.533333" stroke="#aabbaa" stroke-width="1.3" stroke-opacity="0.533333" points="829.93,-223.99 826.21,-214.07 822.93,-224.15 829.93,-223.99"/>
</g>
<!-- /lib/models/game_over_dialog.dart -->
<g id="node5" class="node">
<title>/lib/models/game_over_dialog.dart</title>
<path fill="Lavender" stroke="black" stroke-width="1.3" d="M737.12,-284C737.12,-284 622.88,-284 622.88,-284 616.88,-284 610.88,-278 610.88,-272 610.88,-272 610.88,-260 610.88,-260 610.88,-254 616.88,-248 622.88,-248 622.88,-248 737.12,-248 737.12,-248 743.12,-248 749.12,-254 749.12,-260 749.12,-260 749.12,-272 749.12,-272 749.12,-278 743.12,-284 737.12,-284"/>
<text text-anchor="middle" x="680" y="-260.75" font-family="Arial" font-size="15.00">game_over_dialog</text>
</g>
<!-- /lib/models/game_over_dialog.dart&#45;&gt;/lib/models/player_model.dart -->
<g id="edge9" class="edge">
<title>/lib/models/game_over_dialog.dart&#45;&gt;/lib/models/player_model.dart</title>
<path fill="none" stroke="#aabbaa" stroke-width="1.3" stroke-opacity="0.533333" d="M650.78,-247.52C636.01,-238.68 617.89,-227.84 601.95,-218.3"/>
<polygon fill="#aabbaa" fill-opacity="0.533333" stroke="#aabbaa" stroke-width="1.3" stroke-opacity="0.533333" points="603.92,-215.4 593.54,-213.27 600.32,-221.41 603.92,-215.4"/>
</g>
<!-- /lib/models/firebase_options.dart -->
<g id="node6" class="node">
<title>/lib/models/firebase_options.dart</title>
<path fill="Lavender" stroke="black" stroke-width="1.3" d="M672.75,-140C672.75,-140 571.25,-140 571.25,-140 565.25,-140 559.25,-134 559.25,-128 559.25,-128 559.25,-116 559.25,-116 559.25,-110 565.25,-104 571.25,-104 571.25,-104 672.75,-104 672.75,-104 678.75,-104 684.75,-110 684.75,-116 684.75,-116 684.75,-128 684.75,-128 684.75,-134 678.75,-140 672.75,-140"/>
<text text-anchor="middle" x="622" y="-116.75" font-family="Arial" font-size="15.00">firebase_options</text>
</g>
<!-- /lib/models/player_model.dart&#45;&gt;/lib/models/card_model.dart -->
<g id="edge10" class="edge">
<title>/lib/models/player_model.dart&#45;&gt;/lib/models/card_model.dart</title>
<path fill="none" stroke="#aabbaa" stroke-width="1.3" stroke-opacity="0.533333" d="M603.77,-175.52C629.49,-165.51 663.05,-152.92 691.56,-142.58"/>
<polygon fill="#aabbaa" fill-opacity="0.533333" stroke="#aabbaa" stroke-width="1.3" stroke-opacity="0.533333" points="692.55,-145.95 700.77,-139.26 690.17,-139.36 692.55,-145.95"/>
</g>
<!-- /lib/models/player_model.dart&#45;&gt;/lib/models/card_model.dart -->
<g id="edge11" class="edge">
<title>/lib/models/player_model.dart&#45;&gt;/lib/models/card_model.dart</title>
<path fill="none" stroke="#aabbaa" stroke-width="1.3" stroke-dasharray="5,2" stroke-opacity="0.533333" d="M615.64,-175.52C641.56,-166.17 672.65,-154.57 698.43,-144.66"/>
<polygon fill="#aabbaa" fill-opacity="0.533333" stroke="#aabbaa" stroke-width="1.3" stroke-opacity="0.533333" points="699.59,-147.96 707.65,-141.09 697.07,-141.44 699.59,-147.96"/>
</g>
<!-- /lib/models/misc.dart -->
<g id="node8" class="node">
<title>/lib/models/misc.dart</title>
<path fill="Lavender" stroke="black" stroke-width="1.3" d="M857,-140C857,-140 827,-140 827,-140 821,-140 815,-134 815,-128 815,-128 815,-116 815,-116 815,-110 821,-104 827,-104 827,-104 857,-104 857,-104 863,-104 869,-110 869,-116 869,-116 869,-128 869,-128 869,-134 863,-140 857,-140"/>
<text text-anchor="middle" x="842" y="-116.75" font-family="Arial" font-size="15.00">misc</text>
</g>
<!-- /lib/models/backend_model.dart&#45;&gt;/lib/models/firebase_options.dart -->
<g id="edge12" class="edge">
<title>/lib/models/backend_model.dart&#45;&gt;/lib/models/firebase_options.dart</title>
<path fill="none" stroke="#aabbaa" stroke-width="1.3" stroke-opacity="0.533333" d="M676.2,-175.7C667.81,-167.54 657.62,-157.63 648.36,-148.62"/>
<polygon fill="#aabbaa" fill-opacity="0.533333" stroke="#aabbaa" stroke-width="1.3" stroke-opacity="0.533333" points="650.86,-146.18 641.25,-141.72 645.98,-151.2 650.86,-146.18"/>
</g>
<!-- /lib/models/backend_model.dart&#45;&gt;/lib/models/misc.dart -->
<g id="edge13" class="edge">
<title>/lib/models/backend_model.dart&#45;&gt;/lib/models/misc.dart</title>
<path fill="none" stroke="#aabbaa" stroke-width="1.3" stroke-opacity="0.533333" d="M730.96,-175.52C753.33,-164.94 781.78,-151.48 804.28,-140.84"/>
<polygon fill="#aabbaa" fill-opacity="0.533333" stroke="#aabbaa" stroke-width="1.3" stroke-opacity="0.533333" points="805.48,-144.15 813.02,-136.71 802.49,-137.82 805.48,-144.15"/>
</g>
<!-- /lib/models/deck_model.dart&#45;&gt;/lib/models/card_model.dart -->
<g id="edge14" class="edge">
<title>/lib/models/deck_model.dart&#45;&gt;/lib/models/card_model.dart</title>
<path fill="none" stroke="#aabbaa" stroke-width="1.3" stroke-opacity="0.533333" d="M797.53,-175.7C788.44,-167.56 778.22,-157.69 769.53,-148.7"/>
<polygon fill="#aabbaa" fill-opacity="0.533333" stroke="#aabbaa" stroke-width="1.3" stroke-opacity="0.533333" points="772.2,-146.43 762.8,-141.54 767.1,-151.22 772.2,-146.43"/>
</g>
<!-- /lib/models/deck_model.dart&#45;&gt;/lib/models/card_model.dart -->
<g id="edge15" class="edge">
<title>/lib/models/deck_model.dart&#45;&gt;/lib/models/card_model.dart</title>
<path fill="none" stroke="#aabbaa" stroke-width="1.3" stroke-dasharray="5,2" stroke-opacity="0.533333" d="M809.37,-175.7C801.85,-167.45 791.89,-157.43 782.22,-148.35"/>
<polygon fill="#aabbaa" fill-opacity="0.533333" stroke="#aabbaa" stroke-width="1.3" stroke-opacity="0.533333" points="784.7,-145.86 774.96,-141.68 779.96,-151.02 784.7,-145.86"/>
</g>
<!-- /lib/screens/game_screen.dart -->
<g id="node12" class="node">
<title>/lib/screens/game_screen.dart</title>
<path fill="Lavender" stroke="black" stroke-width="1.3" d="M853.38,-564C853.38,-564 770.62,-564 770.62,-564 764.62,-564 758.62,-558 758.62,-552 758.62,-552 758.62,-540 758.62,-540 758.62,-534 764.62,-528 770.62,-528 770.62,-528 853.38,-528 853.38,-528 859.38,-528 865.38,-534 865.38,-540 865.38,-540 865.38,-552 865.38,-552 865.38,-558 859.38,-564 853.38,-564"/>
<text text-anchor="middle" x="812" y="-540.75" font-family="Arial" font-size="15.00">game_screen</text>
</g>
<!-- /lib/screens/game_screen.dart&#45;&gt;/lib/models/game_model.dart -->
<g id="edge16" class="edge">
<title>/lib/screens/game_screen.dart&#45;&gt;/lib/models/game_model.dart</title>
<path fill="none" stroke="#aabbaa" stroke-width="1.3" stroke-opacity="0.533333" d="M812.38,-527.61C813.38,-481.2 816.12,-354 817.37,-296.23"/>
<polygon fill="#aabbaa" fill-opacity="0.533333" stroke="#aabbaa" stroke-width="1.3" stroke-opacity="0.533333" points="820.87,-296.42 817.58,-286.35 813.87,-296.27 820.87,-296.42"/>
</g>
<!-- /lib/screens/game_screen.dart&#45;&gt;/lib/models/game_over_dialog.dart -->
<g id="edge17" class="edge">
<title>/lib/screens/game_screen.dart&#45;&gt;/lib/models/game_over_dialog.dart</title>
<path fill="none" stroke="#aabbaa" stroke-width="1.3" stroke-opacity="0.533333" d="M758.47,-537.31C748.15,-533.57 738.3,-528.08 731,-520 673.93,-456.89 673.47,-348.19 677.03,-296.26"/>
<polygon fill="#aabbaa" fill-opacity="0.533333" stroke="#aabbaa" stroke-width="1.3" stroke-opacity="0.533333" points="680.52,-296.56 677.83,-286.31 673.54,-296 680.52,-296.56"/>
</g>
<!-- /lib/screens/game_screen.dart&#45;&gt;/lib/models/misc.dart -->
<g id="edge18" class="edge">
<title>/lib/screens/game_screen.dart&#45;&gt;/lib/models/misc.dart</title>
<path fill="none" stroke="#aabbaa" stroke-width="1.3" stroke-opacity="0.533333" d="M818.76,-527.76C833.16,-489.97 866.52,-396.66 878,-315 886.6,-253.82 896.16,-235.05 878,-176 875.15,-166.73 870.06,-157.63 864.6,-149.65"/>
<polygon fill="#aabbaa" fill-opacity="0.533333" stroke="#aabbaa" stroke-width="1.3" stroke-opacity="0.533333" points="867.55,-147.76 858.78,-141.81 861.93,-151.92 867.55,-147.76"/>
</g>
<!-- /lib/screens/screen.dart -->
<g id="node14" class="node">
<title>/lib/screens/screen.dart</title>
<path fill="Lavender" stroke="black" stroke-width="1.3" d="M788.5,-489C788.5,-489 751.5,-489 751.5,-489 745.5,-489 739.5,-483 739.5,-477 739.5,-477 739.5,-465 739.5,-465 739.5,-459 745.5,-453 751.5,-453 751.5,-453 788.5,-453 788.5,-453 794.5,-453 800.5,-459 800.5,-465 800.5,-465 800.5,-477 800.5,-477 800.5,-483 794.5,-489 788.5,-489"/>
<text text-anchor="middle" x="770" y="-465.75" font-family="Arial" font-size="15.00">screen</text>
</g>
<!-- /lib/screens/game_screen.dart&#45;&gt;/lib/screens/screen.dart -->
<g id="edge19" class="edge">
<title>/lib/screens/game_screen.dart&#45;&gt;/lib/screens/screen.dart</title>
<path fill="none" stroke="#aabbaa" stroke-width="1.3" stroke-opacity="0.533333" d="M802.05,-527.7C797.22,-519.31 791.3,-509.02 785.87,-499.58"/>
<polygon fill="#aabbaa" fill-opacity="0.533333" stroke="#aabbaa" stroke-width="1.3" stroke-opacity="0.533333" points="789.03,-498.06 781.01,-491.13 782.96,-501.55 789.03,-498.06"/>
</g>
<!-- /lib/widgets/player_zone_widget.dart -->
<g id="node25" class="node">
<title>/lib/widgets/player_zone_widget.dart</title>
<path fill="Lavender" stroke="black" stroke-width="1.3" d="M1397,-489C1397,-489 1273,-489 1273,-489 1267,-489 1261,-483 1261,-477 1261,-477 1261,-465 1261,-465 1261,-459 1267,-453 1273,-453 1273,-453 1397,-453 1397,-453 1403,-453 1409,-459 1409,-465 1409,-465 1409,-477 1409,-477 1409,-483 1403,-489 1397,-489"/>
<text text-anchor="middle" x="1335" y="-465.75" font-family="Arial" font-size="15.00">player_zone_widget</text>
</g>
<!-- /lib/screens/game_screen.dart&#45;&gt;/lib/widgets/player_zone_widget.dart -->
<g id="edge20" class="edge">
<title>/lib/screens/game_screen.dart&#45;&gt;/lib/widgets/player_zone_widget.dart</title>
<path fill="none" stroke="#aabbaa" stroke-width="1.3" stroke-opacity="0.533333" d="M865.59,-543.35C974.8,-539.78 1215.9,-530.79 1252,-520 1269.45,-514.78 1287.15,-505.25 1301.7,-496.05"/>
<polygon fill="#aabbaa" fill-opacity="0.533333" stroke="#aabbaa" stroke-width="1.3" stroke-opacity="0.533333" points="1303.61,-498.98 1310.04,-490.56 1299.76,-493.14 1303.61,-498.98"/>
</g>
<!-- /lib/screens/start_screen.dart -->
<g id="node13" class="node">
<title>/lib/screens/start_screen.dart</title>
<path fill="Lavender" stroke="black" stroke-width="1.3" d="M850.62,-636C850.62,-636 775.38,-636 775.38,-636 769.38,-636 763.38,-630 763.38,-624 763.38,-624 763.38,-612 763.38,-612 763.38,-606 769.38,-600 775.38,-600 775.38,-600 850.62,-600 850.62,-600 856.62,-600 862.62,-606 862.62,-612 862.62,-612 862.62,-624 862.62,-624 862.62,-630 856.62,-636 850.62,-636"/>
<text text-anchor="middle" x="813" y="-612.75" font-family="Arial" font-size="15.00">start_screen</text>
</g>
<!-- /lib/screens/start_screen.dart&#45;&gt;/lib/models/game_model.dart -->
<g id="edge22" class="edge">
<title>/lib/screens/start_screen.dart&#45;&gt;/lib/models/game_model.dart</title>
<path fill="none" stroke="#aabbaa" stroke-width="1.3" stroke-opacity="0.533333" d="M842.36,-599.6C854.54,-590.65 867.37,-578.55 874,-564 916.16,-471.51 862.45,-348.93 833.82,-294.76"/>
<polygon fill="#aabbaa" fill-opacity="0.533333" stroke="#aabbaa" stroke-width="1.3" stroke-opacity="0.533333" points="836.91,-293.13 829.07,-286 830.76,-296.46 836.91,-293.13"/>
</g>
<!-- /lib/screens/start_screen.dart&#45;&gt;/lib/models/backend_model.dart -->
<g id="edge21" class="edge">
<title>/lib/screens/start_screen.dart&#45;&gt;/lib/models/backend_model.dart</title>
<path fill="none" stroke="#aabbaa" stroke-width="1.3" stroke-opacity="0.533333" d="M763.13,-607.37C697.95,-591.55 592,-553.34 592,-472 592,-472 592,-472 592,-356 592,-307.79 575.98,-288.58 602,-248 610.01,-235.51 622.08,-225.64 634.86,-217.97"/>
<polygon fill="#aabbaa" fill-opacity="0.533333" stroke="#aabbaa" stroke-width="1.3" stroke-opacity="0.533333" points="636.4,-221.11 643.47,-213.23 633.02,-214.98 636.4,-221.11"/>
</g>
<!-- /lib/screens/start_screen.dart&#45;&gt;/lib/screens/game_screen.dart -->
<g id="edge23" class="edge">
<title>/lib/screens/start_screen.dart&#45;&gt;/lib/screens/game_screen.dart</title>
<path fill="none" stroke="#aabbaa" stroke-width="1.3" stroke-opacity="0.533333" d="M812.75,-599.7C812.65,-592.49 812.53,-583.93 812.41,-575.82"/>
<polygon fill="#aabbaa" fill-opacity="0.533333" stroke="#aabbaa" stroke-width="1.3" stroke-opacity="0.533333" points="815.92,-576.02 812.27,-566.07 808.92,-576.12 815.92,-576.02"/>
</g>
<!-- /lib/screens/start_screen.dart&#45;&gt;/lib/screens/screen.dart -->
<g id="edge24" class="edge">
<title>/lib/screens/start_screen.dart&#45;&gt;/lib/screens/screen.dart</title>
<path fill="none" stroke="#aabbaa" stroke-width="1.3" stroke-opacity="0.533333" d="M782.37,-599.57C769.89,-590.68 756.82,-578.64 750,-564 740.57,-543.75 746.91,-518.91 754.86,-500.14"/>
<polygon fill="#aabbaa" fill-opacity="0.533333" stroke="#aabbaa" stroke-width="1.3" stroke-opacity="0.533333" points="758.02,-501.67 759.07,-491.13 751.67,-498.71 758.02,-501.67"/>
</g>
<!-- /lib/widgets/players_in_room_widget.dart -->
<g id="node22" class="node">
<title>/lib/widgets/players_in_room_widget.dart</title>
<path fill="Lavender" stroke="black" stroke-width="1.3" d="M1719.62,-489C1719.62,-489 1566.38,-489 1566.38,-489 1560.38,-489 1554.38,-483 1554.38,-477 1554.38,-477 1554.38,-465 1554.38,-465 1554.38,-459 1560.38,-453 1566.38,-453 1566.38,-453 1719.62,-453 1719.62,-453 1725.62,-453 1731.62,-459 1731.62,-465 1731.62,-465 1731.62,-477 1731.62,-477 1731.62,-483 1725.62,-489 1719.62,-489"/>
<text text-anchor="middle" x="1643" y="-465.75" font-family="Arial" font-size="15.00">players_in_room_widget</text>
</g>
<!-- /lib/screens/start_screen.dart&#45;&gt;/lib/widgets/players_in_room_widget.dart -->
<g id="edge25" class="edge">
<title>/lib/screens/start_screen.dart&#45;&gt;/lib/widgets/players_in_room_widget.dart</title>
<path fill="none" stroke="#aabbaa" stroke-width="1.3" stroke-opacity="0.533333" d="M863.07,-617.34C984.06,-616.7 1300.42,-606.18 1546,-520 1565.23,-513.25 1585.59,-503.6 1602.65,-494.72"/>
<polygon fill="#aabbaa" fill-opacity="0.533333" stroke="#aabbaa" stroke-width="1.3" stroke-opacity="0.533333" points="1603.89,-498.03 1611.08,-490.25 1600.61,-491.85 1603.89,-498.03"/>
</g>
<!-- /lib/widgets/rooms_widget.dart -->
<g id="node24" class="node">
<title>/lib/widgets/rooms_widget.dart</title>
<path fill="Lavender" stroke="black" stroke-width="1.3" d="M1524.5,-489C1524.5,-489 1439.5,-489 1439.5,-489 1433.5,-489 1427.5,-483 1427.5,-477 1427.5,-477 1427.5,-465 1427.5,-465 1427.5,-459 1433.5,-453 1439.5,-453 1439.5,-453 1524.5,-453 1524.5,-453 1530.5,-453 1536.5,-459 1536.5,-465 1536.5,-465 1536.5,-477 1536.5,-477 1536.5,-483 1530.5,-489 1524.5,-489"/>
<text text-anchor="middle" x="1482" y="-465.75" font-family="Arial" font-size="15.00">rooms_widget</text>
</g>
<!-- /lib/screens/start_screen.dart&#45;&gt;/lib/widgets/rooms_widget.dart -->
<g id="edge26" class="edge">
<title>/lib/screens/start_screen.dart&#45;&gt;/lib/widgets/rooms_widget.dart</title>
<path fill="none" stroke="#aabbaa" stroke-width="1.3" stroke-opacity="0.533333" d="M863.04,-616.97C969.52,-615.23 1224.59,-602.05 1418,-520 1431.25,-514.38 1444.26,-505.44 1455.06,-496.79"/>
<polygon fill="#aabbaa" fill-opacity="0.533333" stroke="#aabbaa" stroke-width="1.3" stroke-opacity="0.533333" points="1457,-499.73 1462.41,-490.63 1452.5,-494.37 1457,-499.73"/>
</g>
<!-- /lib/main.dart -->
<g id="node15" class="node">
<title>/lib/main.dart</title>
<path fill="Lavender" stroke="black" stroke-width="1.3" d="M828,-711C828,-711 798,-711 798,-711 792,-711 786,-705 786,-699 786,-699 786,-687 786,-687 786,-681 792,-675 798,-675 798,-675 828,-675 828,-675 834,-675 840,-681 840,-687 840,-687 840,-699 840,-699 840,-705 834,-711 828,-711"/>
<text text-anchor="middle" x="813" y="-687.75" font-family="Arial" font-size="15.00">main</text>
</g>
<!-- /lib/main.dart&#45;&gt;/lib/screens/start_screen.dart -->
<g id="edge27" class="edge">
<title>/lib/main.dart&#45;&gt;/lib/screens/start_screen.dart</title>
<path fill="none" stroke="#aabbaa" stroke-width="1.3" stroke-opacity="0.533333" d="M813,-674.7C813,-666.76 813,-657.12 813,-648.11"/>
<polygon fill="#aabbaa" fill-opacity="0.533333" stroke="#aabbaa" stroke-width="1.3" stroke-opacity="0.533333" points="816.5,-648.4 813,-638.4 809.5,-648.4 816.5,-648.4"/>
</g>
<!-- /lib/widgets/player_zone_cta_widget.dart -->
<g id="node16" class="node">
<title>/lib/widgets/player_zone_cta_widget.dart</title>
<path fill="Lavender" stroke="black" stroke-width="1.3" d="M1311.25,-375C1311.25,-375 1158.75,-375 1158.75,-375 1152.75,-375 1146.75,-369 1146.75,-363 1146.75,-363 1146.75,-351 1146.75,-351 1146.75,-345 1152.75,-339 1158.75,-339 1158.75,-339 1311.25,-339 1311.25,-339 1317.25,-339 1323.25,-345 1323.25,-351 1323.25,-351 1323.25,-363 1323.25,-363 1323.25,-369 1317.25,-375 1311.25,-375"/>
<text text-anchor="middle" x="1235" y="-351.75" font-family="Arial" font-size="15.00">player_zone_cta_widget</text>
</g>
<!-- /lib/widgets/player_zone_cta_widget.dart&#45;&gt;/lib/models/game_model.dart -->
<g id="edge28" class="edge">
<title>/lib/widgets/player_zone_cta_widget.dart&#45;&gt;/lib/models/game_model.dart</title>
<path fill="none" stroke="#aabbaa" stroke-width="1.3" stroke-opacity="0.533333" d="M1192.75,-338.6C1175.99,-332.5 1156.37,-326.35 1138,-323 1084.41,-313.23 945.02,-331.15 893,-315 876.88,-310 860.87,-300.53 847.81,-291.32"/>
<polygon fill="#aabbaa" fill-opacity="0.533333" stroke="#aabbaa" stroke-width="1.3" stroke-opacity="0.533333" points="850.15,-288.7 840.02,-285.57 845.99,-294.33 850.15,-288.7"/>
</g>
<!-- /lib/widgets/card_pile_widget.dart -->
<g id="node17" class="node">
<title>/lib/widgets/card_pile_widget.dart</title>
<path fill="Lavender" stroke="black" stroke-width="1.3" d="M1191.5,-212C1191.5,-212 1088.5,-212 1088.5,-212 1082.5,-212 1076.5,-206 1076.5,-200 1076.5,-200 1076.5,-188 1076.5,-188 1076.5,-182 1082.5,-176 1088.5,-176 1088.5,-176 1191.5,-176 1191.5,-176 1197.5,-176 1203.5,-182 1203.5,-188 1203.5,-188 1203.5,-200 1203.5,-200 1203.5,-206 1197.5,-212 1191.5,-212"/>
<text text-anchor="middle" x="1140" y="-188.75" font-family="Arial" font-size="15.00">card_pile_widget</text>
</g>
<!-- /lib/widgets/player_zone_cta_widget.dart&#45;&gt;/lib/widgets/card_pile_widget.dart -->
<g id="edge29" class="edge">
<title>/lib/widgets/player_zone_cta_widget.dart&#45;&gt;/lib/widgets/card_pile_widget.dart</title>
<path fill="none" stroke="#aabbaa" stroke-width="1.3" stroke-opacity="0.533333" d="M1233.44,-338.58C1230.73,-316.05 1223.52,-276.34 1205,-248 1197.94,-237.19 1187.97,-227.51 1177.96,-219.48"/>
<polygon fill="#aabbaa" fill-opacity="0.533333" stroke="#aabbaa" stroke-width="1.3" stroke-opacity="0.533333" points="1180.1,-216.71 1170.01,-213.48 1175.88,-222.3 1180.1,-216.71"/>
</g>
<!-- /lib/widgets/card_widget.dart -->
<g id="node19" class="node">
<title>/lib/widgets/card_widget.dart</title>
<path fill="Lavender" stroke="black" stroke-width="1.3" d="M1223.12,-140C1223.12,-140 1150.88,-140 1150.88,-140 1144.88,-140 1138.88,-134 1138.88,-128 1138.88,-128 1138.88,-116 1138.88,-116 1138.88,-110 1144.88,-104 1150.88,-104 1150.88,-104 1223.12,-104 1223.12,-104 1229.12,-104 1235.12,-110 1235.12,-116 1235.12,-116 1235.12,-128 1235.12,-128 1235.12,-134 1229.12,-140 1223.12,-140"/>
<text text-anchor="middle" x="1187" y="-116.75" font-family="Arial" font-size="15.00">card_widget</text>
</g>
<!-- /lib/widgets/player_zone_cta_widget.dart&#45;&gt;/lib/widgets/card_widget.dart -->
<g id="edge31" class="edge">
<title>/lib/widgets/player_zone_cta_widget.dart&#45;&gt;/lib/widgets/card_widget.dart</title>
<path fill="none" stroke="#aabbaa" stroke-width="1.3" stroke-opacity="0.533333" d="M1234.81,-338.73C1234.02,-306.21 1230.3,-233.92 1213,-176 1210.45,-167.46 1206.63,-158.6 1202.7,-150.63"/>
<polygon fill="#aabbaa" fill-opacity="0.533333" stroke="#aabbaa" stroke-width="1.3" stroke-opacity="0.533333" points="1205.83,-149.06 1198.1,-141.82 1199.62,-152.3 1205.83,-149.06"/>
</g>
<!-- /lib/widgets/card_piles_widget.dart -->
<g id="node26" class="node">
<title>/lib/widgets/card_piles_widget.dart</title>
<path fill="Lavender" stroke="black" stroke-width="1.3" d="M1184.25,-284C1184.25,-284 1073.75,-284 1073.75,-284 1067.75,-284 1061.75,-278 1061.75,-272 1061.75,-272 1061.75,-260 1061.75,-260 1061.75,-254 1067.75,-248 1073.75,-248 1073.75,-248 1184.25,-248 1184.25,-248 1190.25,-248 1196.25,-254 1196.25,-260 1196.25,-260 1196.25,-272 1196.25,-272 1196.25,-278 1190.25,-284 1184.25,-284"/>
<text text-anchor="middle" x="1129" y="-260.75" font-family="Arial" font-size="15.00">card_piles_widget</text>
</g>
<!-- /lib/widgets/player_zone_cta_widget.dart&#45;&gt;/lib/widgets/card_piles_widget.dart -->
<g id="edge30" class="edge">
<title>/lib/widgets/player_zone_cta_widget.dart&#45;&gt;/lib/widgets/card_piles_widget.dart</title>
<path fill="none" stroke="#aabbaa" stroke-width="1.3" stroke-opacity="0.533333" d="M1214.31,-338.63C1198.41,-325.27 1176.22,-306.65 1158.46,-291.74"/>
<polygon fill="#aabbaa" fill-opacity="0.533333" stroke="#aabbaa" stroke-width="1.3" stroke-opacity="0.533333" points="1161.05,-289.34 1151.14,-285.59 1156.55,-294.7 1161.05,-289.34"/>
</g>
<!-- /lib/widgets/card_pile_widget.dart&#45;&gt;/lib/models/card_model.dart -->
<g id="edge32" class="edge">
<title>/lib/widgets/card_pile_widget.dart&#45;&gt;/lib/models/card_model.dart</title>
<path fill="none" stroke="#aabbaa" stroke-width="1.3" stroke-opacity="0.533333" d="M1076.23,-183.95C999.12,-172.83 872.65,-153.99 808.77,-140.4"/>
<polygon fill="#aabbaa" fill-opacity="0.533333" stroke="#aabbaa" stroke-width="1.3" stroke-opacity="0.533333" points="809.68,-137.01 799.15,-138.26 808.16,-143.85 809.68,-137.01"/>
</g>
<!-- /lib/widgets/card_pile_widget.dart&#45;&gt;/lib/widgets/card_widget.dart -->
<g id="edge33" class="edge">
<title>/lib/widgets/card_pile_widget.dart&#45;&gt;/lib/widgets/card_widget.dart</title>
<path fill="none" stroke="#aabbaa" stroke-width="1.3" stroke-opacity="0.533333" d="M1151.62,-175.7C1156.85,-167.9 1163.16,-158.51 1168.99,-149.83"/>
<polygon fill="#aabbaa" fill-opacity="0.533333" stroke="#aabbaa" stroke-width="1.3" stroke-opacity="0.533333" points="1171.75,-151.99 1174.42,-141.74 1165.94,-148.09 1171.75,-151.99"/>
</g>
<!-- /lib/widgets/table_surface_painter.dart -->
<g id="node18" class="node">
<title>/lib/widgets/table_surface_painter.dart</title>
<path fill="Lavender" stroke="black" stroke-width="1.3" d="M1053,-489C1053,-489 917,-489 917,-489 911,-489 905,-483 905,-477 905,-477 905,-465 905,-465 905,-459 911,-453 917,-453 917,-453 1053,-453 1053,-453 1059,-453 1065,-459 1065,-465 1065,-465 1065,-477 1065,-477 1065,-483 1059,-489 1053,-489"/>
<text text-anchor="middle" x="985" y="-465.75" font-family="Arial" font-size="15.00">table_surface_painter</text>
</g>
<!-- /lib/widgets/card_widget.dart&#45;&gt;/lib/models/card_model.dart -->
<g id="edge34" class="edge">
<title>/lib/widgets/card_widget.dart&#45;&gt;/lib/models/card_model.dart</title>
<path fill="none" stroke="#aabbaa" stroke-width="1.3" stroke-opacity="0.533333" d="M1138.6,-137.19C1066.82,-157.39 928.39,-187.3 815,-158 805.22,-155.47 795.33,-151.12 786.33,-146.3"/>
<polygon fill="#aabbaa" fill-opacity="0.533333" stroke="#aabbaa" stroke-width="1.3" stroke-opacity="0.533333" points="788.34,-143.42 777.92,-141.48 784.86,-149.49 788.34,-143.42"/>
</g>
<!-- /lib/widgets/wiggle_widget.dart -->
<g id="node21" class="node">
<title>/lib/widgets/wiggle_widget.dart</title>
<path fill="Lavender" stroke="black" stroke-width="1.3" d="M1229.12,-68C1229.12,-68 1144.88,-68 1144.88,-68 1138.88,-68 1132.88,-62 1132.88,-56 1132.88,-56 1132.88,-44 1132.88,-44 1132.88,-38 1138.88,-32 1144.88,-32 1144.88,-32 1229.12,-32 1229.12,-32 1235.12,-32 1241.12,-38 1241.12,-44 1241.12,-44 1241.12,-56 1241.12,-56 1241.12,-62 1235.12,-68 1229.12,-68"/>
<text text-anchor="middle" x="1187" y="-44.75" font-family="Arial" font-size="15.00">wiggle_widget</text>
</g>
<!-- /lib/widgets/card_widget.dart&#45;&gt;/lib/widgets/wiggle_widget.dart -->
<g id="edge35" class="edge">
<title>/lib/widgets/card_widget.dart&#45;&gt;/lib/widgets/wiggle_widget.dart</title>
<path fill="none" stroke="#aabbaa" stroke-width="1.3" stroke-opacity="0.533333" d="M1187,-103.7C1187,-96.49 1187,-87.93 1187,-79.82"/>
<polygon fill="#aabbaa" fill-opacity="0.533333" stroke="#aabbaa" stroke-width="1.3" stroke-opacity="0.533333" points="1190.5,-80.07 1187,-70.07 1183.5,-80.07 1190.5,-80.07"/>
</g>
<!-- /lib/widgets/player_header_widget.dart -->
<g id="node20" class="node">
<title>/lib/widgets/player_header_widget.dart</title>
<path fill="Lavender" stroke="black" stroke-width="1.3" d="M1117.12,-375C1117.12,-375 978.88,-375 978.88,-375 972.88,-375 966.88,-369 966.88,-363 966.88,-363 966.88,-351 966.88,-351 966.88,-345 972.88,-339 978.88,-339 978.88,-339 1117.12,-339 1117.12,-339 1123.12,-339 1129.12,-345 1129.12,-351 1129.12,-351 1129.12,-363 1129.12,-363 1129.12,-369 1123.12,-375 1117.12,-375"/>
<text text-anchor="middle" x="1048" y="-351.75" font-family="Arial" font-size="15.00">player_header_widget</text>
</g>
<!-- /lib/widgets/text_edit_with_submit.dart -->
<g id="node23" class="node">
<title>/lib/widgets/text_edit_with_submit.dart</title>
<path fill="Lavender" stroke="black" stroke-width="1.3" d="M1231,-489C1231,-489 1095,-489 1095,-489 1089,-489 1083,-483 1083,-477 1083,-477 1083,-465 1083,-465 1083,-459 1089,-453 1095,-453 1095,-453 1231,-453 1231,-453 1237,-453 1243,-459 1243,-465 1243,-465 1243,-477 1243,-477 1243,-483 1237,-489 1231,-489"/>
<text text-anchor="middle" x="1163" y="-465.75" font-family="Arial" font-size="15.00">text_edit_with_submit</text>
</g>
<!-- /lib/widgets/text_edit_with_submit.dart&#45;&gt;/lib/models/misc.dart -->
<g id="edge36" class="edge">
<title>/lib/widgets/text_edit_with_submit.dart&#45;&gt;/lib/models/misc.dart</title>
<path fill="none" stroke="#aabbaa" stroke-width="1.3" stroke-opacity="0.533333" d="M1107.87,-452.55C1096.75,-449.59 1085.08,-446.87 1074,-445 1059.62,-442.57 953.95,-446.63 943,-437 854.3,-359.01 947.3,-280.89 893,-176 887.83,-166.01 880.17,-156.61 872.36,-148.59"/>
<polygon fill="#aabbaa" fill-opacity="0.533333" stroke="#aabbaa" stroke-width="1.3" stroke-opacity="0.533333" points="874.97,-146.25 865.34,-141.83 870.11,-151.29 874.97,-146.25"/>
</g>
<!-- /lib/widgets/player_zone_widget.dart&#45;&gt;/lib/models/game_model.dart -->
<g id="edge37" class="edge">
<title>/lib/widgets/player_zone_widget.dart&#45;&gt;/lib/models/game_model.dart</title>
<path fill="none" stroke="#aabbaa" stroke-width="1.3" stroke-opacity="0.533333" d="M1285.03,-452.61C1274.26,-449.52 1262.85,-446.74 1252,-445 1235.04,-442.28 957.88,-445.58 943,-437 891.49,-407.3 909.62,-369.84 873,-323 864.8,-312.51 854.84,-301.86 845.66,-292.71"/>
<polygon fill="#aabbaa" fill-opacity="0.533333" stroke="#aabbaa" stroke-width="1.3" stroke-opacity="0.533333" points="848.2,-290.29 838.59,-285.82 843.31,-295.31 848.2,-290.29"/>
</g>
<!-- /lib/widgets/player_zone_widget.dart&#45;&gt;/lib/models/misc.dart -->
<g id="edge38" class="edge">
<title>/lib/widgets/player_zone_widget.dart&#45;&gt;/lib/models/misc.dart</title>
<path fill="none" stroke="#aabbaa" stroke-width="1.3" stroke-opacity="0.533333" d="M1285.02,-452.62C1274.26,-449.53 1262.85,-446.75 1252,-445 1235.87,-442.4 970.51,-447.51 958,-437 867.38,-360.85 965.44,-277.78 905,-176 898.42,-164.92 888.66,-155.07 878.77,-146.95"/>
<polygon fill="#aabbaa" fill-opacity="0.533333" stroke="#aabbaa" stroke-width="1.3" stroke-opacity="0.533333" points="880.98,-144.24 870.92,-140.92 876.72,-149.79 880.98,-144.24"/>
</g>
<!-- /lib/widgets/player_zone_widget.dart&#45;&gt;/lib/widgets/player_zone_cta_widget.dart -->
<g id="edge41" class="edge">
<title>/lib/widgets/player_zone_widget.dart&#45;&gt;/lib/widgets/player_zone_cta_widget.dart</title>
<path fill="none" stroke="#aabbaa" stroke-width="1.3" stroke-opacity="0.533333" d="M1319.38,-452.5C1303.01,-434.17 1277.12,-405.18 1258.34,-384.14"/>
<polygon fill="#aabbaa" fill-opacity="0.533333" stroke="#aabbaa" stroke-width="1.3" stroke-opacity="0.533333" points="1261.1,-381.97 1251.83,-376.84 1255.88,-386.64 1261.1,-381.97"/>
</g>
<!-- /lib/widgets/player_zone_widget.dart&#45;&gt;/lib/widgets/card_widget.dart -->
<g id="edge39" class="edge">
<title>/lib/widgets/player_zone_widget.dart&#45;&gt;/lib/widgets/card_widget.dart</title>
<path fill="none" stroke="#aabbaa" stroke-width="1.3" stroke-opacity="0.533333" d="M1337.9,-452.68C1341.9,-424.6 1347.03,-367.77 1332,-323 1308.03,-251.6 1248.71,-184.04 1213.82,-148.65"/>
<polygon fill="#aabbaa" fill-opacity="0.533333" stroke="#aabbaa" stroke-width="1.3" stroke-opacity="0.533333" points="1216.46,-146.34 1206.91,-141.76 1211.52,-151.3 1216.46,-146.34"/>
</g>
<!-- /lib/widgets/player_zone_widget.dart&#45;&gt;/lib/widgets/player_header_widget.dart -->
<g id="edge40" class="edge">
<title>/lib/widgets/player_zone_widget.dart&#45;&gt;/lib/widgets/player_header_widget.dart</title>
<path fill="none" stroke="#aabbaa" stroke-width="1.3" stroke-opacity="0.533333" d="M1283.63,-452.59C1273.26,-449.63 1262.36,-446.9 1252,-445 1227.02,-440.42 1161.44,-446.78 1138,-437 1110.75,-425.63 1086.04,-402.57 1069.43,-384.28"/>
<polygon fill="#aabbaa" fill-opacity="0.533333" stroke="#aabbaa" stroke-width="1.3" stroke-opacity="0.533333" points="1072.26,-382.19 1063.04,-376.98 1067,-386.81 1072.26,-382.19"/>
</g>
<!-- /lib/widgets/card_piles_widget.dart&#45;&gt;/lib/models/card_model.dart -->
<g id="edge42" class="edge">
<title>/lib/widgets/card_piles_widget.dart&#45;&gt;/lib/models/card_model.dart</title>
<path fill="none" stroke="#aabbaa" stroke-width="1.3" stroke-opacity="0.533333" d="M1082.53,-247.59C1013.24,-221.63 882.98,-172.82 807.7,-144.62"/>
<polygon fill="#aabbaa" fill-opacity="0.533333" stroke="#aabbaa" stroke-width="1.3" stroke-opacity="0.533333" points="808.99,-141.36 798.4,-141.13 806.53,-147.92 808.99,-141.36"/>
</g>
<!-- /lib/widgets/card_piles_widget.dart&#45;&gt;/lib/widgets/card_pile_widget.dart -->
<g id="edge43" class="edge">
<title>/lib/widgets/card_piles_widget.dart&#45;&gt;/lib/widgets/card_pile_widget.dart</title>
<path fill="none" stroke="#aabbaa" stroke-width="1.3" stroke-opacity="0.533333" d="M1131.72,-247.7C1132.85,-240.49 1134.2,-231.93 1135.47,-223.82"/>
<polygon fill="#aabbaa" fill-opacity="0.533333" stroke="#aabbaa" stroke-width="1.3" stroke-opacity="0.533333" points="1138.91,-224.47 1137.01,-214.05 1132,-223.38 1138.91,-224.47"/>
</g>
</g>
</svg>
