<?xml version="1.0" encoding="UTF-8" standalone="no"?>
<!DOCTYPE svg PUBLIC "-//W3C//DTD SVG 1.1//EN"
 "http://www.w3.org/Graphics/SVG/1.1/DTD/svg11.dtd">
<!-- Generated by graphviz version 12.1.2 (20240928.0832)
 -->
<!-- Pages: 1 -->
<svg width="1773pt" height="781pt"
 viewBox="0.00 0.00 1773.00 781.00" xmlns="http://www.w3.org/2000/svg" xmlns:xlink="http://www.w3.org/1999/xlink">
<g id="graph0" class="graph" transform="scale(1 1) rotate(0) translate(4 777)">
<polygon fill="white" stroke="none" points="-4,4 -4,-777 1769,-777 1769,4 -4,4"/>
<g id="clust1" class="cluster">
<title>cluster~</title>
<path fill="none" stroke="lightgray" stroke-width="2.6" d="M20,-8C20,-8 1745,-8 1745,-8 1751,-8 1757,-14 1757,-20 1757,-20 1757,-753 1757,-753 1757,-759 1751,-765 1745,-765 1745,-765 20,-765 20,-765 14,-765 8,-759 8,-753 8,-753 8,-20 8,-20 8,-14 14,-8 20,-8"/>
<text text-anchor="middle" x="882.5" y="-748.65" font-family="Arial Black" font-size="13.00">cards</text>
</g>
<g id="clust2" class="cluster">
<title>cluster~/test</title>
<path fill="none" stroke="lightgray" stroke-width="2.6" d="M28,-251C28,-251 474,-251 474,-251 480,-251 486,-257 486,-263 486,-263 486,-353 486,-353 486,-359 480,-365 474,-365 474,-365 28,-365 28,-365 22,-365 16,-359 16,-353 16,-353 16,-263 16,-263 16,-257 22,-251 28,-251"/>
<text text-anchor="middle" x="251" y="-348.65" font-family="Arial Black" font-size="13.00">test</text>
</g>
<g id="clust3" class="cluster">
<title>cluster~/test/models</title>
<path fill="none" stroke="lightgray" stroke-width="2.6" d="M36,-259C36,-259 466,-259 466,-259 472,-259 478,-265 478,-271 478,-271 478,-322 478,-322 478,-328 472,-334 466,-334 466,-334 36,-334 36,-334 30,-334 24,-328 24,-322 24,-322 24,-271 24,-271 24,-265 30,-259 36,-259"/>
<text text-anchor="middle" x="251" y="-317.65" font-family="Arial Black" font-size="13.00">models</text>
</g>
<g id="clust4" class="cluster">
<title>cluster~/lib</title>
<path fill="none" stroke="lightgray" stroke-width="2.6" d="M506,-16C506,-16 1737,-16 1737,-16 1743,-16 1749,-22 1749,-28 1749,-28 1749,-722 1749,-722 1749,-728 1743,-734 1737,-734 1737,-734 506,-734 506,-734 500,-734 494,-728 494,-722 494,-722 494,-28 494,-28 494,-22 500,-16 506,-16"/>
<text text-anchor="middle" x="1121.5" y="-717.65" font-family="Arial Black" font-size="13.00">lib</text>
</g>
<g id="clust5" class="cluster">
<title>cluster~/lib/models</title>
<path fill="none" stroke="lightgray" stroke-width="2.6" d="M514,-24C514,-24 866,-24 866,-24 872,-24 878,-30 878,-36 878,-36 878,-231 878,-231 878,-237 872,-243 866,-243 866,-243 514,-243 514,-243 508,-243 502,-237 502,-231 502,-231 502,-36 502,-36 502,-30 508,-24 514,-24"/>
<text text-anchor="middle" x="690" y="-226.65" font-family="Arial Black" font-size="13.00">models</text>
</g>
<g id="clust6" class="cluster">
<title>cluster~/lib/screens</title>
<path fill="none" stroke="lightgray" stroke-width="2.6" d="M676,-437C676,-437 794,-437 794,-437 800,-437 806,-443 806,-449 806,-449 806,-647 806,-647 806,-653 800,-659 794,-659 794,-659 676,-659 676,-659 670,-659 664,-653 664,-647 664,-647 664,-449 664,-449 664,-443 670,-437 676,-437"/>
<text text-anchor="middle" x="735" y="-642.65" font-family="Arial Black" font-size="13.00">screens</text>
</g>
<g id="clust7" class="cluster">
<title>cluster~/lib/widgets</title>
<path fill="none" stroke="lightgray" stroke-width="2.6" d="M898,-24C898,-24 1717,-24 1717,-24 1723,-24 1729,-30 1729,-36 1729,-36 1729,-500 1729,-500 1729,-506 1723,-512 1717,-512 1717,-512 898,-512 898,-512 892,-512 886,-506 886,-500 886,-500 886,-36 886,-36 886,-30 892,-24 898,-24"/>
<text text-anchor="middle" x="1307.5" y="-495.65" font-family="Arial Black" font-size="13.00">widgets</text>
</g>
<!-- /test/models/game_model_test.dart -->
<g id="node1" class="node">
<title>/test/models/game_model_test.dart</title>
<path fill="Lavender" stroke="black" stroke-width="1.3" d="M457.62,-303C457.62,-303 346.38,-303 346.38,-303 340.38,-303 334.38,-297 334.38,-291 334.38,-291 334.38,-279 334.38,-279 334.38,-273 340.38,-267 346.38,-267 346.38,-267 457.62,-267 457.62,-267 463.62,-267 469.62,-273 469.62,-279 469.62,-279 469.62,-291 469.62,-291 469.62,-297 463.62,-303 457.62,-303"/>
<text text-anchor="middle" x="402" y="-279.75" font-family="Arial" font-size="15.00">game_model_test</text>
</g>
<!-- /lib/models/game_model.dart -->
<g id="node4" class="node">
<title>/lib/models/game_model.dart</title>
<path fill="Lavender" stroke="black" stroke-width="1.3" d="M798.12,-212C798.12,-212 719.88,-212 719.88,-212 713.88,-212 707.88,-206 707.88,-200 707.88,-200 707.88,-188 707.88,-188 707.88,-182 713.88,-176 719.88,-176 719.88,-176 798.12,-176 798.12,-176 804.12,-176 810.12,-182 810.12,-188 810.12,-188 810.12,-200 810.12,-200 810.12,-206 804.12,-212 798.12,-212"/>
<text text-anchor="middle" x="759" y="-188.75" font-family="Arial" font-size="15.00">game_model</text>
</g>
<!-- /test/models/game_model_test.dart&#45;&gt;/lib/models/game_model.dart -->
<g id="edge1" class="edge">
<title>/test/models/game_model_test.dart&#45;&gt;/lib/models/game_model.dart</title>
<path fill="none" stroke="#aabbaa" stroke-width="1.3" stroke-opacity="0.533333" d="M469.86,-280.2C525.19,-275.56 604.75,-265.34 671,-243 688.82,-236.99 707.28,-227.5 722.66,-218.54"/>
<polygon fill="#aabbaa" fill-opacity="0.533333" stroke="#aabbaa" stroke-width="1.3" stroke-opacity="0.533333" points="724.31,-221.63 731.08,-213.48 720.7,-215.63 724.31,-221.63"/>
</g>
<!-- /test/models/player_model_test.dart -->
<g id="node2" class="node">
<title>/test/models/player_model_test.dart</title>
<path fill="Lavender" stroke="black" stroke-width="1.3" d="M304.12,-303C304.12,-303 189.88,-303 189.88,-303 183.88,-303 177.88,-297 177.88,-291 177.88,-291 177.88,-279 177.88,-279 177.88,-273 183.88,-267 189.88,-267 189.88,-267 304.12,-267 304.12,-267 310.12,-267 316.12,-273 316.12,-279 316.12,-279 316.12,-291 316.12,-291 316.12,-297 310.12,-303 304.12,-303"/>
<text text-anchor="middle" x="247" y="-279.75" font-family="Arial" font-size="15.00">player_model_test</text>
</g>
<!-- /lib/models/player_model.dart -->
<g id="node7" class="node">
<title>/lib/models/player_model.dart</title>
<path fill="Lavender" stroke="black" stroke-width="1.3" d="M603.62,-140C603.62,-140 522.38,-140 522.38,-140 516.38,-140 510.38,-134 510.38,-128 510.38,-128 510.38,-116 510.38,-116 510.38,-110 516.38,-104 522.38,-104 522.38,-104 603.62,-104 603.62,-104 609.62,-104 615.62,-110 615.62,-116 615.62,-116 615.62,-128 615.62,-128 615.62,-134 609.62,-140 603.62,-140"/>
<text text-anchor="middle" x="563" y="-116.75" font-family="Arial" font-size="15.00">player_model</text>
</g>
<!-- /test/models/player_model_test.dart&#45;&gt;/lib/models/player_model.dart -->
<g id="edge2" class="edge">
<title>/test/models/player_model_test.dart&#45;&gt;/lib/models/player_model.dart</title>
<path fill="none" stroke="#aabbaa" stroke-width="1.3" stroke-opacity="0.533333" d="M281.12,-266.62C338.6,-237.33 454.69,-178.18 518.5,-145.67"/>
<polygon fill="#aabbaa" fill-opacity="0.533333" stroke="#aabbaa" stroke-width="1.3" stroke-opacity="0.533333" points="519.95,-148.86 527.27,-141.2 516.77,-142.62 519.95,-148.86"/>
</g>
<!-- /test/models/card_model_test.dart -->
<g id="node3" class="node">
<title>/test/models/card_model_test.dart</title>
<path fill="Lavender" stroke="black" stroke-width="1.3" d="M147.5,-303C147.5,-303 44.5,-303 44.5,-303 38.5,-303 32.5,-297 32.5,-291 32.5,-291 32.5,-279 32.5,-279 32.5,-273 38.5,-267 44.5,-267 44.5,-267 147.5,-267 147.5,-267 153.5,-267 159.5,-273 159.5,-279 159.5,-279 159.5,-291 159.5,-291 159.5,-297 153.5,-303 147.5,-303"/>
<text text-anchor="middle" x="96" y="-279.75" font-family="Arial" font-size="15.00">card_model_test</text>
</g>
<!-- /lib/models/card_model.dart -->
<g id="node8" class="node">
<title>/lib/models/card_model.dart</title>
<path fill="Lavender" stroke="black" stroke-width="1.3" d="M714,-68C714,-68 644,-68 644,-68 638,-68 632,-62 632,-56 632,-56 632,-44 632,-44 632,-38 638,-32 644,-32 644,-32 714,-32 714,-32 720,-32 726,-38 726,-44 726,-44 726,-56 726,-56 726,-62 720,-68 714,-68"/>
<text text-anchor="middle" x="679" y="-44.75" font-family="Arial" font-size="15.00">card_model</text>
</g>
<!-- /test/models/card_model_test.dart&#45;&gt;/lib/models/card_model.dart -->
<g id="edge3" class="edge">
<title>/test/models/card_model_test.dart&#45;&gt;/lib/models/card_model.dart</title>
<path fill="none" stroke="#aabbaa" stroke-width="1.3" stroke-opacity="0.533333" d="M130.48,-266.51C199.47,-232.01 360.01,-154.17 501,-104 540.3,-90.01 585.34,-76.63 620.28,-66.81"/>
<polygon fill="#aabbaa" fill-opacity="0.533333" stroke="#aabbaa" stroke-width="1.3" stroke-opacity="0.533333" points="621.13,-70.2 629.82,-64.15 619.25,-63.46 621.13,-70.2"/>
</g>
<!-- /lib/models/game_model.dart&#45;&gt;/lib/models/player_model.dart -->
<g id="edge6" class="edge">
<title>/lib/models/game_model.dart&#45;&gt;/lib/models/player_model.dart</title>
<path fill="none" stroke="#aabbaa" stroke-width="1.3" stroke-opacity="0.533333" d="M707.48,-176.68C679.55,-167.08 645.12,-154.84 616.84,-144.47"/>
<polygon fill="#aabbaa" fill-opacity="0.533333" stroke="#aabbaa" stroke-width="1.3" stroke-opacity="0.533333" points="618.37,-141.31 607.78,-141.13 615.95,-147.87 618.37,-141.31"/>
</g>
<!-- /lib/models/game_model.dart&#45;&gt;/lib/models/player_model.dart -->
<g id="edge8" class="edge">
<title>/lib/models/game_model.dart&#45;&gt;/lib/models/player_model.dart</title>
<path fill="none" stroke="#aabbaa" stroke-width="1.3" stroke-dasharray="5,2" stroke-opacity="0.533333" d="M715.98,-175.52C689.82,-165.82 656,-153.71 626.79,-143.56"/>
<polygon fill="#aabbaa" fill-opacity="0.533333" stroke="#aabbaa" stroke-width="1.3" stroke-opacity="0.533333" points="628.29,-140.38 617.7,-140.42 626.01,-147 628.29,-140.38"/>
</g>
<!-- /lib/models/backend_model.dart -->
<g id="node9" class="node">
<title>/lib/models/backend_model.dart</title>
<path fill="Lavender" stroke="black" stroke-width="1.3" d="M857.5,-140C857.5,-140 760.5,-140 760.5,-140 754.5,-140 748.5,-134 748.5,-128 748.5,-128 748.5,-116 748.5,-116 748.5,-110 754.5,-104 760.5,-104 760.5,-104 857.5,-104 857.5,-104 863.5,-104 869.5,-110 869.5,-116 869.5,-116 869.5,-128 869.5,-128 869.5,-134 863.5,-140 857.5,-140"/>
<text text-anchor="middle" x="809" y="-116.75" font-family="Arial" font-size="15.00">backend_model</text>
</g>
<!-- /lib/models/game_model.dart&#45;&gt;/lib/models/backend_model.dart -->
<g id="edge4" class="edge">
<title>/lib/models/game_model.dart&#45;&gt;/lib/models/backend_model.dart</title>
<path fill="none" stroke="#aabbaa" stroke-width="1.3" stroke-opacity="0.533333" d="M771.36,-175.7C776.93,-167.9 783.64,-158.51 789.84,-149.83"/>
<polygon fill="#aabbaa" fill-opacity="0.533333" stroke="#aabbaa" stroke-width="1.3" stroke-opacity="0.533333" points="792.67,-151.88 795.64,-141.71 786.98,-147.81 792.67,-151.88"/>
</g>
<!-- /lib/models/deck_model.dart -->
<g id="node10" class="node">
<title>/lib/models/deck_model.dart</title>
<path fill="Lavender" stroke="black" stroke-width="1.3" d="M718.12,-140C718.12,-140 645.88,-140 645.88,-140 639.88,-140 633.88,-134 633.88,-128 633.88,-128 633.88,-116 633.88,-116 633.88,-110 639.88,-104 645.88,-104 645.88,-104 718.12,-104 718.12,-104 724.12,-104 730.12,-110 730.12,-116 730.12,-116 730.12,-128 730.12,-128 730.12,-134 724.12,-140 718.12,-140"/>
<text text-anchor="middle" x="682" y="-116.75" font-family="Arial" font-size="15.00">deck_model</text>
</g>
<!-- /lib/models/game_model.dart&#45;&gt;/lib/models/deck_model.dart -->
<g id="edge5" class="edge">
<title>/lib/models/game_model.dart&#45;&gt;/lib/models/deck_model.dart</title>
<path fill="none" stroke="#aabbaa" stroke-width="1.3" stroke-opacity="0.533333" d="M734.05,-175.7C724.16,-167.47 712.97,-157.48 703.44,-148.42"/>
<polygon fill="#aabbaa" fill-opacity="0.533333" stroke="#aabbaa" stroke-width="1.3" stroke-opacity="0.533333" points="705.93,-145.96 696.33,-141.48 701.04,-150.97 705.93,-145.96"/>
</g>
<!-- /lib/models/game_model.dart&#45;&gt;/lib/models/deck_model.dart -->
<g id="edge7" class="edge">
<title>/lib/models/game_model.dart&#45;&gt;/lib/models/deck_model.dart</title>
<path fill="none" stroke="#aabbaa" stroke-width="1.3" stroke-dasharray="5,2" stroke-opacity="0.533333" d="M745.88,-175.7C737.58,-167.37 726.62,-157.22 716.08,-148.07"/>
<polygon fill="#aabbaa" fill-opacity="0.533333" stroke="#aabbaa" stroke-width="1.3" stroke-opacity="0.533333" points="718.38,-145.44 708.5,-141.62 713.85,-150.77 718.38,-145.44"/>
</g>
<!-- /lib/models/game_over_dialog.dart -->
<g id="node5" class="node">
<title>/lib/models/game_over_dialog.dart</title>
<path fill="Lavender" stroke="black" stroke-width="1.3" d="M650.12,-212C650.12,-212 535.88,-212 535.88,-212 529.88,-212 523.88,-206 523.88,-200 523.88,-200 523.88,-188 523.88,-188 523.88,-182 529.88,-176 535.88,-176 535.88,-176 650.12,-176 650.12,-176 656.12,-176 662.12,-182 662.12,-188 662.12,-188 662.12,-200 662.12,-200 662.12,-206 656.12,-212 650.12,-212"/>
<text text-anchor="middle" x="593" y="-188.75" font-family="Arial" font-size="15.00">game_over_dialog</text>
</g>
<!-- /lib/models/game_over_dialog.dart&#45;&gt;/lib/models/player_model.dart -->
<g id="edge9" class="edge">
<title>/lib/models/game_over_dialog.dart&#45;&gt;/lib/models/player_model.dart</title>
<path fill="none" stroke="#aabbaa" stroke-width="1.3" stroke-opacity="0.533333" d="M585.58,-175.7C582.39,-168.24 578.57,-159.32 574.99,-150.97"/>
<polygon fill="#aabbaa" fill-opacity="0.533333" stroke="#aabbaa" stroke-width="1.3" stroke-opacity="0.533333" points="578.26,-149.73 571.11,-141.91 571.83,-152.48 578.26,-149.73"/>
</g>
<!-- /lib/models/firebase_options.dart -->
<g id="node6" class="node">
<title>/lib/models/firebase_options.dart</title>
<path fill="Lavender" stroke="black" stroke-width="1.3" d="M857.75,-68C857.75,-68 756.25,-68 756.25,-68 750.25,-68 744.25,-62 744.25,-56 744.25,-56 744.25,-44 744.25,-44 744.25,-38 750.25,-32 756.25,-32 756.25,-32 857.75,-32 857.75,-32 863.75,-32 869.75,-38 869.75,-44 869.75,-44 869.75,-56 869.75,-56 869.75,-62 863.75,-68 857.75,-68"/>
<text text-anchor="middle" x="807" y="-44.75" font-family="Arial" font-size="15.00">firebase_options</text>
</g>
<!-- /lib/models/player_model.dart&#45;&gt;/lib/models/card_model.dart -->
<g id="edge10" class="edge">
<title>/lib/models/player_model.dart&#45;&gt;/lib/models/card_model.dart</title>
<path fill="none" stroke="#aabbaa" stroke-width="1.3" stroke-opacity="0.533333" d="M586.04,-103.52C599.91,-94.6 617.93,-83.63 634.45,-74.03"/>
<polygon fill="#aabbaa" fill-opacity="0.533333" stroke="#aabbaa" stroke-width="1.3" stroke-opacity="0.533333" points="635.85,-77.26 642.78,-69.24 632.37,-71.19 635.85,-77.26"/>
</g>
<!-- /lib/models/player_model.dart&#45;&gt;/lib/models/card_model.dart -->
<g id="edge11" class="edge">
<title>/lib/models/player_model.dart&#45;&gt;/lib/models/card_model.dart</title>
<path fill="none" stroke="#aabbaa" stroke-width="1.3" stroke-dasharray="5,2" stroke-opacity="0.533333" d="M597.91,-103.52C613.3,-94.76 631.23,-84.04 646.35,-74.58"/>
<polygon fill="#aabbaa" fill-opacity="0.533333" stroke="#aabbaa" stroke-width="1.3" stroke-opacity="0.533333" points="648.08,-77.63 654.65,-69.31 644.33,-71.71 648.08,-77.63"/>
</g>
<!-- /lib/models/backend_model.dart&#45;&gt;/lib/models/firebase_options.dart -->
<g id="edge12" class="edge">
<title>/lib/models/backend_model.dart&#45;&gt;/lib/models/firebase_options.dart</title>
<path fill="none" stroke="#aabbaa" stroke-width="1.3" stroke-opacity="0.533333" d="M808.51,-103.7C808.3,-96.49 808.06,-87.93 807.82,-79.82"/>
<polygon fill="#aabbaa" fill-opacity="0.533333" stroke="#aabbaa" stroke-width="1.3" stroke-opacity="0.533333" points="811.33,-79.97 807.54,-70.07 804.33,-80.17 811.33,-79.97"/>
</g>
<!-- /lib/models/deck_model.dart&#45;&gt;/lib/models/card_model.dart -->
<g id="edge13" class="edge">
<title>/lib/models/deck_model.dart&#45;&gt;/lib/models/card_model.dart</title>
<path fill="none" stroke="#aabbaa" stroke-width="1.3" stroke-opacity="0.533333" d="M675.34,-103.7C674.29,-96.49 673.68,-87.93 673.58,-79.82"/>
<polygon fill="#aabbaa" fill-opacity="0.533333" stroke="#aabbaa" stroke-width="1.3" stroke-opacity="0.533333" points="677.07,-80.15 673.79,-70.07 670.07,-79.99 677.07,-80.15"/>
</g>
<!-- /lib/models/deck_model.dart&#45;&gt;/lib/models/card_model.dart -->
<g id="edge14" class="edge">
<title>/lib/models/deck_model.dart&#45;&gt;/lib/models/card_model.dart</title>
<path fill="none" stroke="#aabbaa" stroke-width="1.3" stroke-dasharray="5,2" stroke-opacity="0.533333" d="M687.17,-103.7C687.61,-96.49 687.49,-87.93 686.89,-79.82"/>
<polygon fill="#aabbaa" fill-opacity="0.533333" stroke="#aabbaa" stroke-width="1.3" stroke-opacity="0.533333" points="690.39,-79.63 685.84,-70.06 683.43,-80.38 690.39,-79.63"/>
</g>
<!-- /lib/screens/game_screen.dart -->
<g id="node11" class="node">
<title>/lib/screens/game_screen.dart</title>
<path fill="Lavender" stroke="black" stroke-width="1.3" d="M786.38,-556C786.38,-556 703.62,-556 703.62,-556 697.62,-556 691.62,-550 691.62,-544 691.62,-544 691.62,-532 691.62,-532 691.62,-526 697.62,-520 703.62,-520 703.62,-520 786.38,-520 786.38,-520 792.38,-520 798.38,-526 798.38,-532 798.38,-532 798.38,-544 798.38,-544 798.38,-550 792.38,-556 786.38,-556"/>
<text text-anchor="middle" x="745" y="-532.75" font-family="Arial" font-size="15.00">game_screen</text>
</g>
<!-- /lib/screens/game_screen.dart&#45;&gt;/lib/models/game_model.dart -->
<g id="edge15" class="edge">
<title>/lib/screens/game_screen.dart&#45;&gt;/lib/models/game_model.dart</title>
<path fill="none" stroke="#aabbaa" stroke-width="1.3" stroke-opacity="0.533333" d="M755.33,-519.66C756.43,-517.16 757.37,-514.57 758,-512 783.44,-408.63 771.01,-280.49 763.41,-224.03"/>
<polygon fill="#aabbaa" fill-opacity="0.533333" stroke="#aabbaa" stroke-width="1.3" stroke-opacity="0.533333" points="766.88,-223.55 762.02,-214.13 759.94,-224.52 766.88,-223.55"/>
</g>
<!-- /lib/screens/game_screen.dart&#45;&gt;/lib/models/game_over_dialog.dart -->
<g id="edge16" class="edge">
<title>/lib/screens/game_screen.dart&#45;&gt;/lib/models/game_over_dialog.dart</title>
<path fill="none" stroke="#aabbaa" stroke-width="1.3" stroke-opacity="0.533333" d="M747.39,-519.59C749.55,-499.3 751.27,-464.98 743,-437 717.32,-350.15 651.56,-263.65 616.25,-221.49"/>
<polygon fill="#aabbaa" fill-opacity="0.533333" stroke="#aabbaa" stroke-width="1.3" stroke-opacity="0.533333" points="619,-219.33 609.86,-213.97 613.66,-223.86 619,-219.33"/>
</g>
<!-- /lib/screens/screen.dart -->
<g id="node13" class="node">
<title>/lib/screens/screen.dart</title>
<path fill="Lavender" stroke="black" stroke-width="1.3" d="M721.5,-481C721.5,-481 684.5,-481 684.5,-481 678.5,-481 672.5,-475 672.5,-469 672.5,-469 672.5,-457 672.5,-457 672.5,-451 678.5,-445 684.5,-445 684.5,-445 721.5,-445 721.5,-445 727.5,-445 733.5,-451 733.5,-457 733.5,-457 733.5,-469 733.5,-469 733.5,-475 727.5,-481 721.5,-481"/>
<text text-anchor="middle" x="703" y="-457.75" font-family="Arial" font-size="15.00">screen</text>
</g>
<!-- /lib/screens/game_screen.dart&#45;&gt;/lib/screens/screen.dart -->
<g id="edge17" class="edge">
<title>/lib/screens/game_screen.dart&#45;&gt;/lib/screens/screen.dart</title>
<path fill="none" stroke="#aabbaa" stroke-width="1.3" stroke-opacity="0.533333" d="M735.05,-519.7C730.22,-511.31 724.3,-501.02 718.87,-491.58"/>
<polygon fill="#aabbaa" fill-opacity="0.533333" stroke="#aabbaa" stroke-width="1.3" stroke-opacity="0.533333" points="722.03,-490.06 714.01,-483.13 715.96,-493.55 722.03,-490.06"/>
</g>
<!-- /lib/widgets/player_zone_widget.dart -->
<g id="node24" class="node">
<title>/lib/widgets/player_zone_widget.dart</title>
<path fill="Lavender" stroke="black" stroke-width="1.3" d="M1208,-481C1208,-481 1084,-481 1084,-481 1078,-481 1072,-475 1072,-469 1072,-469 1072,-457 1072,-457 1072,-451 1078,-445 1084,-445 1084,-445 1208,-445 1208,-445 1214,-445 1220,-451 1220,-457 1220,-457 1220,-469 1220,-469 1220,-475 1214,-481 1208,-481"/>
<text text-anchor="middle" x="1146" y="-457.75" font-family="Arial" font-size="15.00">player_zone_widget</text>
</g>
<!-- /lib/screens/game_screen.dart&#45;&gt;/lib/widgets/player_zone_widget.dart -->
<g id="edge18" class="edge">
<title>/lib/screens/game_screen.dart&#45;&gt;/lib/widgets/player_zone_widget.dart</title>
<path fill="none" stroke="#aabbaa" stroke-width="1.3" stroke-opacity="0.533333" d="M798.57,-535.65C875.99,-533.21 1015.14,-526.88 1063,-512 1080.4,-506.59 1098.09,-497.04 1112.64,-487.87"/>
<polygon fill="#aabbaa" fill-opacity="0.533333" stroke="#aabbaa" stroke-width="1.3" stroke-opacity="0.533333" points="1114.54,-490.81 1120.99,-482.4 1110.71,-484.95 1114.54,-490.81"/>
</g>
<!-- /lib/screens/start_screen.dart -->
<g id="node12" class="node">
<title>/lib/screens/start_screen.dart</title>
<path fill="Lavender" stroke="black" stroke-width="1.3" d="M785.62,-628C785.62,-628 710.38,-628 710.38,-628 704.38,-628 698.38,-622 698.38,-616 698.38,-616 698.38,-604 698.38,-604 698.38,-598 704.38,-592 710.38,-592 710.38,-592 785.62,-592 785.62,-592 791.62,-592 797.62,-598 797.62,-604 797.62,-604 797.62,-616 797.62,-616 797.62,-622 791.62,-628 785.62,-628"/>
<text text-anchor="middle" x="748" y="-604.75" font-family="Arial" font-size="15.00">start_screen</text>
</g>
<!-- /lib/screens/start_screen.dart&#45;&gt;/lib/models/game_model.dart -->
<g id="edge20" class="edge">
<title>/lib/screens/start_screen.dart&#45;&gt;/lib/models/game_model.dart</title>
<path fill="none" stroke="#aabbaa" stroke-width="1.3" stroke-opacity="0.533333" d="M775.1,-591.54C786.92,-582.43 799.72,-570.21 807,-556 825.76,-519.4 817,-505.13 817,-464 817,-464 817,-464 817,-390 817,-328.38 790.07,-260.19 772.91,-223"/>
<polygon fill="#aabbaa" fill-opacity="0.533333" stroke="#aabbaa" stroke-width="1.3" stroke-opacity="0.533333" points="776.22,-221.81 768.78,-214.27 769.89,-224.81 776.22,-221.81"/>
</g>
<!-- /lib/screens/start_screen.dart&#45;&gt;/lib/models/backend_model.dart -->
<g id="edge19" class="edge">
<title>/lib/screens/start_screen.dart&#45;&gt;/lib/models/backend_model.dart</title>
<path fill="none" stroke="#aabbaa" stroke-width="1.3" stroke-opacity="0.533333" d="M798.05,-608.1C990.21,-604.11 1672.99,-584.88 1733,-512 1772.27,-464.31 1776.48,-416.89 1733,-373 1716.36,-356.21 900.03,-380.29 882,-365 842.76,-331.73 876.37,-300.39 862,-251 851.69,-215.55 834.69,-176.6 822.73,-151.08"/>
<polygon fill="#aabbaa" fill-opacity="0.533333" stroke="#aabbaa" stroke-width="1.3" stroke-opacity="0.533333" points="825.93,-149.67 818.47,-142.14 819.61,-152.68 825.93,-149.67"/>
</g>
<!-- /lib/screens/start_screen.dart&#45;&gt;/lib/screens/game_screen.dart -->
<g id="edge21" class="edge">
<title>/lib/screens/start_screen.dart&#45;&gt;/lib/screens/game_screen.dart</title>
<path fill="none" stroke="#aabbaa" stroke-width="1.3" stroke-opacity="0.533333" d="M747.26,-591.7C746.95,-584.49 746.58,-575.93 746.24,-567.82"/>
<polygon fill="#aabbaa" fill-opacity="0.533333" stroke="#aabbaa" stroke-width="1.3" stroke-opacity="0.533333" points="749.74,-567.91 745.82,-558.07 742.75,-568.21 749.74,-567.91"/>
</g>
<!-- /lib/screens/start_screen.dart&#45;&gt;/lib/screens/screen.dart -->
<g id="edge22" class="edge">
<title>/lib/screens/start_screen.dart&#45;&gt;/lib/screens/screen.dart</title>
<path fill="none" stroke="#aabbaa" stroke-width="1.3" stroke-opacity="0.533333" d="M716.08,-591.54C703.31,-582.72 690,-570.73 683,-556 673.42,-535.83 679.76,-510.98 687.76,-492.19"/>
<polygon fill="#aabbaa" fill-opacity="0.533333" stroke="#aabbaa" stroke-width="1.3" stroke-opacity="0.533333" points="690.92,-493.7 691.99,-483.16 684.58,-490.73 690.92,-493.7"/>
</g>
<!-- /lib/widgets/players_in_room_widget.dart -->
<g id="node21" class="node">
<title>/lib/widgets/players_in_room_widget.dart</title>
<path fill="Lavender" stroke="black" stroke-width="1.3" d="M1581.62,-481C1581.62,-481 1428.38,-481 1428.38,-481 1422.38,-481 1416.38,-475 1416.38,-469 1416.38,-469 1416.38,-457 1416.38,-457 1416.38,-451 1422.38,-445 1428.38,-445 1428.38,-445 1581.62,-445 1581.62,-445 1587.62,-445 1593.62,-451 1593.62,-457 1593.62,-457 1593.62,-469 1593.62,-469 1593.62,-475 1587.62,-481 1581.62,-481"/>
<text text-anchor="middle" x="1505" y="-457.75" font-family="Arial" font-size="15.00">players_in_room_widget</text>
</g>
<!-- /lib/screens/start_screen.dart&#45;&gt;/lib/widgets/players_in_room_widget.dart -->
<g id="edge23" class="edge">
<title>/lib/screens/start_screen.dart&#45;&gt;/lib/widgets/players_in_room_widget.dart</title>
<path fill="none" stroke="#aabbaa" stroke-width="1.3" stroke-opacity="0.533333" d="M797.93,-606.9C909.52,-601.08 1186.65,-580.35 1407,-512 1426.93,-505.82 1447.85,-496.07 1465.22,-486.97"/>
<polygon fill="#aabbaa" fill-opacity="0.533333" stroke="#aabbaa" stroke-width="1.3" stroke-opacity="0.533333" points="1466.65,-490.17 1473.8,-482.36 1463.34,-484.01 1466.65,-490.17"/>
</g>
<!-- /lib/widgets/rooms_widget.dart -->
<g id="node23" class="node">
<title>/lib/widgets/rooms_widget.dart</title>
<path fill="Lavender" stroke="black" stroke-width="1.3" d="M1708.5,-481C1708.5,-481 1623.5,-481 1623.5,-481 1617.5,-481 1611.5,-475 1611.5,-469 1611.5,-469 1611.5,-457 1611.5,-457 1611.5,-451 1617.5,-445 1623.5,-445 1623.5,-445 1708.5,-445 1708.5,-445 1714.5,-445 1720.5,-451 1720.5,-457 1720.5,-457 1720.5,-469 1720.5,-469 1720.5,-475 1714.5,-481 1708.5,-481"/>
<text text-anchor="middle" x="1666" y="-457.75" font-family="Arial" font-size="15.00">rooms_widget</text>
</g>
<!-- /lib/screens/start_screen.dart&#45;&gt;/lib/widgets/rooms_widget.dart -->
<g id="edge24" class="edge">
<title>/lib/screens/start_screen.dart&#45;&gt;/lib/widgets/rooms_widget.dart</title>
<path fill="none" stroke="#aabbaa" stroke-width="1.3" stroke-opacity="0.533333" d="M797.88,-607.03C957.79,-600.13 1455.8,-574.08 1603,-512 1616,-506.52 1628.7,-497.72 1639.25,-489.15"/>
<polygon fill="#aabbaa" fill-opacity="0.533333" stroke="#aabbaa" stroke-width="1.3" stroke-opacity="0.533333" points="1641.45,-491.87 1646.78,-482.71 1636.91,-486.54 1641.45,-491.87"/>
</g>
<!-- /lib/main.dart -->
<g id="node14" class="node">
<title>/lib/main.dart</title>
<path fill="Lavender" stroke="black" stroke-width="1.3" d="M763,-703C763,-703 733,-703 733,-703 727,-703 721,-697 721,-691 721,-691 721,-679 721,-679 721,-673 727,-667 733,-667 733,-667 763,-667 763,-667 769,-667 775,-673 775,-679 775,-679 775,-691 775,-691 775,-697 769,-703 763,-703"/>
<text text-anchor="middle" x="748" y="-679.75" font-family="Arial" font-size="15.00">main</text>
</g>
<!-- /lib/main.dart&#45;&gt;/lib/screens/start_screen.dart -->
<g id="edge25" class="edge">
<title>/lib/main.dart&#45;&gt;/lib/screens/start_screen.dart</title>
<path fill="none" stroke="#aabbaa" stroke-width="1.3" stroke-opacity="0.533333" d="M748,-666.7C748,-658.76 748,-649.12 748,-640.11"/>
<polygon fill="#aabbaa" fill-opacity="0.533333" stroke="#aabbaa" stroke-width="1.3" stroke-opacity="0.533333" points="751.5,-640.4 748,-630.4 744.5,-640.4 751.5,-640.4"/>
</g>
<!-- /lib/widgets/player_zone_cta_widget.dart -->
<g id="node15" class="node">
<title>/lib/widgets/player_zone_cta_widget.dart</title>
<path fill="Lavender" stroke="black" stroke-width="1.3" d="M1086.25,-409C1086.25,-409 933.75,-409 933.75,-409 927.75,-409 921.75,-403 921.75,-397 921.75,-397 921.75,-385 921.75,-385 921.75,-379 927.75,-373 933.75,-373 933.75,-373 1086.25,-373 1086.25,-373 1092.25,-373 1098.25,-379 1098.25,-385 1098.25,-385 1098.25,-397 1098.25,-397 1098.25,-403 1092.25,-409 1086.25,-409"/>
<text text-anchor="middle" x="1010" y="-385.75" font-family="Arial" font-size="15.00">player_zone_cta_widget</text>
</g>
<!-- /lib/widgets/player_zone_cta_widget.dart&#45;&gt;/lib/models/game_model.dart -->
<g id="edge26" class="edge">
<title>/lib/widgets/player_zone_cta_widget.dart&#45;&gt;/lib/models/game_model.dart</title>
<path fill="none" stroke="#aabbaa" stroke-width="1.3" stroke-opacity="0.533333" d="M921.32,-381.48C899.49,-377.74 880.04,-372.44 872,-365 833.54,-329.43 872.33,-293.72 842,-251 832.78,-238.01 819.52,-227.14 806.3,-218.55"/>
<polygon fill="#aabbaa" fill-opacity="0.533333" stroke="#aabbaa" stroke-width="1.3" stroke-opacity="0.533333" points="808.31,-215.67 797.95,-213.44 804.66,-221.64 808.31,-215.67"/>
</g>
<!-- /lib/widgets/card_pile_widget.dart -->
<g id="node16" class="node">
<title>/lib/widgets/card_pile_widget.dart</title>
<path fill="Lavender" stroke="black" stroke-width="1.3" d="M1035.5,-212C1035.5,-212 932.5,-212 932.5,-212 926.5,-212 920.5,-206 920.5,-200 920.5,-200 920.5,-188 920.5,-188 920.5,-182 926.5,-176 932.5,-176 932.5,-176 1035.5,-176 1035.5,-176 1041.5,-176 1047.5,-182 1047.5,-188 1047.5,-188 1047.5,-200 1047.5,-200 1047.5,-206 1041.5,-212 1035.5,-212"/>
<text text-anchor="middle" x="984" y="-188.75" font-family="Arial" font-size="15.00">card_pile_widget</text>
</g>
<!-- /lib/widgets/player_zone_cta_widget.dart&#45;&gt;/lib/widgets/card_pile_widget.dart -->
<g id="edge27" class="edge">
<title>/lib/widgets/player_zone_cta_widget.dart&#45;&gt;/lib/widgets/card_pile_widget.dart</title>
<path fill="none" stroke="#aabbaa" stroke-width="1.3" stroke-opacity="0.533333" d="M1033.96,-372.74C1035.97,-370.37 1037.73,-367.78 1039,-365 1060.11,-318.94 1058.18,-297.9 1039,-251 1034.28,-239.46 1025.91,-229.01 1017.1,-220.36"/>
<polygon fill="#aabbaa" fill-opacity="0.533333" stroke="#aabbaa" stroke-width="1.3" stroke-opacity="0.533333" points="1019.47,-217.78 1009.72,-213.64 1014.76,-222.96 1019.47,-217.78"/>
</g>
<!-- /lib/widgets/card_widget.dart -->
<g id="node18" class="node">
<title>/lib/widgets/card_widget.dart</title>
<path fill="Lavender" stroke="black" stroke-width="1.3" d="M1079.12,-140C1079.12,-140 1006.88,-140 1006.88,-140 1000.88,-140 994.88,-134 994.88,-128 994.88,-128 994.88,-116 994.88,-116 994.88,-110 1000.88,-104 1006.88,-104 1006.88,-104 1079.12,-104 1079.12,-104 1085.12,-104 1091.12,-110 1091.12,-116 1091.12,-116 1091.12,-128 1091.12,-128 1091.12,-134 1085.12,-140 1079.12,-140"/>
<text text-anchor="middle" x="1043" y="-116.75" font-family="Arial" font-size="15.00">card_widget</text>
</g>
<!-- /lib/widgets/player_zone_cta_widget.dart&#45;&gt;/lib/widgets/card_widget.dart -->
<g id="edge29" class="edge">
<title>/lib/widgets/player_zone_cta_widget.dart&#45;&gt;/lib/widgets/card_widget.dart</title>
<path fill="none" stroke="#aabbaa" stroke-width="1.3" stroke-opacity="0.533333" d="M1045.91,-372.52C1048.26,-370.27 1050.35,-367.77 1052,-365 1092.28,-297.41 1068.86,-199.32 1053.35,-151.44"/>
<polygon fill="#aabbaa" fill-opacity="0.533333" stroke="#aabbaa" stroke-width="1.3" stroke-opacity="0.533333" points="1056.76,-150.61 1050.25,-142.26 1050.13,-152.85 1056.76,-150.61"/>
</g>
<!-- /lib/widgets/card_piles_widget.dart -->
<g id="node25" class="node">
<title>/lib/widgets/card_piles_widget.dart</title>
<path fill="Lavender" stroke="black" stroke-width="1.3" d="M1018.25,-303C1018.25,-303 907.75,-303 907.75,-303 901.75,-303 895.75,-297 895.75,-291 895.75,-291 895.75,-279 895.75,-279 895.75,-273 901.75,-267 907.75,-267 907.75,-267 1018.25,-267 1018.25,-267 1024.25,-267 1030.25,-273 1030.25,-279 1030.25,-279 1030.25,-291 1030.25,-291 1030.25,-297 1024.25,-303 1018.25,-303"/>
<text text-anchor="middle" x="963" y="-279.75" font-family="Arial" font-size="15.00">card_piles_widget</text>
</g>
<!-- /lib/widgets/player_zone_cta_widget.dart&#45;&gt;/lib/widgets/card_piles_widget.dart -->
<g id="edge28" class="edge">
<title>/lib/widgets/player_zone_cta_widget.dart&#45;&gt;/lib/widgets/card_piles_widget.dart</title>
<path fill="none" stroke="#aabbaa" stroke-width="1.3" stroke-opacity="0.533333" d="M1002.24,-372.83C995.03,-356.87 984.16,-332.81 975.68,-314.07"/>
<polygon fill="#aabbaa" fill-opacity="0.533333" stroke="#aabbaa" stroke-width="1.3" stroke-opacity="0.533333" points="978.89,-312.66 971.58,-304.99 972.51,-315.55 978.89,-312.66"/>
</g>
<!-- /lib/widgets/card_pile_widget.dart&#45;&gt;/lib/models/card_model.dart -->
<g id="edge30" class="edge">
<title>/lib/widgets/card_pile_widget.dart&#45;&gt;/lib/models/card_model.dart</title>
<path fill="none" stroke="#aabbaa" stroke-width="1.3" stroke-opacity="0.533333" d="M973.52,-175.59C960.24,-155.11 935.36,-121.66 905,-104 841.37,-66.99 812.55,-85.3 737.67,-68.42"/>
<polygon fill="#aabbaa" fill-opacity="0.533333" stroke="#aabbaa" stroke-width="1.3" stroke-opacity="0.533333" points="738.73,-65.08 728.19,-66.13 737.08,-71.88 738.73,-65.08"/>
</g>
<!-- /lib/widgets/card_pile_widget.dart&#45;&gt;/lib/widgets/card_widget.dart -->
<g id="edge31" class="edge">
<title>/lib/widgets/card_pile_widget.dart&#45;&gt;/lib/widgets/card_widget.dart</title>
<path fill="none" stroke="#aabbaa" stroke-width="1.3" stroke-opacity="0.533333" d="M998.58,-175.7C1005.37,-167.64 1013.59,-157.89 1021.1,-148.98"/>
<polygon fill="#aabbaa" fill-opacity="0.533333" stroke="#aabbaa" stroke-width="1.3" stroke-opacity="0.533333" points="1023.55,-151.51 1027.32,-141.61 1018.19,-147 1023.55,-151.51"/>
</g>
<!-- /lib/widgets/table_surface_painter.dart -->
<g id="node17" class="node">
<title>/lib/widgets/table_surface_painter.dart</title>
<path fill="Lavender" stroke="black" stroke-width="1.3" d="M1042,-481C1042,-481 906,-481 906,-481 900,-481 894,-475 894,-469 894,-469 894,-457 894,-457 894,-451 900,-445 906,-445 906,-445 1042,-445 1042,-445 1048,-445 1054,-451 1054,-457 1054,-457 1054,-469 1054,-469 1054,-475 1048,-481 1042,-481"/>
<text text-anchor="middle" x="974" y="-457.75" font-family="Arial" font-size="15.00">table_surface_painter</text>
</g>
<!-- /lib/widgets/card_widget.dart&#45;&gt;/lib/models/card_model.dart -->
<g id="edge32" class="edge">
<title>/lib/widgets/card_widget.dart&#45;&gt;/lib/models/card_model.dart</title>
<path fill="none" stroke="#aabbaa" stroke-width="1.3" stroke-opacity="0.533333" d="M994.73,-111.29C982.14,-108.83 968.57,-106.25 956,-104 861.68,-87.11 833.98,-90.23 737.68,-68.45"/>
<polygon fill="#aabbaa" fill-opacity="0.533333" stroke="#aabbaa" stroke-width="1.3" stroke-opacity="0.533333" points="738.68,-65.09 728.15,-66.26 737.12,-71.92 738.68,-65.09"/>
</g>
<!-- /lib/widgets/wiggle_widget.dart -->
<g id="node20" class="node">
<title>/lib/widgets/wiggle_widget.dart</title>
<path fill="Lavender" stroke="black" stroke-width="1.3" d="M1085.12,-68C1085.12,-68 1000.88,-68 1000.88,-68 994.88,-68 988.88,-62 988.88,-56 988.88,-56 988.88,-44 988.88,-44 988.88,-38 994.88,-32 1000.88,-32 1000.88,-32 1085.12,-32 1085.12,-32 1091.12,-32 1097.12,-38 1097.12,-44 1097.12,-44 1097.12,-56 1097.12,-56 1097.12,-62 1091.12,-68 1085.12,-68"/>
<text text-anchor="middle" x="1043" y="-44.75" font-family="Arial" font-size="15.00">wiggle_widget</text>
</g>
<!-- /lib/widgets/card_widget.dart&#45;&gt;/lib/widgets/wiggle_widget.dart -->
<g id="edge33" class="edge">
<title>/lib/widgets/card_widget.dart&#45;&gt;/lib/widgets/wiggle_widget.dart</title>
<path fill="none" stroke="#aabbaa" stroke-width="1.3" stroke-opacity="0.533333" d="M1043,-103.7C1043,-96.49 1043,-87.93 1043,-79.82"/>
<polygon fill="#aabbaa" fill-opacity="0.533333" stroke="#aabbaa" stroke-width="1.3" stroke-opacity="0.533333" points="1046.5,-80.07 1043,-70.07 1039.5,-80.07 1046.5,-80.07"/>
</g>
<!-- /lib/widgets/player_header_widget.dart -->
<g id="node19" class="node">
<title>/lib/widgets/player_header_widget.dart</title>
<path fill="Lavender" stroke="black" stroke-width="1.3" d="M1286.12,-409C1286.12,-409 1147.88,-409 1147.88,-409 1141.88,-409 1135.88,-403 1135.88,-397 1135.88,-397 1135.88,-385 1135.88,-385 1135.88,-379 1141.88,-373 1147.88,-373 1147.88,-373 1286.12,-373 1286.12,-373 1292.12,-373 1298.12,-379 1298.12,-385 1298.12,-385 1298.12,-397 1298.12,-397 1298.12,-403 1292.12,-409 1286.12,-409"/>
<text text-anchor="middle" x="1217" y="-385.75" font-family="Arial" font-size="15.00">player_header_widget</text>
</g>
<!-- /lib/widgets/text_edit_with_submit.dart -->
<g id="node22" class="node">
<title>/lib/widgets/text_edit_with_submit.dart</title>
<path fill="Lavender" stroke="black" stroke-width="1.3" d="M1386,-481C1386,-481 1250,-481 1250,-481 1244,-481 1238,-475 1238,-469 1238,-469 1238,-457 1238,-457 1238,-451 1244,-445 1250,-445 1250,-445 1386,-445 1386,-445 1392,-445 1398,-451 1398,-457 1398,-457 1398,-469 1398,-469 1398,-475 1392,-481 1386,-481"/>
<text text-anchor="middle" x="1318" y="-457.75" font-family="Arial" font-size="15.00">text_edit_with_submit</text>
</g>
<!-- /lib/widgets/player_zone_widget.dart&#45;&gt;/lib/models/game_model.dart -->
<g id="edge34" class="edge">
<title>/lib/widgets/player_zone_widget.dart&#45;&gt;/lib/models/game_model.dart</title>
<path fill="none" stroke="#aabbaa" stroke-width="1.3" stroke-opacity="0.533333" d="M1091.31,-444.62C1081.92,-441.89 1072.21,-439.24 1063,-437 962.62,-412.59 899.89,-450.56 842,-365 813.17,-322.39 847.06,-295.92 822,-251 815.39,-239.16 805.32,-228.56 795.15,-219.84"/>
<polygon fill="#aabbaa" fill-opacity="0.533333" stroke="#aabbaa" stroke-width="1.3" stroke-opacity="0.533333" points="797.4,-217.16 787.42,-213.63 793.02,-222.62 797.4,-217.16"/>
</g>
<!-- /lib/widgets/player_zone_widget.dart&#45;&gt;/lib/widgets/player_zone_cta_widget.dart -->
<g id="edge37" class="edge">
<title>/lib/widgets/player_zone_widget.dart&#45;&gt;/lib/widgets/player_zone_cta_widget.dart</title>
<path fill="none" stroke="#aabbaa" stroke-width="1.3" stroke-opacity="0.533333" d="M1112.03,-444.52C1094.46,-435.47 1072.79,-424.32 1053.96,-414.62"/>
<polygon fill="#aabbaa" fill-opacity="0.533333" stroke="#aabbaa" stroke-width="1.3" stroke-opacity="0.533333" points="1055.78,-411.63 1045.28,-410.16 1052.57,-417.85 1055.78,-411.63"/>
</g>
<!-- /lib/widgets/player_zone_widget.dart&#45;&gt;/lib/widgets/card_widget.dart -->
<g id="edge35" class="edge">
<title>/lib/widgets/player_zone_widget.dart&#45;&gt;/lib/widgets/card_widget.dart</title>
<path fill="none" stroke="#aabbaa" stroke-width="1.3" stroke-opacity="0.533333" d="M1139.35,-444.98C1135.45,-434.66 1130.61,-421.18 1127,-409 1096.78,-306.98 1110.1,-275.35 1072,-176 1068.69,-167.38 1064.23,-158.43 1059.81,-150.38"/>
<polygon fill="#aabbaa" fill-opacity="0.533333" stroke="#aabbaa" stroke-width="1.3" stroke-opacity="0.533333" points="1062.89,-148.73 1054.87,-141.8 1056.82,-152.22 1062.89,-148.73"/>
</g>
<!-- /lib/widgets/player_zone_widget.dart&#45;&gt;/lib/widgets/player_header_widget.dart -->
<g id="edge36" class="edge">
<title>/lib/widgets/player_zone_widget.dart&#45;&gt;/lib/widgets/player_header_widget.dart</title>
<path fill="none" stroke="#aabbaa" stroke-width="1.3" stroke-opacity="0.533333" d="M1163.55,-444.7C1171.89,-436.47 1182.02,-426.48 1191.22,-417.42"/>
<polygon fill="#aabbaa" fill-opacity="0.533333" stroke="#aabbaa" stroke-width="1.3" stroke-opacity="0.533333" points="1193.59,-420 1198.25,-410.49 1188.67,-415.01 1193.59,-420"/>
</g>
<!-- /lib/widgets/card_piles_widget.dart&#45;&gt;/lib/models/card_model.dart -->
<g id="edge38" class="edge">
<title>/lib/widgets/card_piles_widget.dart&#45;&gt;/lib/models/card_model.dart</title>
<path fill="none" stroke="#aabbaa" stroke-width="1.3" stroke-opacity="0.533333" d="M934.7,-266.57C926.27,-260.12 917.76,-252.12 912,-243 878.09,-189.32 923.63,-149.16 879,-104 835.17,-59.64 802.34,-82.69 737.83,-68.42"/>
<polygon fill="#aabbaa" fill-opacity="0.533333" stroke="#aabbaa" stroke-width="1.3" stroke-opacity="0.533333" points="738.77,-65.04 728.22,-66.02 737.07,-71.83 738.77,-65.04"/>
</g>
<!-- /lib/widgets/card_piles_widget.dart&#45;&gt;/lib/widgets/card_pile_widget.dart -->
<g id="edge39" class="edge">
<title>/lib/widgets/card_piles_widget.dart&#45;&gt;/lib/widgets/card_pile_widget.dart</title>
<path fill="none" stroke="#aabbaa" stroke-width="1.3" stroke-opacity="0.533333" d="M967.05,-266.84C969.94,-254.61 973.88,-237.87 977.24,-223.63"/>
<polygon fill="#aabbaa" fill-opacity="0.533333" stroke="#aabbaa" stroke-width="1.3" stroke-opacity="0.533333" points="980.55,-224.86 979.44,-214.33 973.74,-223.26 980.55,-224.86"/>
</g>
</g>
</svg>
