<?xml version="1.0" encoding="UTF-8" standalone="no"?>
<!DOCTYPE svg PUBLIC "-//W3C//DTD SVG 1.1//EN"
 "http://www.w3.org/Graphics/SVG/1.1/DTD/svg11.dtd">
<!-- Generated by graphviz version 12.1.2 (20240928.0832)
 -->
<!-- Pages: 1 -->
<svg width="1167pt" height="595pt"
 viewBox="0.00 0.00 1167.00 595.00" xmlns="http://www.w3.org/2000/svg" xmlns:xlink="http://www.w3.org/1999/xlink">
<g id="graph0" class="graph" transform="scale(1 1) rotate(0) translate(4 591)">
<polygon fill="white" stroke="none" points="-4,4 -4,-591 1163,-591 1163,4 -4,4"/>
<g id="clust1" class="cluster">
<title>cluster~</title>
<path fill="none" stroke="lightgray" stroke-width="2.6" d="M20,-8C20,-8 1139,-8 1139,-8 1145,-8 1151,-14 1151,-20 1151,-20 1151,-567 1151,-567 1151,-573 1145,-579 1139,-579 1139,-579 20,-579 20,-579 14,-579 8,-573 8,-567 8,-567 8,-20 8,-20 8,-14 14,-8 20,-8"/>
<text text-anchor="middle" x="579.5" y="-562.65" font-family="Arial Black" font-size="13.00">cards</text>
</g>
<g id="clust2" class="cluster">
<title>cluster~/test</title>
<path fill="none" stroke="lightgray" stroke-width="2.6" d="M28,-473C28,-473 112,-473 112,-473 118,-473 124,-479 124,-485 124,-485 124,-536 124,-536 124,-542 118,-548 112,-548 112,-548 28,-548 28,-548 22,-548 16,-542 16,-536 16,-536 16,-485 16,-485 16,-479 22,-473 28,-473"/>
<text text-anchor="middle" x="70" y="-531.65" font-family="Arial Black" font-size="13.00">test</text>
</g>
<g id="clust3" class="cluster">
<title>cluster~/lib</title>
<path fill="none" stroke="lightgray" stroke-width="2.6" d="M144,-16C144,-16 1131,-16 1131,-16 1137,-16 1143,-22 1143,-28 1143,-28 1143,-536 1143,-536 1143,-542 1137,-548 1131,-548 1131,-548 144,-548 144,-548 138,-548 132,-542 132,-536 132,-536 132,-28 132,-28 132,-22 138,-16 144,-16"/>
<text text-anchor="middle" x="637.5" y="-531.65" font-family="Arial Black" font-size="13.00">lib</text>
</g>
<g id="clust4" class="cluster">
<title>cluster~/lib/models</title>
<path fill="none" stroke="lightgray" stroke-width="2.6" d="M580,-168C580,-168 674,-168 674,-168 680,-168 686,-174 686,-180 686,-180 686,-303 686,-303 686,-309 680,-315 674,-315 674,-315 580,-315 580,-315 574,-315 568,-309 568,-303 568,-303 568,-180 568,-180 568,-174 574,-168 580,-168"/>
<text text-anchor="middle" x="627" y="-298.65" font-family="Arial Black" font-size="13.00">models</text>
</g>
<g id="clust5" class="cluster">
<title>cluster~/lib/screens</title>
<path fill="none" stroke="lightgray" stroke-width="2.6" d="M288,-240C288,-240 548,-240 548,-240 554,-240 560,-246 560,-252 560,-252 560,-453 560,-453 560,-459 554,-465 548,-465 548,-465 288,-465 288,-465 282,-465 276,-459 276,-453 276,-453 276,-252 276,-252 276,-246 282,-240 288,-240"/>
<text text-anchor="middle" x="418" y="-448.65" font-family="Arial Black" font-size="13.00">screens</text>
</g>
<g id="clust6" class="cluster">
<title>cluster~/lib/widgets</title>
<path fill="none" stroke="lightgray" stroke-width="2.6" d="M718,-24C718,-24 1123,-24 1123,-24 1129,-24 1135,-30 1135,-36 1135,-36 1135,-378 1135,-378 1135,-384 1129,-390 1123,-390 1123,-390 718,-390 718,-390 712,-390 706,-384 706,-378 706,-378 706,-36 706,-36 706,-30 712,-24 718,-24"/>
<text text-anchor="middle" x="920.5" y="-373.65" font-family="Arial Black" font-size="13.00">widgets</text>
</g>
<!-- /test/widget_test.dart -->
<g id="node1" class="node">
<title>/test/widget_test.dart</title>
<path fill="Lavender" stroke="black" stroke-width="1.3" d="M103.88,-517C103.88,-517 36.12,-517 36.12,-517 30.12,-517 24.12,-511 24.12,-505 24.12,-505 24.12,-493 24.12,-493 24.12,-487 30.12,-481 36.12,-481 36.12,-481 103.88,-481 103.88,-481 109.88,-481 115.88,-487 115.88,-493 115.88,-493 115.88,-505 115.88,-505 115.88,-511 109.88,-517 103.88,-517"/>
<text text-anchor="middle" x="70" y="-493.75" font-family="Arial" font-size="15.00">widget_test</text>
</g>
<!-- /lib/firebase_options.dart -->
<g id="node2" class="node">
<title>/lib/firebase_options.dart</title>
<path fill="Lavender" stroke="black" stroke-width="1.3" d="M253.75,-434C253.75,-434 152.25,-434 152.25,-434 146.25,-434 140.25,-428 140.25,-422 140.25,-422 140.25,-410 140.25,-410 140.25,-404 146.25,-398 152.25,-398 152.25,-398 253.75,-398 253.75,-398 259.75,-398 265.75,-404 265.75,-410 265.75,-410 265.75,-422 265.75,-422 265.75,-428 259.75,-434 253.75,-434"/>
<text text-anchor="middle" x="203" y="-410.75" font-family="Arial" font-size="15.00">firebase_options</text>
</g>
<!-- /lib/models/game_model.dart -->
<g id="node3" class="node">
<title>/lib/models/game_model.dart</title>
<path fill="Lavender" stroke="black" stroke-width="1.3" d="M666.12,-284C666.12,-284 587.88,-284 587.88,-284 581.88,-284 575.88,-278 575.88,-272 575.88,-272 575.88,-260 575.88,-260 575.88,-254 581.88,-248 587.88,-248 587.88,-248 666.12,-248 666.12,-248 672.12,-248 678.12,-254 678.12,-260 678.12,-260 678.12,-272 678.12,-272 678.12,-278 672.12,-284 666.12,-284"/>
<text text-anchor="middle" x="627" y="-260.75" font-family="Arial" font-size="15.00">game_model</text>
</g>
<!-- /lib/models/player.dart -->
<g id="node4" class="node">
<title>/lib/models/player.dart</title>
<path fill="Lavender" stroke="black" stroke-width="1.3" d="M666.25,-212C666.25,-212 633.75,-212 633.75,-212 627.75,-212 621.75,-206 621.75,-200 621.75,-200 621.75,-188 621.75,-188 621.75,-182 627.75,-176 633.75,-176 633.75,-176 666.25,-176 666.25,-176 672.25,-176 678.25,-182 678.25,-188 678.25,-188 678.25,-200 678.25,-200 678.25,-206 672.25,-212 666.25,-212"/>
<text text-anchor="middle" x="650" y="-188.75" font-family="Arial" font-size="15.00">player</text>
</g>
<!-- /lib/models/game_model.dart&#45;&gt;/lib/models/player.dart -->
<g id="edge1" class="edge">
<title>/lib/models/game_model.dart&#45;&gt;/lib/models/player.dart</title>
<path fill="none" stroke="#aabbaa" stroke-width="1.3" stroke-opacity="0.533333" d="M632.69,-247.7C635.11,-240.32 638,-231.52 640.72,-223.25"/>
<polygon fill="#aabbaa" fill-opacity="0.533333" stroke="#aabbaa" stroke-width="1.3" stroke-opacity="0.533333" points="643.97,-224.57 643.77,-213.97 637.32,-222.38 643.97,-224.57"/>
</g>
<!-- /lib/screens/game_over_screen.dart -->
<g id="node6" class="node">
<title>/lib/screens/game_over_screen.dart</title>
<path fill="Lavender" stroke="black" stroke-width="1.3" d="M540.12,-434C540.12,-434 419.88,-434 419.88,-434 413.88,-434 407.88,-428 407.88,-422 407.88,-422 407.88,-410 407.88,-410 407.88,-404 413.88,-398 419.88,-398 419.88,-398 540.12,-398 540.12,-398 546.12,-398 552.12,-404 552.12,-410 552.12,-410 552.12,-422 552.12,-422 552.12,-428 546.12,-434 540.12,-434"/>
<text text-anchor="middle" x="480" y="-410.75" font-family="Arial" font-size="15.00">game_over_screen</text>
</g>
<!-- /lib/models/game_model.dart&#45;&gt;/lib/screens/game_over_screen.dart -->
<g id="edge2" class="edge">
<title>/lib/models/game_model.dart&#45;&gt;/lib/screens/game_over_screen.dart</title>
<path fill="none" stroke="#aabbaa" stroke-width="1.3" stroke-opacity="0.533333" d="M620.87,-284.29C610.64,-310.76 587.63,-361.27 552,-390 551.45,-390.44 550.9,-390.88 550.33,-391.3"/>
<polygon fill="#aabbaa" fill-opacity="0.533333" stroke="#aabbaa" stroke-width="1.3" stroke-opacity="0.533333" points="548.78,-388.14 542.28,-396.51 552.58,-394.02 548.78,-388.14"/>
</g>
<!-- /lib/widgets/playing_card.dart -->
<g id="node17" class="node">
<title>/lib/widgets/playing_card.dart</title>
<path fill="Lavender" stroke="black" stroke-width="1.3" d="M828,-68C828,-68 752,-68 752,-68 746,-68 740,-62 740,-56 740,-56 740,-44 740,-44 740,-38 746,-32 752,-32 752,-32 828,-32 828,-32 834,-32 840,-38 840,-44 840,-44 840,-56 840,-56 840,-62 834,-68 828,-68"/>
<text text-anchor="middle" x="790" y="-44.75" font-family="Arial" font-size="15.00">playing_card</text>
</g>
<!-- /lib/models/game_model.dart&#45;&gt;/lib/widgets/playing_card.dart -->
<g id="edge3" class="edge">
<title>/lib/models/game_model.dart&#45;&gt;/lib/widgets/playing_card.dart</title>
<path fill="none" stroke="#aabbaa" stroke-width="1.3" stroke-opacity="0.533333" d="M619.23,-247.53C611.54,-227.59 602.33,-194.34 613,-168 632.78,-119.16 685.72,-88.37 728.59,-70.71"/>
<polygon fill="#aabbaa" fill-opacity="0.533333" stroke="#aabbaa" stroke-width="1.3" stroke-opacity="0.533333" points="729.68,-74.04 737.69,-67.11 727.11,-67.53 729.68,-74.04"/>
</g>
<!-- /lib/models/player.dart&#45;&gt;/lib/widgets/playing_card.dart -->
<g id="edge4" class="edge">
<title>/lib/models/player.dart&#45;&gt;/lib/widgets/playing_card.dart</title>
<path fill="none" stroke="#aabbaa" stroke-width="1.3" stroke-opacity="0.533333" d="M657.96,-175.68C667.4,-156.5 684.58,-125.44 706,-104 717.36,-92.62 731.59,-82.51 745.09,-74.24"/>
<polygon fill="#aabbaa" fill-opacity="0.533333" stroke="#aabbaa" stroke-width="1.3" stroke-opacity="0.533333" points="746.67,-77.37 753.51,-69.28 743.12,-71.33 746.67,-77.37"/>
</g>
<!-- /lib/screens/game_screen.dart -->
<g id="node5" class="node">
<title>/lib/screens/game_screen.dart</title>
<path fill="Lavender" stroke="black" stroke-width="1.3" d="M495.38,-359C495.38,-359 412.62,-359 412.62,-359 406.62,-359 400.62,-353 400.62,-347 400.62,-347 400.62,-335 400.62,-335 400.62,-329 406.62,-323 412.62,-323 412.62,-323 495.38,-323 495.38,-323 501.38,-323 507.38,-329 507.38,-335 507.38,-335 507.38,-347 507.38,-347 507.38,-353 501.38,-359 495.38,-359"/>
<text text-anchor="middle" x="454" y="-335.75" font-family="Arial" font-size="15.00">game_screen</text>
</g>
<!-- /lib/screens/game_screen.dart&#45;&gt;/lib/models/game_model.dart -->
<g id="edge7" class="edge">
<title>/lib/screens/game_screen.dart&#45;&gt;/lib/models/game_model.dart</title>
<path fill="none" stroke="#aabbaa" stroke-width="1.3" stroke-opacity="0.533333" d="M507.77,-330C530.36,-325.35 553.75,-319.79 564,-315 576.59,-309.12 589.06,-300.4 599.54,-292"/>
<polygon fill="#aabbaa" fill-opacity="0.533333" stroke="#aabbaa" stroke-width="1.3" stroke-opacity="0.533333" points="601.61,-294.83 607.04,-285.73 597.12,-289.45 601.61,-294.83"/>
</g>
<!-- /lib/screens/screen.dart -->
<g id="node8" class="node">
<title>/lib/screens/screen.dart</title>
<path fill="Lavender" stroke="black" stroke-width="1.3" d="M424.5,-284C424.5,-284 387.5,-284 387.5,-284 381.5,-284 375.5,-278 375.5,-272 375.5,-272 375.5,-260 375.5,-260 375.5,-254 381.5,-248 387.5,-248 387.5,-248 424.5,-248 424.5,-248 430.5,-248 436.5,-254 436.5,-260 436.5,-260 436.5,-272 436.5,-272 436.5,-278 430.5,-284 424.5,-284"/>
<text text-anchor="middle" x="406" y="-260.75" font-family="Arial" font-size="15.00">screen</text>
</g>
<!-- /lib/screens/game_screen.dart&#45;&gt;/lib/screens/screen.dart -->
<g id="edge5" class="edge">
<title>/lib/screens/game_screen.dart&#45;&gt;/lib/screens/screen.dart</title>
<path fill="none" stroke="#aabbaa" stroke-width="1.3" stroke-opacity="0.533333" d="M442.62,-322.7C437.05,-314.22 430.2,-303.8 423.93,-294.28"/>
<polygon fill="#aabbaa" fill-opacity="0.533333" stroke="#aabbaa" stroke-width="1.3" stroke-opacity="0.533333" points="426.96,-292.51 418.54,-286.07 421.11,-296.35 426.96,-292.51"/>
</g>
<!-- /lib/widgets/player_zone.dart -->
<g id="node16" class="node">
<title>/lib/widgets/player_zone.dart</title>
<path fill="Lavender" stroke="black" stroke-width="1.3" d="M1031.5,-359C1031.5,-359 958.5,-359 958.5,-359 952.5,-359 946.5,-353 946.5,-347 946.5,-347 946.5,-335 946.5,-335 946.5,-329 952.5,-323 958.5,-323 958.5,-323 1031.5,-323 1031.5,-323 1037.5,-323 1043.5,-329 1043.5,-335 1043.5,-335 1043.5,-347 1043.5,-347 1043.5,-353 1037.5,-359 1031.5,-359"/>
<text text-anchor="middle" x="995" y="-335.75" font-family="Arial" font-size="15.00">player_zone</text>
</g>
<!-- /lib/screens/game_screen.dart&#45;&gt;/lib/widgets/player_zone.dart -->
<g id="edge6" class="edge">
<title>/lib/screens/game_screen.dart&#45;&gt;/lib/widgets/player_zone.dart</title>
<path fill="none" stroke="#aabbaa" stroke-width="1.3" stroke-opacity="0.533333" d="M507.65,-355.39C559.3,-368.45 639.85,-386.74 711,-394 734.99,-396.45 904.41,-399.01 928,-394 944.88,-390.42 960.25,-379.15 972.01,-367.91"/>
<polygon fill="#aabbaa" fill-opacity="0.533333" stroke="#aabbaa" stroke-width="1.3" stroke-opacity="0.533333" points="974.4,-370.47 978.88,-360.87 969.39,-365.58 974.4,-370.47"/>
</g>
<!-- /lib/screens/game_over_screen.dart&#45;&gt;/lib/models/player.dart -->
<g id="edge8" class="edge">
<title>/lib/screens/game_over_screen.dart&#45;&gt;/lib/models/player.dart</title>
<path fill="none" stroke="#aabbaa" stroke-width="1.3" stroke-opacity="0.533333" d="M552.46,-402.82C601.28,-390.2 661.3,-364.95 687,-315 702.25,-285.36 698.24,-271.38 687,-240 684.64,-233.41 680.85,-227.1 676.58,-221.39"/>
<polygon fill="#aabbaa" fill-opacity="0.533333" stroke="#aabbaa" stroke-width="1.3" stroke-opacity="0.533333" points="679.46,-219.37 670.37,-213.93 674.08,-223.85 679.46,-219.37"/>
</g>
<!-- /lib/screens/setup_screen.dart -->
<g id="node7" class="node">
<title>/lib/screens/setup_screen.dart</title>
<path fill="Lavender" stroke="black" stroke-width="1.3" d="M378,-434C378,-434 296,-434 296,-434 290,-434 284,-428 284,-422 284,-422 284,-410 284,-410 284,-404 290,-398 296,-398 296,-398 378,-398 378,-398 384,-398 390,-404 390,-410 390,-410 390,-422 390,-422 390,-428 384,-434 378,-434"/>
<text text-anchor="middle" x="337" y="-410.75" font-family="Arial" font-size="15.00">setup_screen</text>
</g>
<!-- /lib/screens/setup_screen.dart&#45;&gt;/lib/models/game_model.dart -->
<g id="edge9" class="edge">
<title>/lib/screens/setup_screen.dart&#45;&gt;/lib/models/game_model.dart</title>
<path fill="none" stroke="#aabbaa" stroke-width="1.3" stroke-opacity="0.533333" d="M390.28,-399.67C393.22,-399.05 396.14,-398.49 399,-398 424.69,-393.64 494.1,-404.13 516,-390 544.4,-371.67 529.26,-348.01 552,-323 556.31,-318.26 558.78,-318.72 564,-315 574.33,-307.63 585.39,-299.34 595.32,-291.75"/>
<polygon fill="#aabbaa" fill-opacity="0.533333" stroke="#aabbaa" stroke-width="1.3" stroke-opacity="0.533333" points="597.46,-294.53 603.25,-285.65 593.19,-288.98 597.46,-294.53"/>
</g>
<!-- /lib/screens/setup_screen.dart&#45;&gt;/lib/screens/game_screen.dart -->
<g id="edge10" class="edge">
<title>/lib/screens/setup_screen.dart&#45;&gt;/lib/screens/game_screen.dart</title>
<path fill="none" stroke="#aabbaa" stroke-width="1.3" stroke-opacity="0.533333" d="M365.02,-397.51C380.36,-387.94 399.58,-375.95 416.23,-365.57"/>
<polygon fill="#aabbaa" fill-opacity="0.533333" stroke="#aabbaa" stroke-width="1.3" stroke-opacity="0.533333" points="417.9,-368.65 424.53,-360.38 414.2,-362.71 417.9,-368.65"/>
</g>
<!-- /lib/screens/setup_screen.dart&#45;&gt;/lib/screens/screen.dart -->
<g id="edge11" class="edge">
<title>/lib/screens/setup_screen.dart&#45;&gt;/lib/screens/screen.dart</title>
<path fill="none" stroke="#aabbaa" stroke-width="1.3" stroke-opacity="0.533333" d="M345.05,-397.73C356.84,-372.45 378.93,-325.07 393.03,-294.83"/>
<polygon fill="#aabbaa" fill-opacity="0.533333" stroke="#aabbaa" stroke-width="1.3" stroke-opacity="0.533333" points="396.12,-296.48 397.17,-285.94 389.77,-293.52 396.12,-296.48"/>
</g>
<!-- /lib/widgets/list_players.dart -->
<g id="node12" class="node">
<title>/lib/widgets/list_players.dart</title>
<path fill="Lavender" stroke="black" stroke-width="1.3" d="M792.12,-359C792.12,-359 725.88,-359 725.88,-359 719.88,-359 713.88,-353 713.88,-347 713.88,-347 713.88,-335 713.88,-335 713.88,-329 719.88,-323 725.88,-323 725.88,-323 792.12,-323 792.12,-323 798.12,-323 804.12,-329 804.12,-335 804.12,-335 804.12,-347 804.12,-347 804.12,-353 798.12,-359 792.12,-359"/>
<text text-anchor="middle" x="759" y="-335.75" font-family="Arial" font-size="15.00">list_players</text>
</g>
<!-- /lib/screens/setup_screen.dart&#45;&gt;/lib/widgets/list_players.dart -->
<g id="edge12" class="edge">
<title>/lib/screens/setup_screen.dart&#45;&gt;/lib/widgets/list_players.dart</title>
<path fill="none" stroke="#aabbaa" stroke-width="1.3" stroke-opacity="0.533333" d="M390.27,-399.6C393.21,-399 396.13,-398.46 399,-398 471.5,-386.45 491.35,-400.6 564,-390 611.05,-383.13 663.32,-369.96 701.89,-359.15"/>
<polygon fill="#aabbaa" fill-opacity="0.533333" stroke="#aabbaa" stroke-width="1.3" stroke-opacity="0.533333" points="702.84,-362.51 711.5,-356.41 700.93,-355.78 702.84,-362.51"/>
</g>
<!-- /lib/widgets/text_url.dart -->
<g id="node21" class="node">
<title>/lib/widgets/text_url.dart</title>
<path fill="Lavender" stroke="black" stroke-width="1.3" d="M1114.75,-359C1114.75,-359 1073.25,-359 1073.25,-359 1067.25,-359 1061.25,-353 1061.25,-347 1061.25,-347 1061.25,-335 1061.25,-335 1061.25,-329 1067.25,-323 1073.25,-323 1073.25,-323 1114.75,-323 1114.75,-323 1120.75,-323 1126.75,-329 1126.75,-335 1126.75,-335 1126.75,-347 1126.75,-347 1126.75,-353 1120.75,-359 1114.75,-359"/>
<text text-anchor="middle" x="1094" y="-335.75" font-family="Arial" font-size="15.00">text_url</text>
</g>
<!-- /lib/screens/setup_screen.dart&#45;&gt;/lib/widgets/text_url.dart -->
<g id="edge13" class="edge">
<title>/lib/screens/setup_screen.dart&#45;&gt;/lib/widgets/text_url.dart</title>
<path fill="none" stroke="#aabbaa" stroke-width="1.3" stroke-opacity="0.533333" d="M390.25,-399.47C393.2,-398.9 396.13,-398.4 399,-398 416.99,-395.47 1036.55,-397.71 1053,-390 1062.84,-385.39 1071.21,-377.15 1077.78,-368.78"/>
<polygon fill="#aabbaa" fill-opacity="0.533333" stroke="#aabbaa" stroke-width="1.3" stroke-opacity="0.533333" points="1080.57,-370.89 1083.49,-360.71 1074.85,-366.85 1080.57,-370.89"/>
</g>
<!-- /lib/main.dart -->
<g id="node9" class="node">
<title>/lib/main.dart</title>
<path fill="Lavender" stroke="black" stroke-width="1.3" d="M285,-517C285,-517 255,-517 255,-517 249,-517 243,-511 243,-505 243,-505 243,-493 243,-493 243,-487 249,-481 255,-481 255,-481 285,-481 285,-481 291,-481 297,-487 297,-493 297,-493 297,-505 297,-505 297,-511 291,-517 285,-517"/>
<text text-anchor="middle" x="270" y="-493.75" font-family="Arial" font-size="15.00">main</text>
</g>
<!-- /lib/main.dart&#45;&gt;/lib/firebase_options.dart -->
<g id="edge14" class="edge">
<title>/lib/main.dart&#45;&gt;/lib/firebase_options.dart</title>
<path fill="none" stroke="#aabbaa" stroke-width="1.3" stroke-opacity="0.533333" d="M255.79,-480.82C246.79,-469.94 234.97,-455.66 224.8,-443.36"/>
<polygon fill="#aabbaa" fill-opacity="0.533333" stroke="#aabbaa" stroke-width="1.3" stroke-opacity="0.533333" points="227.74,-441.42 218.67,-435.95 222.35,-445.89 227.74,-441.42"/>
</g>
<!-- /lib/main.dart&#45;&gt;/lib/screens/setup_screen.dart -->
<g id="edge15" class="edge">
<title>/lib/main.dart&#45;&gt;/lib/screens/setup_screen.dart</title>
<path fill="none" stroke="#aabbaa" stroke-width="1.3" stroke-opacity="0.533333" d="M284.21,-480.82C293.21,-469.94 305.03,-455.66 315.2,-443.36"/>
<polygon fill="#aabbaa" fill-opacity="0.533333" stroke="#aabbaa" stroke-width="1.3" stroke-opacity="0.533333" points="317.65,-445.89 321.33,-435.95 312.26,-441.42 317.65,-445.89"/>
</g>
<!-- /lib/firebase_options_.dart -->
<g id="node10" class="node">
<title>/lib/firebase_options_.dart</title>
<path fill="Lavender" stroke="black" stroke-width="1.3" d="M812.88,-517C812.88,-517 703.12,-517 703.12,-517 697.12,-517 691.12,-511 691.12,-505 691.12,-505 691.12,-493 691.12,-493 691.12,-487 697.12,-481 703.12,-481 703.12,-481 812.88,-481 812.88,-481 818.88,-481 824.88,-487 824.88,-493 824.88,-493 824.88,-505 824.88,-505 824.88,-511 818.88,-517 812.88,-517"/>
<text text-anchor="middle" x="758" y="-493.75" font-family="Arial" font-size="15.00">firebase_options_</text>
</g>
<!-- /lib/widgets/blink.dart -->
<g id="node11" class="node">
<title>/lib/widgets/blink.dart</title>
<path fill="Lavender" stroke="black" stroke-width="1.3" d="M954,-140C954,-140 924,-140 924,-140 918,-140 912,-134 912,-128 912,-128 912,-116 912,-116 912,-110 918,-104 924,-104 924,-104 954,-104 954,-104 960,-104 966,-110 966,-116 966,-116 966,-128 966,-128 966,-134 960,-140 954,-140"/>
<text text-anchor="middle" x="939" y="-116.75" font-family="Arial" font-size="15.00">blink</text>
</g>
<!-- /lib/widgets/playing_card_widget.dart -->
<g id="node13" class="node">
<title>/lib/widgets/playing_card_widget.dart</title>
<path fill="Lavender" stroke="black" stroke-width="1.3" d="M853.5,-140C853.5,-140 726.5,-140 726.5,-140 720.5,-140 714.5,-134 714.5,-128 714.5,-128 714.5,-116 714.5,-116 714.5,-110 720.5,-104 726.5,-104 726.5,-104 853.5,-104 853.5,-104 859.5,-104 865.5,-110 865.5,-116 865.5,-116 865.5,-128 865.5,-128 865.5,-134 859.5,-140 853.5,-140"/>
<text text-anchor="middle" x="790" y="-116.75" font-family="Arial" font-size="15.00">playing_card_widget</text>
</g>
<!-- /lib/widgets/playing_card_widget.dart&#45;&gt;/lib/widgets/playing_card.dart -->
<g id="edge16" class="edge">
<title>/lib/widgets/playing_card_widget.dart&#45;&gt;/lib/widgets/playing_card.dart</title>
<path fill="none" stroke="#aabbaa" stroke-width="1.3" stroke-opacity="0.533333" d="M790,-103.7C790,-96.49 790,-87.93 790,-79.82"/>
<polygon fill="#aabbaa" fill-opacity="0.533333" stroke="#aabbaa" stroke-width="1.3" stroke-opacity="0.533333" points="793.5,-80.07 790,-70.07 786.5,-80.07 793.5,-80.07"/>
</g>
<!-- /lib/widgets/table_surface.dart -->
<g id="node14" class="node">
<title>/lib/widgets/table_surface.dart</title>
<path fill="Lavender" stroke="black" stroke-width="1.3" d="M916,-359C916,-359 834,-359 834,-359 828,-359 822,-353 822,-347 822,-347 822,-335 822,-335 822,-329 828,-323 834,-323 834,-323 916,-323 916,-323 922,-323 928,-329 928,-335 928,-335 928,-347 928,-347 928,-353 922,-359 916,-359"/>
<text text-anchor="middle" x="875" y="-335.75" font-family="Arial" font-size="15.00">table_surface</text>
</g>
<!-- /lib/widgets/blinking_text.dart -->
<g id="node15" class="node">
<title>/lib/widgets/blinking_text.dart</title>
<path fill="Lavender" stroke="black" stroke-width="1.3" d="M984.25,-212C984.25,-212 909.75,-212 909.75,-212 903.75,-212 897.75,-206 897.75,-200 897.75,-200 897.75,-188 897.75,-188 897.75,-182 903.75,-176 909.75,-176 909.75,-176 984.25,-176 984.25,-176 990.25,-176 996.25,-182 996.25,-188 996.25,-188 996.25,-200 996.25,-200 996.25,-206 990.25,-212 984.25,-212"/>
<text text-anchor="middle" x="947" y="-188.75" font-family="Arial" font-size="15.00">blinking_text</text>
</g>
<!-- /lib/widgets/blinking_text.dart&#45;&gt;/lib/widgets/blink.dart -->
<g id="edge17" class="edge">
<title>/lib/widgets/blinking_text.dart&#45;&gt;/lib/widgets/blink.dart</title>
<path fill="none" stroke="#aabbaa" stroke-width="1.3" stroke-opacity="0.533333" d="M945.02,-175.7C944.2,-168.49 943.22,-159.93 942.29,-151.82"/>
<polygon fill="#aabbaa" fill-opacity="0.533333" stroke="#aabbaa" stroke-width="1.3" stroke-opacity="0.533333" points="945.79,-151.6 941.18,-142.06 938.84,-152.39 945.79,-151.6"/>
</g>
<!-- /lib/widgets/player_zone.dart&#45;&gt;/lib/models/game_model.dart -->
<g id="edge18" class="edge">
<title>/lib/widgets/player_zone.dart&#45;&gt;/lib/models/game_model.dart</title>
<path fill="none" stroke="#aabbaa" stroke-width="1.3" stroke-opacity="0.533333" d="M946.15,-324.75C943.07,-324.08 940,-323.48 937,-323 885.41,-314.7 751.89,-330.53 702,-315 685.89,-309.99 669.87,-300.52 656.81,-291.31"/>
<polygon fill="#aabbaa" fill-opacity="0.533333" stroke="#aabbaa" stroke-width="1.3" stroke-opacity="0.533333" points="659.15,-288.68 649.03,-285.56 654.99,-294.32 659.15,-288.68"/>
</g>
<!-- /lib/widgets/player_zone.dart&#45;&gt;/lib/models/player.dart -->
<g id="edge19" class="edge">
<title>/lib/widgets/player_zone.dart&#45;&gt;/lib/models/player.dart</title>
<path fill="none" stroke="#aabbaa" stroke-width="1.3" stroke-opacity="0.533333" d="M946.15,-324.76C943.07,-324.09 940,-323.49 937,-323 914.5,-319.32 750.62,-328.15 732,-315 702.67,-294.3 722.83,-269.24 702,-240 696.9,-232.85 690.44,-226.09 683.82,-220.09"/>
<polygon fill="#aabbaa" fill-opacity="0.533333" stroke="#aabbaa" stroke-width="1.3" stroke-opacity="0.533333" points="686.19,-217.51 676.31,-213.69 681.65,-222.84 686.19,-217.51"/>
</g>
<!-- /lib/widgets/player_zone.dart&#45;&gt;/lib/widgets/playing_card_widget.dart -->
<g id="edge23" class="edge">
<title>/lib/widgets/player_zone.dart&#45;&gt;/lib/widgets/playing_card_widget.dart</title>
<path fill="none" stroke="#aabbaa" stroke-width="1.3" stroke-opacity="0.533333" d="M946.14,-324.8C943.07,-324.12 940,-323.51 937,-323 919.45,-320.03 790.39,-326.73 777,-315 727.44,-271.6 737.96,-230.76 758,-168 760,-161.72 763.24,-155.57 766.9,-149.93"/>
<polygon fill="#aabbaa" fill-opacity="0.533333" stroke="#aabbaa" stroke-width="1.3" stroke-opacity="0.533333" points="769.61,-152.16 772.62,-142.01 763.93,-148.06 769.61,-152.16"/>
</g>
<!-- /lib/widgets/player_zone.dart&#45;&gt;/lib/widgets/playing_card.dart -->
<g id="edge22" class="edge">
<title>/lib/widgets/player_zone.dart&#45;&gt;/lib/widgets/playing_card.dart</title>
<path fill="none" stroke="#aabbaa" stroke-width="1.3" stroke-opacity="0.533333" d="M997.23,-322.54C1001.84,-284.87 1011.47,-197.05 1005,-168 998.17,-137.34 998.91,-124.38 975,-104 940.78,-74.84 891.41,-61.69 852.28,-55.78"/>
<polygon fill="#aabbaa" fill-opacity="0.533333" stroke="#aabbaa" stroke-width="1.3" stroke-opacity="0.533333" points="852.82,-52.32 842.44,-54.43 851.87,-59.25 852.82,-52.32"/>
</g>
<!-- /lib/widgets/player_zone_cta.dart -->
<g id="node19" class="node">
<title>/lib/widgets/player_zone_cta.dart</title>
<path fill="Lavender" stroke="black" stroke-width="1.3" d="M899.75,-284C899.75,-284 798.25,-284 798.25,-284 792.25,-284 786.25,-278 786.25,-272 786.25,-272 786.25,-260 786.25,-260 786.25,-254 792.25,-248 798.25,-248 798.25,-248 899.75,-248 899.75,-248 905.75,-248 911.75,-254 911.75,-260 911.75,-260 911.75,-272 911.75,-272 911.75,-278 905.75,-284 899.75,-284"/>
<text text-anchor="middle" x="849" y="-260.75" font-family="Arial" font-size="15.00">player_zone_cta</text>
</g>
<!-- /lib/widgets/player_zone.dart&#45;&gt;/lib/widgets/player_zone_cta.dart -->
<g id="edge21" class="edge">
<title>/lib/widgets/player_zone.dart&#45;&gt;/lib/widgets/player_zone_cta.dart</title>
<path fill="none" stroke="#aabbaa" stroke-width="1.3" stroke-opacity="0.533333" d="M960.03,-322.51C940.42,-312.71 915.72,-300.36 894.61,-289.8"/>
<polygon fill="#aabbaa" fill-opacity="0.533333" stroke="#aabbaa" stroke-width="1.3" stroke-opacity="0.533333" points="896.21,-286.69 885.7,-285.35 893.08,-292.95 896.21,-286.69"/>
</g>
<!-- /lib/widgets/player_header.dart -->
<g id="node20" class="node">
<title>/lib/widgets/player_header.dart</title>
<path fill="Lavender" stroke="black" stroke-width="1.3" d="M1114.62,-284C1114.62,-284 1027.38,-284 1027.38,-284 1021.38,-284 1015.38,-278 1015.38,-272 1015.38,-272 1015.38,-260 1015.38,-260 1015.38,-254 1021.38,-248 1027.38,-248 1027.38,-248 1114.62,-248 1114.62,-248 1120.62,-248 1126.62,-254 1126.62,-260 1126.62,-260 1126.62,-272 1126.62,-272 1126.62,-278 1120.62,-284 1114.62,-284"/>
<text text-anchor="middle" x="1071" y="-260.75" font-family="Arial" font-size="15.00">player_header</text>
</g>
<!-- /lib/widgets/player_zone.dart&#45;&gt;/lib/widgets/player_header.dart -->
<g id="edge20" class="edge">
<title>/lib/widgets/player_zone.dart&#45;&gt;/lib/widgets/player_header.dart</title>
<path fill="none" stroke="#aabbaa" stroke-width="1.3" stroke-opacity="0.533333" d="M1013.01,-322.7C1022.41,-313.67 1034.08,-302.46 1044.49,-292.46"/>
<polygon fill="#aabbaa" fill-opacity="0.533333" stroke="#aabbaa" stroke-width="1.3" stroke-opacity="0.533333" points="1046.65,-295.24 1051.44,-285.79 1041.8,-290.19 1046.65,-295.24"/>
</g>
<!-- /lib/widgets/card_piles.dart -->
<g id="node18" class="node">
<title>/lib/widgets/card_piles.dart</title>
<path fill="Lavender" stroke="black" stroke-width="1.3" d="M847.75,-212C847.75,-212 788.25,-212 788.25,-212 782.25,-212 776.25,-206 776.25,-200 776.25,-200 776.25,-188 776.25,-188 776.25,-182 782.25,-176 788.25,-176 788.25,-176 847.75,-176 847.75,-176 853.75,-176 859.75,-182 859.75,-188 859.75,-188 859.75,-200 859.75,-200 859.75,-206 853.75,-212 847.75,-212"/>
<text text-anchor="middle" x="818" y="-188.75" font-family="Arial" font-size="15.00">card_piles</text>
</g>
<!-- /lib/widgets/card_piles.dart&#45;&gt;/lib/widgets/playing_card_widget.dart -->
<g id="edge25" class="edge">
<title>/lib/widgets/card_piles.dart&#45;&gt;/lib/widgets/playing_card_widget.dart</title>
<path fill="none" stroke="#aabbaa" stroke-width="1.3" stroke-opacity="0.533333" d="M811.08,-175.7C808.09,-168.24 804.53,-159.32 801.19,-150.97"/>
<polygon fill="#aabbaa" fill-opacity="0.533333" stroke="#aabbaa" stroke-width="1.3" stroke-opacity="0.533333" points="804.54,-149.92 797.57,-141.93 798.04,-152.52 804.54,-149.92"/>
</g>
<!-- /lib/widgets/card_piles.dart&#45;&gt;/lib/widgets/playing_card.dart -->
<g id="edge24" class="edge">
<title>/lib/widgets/card_piles.dart&#45;&gt;/lib/widgets/playing_card.dart</title>
<path fill="none" stroke="#aabbaa" stroke-width="1.3" stroke-opacity="0.533333" d="M844.88,-175.68C856.45,-166.6 868.74,-154.37 875,-140 881.39,-125.33 882.76,-117.99 875,-104 868.21,-91.76 857.29,-81.98 845.51,-74.32"/>
<polygon fill="#aabbaa" fill-opacity="0.533333" stroke="#aabbaa" stroke-width="1.3" stroke-opacity="0.533333" points="847.56,-71.47 837.17,-69.38 843.99,-77.49 847.56,-71.47"/>
</g>
<!-- /lib/widgets/player_zone_cta.dart&#45;&gt;/lib/models/game_model.dart -->
<g id="edge26" class="edge">
<title>/lib/widgets/player_zone_cta.dart&#45;&gt;/lib/models/game_model.dart</title>
<path fill="none" stroke="#aabbaa" stroke-width="1.3" stroke-opacity="0.533333" d="M785.76,-266C753.95,-266 722.13,-266 690.32,-266"/>
<polygon fill="#aabbaa" fill-opacity="0.533333" stroke="#aabbaa" stroke-width="1.3" stroke-opacity="0.533333" points="690.57,-262.5 680.57,-266 690.57,-269.5 690.57,-262.5"/>
</g>
<!-- /lib/widgets/player_zone_cta.dart&#45;&gt;/lib/widgets/blink.dart -->
<g id="edge27" class="edge">
<title>/lib/widgets/player_zone_cta.dart&#45;&gt;/lib/widgets/blink.dart</title>
<path fill="none" stroke="#aabbaa" stroke-width="1.3" stroke-opacity="0.533333" d="M855.57,-247.92C865.62,-221.96 884.17,-174.85 889,-168 894,-160.92 900.31,-154.15 906.74,-148.13"/>
<polygon fill="#aabbaa" fill-opacity="0.533333" stroke="#aabbaa" stroke-width="1.3" stroke-opacity="0.533333" points="908.83,-150.95 914.01,-141.7 904.2,-145.7 908.83,-150.95"/>
</g>
<!-- /lib/widgets/player_zone_cta.dart&#45;&gt;/lib/widgets/playing_card_widget.dart -->
<g id="edge30" class="edge">
<title>/lib/widgets/player_zone_cta.dart&#45;&gt;/lib/widgets/playing_card_widget.dart</title>
<path fill="none" stroke="#aabbaa" stroke-width="1.3" stroke-opacity="0.533333" d="M805.52,-247.51C790.54,-239.13 775.43,-227.48 767,-212 756.64,-192.96 763.74,-169.08 772.7,-150.84"/>
<polygon fill="#aabbaa" fill-opacity="0.533333" stroke="#aabbaa" stroke-width="1.3" stroke-opacity="0.533333" points="775.78,-152.51 777.44,-142.05 769.62,-149.19 775.78,-152.51"/>
</g>
<!-- /lib/widgets/player_zone_cta.dart&#45;&gt;/lib/widgets/blinking_text.dart -->
<g id="edge28" class="edge">
<title>/lib/widgets/player_zone_cta.dart&#45;&gt;/lib/widgets/blinking_text.dart</title>
<path fill="none" stroke="#aabbaa" stroke-width="1.3" stroke-opacity="0.533333" d="M873.48,-247.52C885.49,-238.93 900.16,-228.46 913.23,-219.12"/>
<polygon fill="#aabbaa" fill-opacity="0.533333" stroke="#aabbaa" stroke-width="1.3" stroke-opacity="0.533333" points="915.13,-222.06 921.23,-213.4 911.06,-216.37 915.13,-222.06"/>
</g>
<!-- /lib/widgets/player_zone_cta.dart&#45;&gt;/lib/widgets/card_piles.dart -->
<g id="edge29" class="edge">
<title>/lib/widgets/player_zone_cta.dart&#45;&gt;/lib/widgets/card_piles.dart</title>
<path fill="none" stroke="#aabbaa" stroke-width="1.3" stroke-opacity="0.533333" d="M841.34,-247.7C838.03,-240.24 834.09,-231.32 830.38,-222.97"/>
<polygon fill="#aabbaa" fill-opacity="0.533333" stroke="#aabbaa" stroke-width="1.3" stroke-opacity="0.533333" points="833.62,-221.63 826.37,-213.9 827.22,-224.46 833.62,-221.63"/>
</g>
</g>
</svg>
