<?xml version="1.0" encoding="UTF-8" standalone="no"?>
<!DOCTYPE svg PUBLIC "-//W3C//DTD SVG 1.1//EN"
 "http://www.w3.org/Graphics/SVG/1.1/DTD/svg11.dtd">
<!-- Generated by graphviz version 12.2.0 (20241103.1931)
 -->
<!-- Pages: 1 -->
<svg width="1988pt" height="756pt"
 viewBox="0.00 0.00 1988.00 756.00" xmlns="http://www.w3.org/2000/svg" xmlns:xlink="http://www.w3.org/1999/xlink">
<g id="graph0" class="graph" transform="scale(1 1) rotate(0) translate(4 752)">
<polygon fill="white" stroke="none" points="-4,4 -4,-752 1984,-752 1984,4 -4,4"/>
<g id="clust1" class="cluster">
<title>cluster~</title>
<path fill="none" stroke="lightgray" stroke-width="2.6" d="M20,-8C20,-8 1960,-8 1960,-8 1966,-8 1972,-14 1972,-20 1972,-20 1972,-728 1972,-728 1972,-734 1966,-740 1960,-740 1960,-740 20,-740 20,-740 14,-740 8,-734 8,-728 8,-728 8,-20 8,-20 8,-14 14,-8 20,-8"/>
<text text-anchor="middle" x="990" y="-723.65" font-family="Arial Black" font-size="13.00">cards</text>
</g>
<g id="clust2" class="cluster">
<title>cluster~/test</title>
<path fill="none" stroke="lightgray" stroke-width="2.6" d="M28,-259C28,-259 474,-259 474,-259 480,-259 486,-265 486,-271 486,-271 486,-361 486,-361 486,-367 480,-373 474,-373 474,-373 28,-373 28,-373 22,-373 16,-367 16,-361 16,-361 16,-271 16,-271 16,-265 22,-259 28,-259"/>
<text text-anchor="middle" x="251" y="-356.65" font-family="Arial Black" font-size="13.00">test</text>
</g>
<g id="clust3" class="cluster">
<title>cluster~/test/models</title>
<path fill="none" stroke="lightgray" stroke-width="2.6" d="M36,-267C36,-267 466,-267 466,-267 472,-267 478,-273 478,-279 478,-279 478,-330 478,-330 478,-336 472,-342 466,-342 466,-342 36,-342 36,-342 30,-342 24,-336 24,-330 24,-330 24,-279 24,-279 24,-273 30,-267 36,-267"/>
<text text-anchor="middle" x="251" y="-325.65" font-family="Arial Black" font-size="13.00">models</text>
</g>
<g id="clust4" class="cluster">
<title>cluster~/lib</title>
<path fill="none" stroke="lightgray" stroke-width="2.6" d="M506,-16C506,-16 1952,-16 1952,-16 1958,-16 1964,-22 1964,-28 1964,-28 1964,-697 1964,-697 1964,-703 1958,-709 1952,-709 1952,-709 506,-709 506,-709 500,-709 494,-703 494,-697 494,-697 494,-28 494,-28 494,-22 500,-16 506,-16"/>
<text text-anchor="middle" x="1229" y="-692.65" font-family="Arial Black" font-size="13.00">lib</text>
</g>
<g id="clust5" class="cluster">
<title>cluster~/lib/models</title>
<path fill="none" stroke="lightgray" stroke-width="2.6" d="M526,-32C526,-32 878,-32 878,-32 884,-32 890,-38 890,-44 890,-44 890,-239 890,-239 890,-245 884,-251 878,-251 878,-251 526,-251 526,-251 520,-251 514,-245 514,-239 514,-239 514,-44 514,-44 514,-38 520,-32 526,-32"/>
<text text-anchor="middle" x="702" y="-234.65" font-family="Arial Black" font-size="13.00">models</text>
</g>
<g id="clust6" class="cluster">
<title>cluster~/lib/screens</title>
<path fill="none" stroke="lightgray" stroke-width="2.6" d="M640,-381C640,-381 758,-381 758,-381 764,-381 770,-387 770,-393 770,-393 770,-622 770,-622 770,-628 764,-634 758,-634 758,-634 640,-634 640,-634 634,-634 628,-628 628,-622 628,-622 628,-393 628,-393 628,-387 634,-381 640,-381"/>
<text text-anchor="middle" x="699" y="-617.65" font-family="Arial Black" font-size="13.00">screens</text>
</g>
<g id="clust7" class="cluster">
<title>cluster~/lib/widgets</title>
<path fill="none" stroke="lightgray" stroke-width="2.6" d="M910,-24C910,-24 1944,-24 1944,-24 1950,-24 1956,-30 1956,-36 1956,-36 1956,-475 1956,-475 1956,-481 1950,-487 1944,-487 1944,-487 910,-487 910,-487 904,-487 898,-481 898,-475 898,-475 898,-36 898,-36 898,-30 904,-24 910,-24"/>
<text text-anchor="middle" x="1427" y="-470.65" font-family="Arial Black" font-size="13.00">widgets</text>
</g>
<g id="clust8" class="cluster">
<title>cluster~/lib/widgets/cards</title>
<path fill="none" stroke="lightgray" stroke-width="2.6" d="M942,-32C942,-32 1068,-32 1068,-32 1074,-32 1080,-38 1080,-44 1080,-44 1080,-239 1080,-239 1080,-245 1074,-251 1068,-251 1068,-251 942,-251 942,-251 936,-251 930,-245 930,-239 930,-239 930,-44 930,-44 930,-38 936,-32 942,-32"/>
<text text-anchor="middle" x="1005" y="-234.65" font-family="Arial Black" font-size="13.00">cards</text>
</g>
<g id="clust9" class="cluster">
<title>cluster~/lib/widgets/player</title>
<path fill="none" stroke="lightgray" stroke-width="2.6" d="M918,-267C918,-267 1266,-267 1266,-267 1272,-267 1278,-273 1278,-279 1278,-279 1278,-444 1278,-444 1278,-450 1272,-456 1266,-456 1266,-456 918,-456 918,-456 912,-456 906,-450 906,-444 906,-444 906,-279 906,-279 906,-273 912,-267 918,-267"/>
<text text-anchor="middle" x="1092" y="-439.65" font-family="Arial Black" font-size="13.00">player</text>
</g>
<!-- /test/models/game_model_test.dart -->
<g id="node1" class="node">
<title>/test/models/game_model_test.dart</title>
<path fill="Lavender" stroke="black" stroke-width="1.3" d="M457.62,-311C457.62,-311 346.38,-311 346.38,-311 340.38,-311 334.38,-305 334.38,-299 334.38,-299 334.38,-287 334.38,-287 334.38,-281 340.38,-275 346.38,-275 346.38,-275 457.62,-275 457.62,-275 463.62,-275 469.62,-281 469.62,-287 469.62,-287 469.62,-299 469.62,-299 469.62,-305 463.62,-311 457.62,-311"/>
<text text-anchor="middle" x="402" y="-287.75" font-family="Arial" font-size="15.00">game_model_test</text>
</g>
<!-- /lib/models/game_model.dart -->
<g id="node4" class="node">
<title>/lib/models/game_model.dart</title>
<path fill="Lavender" stroke="black" stroke-width="1.3" d="M789.12,-220C789.12,-220 710.88,-220 710.88,-220 704.88,-220 698.88,-214 698.88,-208 698.88,-208 698.88,-196 698.88,-196 698.88,-190 704.88,-184 710.88,-184 710.88,-184 789.12,-184 789.12,-184 795.12,-184 801.12,-190 801.12,-196 801.12,-196 801.12,-208 801.12,-208 801.12,-214 795.12,-220 789.12,-220"/>
<text text-anchor="middle" x="750" y="-196.75" font-family="Arial" font-size="15.00">game_model</text>
</g>
<!-- /test/models/game_model_test.dart&#45;&gt;/lib/models/game_model.dart -->
<g id="edge1" class="edge">
<title>/test/models/game_model_test.dart&#45;&gt;/lib/models/game_model.dart</title>
<path fill="none" stroke="#aabbaa" stroke-width="1.3" stroke-opacity="0.533333" d="M469.9,-292.32C530.05,-290.32 619.07,-281.66 690,-251 702.43,-245.62 714.44,-236.96 724.41,-228.46"/>
<polygon fill="#aabbaa" fill-opacity="0.533333" stroke="#aabbaa" stroke-width="1.3" stroke-opacity="0.533333" points="726.73,-231.09 731.82,-221.8 722.05,-225.88 726.73,-231.09"/>
</g>
<!-- /test/models/player_model_test.dart -->
<g id="node2" class="node">
<title>/test/models/player_model_test.dart</title>
<path fill="Lavender" stroke="black" stroke-width="1.3" d="M304.12,-311C304.12,-311 189.88,-311 189.88,-311 183.88,-311 177.88,-305 177.88,-299 177.88,-299 177.88,-287 177.88,-287 177.88,-281 183.88,-275 189.88,-275 189.88,-275 304.12,-275 304.12,-275 310.12,-275 316.12,-281 316.12,-287 316.12,-287 316.12,-299 316.12,-299 316.12,-305 310.12,-311 304.12,-311"/>
<text text-anchor="middle" x="247" y="-287.75" font-family="Arial" font-size="15.00">player_model_test</text>
</g>
<!-- /lib/models/player_model.dart -->
<g id="node7" class="node">
<title>/lib/models/player_model.dart</title>
<path fill="Lavender" stroke="black" stroke-width="1.3" d="M615.62,-148C615.62,-148 534.38,-148 534.38,-148 528.38,-148 522.38,-142 522.38,-136 522.38,-136 522.38,-124 522.38,-124 522.38,-118 528.38,-112 534.38,-112 534.38,-112 615.62,-112 615.62,-112 621.62,-112 627.62,-118 627.62,-124 627.62,-124 627.62,-136 627.62,-136 627.62,-142 621.62,-148 615.62,-148"/>
<text text-anchor="middle" x="575" y="-124.75" font-family="Arial" font-size="15.00">player_model</text>
</g>
<!-- /test/models/player_model_test.dart&#45;&gt;/lib/models/player_model.dart -->
<g id="edge2" class="edge">
<title>/test/models/player_model_test.dart&#45;&gt;/lib/models/player_model.dart</title>
<path fill="none" stroke="#aabbaa" stroke-width="1.3" stroke-opacity="0.533333" d="M282.41,-274.62C342.2,-245.27 463.08,-185.94 529.22,-153.47"/>
<polygon fill="#aabbaa" fill-opacity="0.533333" stroke="#aabbaa" stroke-width="1.3" stroke-opacity="0.533333" points="530.53,-156.73 537.97,-149.18 527.45,-150.44 530.53,-156.73"/>
</g>
<!-- /test/models/card_model_test.dart -->
<g id="node3" class="node">
<title>/test/models/card_model_test.dart</title>
<path fill="Lavender" stroke="black" stroke-width="1.3" d="M147.5,-311C147.5,-311 44.5,-311 44.5,-311 38.5,-311 32.5,-305 32.5,-299 32.5,-299 32.5,-287 32.5,-287 32.5,-281 38.5,-275 44.5,-275 44.5,-275 147.5,-275 147.5,-275 153.5,-275 159.5,-281 159.5,-287 159.5,-287 159.5,-299 159.5,-299 159.5,-305 153.5,-311 147.5,-311"/>
<text text-anchor="middle" x="96" y="-287.75" font-family="Arial" font-size="15.00">card_model_test</text>
</g>
<!-- /lib/models/card_model.dart -->
<g id="node9" class="node">
<title>/lib/models/card_model.dart</title>
<path fill="Lavender" stroke="black" stroke-width="1.3" d="M654,-76C654,-76 584,-76 584,-76 578,-76 572,-70 572,-64 572,-64 572,-52 572,-52 572,-46 578,-40 584,-40 584,-40 654,-40 654,-40 660,-40 666,-46 666,-52 666,-52 666,-64 666,-64 666,-70 660,-76 654,-76"/>
<text text-anchor="middle" x="619" y="-52.75" font-family="Arial" font-size="15.00">card_model</text>
</g>
<!-- /test/models/card_model_test.dart&#45;&gt;/lib/models/card_model.dart -->
<g id="edge3" class="edge">
<title>/test/models/card_model_test.dart&#45;&gt;/lib/models/card_model.dart</title>
<path fill="none" stroke="#aabbaa" stroke-width="1.3" stroke-opacity="0.533333" d="M133.33,-274.55C179.59,-252.98 260.9,-215.32 331,-184 413.52,-147.14 509.97,-105.59 567.68,-80.88"/>
<polygon fill="#aabbaa" fill-opacity="0.533333" stroke="#aabbaa" stroke-width="1.3" stroke-opacity="0.533333" points="568.71,-84.25 576.53,-77.1 565.96,-77.81 568.71,-84.25"/>
</g>
<!-- /lib/models/game_model.dart&#45;&gt;/lib/models/player_model.dart -->
<g id="edge6" class="edge">
<title>/lib/models/game_model.dart&#45;&gt;/lib/models/player_model.dart</title>
<path fill="none" stroke="#aabbaa" stroke-width="1.3" stroke-opacity="0.533333" d="M700.36,-183.52C676.26,-174.25 647.45,-162.78 623.51,-152.93"/>
<polygon fill="#aabbaa" fill-opacity="0.533333" stroke="#aabbaa" stroke-width="1.3" stroke-opacity="0.533333" points="624.93,-149.73 614.35,-149.13 622.25,-156.19 624.93,-149.73"/>
</g>
<!-- /lib/models/game_model.dart&#45;&gt;/lib/models/player_model.dart -->
<g id="edge8" class="edge">
<title>/lib/models/game_model.dart&#45;&gt;/lib/models/player_model.dart</title>
<path fill="none" stroke="#aabbaa" stroke-width="1.3" stroke-dasharray="5,2" stroke-opacity="0.533333" d="M712.23,-183.52C689.81,-174.17 660.94,-162.57 635.44,-152.66"/>
<polygon fill="#aabbaa" fill-opacity="0.533333" stroke="#aabbaa" stroke-width="1.3" stroke-opacity="0.533333" points="636.8,-149.43 626.21,-149.09 634.28,-155.96 636.8,-149.43"/>
</g>
<!-- /lib/models/backend_model.dart -->
<g id="node10" class="node">
<title>/lib/models/backend_model.dart</title>
<path fill="Lavender" stroke="black" stroke-width="1.3" d="M869.5,-148C869.5,-148 772.5,-148 772.5,-148 766.5,-148 760.5,-142 760.5,-136 760.5,-136 760.5,-124 760.5,-124 760.5,-118 766.5,-112 772.5,-112 772.5,-112 869.5,-112 869.5,-112 875.5,-112 881.5,-118 881.5,-124 881.5,-124 881.5,-136 881.5,-136 881.5,-142 875.5,-148 869.5,-148"/>
<text text-anchor="middle" x="821" y="-124.75" font-family="Arial" font-size="15.00">backend_model</text>
</g>
<!-- /lib/models/game_model.dart&#45;&gt;/lib/models/backend_model.dart -->
<g id="edge4" class="edge">
<title>/lib/models/game_model.dart&#45;&gt;/lib/models/backend_model.dart</title>
<path fill="none" stroke="#aabbaa" stroke-width="1.3" stroke-opacity="0.533333" d="M767.55,-183.7C775.89,-175.47 786.02,-165.48 795.22,-156.42"/>
<polygon fill="#aabbaa" fill-opacity="0.533333" stroke="#aabbaa" stroke-width="1.3" stroke-opacity="0.533333" points="797.59,-159 802.25,-149.49 792.67,-154.01 797.59,-159"/>
</g>
<!-- /lib/models/deck_model.dart -->
<g id="node11" class="node">
<title>/lib/models/deck_model.dart</title>
<path fill="Lavender" stroke="black" stroke-width="1.3" d="M730.12,-148C730.12,-148 657.88,-148 657.88,-148 651.88,-148 645.88,-142 645.88,-136 645.88,-136 645.88,-124 645.88,-124 645.88,-118 651.88,-112 657.88,-112 657.88,-112 730.12,-112 730.12,-112 736.12,-112 742.12,-118 742.12,-124 742.12,-124 742.12,-136 742.12,-136 742.12,-142 736.12,-148 730.12,-148"/>
<text text-anchor="middle" x="694" y="-124.75" font-family="Arial" font-size="15.00">deck_model</text>
</g>
<!-- /lib/models/game_model.dart&#45;&gt;/lib/models/deck_model.dart -->
<g id="edge5" class="edge">
<title>/lib/models/game_model.dart&#45;&gt;/lib/models/deck_model.dart</title>
<path fill="none" stroke="#aabbaa" stroke-width="1.3" stroke-opacity="0.533333" d="M730.24,-183.7C723.12,-175.81 715.3,-166.3 708.67,-157.55"/>
<polygon fill="#aabbaa" fill-opacity="0.533333" stroke="#aabbaa" stroke-width="1.3" stroke-opacity="0.533333" points="711.66,-155.72 702.95,-149.69 706,-159.84 711.66,-155.72"/>
</g>
<!-- /lib/models/game_model.dart&#45;&gt;/lib/models/deck_model.dart -->
<g id="edge7" class="edge">
<title>/lib/models/game_model.dart&#45;&gt;/lib/models/deck_model.dart</title>
<path fill="none" stroke="#aabbaa" stroke-width="1.3" stroke-dasharray="5,2" stroke-opacity="0.533333" d="M742.07,-183.7C736.46,-175.64 728.87,-165.89 721.33,-156.98"/>
<polygon fill="#aabbaa" fill-opacity="0.533333" stroke="#aabbaa" stroke-width="1.3" stroke-opacity="0.533333" points="724.09,-154.82 714.87,-149.59 718.82,-159.42 724.09,-154.82"/>
</g>
<!-- /lib/models/game_over_dialog.dart -->
<g id="node5" class="node">
<title>/lib/models/game_over_dialog.dart</title>
<path fill="Lavender" stroke="black" stroke-width="1.3" d="M669.12,-220C669.12,-220 554.88,-220 554.88,-220 548.88,-220 542.88,-214 542.88,-208 542.88,-208 542.88,-196 542.88,-196 542.88,-190 548.88,-184 554.88,-184 554.88,-184 669.12,-184 669.12,-184 675.12,-184 681.12,-190 681.12,-196 681.12,-196 681.12,-208 681.12,-208 681.12,-214 675.12,-220 669.12,-220"/>
<text text-anchor="middle" x="612" y="-196.75" font-family="Arial" font-size="15.00">game_over_dialog</text>
</g>
<!-- /lib/models/game_over_dialog.dart&#45;&gt;/lib/models/player_model.dart -->
<g id="edge9" class="edge">
<title>/lib/models/game_over_dialog.dart&#45;&gt;/lib/models/player_model.dart</title>
<path fill="none" stroke="#aabbaa" stroke-width="1.3" stroke-opacity="0.533333" d="M602.85,-183.7C598.87,-176.15 594.09,-167.12 589.63,-158.68"/>
<polygon fill="#aabbaa" fill-opacity="0.533333" stroke="#aabbaa" stroke-width="1.3" stroke-opacity="0.533333" points="592.73,-157.05 584.96,-149.84 586.54,-160.32 592.73,-157.05"/>
</g>
<!-- /lib/models/firebase_options.dart -->
<g id="node6" class="node">
<title>/lib/models/firebase_options.dart</title>
<path fill="Lavender" stroke="black" stroke-width="1.3" d="M797.75,-76C797.75,-76 696.25,-76 696.25,-76 690.25,-76 684.25,-70 684.25,-64 684.25,-64 684.25,-52 684.25,-52 684.25,-46 690.25,-40 696.25,-40 696.25,-40 797.75,-40 797.75,-40 803.75,-40 809.75,-46 809.75,-52 809.75,-52 809.75,-64 809.75,-64 809.75,-70 803.75,-76 797.75,-76"/>
<text text-anchor="middle" x="747" y="-52.75" font-family="Arial" font-size="15.00">firebase_options</text>
</g>
<!-- /lib/models/player_model.dart&#45;&gt;/lib/models/card_model.dart -->
<g id="edge10" class="edge">
<title>/lib/models/player_model.dart&#45;&gt;/lib/models/card_model.dart</title>
<path fill="none" stroke="#aabbaa" stroke-width="1.3" stroke-opacity="0.533333" d="M579.96,-111.7C584.06,-103.9 589.74,-94.51 595.55,-85.83"/>
<polygon fill="#aabbaa" fill-opacity="0.533333" stroke="#aabbaa" stroke-width="1.3" stroke-opacity="0.533333" points="598.36,-87.92 601.23,-77.72 592.63,-83.91 598.36,-87.92"/>
</g>
<!-- /lib/models/player_model.dart&#45;&gt;/lib/models/card_model.dart -->
<g id="edge11" class="edge">
<title>/lib/models/player_model.dart&#45;&gt;/lib/models/card_model.dart</title>
<path fill="none" stroke="#aabbaa" stroke-width="1.3" stroke-dasharray="5,2" stroke-opacity="0.533333" d="M591.79,-111.7C597.37,-104.07 603.36,-94.92 608.39,-86.4"/>
<polygon fill="#aabbaa" fill-opacity="0.533333" stroke="#aabbaa" stroke-width="1.3" stroke-opacity="0.533333" points="611.36,-88.26 613.18,-77.82 605.25,-84.84 611.36,-88.26"/>
</g>
<!-- /lib/models/misc.dart -->
<g id="node8" class="node">
<title>/lib/models/misc.dart</title>
<path fill="Lavender" stroke="black" stroke-width="1.3" d="M870,-76C870,-76 840,-76 840,-76 834,-76 828,-70 828,-64 828,-64 828,-52 828,-52 828,-46 834,-40 840,-40 840,-40 870,-40 870,-40 876,-40 882,-46 882,-52 882,-52 882,-64 882,-64 882,-70 876,-76 870,-76"/>
<text text-anchor="middle" x="855" y="-52.75" font-family="Arial" font-size="15.00">misc</text>
</g>
<!-- /lib/models/backend_model.dart&#45;&gt;/lib/models/firebase_options.dart -->
<g id="edge12" class="edge">
<title>/lib/models/backend_model.dart&#45;&gt;/lib/models/firebase_options.dart</title>
<path fill="none" stroke="#aabbaa" stroke-width="1.3" stroke-opacity="0.533333" d="M802.71,-111.7C793.99,-103.45 783.4,-93.43 773.79,-84.35"/>
<polygon fill="#aabbaa" fill-opacity="0.533333" stroke="#aabbaa" stroke-width="1.3" stroke-opacity="0.533333" points="776.44,-82.03 766.77,-77.7 771.63,-87.11 776.44,-82.03"/>
</g>
<!-- /lib/models/backend_model.dart&#45;&gt;/lib/models/misc.dart -->
<g id="edge13" class="edge">
<title>/lib/models/backend_model.dart&#45;&gt;/lib/models/misc.dart</title>
<path fill="none" stroke="#aabbaa" stroke-width="1.3" stroke-opacity="0.533333" d="M829.4,-111.7C833.07,-104.15 837.46,-95.12 841.56,-86.68"/>
<polygon fill="#aabbaa" fill-opacity="0.533333" stroke="#aabbaa" stroke-width="1.3" stroke-opacity="0.533333" points="844.61,-88.4 845.83,-77.87 838.32,-85.34 844.61,-88.4"/>
</g>
<!-- /lib/models/deck_model.dart&#45;&gt;/lib/models/card_model.dart -->
<g id="edge14" class="edge">
<title>/lib/models/deck_model.dart&#45;&gt;/lib/models/card_model.dart</title>
<path fill="none" stroke="#aabbaa" stroke-width="1.3" stroke-opacity="0.533333" d="M669.54,-111.7C659.89,-103.47 648.98,-93.48 639.72,-84.42"/>
<polygon fill="#aabbaa" fill-opacity="0.533333" stroke="#aabbaa" stroke-width="1.3" stroke-opacity="0.533333" points="642.36,-82.11 632.82,-77.5 637.4,-87.05 642.36,-82.11"/>
</g>
<!-- /lib/models/deck_model.dart&#45;&gt;/lib/models/card_model.dart -->
<g id="edge15" class="edge">
<title>/lib/models/deck_model.dart&#45;&gt;/lib/models/card_model.dart</title>
<path fill="none" stroke="#aabbaa" stroke-width="1.3" stroke-dasharray="5,2" stroke-opacity="0.533333" d="M681.38,-111.7C673.31,-103.37 662.64,-93.22 652.36,-84.07"/>
<polygon fill="#aabbaa" fill-opacity="0.533333" stroke="#aabbaa" stroke-width="1.3" stroke-opacity="0.533333" points="654.83,-81.57 644.99,-77.64 650.23,-86.85 654.83,-81.57"/>
</g>
<!-- /lib/screens/game_screen.dart -->
<g id="node12" class="node">
<title>/lib/screens/game_screen.dart</title>
<path fill="Lavender" stroke="black" stroke-width="1.3" d="M750.38,-531C750.38,-531 667.62,-531 667.62,-531 661.62,-531 655.62,-525 655.62,-519 655.62,-519 655.62,-507 655.62,-507 655.62,-501 661.62,-495 667.62,-495 667.62,-495 750.38,-495 750.38,-495 756.38,-495 762.38,-501 762.38,-507 762.38,-507 762.38,-519 762.38,-519 762.38,-525 756.38,-531 750.38,-531"/>
<text text-anchor="middle" x="709" y="-507.75" font-family="Arial" font-size="15.00">game_screen</text>
</g>
<!-- /lib/screens/game_screen.dart&#45;&gt;/lib/models/game_model.dart -->
<g id="edge17" class="edge">
<title>/lib/screens/game_screen.dart&#45;&gt;/lib/models/game_model.dart</title>
<path fill="none" stroke="#aabbaa" stroke-width="1.3" stroke-opacity="0.533333" d="M719.1,-494.6C720.23,-492.11 721.25,-489.53 722,-487 748.74,-397.03 751.24,-284.69 750.73,-232.36"/>
<polygon fill="#aabbaa" fill-opacity="0.533333" stroke="#aabbaa" stroke-width="1.3" stroke-opacity="0.533333" points="754.23,-232.31 750.58,-222.37 747.23,-232.42 754.23,-232.31"/>
</g>
<!-- /lib/screens/game_screen.dart&#45;&gt;/lib/models/game_over_dialog.dart -->
<g id="edge18" class="edge">
<title>/lib/screens/game_screen.dart&#45;&gt;/lib/models/game_over_dialog.dart</title>
<path fill="none" stroke="#aabbaa" stroke-width="1.3" stroke-opacity="0.533333" d="M711.28,-494.7C714.07,-469.3 717.24,-420.64 707,-381 692,-322.91 654.54,-262.87 631.4,-229.49"/>
<polygon fill="#aabbaa" fill-opacity="0.533333" stroke="#aabbaa" stroke-width="1.3" stroke-opacity="0.533333" points="634.47,-227.78 625.85,-221.63 628.75,-231.82 634.47,-227.78"/>
</g>
<!-- /lib/screens/game_screen.dart&#45;&gt;/lib/models/misc.dart -->
<g id="edge19" class="edge">
<title>/lib/screens/game_screen.dart&#45;&gt;/lib/models/misc.dart</title>
<path fill="none" stroke="#aabbaa" stroke-width="1.3" stroke-opacity="0.533333" d="M655.15,-508.79C618.2,-505.53 573.35,-499.16 559,-487 490.87,-429.25 503,-383.32 503,-294 503,-294 503,-294 503,-201 503,-161.2 484.93,-140.22 513,-112 558.98,-65.78 735.15,-92.04 816.35,-75.74"/>
<polygon fill="#aabbaa" fill-opacity="0.533333" stroke="#aabbaa" stroke-width="1.3" stroke-opacity="0.533333" points="817.04,-79.17 825.93,-73.41 815.38,-72.37 817.04,-79.17"/>
</g>
<!-- /lib/screens/game_screen.dart&#45;&gt;/lib/models/backend_model.dart -->
<g id="edge16" class="edge">
<title>/lib/screens/game_screen.dart&#45;&gt;/lib/models/backend_model.dart</title>
<path fill="none" stroke="#aabbaa" stroke-width="1.3" stroke-opacity="0.533333" d="M655.26,-502.81C645.33,-499.17 635.68,-494.09 628,-487 576.2,-439.17 488.41,-237.78 534,-184 563.63,-149.04 686.33,-156.58 748.73,-147.97"/>
<polygon fill="#aabbaa" fill-opacity="0.533333" stroke="#aabbaa" stroke-width="1.3" stroke-opacity="0.533333" points="749.13,-151.45 758.41,-146.34 747.97,-144.55 749.13,-151.45"/>
</g>
<!-- /lib/screens/screen.dart -->
<g id="node14" class="node">
<title>/lib/screens/screen.dart</title>
<path fill="Lavender" stroke="black" stroke-width="1.3" d="M685.5,-425C685.5,-425 648.5,-425 648.5,-425 642.5,-425 636.5,-419 636.5,-413 636.5,-413 636.5,-401 636.5,-401 636.5,-395 642.5,-389 648.5,-389 648.5,-389 685.5,-389 685.5,-389 691.5,-389 697.5,-395 697.5,-401 697.5,-401 697.5,-413 697.5,-413 697.5,-419 691.5,-425 685.5,-425"/>
<text text-anchor="middle" x="667" y="-401.75" font-family="Arial" font-size="15.00">screen</text>
</g>
<!-- /lib/screens/game_screen.dart&#45;&gt;/lib/screens/screen.dart -->
<g id="edge20" class="edge">
<title>/lib/screens/game_screen.dart&#45;&gt;/lib/screens/screen.dart</title>
<path fill="none" stroke="#aabbaa" stroke-width="1.3" stroke-opacity="0.533333" d="M702.06,-494.83C695.62,-478.87 685.91,-454.81 678.33,-436.07"/>
<polygon fill="#aabbaa" fill-opacity="0.533333" stroke="#aabbaa" stroke-width="1.3" stroke-opacity="0.533333" points="681.67,-434.99 674.68,-427.02 675.18,-437.61 681.67,-434.99"/>
</g>
<!-- /lib/widgets/player/player_zone_widget.dart -->
<g id="node26" class="node">
<title>/lib/widgets/player/player_zone_widget.dart</title>
<path fill="Lavender" stroke="black" stroke-width="1.3" d="M1053,-425C1053,-425 929,-425 929,-425 923,-425 917,-419 917,-413 917,-413 917,-401 917,-401 917,-395 923,-389 929,-389 929,-389 1053,-389 1053,-389 1059,-389 1065,-395 1065,-401 1065,-401 1065,-413 1065,-413 1065,-419 1059,-425 1053,-425"/>
<text text-anchor="middle" x="991" y="-401.75" font-family="Arial" font-size="15.00">player_zone_widget</text>
</g>
<!-- /lib/screens/game_screen.dart&#45;&gt;/lib/widgets/player/player_zone_widget.dart -->
<g id="edge21" class="edge">
<title>/lib/screens/game_screen.dart&#45;&gt;/lib/widgets/player/player_zone_widget.dart</title>
<path fill="none" stroke="#aabbaa" stroke-width="1.3" stroke-opacity="0.533333" d="M756.2,-494.59C804.7,-476.71 880.29,-448.83 932.54,-429.56"/>
<polygon fill="#aabbaa" fill-opacity="0.533333" stroke="#aabbaa" stroke-width="1.3" stroke-opacity="0.533333" points="933.63,-432.89 941.8,-426.14 931.21,-426.32 933.63,-432.89"/>
</g>
<!-- /lib/screens/start_screen.dart -->
<g id="node13" class="node">
<title>/lib/screens/start_screen.dart</title>
<path fill="Lavender" stroke="black" stroke-width="1.3" d="M749.62,-603C749.62,-603 674.38,-603 674.38,-603 668.38,-603 662.38,-597 662.38,-591 662.38,-591 662.38,-579 662.38,-579 662.38,-573 668.38,-567 674.38,-567 674.38,-567 749.62,-567 749.62,-567 755.62,-567 761.62,-573 761.62,-579 761.62,-579 761.62,-591 761.62,-591 761.62,-597 755.62,-603 749.62,-603"/>
<text text-anchor="middle" x="712" y="-579.75" font-family="Arial" font-size="15.00">start_screen</text>
</g>
<!-- /lib/screens/start_screen.dart&#45;&gt;/lib/models/game_model.dart -->
<g id="edge23" class="edge">
<title>/lib/screens/start_screen.dart&#45;&gt;/lib/models/game_model.dart</title>
<path fill="none" stroke="#aabbaa" stroke-width="1.3" stroke-opacity="0.533333" d="M740.11,-566.64C751.99,-557.63 764.55,-545.46 771,-531 794.68,-477.9 767.36,-301.53 755.22,-231.76"/>
<polygon fill="#aabbaa" fill-opacity="0.533333" stroke="#aabbaa" stroke-width="1.3" stroke-opacity="0.533333" points="758.74,-231.58 753.56,-222.34 751.85,-232.79 758.74,-231.58"/>
</g>
<!-- /lib/screens/start_screen.dart&#45;&gt;/lib/models/backend_model.dart -->
<g id="edge22" class="edge">
<title>/lib/screens/start_screen.dart&#45;&gt;/lib/models/backend_model.dart</title>
<path fill="none" stroke="#aabbaa" stroke-width="1.3" stroke-opacity="0.533333" d="M741.78,-566.51C755.08,-557.39 769.98,-545.18 780,-531 813.26,-483.94 821,-465.62 821,-408 821,-408 821,-408 821,-292 821,-245.86 821,-192.27 821,-160.03"/>
<polygon fill="#aabbaa" fill-opacity="0.533333" stroke="#aabbaa" stroke-width="1.3" stroke-opacity="0.533333" points="824.5,-160.36 821,-150.36 817.5,-160.36 824.5,-160.36"/>
</g>
<!-- /lib/screens/start_screen.dart&#45;&gt;/lib/screens/game_screen.dart -->
<g id="edge24" class="edge">
<title>/lib/screens/start_screen.dart&#45;&gt;/lib/screens/game_screen.dart</title>
<path fill="none" stroke="#aabbaa" stroke-width="1.3" stroke-opacity="0.533333" d="M711.26,-566.7C710.95,-559.49 710.58,-550.93 710.24,-542.82"/>
<polygon fill="#aabbaa" fill-opacity="0.533333" stroke="#aabbaa" stroke-width="1.3" stroke-opacity="0.533333" points="713.74,-542.91 709.82,-533.07 706.75,-543.21 713.74,-542.91"/>
</g>
<!-- /lib/screens/start_screen.dart&#45;&gt;/lib/screens/screen.dart -->
<g id="edge25" class="edge">
<title>/lib/screens/start_screen.dart&#45;&gt;/lib/screens/screen.dart</title>
<path fill="none" stroke="#aabbaa" stroke-width="1.3" stroke-opacity="0.533333" d="M680.08,-566.54C667.31,-557.72 654,-545.73 647,-531 632.59,-500.66 643.01,-461.89 653.45,-436.07"/>
<polygon fill="#aabbaa" fill-opacity="0.533333" stroke="#aabbaa" stroke-width="1.3" stroke-opacity="0.533333" points="656.61,-437.57 657.37,-427 650.19,-434.79 656.61,-437.57"/>
</g>
<!-- /lib/widgets/players_in_room_widget.dart -->
<g id="node21" class="node">
<title>/lib/widgets/players_in_room_widget.dart</title>
<path fill="Lavender" stroke="black" stroke-width="1.3" d="M1629.62,-425C1629.62,-425 1476.38,-425 1476.38,-425 1470.38,-425 1464.38,-419 1464.38,-413 1464.38,-413 1464.38,-401 1464.38,-401 1464.38,-395 1470.38,-389 1476.38,-389 1476.38,-389 1629.62,-389 1629.62,-389 1635.62,-389 1641.62,-395 1641.62,-401 1641.62,-401 1641.62,-413 1641.62,-413 1641.62,-419 1635.62,-425 1629.62,-425"/>
<text text-anchor="middle" x="1553" y="-401.75" font-family="Arial" font-size="15.00">players_in_room_widget</text>
</g>
<!-- /lib/screens/start_screen.dart&#45;&gt;/lib/widgets/players_in_room_widget.dart -->
<g id="edge26" class="edge">
<title>/lib/screens/start_screen.dart&#45;&gt;/lib/widgets/players_in_room_widget.dart</title>
<path fill="none" stroke="#aabbaa" stroke-width="1.3" stroke-opacity="0.533333" d="M761.88,-581.02C907.39,-571.76 1329.04,-540.87 1455,-487 1483.49,-474.81 1510.49,-451.89 1528.9,-433.86"/>
<polygon fill="#aabbaa" fill-opacity="0.533333" stroke="#aabbaa" stroke-width="1.3" stroke-opacity="0.533333" points="1531.28,-436.44 1535.84,-426.87 1526.31,-431.51 1531.28,-436.44"/>
</g>
<!-- /lib/widgets/rooms_widget.dart -->
<g id="node23" class="node">
<title>/lib/widgets/rooms_widget.dart</title>
<path fill="Lavender" stroke="black" stroke-width="1.3" d="M1935.5,-425C1935.5,-425 1850.5,-425 1850.5,-425 1844.5,-425 1838.5,-419 1838.5,-413 1838.5,-413 1838.5,-401 1838.5,-401 1838.5,-395 1844.5,-389 1850.5,-389 1850.5,-389 1935.5,-389 1935.5,-389 1941.5,-389 1947.5,-395 1947.5,-401 1947.5,-401 1947.5,-413 1947.5,-413 1947.5,-419 1941.5,-425 1935.5,-425"/>
<text text-anchor="middle" x="1893" y="-401.75" font-family="Arial" font-size="15.00">rooms_widget</text>
</g>
<!-- /lib/screens/start_screen.dart&#45;&gt;/lib/widgets/rooms_widget.dart -->
<g id="edge27" class="edge">
<title>/lib/screens/start_screen.dart&#45;&gt;/lib/widgets/rooms_widget.dart</title>
<path fill="none" stroke="#aabbaa" stroke-width="1.3" stroke-opacity="0.533333" d="M761.87,-581.98C966.3,-573.37 1733.92,-537.9 1829,-487 1850.49,-475.49 1867.42,-453.41 1878.46,-435.51"/>
<polygon fill="#aabbaa" fill-opacity="0.533333" stroke="#aabbaa" stroke-width="1.3" stroke-opacity="0.533333" points="1881.41,-437.4 1883.42,-427 1875.36,-433.88 1881.41,-437.4"/>
</g>
<!-- /lib/main.dart -->
<g id="node15" class="node">
<title>/lib/main.dart</title>
<path fill="Lavender" stroke="black" stroke-width="1.3" d="M727,-678C727,-678 697,-678 697,-678 691,-678 685,-672 685,-666 685,-666 685,-654 685,-654 685,-648 691,-642 697,-642 697,-642 727,-642 727,-642 733,-642 739,-648 739,-654 739,-654 739,-666 739,-666 739,-672 733,-678 727,-678"/>
<text text-anchor="middle" x="712" y="-654.75" font-family="Arial" font-size="15.00">main</text>
</g>
<!-- /lib/main.dart&#45;&gt;/lib/screens/start_screen.dart -->
<g id="edge28" class="edge">
<title>/lib/main.dart&#45;&gt;/lib/screens/start_screen.dart</title>
<path fill="none" stroke="#aabbaa" stroke-width="1.3" stroke-opacity="0.533333" d="M712,-641.7C712,-633.76 712,-624.12 712,-615.11"/>
<polygon fill="#aabbaa" fill-opacity="0.533333" stroke="#aabbaa" stroke-width="1.3" stroke-opacity="0.533333" points="715.5,-615.4 712,-605.4 708.5,-615.4 715.5,-615.4"/>
</g>
<!-- /lib/widgets/table_surface_painter.dart -->
<g id="node16" class="node">
<title>/lib/widgets/table_surface_painter.dart</title>
<path fill="Lavender" stroke="black" stroke-width="1.3" d="M1434,-425C1434,-425 1298,-425 1298,-425 1292,-425 1286,-419 1286,-413 1286,-413 1286,-401 1286,-401 1286,-395 1292,-389 1298,-389 1298,-389 1434,-389 1434,-389 1440,-389 1446,-395 1446,-401 1446,-401 1446,-413 1446,-413 1446,-419 1440,-425 1434,-425"/>
<text text-anchor="middle" x="1366" y="-401.75" font-family="Arial" font-size="15.00">table_surface_painter</text>
</g>
<!-- /lib/widgets/cards/card_pile_widget.dart -->
<g id="node17" class="node">
<title>/lib/widgets/cards/card_pile_widget.dart</title>
<path fill="Lavender" stroke="black" stroke-width="1.3" d="M1056.5,-220C1056.5,-220 953.5,-220 953.5,-220 947.5,-220 941.5,-214 941.5,-208 941.5,-208 941.5,-196 941.5,-196 941.5,-190 947.5,-184 953.5,-184 953.5,-184 1056.5,-184 1056.5,-184 1062.5,-184 1068.5,-190 1068.5,-196 1068.5,-196 1068.5,-208 1068.5,-208 1068.5,-214 1062.5,-220 1056.5,-220"/>
<text text-anchor="middle" x="1005" y="-196.75" font-family="Arial" font-size="15.00">card_pile_widget</text>
</g>
<!-- /lib/widgets/cards/card_pile_widget.dart&#45;&gt;/lib/models/card_model.dart -->
<g id="edge29" class="edge">
<title>/lib/widgets/cards/card_pile_widget.dart&#45;&gt;/lib/models/card_model.dart</title>
<path fill="none" stroke="#aabbaa" stroke-width="1.3" stroke-opacity="0.533333" d="M988.64,-183.79C967.97,-163.18 930.31,-129.27 891,-112 805.29,-74.34 772.29,-96.35 677.76,-76.39"/>
<polygon fill="#aabbaa" fill-opacity="0.533333" stroke="#aabbaa" stroke-width="1.3" stroke-opacity="0.533333" points="678.68,-73 668.16,-74.24 677.16,-79.84 678.68,-73"/>
</g>
<!-- /lib/widgets/cards/card_widget.dart -->
<g id="node18" class="node">
<title>/lib/widgets/cards/card_widget.dart</title>
<path fill="Lavender" stroke="black" stroke-width="1.3" d="M1060.12,-148C1060.12,-148 987.88,-148 987.88,-148 981.88,-148 975.88,-142 975.88,-136 975.88,-136 975.88,-124 975.88,-124 975.88,-118 981.88,-112 987.88,-112 987.88,-112 1060.12,-112 1060.12,-112 1066.12,-112 1072.12,-118 1072.12,-124 1072.12,-124 1072.12,-136 1072.12,-136 1072.12,-142 1066.12,-148 1060.12,-148"/>
<text text-anchor="middle" x="1024" y="-124.75" font-family="Arial" font-size="15.00">card_widget</text>
</g>
<!-- /lib/widgets/cards/card_pile_widget.dart&#45;&gt;/lib/widgets/cards/card_widget.dart -->
<g id="edge31" class="edge">
<title>/lib/widgets/cards/card_pile_widget.dart&#45;&gt;/lib/widgets/cards/card_widget.dart</title>
<path fill="none" stroke="#aabbaa" stroke-width="1.3" stroke-opacity="0.533333" d="M1009.7,-183.7C1011.68,-176.41 1014.03,-167.73 1016.25,-159.54"/>
<polygon fill="#aabbaa" fill-opacity="0.533333" stroke="#aabbaa" stroke-width="1.3" stroke-opacity="0.533333" points="1019.6,-160.57 1018.84,-150 1012.84,-158.74 1019.6,-160.57"/>
</g>
<!-- /lib/widgets/cards/card_face_widget.dart -->
<g id="node19" class="node">
<title>/lib/widgets/cards/card_face_widget.dart</title>
<path fill="Lavender" stroke="black" stroke-width="1.3" d="M1059.5,-76C1059.5,-76 950.5,-76 950.5,-76 944.5,-76 938.5,-70 938.5,-64 938.5,-64 938.5,-52 938.5,-52 938.5,-46 944.5,-40 950.5,-40 950.5,-40 1059.5,-40 1059.5,-40 1065.5,-40 1071.5,-46 1071.5,-52 1071.5,-52 1071.5,-64 1071.5,-64 1071.5,-70 1065.5,-76 1059.5,-76"/>
<text text-anchor="middle" x="1005" y="-52.75" font-family="Arial" font-size="15.00">card_face_widget</text>
</g>
<!-- /lib/widgets/cards/card_pile_widget.dart&#45;&gt;/lib/widgets/cards/card_face_widget.dart -->
<g id="edge30" class="edge">
<title>/lib/widgets/cards/card_pile_widget.dart&#45;&gt;/lib/widgets/cards/card_face_widget.dart</title>
<path fill="none" stroke="#aabbaa" stroke-width="1.3" stroke-opacity="0.533333" d="M988.54,-183.92C980.35,-174.22 971.3,-161.37 967,-148 962.1,-132.77 962.1,-127.23 967,-112 970.02,-102.6 975.39,-93.46 981.16,-85.49"/>
<polygon fill="#aabbaa" fill-opacity="0.533333" stroke="#aabbaa" stroke-width="1.3" stroke-opacity="0.533333" points="983.91,-87.66 987.32,-77.63 978.4,-83.34 983.91,-87.66"/>
</g>
<!-- /lib/widgets/cards/card_widget.dart&#45;&gt;/lib/models/card_model.dart -->
<g id="edge32" class="edge">
<title>/lib/widgets/cards/card_widget.dart&#45;&gt;/lib/models/card_model.dart</title>
<path fill="none" stroke="#aabbaa" stroke-width="1.3" stroke-opacity="0.533333" d="M975.54,-122.04C893.73,-110.23 732.45,-86.7 677.92,-76.27"/>
<polygon fill="#aabbaa" fill-opacity="0.533333" stroke="#aabbaa" stroke-width="1.3" stroke-opacity="0.533333" points="678.66,-72.85 668.16,-74.26 677.24,-79.7 678.66,-72.85"/>
</g>
<!-- /lib/widgets/cards/card_widget.dart&#45;&gt;/lib/widgets/cards/card_face_widget.dart -->
<g id="edge33" class="edge">
<title>/lib/widgets/cards/card_widget.dart&#45;&gt;/lib/widgets/cards/card_face_widget.dart</title>
<path fill="none" stroke="#aabbaa" stroke-width="1.3" stroke-opacity="0.533333" d="M1019.3,-111.7C1017.32,-104.41 1014.97,-95.73 1012.75,-87.54"/>
<polygon fill="#aabbaa" fill-opacity="0.533333" stroke="#aabbaa" stroke-width="1.3" stroke-opacity="0.533333" points="1016.16,-86.74 1010.16,-78 1009.4,-88.57 1016.16,-86.74"/>
</g>
<!-- /lib/widgets/wiggle_widget.dart -->
<g id="node20" class="node">
<title>/lib/widgets/wiggle_widget.dart</title>
<path fill="Lavender" stroke="black" stroke-width="1.3" d="M1186.12,-76C1186.12,-76 1101.88,-76 1101.88,-76 1095.88,-76 1089.88,-70 1089.88,-64 1089.88,-64 1089.88,-52 1089.88,-52 1089.88,-46 1095.88,-40 1101.88,-40 1101.88,-40 1186.12,-40 1186.12,-40 1192.12,-40 1198.12,-46 1198.12,-52 1198.12,-52 1198.12,-64 1198.12,-64 1198.12,-70 1192.12,-76 1186.12,-76"/>
<text text-anchor="middle" x="1144" y="-52.75" font-family="Arial" font-size="15.00">wiggle_widget</text>
</g>
<!-- /lib/widgets/cards/card_widget.dart&#45;&gt;/lib/widgets/wiggle_widget.dart -->
<g id="edge34" class="edge">
<title>/lib/widgets/cards/card_widget.dart&#45;&gt;/lib/widgets/wiggle_widget.dart</title>
<path fill="none" stroke="#aabbaa" stroke-width="1.3" stroke-opacity="0.533333" d="M1053.97,-111.52C1069.26,-102.6 1088.06,-91.63 1104.52,-82.03"/>
<polygon fill="#aabbaa" fill-opacity="0.533333" stroke="#aabbaa" stroke-width="1.3" stroke-opacity="0.533333" points="1105.84,-85.31 1112.71,-77.25 1102.31,-79.27 1105.84,-85.31"/>
</g>
<!-- /lib/widgets/cards/card_face_widget.dart&#45;&gt;/lib/models/card_model.dart -->
<g id="edge35" class="edge">
<title>/lib/widgets/cards/card_face_widget.dart&#45;&gt;/lib/models/card_model.dart</title>
<path fill="none" stroke="#aabbaa" stroke-width="1.3" stroke-opacity="0.533333" d="M955.23,-76.48C933.93,-83.46 908.56,-90.54 885,-94 796.61,-106.97 770.49,-116.35 684,-94 674.22,-91.47 664.33,-87.12 655.33,-82.3"/>
<polygon fill="#aabbaa" fill-opacity="0.533333" stroke="#aabbaa" stroke-width="1.3" stroke-opacity="0.533333" points="657.34,-79.42 646.92,-77.48 653.86,-85.49 657.34,-79.42"/>
</g>
<!-- /lib/widgets/text_edit_with_submit.dart -->
<g id="node22" class="node">
<title>/lib/widgets/text_edit_with_submit.dart</title>
<path fill="Lavender" stroke="black" stroke-width="1.3" d="M1808,-425C1808,-425 1672,-425 1672,-425 1666,-425 1660,-419 1660,-413 1660,-413 1660,-401 1660,-401 1660,-395 1666,-389 1672,-389 1672,-389 1808,-389 1808,-389 1814,-389 1820,-395 1820,-401 1820,-401 1820,-413 1820,-413 1820,-419 1814,-425 1808,-425"/>
<text text-anchor="middle" x="1740" y="-401.75" font-family="Arial" font-size="15.00">text_edit_with_submit</text>
</g>
<!-- /lib/widgets/text_edit_with_submit.dart&#45;&gt;/lib/models/misc.dart -->
<g id="edge36" class="edge">
<title>/lib/widgets/text_edit_with_submit.dart&#45;&gt;/lib/models/misc.dart</title>
<path fill="none" stroke="#aabbaa" stroke-width="1.3" stroke-opacity="0.533333" d="M1707.48,-388.63C1613.41,-339.02 1331.97,-194.91 1084,-112 1015.7,-89.16 996.13,-92.39 926,-76 915.51,-73.55 904.16,-70.85 893.67,-68.34"/>
<polygon fill="#aabbaa" fill-opacity="0.533333" stroke="#aabbaa" stroke-width="1.3" stroke-opacity="0.533333" points="894.75,-65 884.21,-66.07 893.11,-71.81 894.75,-65"/>
</g>
<!-- /lib/widgets/player/player_zone_cta_widget.dart -->
<g id="node24" class="node">
<title>/lib/widgets/player/player_zone_cta_widget.dart</title>
<path fill="Lavender" stroke="black" stroke-width="1.3" d="M1258.25,-311C1258.25,-311 1105.75,-311 1105.75,-311 1099.75,-311 1093.75,-305 1093.75,-299 1093.75,-299 1093.75,-287 1093.75,-287 1093.75,-281 1099.75,-275 1105.75,-275 1105.75,-275 1258.25,-275 1258.25,-275 1264.25,-275 1270.25,-281 1270.25,-287 1270.25,-287 1270.25,-299 1270.25,-299 1270.25,-305 1264.25,-311 1258.25,-311"/>
<text text-anchor="middle" x="1182" y="-287.75" font-family="Arial" font-size="15.00">player_zone_cta_widget</text>
</g>
<!-- /lib/widgets/player/player_zone_cta_widget.dart&#45;&gt;/lib/models/game_model.dart -->
<g id="edge37" class="edge">
<title>/lib/widgets/player/player_zone_cta_widget.dart&#45;&gt;/lib/models/game_model.dart</title>
<path fill="none" stroke="#aabbaa" stroke-width="1.3" stroke-opacity="0.533333" d="M1139.24,-274.59C1122.59,-268.58 1103.17,-262.48 1085,-259 1015.51,-245.7 995.87,-262.15 926,-251 887.81,-244.91 846.01,-233.7 812.74,-223.66"/>
<polygon fill="#aabbaa" fill-opacity="0.533333" stroke="#aabbaa" stroke-width="1.3" stroke-opacity="0.533333" points="813.81,-220.32 803.22,-220.74 811.75,-227.02 813.81,-220.32"/>
</g>
<!-- /lib/widgets/player/player_zone_cta_widget.dart&#45;&gt;/lib/widgets/cards/card_pile_widget.dart -->
<g id="edge38" class="edge">
<title>/lib/widgets/player/player_zone_cta_widget.dart&#45;&gt;/lib/widgets/cards/card_pile_widget.dart</title>
<path fill="none" stroke="#aabbaa" stroke-width="1.3" stroke-opacity="0.533333" d="M1147.45,-274.63C1119.64,-260.65 1080.34,-240.88 1050.06,-225.66"/>
<polygon fill="#aabbaa" fill-opacity="0.533333" stroke="#aabbaa" stroke-width="1.3" stroke-opacity="0.533333" points="1052.03,-222.73 1041.52,-221.36 1048.88,-228.98 1052.03,-222.73"/>
</g>
<!-- /lib/widgets/player/player_header_widget.dart -->
<g id="node25" class="node">
<title>/lib/widgets/player/player_header_widget.dart</title>
<path fill="Lavender" stroke="black" stroke-width="1.3" d="M1064.12,-311C1064.12,-311 925.88,-311 925.88,-311 919.88,-311 913.88,-305 913.88,-299 913.88,-299 913.88,-287 913.88,-287 913.88,-281 919.88,-275 925.88,-275 925.88,-275 1064.12,-275 1064.12,-275 1070.12,-275 1076.12,-281 1076.12,-287 1076.12,-287 1076.12,-299 1076.12,-299 1076.12,-305 1070.12,-311 1064.12,-311"/>
<text text-anchor="middle" x="995" y="-287.75" font-family="Arial" font-size="15.00">player_header_widget</text>
</g>
<!-- /lib/widgets/player/player_zone_widget.dart&#45;&gt;/lib/models/game_model.dart -->
<g id="edge39" class="edge">
<title>/lib/widgets/player/player_zone_widget.dart&#45;&gt;/lib/models/game_model.dart</title>
<path fill="none" stroke="#aabbaa" stroke-width="1.3" stroke-opacity="0.533333" d="M920.12,-388.56C909.55,-384.37 899.14,-379.24 890,-373 860.69,-353 800.28,-272.63 769.28,-229.95"/>
<polygon fill="#aabbaa" fill-opacity="0.533333" stroke="#aabbaa" stroke-width="1.3" stroke-opacity="0.533333" points="772.27,-228.11 763.58,-222.05 766.6,-232.21 772.27,-228.11"/>
</g>
<!-- /lib/widgets/player/player_zone_widget.dart&#45;&gt;/lib/models/misc.dart -->
<g id="edge40" class="edge">
<title>/lib/widgets/player/player_zone_widget.dart&#45;&gt;/lib/models/misc.dart</title>
<path fill="none" stroke="#aabbaa" stroke-width="1.3" stroke-opacity="0.533333" d="M922.29,-388.59C915.61,-384.46 909.61,-379.34 905,-373 836.66,-279.07 928.11,-222.08 891,-112 887.9,-102.81 882.74,-93.73 877.28,-85.76"/>
<polygon fill="#aabbaa" fill-opacity="0.533333" stroke="#aabbaa" stroke-width="1.3" stroke-opacity="0.533333" points="880.24,-83.88 871.5,-77.9 874.6,-88.03 880.24,-83.88"/>
</g>
<!-- /lib/widgets/player/player_zone_widget.dart&#45;&gt;/lib/widgets/cards/card_widget.dart -->
<g id="edge41" class="edge">
<title>/lib/widgets/player/player_zone_widget.dart&#45;&gt;/lib/widgets/cards/card_widget.dart</title>
<path fill="none" stroke="#aabbaa" stroke-width="1.3" stroke-opacity="0.533333" d="M1038.33,-388.57C1048.33,-385.53 1058.92,-382.77 1069,-381 1080.5,-378.98 1270.9,-381.41 1279,-373 1296.57,-354.75 1292.3,-280.56 1279,-259 1256.89,-223.16 1151.65,-178.46 1083.47,-152.48"/>
<polygon fill="#aabbaa" fill-opacity="0.533333" stroke="#aabbaa" stroke-width="1.3" stroke-opacity="0.533333" points="1084.88,-149.27 1074.29,-149.02 1082.41,-155.82 1084.88,-149.27"/>
</g>
<!-- /lib/widgets/player/player_zone_widget.dart&#45;&gt;/lib/widgets/player/player_zone_cta_widget.dart -->
<g id="edge43" class="edge">
<title>/lib/widgets/player/player_zone_widget.dart&#45;&gt;/lib/widgets/player/player_zone_cta_widget.dart</title>
<path fill="none" stroke="#aabbaa" stroke-width="1.3" stroke-opacity="0.533333" d="M1045.77,-388.54C1062.1,-382.95 1077.61,-377.14 1085,-373 1111.26,-358.29 1137.52,-336.36 1156.08,-319.33"/>
<polygon fill="#aabbaa" fill-opacity="0.533333" stroke="#aabbaa" stroke-width="1.3" stroke-opacity="0.533333" points="1158.44,-321.91 1163.35,-312.52 1153.66,-316.8 1158.44,-321.91"/>
</g>
<!-- /lib/widgets/player/player_zone_widget.dart&#45;&gt;/lib/widgets/player/player_header_widget.dart -->
<g id="edge42" class="edge">
<title>/lib/widgets/player/player_zone_widget.dart&#45;&gt;/lib/widgets/player/player_header_widget.dart</title>
<path fill="none" stroke="#aabbaa" stroke-width="1.3" stroke-opacity="0.533333" d="M991.62,-388.5C992.25,-371.08 993.21,-344.01 993.95,-323.31"/>
<polygon fill="#aabbaa" fill-opacity="0.533333" stroke="#aabbaa" stroke-width="1.3" stroke-opacity="0.533333" points="997.45,-323.46 994.31,-313.34 990.45,-323.21 997.45,-323.46"/>
</g>
</g>
</svg>
