<?xml version="1.0" encoding="UTF-8" standalone="no"?>
<!DOCTYPE svg PUBLIC "-//W3C//DTD SVG 1.1//EN"
 "http://www.w3.org/Graphics/SVG/1.1/DTD/svg11.dtd">
<!-- Generated by graphviz version 12.1.2 (20240928.0832)
 -->
<!-- Pages: 1 -->
<svg width="354pt" height="332pt"
 viewBox="0.00 0.00 354.38 332.00" xmlns="http://www.w3.org/2000/svg" xmlns:xlink="http://www.w3.org/1999/xlink">
<g id="graph0" class="graph" transform="scale(1 1) rotate(0) translate(4 328)">
<polygon fill="white" stroke="none" points="-4,4 -4,-328 350.38,-328 350.38,4 -4,4"/>
<!-- /lib/game_model.dart -->
<g id="node1" class="node">
<title>/lib/game_model.dart</title>
<path fill="Lavender" stroke="black" stroke-width="1.3" d="M90.25,-108C90.25,-108 12,-108 12,-108 6,-108 0,-102 0,-96 0,-96 0,-84 0,-84 0,-78 6,-72 12,-72 12,-72 90.25,-72 90.25,-72 96.25,-72 102.25,-78 102.25,-84 102.25,-84 102.25,-96 102.25,-96 102.25,-102 96.25,-108 90.25,-108"/>
<text text-anchor="middle" x="51.12" y="-84.75" font-family="Arial" font-size="15.00">game_model</text>
</g>
<!-- /lib/playing_card.dart -->
<g id="node4" class="node">
<title>/lib/playing_card.dart</title>
<path fill="Lavender" stroke="black" stroke-width="1.3" d="M161.12,-36C161.12,-36 85.12,-36 85.12,-36 79.12,-36 73.12,-30 73.12,-24 73.12,-24 73.12,-12 73.12,-12 73.12,-6 79.12,0 85.12,0 85.12,0 161.12,0 161.12,0 167.12,0 173.12,-6 173.12,-12 173.12,-12 173.12,-24 173.12,-24 173.12,-30 167.12,-36 161.12,-36"/>
<text text-anchor="middle" x="123.12" y="-12.75" font-family="Arial" font-size="15.00">playing_card</text>
</g>
<!-- /lib/game_model.dart&#45;&gt;/lib/playing_card.dart -->
<g id="edge1" class="edge">
<title>/lib/game_model.dart&#45;&gt;/lib/playing_card.dart</title>
<path fill="none" stroke="#aabbaa" stroke-width="1.3" stroke-opacity="0.533333" d="M68.92,-71.7C77.32,-63.54 87.5,-53.63 96.77,-44.62"/>
<polygon fill="#aabbaa" fill-opacity="0.533333" stroke="#aabbaa" stroke-width="1.3" stroke-opacity="0.533333" points="99.14,-47.2 103.87,-37.72 94.26,-42.18 99.14,-47.2"/>
</g>
<!-- /lib/game_screen.dart -->
<g id="node2" class="node">
<title>/lib/game_screen.dart</title>
<path fill="Lavender" stroke="black" stroke-width="1.3" d="M221.5,-180C221.5,-180 138.75,-180 138.75,-180 132.75,-180 126.75,-174 126.75,-168 126.75,-168 126.75,-156 126.75,-156 126.75,-150 132.75,-144 138.75,-144 138.75,-144 221.5,-144 221.5,-144 227.5,-144 233.5,-150 233.5,-156 233.5,-156 233.5,-168 233.5,-168 233.5,-174 227.5,-180 221.5,-180"/>
<text text-anchor="middle" x="180.12" y="-156.75" font-family="Arial" font-size="15.00">game_screen</text>
</g>
<!-- /lib/game_screen.dart&#45;&gt;/lib/game_model.dart -->
<g id="edge2" class="edge">
<title>/lib/game_screen.dart&#45;&gt;/lib/game_model.dart</title>
<path fill="none" stroke="#aabbaa" stroke-width="1.3" stroke-opacity="0.533333" d="M147.91,-143.52C131.39,-134.55 111.07,-123.53 93.32,-113.9"/>
<polygon fill="#aabbaa" fill-opacity="0.533333" stroke="#aabbaa" stroke-width="1.3" stroke-opacity="0.533333" points="95.12,-110.89 84.66,-109.2 91.78,-117.04 95.12,-110.89"/>
</g>
<!-- /lib/playing_card_widget.dart -->
<g id="node5" class="node">
<title>/lib/playing_card_widget.dart</title>
<path fill="Lavender" stroke="black" stroke-width="1.3" d="M259.62,-108C259.62,-108 132.62,-108 132.62,-108 126.62,-108 120.62,-102 120.62,-96 120.62,-96 120.62,-84 120.62,-84 120.62,-78 126.62,-72 132.62,-72 132.62,-72 259.62,-72 259.62,-72 265.62,-72 271.62,-78 271.62,-84 271.62,-84 271.62,-96 271.62,-96 271.62,-102 265.62,-108 259.62,-108"/>
<text text-anchor="middle" x="196.12" y="-84.75" font-family="Arial" font-size="15.00">playing_card_widget</text>
</g>
<!-- /lib/game_screen.dart&#45;&gt;/lib/playing_card_widget.dart -->
<g id="edge4" class="edge">
<title>/lib/game_screen.dart&#45;&gt;/lib/playing_card_widget.dart</title>
<path fill="none" stroke="#aabbaa" stroke-width="1.3" stroke-opacity="0.533333" d="M184.08,-143.7C185.75,-136.41 187.73,-127.73 189.6,-119.54"/>
<polygon fill="#aabbaa" fill-opacity="0.533333" stroke="#aabbaa" stroke-width="1.3" stroke-opacity="0.533333" points="192.96,-120.55 191.78,-110.02 186.14,-118.99 192.96,-120.55"/>
</g>
<!-- /lib/widgets/player.dart -->
<g id="node6" class="node">
<title>/lib/widgets/player.dart</title>
<path fill="Lavender" stroke="black" stroke-width="1.3" d="M334.38,-108C334.38,-108 301.88,-108 301.88,-108 295.88,-108 289.88,-102 289.88,-96 289.88,-96 289.88,-84 289.88,-84 289.88,-78 295.88,-72 301.88,-72 301.88,-72 334.38,-72 334.38,-72 340.38,-72 346.38,-78 346.38,-84 346.38,-84 346.38,-96 346.38,-96 346.38,-102 340.38,-108 334.38,-108"/>
<text text-anchor="middle" x="318.12" y="-84.75" font-family="Arial" font-size="15.00">player</text>
</g>
<!-- /lib/game_screen.dart&#45;&gt;/lib/widgets/player.dart -->
<g id="edge3" class="edge">
<title>/lib/game_screen.dart&#45;&gt;/lib/widgets/player.dart</title>
<path fill="none" stroke="#aabbaa" stroke-width="1.3" stroke-opacity="0.533333" d="M214.59,-143.52C234.22,-133.56 258.86,-121.06 279.18,-110.75"/>
<polygon fill="#aabbaa" fill-opacity="0.533333" stroke="#aabbaa" stroke-width="1.3" stroke-opacity="0.533333" points="280.58,-113.97 287.91,-106.32 277.41,-107.73 280.58,-113.97"/>
</g>
<!-- /lib/main.dart -->
<g id="node3" class="node">
<title>/lib/main.dart</title>
<path fill="Lavender" stroke="black" stroke-width="1.3" d="M138.12,-252C138.12,-252 108.12,-252 108.12,-252 102.12,-252 96.12,-246 96.12,-240 96.12,-240 96.12,-228 96.12,-228 96.12,-222 102.12,-216 108.12,-216 108.12,-216 138.12,-216 138.12,-216 144.12,-216 150.12,-222 150.12,-228 150.12,-228 150.12,-240 150.12,-240 150.12,-246 144.12,-252 138.12,-252"/>
<text text-anchor="middle" x="123.12" y="-228.75" font-family="Arial" font-size="15.00">main</text>
</g>
<!-- /lib/main.dart&#45;&gt;/lib/game_model.dart -->
<g id="edge5" class="edge">
<title>/lib/main.dart&#45;&gt;/lib/game_model.dart</title>
<path fill="none" stroke="#aabbaa" stroke-width="1.3" stroke-opacity="0.533333" d="M114.3,-215.59C102.03,-191.4 79.7,-147.36 65.15,-118.65"/>
<polygon fill="#aabbaa" fill-opacity="0.533333" stroke="#aabbaa" stroke-width="1.3" stroke-opacity="0.533333" points="68.33,-117.2 60.69,-109.87 62.09,-120.37 68.33,-117.2"/>
</g>
<!-- /lib/main.dart&#45;&gt;/lib/game_screen.dart -->
<g id="edge6" class="edge">
<title>/lib/main.dart&#45;&gt;/lib/game_screen.dart</title>
<path fill="none" stroke="#aabbaa" stroke-width="1.3" stroke-opacity="0.533333" d="M137.21,-215.7C143.7,-207.73 151.54,-198.1 158.74,-189.26"/>
<polygon fill="#aabbaa" fill-opacity="0.533333" stroke="#aabbaa" stroke-width="1.3" stroke-opacity="0.533333" points="161.35,-191.59 164.95,-181.63 155.93,-187.17 161.35,-191.59"/>
</g>
<!-- /lib/playing_card_widget.dart&#45;&gt;/lib/playing_card.dart -->
<g id="edge7" class="edge">
<title>/lib/playing_card_widget.dart&#45;&gt;/lib/playing_card.dart</title>
<path fill="none" stroke="#aabbaa" stroke-width="1.3" stroke-opacity="0.533333" d="M178.08,-71.7C169.57,-63.54 159.24,-53.63 149.85,-44.62"/>
<polygon fill="#aabbaa" fill-opacity="0.533333" stroke="#aabbaa" stroke-width="1.3" stroke-opacity="0.533333" points="152.28,-42.1 142.64,-37.71 147.43,-47.16 152.28,-42.1"/>
</g>
<!-- /lib/widgets/table_surface.dart -->
<g id="node7" class="node">
<title>/lib/widgets/table_surface.dart</title>
<path fill="Lavender" stroke="black" stroke-width="1.3" d="M281.12,-324C281.12,-324 199.12,-324 199.12,-324 193.12,-324 187.12,-318 187.12,-312 187.12,-312 187.12,-300 187.12,-300 187.12,-294 193.12,-288 199.12,-288 199.12,-288 281.12,-288 281.12,-288 287.12,-288 293.12,-294 293.12,-300 293.12,-300 293.12,-312 293.12,-312 293.12,-318 287.12,-324 281.12,-324"/>
<text text-anchor="middle" x="240.12" y="-300.75" font-family="Arial" font-size="15.00">table_surface</text>
</g>
<!-- /test/widget_test.dart -->
<g id="node8" class="node">
<title>/test/widget_test.dart</title>
<path fill="Lavender" stroke="black" stroke-width="1.3" d="M157,-324C157,-324 89.25,-324 89.25,-324 83.25,-324 77.25,-318 77.25,-312 77.25,-312 77.25,-300 77.25,-300 77.25,-294 83.25,-288 89.25,-288 89.25,-288 157,-288 157,-288 163,-288 169,-294 169,-300 169,-300 169,-312 169,-312 169,-318 163,-324 157,-324"/>
<text text-anchor="middle" x="123.12" y="-300.75" font-family="Arial" font-size="15.00">widget_test</text>
</g>
<!-- /test/widget_test.dart&#45;&gt;/lib/main.dart -->
<g id="edge8" class="edge">
<title>/test/widget_test.dart&#45;&gt;/lib/main.dart</title>
<path fill="none" stroke="#aabbaa" stroke-width="1.3" stroke-opacity="0.533333" d="M123.12,-287.7C123.12,-280.49 123.12,-271.93 123.12,-263.82"/>
<polygon fill="#aabbaa" fill-opacity="0.533333" stroke="#aabbaa" stroke-width="1.3" stroke-opacity="0.533333" points="126.63,-264.07 123.13,-254.07 119.63,-264.07 126.63,-264.07"/>
</g>
</g>
</svg>
