<?xml version="1.0" encoding="UTF-8" standalone="no"?>
<!DOCTYPE svg PUBLIC "-//W3C//DTD SVG 1.1//EN"
 "http://www.w3.org/Graphics/SVG/1.1/DTD/svg11.dtd">
<!-- Generated by graphviz version 12.1.2 (20240928.0832)
 -->
<!-- Pages: 1 -->
<svg width="1172pt" height="750pt"
 viewBox="0.00 0.00 1172.00 750.00" xmlns="http://www.w3.org/2000/svg" xmlns:xlink="http://www.w3.org/1999/xlink">
<g id="graph0" class="graph" transform="scale(1 1) rotate(0) translate(4 746)">
<polygon fill="white" stroke="none" points="-4,4 -4,-746 1168,-746 1168,4 -4,4"/>
<g id="clust1" class="cluster">
<title>cluster~</title>
<path fill="none" stroke="lightgray" stroke-width="2.6" d="M20,-8C20,-8 1144,-8 1144,-8 1150,-8 1156,-14 1156,-20 1156,-20 1156,-722 1156,-722 1156,-728 1150,-734 1144,-734 1144,-734 20,-734 20,-734 14,-734 8,-728 8,-722 8,-722 8,-20 8,-20 8,-14 14,-8 20,-8"/>
<text text-anchor="middle" x="582" y="-717.65" font-family="Arial Black" font-size="13.00">cards</text>
</g>
<g id="clust2" class="cluster">
<title>cluster~/test</title>
<path fill="none" stroke="lightgray" stroke-width="2.6" d="M28,-323C28,-323 156,-323 156,-323 162,-323 168,-329 168,-335 168,-335 168,-386 168,-386 168,-392 162,-398 156,-398 156,-398 28,-398 28,-398 22,-398 16,-392 16,-386 16,-386 16,-335 16,-335 16,-329 22,-323 28,-323"/>
<text text-anchor="middle" x="92" y="-381.65" font-family="Arial Black" font-size="13.00">test</text>
</g>
<g id="clust3" class="cluster">
<title>cluster~/lib</title>
<path fill="none" stroke="lightgray" stroke-width="2.6" d="M188,-16C188,-16 1136,-16 1136,-16 1142,-16 1148,-22 1148,-28 1148,-28 1148,-691 1148,-691 1148,-697 1142,-703 1136,-703 1136,-703 188,-703 188,-703 182,-703 176,-697 176,-691 176,-691 176,-28 176,-28 176,-22 182,-16 188,-16"/>
<text text-anchor="middle" x="662" y="-686.65" font-family="Arial Black" font-size="13.00">lib</text>
</g>
<g id="clust4" class="cluster">
<title>cluster~/lib/models</title>
<path fill="none" stroke="lightgray" stroke-width="2.6" d="M236,-24C236,-24 448,-24 448,-24 454,-24 460,-30 460,-36 460,-36 460,-303 460,-303 460,-309 454,-315 448,-315 448,-315 236,-315 236,-315 230,-315 224,-309 224,-303 224,-303 224,-36 224,-36 224,-30 230,-24 236,-24"/>
<text text-anchor="middle" x="342" y="-298.65" font-family="Arial Black" font-size="13.00">models</text>
</g>
<g id="clust5" class="cluster">
<title>cluster~/lib/screens</title>
<path fill="none" stroke="lightgray" stroke-width="2.6" d="M330,-406C330,-406 448,-406 448,-406 454,-406 460,-412 460,-418 460,-418 460,-616 460,-616 460,-622 454,-628 448,-628 448,-628 330,-628 330,-628 324,-628 318,-622 318,-616 318,-616 318,-418 318,-418 318,-412 324,-406 330,-406"/>
<text text-anchor="middle" x="389" y="-611.65" font-family="Arial Black" font-size="13.00">screens</text>
</g>
<g id="clust6" class="cluster">
<title>cluster~/lib/widgets</title>
<path fill="none" stroke="lightgray" stroke-width="2.6" d="M480,-168C480,-168 1128,-168 1128,-168 1134,-168 1140,-174 1140,-180 1140,-180 1140,-469 1140,-469 1140,-475 1134,-481 1128,-481 1128,-481 480,-481 480,-481 474,-481 468,-475 468,-469 468,-469 468,-180 468,-180 468,-174 474,-168 480,-168"/>
<text text-anchor="middle" x="804" y="-464.65" font-family="Arial Black" font-size="13.00">widgets</text>
</g>
<!-- /test/game_model_test.dart -->
<g id="node1" class="node">
<title>/test/game_model_test.dart</title>
<path fill="Lavender" stroke="black" stroke-width="1.3" d="M147.62,-367C147.62,-367 36.38,-367 36.38,-367 30.38,-367 24.38,-361 24.38,-355 24.38,-355 24.38,-343 24.38,-343 24.38,-337 30.38,-331 36.38,-331 36.38,-331 147.62,-331 147.62,-331 153.62,-331 159.62,-337 159.62,-343 159.62,-343 159.62,-355 159.62,-355 159.62,-361 153.62,-367 147.62,-367"/>
<text text-anchor="middle" x="92" y="-343.75" font-family="Arial" font-size="15.00">game_model_test</text>
</g>
<!-- /lib/models/game_model.dart -->
<g id="node4" class="node">
<title>/lib/models/game_model.dart</title>
<path fill="Lavender" stroke="black" stroke-width="1.3" d="M440.12,-284C440.12,-284 361.88,-284 361.88,-284 355.88,-284 349.88,-278 349.88,-272 349.88,-272 349.88,-260 349.88,-260 349.88,-254 355.88,-248 361.88,-248 361.88,-248 440.12,-248 440.12,-248 446.12,-248 452.12,-254 452.12,-260 452.12,-260 452.12,-272 452.12,-272 452.12,-278 446.12,-284 440.12,-284"/>
<text text-anchor="middle" x="401" y="-260.75" font-family="Arial" font-size="15.00">game_model</text>
</g>
<!-- /test/game_model_test.dart&#45;&gt;/lib/models/game_model.dart -->
<g id="edge1" class="edge">
<title>/test/game_model_test.dart&#45;&gt;/lib/models/game_model.dart</title>
<path fill="none" stroke="#aabbaa" stroke-width="1.3" stroke-opacity="0.533333" d="M158.67,-330.52C211.94,-316.56 286.09,-297.12 338.29,-283.44"/>
<polygon fill="#aabbaa" fill-opacity="0.533333" stroke="#aabbaa" stroke-width="1.3" stroke-opacity="0.533333" points="339.05,-286.86 347.84,-280.94 337.28,-280.09 339.05,-286.86"/>
</g>
<!-- /lib/firebase_options_private.dart -->
<g id="node2" class="node">
<title>/lib/firebase_options_private.dart</title>
<path fill="Lavender" stroke="black" stroke-width="1.3" d="M350.38,-672C350.38,-672 195.62,-672 195.62,-672 189.62,-672 183.62,-666 183.62,-660 183.62,-660 183.62,-648 183.62,-648 183.62,-642 189.62,-636 195.62,-636 195.62,-636 350.38,-636 350.38,-636 356.38,-636 362.38,-642 362.38,-648 362.38,-648 362.38,-660 362.38,-660 362.38,-666 356.38,-672 350.38,-672"/>
<text text-anchor="middle" x="273" y="-648.75" font-family="Arial" font-size="15.00">firebase_options_private</text>
</g>
<!-- /lib/firebase_options.dart -->
<g id="node3" class="node">
<title>/lib/firebase_options.dart</title>
<path fill="Lavender" stroke="black" stroke-width="1.3" d="M297.75,-597C297.75,-597 196.25,-597 196.25,-597 190.25,-597 184.25,-591 184.25,-585 184.25,-585 184.25,-573 184.25,-573 184.25,-567 190.25,-561 196.25,-561 196.25,-561 297.75,-561 297.75,-561 303.75,-561 309.75,-567 309.75,-573 309.75,-573 309.75,-585 309.75,-585 309.75,-591 303.75,-597 297.75,-597"/>
<text text-anchor="middle" x="247" y="-573.75" font-family="Arial" font-size="15.00">firebase_options</text>
</g>
<!-- /lib/models/game_over_dialog.dart -->
<g id="node5" class="node">
<title>/lib/models/game_over_dialog.dart</title>
<path fill="Lavender" stroke="black" stroke-width="1.3" d="M358.12,-212C358.12,-212 243.88,-212 243.88,-212 237.88,-212 231.88,-206 231.88,-200 231.88,-200 231.88,-188 231.88,-188 231.88,-182 237.88,-176 243.88,-176 243.88,-176 358.12,-176 358.12,-176 364.12,-176 370.12,-182 370.12,-188 370.12,-188 370.12,-200 370.12,-200 370.12,-206 364.12,-212 358.12,-212"/>
<text text-anchor="middle" x="301" y="-188.75" font-family="Arial" font-size="15.00">game_over_dialog</text>
</g>
<!-- /lib/models/game_model.dart&#45;&gt;/lib/models/game_over_dialog.dart -->
<g id="edge3" class="edge">
<title>/lib/models/game_model.dart&#45;&gt;/lib/models/game_over_dialog.dart</title>
<path fill="none" stroke="#aabbaa" stroke-width="1.3" stroke-opacity="0.533333" d="M376.02,-247.52C363.76,-238.93 348.79,-228.46 335.46,-219.12"/>
<polygon fill="#aabbaa" fill-opacity="0.533333" stroke="#aabbaa" stroke-width="1.3" stroke-opacity="0.533333" points="337.47,-216.26 327.27,-213.39 333.46,-221.99 337.47,-216.26"/>
</g>
<!-- /lib/models/player_model.dart -->
<g id="node6" class="node">
<title>/lib/models/player_model.dart</title>
<path fill="Lavender" stroke="black" stroke-width="1.3" d="M325.62,-140C325.62,-140 244.38,-140 244.38,-140 238.38,-140 232.38,-134 232.38,-128 232.38,-128 232.38,-116 232.38,-116 232.38,-110 238.38,-104 244.38,-104 244.38,-104 325.62,-104 325.62,-104 331.62,-104 337.62,-110 337.62,-116 337.62,-116 337.62,-128 337.62,-128 337.62,-134 331.62,-140 325.62,-140"/>
<text text-anchor="middle" x="285" y="-116.75" font-family="Arial" font-size="15.00">player_model</text>
</g>
<!-- /lib/models/game_model.dart&#45;&gt;/lib/models/player_model.dart -->
<g id="edge4" class="edge">
<title>/lib/models/game_model.dart&#45;&gt;/lib/models/player_model.dart</title>
<path fill="none" stroke="#aabbaa" stroke-width="1.3" stroke-opacity="0.533333" d="M395.11,-247.65C392.05,-226.6 388.42,-191.08 370,-168 362.88,-159.08 353.56,-151.82 343.69,-145.95"/>
<polygon fill="#aabbaa" fill-opacity="0.533333" stroke="#aabbaa" stroke-width="1.3" stroke-opacity="0.533333" points="345.47,-142.94 335.01,-141.26 342.14,-149.09 345.47,-142.94"/>
</g>
<!-- /lib/models/game_model.dart&#45;&gt;/lib/models/player_model.dart -->
<g id="edge6" class="edge">
<title>/lib/models/game_model.dart&#45;&gt;/lib/models/player_model.dart</title>
<path fill="none" stroke="#aabbaa" stroke-width="1.3" stroke-dasharray="5,2" stroke-opacity="0.533333" d="M407.74,-247.65C410.05,-226.6 406.42,-191.08 388,-168 378.01,-155.48 363.69,-146.24 348.86,-139.51"/>
<polygon fill="#aabbaa" fill-opacity="0.533333" stroke="#aabbaa" stroke-width="1.3" stroke-opacity="0.533333" points="350.42,-136.37 339.84,-135.79 347.75,-142.84 350.42,-136.37"/>
</g>
<!-- /lib/models/deck_model.dart -->
<g id="node8" class="node">
<title>/lib/models/deck_model.dart</title>
<path fill="Lavender" stroke="black" stroke-width="1.3" d="M440.12,-140C440.12,-140 367.88,-140 367.88,-140 361.88,-140 355.88,-134 355.88,-128 355.88,-128 355.88,-116 355.88,-116 355.88,-110 361.88,-104 367.88,-104 367.88,-104 440.12,-104 440.12,-104 446.12,-104 452.12,-110 452.12,-116 452.12,-116 452.12,-128 452.12,-128 452.12,-134 446.12,-140 440.12,-140"/>
<text text-anchor="middle" x="404" y="-116.75" font-family="Arial" font-size="15.00">deck_model</text>
</g>
<!-- /lib/models/game_model.dart&#45;&gt;/lib/models/deck_model.dart -->
<g id="edge2" class="edge">
<title>/lib/models/game_model.dart&#45;&gt;/lib/models/deck_model.dart</title>
<path fill="none" stroke="#aabbaa" stroke-width="1.3" stroke-opacity="0.533333" d="M396.75,-247.59C394.77,-223.72 395.37,-180.53 397.84,-151.8"/>
<polygon fill="#aabbaa" fill-opacity="0.533333" stroke="#aabbaa" stroke-width="1.3" stroke-opacity="0.533333" points="401.3,-152.38 398.85,-142.07 394.34,-151.65 401.3,-152.38"/>
</g>
<!-- /lib/models/game_model.dart&#45;&gt;/lib/models/deck_model.dart -->
<g id="edge5" class="edge">
<title>/lib/models/game_model.dart&#45;&gt;/lib/models/deck_model.dart</title>
<path fill="none" stroke="#aabbaa" stroke-width="1.3" stroke-dasharray="5,2" stroke-opacity="0.533333" d="M405.98,-247.59C408.98,-223.72 410.2,-180.53 408.94,-151.8"/>
<polygon fill="#aabbaa" fill-opacity="0.533333" stroke="#aabbaa" stroke-width="1.3" stroke-opacity="0.533333" points="412.45,-151.84 408.34,-142.07 405.47,-152.27 412.45,-151.84"/>
</g>
<!-- /lib/models/game_over_dialog.dart&#45;&gt;/lib/models/player_model.dart -->
<g id="edge7" class="edge">
<title>/lib/models/game_over_dialog.dart&#45;&gt;/lib/models/player_model.dart</title>
<path fill="none" stroke="#aabbaa" stroke-width="1.3" stroke-opacity="0.533333" d="M297.04,-175.7C295.38,-168.41 293.39,-159.73 291.52,-151.54"/>
<polygon fill="#aabbaa" fill-opacity="0.533333" stroke="#aabbaa" stroke-width="1.3" stroke-opacity="0.533333" points="294.99,-150.99 289.35,-142.02 288.16,-152.55 294.99,-150.99"/>
</g>
<!-- /lib/models/card_model.dart -->
<g id="node7" class="node">
<title>/lib/models/card_model.dart</title>
<path fill="Lavender" stroke="black" stroke-width="1.3" d="M439,-68C439,-68 369,-68 369,-68 363,-68 357,-62 357,-56 357,-56 357,-44 357,-44 357,-38 363,-32 369,-32 369,-32 439,-32 439,-32 445,-32 451,-38 451,-44 451,-44 451,-56 451,-56 451,-62 445,-68 439,-68"/>
<text text-anchor="middle" x="404" y="-44.75" font-family="Arial" font-size="15.00">card_model</text>
</g>
<!-- /lib/models/player_model.dart&#45;&gt;/lib/models/card_model.dart -->
<g id="edge8" class="edge">
<title>/lib/models/player_model.dart&#45;&gt;/lib/models/card_model.dart</title>
<path fill="none" stroke="#aabbaa" stroke-width="1.3" stroke-opacity="0.533333" d="M308.79,-103.52C323.05,-94.6 341.54,-83.63 358.46,-74.03"/>
<polygon fill="#aabbaa" fill-opacity="0.533333" stroke="#aabbaa" stroke-width="1.3" stroke-opacity="0.533333" points="360.02,-77.17 367.03,-69.22 356.6,-71.06 360.02,-77.17"/>
</g>
<!-- /lib/models/player_model.dart&#45;&gt;/lib/models/card_model.dart -->
<g id="edge9" class="edge">
<title>/lib/models/player_model.dart&#45;&gt;/lib/models/card_model.dart</title>
<path fill="none" stroke="#aabbaa" stroke-width="1.3" stroke-dasharray="5,2" stroke-opacity="0.533333" d="M320.66,-103.52C336.58,-94.68 355.17,-83.84 370.79,-74.3"/>
<polygon fill="#aabbaa" fill-opacity="0.533333" stroke="#aabbaa" stroke-width="1.3" stroke-opacity="0.533333" points="372.23,-77.53 378.89,-69.29 368.55,-71.57 372.23,-77.53"/>
</g>
<!-- /lib/models/deck_model.dart&#45;&gt;/lib/models/card_model.dart -->
<g id="edge10" class="edge">
<title>/lib/models/deck_model.dart&#45;&gt;/lib/models/card_model.dart</title>
<path fill="none" stroke="#aabbaa" stroke-width="1.3" stroke-opacity="0.533333" d="M398.08,-103.7C397.34,-96.49 397.09,-87.93 397.34,-79.82"/>
<polygon fill="#aabbaa" fill-opacity="0.533333" stroke="#aabbaa" stroke-width="1.3" stroke-opacity="0.533333" points="400.82,-80.27 397.98,-70.07 393.84,-79.82 400.82,-80.27"/>
</g>
<!-- /lib/models/deck_model.dart&#45;&gt;/lib/models/card_model.dart -->
<g id="edge11" class="edge">
<title>/lib/models/deck_model.dart&#45;&gt;/lib/models/card_model.dart</title>
<path fill="none" stroke="#aabbaa" stroke-width="1.3" stroke-dasharray="5,2" stroke-opacity="0.533333" d="M409.92,-103.7C410.66,-96.49 410.91,-87.93 410.66,-79.82"/>
<polygon fill="#aabbaa" fill-opacity="0.533333" stroke="#aabbaa" stroke-width="1.3" stroke-opacity="0.533333" points="414.16,-79.82 410.02,-70.07 407.18,-80.27 414.16,-79.82"/>
</g>
<!-- /lib/screens/game_screen.dart -->
<g id="node9" class="node">
<title>/lib/screens/game_screen.dart</title>
<path fill="Lavender" stroke="black" stroke-width="1.3" d="M440.38,-525C440.38,-525 357.62,-525 357.62,-525 351.62,-525 345.62,-519 345.62,-513 345.62,-513 345.62,-501 345.62,-501 345.62,-495 351.62,-489 357.62,-489 357.62,-489 440.38,-489 440.38,-489 446.38,-489 452.38,-495 452.38,-501 452.38,-501 452.38,-513 452.38,-513 452.38,-519 446.38,-525 440.38,-525"/>
<text text-anchor="middle" x="399" y="-501.75" font-family="Arial" font-size="15.00">game_screen</text>
</g>
<!-- /lib/screens/game_screen.dart&#45;&gt;/lib/models/game_model.dart -->
<g id="edge12" class="edge">
<title>/lib/screens/game_screen.dart&#45;&gt;/lib/models/game_model.dart</title>
<path fill="none" stroke="#aabbaa" stroke-width="1.3" stroke-opacity="0.533333" d="M399.14,-488.81C399.48,-448.34 400.33,-346.69 400.75,-296.28"/>
<polygon fill="#aabbaa" fill-opacity="0.533333" stroke="#aabbaa" stroke-width="1.3" stroke-opacity="0.533333" points="404.25,-296.35 400.84,-286.32 397.25,-296.29 404.25,-296.35"/>
</g>
<!-- /lib/screens/screen.dart -->
<g id="node11" class="node">
<title>/lib/screens/screen.dart</title>
<path fill="Lavender" stroke="black" stroke-width="1.3" d="M375.5,-450C375.5,-450 338.5,-450 338.5,-450 332.5,-450 326.5,-444 326.5,-438 326.5,-438 326.5,-426 326.5,-426 326.5,-420 332.5,-414 338.5,-414 338.5,-414 375.5,-414 375.5,-414 381.5,-414 387.5,-420 387.5,-426 387.5,-426 387.5,-438 387.5,-438 387.5,-444 381.5,-450 375.5,-450"/>
<text text-anchor="middle" x="357" y="-426.75" font-family="Arial" font-size="15.00">screen</text>
</g>
<!-- /lib/screens/game_screen.dart&#45;&gt;/lib/screens/screen.dart -->
<g id="edge13" class="edge">
<title>/lib/screens/game_screen.dart&#45;&gt;/lib/screens/screen.dart</title>
<path fill="none" stroke="#aabbaa" stroke-width="1.3" stroke-opacity="0.533333" d="M389.05,-488.7C384.22,-480.31 378.3,-470.02 372.87,-460.58"/>
<polygon fill="#aabbaa" fill-opacity="0.533333" stroke="#aabbaa" stroke-width="1.3" stroke-opacity="0.533333" points="376.03,-459.06 368.01,-452.13 369.96,-462.55 376.03,-459.06"/>
</g>
<!-- /lib/widgets/player_zone_widget.dart -->
<g id="node18" class="node">
<title>/lib/widgets/player_zone_widget.dart</title>
<path fill="Lavender" stroke="black" stroke-width="1.3" d="M790,-450C790,-450 666,-450 666,-450 660,-450 654,-444 654,-438 654,-438 654,-426 654,-426 654,-420 660,-414 666,-414 666,-414 790,-414 790,-414 796,-414 802,-420 802,-426 802,-426 802,-438 802,-438 802,-444 796,-450 790,-450"/>
<text text-anchor="middle" x="728" y="-426.75" font-family="Arial" font-size="15.00">player_zone_widget</text>
</g>
<!-- /lib/screens/game_screen.dart&#45;&gt;/lib/widgets/player_zone_widget.dart -->
<g id="edge14" class="edge">
<title>/lib/screens/game_screen.dart&#45;&gt;/lib/widgets/player_zone_widget.dart</title>
<path fill="none" stroke="#aabbaa" stroke-width="1.3" stroke-opacity="0.533333" d="M452.69,-503.18C514.05,-499.5 610.43,-492.18 645,-481 662.21,-475.44 679.75,-465.95 694.26,-456.87"/>
<polygon fill="#aabbaa" fill-opacity="0.533333" stroke="#aabbaa" stroke-width="1.3" stroke-opacity="0.533333" points="696.1,-459.85 702.58,-451.47 692.29,-453.98 696.1,-459.85"/>
</g>
<!-- /lib/screens/setup_screen.dart -->
<g id="node10" class="node">
<title>/lib/screens/setup_screen.dart</title>
<path fill="Lavender" stroke="black" stroke-width="1.3" d="M440,-597C440,-597 358,-597 358,-597 352,-597 346,-591 346,-585 346,-585 346,-573 346,-573 346,-567 352,-561 358,-561 358,-561 440,-561 440,-561 446,-561 452,-567 452,-573 452,-573 452,-585 452,-585 452,-591 446,-597 440,-597"/>
<text text-anchor="middle" x="399" y="-573.75" font-family="Arial" font-size="15.00">setup_screen</text>
</g>
<!-- /lib/screens/setup_screen.dart&#45;&gt;/lib/models/game_model.dart -->
<g id="edge15" class="edge">
<title>/lib/screens/setup_screen.dart&#45;&gt;/lib/models/game_model.dart</title>
<path fill="none" stroke="#aabbaa" stroke-width="1.3" stroke-opacity="0.533333" d="M428.83,-560.7C441.21,-551.78 454.24,-539.66 461,-525 467.7,-510.47 463.11,-504.86 461,-489 451.56,-417.86 425.79,-337.17 411.28,-295.41"/>
<polygon fill="#aabbaa" fill-opacity="0.533333" stroke="#aabbaa" stroke-width="1.3" stroke-opacity="0.533333" points="414.62,-294.36 408,-286.09 408.02,-296.69 414.62,-294.36"/>
</g>
<!-- /lib/screens/setup_screen.dart&#45;&gt;/lib/screens/game_screen.dart -->
<g id="edge16" class="edge">
<title>/lib/screens/setup_screen.dart&#45;&gt;/lib/screens/game_screen.dart</title>
<path fill="none" stroke="#aabbaa" stroke-width="1.3" stroke-opacity="0.533333" d="M399,-560.7C399,-553.49 399,-544.93 399,-536.82"/>
<polygon fill="#aabbaa" fill-opacity="0.533333" stroke="#aabbaa" stroke-width="1.3" stroke-opacity="0.533333" points="402.5,-537.07 399,-527.07 395.5,-537.07 402.5,-537.07"/>
</g>
<!-- /lib/screens/setup_screen.dart&#45;&gt;/lib/screens/screen.dart -->
<g id="edge17" class="edge">
<title>/lib/screens/setup_screen.dart&#45;&gt;/lib/screens/screen.dart</title>
<path fill="none" stroke="#aabbaa" stroke-width="1.3" stroke-opacity="0.533333" d="M369.17,-560.7C356.79,-551.78 343.76,-539.66 337,-525 327.65,-504.72 333.98,-479.87 341.92,-461.12"/>
<polygon fill="#aabbaa" fill-opacity="0.533333" stroke="#aabbaa" stroke-width="1.3" stroke-opacity="0.533333" points="345.06,-462.65 346.11,-452.11 338.72,-459.7 345.06,-462.65"/>
</g>
<!-- /lib/widgets/players_in_room_widget.dart -->
<g id="node17" class="node">
<title>/lib/widgets/players_in_room_widget.dart</title>
<path fill="Lavender" stroke="black" stroke-width="1.3" d="M985.62,-450C985.62,-450 832.38,-450 832.38,-450 826.38,-450 820.38,-444 820.38,-438 820.38,-438 820.38,-426 820.38,-426 820.38,-420 826.38,-414 832.38,-414 832.38,-414 985.62,-414 985.62,-414 991.62,-414 997.62,-420 997.62,-426 997.62,-426 997.62,-438 997.62,-438 997.62,-444 991.62,-450 985.62,-450"/>
<text text-anchor="middle" x="909" y="-426.75" font-family="Arial" font-size="15.00">players_in_room_widget</text>
</g>
<!-- /lib/screens/setup_screen.dart&#45;&gt;/lib/widgets/players_in_room_widget.dart -->
<g id="edge18" class="edge">
<title>/lib/screens/setup_screen.dart&#45;&gt;/lib/widgets/players_in_room_widget.dart</title>
<path fill="none" stroke="#aabbaa" stroke-width="1.3" stroke-opacity="0.533333" d="M452.45,-569.37C532.09,-555.64 685.93,-525.71 811,-481 830.21,-474.13 850.59,-464.55 867.76,-455.76"/>
<polygon fill="#aabbaa" fill-opacity="0.533333" stroke="#aabbaa" stroke-width="1.3" stroke-opacity="0.533333" points="869.01,-459.05 876.26,-451.32 865.77,-452.85 869.01,-459.05"/>
</g>
<!-- /lib/widgets/text_url_widget.dart -->
<g id="node20" class="node">
<title>/lib/widgets/text_url_widget.dart</title>
<path fill="Lavender" stroke="black" stroke-width="1.3" d="M1120.25,-450C1120.25,-450 1027.75,-450 1027.75,-450 1021.75,-450 1015.75,-444 1015.75,-438 1015.75,-438 1015.75,-426 1015.75,-426 1015.75,-420 1021.75,-414 1027.75,-414 1027.75,-414 1120.25,-414 1120.25,-414 1126.25,-414 1132.25,-420 1132.25,-426 1132.25,-426 1132.25,-438 1132.25,-438 1132.25,-444 1126.25,-450 1120.25,-450"/>
<text text-anchor="middle" x="1074" y="-426.75" font-family="Arial" font-size="15.00">text_url_widget</text>
</g>
<!-- /lib/screens/setup_screen.dart&#45;&gt;/lib/widgets/text_url_widget.dart -->
<g id="edge19" class="edge">
<title>/lib/screens/setup_screen.dart&#45;&gt;/lib/widgets/text_url_widget.dart</title>
<path fill="none" stroke="#aabbaa" stroke-width="1.3" stroke-opacity="0.533333" d="M452.44,-577.62C561.06,-575.12 813.72,-560.44 1007,-481 1020.72,-475.36 1034.31,-466.42 1045.63,-457.78"/>
<polygon fill="#aabbaa" fill-opacity="0.533333" stroke="#aabbaa" stroke-width="1.3" stroke-opacity="0.533333" points="1047.77,-460.55 1053.4,-451.58 1043.4,-455.08 1047.77,-460.55"/>
</g>
<!-- /lib/main.dart -->
<g id="node12" class="node">
<title>/lib/main.dart</title>
<path fill="Lavender" stroke="black" stroke-width="1.3" d="M422,-672C422,-672 392,-672 392,-672 386,-672 380,-666 380,-660 380,-660 380,-648 380,-648 380,-642 386,-636 392,-636 392,-636 422,-636 422,-636 428,-636 434,-642 434,-648 434,-648 434,-660 434,-660 434,-666 428,-672 422,-672"/>
<text text-anchor="middle" x="407" y="-648.75" font-family="Arial" font-size="15.00">main</text>
</g>
<!-- /lib/main.dart&#45;&gt;/lib/firebase_options.dart -->
<g id="edge20" class="edge">
<title>/lib/main.dart&#45;&gt;/lib/firebase_options.dart</title>
<path fill="none" stroke="#aabbaa" stroke-width="1.3" stroke-opacity="0.533333" d="M379.82,-639.12C376.89,-637.94 373.91,-636.87 371,-636 346.49,-628.68 337.75,-637.5 314,-628 300.23,-622.49 286.63,-613.58 275.32,-604.92"/>
<polygon fill="#aabbaa" fill-opacity="0.533333" stroke="#aabbaa" stroke-width="1.3" stroke-opacity="0.533333" points="277.54,-602.22 267.55,-598.69 273.17,-607.68 277.54,-602.22"/>
</g>
<!-- /lib/main.dart&#45;&gt;/lib/screens/setup_screen.dart -->
<g id="edge21" class="edge">
<title>/lib/main.dart&#45;&gt;/lib/screens/setup_screen.dart</title>
<path fill="none" stroke="#aabbaa" stroke-width="1.3" stroke-opacity="0.533333" d="M405.1,-635.7C404.23,-627.76 403.18,-618.12 402.19,-609.11"/>
<polygon fill="#aabbaa" fill-opacity="0.533333" stroke="#aabbaa" stroke-width="1.3" stroke-opacity="0.533333" points="405.69,-608.94 401.12,-599.38 398.73,-609.71 405.69,-608.94"/>
</g>
<!-- /lib/widgets/player_zone_cta_widget.dart -->
<g id="node13" class="node">
<title>/lib/widgets/player_zone_cta_widget.dart</title>
<path fill="Lavender" stroke="black" stroke-width="1.3" d="M830.25,-367C830.25,-367 677.75,-367 677.75,-367 671.75,-367 665.75,-361 665.75,-355 665.75,-355 665.75,-343 665.75,-343 665.75,-337 671.75,-331 677.75,-331 677.75,-331 830.25,-331 830.25,-331 836.25,-331 842.25,-337 842.25,-343 842.25,-343 842.25,-355 842.25,-355 842.25,-361 836.25,-367 830.25,-367"/>
<text text-anchor="middle" x="754" y="-343.75" font-family="Arial" font-size="15.00">player_zone_cta_widget</text>
</g>
<!-- /lib/widgets/player_zone_cta_widget.dart&#45;&gt;/lib/models/game_model.dart -->
<g id="edge22" class="edge">
<title>/lib/widgets/player_zone_cta_widget.dart&#45;&gt;/lib/models/game_model.dart</title>
<path fill="none" stroke="#aabbaa" stroke-width="1.3" stroke-opacity="0.533333" d="M694.38,-330.53C682.11,-327.53 669.21,-324.81 657,-323 614.54,-316.72 504.38,-329.57 464,-315 450.29,-310.06 437.14,-300.98 426.43,-292.04"/>
<polygon fill="#aabbaa" fill-opacity="0.533333" stroke="#aabbaa" stroke-width="1.3" stroke-opacity="0.533333" points="428.98,-289.63 419.17,-285.63 424.35,-294.87 428.98,-289.63"/>
</g>
<!-- /lib/widgets/card_widget.dart -->
<g id="node15" class="node">
<title>/lib/widgets/card_widget.dart</title>
<path fill="Lavender" stroke="black" stroke-width="1.3" d="M853.12,-212C853.12,-212 780.88,-212 780.88,-212 774.88,-212 768.88,-206 768.88,-200 768.88,-200 768.88,-188 768.88,-188 768.88,-182 774.88,-176 780.88,-176 780.88,-176 853.12,-176 853.12,-176 859.12,-176 865.12,-182 865.12,-188 865.12,-188 865.12,-200 865.12,-200 865.12,-206 859.12,-212 853.12,-212"/>
<text text-anchor="middle" x="817" y="-188.75" font-family="Arial" font-size="15.00">card_widget</text>
</g>
<!-- /lib/widgets/player_zone_cta_widget.dart&#45;&gt;/lib/widgets/card_widget.dart -->
<g id="edge26" class="edge">
<title>/lib/widgets/player_zone_cta_widget.dart&#45;&gt;/lib/widgets/card_widget.dart</title>
<path fill="none" stroke="#aabbaa" stroke-width="1.3" stroke-opacity="0.533333" d="M782.86,-330.73C788.31,-326.25 793.42,-320.97 797,-315 813.65,-287.27 817.53,-249.78 817.97,-224.13"/>
<polygon fill="#aabbaa" fill-opacity="0.533333" stroke="#aabbaa" stroke-width="1.3" stroke-opacity="0.533333" points="821.47,-224.2 817.95,-214.21 814.47,-224.22 821.47,-224.2"/>
</g>
<!-- /lib/widgets/card_piles_widget.dart -->
<g id="node19" class="node">
<title>/lib/widgets/card_piles_widget.dart</title>
<path fill="Lavender" stroke="black" stroke-width="1.3" d="M598.25,-284C598.25,-284 487.75,-284 487.75,-284 481.75,-284 475.75,-278 475.75,-272 475.75,-272 475.75,-260 475.75,-260 475.75,-254 481.75,-248 487.75,-248 487.75,-248 598.25,-248 598.25,-248 604.25,-248 610.25,-254 610.25,-260 610.25,-260 610.25,-272 610.25,-272 610.25,-278 604.25,-284 598.25,-284"/>
<text text-anchor="middle" x="543" y="-260.75" font-family="Arial" font-size="15.00">card_piles_widget</text>
</g>
<!-- /lib/widgets/player_zone_cta_widget.dart&#45;&gt;/lib/widgets/card_piles_widget.dart -->
<g id="edge25" class="edge">
<title>/lib/widgets/player_zone_cta_widget.dart&#45;&gt;/lib/widgets/card_piles_widget.dart</title>
<path fill="none" stroke="#aabbaa" stroke-width="1.3" stroke-opacity="0.533333" d="M687.83,-330.52C677.53,-327.93 666.99,-325.34 657,-323 640.19,-319.07 634.99,-321.49 619,-315 603.94,-308.89 588.55,-299.81 575.6,-291.18"/>
<polygon fill="#aabbaa" fill-opacity="0.533333" stroke="#aabbaa" stroke-width="1.3" stroke-opacity="0.533333" points="577.63,-288.33 567.4,-285.54 573.66,-294.09 577.63,-288.33"/>
</g>
<!-- /lib/widgets/blink_widget.dart -->
<g id="node21" class="node">
<title>/lib/widgets/blink_widget.dart</title>
<path fill="Lavender" stroke="black" stroke-width="1.3" d="M738.5,-212C738.5,-212 665.5,-212 665.5,-212 659.5,-212 653.5,-206 653.5,-200 653.5,-200 653.5,-188 653.5,-188 653.5,-182 659.5,-176 665.5,-176 665.5,-176 738.5,-176 738.5,-176 744.5,-176 750.5,-182 750.5,-188 750.5,-188 750.5,-200 750.5,-200 750.5,-206 744.5,-212 738.5,-212"/>
<text text-anchor="middle" x="702" y="-188.75" font-family="Arial" font-size="15.00">blink_widget</text>
</g>
<!-- /lib/widgets/player_zone_cta_widget.dart&#45;&gt;/lib/widgets/blink_widget.dart -->
<g id="edge23" class="edge">
<title>/lib/widgets/player_zone_cta_widget.dart&#45;&gt;/lib/widgets/blink_widget.dart</title>
<path fill="none" stroke="#aabbaa" stroke-width="1.3" stroke-opacity="0.533333" d="M776.17,-330.79C780.57,-326.18 784.58,-320.84 787,-315 798.4,-287.49 801.45,-274.04 787,-248 780.21,-235.76 769.29,-225.98 757.51,-218.32"/>
<polygon fill="#aabbaa" fill-opacity="0.533333" stroke="#aabbaa" stroke-width="1.3" stroke-opacity="0.533333" points="759.56,-215.47 749.17,-213.38 755.99,-221.49 759.56,-215.47"/>
</g>
<!-- /lib/widgets/blinking_text_widget.dart -->
<g id="node22" class="node">
<title>/lib/widgets/blinking_text_widget.dart</title>
<path fill="Lavender" stroke="black" stroke-width="1.3" d="M765.75,-284C765.75,-284 640.25,-284 640.25,-284 634.25,-284 628.25,-278 628.25,-272 628.25,-272 628.25,-260 628.25,-260 628.25,-254 634.25,-248 640.25,-248 640.25,-248 765.75,-248 765.75,-248 771.75,-248 777.75,-254 777.75,-260 777.75,-260 777.75,-272 777.75,-272 777.75,-278 771.75,-284 765.75,-284"/>
<text text-anchor="middle" x="703" y="-260.75" font-family="Arial" font-size="15.00">blinking_text_widget</text>
</g>
<!-- /lib/widgets/player_zone_cta_widget.dart&#45;&gt;/lib/widgets/blinking_text_widget.dart -->
<g id="edge24" class="edge">
<title>/lib/widgets/player_zone_cta_widget.dart&#45;&gt;/lib/widgets/blinking_text_widget.dart</title>
<path fill="none" stroke="#aabbaa" stroke-width="1.3" stroke-opacity="0.533333" d="M743.18,-330.82C736.54,-320.26 727.87,-306.49 720.28,-294.45"/>
<polygon fill="#aabbaa" fill-opacity="0.533333" stroke="#aabbaa" stroke-width="1.3" stroke-opacity="0.533333" points="723.31,-292.7 715.02,-286.1 717.39,-296.42 723.31,-292.7"/>
</g>
<!-- /lib/widgets/table_surface_painter.dart -->
<g id="node14" class="node">
<title>/lib/widgets/table_surface_painter.dart</title>
<path fill="Lavender" stroke="black" stroke-width="1.3" d="M624,-450C624,-450 488,-450 488,-450 482,-450 476,-444 476,-438 476,-438 476,-426 476,-426 476,-420 482,-414 488,-414 488,-414 624,-414 624,-414 630,-414 636,-420 636,-426 636,-426 636,-438 636,-438 636,-444 630,-450 624,-450"/>
<text text-anchor="middle" x="556" y="-426.75" font-family="Arial" font-size="15.00">table_surface_painter</text>
</g>
<!-- /lib/widgets/card_widget.dart&#45;&gt;/lib/models/card_model.dart -->
<g id="edge27" class="edge">
<title>/lib/widgets/card_widget.dart&#45;&gt;/lib/models/card_model.dart</title>
<path fill="none" stroke="#aabbaa" stroke-width="1.3" stroke-opacity="0.533333" d="M778.57,-175.55C772.4,-172.92 766.06,-170.32 760,-168 656.83,-128.52 533.9,-89.94 462.82,-68.44"/>
<polygon fill="#aabbaa" fill-opacity="0.533333" stroke="#aabbaa" stroke-width="1.3" stroke-opacity="0.533333" points="463.91,-65.11 453.32,-65.57 461.89,-71.81 463.91,-65.11"/>
</g>
<!-- /lib/widgets/player_header_widget.dart -->
<g id="node16" class="node">
<title>/lib/widgets/player_header_widget.dart</title>
<path fill="Lavender" stroke="black" stroke-width="1.3" d="M636.12,-367C636.12,-367 497.88,-367 497.88,-367 491.88,-367 485.88,-361 485.88,-355 485.88,-355 485.88,-343 485.88,-343 485.88,-337 491.88,-331 497.88,-331 497.88,-331 636.12,-331 636.12,-331 642.12,-331 648.12,-337 648.12,-343 648.12,-343 648.12,-355 648.12,-355 648.12,-361 642.12,-367 636.12,-367"/>
<text text-anchor="middle" x="567" y="-343.75" font-family="Arial" font-size="15.00">player_header_widget</text>
</g>
<!-- /lib/widgets/player_zone_widget.dart&#45;&gt;/lib/models/game_model.dart -->
<g id="edge28" class="edge">
<title>/lib/widgets/player_zone_widget.dart&#45;&gt;/lib/models/game_model.dart</title>
<path fill="none" stroke="#aabbaa" stroke-width="1.3" stroke-opacity="0.533333" d="M677.11,-413.54C666.6,-410.54 655.53,-407.81 645,-406 626.58,-402.84 491.9,-409.28 477,-398 448.99,-376.78 469.77,-353.31 452,-323 445.67,-312.19 436.98,-301.68 428.58,-292.73"/>
<polygon fill="#aabbaa" fill-opacity="0.533333" stroke="#aabbaa" stroke-width="1.3" stroke-opacity="0.533333" points="431.24,-290.45 421.74,-285.76 426.25,-295.35 431.24,-290.45"/>
</g>
<!-- /lib/widgets/player_zone_widget.dart&#45;&gt;/lib/widgets/player_zone_cta_widget.dart -->
<g id="edge31" class="edge">
<title>/lib/widgets/player_zone_widget.dart&#45;&gt;/lib/widgets/player_zone_cta_widget.dart</title>
<path fill="none" stroke="#aabbaa" stroke-width="1.3" stroke-opacity="0.533333" d="M733.51,-413.82C736.8,-403.58 741.06,-390.33 744.84,-378.55"/>
<polygon fill="#aabbaa" fill-opacity="0.533333" stroke="#aabbaa" stroke-width="1.3" stroke-opacity="0.533333" points="748.08,-379.9 747.8,-369.31 741.41,-377.76 748.08,-379.9"/>
</g>
<!-- /lib/widgets/player_zone_widget.dart&#45;&gt;/lib/widgets/card_widget.dart -->
<g id="edge29" class="edge">
<title>/lib/widgets/player_zone_widget.dart&#45;&gt;/lib/widgets/card_widget.dart</title>
<path fill="none" stroke="#aabbaa" stroke-width="1.3" stroke-opacity="0.533333" d="M783.16,-413.59C792.41,-410.9 801.95,-408.26 811,-406 828.59,-401.6 839.51,-412.02 851,-398 892.58,-347.28 857.07,-264.96 833.63,-222.4"/>
<polygon fill="#aabbaa" fill-opacity="0.533333" stroke="#aabbaa" stroke-width="1.3" stroke-opacity="0.533333" points="836.81,-220.91 828.82,-213.95 830.72,-224.37 836.81,-220.91"/>
</g>
<!-- /lib/widgets/player_zone_widget.dart&#45;&gt;/lib/widgets/player_header_widget.dart -->
<g id="edge30" class="edge">
<title>/lib/widgets/player_zone_widget.dart&#45;&gt;/lib/widgets/player_header_widget.dart</title>
<path fill="none" stroke="#aabbaa" stroke-width="1.3" stroke-opacity="0.533333" d="M689.49,-413.57C678.91,-408.65 667.46,-403.22 657,-398 641.03,-390.04 623.69,-380.91 608.54,-372.76"/>
<polygon fill="#aabbaa" fill-opacity="0.533333" stroke="#aabbaa" stroke-width="1.3" stroke-opacity="0.533333" points="610.63,-369.92 600.17,-368.24 607.3,-376.08 610.63,-369.92"/>
</g>
<!-- /lib/widgets/card_piles_widget.dart&#45;&gt;/lib/models/card_model.dart -->
<g id="edge32" class="edge">
<title>/lib/widgets/card_piles_widget.dart&#45;&gt;/lib/models/card_model.dart</title>
<path fill="none" stroke="#aabbaa" stroke-width="1.3" stroke-opacity="0.533333" d="M536.62,-247.9C524.68,-217.22 496.9,-151.58 461,-104 453.49,-94.05 443.99,-84.39 434.91,-76.1"/>
<polygon fill="#aabbaa" fill-opacity="0.533333" stroke="#aabbaa" stroke-width="1.3" stroke-opacity="0.533333" points="437.36,-73.59 427.54,-69.61 432.73,-78.84 437.36,-73.59"/>
</g>
<!-- /lib/widgets/card_piles_widget.dart&#45;&gt;/lib/widgets/card_widget.dart -->
<g id="edge33" class="edge">
<title>/lib/widgets/card_piles_widget.dart&#45;&gt;/lib/widgets/card_widget.dart</title>
<path fill="none" stroke="#aabbaa" stroke-width="1.3" stroke-opacity="0.533333" d="M610.67,-249.4C650.82,-239.92 702.98,-227.25 757.29,-212.67"/>
<polygon fill="#aabbaa" fill-opacity="0.533333" stroke="#aabbaa" stroke-width="1.3" stroke-opacity="0.533333" points="757.9,-216.13 766.64,-210.15 756.07,-209.38 757.9,-216.13"/>
</g>
<!-- /lib/widgets/blinking_text_widget.dart&#45;&gt;/lib/widgets/blink_widget.dart -->
<g id="edge34" class="edge">
<title>/lib/widgets/blinking_text_widget.dart&#45;&gt;/lib/widgets/blink_widget.dart</title>
<path fill="none" stroke="#aabbaa" stroke-width="1.3" stroke-opacity="0.533333" d="M702.75,-247.7C702.65,-240.49 702.53,-231.93 702.41,-223.82"/>
<polygon fill="#aabbaa" fill-opacity="0.533333" stroke="#aabbaa" stroke-width="1.3" stroke-opacity="0.533333" points="705.92,-224.02 702.27,-214.07 698.92,-224.12 705.92,-224.02"/>
</g>
</g>
</svg>
