<?xml version="1.0" encoding="UTF-8" standalone="no"?>
<!DOCTYPE svg PUBLIC "-//W3C//DTD SVG 1.1//EN"
 "http://www.w3.org/Graphics/SVG/1.1/DTD/svg11.dtd">
<!-- Generated by graphviz version 12.1.2 (20240928.0832)
 -->
<!-- Pages: 1 -->
<svg width="586pt" height="747pt"
 viewBox="0.00 0.00 586.00 747.00" xmlns="http://www.w3.org/2000/svg" xmlns:xlink="http://www.w3.org/1999/xlink">
<g id="graph0" class="graph" transform="scale(1 1) rotate(0) translate(4 743)">
<polygon fill="white" stroke="none" points="-4,4 -4,-743 582,-743 582,4 -4,4"/>
<g id="clust1" class="cluster">
<title>cluster~</title>
<path fill="none" stroke="lightgray" stroke-width="2.6" d="M20,-8C20,-8 558,-8 558,-8 564,-8 570,-14 570,-20 570,-20 570,-719 570,-719 570,-725 564,-731 558,-731 558,-731 20,-731 20,-731 14,-731 8,-725 8,-719 8,-719 8,-20 8,-20 8,-14 14,-8 20,-8"/>
<text text-anchor="middle" x="289" y="-714.65" font-family="Arial Black" font-size="13.00">cards</text>
</g>
<g id="clust2" class="cluster">
<title>cluster~/test</title>
<path fill="none" stroke="lightgray" stroke-width="2.6" d="M233,-625C233,-625 317,-625 317,-625 323,-625 329,-631 329,-637 329,-637 329,-688 329,-688 329,-694 323,-700 317,-700 317,-700 233,-700 233,-700 227,-700 221,-694 221,-688 221,-688 221,-637 221,-637 221,-631 227,-625 233,-625"/>
<text text-anchor="middle" x="275" y="-683.65" font-family="Arial Black" font-size="13.00">test</text>
</g>
<g id="clust3" class="cluster">
<title>cluster~/lib</title>
<path fill="none" stroke="lightgray" stroke-width="2.6" d="M28,-16C28,-16 550,-16 550,-16 556,-16 562,-22 562,-28 562,-28 562,-605 562,-605 562,-611 556,-617 550,-617 550,-617 28,-617 28,-617 22,-617 16,-611 16,-605 16,-605 16,-28 16,-28 16,-22 22,-16 28,-16"/>
<text text-anchor="middle" x="289" y="-600.65" font-family="Arial Black" font-size="13.00">lib</text>
</g>
<g id="clust4" class="cluster">
<title>cluster~/lib/screens</title>
<path fill="none" stroke="lightgray" stroke-width="2.6" d="M64,-395C64,-395 324,-395 324,-395 330,-395 336,-401 336,-407 336,-407 336,-530 336,-530 336,-536 330,-542 324,-542 324,-542 64,-542 64,-542 58,-542 52,-536 52,-530 52,-530 52,-407 52,-407 52,-401 58,-395 64,-395"/>
<text text-anchor="middle" x="194" y="-525.65" font-family="Arial Black" font-size="13.00">screens</text>
</g>
<g id="clust5" class="cluster">
<title>cluster~/lib/widgets</title>
<path fill="none" stroke="lightgray" stroke-width="2.6" d="M166,-24C166,-24 542,-24 542,-24 548,-24 554,-30 554,-36 554,-36 554,-375 554,-375 554,-381 548,-387 542,-387 542,-387 166,-387 166,-387 160,-387 154,-381 154,-375 154,-375 154,-36 154,-36 154,-30 160,-24 166,-24"/>
<text text-anchor="middle" x="354" y="-370.65" font-family="Arial Black" font-size="13.00">widgets</text>
</g>
<!-- /test/widget_test.dart -->
<g id="node1" class="node">
<title>/test/widget_test.dart</title>
<path fill="Lavender" stroke="black" stroke-width="1.3" d="M308.88,-669C308.88,-669 241.12,-669 241.12,-669 235.12,-669 229.12,-663 229.12,-657 229.12,-657 229.12,-645 229.12,-645 229.12,-639 235.12,-633 241.12,-633 241.12,-633 308.88,-633 308.88,-633 314.88,-633 320.88,-639 320.88,-645 320.88,-645 320.88,-657 320.88,-657 320.88,-663 314.88,-669 308.88,-669"/>
<text text-anchor="middle" x="275" y="-645.75" font-family="Arial" font-size="15.00">widget_test</text>
</g>
<!-- /lib/main.dart -->
<g id="node6" class="node">
<title>/lib/main.dart</title>
<path fill="Lavender" stroke="black" stroke-width="1.3" d="M290,-586C290,-586 260,-586 260,-586 254,-586 248,-580 248,-574 248,-574 248,-562 248,-562 248,-556 254,-550 260,-550 260,-550 290,-550 290,-550 296,-550 302,-556 302,-562 302,-562 302,-574 302,-574 302,-580 296,-586 290,-586"/>
<text text-anchor="middle" x="275" y="-562.75" font-family="Arial" font-size="15.00">main</text>
</g>
<!-- /test/widget_test.dart&#45;&gt;/lib/main.dart -->
<g id="edge1" class="edge">
<title>/test/widget_test.dart&#45;&gt;/lib/main.dart</title>
<path fill="none" stroke="#aabbaa" stroke-width="1.3" stroke-opacity="0.533333" d="M275,-632.82C275,-622.8 275,-609.88 275,-598.29"/>
<polygon fill="#aabbaa" fill-opacity="0.533333" stroke="#aabbaa" stroke-width="1.3" stroke-opacity="0.533333" points="278.5,-598.4 275,-588.4 271.5,-598.4 278.5,-598.4"/>
</g>
<!-- /lib/game_model.dart -->
<g id="node2" class="node">
<title>/lib/game_model.dart</title>
<path fill="Lavender" stroke="black" stroke-width="1.3" d="M134.12,-284C134.12,-284 55.88,-284 55.88,-284 49.88,-284 43.88,-278 43.88,-272 43.88,-272 43.88,-260 43.88,-260 43.88,-254 49.88,-248 55.88,-248 55.88,-248 134.12,-248 134.12,-248 140.12,-248 146.12,-254 146.12,-260 146.12,-260 146.12,-272 146.12,-272 146.12,-278 140.12,-284 134.12,-284"/>
<text text-anchor="middle" x="95" y="-260.75" font-family="Arial" font-size="15.00">game_model</text>
</g>
<!-- /lib/screens/game_over_screen.dart -->
<g id="node4" class="node">
<title>/lib/screens/game_over_screen.dart</title>
<path fill="Lavender" stroke="black" stroke-width="1.3" d="M192.12,-511C192.12,-511 71.88,-511 71.88,-511 65.88,-511 59.88,-505 59.88,-499 59.88,-499 59.88,-487 59.88,-487 59.88,-481 65.88,-475 71.88,-475 71.88,-475 192.12,-475 192.12,-475 198.12,-475 204.12,-481 204.12,-487 204.12,-487 204.12,-499 204.12,-499 204.12,-505 198.12,-511 192.12,-511"/>
<text text-anchor="middle" x="132" y="-487.75" font-family="Arial" font-size="15.00">game_over_screen</text>
</g>
<!-- /lib/game_model.dart&#45;&gt;/lib/screens/game_over_screen.dart -->
<g id="edge3" class="edge">
<title>/lib/game_model.dart&#45;&gt;/lib/screens/game_over_screen.dart</title>
<path fill="none" stroke="#aabbaa" stroke-width="1.3" stroke-opacity="0.533333" d="M95.22,-284.33C95.94,-315.63 99.02,-383.48 112,-439 113.93,-447.24 116.81,-455.92 119.8,-463.82"/>
<polygon fill="#aabbaa" fill-opacity="0.533333" stroke="#aabbaa" stroke-width="1.3" stroke-opacity="0.533333" points="116.46,-464.88 123.42,-472.87 122.96,-462.28 116.46,-464.88"/>
</g>
<!-- /lib/player.dart -->
<g id="node7" class="node">
<title>/lib/player.dart</title>
<path fill="Lavender" stroke="black" stroke-width="1.3" d="M122.25,-212C122.25,-212 89.75,-212 89.75,-212 83.75,-212 77.75,-206 77.75,-200 77.75,-200 77.75,-188 77.75,-188 77.75,-182 83.75,-176 89.75,-176 89.75,-176 122.25,-176 122.25,-176 128.25,-176 134.25,-182 134.25,-188 134.25,-188 134.25,-200 134.25,-200 134.25,-206 128.25,-212 122.25,-212"/>
<text text-anchor="middle" x="106" y="-188.75" font-family="Arial" font-size="15.00">player</text>
</g>
<!-- /lib/game_model.dart&#45;&gt;/lib/player.dart -->
<g id="edge2" class="edge">
<title>/lib/game_model.dart&#45;&gt;/lib/player.dart</title>
<path fill="none" stroke="#aabbaa" stroke-width="1.3" stroke-opacity="0.533333" d="M97.72,-247.7C98.85,-240.49 100.2,-231.93 101.47,-223.82"/>
<polygon fill="#aabbaa" fill-opacity="0.533333" stroke="#aabbaa" stroke-width="1.3" stroke-opacity="0.533333" points="104.91,-224.47 103.01,-214.05 98,-223.38 104.91,-224.47"/>
</g>
<!-- /lib/widgets/playing_card.dart -->
<g id="node11" class="node">
<title>/lib/widgets/playing_card.dart</title>
<path fill="Lavender" stroke="black" stroke-width="1.3" d="M353,-68C353,-68 277,-68 277,-68 271,-68 265,-62 265,-56 265,-56 265,-44 265,-44 265,-38 271,-32 277,-32 277,-32 353,-32 353,-32 359,-32 365,-38 365,-44 365,-44 365,-56 365,-56 365,-62 359,-68 353,-68"/>
<text text-anchor="middle" x="315" y="-44.75" font-family="Arial" font-size="15.00">playing_card</text>
</g>
<!-- /lib/game_model.dart&#45;&gt;/lib/widgets/playing_card.dart -->
<g id="edge4" class="edge">
<title>/lib/game_model.dart&#45;&gt;/lib/widgets/playing_card.dart</title>
<path fill="none" stroke="#aabbaa" stroke-width="1.3" stroke-opacity="0.533333" d="M112.63,-247.85C151.25,-210.28 243.47,-120.58 288.86,-76.43"/>
<polygon fill="#aabbaa" fill-opacity="0.533333" stroke="#aabbaa" stroke-width="1.3" stroke-opacity="0.533333" points="291.15,-79.09 295.87,-69.6 286.27,-74.07 291.15,-79.09"/>
</g>
<!-- /lib/screens/game_screen.dart -->
<g id="node3" class="node">
<title>/lib/screens/game_screen.dart</title>
<path fill="Lavender" stroke="black" stroke-width="1.3" d="M316.38,-439C316.38,-439 233.62,-439 233.62,-439 227.62,-439 221.62,-433 221.62,-427 221.62,-427 221.62,-415 221.62,-415 221.62,-409 227.62,-403 233.62,-403 233.62,-403 316.38,-403 316.38,-403 322.38,-403 328.38,-409 328.38,-415 328.38,-415 328.38,-427 328.38,-427 328.38,-433 322.38,-439 316.38,-439"/>
<text text-anchor="middle" x="275" y="-415.75" font-family="Arial" font-size="15.00">game_screen</text>
</g>
<!-- /lib/screens/game_screen.dart&#45;&gt;/lib/game_model.dart -->
<g id="edge7" class="edge">
<title>/lib/screens/game_screen.dart&#45;&gt;/lib/game_model.dart</title>
<path fill="none" stroke="#aabbaa" stroke-width="1.3" stroke-opacity="0.533333" d="M239.71,-402.6C232.65,-399.67 225.2,-396.95 218,-395 203.32,-391.01 162.15,-396.16 150,-387 124.23,-367.57 135.56,-349.29 122,-320 118.12,-311.62 113.66,-302.64 109.5,-294.49"/>
<polygon fill="#aabbaa" fill-opacity="0.533333" stroke="#aabbaa" stroke-width="1.3" stroke-opacity="0.533333" points="112.69,-293.05 104.99,-285.77 106.48,-296.26 112.69,-293.05"/>
</g>
<!-- /lib/widgets/player_zone.dart -->
<g id="node10" class="node">
<title>/lib/widgets/player_zone.dart</title>
<path fill="Lavender" stroke="black" stroke-width="1.3" d="M371.5,-356C371.5,-356 298.5,-356 298.5,-356 292.5,-356 286.5,-350 286.5,-344 286.5,-344 286.5,-332 286.5,-332 286.5,-326 292.5,-320 298.5,-320 298.5,-320 371.5,-320 371.5,-320 377.5,-320 383.5,-326 383.5,-332 383.5,-332 383.5,-344 383.5,-344 383.5,-350 377.5,-356 371.5,-356"/>
<text text-anchor="middle" x="335" y="-332.75" font-family="Arial" font-size="15.00">player_zone</text>
</g>
<!-- /lib/screens/game_screen.dart&#45;&gt;/lib/widgets/player_zone.dart -->
<g id="edge5" class="edge">
<title>/lib/screens/game_screen.dart&#45;&gt;/lib/widgets/player_zone.dart</title>
<path fill="none" stroke="#aabbaa" stroke-width="1.3" stroke-opacity="0.533333" d="M287.72,-402.82C295.7,-392.05 306.16,-377.94 315.21,-365.72"/>
<polygon fill="#aabbaa" fill-opacity="0.533333" stroke="#aabbaa" stroke-width="1.3" stroke-opacity="0.533333" points="317.78,-368.13 320.92,-358.01 312.15,-363.97 317.78,-368.13"/>
</g>
<!-- /lib/widgets/screen.dart -->
<g id="node14" class="node">
<title>/lib/widgets/screen.dart</title>
<path fill="Lavender" stroke="black" stroke-width="1.3" d="M450.5,-356C450.5,-356 413.5,-356 413.5,-356 407.5,-356 401.5,-350 401.5,-344 401.5,-344 401.5,-332 401.5,-332 401.5,-326 407.5,-320 413.5,-320 413.5,-320 450.5,-320 450.5,-320 456.5,-320 462.5,-326 462.5,-332 462.5,-332 462.5,-344 462.5,-344 462.5,-350 456.5,-356 450.5,-356"/>
<text text-anchor="middle" x="432" y="-332.75" font-family="Arial" font-size="15.00">screen</text>
</g>
<!-- /lib/screens/game_screen.dart&#45;&gt;/lib/widgets/screen.dart -->
<g id="edge6" class="edge">
<title>/lib/screens/game_screen.dart&#45;&gt;/lib/widgets/screen.dart</title>
<path fill="none" stroke="#aabbaa" stroke-width="1.3" stroke-opacity="0.533333" d="M328.75,-412.23C350.01,-407.37 373.88,-399.54 393,-387 401.33,-381.53 408.75,-373.72 414.82,-365.98"/>
<polygon fill="#aabbaa" fill-opacity="0.533333" stroke="#aabbaa" stroke-width="1.3" stroke-opacity="0.533333" points="417.57,-368.15 420.6,-358 411.9,-364.04 417.57,-368.15"/>
</g>
<!-- /lib/screens/game_over_screen.dart&#45;&gt;/lib/player.dart -->
<g id="edge8" class="edge">
<title>/lib/screens/game_over_screen.dart&#45;&gt;/lib/player.dart</title>
<path fill="none" stroke="#aabbaa" stroke-width="1.3" stroke-opacity="0.533333" d="M120.37,-474.64C98.09,-440.16 50.25,-359.78 35,-284 31.84,-268.31 27.83,-262.3 35,-248 42.02,-234 54.68,-222.76 67.39,-214.29"/>
<polygon fill="#aabbaa" fill-opacity="0.533333" stroke="#aabbaa" stroke-width="1.3" stroke-opacity="0.533333" points="69.11,-217.34 75.81,-209.12 65.45,-211.37 69.11,-217.34"/>
</g>
<!-- /lib/screens/setup_screen.dart -->
<g id="node5" class="node">
<title>/lib/screens/setup_screen.dart</title>
<path fill="Lavender" stroke="black" stroke-width="1.3" d="M316,-511C316,-511 234,-511 234,-511 228,-511 222,-505 222,-499 222,-499 222,-487 222,-487 222,-481 228,-475 234,-475 234,-475 316,-475 316,-475 322,-475 328,-481 328,-487 328,-487 328,-499 328,-499 328,-505 322,-511 316,-511"/>
<text text-anchor="middle" x="275" y="-487.75" font-family="Arial" font-size="15.00">setup_screen</text>
</g>
<!-- /lib/screens/setup_screen.dart&#45;&gt;/lib/game_model.dart -->
<g id="edge9" class="edge">
<title>/lib/screens/setup_screen.dart&#45;&gt;/lib/game_model.dart</title>
<path fill="none" stroke="#aabbaa" stroke-width="1.3" stroke-opacity="0.533333" d="M234.05,-474.5C198.89,-457.35 149.64,-427.81 122,-387 116.9,-379.47 106.64,-328.89 100.34,-295.84"/>
<polygon fill="#aabbaa" fill-opacity="0.533333" stroke="#aabbaa" stroke-width="1.3" stroke-opacity="0.533333" points="103.8,-295.27 98.51,-286.09 96.92,-296.57 103.8,-295.27"/>
</g>
<!-- /lib/screens/setup_screen.dart&#45;&gt;/lib/screens/game_screen.dart -->
<g id="edge10" class="edge">
<title>/lib/screens/setup_screen.dart&#45;&gt;/lib/screens/game_screen.dart</title>
<path fill="none" stroke="#aabbaa" stroke-width="1.3" stroke-opacity="0.533333" d="M275,-474.7C275,-467.49 275,-458.93 275,-450.82"/>
<polygon fill="#aabbaa" fill-opacity="0.533333" stroke="#aabbaa" stroke-width="1.3" stroke-opacity="0.533333" points="278.5,-451.07 275,-441.07 271.5,-451.07 278.5,-451.07"/>
</g>
<!-- /lib/screens/setup_screen.dart&#45;&gt;/lib/widgets/screen.dart -->
<g id="edge11" class="edge">
<title>/lib/screens/setup_screen.dart&#45;&gt;/lib/widgets/screen.dart</title>
<path fill="none" stroke="#aabbaa" stroke-width="1.3" stroke-opacity="0.533333" d="M296.96,-474.51C321.51,-454.52 361.89,-420.23 393,-387 399.26,-380.32 405.67,-372.76 411.44,-365.66"/>
<polygon fill="#aabbaa" fill-opacity="0.533333" stroke="#aabbaa" stroke-width="1.3" stroke-opacity="0.533333" points="414.12,-367.91 417.62,-357.91 408.65,-363.55 414.12,-367.91"/>
</g>
<!-- /lib/widgets/text_url.dart -->
<g id="node16" class="node">
<title>/lib/widgets/text_url.dart</title>
<path fill="Lavender" stroke="black" stroke-width="1.3" d="M533.75,-356C533.75,-356 492.25,-356 492.25,-356 486.25,-356 480.25,-350 480.25,-344 480.25,-344 480.25,-332 480.25,-332 480.25,-326 486.25,-320 492.25,-320 492.25,-320 533.75,-320 533.75,-320 539.75,-320 545.75,-326 545.75,-332 545.75,-332 545.75,-344 545.75,-344 545.75,-350 539.75,-356 533.75,-356"/>
<text text-anchor="middle" x="513" y="-332.75" font-family="Arial" font-size="15.00">text_url</text>
</g>
<!-- /lib/screens/setup_screen.dart&#45;&gt;/lib/widgets/text_url.dart -->
<g id="edge12" class="edge">
<title>/lib/screens/setup_screen.dart&#45;&gt;/lib/widgets/text_url.dart</title>
<path fill="none" stroke="#aabbaa" stroke-width="1.3" stroke-opacity="0.533333" d="M318.12,-474.65C360.01,-456.56 424.11,-425.47 472,-387 479.69,-380.82 487.04,-373.06 493.34,-365.58"/>
<polygon fill="#aabbaa" fill-opacity="0.533333" stroke="#aabbaa" stroke-width="1.3" stroke-opacity="0.533333" points="495.94,-367.93 499.47,-357.94 490.48,-363.55 495.94,-367.93"/>
</g>
<!-- /lib/main.dart&#45;&gt;/lib/screens/setup_screen.dart -->
<g id="edge13" class="edge">
<title>/lib/main.dart&#45;&gt;/lib/screens/setup_screen.dart</title>
<path fill="none" stroke="#aabbaa" stroke-width="1.3" stroke-opacity="0.533333" d="M275,-549.7C275,-541.76 275,-532.12 275,-523.11"/>
<polygon fill="#aabbaa" fill-opacity="0.533333" stroke="#aabbaa" stroke-width="1.3" stroke-opacity="0.533333" points="278.5,-523.4 275,-513.4 271.5,-523.4 278.5,-523.4"/>
</g>
<!-- /lib/player.dart&#45;&gt;/lib/widgets/playing_card.dart -->
<g id="edge14" class="edge">
<title>/lib/player.dart&#45;&gt;/lib/widgets/playing_card.dart</title>
<path fill="none" stroke="#aabbaa" stroke-width="1.3" stroke-opacity="0.533333" d="M127.19,-175.81C150.39,-157.27 188.96,-127.3 224,-104 239.46,-93.72 256.98,-83.25 272.49,-74.37"/>
<polygon fill="#aabbaa" fill-opacity="0.533333" stroke="#aabbaa" stroke-width="1.3" stroke-opacity="0.533333" points="274.17,-77.44 281.14,-69.46 270.71,-71.35 274.17,-77.44"/>
</g>
<!-- /lib/widgets/playing_card_widget.dart -->
<g id="node8" class="node">
<title>/lib/widgets/playing_card_widget.dart</title>
<path fill="Lavender" stroke="black" stroke-width="1.3" d="M498.5,-140C498.5,-140 371.5,-140 371.5,-140 365.5,-140 359.5,-134 359.5,-128 359.5,-128 359.5,-116 359.5,-116 359.5,-110 365.5,-104 371.5,-104 371.5,-104 498.5,-104 498.5,-104 504.5,-104 510.5,-110 510.5,-116 510.5,-116 510.5,-128 510.5,-128 510.5,-134 504.5,-140 498.5,-140"/>
<text text-anchor="middle" x="435" y="-116.75" font-family="Arial" font-size="15.00">playing_card_widget</text>
</g>
<!-- /lib/widgets/playing_card_widget.dart&#45;&gt;/lib/widgets/playing_card.dart -->
<g id="edge15" class="edge">
<title>/lib/widgets/playing_card_widget.dart&#45;&gt;/lib/widgets/playing_card.dart</title>
<path fill="none" stroke="#aabbaa" stroke-width="1.3" stroke-opacity="0.533333" d="M405.03,-103.52C389.74,-94.6 370.94,-83.63 354.48,-74.03"/>
<polygon fill="#aabbaa" fill-opacity="0.533333" stroke="#aabbaa" stroke-width="1.3" stroke-opacity="0.533333" points="356.69,-71.27 346.29,-69.25 353.16,-77.31 356.69,-71.27"/>
</g>
<!-- /lib/widgets/table_surface.dart -->
<g id="node9" class="node">
<title>/lib/widgets/table_surface.dart</title>
<path fill="Lavender" stroke="black" stroke-width="1.3" d="M256,-356C256,-356 174,-356 174,-356 168,-356 162,-350 162,-344 162,-344 162,-332 162,-332 162,-326 168,-320 174,-320 174,-320 256,-320 256,-320 262,-320 268,-326 268,-332 268,-332 268,-344 268,-344 268,-350 262,-356 256,-356"/>
<text text-anchor="middle" x="215" y="-332.75" font-family="Arial" font-size="15.00">table_surface</text>
</g>
<!-- /lib/widgets/player_zone.dart&#45;&gt;/lib/game_model.dart -->
<g id="edge16" class="edge">
<title>/lib/widgets/player_zone.dart&#45;&gt;/lib/game_model.dart</title>
<path fill="none" stroke="#aabbaa" stroke-width="1.3" stroke-opacity="0.533333" d="M286.27,-322.68C283.14,-321.77 280.02,-320.87 277,-320 224.37,-304.83 208.35,-301.13 157.84,-286.3"/>
<polygon fill="#aabbaa" fill-opacity="0.533333" stroke="#aabbaa" stroke-width="1.3" stroke-opacity="0.533333" points="158.98,-282.99 148.4,-283.52 157,-289.71 158.98,-282.99"/>
</g>
<!-- /lib/widgets/player_zone.dart&#45;&gt;/lib/player.dart -->
<g id="edge17" class="edge">
<title>/lib/widgets/player_zone.dart&#45;&gt;/lib/player.dart</title>
<path fill="none" stroke="#aabbaa" stroke-width="1.3" stroke-opacity="0.533333" d="M286.28,-321.81C240.88,-307.5 179.51,-287.73 175,-284 160.9,-272.32 165.73,-262.83 155,-248 148.2,-238.61 139.91,-229.08 132.1,-220.74"/>
<polygon fill="#aabbaa" fill-opacity="0.533333" stroke="#aabbaa" stroke-width="1.3" stroke-opacity="0.533333" points="134.73,-218.42 125.28,-213.64 129.69,-223.28 134.73,-218.42"/>
</g>
<!-- /lib/widgets/player_zone.dart&#45;&gt;/lib/widgets/playing_card_widget.dart -->
<g id="edge21" class="edge">
<title>/lib/widgets/player_zone.dart&#45;&gt;/lib/widgets/playing_card_widget.dart</title>
<path fill="none" stroke="#aabbaa" stroke-width="1.3" stroke-opacity="0.533333" d="M383.65,-320.75C419.82,-308.17 463.8,-291.65 469,-284 496.68,-243.28 471.68,-184.42 452.39,-150.3"/>
<polygon fill="#aabbaa" fill-opacity="0.533333" stroke="#aabbaa" stroke-width="1.3" stroke-opacity="0.533333" points="455.49,-148.67 447.4,-141.83 449.46,-152.23 455.49,-148.67"/>
</g>
<!-- /lib/widgets/player_zone.dart&#45;&gt;/lib/widgets/playing_card.dart -->
<g id="edge20" class="edge">
<title>/lib/widgets/player_zone.dart&#45;&gt;/lib/widgets/playing_card.dart</title>
<path fill="none" stroke="#aabbaa" stroke-width="1.3" stroke-opacity="0.533333" d="M331.13,-319.91C328.95,-309.57 326.39,-296.09 325,-284 316.59,-210.97 315.08,-124.32 314.91,-80.11"/>
<polygon fill="#aabbaa" fill-opacity="0.533333" stroke="#aabbaa" stroke-width="1.3" stroke-opacity="0.533333" points="318.41,-80.28 314.9,-70.28 311.41,-80.28 318.41,-80.28"/>
</g>
<!-- /lib/widgets/player_zone_cta.dart -->
<g id="node13" class="node">
<title>/lib/widgets/player_zone_cta.dart</title>
<path fill="Lavender" stroke="black" stroke-width="1.3" d="M447.75,-284C447.75,-284 346.25,-284 346.25,-284 340.25,-284 334.25,-278 334.25,-272 334.25,-272 334.25,-260 334.25,-260 334.25,-254 340.25,-248 346.25,-248 346.25,-248 447.75,-248 447.75,-248 453.75,-248 459.75,-254 459.75,-260 459.75,-260 459.75,-272 459.75,-272 459.75,-278 453.75,-284 447.75,-284"/>
<text text-anchor="middle" x="397" y="-260.75" font-family="Arial" font-size="15.00">player_zone_cta</text>
</g>
<!-- /lib/widgets/player_zone.dart&#45;&gt;/lib/widgets/player_zone_cta.dart -->
<g id="edge19" class="edge">
<title>/lib/widgets/player_zone.dart&#45;&gt;/lib/widgets/player_zone_cta.dart</title>
<path fill="none" stroke="#aabbaa" stroke-width="1.3" stroke-opacity="0.533333" d="M350.33,-319.7C357.46,-311.64 366.09,-301.89 373.99,-292.98"/>
<polygon fill="#aabbaa" fill-opacity="0.533333" stroke="#aabbaa" stroke-width="1.3" stroke-opacity="0.533333" points="376.54,-295.38 380.55,-285.58 371.3,-290.74 376.54,-295.38"/>
</g>
<!-- /lib/widgets/player_header.dart -->
<g id="node15" class="node">
<title>/lib/widgets/player_header.dart</title>
<path fill="Lavender" stroke="black" stroke-width="1.3" d="M283.62,-284C283.62,-284 196.38,-284 196.38,-284 190.38,-284 184.38,-278 184.38,-272 184.38,-272 184.38,-260 184.38,-260 184.38,-254 190.38,-248 196.38,-248 196.38,-248 283.62,-248 283.62,-248 289.62,-248 295.62,-254 295.62,-260 295.62,-260 295.62,-272 295.62,-272 295.62,-278 289.62,-284 283.62,-284"/>
<text text-anchor="middle" x="240" y="-260.75" font-family="Arial" font-size="15.00">player_header</text>
</g>
<!-- /lib/widgets/player_zone.dart&#45;&gt;/lib/widgets/player_header.dart -->
<g id="edge18" class="edge">
<title>/lib/widgets/player_zone.dart&#45;&gt;/lib/widgets/player_header.dart</title>
<path fill="none" stroke="#aabbaa" stroke-width="1.3" stroke-opacity="0.533333" d="M311.52,-319.7C299.87,-311.11 285.61,-300.61 272.89,-291.24"/>
<polygon fill="#aabbaa" fill-opacity="0.533333" stroke="#aabbaa" stroke-width="1.3" stroke-opacity="0.533333" points="275.25,-288.63 265.13,-285.51 271.1,-294.26 275.25,-288.63"/>
</g>
<!-- /lib/widgets/card_piles.dart -->
<g id="node12" class="node">
<title>/lib/widgets/card_piles.dart</title>
<path fill="Lavender" stroke="black" stroke-width="1.3" d="M405.75,-212C405.75,-212 346.25,-212 346.25,-212 340.25,-212 334.25,-206 334.25,-200 334.25,-200 334.25,-188 334.25,-188 334.25,-182 340.25,-176 346.25,-176 346.25,-176 405.75,-176 405.75,-176 411.75,-176 417.75,-182 417.75,-188 417.75,-188 417.75,-200 417.75,-200 417.75,-206 411.75,-212 405.75,-212"/>
<text text-anchor="middle" x="376" y="-188.75" font-family="Arial" font-size="15.00">card_piles</text>
</g>
<!-- /lib/widgets/card_piles.dart&#45;&gt;/lib/widgets/playing_card_widget.dart -->
<g id="edge23" class="edge">
<title>/lib/widgets/card_piles.dart&#45;&gt;/lib/widgets/playing_card_widget.dart</title>
<path fill="none" stroke="#aabbaa" stroke-width="1.3" stroke-opacity="0.533333" d="M390.58,-175.7C397.37,-167.64 405.59,-157.89 413.1,-148.98"/>
<polygon fill="#aabbaa" fill-opacity="0.533333" stroke="#aabbaa" stroke-width="1.3" stroke-opacity="0.533333" points="415.55,-151.51 419.32,-141.61 410.19,-147 415.55,-151.51"/>
</g>
<!-- /lib/widgets/card_piles.dart&#45;&gt;/lib/widgets/playing_card.dart -->
<g id="edge22" class="edge">
<title>/lib/widgets/card_piles.dart&#45;&gt;/lib/widgets/playing_card.dart</title>
<path fill="none" stroke="#aabbaa" stroke-width="1.3" stroke-opacity="0.533333" d="M367.65,-175.93C362.67,-165.59 356.3,-152.12 351,-140 342.16,-119.81 332.85,-96.72 325.91,-79.13"/>
<polygon fill="#aabbaa" fill-opacity="0.533333" stroke="#aabbaa" stroke-width="1.3" stroke-opacity="0.533333" points="329.24,-78.05 322.34,-70.01 322.73,-80.6 329.24,-78.05"/>
</g>
<!-- /lib/widgets/player_zone_cta.dart&#45;&gt;/lib/game_model.dart -->
<g id="edge24" class="edge">
<title>/lib/widgets/player_zone_cta.dart&#45;&gt;/lib/game_model.dart</title>
<path fill="none" stroke="#aabbaa" stroke-width="1.3" stroke-opacity="0.533333" d="M362.02,-284.35C346.79,-291.35 328.46,-298.49 311,-302 244.77,-315.3 224.35,-319.12 159,-302 149.44,-299.5 139.81,-295.21 131.02,-290.45"/>
<polygon fill="#aabbaa" fill-opacity="0.533333" stroke="#aabbaa" stroke-width="1.3" stroke-opacity="0.533333" points="132.88,-287.48 122.48,-285.48 129.36,-293.54 132.88,-287.48"/>
</g>
<!-- /lib/widgets/player_zone_cta.dart&#45;&gt;/lib/widgets/playing_card_widget.dart -->
<g id="edge26" class="edge">
<title>/lib/widgets/player_zone_cta.dart&#45;&gt;/lib/widgets/playing_card_widget.dart</title>
<path fill="none" stroke="#aabbaa" stroke-width="1.3" stroke-opacity="0.533333" d="M409.28,-247.72C415.7,-237.76 423.03,-224.72 427,-212 433.02,-192.69 434.99,-169.97 435.46,-152.32"/>
<polygon fill="#aabbaa" fill-opacity="0.533333" stroke="#aabbaa" stroke-width="1.3" stroke-opacity="0.533333" points="438.96,-152.49 435.56,-142.45 431.96,-152.41 438.96,-152.49"/>
</g>
<!-- /lib/widgets/player_zone_cta.dart&#45;&gt;/lib/widgets/card_piles.dart -->
<g id="edge25" class="edge">
<title>/lib/widgets/player_zone_cta.dart&#45;&gt;/lib/widgets/card_piles.dart</title>
<path fill="none" stroke="#aabbaa" stroke-width="1.3" stroke-opacity="0.533333" d="M391.81,-247.7C389.62,-240.41 387.02,-231.73 384.56,-223.54"/>
<polygon fill="#aabbaa" fill-opacity="0.533333" stroke="#aabbaa" stroke-width="1.3" stroke-opacity="0.533333" points="387.92,-222.56 381.7,-213.99 381.22,-224.57 387.92,-222.56"/>
</g>
</g>
</svg>
