<?xml version="1.0" encoding="UTF-8" standalone="no"?>
<!DOCTYPE svg PUBLIC "-//W3C//DTD SVG 1.1//EN"
 "http://www.w3.org/Graphics/SVG/1.1/DTD/svg11.dtd">
<!-- Generated by graphviz version 12.1.2 (20240928.0832)
 -->
<!-- Pages: 1 -->
<svg width="461pt" height="476pt"
 viewBox="0.00 0.00 460.62 476.00" xmlns="http://www.w3.org/2000/svg" xmlns:xlink="http://www.w3.org/1999/xlink">
<g id="graph0" class="graph" transform="scale(1 1) rotate(0) translate(4 472)">
<polygon fill="white" stroke="none" points="-4,4 -4,-472 456.62,-472 456.62,4 -4,4"/>
<!-- /lib/game_model.dart -->
<g id="node1" class="node">
<title>/lib/game_model.dart</title>
<path fill="Lavender" stroke="black" stroke-width="1.3" d="M90.25,-180C90.25,-180 12,-180 12,-180 6,-180 0,-174 0,-168 0,-168 0,-156 0,-156 0,-150 6,-144 12,-144 12,-144 90.25,-144 90.25,-144 96.25,-144 102.25,-150 102.25,-156 102.25,-156 102.25,-168 102.25,-168 102.25,-174 96.25,-180 90.25,-180"/>
<text text-anchor="middle" x="51.12" y="-156.75" font-family="Arial" font-size="15.00">game_model</text>
</g>
<!-- /lib/widgets/playing_card.dart -->
<g id="node7" class="node">
<title>/lib/widgets/playing_card.dart</title>
<path fill="Lavender" stroke="black" stroke-width="1.3" d="M182.12,-36C182.12,-36 106.12,-36 106.12,-36 100.12,-36 94.12,-30 94.12,-24 94.12,-24 94.12,-12 94.12,-12 94.12,-6 100.12,0 106.12,0 106.12,0 182.12,0 182.12,0 188.12,0 194.12,-6 194.12,-12 194.12,-12 194.12,-24 194.12,-24 194.12,-30 188.12,-36 182.12,-36"/>
<text text-anchor="middle" x="144.12" y="-12.75" font-family="Arial" font-size="15.00">playing_card</text>
</g>
<!-- /lib/game_model.dart&#45;&gt;/lib/widgets/playing_card.dart -->
<g id="edge1" class="edge">
<title>/lib/game_model.dart&#45;&gt;/lib/widgets/playing_card.dart</title>
<path fill="none" stroke="#aabbaa" stroke-width="1.3" stroke-opacity="0.533333" d="M62.53,-143.59C78.51,-119.18 107.72,-74.58 126.51,-45.89"/>
<polygon fill="#aabbaa" fill-opacity="0.533333" stroke="#aabbaa" stroke-width="1.3" stroke-opacity="0.533333" points="129.29,-48.04 131.84,-37.76 123.43,-44.2 129.29,-48.04"/>
</g>
<!-- /lib/main.dart -->
<g id="node2" class="node">
<title>/lib/main.dart</title>
<path fill="Lavender" stroke="black" stroke-width="1.3" d="M294.12,-396C294.12,-396 264.12,-396 264.12,-396 258.12,-396 252.12,-390 252.12,-384 252.12,-384 252.12,-372 252.12,-372 252.12,-366 258.12,-360 264.12,-360 264.12,-360 294.12,-360 294.12,-360 300.12,-360 306.12,-366 306.12,-372 306.12,-372 306.12,-384 306.12,-384 306.12,-390 300.12,-396 294.12,-396"/>
<text text-anchor="middle" x="279.12" y="-372.75" font-family="Arial" font-size="15.00">main</text>
</g>
<!-- /lib/screens/setup_screen.dart -->
<g id="node4" class="node">
<title>/lib/screens/setup_screen.dart</title>
<path fill="Lavender" stroke="black" stroke-width="1.3" d="M320.12,-324C320.12,-324 238.12,-324 238.12,-324 232.12,-324 226.12,-318 226.12,-312 226.12,-312 226.12,-300 226.12,-300 226.12,-294 232.12,-288 238.12,-288 238.12,-288 320.12,-288 320.12,-288 326.12,-288 332.12,-294 332.12,-300 332.12,-300 332.12,-312 332.12,-312 332.12,-318 326.12,-324 320.12,-324"/>
<text text-anchor="middle" x="279.12" y="-300.75" font-family="Arial" font-size="15.00">setup_screen</text>
</g>
<!-- /lib/main.dart&#45;&gt;/lib/screens/setup_screen.dart -->
<g id="edge2" class="edge">
<title>/lib/main.dart&#45;&gt;/lib/screens/setup_screen.dart</title>
<path fill="none" stroke="#aabbaa" stroke-width="1.3" stroke-opacity="0.533333" d="M279.12,-359.7C279.12,-352.49 279.12,-343.93 279.12,-335.82"/>
<polygon fill="#aabbaa" fill-opacity="0.533333" stroke="#aabbaa" stroke-width="1.3" stroke-opacity="0.533333" points="282.63,-336.07 279.13,-326.07 275.63,-336.07 282.63,-336.07"/>
</g>
<!-- /lib/screens/game_screen.dart -->
<g id="node3" class="node">
<title>/lib/screens/game_screen.dart</title>
<path fill="Lavender" stroke="black" stroke-width="1.3" d="M320.5,-252C320.5,-252 237.75,-252 237.75,-252 231.75,-252 225.75,-246 225.75,-240 225.75,-240 225.75,-228 225.75,-228 225.75,-222 231.75,-216 237.75,-216 237.75,-216 320.5,-216 320.5,-216 326.5,-216 332.5,-222 332.5,-228 332.5,-228 332.5,-240 332.5,-240 332.5,-246 326.5,-252 320.5,-252"/>
<text text-anchor="middle" x="279.12" y="-228.75" font-family="Arial" font-size="15.00">game_screen</text>
</g>
<!-- /lib/screens/game_screen.dart&#45;&gt;/lib/game_model.dart -->
<g id="edge7" class="edge">
<title>/lib/screens/game_screen.dart&#45;&gt;/lib/game_model.dart</title>
<path fill="none" stroke="#aabbaa" stroke-width="1.3" stroke-opacity="0.533333" d="M225.38,-216.5C191.88,-206.21 148.64,-192.94 113.61,-182.18"/>
<polygon fill="#aabbaa" fill-opacity="0.533333" stroke="#aabbaa" stroke-width="1.3" stroke-opacity="0.533333" points="115.02,-178.95 104.43,-179.37 112.96,-185.65 115.02,-178.95"/>
</g>
<!-- /lib/widgets/card_deck.dart -->
<g id="node5" class="node">
<title>/lib/widgets/card_deck.dart</title>
<path fill="Lavender" stroke="black" stroke-width="1.3" d="M193.62,-180C193.62,-180 132.62,-180 132.62,-180 126.62,-180 120.62,-174 120.62,-168 120.62,-168 120.62,-156 120.62,-156 120.62,-150 126.62,-144 132.62,-144 132.62,-144 193.62,-144 193.62,-144 199.62,-144 205.62,-150 205.62,-156 205.62,-156 205.62,-168 205.62,-168 205.62,-174 199.62,-180 193.62,-180"/>
<text text-anchor="middle" x="163.12" y="-156.75" font-family="Arial" font-size="15.00">card_deck</text>
</g>
<!-- /lib/screens/game_screen.dart&#45;&gt;/lib/widgets/card_deck.dart -->
<g id="edge3" class="edge">
<title>/lib/screens/game_screen.dart&#45;&gt;/lib/widgets/card_deck.dart</title>
<path fill="none" stroke="#aabbaa" stroke-width="1.3" stroke-opacity="0.533333" d="M250.15,-215.52C235.51,-206.68 217.54,-195.84 201.74,-186.3"/>
<polygon fill="#aabbaa" fill-opacity="0.533333" stroke="#aabbaa" stroke-width="1.3" stroke-opacity="0.533333" points="203.78,-183.45 193.41,-181.28 200.17,-189.44 203.78,-183.45"/>
</g>
<!-- /lib/widgets/player_header.dart -->
<g id="node6" class="node">
<title>/lib/widgets/player_header.dart</title>
<path fill="Lavender" stroke="black" stroke-width="1.3" d="M322.75,-180C322.75,-180 235.5,-180 235.5,-180 229.5,-180 223.5,-174 223.5,-168 223.5,-168 223.5,-156 223.5,-156 223.5,-150 229.5,-144 235.5,-144 235.5,-144 322.75,-144 322.75,-144 328.75,-144 334.75,-150 334.75,-156 334.75,-156 334.75,-168 334.75,-168 334.75,-174 328.75,-180 322.75,-180"/>
<text text-anchor="middle" x="279.12" y="-156.75" font-family="Arial" font-size="15.00">player_header</text>
</g>
<!-- /lib/screens/game_screen.dart&#45;&gt;/lib/widgets/player_header.dart -->
<g id="edge4" class="edge">
<title>/lib/screens/game_screen.dart&#45;&gt;/lib/widgets/player_header.dart</title>
<path fill="none" stroke="#aabbaa" stroke-width="1.3" stroke-opacity="0.533333" d="M279.12,-215.7C279.12,-208.49 279.12,-199.93 279.12,-191.82"/>
<polygon fill="#aabbaa" fill-opacity="0.533333" stroke="#aabbaa" stroke-width="1.3" stroke-opacity="0.533333" points="282.63,-192.07 279.13,-182.07 275.63,-192.07 282.63,-192.07"/>
</g>
<!-- /lib/widgets/playing_card_widget.dart -->
<g id="node8" class="node">
<title>/lib/widgets/playing_card_widget.dart</title>
<path fill="Lavender" stroke="black" stroke-width="1.3" d="M311.62,-108C311.62,-108 184.62,-108 184.62,-108 178.62,-108 172.62,-102 172.62,-96 172.62,-96 172.62,-84 172.62,-84 172.62,-78 178.62,-72 184.62,-72 184.62,-72 311.62,-72 311.62,-72 317.62,-72 323.62,-78 323.62,-84 323.62,-84 323.62,-96 323.62,-96 323.62,-102 317.62,-108 311.62,-108"/>
<text text-anchor="middle" x="248.12" y="-84.75" font-family="Arial" font-size="15.00">playing_card_widget</text>
</g>
<!-- /lib/screens/game_screen.dart&#45;&gt;/lib/widgets/playing_card_widget.dart -->
<g id="edge5" class="edge">
<title>/lib/screens/game_screen.dart&#45;&gt;/lib/widgets/playing_card_widget.dart</title>
<path fill="none" stroke="#aabbaa" stroke-width="1.3" stroke-opacity="0.533333" d="M311.05,-215.54C323.81,-206.72 337.13,-194.73 344.12,-180 350.99,-165.55 352.26,-157.78 344.12,-144 336.68,-131.39 325.04,-121.57 312.4,-114"/>
<polygon fill="#aabbaa" fill-opacity="0.533333" stroke="#aabbaa" stroke-width="1.3" stroke-opacity="0.533333" points="314.29,-111.05 303.84,-109.35 310.95,-117.2 314.29,-111.05"/>
</g>
<!-- /lib/widgets/screen.dart -->
<g id="node9" class="node">
<title>/lib/widgets/screen.dart</title>
<path fill="Lavender" stroke="black" stroke-width="1.3" d="M440.62,-180C440.62,-180 403.62,-180 403.62,-180 397.62,-180 391.62,-174 391.62,-168 391.62,-168 391.62,-156 391.62,-156 391.62,-150 397.62,-144 403.62,-144 403.62,-144 440.62,-144 440.62,-144 446.62,-144 452.62,-150 452.62,-156 452.62,-156 452.62,-168 452.62,-168 452.62,-174 446.62,-180 440.62,-180"/>
<text text-anchor="middle" x="422.12" y="-156.75" font-family="Arial" font-size="15.00">screen</text>
</g>
<!-- /lib/screens/game_screen.dart&#45;&gt;/lib/widgets/screen.dart -->
<g id="edge6" class="edge">
<title>/lib/screens/game_screen.dart&#45;&gt;/lib/widgets/screen.dart</title>
<path fill="none" stroke="#aabbaa" stroke-width="1.3" stroke-opacity="0.533333" d="M314.84,-215.52C334.85,-205.72 359.89,-193.46 380.75,-183.25"/>
<polygon fill="#aabbaa" fill-opacity="0.533333" stroke="#aabbaa" stroke-width="1.3" stroke-opacity="0.533333" points="382.02,-186.53 389.46,-178.99 378.94,-180.24 382.02,-186.53"/>
</g>
<!-- /lib/screens/setup_screen.dart&#45;&gt;/lib/game_model.dart -->
<g id="edge8" class="edge">
<title>/lib/screens/setup_screen.dart&#45;&gt;/lib/game_model.dart</title>
<path fill="none" stroke="#aabbaa" stroke-width="1.3" stroke-opacity="0.533333" d="M251.17,-287.59C210.46,-262.24 134.76,-215.09 89.06,-186.62"/>
<polygon fill="#aabbaa" fill-opacity="0.533333" stroke="#aabbaa" stroke-width="1.3" stroke-opacity="0.533333" points="90.96,-183.69 80.62,-181.37 87.26,-189.63 90.96,-183.69"/>
</g>
<!-- /lib/screens/setup_screen.dart&#45;&gt;/lib/screens/game_screen.dart -->
<g id="edge9" class="edge">
<title>/lib/screens/setup_screen.dart&#45;&gt;/lib/screens/game_screen.dart</title>
<path fill="none" stroke="#aabbaa" stroke-width="1.3" stroke-opacity="0.533333" d="M279.12,-287.7C279.12,-280.49 279.12,-271.93 279.12,-263.82"/>
<polygon fill="#aabbaa" fill-opacity="0.533333" stroke="#aabbaa" stroke-width="1.3" stroke-opacity="0.533333" points="282.63,-264.07 279.13,-254.07 275.63,-264.07 282.63,-264.07"/>
</g>
<!-- /lib/screens/setup_screen.dart&#45;&gt;/lib/widgets/screen.dart -->
<g id="edge10" class="edge">
<title>/lib/screens/setup_screen.dart&#45;&gt;/lib/widgets/screen.dart</title>
<path fill="none" stroke="#aabbaa" stroke-width="1.3" stroke-opacity="0.533333" d="M300.65,-287.72C312.85,-277.66 328.21,-264.52 341.12,-252 361.95,-231.82 384,-207.35 399.83,-189.19"/>
<polygon fill="#aabbaa" fill-opacity="0.533333" stroke="#aabbaa" stroke-width="1.3" stroke-opacity="0.533333" points="402.32,-191.66 406.22,-181.81 397.03,-187.08 402.32,-191.66"/>
</g>
<!-- /lib/widgets/card_deck.dart&#45;&gt;/lib/widgets/playing_card.dart -->
<g id="edge11" class="edge">
<title>/lib/widgets/card_deck.dart&#45;&gt;/lib/widgets/playing_card.dart</title>
<path fill="none" stroke="#aabbaa" stroke-width="1.3" stroke-opacity="0.533333" d="M160.8,-143.59C157.6,-119.72 151.82,-76.53 147.98,-47.8"/>
<polygon fill="#aabbaa" fill-opacity="0.533333" stroke="#aabbaa" stroke-width="1.3" stroke-opacity="0.533333" points="151.47,-47.51 146.68,-38.06 144.53,-48.44 151.47,-47.51"/>
</g>
<!-- /lib/widgets/card_deck.dart&#45;&gt;/lib/widgets/playing_card_widget.dart -->
<g id="edge12" class="edge">
<title>/lib/widgets/card_deck.dart&#45;&gt;/lib/widgets/playing_card_widget.dart</title>
<path fill="none" stroke="#aabbaa" stroke-width="1.3" stroke-opacity="0.533333" d="M184.14,-143.7C194.35,-135.28 206.82,-125.02 218.02,-115.79"/>
<polygon fill="#aabbaa" fill-opacity="0.533333" stroke="#aabbaa" stroke-width="1.3" stroke-opacity="0.533333" points="220.05,-118.66 225.54,-109.6 215.6,-113.25 220.05,-118.66"/>
</g>
<!-- /lib/widgets/playing_card_widget.dart&#45;&gt;/lib/widgets/playing_card.dart -->
<g id="edge13" class="edge">
<title>/lib/widgets/playing_card_widget.dart&#45;&gt;/lib/widgets/playing_card.dart</title>
<path fill="none" stroke="#aabbaa" stroke-width="1.3" stroke-opacity="0.533333" d="M222.15,-71.52C209.27,-62.85 193.52,-52.25 179.56,-42.85"/>
<polygon fill="#aabbaa" fill-opacity="0.533333" stroke="#aabbaa" stroke-width="1.3" stroke-opacity="0.533333" points="181.65,-40.04 171.4,-37.36 177.74,-45.85 181.65,-40.04"/>
</g>
<!-- /lib/widgets/table_surface.dart -->
<g id="node10" class="node">
<title>/lib/widgets/table_surface.dart</title>
<path fill="Lavender" stroke="black" stroke-width="1.3" d="M437.12,-468C437.12,-468 355.12,-468 355.12,-468 349.12,-468 343.12,-462 343.12,-456 343.12,-456 343.12,-444 343.12,-444 343.12,-438 349.12,-432 355.12,-432 355.12,-432 437.12,-432 437.12,-432 443.12,-432 449.12,-438 449.12,-444 449.12,-444 449.12,-456 449.12,-456 449.12,-462 443.12,-468 437.12,-468"/>
<text text-anchor="middle" x="396.12" y="-444.75" font-family="Arial" font-size="15.00">table_surface</text>
</g>
<!-- /test/widget_test.dart -->
<g id="node11" class="node">
<title>/test/widget_test.dart</title>
<path fill="Lavender" stroke="black" stroke-width="1.3" d="M313,-468C313,-468 245.25,-468 245.25,-468 239.25,-468 233.25,-462 233.25,-456 233.25,-456 233.25,-444 233.25,-444 233.25,-438 239.25,-432 245.25,-432 245.25,-432 313,-432 313,-432 319,-432 325,-438 325,-444 325,-444 325,-456 325,-456 325,-462 319,-468 313,-468"/>
<text text-anchor="middle" x="279.12" y="-444.75" font-family="Arial" font-size="15.00">widget_test</text>
</g>
<!-- /test/widget_test.dart&#45;&gt;/lib/main.dart -->
<g id="edge14" class="edge">
<title>/test/widget_test.dart&#45;&gt;/lib/main.dart</title>
<path fill="none" stroke="#aabbaa" stroke-width="1.3" stroke-opacity="0.533333" d="M279.12,-431.7C279.12,-424.49 279.12,-415.93 279.12,-407.82"/>
<polygon fill="#aabbaa" fill-opacity="0.533333" stroke="#aabbaa" stroke-width="1.3" stroke-opacity="0.533333" points="282.63,-408.07 279.13,-398.07 275.63,-408.07 282.63,-408.07"/>
</g>
</g>
</svg>
