<?xml version="1.0" encoding="UTF-8" standalone="no"?>
<!DOCTYPE svg PUBLIC "-//W3C//DTD SVG 1.1//EN"
 "http://www.w3.org/Graphics/SVG/1.1/DTD/svg11.dtd">
<!-- Generated by graphviz version 12.1.2 (20240928.0832)
 -->
<!-- Pages: 1 -->
<svg width="1073pt" height="598pt"
 viewBox="0.00 0.00 1073.00 598.00" xmlns="http://www.w3.org/2000/svg" xmlns:xlink="http://www.w3.org/1999/xlink">
<g id="graph0" class="graph" transform="scale(1 1) rotate(0) translate(4 594)">
<polygon fill="white" stroke="none" points="-4,4 -4,-594 1069,-594 1069,4 -4,4"/>
<g id="clust1" class="cluster">
<title>cluster~</title>
<path fill="none" stroke="lightgray" stroke-width="2.6" d="M20,-8C20,-8 1045,-8 1045,-8 1051,-8 1057,-14 1057,-20 1057,-20 1057,-570 1057,-570 1057,-576 1051,-582 1045,-582 1045,-582 20,-582 20,-582 14,-582 8,-576 8,-570 8,-570 8,-20 8,-20 8,-14 14,-8 20,-8"/>
<text text-anchor="middle" x="532.5" y="-565.65" font-family="Arial Black" font-size="13.00">cards</text>
</g>
<g id="clust2" class="cluster">
<title>cluster~/test</title>
<path fill="none" stroke="lightgray" stroke-width="2.6" d="M28,-251C28,-251 156,-251 156,-251 162,-251 168,-257 168,-263 168,-263 168,-314 168,-314 168,-320 162,-326 156,-326 156,-326 28,-326 28,-326 22,-326 16,-320 16,-314 16,-314 16,-263 16,-263 16,-257 22,-251 28,-251"/>
<text text-anchor="middle" x="92" y="-309.65" font-family="Arial Black" font-size="13.00">test</text>
</g>
<g id="clust3" class="cluster">
<title>cluster~/lib</title>
<path fill="none" stroke="lightgray" stroke-width="2.6" d="M188,-16C188,-16 1037,-16 1037,-16 1043,-16 1049,-22 1049,-28 1049,-28 1049,-539 1049,-539 1049,-545 1043,-551 1037,-551 1037,-551 188,-551 188,-551 182,-551 176,-545 176,-539 176,-539 176,-28 176,-28 176,-22 182,-16 188,-16"/>
<text text-anchor="middle" x="612.5" y="-534.65" font-family="Arial Black" font-size="13.00">lib</text>
</g>
<g id="clust4" class="cluster">
<title>cluster~/lib/models</title>
<path fill="none" stroke="lightgray" stroke-width="2.6" d="M380,-24C380,-24 592,-24 592,-24 598,-24 604,-30 604,-36 604,-36 604,-231 604,-231 604,-237 598,-243 592,-243 592,-243 380,-243 380,-243 374,-243 368,-237 368,-231 368,-231 368,-36 368,-36 368,-30 374,-24 380,-24"/>
<text text-anchor="middle" x="486" y="-226.65" font-family="Arial Black" font-size="13.00">models</text>
</g>
<g id="clust5" class="cluster">
<title>cluster~/lib/screens</title>
<path fill="none" stroke="lightgray" stroke-width="2.6" d="M332,-251C332,-251 592,-251 592,-251 598,-251 604,-257 604,-263 604,-263 604,-464 604,-464 604,-470 598,-476 592,-476 592,-476 332,-476 332,-476 326,-476 320,-470 320,-464 320,-464 320,-263 320,-263 320,-257 326,-251 332,-251"/>
<text text-anchor="middle" x="462" y="-459.65" font-family="Arial Black" font-size="13.00">screens</text>
</g>
<g id="clust6" class="cluster">
<title>cluster~/lib/widgets</title>
<path fill="none" stroke="lightgray" stroke-width="2.6" d="M624,-96C624,-96 1029,-96 1029,-96 1035,-96 1041,-102 1041,-108 1041,-108 1041,-389 1041,-389 1041,-395 1035,-401 1029,-401 1029,-401 624,-401 624,-401 618,-401 612,-395 612,-389 612,-389 612,-108 612,-108 612,-102 618,-96 624,-96"/>
<text text-anchor="middle" x="826.5" y="-384.65" font-family="Arial Black" font-size="13.00">widgets</text>
</g>
<!-- /test/game_model_test.dart -->
<g id="node1" class="node">
<title>/test/game_model_test.dart</title>
<path fill="Lavender" stroke="black" stroke-width="1.3" d="M147.62,-295C147.62,-295 36.38,-295 36.38,-295 30.38,-295 24.38,-289 24.38,-283 24.38,-283 24.38,-271 24.38,-271 24.38,-265 30.38,-259 36.38,-259 36.38,-259 147.62,-259 147.62,-259 153.62,-259 159.62,-265 159.62,-271 159.62,-271 159.62,-283 159.62,-283 159.62,-289 153.62,-295 147.62,-295"/>
<text text-anchor="middle" x="92" y="-271.75" font-family="Arial" font-size="15.00">game_model_test</text>
</g>
<!-- /lib/models/game_model.dart -->
<g id="node4" class="node">
<title>/lib/models/game_model.dart</title>
<path fill="Lavender" stroke="black" stroke-width="1.3" d="M584.12,-212C584.12,-212 505.88,-212 505.88,-212 499.88,-212 493.88,-206 493.88,-200 493.88,-200 493.88,-188 493.88,-188 493.88,-182 499.88,-176 505.88,-176 505.88,-176 584.12,-176 584.12,-176 590.12,-176 596.12,-182 596.12,-188 596.12,-188 596.12,-200 596.12,-200 596.12,-206 590.12,-212 584.12,-212"/>
<text text-anchor="middle" x="545" y="-188.75" font-family="Arial" font-size="15.00">game_model</text>
</g>
<!-- /test/game_model_test.dart&#45;&gt;/lib/models/game_model.dart -->
<g id="edge1" class="edge">
<title>/test/game_model_test.dart&#45;&gt;/lib/models/game_model.dart</title>
<path fill="none" stroke="#aabbaa" stroke-width="1.3" stroke-opacity="0.533333" d="M159.82,-263.87C246.95,-248.29 397.04,-221.46 481.85,-206.29"/>
<polygon fill="#aabbaa" fill-opacity="0.533333" stroke="#aabbaa" stroke-width="1.3" stroke-opacity="0.533333" points="482.46,-209.74 491.69,-204.53 481.23,-202.85 482.46,-209.74"/>
</g>
<!-- /lib/firebase_options_private.dart -->
<g id="node2" class="node">
<title>/lib/firebase_options_private.dart</title>
<path fill="Lavender" stroke="black" stroke-width="1.3" d="M418.38,-520C418.38,-520 263.62,-520 263.62,-520 257.62,-520 251.62,-514 251.62,-508 251.62,-508 251.62,-496 251.62,-496 251.62,-490 257.62,-484 263.62,-484 263.62,-484 418.38,-484 418.38,-484 424.38,-484 430.38,-490 430.38,-496 430.38,-496 430.38,-508 430.38,-508 430.38,-514 424.38,-520 418.38,-520"/>
<text text-anchor="middle" x="341" y="-496.75" font-family="Arial" font-size="15.00">firebase_options_private</text>
</g>
<!-- /lib/firebase_options.dart -->
<g id="node3" class="node">
<title>/lib/firebase_options.dart</title>
<path fill="Lavender" stroke="black" stroke-width="1.3" d="M297.75,-445C297.75,-445 196.25,-445 196.25,-445 190.25,-445 184.25,-439 184.25,-433 184.25,-433 184.25,-421 184.25,-421 184.25,-415 190.25,-409 196.25,-409 196.25,-409 297.75,-409 297.75,-409 303.75,-409 309.75,-415 309.75,-421 309.75,-421 309.75,-433 309.75,-433 309.75,-439 303.75,-445 297.75,-445"/>
<text text-anchor="middle" x="247" y="-421.75" font-family="Arial" font-size="15.00">firebase_options</text>
</g>
<!-- /lib/models/player_model.dart -->
<g id="node5" class="node">
<title>/lib/models/player_model.dart</title>
<path fill="Lavender" stroke="black" stroke-width="1.3" d="M469.62,-140C469.62,-140 388.38,-140 388.38,-140 382.38,-140 376.38,-134 376.38,-128 376.38,-128 376.38,-116 376.38,-116 376.38,-110 382.38,-104 388.38,-104 388.38,-104 469.62,-104 469.62,-104 475.62,-104 481.62,-110 481.62,-116 481.62,-116 481.62,-128 481.62,-128 481.62,-134 475.62,-140 469.62,-140"/>
<text text-anchor="middle" x="429" y="-116.75" font-family="Arial" font-size="15.00">player_model</text>
</g>
<!-- /lib/models/game_model.dart&#45;&gt;/lib/models/player_model.dart -->
<g id="edge3" class="edge">
<title>/lib/models/game_model.dart&#45;&gt;/lib/models/player_model.dart</title>
<path fill="none" stroke="#aabbaa" stroke-width="1.3" stroke-opacity="0.533333" d="M510.09,-175.52C494.7,-166.76 476.77,-156.04 461.65,-146.58"/>
<polygon fill="#aabbaa" fill-opacity="0.533333" stroke="#aabbaa" stroke-width="1.3" stroke-opacity="0.533333" points="463.67,-143.71 453.35,-141.31 459.92,-149.63 463.67,-143.71"/>
</g>
<!-- /lib/models/game_model.dart&#45;&gt;/lib/models/player_model.dart -->
<g id="edge6" class="edge">
<title>/lib/models/game_model.dart&#45;&gt;/lib/models/player_model.dart</title>
<path fill="none" stroke="#aabbaa" stroke-width="1.3" stroke-dasharray="5,2" stroke-opacity="0.533333" d="M521.96,-175.52C508.09,-166.6 490.07,-155.63 473.55,-146.03"/>
<polygon fill="#aabbaa" fill-opacity="0.533333" stroke="#aabbaa" stroke-width="1.3" stroke-opacity="0.533333" points="475.63,-143.19 465.22,-141.24 472.15,-149.26 475.63,-143.19"/>
</g>
<!-- /lib/models/deck_model.dart -->
<g id="node7" class="node">
<title>/lib/models/deck_model.dart</title>
<path fill="Lavender" stroke="black" stroke-width="1.3" d="M584.12,-140C584.12,-140 511.88,-140 511.88,-140 505.88,-140 499.88,-134 499.88,-128 499.88,-128 499.88,-116 499.88,-116 499.88,-110 505.88,-104 511.88,-104 511.88,-104 584.12,-104 584.12,-104 590.12,-104 596.12,-110 596.12,-116 596.12,-116 596.12,-128 596.12,-128 596.12,-134 590.12,-140 584.12,-140"/>
<text text-anchor="middle" x="548" y="-116.75" font-family="Arial" font-size="15.00">deck_model</text>
</g>
<!-- /lib/models/game_model.dart&#45;&gt;/lib/models/deck_model.dart -->
<g id="edge2" class="edge">
<title>/lib/models/game_model.dart&#45;&gt;/lib/models/deck_model.dart</title>
<path fill="none" stroke="#aabbaa" stroke-width="1.3" stroke-opacity="0.533333" d="M539.83,-175.7C539.39,-168.49 539.51,-159.93 540.11,-151.82"/>
<polygon fill="#aabbaa" fill-opacity="0.533333" stroke="#aabbaa" stroke-width="1.3" stroke-opacity="0.533333" points="543.57,-152.38 541.16,-142.06 536.61,-151.63 543.57,-152.38"/>
</g>
<!-- /lib/models/game_model.dart&#45;&gt;/lib/models/deck_model.dart -->
<g id="edge5" class="edge">
<title>/lib/models/game_model.dart&#45;&gt;/lib/models/deck_model.dart</title>
<path fill="none" stroke="#aabbaa" stroke-width="1.3" stroke-dasharray="5,2" stroke-opacity="0.533333" d="M551.66,-175.7C552.71,-168.49 553.32,-159.93 553.42,-151.82"/>
<polygon fill="#aabbaa" fill-opacity="0.533333" stroke="#aabbaa" stroke-width="1.3" stroke-opacity="0.533333" points="556.93,-151.99 553.21,-142.07 549.93,-152.15 556.93,-151.99"/>
</g>
<!-- /lib/screens/game_over_screen.dart -->
<g id="node9" class="node">
<title>/lib/screens/game_over_screen.dart</title>
<path fill="Lavender" stroke="black" stroke-width="1.3" d="M460.12,-445C460.12,-445 339.88,-445 339.88,-445 333.88,-445 327.88,-439 327.88,-433 327.88,-433 327.88,-421 327.88,-421 327.88,-415 333.88,-409 339.88,-409 339.88,-409 460.12,-409 460.12,-409 466.12,-409 472.12,-415 472.12,-421 472.12,-421 472.12,-433 472.12,-433 472.12,-439 466.12,-445 460.12,-445"/>
<text text-anchor="middle" x="400" y="-421.75" font-family="Arial" font-size="15.00">game_over_screen</text>
</g>
<!-- /lib/models/game_model.dart&#45;&gt;/lib/screens/game_over_screen.dart -->
<g id="edge4" class="edge">
<title>/lib/models/game_model.dart&#45;&gt;/lib/screens/game_over_screen.dart</title>
<path fill="none" stroke="#aabbaa" stroke-width="1.3" stroke-opacity="0.533333" d="M550.05,-212.37C562.5,-256.91 591.95,-373.62 567,-401 561.55,-406.98 510.83,-407.55 484.21,-409.27"/>
<polygon fill="#aabbaa" fill-opacity="0.533333" stroke="#aabbaa" stroke-width="1.3" stroke-opacity="0.533333" points="483.94,-405.78 474.31,-410.2 484.59,-412.75 483.94,-405.78"/>
</g>
<!-- /lib/models/card_model.dart -->
<g id="node6" class="node">
<title>/lib/models/card_model.dart</title>
<path fill="Lavender" stroke="black" stroke-width="1.3" d="M583,-68C583,-68 513,-68 513,-68 507,-68 501,-62 501,-56 501,-56 501,-44 501,-44 501,-38 507,-32 513,-32 513,-32 583,-32 583,-32 589,-32 595,-38 595,-44 595,-44 595,-56 595,-56 595,-62 589,-68 583,-68"/>
<text text-anchor="middle" x="548" y="-44.75" font-family="Arial" font-size="15.00">card_model</text>
</g>
<!-- /lib/models/player_model.dart&#45;&gt;/lib/models/card_model.dart -->
<g id="edge7" class="edge">
<title>/lib/models/player_model.dart&#45;&gt;/lib/models/card_model.dart</title>
<path fill="none" stroke="#aabbaa" stroke-width="1.3" stroke-opacity="0.533333" d="M452.79,-103.52C467.05,-94.6 485.54,-83.63 502.46,-74.03"/>
<polygon fill="#aabbaa" fill-opacity="0.533333" stroke="#aabbaa" stroke-width="1.3" stroke-opacity="0.533333" points="504.02,-77.17 511.03,-69.22 500.6,-71.06 504.02,-77.17"/>
</g>
<!-- /lib/models/player_model.dart&#45;&gt;/lib/models/card_model.dart -->
<g id="edge8" class="edge">
<title>/lib/models/player_model.dart&#45;&gt;/lib/models/card_model.dart</title>
<path fill="none" stroke="#aabbaa" stroke-width="1.3" stroke-dasharray="5,2" stroke-opacity="0.533333" d="M464.66,-103.52C480.58,-94.68 499.17,-83.84 514.79,-74.3"/>
<polygon fill="#aabbaa" fill-opacity="0.533333" stroke="#aabbaa" stroke-width="1.3" stroke-opacity="0.533333" points="516.23,-77.53 522.89,-69.29 512.55,-71.57 516.23,-77.53"/>
</g>
<!-- /lib/models/deck_model.dart&#45;&gt;/lib/models/card_model.dart -->
<g id="edge9" class="edge">
<title>/lib/models/deck_model.dart&#45;&gt;/lib/models/card_model.dart</title>
<path fill="none" stroke="#aabbaa" stroke-width="1.3" stroke-opacity="0.533333" d="M542.08,-103.7C541.34,-96.49 541.09,-87.93 541.34,-79.82"/>
<polygon fill="#aabbaa" fill-opacity="0.533333" stroke="#aabbaa" stroke-width="1.3" stroke-opacity="0.533333" points="544.82,-80.27 541.98,-70.07 537.84,-79.82 544.82,-80.27"/>
</g>
<!-- /lib/models/deck_model.dart&#45;&gt;/lib/models/card_model.dart -->
<g id="edge10" class="edge">
<title>/lib/models/deck_model.dart&#45;&gt;/lib/models/card_model.dart</title>
<path fill="none" stroke="#aabbaa" stroke-width="1.3" stroke-dasharray="5,2" stroke-opacity="0.533333" d="M553.92,-103.7C554.66,-96.49 554.91,-87.93 554.66,-79.82"/>
<polygon fill="#aabbaa" fill-opacity="0.533333" stroke="#aabbaa" stroke-width="1.3" stroke-opacity="0.533333" points="558.16,-79.82 554.02,-70.07 551.18,-80.27 558.16,-79.82"/>
</g>
<!-- /lib/screens/game_screen.dart -->
<g id="node8" class="node">
<title>/lib/screens/game_screen.dart</title>
<path fill="Lavender" stroke="black" stroke-width="1.3" d="M546.38,-370C546.38,-370 463.62,-370 463.62,-370 457.62,-370 451.62,-364 451.62,-358 451.62,-358 451.62,-346 451.62,-346 451.62,-340 457.62,-334 463.62,-334 463.62,-334 546.38,-334 546.38,-334 552.38,-334 558.38,-340 558.38,-346 558.38,-346 558.38,-358 558.38,-358 558.38,-364 552.38,-370 546.38,-370"/>
<text text-anchor="middle" x="505" y="-346.75" font-family="Arial" font-size="15.00">game_screen</text>
</g>
<!-- /lib/screens/game_screen.dart&#45;&gt;/lib/models/game_model.dart -->
<g id="edge11" class="edge">
<title>/lib/screens/game_screen.dart&#45;&gt;/lib/models/game_model.dart</title>
<path fill="none" stroke="#aabbaa" stroke-width="1.3" stroke-opacity="0.533333" d="M509.43,-333.71C516.25,-307.12 529.39,-255.9 537.64,-223.69"/>
<polygon fill="#aabbaa" fill-opacity="0.533333" stroke="#aabbaa" stroke-width="1.3" stroke-opacity="0.533333" points="540.96,-224.83 540.06,-214.27 534.18,-223.09 540.96,-224.83"/>
</g>
<!-- /lib/screens/screen.dart -->
<g id="node11" class="node">
<title>/lib/screens/screen.dart</title>
<path fill="Lavender" stroke="black" stroke-width="1.3" d="M484.5,-295C484.5,-295 447.5,-295 447.5,-295 441.5,-295 435.5,-289 435.5,-283 435.5,-283 435.5,-271 435.5,-271 435.5,-265 441.5,-259 447.5,-259 447.5,-259 484.5,-259 484.5,-259 490.5,-259 496.5,-265 496.5,-271 496.5,-271 496.5,-283 496.5,-283 496.5,-289 490.5,-295 484.5,-295"/>
<text text-anchor="middle" x="466" y="-271.75" font-family="Arial" font-size="15.00">screen</text>
</g>
<!-- /lib/screens/game_screen.dart&#45;&gt;/lib/screens/screen.dart -->
<g id="edge12" class="edge">
<title>/lib/screens/game_screen.dart&#45;&gt;/lib/screens/screen.dart</title>
<path fill="none" stroke="#aabbaa" stroke-width="1.3" stroke-opacity="0.533333" d="M495.76,-333.7C491.32,-325.4 485.9,-315.24 480.9,-305.88"/>
<polygon fill="#aabbaa" fill-opacity="0.533333" stroke="#aabbaa" stroke-width="1.3" stroke-opacity="0.533333" points="484.04,-304.34 476.24,-297.16 477.86,-307.63 484.04,-304.34"/>
</g>
<!-- /lib/widgets/player_zone.dart -->
<g id="node18" class="node">
<title>/lib/widgets/player_zone.dart</title>
<path fill="Lavender" stroke="black" stroke-width="1.3" d="M937.5,-370C937.5,-370 864.5,-370 864.5,-370 858.5,-370 852.5,-364 852.5,-358 852.5,-358 852.5,-346 852.5,-346 852.5,-340 858.5,-334 864.5,-334 864.5,-334 937.5,-334 937.5,-334 943.5,-334 949.5,-340 949.5,-346 949.5,-346 949.5,-358 949.5,-358 949.5,-364 943.5,-370 937.5,-370"/>
<text text-anchor="middle" x="901" y="-346.75" font-family="Arial" font-size="15.00">player_zone</text>
</g>
<!-- /lib/screens/game_screen.dart&#45;&gt;/lib/widgets/player_zone.dart -->
<g id="edge13" class="edge">
<title>/lib/screens/game_screen.dart&#45;&gt;/lib/widgets/player_zone.dart</title>
<path fill="none" stroke="#aabbaa" stroke-width="1.3" stroke-opacity="0.533333" d="M534.07,-370.4C555.93,-383.05 587.12,-398.66 617,-405 640.59,-410.01 810.41,-410.01 834,-405 850.88,-401.42 866.25,-390.15 878.01,-378.91"/>
<polygon fill="#aabbaa" fill-opacity="0.533333" stroke="#aabbaa" stroke-width="1.3" stroke-opacity="0.533333" points="880.4,-381.47 884.88,-371.87 875.39,-376.58 880.4,-381.47"/>
</g>
<!-- /lib/screens/game_over_screen.dart&#45;&gt;/lib/models/player_model.dart -->
<g id="edge14" class="edge">
<title>/lib/screens/game_over_screen.dart&#45;&gt;/lib/models/player_model.dart</title>
<path fill="none" stroke="#aabbaa" stroke-width="1.3" stroke-opacity="0.533333" d="M401.64,-408.84C406.41,-359.06 420.27,-214.22 426.23,-151.98"/>
<polygon fill="#aabbaa" fill-opacity="0.533333" stroke="#aabbaa" stroke-width="1.3" stroke-opacity="0.533333" points="429.68,-152.59 427.15,-142.3 422.72,-151.93 429.68,-152.59"/>
</g>
<!-- /lib/screens/setup_screen.dart -->
<g id="node10" class="node">
<title>/lib/screens/setup_screen.dart</title>
<path fill="Lavender" stroke="black" stroke-width="1.3" d="M584,-445C584,-445 502,-445 502,-445 496,-445 490,-439 490,-433 490,-433 490,-421 490,-421 490,-415 496,-409 502,-409 502,-409 584,-409 584,-409 590,-409 596,-415 596,-421 596,-421 596,-433 596,-433 596,-439 590,-445 584,-445"/>
<text text-anchor="middle" x="543" y="-421.75" font-family="Arial" font-size="15.00">setup_screen</text>
</g>
<!-- /lib/screens/setup_screen.dart&#45;&gt;/lib/models/game_model.dart -->
<g id="edge15" class="edge">
<title>/lib/screens/setup_screen.dart&#45;&gt;/lib/models/game_model.dart</title>
<path fill="none" stroke="#aabbaa" stroke-width="1.3" stroke-opacity="0.533333" d="M576.14,-408.67C578.44,-406.37 580.46,-403.82 582,-401 613.98,-342.51 601.19,-314.85 582,-251 578.91,-240.73 573.27,-230.61 567.3,-221.86"/>
<polygon fill="#aabbaa" fill-opacity="0.533333" stroke="#aabbaa" stroke-width="1.3" stroke-opacity="0.533333" points="570.18,-219.87 561.44,-213.87 564.53,-224.01 570.18,-219.87"/>
</g>
<!-- /lib/screens/setup_screen.dart&#45;&gt;/lib/screens/game_screen.dart -->
<g id="edge16" class="edge">
<title>/lib/screens/setup_screen.dart&#45;&gt;/lib/screens/game_screen.dart</title>
<path fill="none" stroke="#aabbaa" stroke-width="1.3" stroke-opacity="0.533333" d="M533.99,-408.7C529.67,-400.4 524.39,-390.24 519.52,-380.88"/>
<polygon fill="#aabbaa" fill-opacity="0.533333" stroke="#aabbaa" stroke-width="1.3" stroke-opacity="0.533333" points="522.7,-379.43 514.98,-372.17 516.49,-382.66 522.7,-379.43"/>
</g>
<!-- /lib/screens/setup_screen.dart&#45;&gt;/lib/screens/screen.dart -->
<g id="edge17" class="edge">
<title>/lib/screens/setup_screen.dart&#45;&gt;/lib/screens/screen.dart</title>
<path fill="none" stroke="#aabbaa" stroke-width="1.3" stroke-opacity="0.533333" d="M489.62,-411.14C486.71,-410.4 483.82,-409.68 481,-409 464.23,-404.94 453.87,-414.4 443,-401 421.1,-374.02 435.55,-332.73 449.47,-305.55"/>
<polygon fill="#aabbaa" fill-opacity="0.533333" stroke="#aabbaa" stroke-width="1.3" stroke-opacity="0.533333" points="452.46,-307.38 454.16,-296.92 446.31,-304.04 452.46,-307.38"/>
</g>
<!-- /lib/widgets/list_players.dart -->
<g id="node14" class="node">
<title>/lib/widgets/list_players.dart</title>
<path fill="Lavender" stroke="black" stroke-width="1.3" d="M698.12,-370C698.12,-370 631.88,-370 631.88,-370 625.88,-370 619.88,-364 619.88,-358 619.88,-358 619.88,-346 619.88,-346 619.88,-340 625.88,-334 631.88,-334 631.88,-334 698.12,-334 698.12,-334 704.12,-334 710.12,-340 710.12,-346 710.12,-346 710.12,-358 710.12,-358 710.12,-364 704.12,-370 698.12,-370"/>
<text text-anchor="middle" x="665" y="-346.75" font-family="Arial" font-size="15.00">list_players</text>
</g>
<!-- /lib/screens/setup_screen.dart&#45;&gt;/lib/widgets/list_players.dart -->
<g id="edge18" class="edge">
<title>/lib/screens/setup_screen.dart&#45;&gt;/lib/widgets/list_players.dart</title>
<path fill="none" stroke="#aabbaa" stroke-width="1.3" stroke-opacity="0.533333" d="M593.48,-408.53C598.49,-406.22 603.42,-403.71 608,-401 618.86,-394.58 629.72,-386.09 639,-378.04"/>
<polygon fill="#aabbaa" fill-opacity="0.533333" stroke="#aabbaa" stroke-width="1.3" stroke-opacity="0.533333" points="641.13,-380.83 646.23,-371.54 636.45,-375.62 641.13,-380.83"/>
</g>
<!-- /lib/widgets/text_url.dart -->
<g id="node22" class="node">
<title>/lib/widgets/text_url.dart</title>
<path fill="Lavender" stroke="black" stroke-width="1.3" d="M1020.75,-370C1020.75,-370 979.25,-370 979.25,-370 973.25,-370 967.25,-364 967.25,-358 967.25,-358 967.25,-346 967.25,-346 967.25,-340 973.25,-334 979.25,-334 979.25,-334 1020.75,-334 1020.75,-334 1026.75,-334 1032.75,-340 1032.75,-346 1032.75,-346 1032.75,-358 1032.75,-358 1032.75,-364 1026.75,-370 1020.75,-370"/>
<text text-anchor="middle" x="1000" y="-346.75" font-family="Arial" font-size="15.00">text_url</text>
</g>
<!-- /lib/screens/setup_screen.dart&#45;&gt;/lib/widgets/text_url.dart -->
<g id="edge19" class="edge">
<title>/lib/screens/setup_screen.dart&#45;&gt;/lib/widgets/text_url.dart</title>
<path fill="none" stroke="#aabbaa" stroke-width="1.3" stroke-opacity="0.533333" d="M596.42,-425.11C701.43,-423.03 927.34,-416.76 959,-401 968.59,-396.23 976.83,-388.1 983.36,-379.88"/>
<polygon fill="#aabbaa" fill-opacity="0.533333" stroke="#aabbaa" stroke-width="1.3" stroke-opacity="0.533333" points="986.05,-382.13 989.06,-371.97 980.38,-378.03 986.05,-382.13"/>
</g>
<!-- /lib/main.dart -->
<g id="node12" class="node">
<title>/lib/main.dart</title>
<path fill="Lavender" stroke="black" stroke-width="1.3" d="M524,-520C524,-520 494,-520 494,-520 488,-520 482,-514 482,-508 482,-508 482,-496 482,-496 482,-490 488,-484 494,-484 494,-484 524,-484 524,-484 530,-484 536,-490 536,-496 536,-496 536,-508 536,-508 536,-514 530,-520 524,-520"/>
<text text-anchor="middle" x="509" y="-496.75" font-family="Arial" font-size="15.00">main</text>
</g>
<!-- /lib/main.dart&#45;&gt;/lib/firebase_options.dart -->
<g id="edge20" class="edge">
<title>/lib/main.dart&#45;&gt;/lib/firebase_options.dart</title>
<path fill="none" stroke="#aabbaa" stroke-width="1.3" stroke-opacity="0.533333" d="M481.62,-493.19C468.79,-489.82 453.22,-486.17 439,-484 411.92,-479.86 341.86,-485.04 316,-476 301.36,-470.88 286.99,-461.74 275.18,-452.8"/>
<polygon fill="#aabbaa" fill-opacity="0.533333" stroke="#aabbaa" stroke-width="1.3" stroke-opacity="0.533333" points="277.47,-450.15 267.46,-446.66 273.11,-455.62 277.47,-450.15"/>
</g>
<!-- /lib/main.dart&#45;&gt;/lib/screens/setup_screen.dart -->
<g id="edge21" class="edge">
<title>/lib/main.dart&#45;&gt;/lib/screens/setup_screen.dart</title>
<path fill="none" stroke="#aabbaa" stroke-width="1.3" stroke-opacity="0.533333" d="M517.06,-483.7C520.88,-475.49 525.55,-465.46 529.87,-456.19"/>
<polygon fill="#aabbaa" fill-opacity="0.533333" stroke="#aabbaa" stroke-width="1.3" stroke-opacity="0.533333" points="533,-457.76 534.05,-447.21 526.66,-454.8 533,-457.76"/>
</g>
<!-- /lib/widgets/blink.dart -->
<g id="node13" class="node">
<title>/lib/widgets/blink.dart</title>
<path fill="Lavender" stroke="black" stroke-width="1.3" d="M673,-140C673,-140 643,-140 643,-140 637,-140 631,-134 631,-128 631,-128 631,-116 631,-116 631,-110 637,-104 643,-104 643,-104 673,-104 673,-104 679,-104 685,-110 685,-116 685,-116 685,-128 685,-128 685,-134 679,-140 673,-140"/>
<text text-anchor="middle" x="658" y="-116.75" font-family="Arial" font-size="15.00">blink</text>
</g>
<!-- /lib/widgets/playing_card_widget.dart -->
<g id="node15" class="node">
<title>/lib/widgets/playing_card_widget.dart</title>
<path fill="Lavender" stroke="black" stroke-width="1.3" d="M842.5,-140C842.5,-140 715.5,-140 715.5,-140 709.5,-140 703.5,-134 703.5,-128 703.5,-128 703.5,-116 703.5,-116 703.5,-110 709.5,-104 715.5,-104 715.5,-104 842.5,-104 842.5,-104 848.5,-104 854.5,-110 854.5,-116 854.5,-116 854.5,-128 854.5,-128 854.5,-134 848.5,-140 842.5,-140"/>
<text text-anchor="middle" x="779" y="-116.75" font-family="Arial" font-size="15.00">playing_card_widget</text>
</g>
<!-- /lib/widgets/playing_card_widget.dart&#45;&gt;/lib/models/card_model.dart -->
<g id="edge22" class="edge">
<title>/lib/widgets/playing_card_widget.dart&#45;&gt;/lib/models/card_model.dart</title>
<path fill="none" stroke="#aabbaa" stroke-width="1.3" stroke-opacity="0.533333" d="M721.3,-103.52C686.21,-92.88 641.53,-79.34 606.33,-68.68"/>
<polygon fill="#aabbaa" fill-opacity="0.533333" stroke="#aabbaa" stroke-width="1.3" stroke-opacity="0.533333" points="607.73,-65.44 597.14,-65.89 605.7,-72.14 607.73,-65.44"/>
</g>
<!-- /lib/widgets/table_surface.dart -->
<g id="node16" class="node">
<title>/lib/widgets/table_surface.dart</title>
<path fill="Lavender" stroke="black" stroke-width="1.3" d="M822,-370C822,-370 740,-370 740,-370 734,-370 728,-364 728,-358 728,-358 728,-346 728,-346 728,-340 734,-334 740,-334 740,-334 822,-334 822,-334 828,-334 834,-340 834,-346 834,-346 834,-358 834,-358 834,-364 828,-370 822,-370"/>
<text text-anchor="middle" x="781" y="-346.75" font-family="Arial" font-size="15.00">table_surface</text>
</g>
<!-- /lib/widgets/blinking_text.dart -->
<g id="node17" class="node">
<title>/lib/widgets/blinking_text.dart</title>
<path fill="Lavender" stroke="black" stroke-width="1.3" d="M706.25,-212C706.25,-212 631.75,-212 631.75,-212 625.75,-212 619.75,-206 619.75,-200 619.75,-200 619.75,-188 619.75,-188 619.75,-182 625.75,-176 631.75,-176 631.75,-176 706.25,-176 706.25,-176 712.25,-176 718.25,-182 718.25,-188 718.25,-188 718.25,-200 718.25,-200 718.25,-206 712.25,-212 706.25,-212"/>
<text text-anchor="middle" x="669" y="-188.75" font-family="Arial" font-size="15.00">blinking_text</text>
</g>
<!-- /lib/widgets/blinking_text.dart&#45;&gt;/lib/widgets/blink.dart -->
<g id="edge23" class="edge">
<title>/lib/widgets/blinking_text.dart&#45;&gt;/lib/widgets/blink.dart</title>
<path fill="none" stroke="#aabbaa" stroke-width="1.3" stroke-opacity="0.533333" d="M666.28,-175.7C665.15,-168.49 663.8,-159.93 662.53,-151.82"/>
<polygon fill="#aabbaa" fill-opacity="0.533333" stroke="#aabbaa" stroke-width="1.3" stroke-opacity="0.533333" points="666,-151.38 660.99,-142.05 659.09,-152.47 666,-151.38"/>
</g>
<!-- /lib/widgets/player_zone.dart&#45;&gt;/lib/models/game_model.dart -->
<g id="edge24" class="edge">
<title>/lib/widgets/player_zone.dart&#45;&gt;/lib/models/game_model.dart</title>
<path fill="none" stroke="#aabbaa" stroke-width="1.3" stroke-opacity="0.533333" d="M852.14,-335.78C849.07,-335.1 846,-334.5 843,-334 823.47,-330.75 682.53,-335.19 665,-326 627.92,-306.56 636.45,-281.72 608,-251 598.08,-240.29 586.32,-229.42 575.67,-220.14"/>
<polygon fill="#aabbaa" fill-opacity="0.533333" stroke="#aabbaa" stroke-width="1.3" stroke-opacity="0.533333" points="578.03,-217.56 568.16,-213.72 573.48,-222.88 578.03,-217.56"/>
</g>
<!-- /lib/widgets/player_zone.dart&#45;&gt;/lib/widgets/playing_card_widget.dart -->
<g id="edge27" class="edge">
<title>/lib/widgets/player_zone.dart&#45;&gt;/lib/widgets/playing_card_widget.dart</title>
<path fill="none" stroke="#aabbaa" stroke-width="1.3" stroke-opacity="0.533333" d="M932.14,-333.83C934.45,-331.48 936.47,-328.88 938,-326 953.64,-296.56 950.11,-282.05 938,-251 918.85,-201.9 868.3,-166.65 829.28,-145.73"/>
<polygon fill="#aabbaa" fill-opacity="0.533333" stroke="#aabbaa" stroke-width="1.3" stroke-opacity="0.533333" points="831.37,-142.87 820.88,-141.37 828.14,-149.08 831.37,-142.87"/>
</g>
<!-- /lib/widgets/player_zone_cta.dart -->
<g id="node20" class="node">
<title>/lib/widgets/player_zone_cta.dart</title>
<path fill="Lavender" stroke="black" stroke-width="1.3" d="M787.75,-295C787.75,-295 686.25,-295 686.25,-295 680.25,-295 674.25,-289 674.25,-283 674.25,-283 674.25,-271 674.25,-271 674.25,-265 680.25,-259 686.25,-259 686.25,-259 787.75,-259 787.75,-259 793.75,-259 799.75,-265 799.75,-271 799.75,-271 799.75,-283 799.75,-283 799.75,-289 793.75,-295 787.75,-295"/>
<text text-anchor="middle" x="737" y="-271.75" font-family="Arial" font-size="15.00">player_zone_cta</text>
</g>
<!-- /lib/widgets/player_zone.dart&#45;&gt;/lib/widgets/player_zone_cta.dart -->
<g id="edge26" class="edge">
<title>/lib/widgets/player_zone.dart&#45;&gt;/lib/widgets/player_zone_cta.dart</title>
<path fill="none" stroke="#aabbaa" stroke-width="1.3" stroke-opacity="0.533333" d="M852.01,-336.42C848.97,-335.58 845.94,-334.77 843,-334 827.56,-329.98 822.64,-332.35 808,-326 793.93,-319.89 779.67,-310.91 767.66,-302.37"/>
<polygon fill="#aabbaa" fill-opacity="0.533333" stroke="#aabbaa" stroke-width="1.3" stroke-opacity="0.533333" points="769.87,-299.65 759.74,-296.54 765.72,-305.29 769.87,-299.65"/>
</g>
<!-- /lib/widgets/player_header.dart -->
<g id="node21" class="node">
<title>/lib/widgets/player_header.dart</title>
<path fill="Lavender" stroke="black" stroke-width="1.3" d="M916.62,-295C916.62,-295 829.38,-295 829.38,-295 823.38,-295 817.38,-289 817.38,-283 817.38,-283 817.38,-271 817.38,-271 817.38,-265 823.38,-259 829.38,-259 829.38,-259 916.62,-259 916.62,-259 922.62,-259 928.62,-265 928.62,-271 928.62,-271 928.62,-283 928.62,-283 928.62,-289 922.62,-295 916.62,-295"/>
<text text-anchor="middle" x="873" y="-271.75" font-family="Arial" font-size="15.00">player_header</text>
</g>
<!-- /lib/widgets/player_zone.dart&#45;&gt;/lib/widgets/player_header.dart -->
<g id="edge25" class="edge">
<title>/lib/widgets/player_zone.dart&#45;&gt;/lib/widgets/player_header.dart</title>
<path fill="none" stroke="#aabbaa" stroke-width="1.3" stroke-opacity="0.533333" d="M894.36,-333.7C891.25,-325.58 887.45,-315.68 883.93,-306.5"/>
<polygon fill="#aabbaa" fill-opacity="0.533333" stroke="#aabbaa" stroke-width="1.3" stroke-opacity="0.533333" points="887.24,-305.35 880.39,-297.27 880.7,-307.86 887.24,-305.35"/>
</g>
<!-- /lib/widgets/card_piles.dart -->
<g id="node19" class="node">
<title>/lib/widgets/card_piles.dart</title>
<path fill="Lavender" stroke="black" stroke-width="1.3" d="M847.75,-212C847.75,-212 788.25,-212 788.25,-212 782.25,-212 776.25,-206 776.25,-200 776.25,-200 776.25,-188 776.25,-188 776.25,-182 782.25,-176 788.25,-176 788.25,-176 847.75,-176 847.75,-176 853.75,-176 859.75,-182 859.75,-188 859.75,-188 859.75,-200 859.75,-200 859.75,-206 853.75,-212 847.75,-212"/>
<text text-anchor="middle" x="818" y="-188.75" font-family="Arial" font-size="15.00">card_piles</text>
</g>
<!-- /lib/widgets/card_piles.dart&#45;&gt;/lib/models/card_model.dart -->
<g id="edge28" class="edge">
<title>/lib/widgets/card_piles.dart&#45;&gt;/lib/models/card_model.dart</title>
<path fill="none" stroke="#aabbaa" stroke-width="1.3" stroke-opacity="0.533333" d="M837.12,-175.62C857.67,-154.85 884.77,-119.93 864,-96 831.45,-58.49 689.57,-51.45 607.41,-50.59"/>
<polygon fill="#aabbaa" fill-opacity="0.533333" stroke="#aabbaa" stroke-width="1.3" stroke-opacity="0.533333" points="607.49,-47.09 597.47,-50.52 607.44,-54.09 607.49,-47.09"/>
</g>
<!-- /lib/widgets/card_piles.dart&#45;&gt;/lib/widgets/playing_card_widget.dart -->
<g id="edge29" class="edge">
<title>/lib/widgets/card_piles.dart&#45;&gt;/lib/widgets/playing_card_widget.dart</title>
<path fill="none" stroke="#aabbaa" stroke-width="1.3" stroke-opacity="0.533333" d="M808.36,-175.7C804.11,-168.07 799.01,-158.92 794.26,-150.4"/>
<polygon fill="#aabbaa" fill-opacity="0.533333" stroke="#aabbaa" stroke-width="1.3" stroke-opacity="0.533333" points="797.41,-148.86 789.49,-141.82 791.3,-152.26 797.41,-148.86"/>
</g>
<!-- /lib/widgets/player_zone_cta.dart&#45;&gt;/lib/models/game_model.dart -->
<g id="edge30" class="edge">
<title>/lib/widgets/player_zone_cta.dart&#45;&gt;/lib/models/game_model.dart</title>
<path fill="none" stroke="#aabbaa" stroke-width="1.3" stroke-opacity="0.533333" d="M673.78,-259.37C662.86,-256.55 651.61,-253.67 641,-251 626.36,-247.32 621.63,-249.49 608,-243 595.45,-237.02 582.99,-228.29 572.51,-219.9"/>
<polygon fill="#aabbaa" fill-opacity="0.533333" stroke="#aabbaa" stroke-width="1.3" stroke-opacity="0.533333" points="574.92,-217.35 565,-213.64 570.44,-222.73 574.92,-217.35"/>
</g>
<!-- /lib/widgets/player_zone_cta.dart&#45;&gt;/lib/widgets/blink.dart -->
<g id="edge31" class="edge">
<title>/lib/widgets/player_zone_cta.dart&#45;&gt;/lib/widgets/blink.dart</title>
<path fill="none" stroke="#aabbaa" stroke-width="1.3" stroke-opacity="0.533333" d="M739.26,-258.5C741.1,-237.51 741.42,-201.92 727,-176 719.66,-162.8 707.52,-151.83 695.46,-143.35"/>
<polygon fill="#aabbaa" fill-opacity="0.533333" stroke="#aabbaa" stroke-width="1.3" stroke-opacity="0.533333" points="697.39,-140.43 687.1,-137.9 693.56,-146.3 697.39,-140.43"/>
</g>
<!-- /lib/widgets/player_zone_cta.dart&#45;&gt;/lib/widgets/playing_card_widget.dart -->
<g id="edge34" class="edge">
<title>/lib/widgets/player_zone_cta.dart&#45;&gt;/lib/widgets/playing_card_widget.dart</title>
<path fill="none" stroke="#aabbaa" stroke-width="1.3" stroke-opacity="0.533333" d="M741.74,-258.75C748.86,-232.81 762.41,-183.44 771.06,-151.93"/>
<polygon fill="#aabbaa" fill-opacity="0.533333" stroke="#aabbaa" stroke-width="1.3" stroke-opacity="0.533333" points="774.42,-152.89 773.7,-142.32 767.67,-151.04 774.42,-152.89"/>
</g>
<!-- /lib/widgets/player_zone_cta.dart&#45;&gt;/lib/widgets/blinking_text.dart -->
<g id="edge32" class="edge">
<title>/lib/widgets/player_zone_cta.dart&#45;&gt;/lib/widgets/blinking_text.dart</title>
<path fill="none" stroke="#aabbaa" stroke-width="1.3" stroke-opacity="0.533333" d="M722.58,-258.82C713.45,-247.94 701.45,-233.66 691.13,-221.36"/>
<polygon fill="#aabbaa" fill-opacity="0.533333" stroke="#aabbaa" stroke-width="1.3" stroke-opacity="0.533333" points="694.01,-219.35 684.9,-213.94 688.65,-223.85 694.01,-219.35"/>
</g>
<!-- /lib/widgets/player_zone_cta.dart&#45;&gt;/lib/widgets/card_piles.dart -->
<g id="edge33" class="edge">
<title>/lib/widgets/player_zone_cta.dart&#45;&gt;/lib/widgets/card_piles.dart</title>
<path fill="none" stroke="#aabbaa" stroke-width="1.3" stroke-opacity="0.533333" d="M754.18,-258.82C765.27,-247.73 779.91,-233.09 792.36,-220.64"/>
<polygon fill="#aabbaa" fill-opacity="0.533333" stroke="#aabbaa" stroke-width="1.3" stroke-opacity="0.533333" points="794.58,-223.37 799.18,-213.82 789.63,-218.42 794.58,-223.37"/>
</g>
</g>
</svg>
