<?xml version="1.0" encoding="UTF-8" standalone="no"?>
<!DOCTYPE svg PUBLIC "-//W3C//DTD SVG 1.1//EN"
 "http://www.w3.org/Graphics/SVG/1.1/DTD/svg11.dtd">
<!-- Generated by graphviz version 12.1.2 (20240928.0832)
 -->
<!-- Pages: 1 -->
<svg width="1646pt" height="813pt"
 viewBox="0.00 0.00 1646.16 812.50" xmlns="http://www.w3.org/2000/svg" xmlns:xlink="http://www.w3.org/1999/xlink">
<g id="graph0" class="graph" transform="scale(1 1) rotate(0) translate(4 808.5)">
<polygon fill="white" stroke="none" points="-4,4 -4,-808.5 1642.16,-808.5 1642.16,4 -4,4"/>
<g id="clust1" class="cluster">
<title>cluster~</title>
<path fill="none" stroke="lightgray" stroke-width="2.6" d="M20.16,-8C20.16,-8 1618.16,-8 1618.16,-8 1624.16,-8 1630.16,-14 1630.16,-20 1630.16,-20 1630.16,-784.5 1630.16,-784.5 1630.16,-790.5 1624.16,-796.5 1618.16,-796.5 1618.16,-796.5 20.16,-796.5 20.16,-796.5 14.16,-796.5 8.16,-790.5 8.16,-784.5 8.16,-784.5 8.16,-20 8.16,-20 8.16,-14 14.16,-8 20.16,-8"/>
<text text-anchor="middle" x="819.16" y="-780.15" font-family="Arial Black" font-size="13.00">cards</text>
</g>
<g id="clust2" class="cluster">
<title>cluster~/lib</title>
<path fill="none" stroke="lightgray" stroke-width="2.6" d="M28.16,-16C28.16,-16 1132.16,-16 1132.16,-16 1138.16,-16 1144.16,-22 1144.16,-28 1144.16,-28 1144.16,-749 1144.16,-749 1144.16,-755 1138.16,-761 1132.16,-761 1132.16,-761 28.16,-761 28.16,-761 22.16,-761 16.16,-755 16.16,-749 16.16,-749 16.16,-28 16.16,-28 16.16,-22 22.16,-16 28.16,-16"/>
<text text-anchor="middle" x="580.16" y="-744.65" font-family="Arial Black" font-size="13.00">lib</text>
</g>
<g id="clust3" class="cluster">
<title>cluster~/lib/models</title>
<path fill="none" stroke="lightgray" stroke-width="2.6" d="M772.16,-24C772.16,-24 1124.16,-24 1124.16,-24 1130.16,-24 1136.16,-30 1136.16,-36 1136.16,-36 1136.16,-235.5 1136.16,-235.5 1136.16,-241.5 1130.16,-247.5 1124.16,-247.5 1124.16,-247.5 772.16,-247.5 772.16,-247.5 766.16,-247.5 760.16,-241.5 760.16,-235.5 760.16,-235.5 760.16,-36 760.16,-36 760.16,-30 766.16,-24 772.16,-24"/>
<text text-anchor="middle" x="948.16" y="-231.15" font-family="Arial Black" font-size="13.00">models</text>
</g>
<g id="clust4" class="cluster">
<title>cluster~/lib/screens</title>
<path fill="none" stroke="lightgray" stroke-width="2.6" d="M774.16,-450.5C774.16,-450.5 892.16,-450.5 892.16,-450.5 898.16,-450.5 904.16,-456.5 904.16,-462.5 904.16,-462.5 904.16,-669.5 904.16,-669.5 904.16,-675.5 898.16,-681.5 892.16,-681.5 892.16,-681.5 774.16,-681.5 774.16,-681.5 768.16,-681.5 762.16,-675.5 762.16,-669.5 762.16,-669.5 762.16,-462.5 762.16,-462.5 762.16,-456.5 768.16,-450.5 774.16,-450.5"/>
<text text-anchor="middle" x="833.16" y="-665.15" font-family="Arial Black" font-size="13.00">screens</text>
</g>
<g id="clust5" class="cluster">
<title>cluster~/lib/widgets</title>
<path fill="none" stroke="lightgray" stroke-width="2.6" d="M48.16,-24C48.16,-24 740.16,-24 740.16,-24 746.16,-24 752.16,-30 752.16,-36 752.16,-36 752.16,-518 752.16,-518 752.16,-524 746.16,-530 740.16,-530 740.16,-530 48.16,-530 48.16,-530 42.16,-530 36.16,-524 36.16,-518 36.16,-518 36.16,-36 36.16,-36 36.16,-30 42.16,-24 48.16,-24"/>
<text text-anchor="middle" x="394.16" y="-513.65" font-family="Arial Black" font-size="13.00">widgets</text>
</g>
<g id="clust6" class="cluster">
<title>cluster~/test</title>
<path fill="none" stroke="lightgray" stroke-width="2.6" d="M1164.16,-255.5C1164.16,-255.5 1610.16,-255.5 1610.16,-255.5 1616.16,-255.5 1622.16,-261.5 1622.16,-267.5 1622.16,-267.5 1622.16,-366.5 1622.16,-366.5 1622.16,-372.5 1616.16,-378.5 1610.16,-378.5 1610.16,-378.5 1164.16,-378.5 1164.16,-378.5 1158.16,-378.5 1152.16,-372.5 1152.16,-366.5 1152.16,-366.5 1152.16,-267.5 1152.16,-267.5 1152.16,-261.5 1158.16,-255.5 1164.16,-255.5"/>
<text text-anchor="middle" x="1387.16" y="-362.15" font-family="Arial Black" font-size="13.00">test</text>
</g>
<g id="clust7" class="cluster">
<title>cluster~/test/models</title>
<path fill="none" stroke="lightgray" stroke-width="2.6" d="M1172.16,-263.5C1172.16,-263.5 1602.16,-263.5 1602.16,-263.5 1608.16,-263.5 1614.16,-269.5 1614.16,-275.5 1614.16,-275.5 1614.16,-331 1614.16,-331 1614.16,-337 1608.16,-343 1602.16,-343 1602.16,-343 1172.16,-343 1172.16,-343 1166.16,-343 1160.16,-337 1160.16,-331 1160.16,-331 1160.16,-275.5 1160.16,-275.5 1160.16,-269.5 1166.16,-263.5 1172.16,-263.5"/>
<text text-anchor="middle" x="1387.16" y="-326.65" font-family="Arial Black" font-size="13.00">models</text>
</g>
<!-- /lib/main.dart -->
<g id="node1" class="node">
<title>/lib/main.dart</title>
<path fill="Lavender" stroke="black" stroke-width="1.3" d="M835.16,-725.5C835.16,-725.5 805.16,-725.5 805.16,-725.5 799.16,-725.5 793.16,-719.5 793.16,-713.5 793.16,-713.5 793.16,-701.5 793.16,-701.5 793.16,-695.5 799.16,-689.5 805.16,-689.5 805.16,-689.5 835.16,-689.5 835.16,-689.5 841.16,-689.5 847.16,-695.5 847.16,-701.5 847.16,-701.5 847.16,-713.5 847.16,-713.5 847.16,-719.5 841.16,-725.5 835.16,-725.5"/>
<text text-anchor="middle" x="820.16" y="-702.25" font-family="Arial" font-size="15.00">main</text>
</g>
<!-- /lib/screens/start_screen.dart -->
<g id="node11" class="node">
<title>/lib/screens/start_screen.dart</title>
<path fill="Lavender" stroke="black" stroke-width="1.3" d="M857.79,-646C857.79,-646 782.54,-646 782.54,-646 776.54,-646 770.54,-640 770.54,-634 770.54,-634 770.54,-622 770.54,-622 770.54,-616 776.54,-610 782.54,-610 782.54,-610 857.79,-610 857.79,-610 863.79,-610 869.79,-616 869.79,-622 869.79,-622 869.79,-634 869.79,-634 869.79,-640 863.79,-646 857.79,-646"/>
<text text-anchor="middle" x="820.16" y="-622.75" font-family="Arial" font-size="15.00">start_screen</text>
</g>
<!-- /lib/main.dart&#45;&gt;/lib/screens/start_screen.dart -->
<g id="edge1" class="edge">
<title>/lib/main.dart&#45;&gt;/lib/screens/start_screen.dart</title>
<path fill="none" stroke="#aabbaa" stroke-width="1.3" stroke-opacity="0.533333" d="M820.16,-689.3C820.16,-680.13 820.16,-668.61 820.16,-658.09"/>
<polygon fill="#aabbaa" fill-opacity="0.533333" stroke="#aabbaa" stroke-width="1.3" stroke-opacity="0.533333" points="823.66,-658.39 820.16,-648.39 816.66,-658.39 823.66,-658.39"/>
</g>
<!-- /lib/models/backend_model.dart -->
<g id="node2" class="node">
<title>/lib/models/backend_model.dart</title>
<path fill="Lavender" stroke="black" stroke-width="1.3" d="M877.66,-140C877.66,-140 780.66,-140 780.66,-140 774.66,-140 768.66,-134 768.66,-128 768.66,-128 768.66,-116 768.66,-116 768.66,-110 774.66,-104 780.66,-104 780.66,-104 877.66,-104 877.66,-104 883.66,-104 889.66,-110 889.66,-116 889.66,-116 889.66,-128 889.66,-128 889.66,-134 883.66,-140 877.66,-140"/>
<text text-anchor="middle" x="829.16" y="-116.75" font-family="Arial" font-size="15.00">backend_model</text>
</g>
<!-- /lib/models/firebase_options.dart -->
<g id="node5" class="node">
<title>/lib/models/firebase_options.dart</title>
<path fill="Lavender" stroke="black" stroke-width="1.3" d="M881.91,-68C881.91,-68 780.41,-68 780.41,-68 774.41,-68 768.41,-62 768.41,-56 768.41,-56 768.41,-44 768.41,-44 768.41,-38 774.41,-32 780.41,-32 780.41,-32 881.91,-32 881.91,-32 887.91,-32 893.91,-38 893.91,-44 893.91,-44 893.91,-56 893.91,-56 893.91,-62 887.91,-68 881.91,-68"/>
<text text-anchor="middle" x="831.16" y="-44.75" font-family="Arial" font-size="15.00">firebase_options</text>
</g>
<!-- /lib/models/backend_model.dart&#45;&gt;/lib/models/firebase_options.dart -->
<g id="edge2" class="edge">
<title>/lib/models/backend_model.dart&#45;&gt;/lib/models/firebase_options.dart</title>
<path fill="none" stroke="#aabbaa" stroke-width="1.3" stroke-opacity="0.533333" d="M829.66,-103.7C829.86,-96.49 830.11,-87.93 830.34,-79.82"/>
<polygon fill="#aabbaa" fill-opacity="0.533333" stroke="#aabbaa" stroke-width="1.3" stroke-opacity="0.533333" points="833.83,-80.17 830.62,-70.07 826.83,-79.97 833.83,-80.17"/>
</g>
<!-- /lib/models/card_model.dart -->
<g id="node3" class="node">
<title>/lib/models/card_model.dart</title>
<path fill="Lavender" stroke="black" stroke-width="1.3" d="M994.16,-68C994.16,-68 924.16,-68 924.16,-68 918.16,-68 912.16,-62 912.16,-56 912.16,-56 912.16,-44 912.16,-44 912.16,-38 918.16,-32 924.16,-32 924.16,-32 994.16,-32 994.16,-32 1000.16,-32 1006.16,-38 1006.16,-44 1006.16,-44 1006.16,-56 1006.16,-56 1006.16,-62 1000.16,-68 994.16,-68"/>
<text text-anchor="middle" x="959.16" y="-44.75" font-family="Arial" font-size="15.00">card_model</text>
</g>
<!-- /lib/models/deck_model.dart -->
<g id="node4" class="node">
<title>/lib/models/deck_model.dart</title>
<path fill="Lavender" stroke="black" stroke-width="1.3" d="M992.29,-140C992.29,-140 920.04,-140 920.04,-140 914.04,-140 908.04,-134 908.04,-128 908.04,-128 908.04,-116 908.04,-116 908.04,-110 914.04,-104 920.04,-104 920.04,-104 992.29,-104 992.29,-104 998.29,-104 1004.29,-110 1004.29,-116 1004.29,-116 1004.29,-128 1004.29,-128 1004.29,-134 998.29,-140 992.29,-140"/>
<text text-anchor="middle" x="956.16" y="-116.75" font-family="Arial" font-size="15.00">deck_model</text>
</g>
<!-- /lib/models/deck_model.dart&#45;&gt;/lib/models/card_model.dart -->
<g id="edge3" class="edge">
<title>/lib/models/deck_model.dart&#45;&gt;/lib/models/card_model.dart</title>
<path fill="none" stroke="#aabbaa" stroke-width="1.3" stroke-opacity="0.533333" d="M950.99,-103.7C950.55,-96.49 950.67,-87.93 951.27,-79.82"/>
<polygon fill="#aabbaa" fill-opacity="0.533333" stroke="#aabbaa" stroke-width="1.3" stroke-opacity="0.533333" points="954.73,-80.38 952.32,-70.06 947.77,-79.63 954.73,-80.38"/>
</g>
<!-- /lib/models/deck_model.dart&#45;&gt;/lib/models/card_model.dart -->
<g id="edge4" class="edge">
<title>/lib/models/deck_model.dart&#45;&gt;/lib/models/card_model.dart</title>
<path fill="none" stroke="#aabbaa" stroke-width="1.3" stroke-dasharray="5,2" stroke-opacity="0.533333" d="M962.82,-103.7C963.87,-96.49 964.49,-87.93 964.58,-79.82"/>
<polygon fill="#aabbaa" fill-opacity="0.533333" stroke="#aabbaa" stroke-width="1.3" stroke-opacity="0.533333" points="968.09,-79.99 964.37,-70.07 961.09,-80.15 968.09,-79.99"/>
</g>
<!-- /lib/models/game_model.dart -->
<g id="node6" class="node">
<title>/lib/models/game_model.dart</title>
<path fill="Lavender" stroke="black" stroke-width="1.3" d="M955.29,-212C955.29,-212 877.04,-212 877.04,-212 871.04,-212 865.04,-206 865.04,-200 865.04,-200 865.04,-188 865.04,-188 865.04,-182 871.04,-176 877.04,-176 877.04,-176 955.29,-176 955.29,-176 961.29,-176 967.29,-182 967.29,-188 967.29,-188 967.29,-200 967.29,-200 967.29,-206 961.29,-212 955.29,-212"/>
<text text-anchor="middle" x="916.16" y="-188.75" font-family="Arial" font-size="15.00">game_model</text>
</g>
<!-- /lib/models/game_model.dart&#45;&gt;/lib/models/backend_model.dart -->
<g id="edge5" class="edge">
<title>/lib/models/game_model.dart&#45;&gt;/lib/models/backend_model.dart</title>
<path fill="none" stroke="#aabbaa" stroke-width="1.3" stroke-opacity="0.533333" d="M894.66,-175.7C884.2,-167.28 871.44,-157.02 859.97,-147.79"/>
<polygon fill="#aabbaa" fill-opacity="0.533333" stroke="#aabbaa" stroke-width="1.3" stroke-opacity="0.533333" points="862.24,-145.12 852.25,-141.58 857.85,-150.58 862.24,-145.12"/>
</g>
<!-- /lib/models/game_model.dart&#45;&gt;/lib/models/deck_model.dart -->
<g id="edge6" class="edge">
<title>/lib/models/game_model.dart&#45;&gt;/lib/models/deck_model.dart</title>
<path fill="none" stroke="#aabbaa" stroke-width="1.3" stroke-opacity="0.533333" d="M920.13,-175.7C923.75,-167.98 928.82,-158.71 934.07,-150.11"/>
<polygon fill="#aabbaa" fill-opacity="0.533333" stroke="#aabbaa" stroke-width="1.3" stroke-opacity="0.533333" points="936.98,-152.07 939.43,-141.76 931.09,-148.29 936.98,-152.07"/>
</g>
<!-- /lib/models/game_model.dart&#45;&gt;/lib/models/deck_model.dart -->
<g id="edge8" class="edge">
<title>/lib/models/game_model.dart&#45;&gt;/lib/models/deck_model.dart</title>
<path fill="none" stroke="#aabbaa" stroke-width="1.3" stroke-dasharray="5,2" stroke-opacity="0.533333" d="M931.97,-175.7C937.05,-168.15 942.45,-159.12 946.96,-150.68"/>
<polygon fill="#aabbaa" fill-opacity="0.533333" stroke="#aabbaa" stroke-width="1.3" stroke-opacity="0.533333" points="950.03,-152.37 951.4,-141.86 943.78,-149.22 950.03,-152.37"/>
</g>
<!-- /lib/models/player_model.dart -->
<g id="node8" class="node">
<title>/lib/models/player_model.dart</title>
<path fill="Lavender" stroke="black" stroke-width="1.3" d="M1115.79,-140C1115.79,-140 1034.54,-140 1034.54,-140 1028.54,-140 1022.54,-134 1022.54,-128 1022.54,-128 1022.54,-116 1022.54,-116 1022.54,-110 1028.54,-104 1034.54,-104 1034.54,-104 1115.79,-104 1115.79,-104 1121.79,-104 1127.79,-110 1127.79,-116 1127.79,-116 1127.79,-128 1127.79,-128 1127.79,-134 1121.79,-140 1115.79,-140"/>
<text text-anchor="middle" x="1075.16" y="-116.75" font-family="Arial" font-size="15.00">player_model</text>
</g>
<!-- /lib/models/game_model.dart&#45;&gt;/lib/models/player_model.dart -->
<g id="edge7" class="edge">
<title>/lib/models/game_model.dart&#45;&gt;/lib/models/player_model.dart</title>
<path fill="none" stroke="#aabbaa" stroke-width="1.3" stroke-opacity="0.533333" d="M949.94,-175.52C970.04,-166.25 995.97,-154.78 1019.04,-144.93"/>
<polygon fill="#aabbaa" fill-opacity="0.533333" stroke="#aabbaa" stroke-width="1.3" stroke-opacity="0.533333" points="1020.11,-148.28 1027.95,-141.15 1017.37,-141.83 1020.11,-148.28"/>
</g>
<!-- /lib/models/game_model.dart&#45;&gt;/lib/models/player_model.dart -->
<g id="edge9" class="edge">
<title>/lib/models/game_model.dart&#45;&gt;/lib/models/player_model.dart</title>
<path fill="none" stroke="#aabbaa" stroke-width="1.3" stroke-dasharray="5,2" stroke-opacity="0.533333" d="M961.81,-175.52C983.49,-166.38 1009.26,-155.09 1030.78,-145.33"/>
<polygon fill="#aabbaa" fill-opacity="0.533333" stroke="#aabbaa" stroke-width="1.3" stroke-opacity="0.533333" points="1032.18,-148.54 1039.82,-141.2 1029.27,-142.17 1032.18,-148.54"/>
</g>
<!-- /lib/models/game_over_dialog.dart -->
<g id="node7" class="node">
<title>/lib/models/game_over_dialog.dart</title>
<path fill="Lavender" stroke="black" stroke-width="1.3" d="M1115.29,-212C1115.29,-212 1001.04,-212 1001.04,-212 995.04,-212 989.04,-206 989.04,-200 989.04,-200 989.04,-188 989.04,-188 989.04,-182 995.04,-176 1001.04,-176 1001.04,-176 1115.29,-176 1115.29,-176 1121.29,-176 1127.29,-182 1127.29,-188 1127.29,-188 1127.29,-200 1127.29,-200 1127.29,-206 1121.29,-212 1115.29,-212"/>
<text text-anchor="middle" x="1058.16" y="-188.75" font-family="Arial" font-size="15.00">game_over_dialog</text>
</g>
<!-- /lib/models/game_over_dialog.dart&#45;&gt;/lib/models/player_model.dart -->
<g id="edge10" class="edge">
<title>/lib/models/game_over_dialog.dart&#45;&gt;/lib/models/player_model.dart</title>
<path fill="none" stroke="#aabbaa" stroke-width="1.3" stroke-opacity="0.533333" d="M1062.36,-175.7C1064.13,-168.41 1066.24,-159.73 1068.23,-151.54"/>
<polygon fill="#aabbaa" fill-opacity="0.533333" stroke="#aabbaa" stroke-width="1.3" stroke-opacity="0.533333" points="1071.58,-152.56 1070.54,-142.02 1064.78,-150.91 1071.58,-152.56"/>
</g>
<!-- /lib/models/player_model.dart&#45;&gt;/lib/models/card_model.dart -->
<g id="edge11" class="edge">
<title>/lib/models/player_model.dart&#45;&gt;/lib/models/card_model.dart</title>
<path fill="none" stroke="#aabbaa" stroke-width="1.3" stroke-opacity="0.533333" d="M1040.26,-103.52C1024.86,-94.76 1006.93,-84.04 991.81,-74.58"/>
<polygon fill="#aabbaa" fill-opacity="0.533333" stroke="#aabbaa" stroke-width="1.3" stroke-opacity="0.533333" points="993.83,-71.71 983.52,-69.31 990.09,-77.63 993.83,-71.71"/>
</g>
<!-- /lib/models/player_model.dart&#45;&gt;/lib/models/card_model.dart -->
<g id="edge12" class="edge">
<title>/lib/models/player_model.dart&#45;&gt;/lib/models/card_model.dart</title>
<path fill="none" stroke="#aabbaa" stroke-width="1.3" stroke-dasharray="5,2" stroke-opacity="0.533333" d="M1052.12,-103.52C1038.25,-94.6 1020.23,-83.63 1003.71,-74.03"/>
<polygon fill="#aabbaa" fill-opacity="0.533333" stroke="#aabbaa" stroke-width="1.3" stroke-opacity="0.533333" points="1005.8,-71.19 995.38,-69.24 1002.31,-77.26 1005.8,-71.19"/>
</g>
<!-- /lib/screens/game_screen.dart -->
<g id="node9" class="node">
<title>/lib/screens/game_screen.dart</title>
<path fill="Lavender" stroke="black" stroke-width="1.3" d="M884.54,-574C884.54,-574 801.79,-574 801.79,-574 795.79,-574 789.79,-568 789.79,-562 789.79,-562 789.79,-550 789.79,-550 789.79,-544 795.79,-538 801.79,-538 801.79,-538 884.54,-538 884.54,-538 890.54,-538 896.54,-544 896.54,-550 896.54,-550 896.54,-562 896.54,-562 896.54,-568 890.54,-574 884.54,-574"/>
<text text-anchor="middle" x="843.16" y="-550.75" font-family="Arial" font-size="15.00">game_screen</text>
</g>
<!-- /lib/screens/game_screen.dart&#45;&gt;/lib/models/game_model.dart -->
<g id="edge13" class="edge">
<title>/lib/screens/game_screen.dart&#45;&gt;/lib/models/game_model.dart</title>
<path fill="none" stroke="#aabbaa" stroke-width="1.3" stroke-opacity="0.533333" d="M844.8,-537.72C850.54,-477.97 869.86,-282.28 879.16,-255.5 883.21,-243.85 889.76,-232.05 896.23,-222"/>
<polygon fill="#aabbaa" fill-opacity="0.533333" stroke="#aabbaa" stroke-width="1.3" stroke-opacity="0.533333" points="899.02,-224.12 901.73,-213.88 893.22,-220.19 899.02,-224.12"/>
</g>
<!-- /lib/screens/game_screen.dart&#45;&gt;/lib/models/game_over_dialog.dart -->
<g id="edge14" class="edge">
<title>/lib/screens/game_screen.dart&#45;&gt;/lib/models/game_over_dialog.dart</title>
<path fill="none" stroke="#aabbaa" stroke-width="1.3" stroke-opacity="0.533333" d="M853.53,-537.64C888.16,-479.66 999.97,-292.43 1042,-222.07"/>
<polygon fill="#aabbaa" fill-opacity="0.533333" stroke="#aabbaa" stroke-width="1.3" stroke-opacity="0.533333" points="1044.76,-224.26 1046.89,-213.88 1038.75,-220.67 1044.76,-224.26"/>
</g>
<!-- /lib/screens/screen.dart -->
<g id="node10" class="node">
<title>/lib/screens/screen.dart</title>
<path fill="Lavender" stroke="black" stroke-width="1.3" d="M823.66,-494.5C823.66,-494.5 786.66,-494.5 786.66,-494.5 780.66,-494.5 774.66,-488.5 774.66,-482.5 774.66,-482.5 774.66,-470.5 774.66,-470.5 774.66,-464.5 780.66,-458.5 786.66,-458.5 786.66,-458.5 823.66,-458.5 823.66,-458.5 829.66,-458.5 835.66,-464.5 835.66,-470.5 835.66,-470.5 835.66,-482.5 835.66,-482.5 835.66,-488.5 829.66,-494.5 823.66,-494.5"/>
<text text-anchor="middle" x="805.16" y="-471.25" font-family="Arial" font-size="15.00">screen</text>
</g>
<!-- /lib/screens/game_screen.dart&#45;&gt;/lib/screens/screen.dart -->
<g id="edge15" class="edge">
<title>/lib/screens/game_screen.dart&#45;&gt;/lib/screens/screen.dart</title>
<path fill="none" stroke="#aabbaa" stroke-width="1.3" stroke-opacity="0.533333" d="M834.73,-537.8C830.09,-528.33 824.21,-516.35 818.92,-505.57"/>
<polygon fill="#aabbaa" fill-opacity="0.533333" stroke="#aabbaa" stroke-width="1.3" stroke-opacity="0.533333" points="822.11,-504.12 814.57,-496.69 815.83,-507.21 822.11,-504.12"/>
</g>
<!-- /lib/widgets/player_zone_widget.dart -->
<g id="node18" class="node">
<title>/lib/widgets/player_zone_widget.dart</title>
<path fill="Lavender" stroke="black" stroke-width="1.3" d="M376.16,-494.5C376.16,-494.5 252.16,-494.5 252.16,-494.5 246.16,-494.5 240.16,-488.5 240.16,-482.5 240.16,-482.5 240.16,-470.5 240.16,-470.5 240.16,-464.5 246.16,-458.5 252.16,-458.5 252.16,-458.5 376.16,-458.5 376.16,-458.5 382.16,-458.5 388.16,-464.5 388.16,-470.5 388.16,-470.5 388.16,-482.5 388.16,-482.5 388.16,-488.5 382.16,-494.5 376.16,-494.5"/>
<text text-anchor="middle" x="314.16" y="-471.25" font-family="Arial" font-size="15.00">player_zone_widget</text>
</g>
<!-- /lib/screens/game_screen.dart&#45;&gt;/lib/widgets/player_zone_widget.dart -->
<g id="edge16" class="edge">
<title>/lib/screens/game_screen.dart&#45;&gt;/lib/widgets/player_zone_widget.dart</title>
<path fill="none" stroke="#aabbaa" stroke-width="1.3" stroke-opacity="0.533333" d="M789.65,-553.51C679.28,-550.22 433.63,-541.68 397.16,-530 378.11,-523.9 359.1,-512.37 344.08,-501.66"/>
<polygon fill="#aabbaa" fill-opacity="0.533333" stroke="#aabbaa" stroke-width="1.3" stroke-opacity="0.533333" points="346.53,-499.12 336.41,-495.98 342.36,-504.74 346.53,-499.12"/>
</g>
<!-- /lib/screens/start_screen.dart&#45;&gt;/lib/models/backend_model.dart -->
<g id="edge17" class="edge">
<title>/lib/screens/start_screen.dart&#45;&gt;/lib/models/backend_model.dart</title>
<path fill="none" stroke="#aabbaa" stroke-width="1.3" stroke-opacity="0.533333" d="M770.2,-624.76C604.28,-616.8 79.33,-587.24 32.16,-530 -8.4,-480.78 -12.69,-431.85 32.16,-386.5 46.3,-372.2 741.45,-392.21 756.16,-378.5 766.19,-369.15 762.6,-268.74 766.16,-255.5 776.46,-217.19 797.54,-176.45 812.48,-150.42"/>
<polygon fill="#aabbaa" fill-opacity="0.533333" stroke="#aabbaa" stroke-width="1.3" stroke-opacity="0.533333" points="815.43,-152.31 817.46,-141.91 809.39,-148.77 815.43,-152.31"/>
</g>
<!-- /lib/screens/start_screen.dart&#45;&gt;/lib/models/game_model.dart -->
<g id="edge18" class="edge">
<title>/lib/screens/start_screen.dart&#45;&gt;/lib/models/game_model.dart</title>
<path fill="none" stroke="#aabbaa" stroke-width="1.3" stroke-opacity="0.533333" d="M863.82,-609.55C879.36,-601.13 895.41,-589.44 905.16,-574 928.21,-537.5 916.16,-520.67 916.16,-477.5 916.16,-477.5 916.16,-477.5 916.16,-403.5 916.16,-339.48 916.16,-264.4 916.16,-224.1"/>
<polygon fill="#aabbaa" fill-opacity="0.533333" stroke="#aabbaa" stroke-width="1.3" stroke-opacity="0.533333" points="919.66,-224.27 916.16,-214.27 912.66,-224.27 919.66,-224.27"/>
</g>
<!-- /lib/screens/start_screen.dart&#45;&gt;/lib/screens/game_screen.dart -->
<g id="edge19" class="edge">
<title>/lib/screens/start_screen.dart&#45;&gt;/lib/screens/game_screen.dart</title>
<path fill="none" stroke="#aabbaa" stroke-width="1.3" stroke-opacity="0.533333" d="M825.85,-609.7C828.27,-602.32 831.16,-593.52 833.88,-585.25"/>
<polygon fill="#aabbaa" fill-opacity="0.533333" stroke="#aabbaa" stroke-width="1.3" stroke-opacity="0.533333" points="837.13,-586.57 836.93,-575.97 830.48,-584.38 837.13,-586.57"/>
</g>
<!-- /lib/screens/start_screen.dart&#45;&gt;/lib/screens/screen.dart -->
<g id="edge20" class="edge">
<title>/lib/screens/start_screen.dart&#45;&gt;/lib/screens/screen.dart</title>
<path fill="none" stroke="#aabbaa" stroke-width="1.3" stroke-opacity="0.533333" d="M802.87,-609.52C794.57,-599.9 785.51,-587.24 781.16,-574 773.69,-551.24 781.37,-524.8 789.97,-505.36"/>
<polygon fill="#aabbaa" fill-opacity="0.533333" stroke="#aabbaa" stroke-width="1.3" stroke-opacity="0.533333" points="793.02,-507.1 794.18,-496.57 786.7,-504.08 793.02,-507.1"/>
</g>
<!-- /lib/widgets/players_in_room_widget.dart -->
<g id="node15" class="node">
<title>/lib/widgets/players_in_room_widget.dart</title>
<path fill="Lavender" stroke="black" stroke-width="1.3" d="M209.79,-494.5C209.79,-494.5 56.54,-494.5 56.54,-494.5 50.54,-494.5 44.54,-488.5 44.54,-482.5 44.54,-482.5 44.54,-470.5 44.54,-470.5 44.54,-464.5 50.54,-458.5 56.54,-458.5 56.54,-458.5 209.79,-458.5 209.79,-458.5 215.79,-458.5 221.79,-464.5 221.79,-470.5 221.79,-470.5 221.79,-482.5 221.79,-482.5 221.79,-488.5 215.79,-494.5 209.79,-494.5"/>
<text text-anchor="middle" x="133.16" y="-471.25" font-family="Arial" font-size="15.00">players_in_room_widget</text>
</g>
<!-- /lib/screens/start_screen.dart&#45;&gt;/lib/widgets/players_in_room_widget.dart -->
<g id="edge21" class="edge">
<title>/lib/screens/start_screen.dart&#45;&gt;/lib/widgets/players_in_room_widget.dart</title>
<path fill="none" stroke="#aabbaa" stroke-width="1.3" stroke-opacity="0.533333" d="M770.35,-624.31C667.2,-617.55 423.73,-595.43 231.16,-530 210.03,-522.82 187.99,-511.41 170.17,-501.06"/>
<polygon fill="#aabbaa" fill-opacity="0.533333" stroke="#aabbaa" stroke-width="1.3" stroke-opacity="0.533333" points="172.02,-498.09 161.63,-495.97 168.43,-504.1 172.02,-498.09"/>
</g>
<!-- /lib/widgets/card_piles_widget.dart -->
<g id="node12" class="node">
<title>/lib/widgets/card_piles_widget.dart</title>
<path fill="Lavender" stroke="black" stroke-width="1.3" d="M730.41,-307.5C730.41,-307.5 619.91,-307.5 619.91,-307.5 613.91,-307.5 607.91,-301.5 607.91,-295.5 607.91,-295.5 607.91,-283.5 607.91,-283.5 607.91,-277.5 613.91,-271.5 619.91,-271.5 619.91,-271.5 730.41,-271.5 730.41,-271.5 736.41,-271.5 742.41,-277.5 742.41,-283.5 742.41,-283.5 742.41,-295.5 742.41,-295.5 742.41,-301.5 736.41,-307.5 730.41,-307.5"/>
<text text-anchor="middle" x="675.16" y="-284.25" font-family="Arial" font-size="15.00">card_piles_widget</text>
</g>
<!-- /lib/widgets/card_piles_widget.dart&#45;&gt;/lib/models/card_model.dart -->
<g id="edge22" class="edge">
<title>/lib/widgets/card_piles_widget.dart&#45;&gt;/lib/models/card_model.dart</title>
<path fill="none" stroke="#aabbaa" stroke-width="1.3" stroke-opacity="0.533333" d="M704.93,-271.11C713.6,-264.71 722.3,-256.73 728.16,-247.5 763.2,-192.34 714.59,-150.83 760.16,-104 803.37,-59.6 836.24,-82.63 900.4,-68.4"/>
<polygon fill="#aabbaa" fill-opacity="0.533333" stroke="#aabbaa" stroke-width="1.3" stroke-opacity="0.533333" points="901.09,-71.84 909.94,-66.01 899.39,-65.04 901.09,-71.84"/>
</g>
<!-- /lib/widgets/card_pile_widget.dart -->
<g id="node13" class="node">
<title>/lib/widgets/card_pile_widget.dart</title>
<path fill="Lavender" stroke="black" stroke-width="1.3" d="M706.66,-212C706.66,-212 603.66,-212 603.66,-212 597.66,-212 591.66,-206 591.66,-200 591.66,-200 591.66,-188 591.66,-188 591.66,-182 597.66,-176 603.66,-176 603.66,-176 706.66,-176 706.66,-176 712.66,-176 718.66,-182 718.66,-188 718.66,-188 718.66,-200 718.66,-200 718.66,-206 712.66,-212 706.66,-212"/>
<text text-anchor="middle" x="655.16" y="-188.75" font-family="Arial" font-size="15.00">card_pile_widget</text>
</g>
<!-- /lib/widgets/card_piles_widget.dart&#45;&gt;/lib/widgets/card_pile_widget.dart -->
<g id="edge23" class="edge">
<title>/lib/widgets/card_piles_widget.dart&#45;&gt;/lib/widgets/card_pile_widget.dart</title>
<path fill="none" stroke="#aabbaa" stroke-width="1.3" stroke-opacity="0.533333" d="M671.49,-271.35C668.66,-258.12 664.69,-239.52 661.36,-223.99"/>
<polygon fill="#aabbaa" fill-opacity="0.533333" stroke="#aabbaa" stroke-width="1.3" stroke-opacity="0.533333" points="664.8,-223.33 659.29,-214.28 657.96,-224.79 664.8,-223.33"/>
</g>
<!-- /lib/widgets/card_pile_widget.dart&#45;&gt;/lib/models/card_model.dart -->
<g id="edge24" class="edge">
<title>/lib/widgets/card_pile_widget.dart&#45;&gt;/lib/models/card_model.dart</title>
<path fill="none" stroke="#aabbaa" stroke-width="1.3" stroke-opacity="0.533333" d="M665.64,-175.6C678.93,-155.12 703.81,-121.68 734.16,-104 797.41,-67.16 826.06,-85.26 900.55,-68.41"/>
<polygon fill="#aabbaa" fill-opacity="0.533333" stroke="#aabbaa" stroke-width="1.3" stroke-opacity="0.533333" points="901.08,-71.88 909.97,-66.12 899.43,-65.08 901.08,-71.88"/>
</g>
<!-- /lib/widgets/card_widget.dart -->
<g id="node14" class="node">
<title>/lib/widgets/card_widget.dart</title>
<path fill="Lavender" stroke="black" stroke-width="1.3" d="M646.29,-140C646.29,-140 574.04,-140 574.04,-140 568.04,-140 562.04,-134 562.04,-128 562.04,-128 562.04,-116 562.04,-116 562.04,-110 568.04,-104 574.04,-104 574.04,-104 646.29,-104 646.29,-104 652.29,-104 658.29,-110 658.29,-116 658.29,-116 658.29,-128 658.29,-128 658.29,-134 652.29,-140 646.29,-140"/>
<text text-anchor="middle" x="610.16" y="-116.75" font-family="Arial" font-size="15.00">card_widget</text>
</g>
<!-- /lib/widgets/card_pile_widget.dart&#45;&gt;/lib/widgets/card_widget.dart -->
<g id="edge25" class="edge">
<title>/lib/widgets/card_pile_widget.dart&#45;&gt;/lib/widgets/card_widget.dart</title>
<path fill="none" stroke="#aabbaa" stroke-width="1.3" stroke-opacity="0.533333" d="M644.04,-175.7C639.08,-167.98 633.12,-158.71 627.59,-150.11"/>
<polygon fill="#aabbaa" fill-opacity="0.533333" stroke="#aabbaa" stroke-width="1.3" stroke-opacity="0.533333" points="630.57,-148.28 622.22,-141.76 624.69,-152.06 630.57,-148.28"/>
</g>
<!-- /lib/widgets/card_widget.dart&#45;&gt;/lib/models/card_model.dart -->
<g id="edge26" class="edge">
<title>/lib/widgets/card_widget.dart&#45;&gt;/lib/models/card_model.dart</title>
<path fill="none" stroke="#aabbaa" stroke-width="1.3" stroke-opacity="0.533333" d="M658.39,-110.85C669.78,-108.53 681.89,-106.12 693.16,-104 782.59,-87.18 808.97,-89.57 900.43,-68.49"/>
<polygon fill="#aabbaa" fill-opacity="0.533333" stroke="#aabbaa" stroke-width="1.3" stroke-opacity="0.533333" points="901.06,-71.93 910,-66.24 899.47,-65.12 901.06,-71.93"/>
</g>
<!-- /lib/widgets/wiggle_widget.dart -->
<g id="node21" class="node">
<title>/lib/widgets/wiggle_widget.dart</title>
<path fill="Lavender" stroke="black" stroke-width="1.3" d="M652.29,-68C652.29,-68 568.04,-68 568.04,-68 562.04,-68 556.04,-62 556.04,-56 556.04,-56 556.04,-44 556.04,-44 556.04,-38 562.04,-32 568.04,-32 568.04,-32 652.29,-32 652.29,-32 658.29,-32 664.29,-38 664.29,-44 664.29,-44 664.29,-56 664.29,-56 664.29,-62 658.29,-68 652.29,-68"/>
<text text-anchor="middle" x="610.16" y="-44.75" font-family="Arial" font-size="15.00">wiggle_widget</text>
</g>
<!-- /lib/widgets/card_widget.dart&#45;&gt;/lib/widgets/wiggle_widget.dart -->
<g id="edge27" class="edge">
<title>/lib/widgets/card_widget.dart&#45;&gt;/lib/widgets/wiggle_widget.dart</title>
<path fill="none" stroke="#aabbaa" stroke-width="1.3" stroke-opacity="0.533333" d="M610.16,-103.7C610.16,-96.49 610.16,-87.93 610.16,-79.82"/>
<polygon fill="#aabbaa" fill-opacity="0.533333" stroke="#aabbaa" stroke-width="1.3" stroke-opacity="0.533333" points="613.66,-80.07 610.16,-70.07 606.66,-80.07 613.66,-80.07"/>
</g>
<!-- /lib/widgets/player_header_widget.dart -->
<g id="node16" class="node">
<title>/lib/widgets/player_header_widget.dart</title>
<path fill="Lavender" stroke="black" stroke-width="1.3" d="M383.29,-422.5C383.29,-422.5 245.04,-422.5 245.04,-422.5 239.04,-422.5 233.04,-416.5 233.04,-410.5 233.04,-410.5 233.04,-398.5 233.04,-398.5 233.04,-392.5 239.04,-386.5 245.04,-386.5 245.04,-386.5 383.29,-386.5 383.29,-386.5 389.29,-386.5 395.29,-392.5 395.29,-398.5 395.29,-398.5 395.29,-410.5 395.29,-410.5 395.29,-416.5 389.29,-422.5 383.29,-422.5"/>
<text text-anchor="middle" x="314.16" y="-399.25" font-family="Arial" font-size="15.00">player_header_widget</text>
</g>
<!-- /lib/widgets/player_zone_cta_widget.dart -->
<g id="node17" class="node">
<title>/lib/widgets/player_zone_cta_widget.dart</title>
<path fill="Lavender" stroke="black" stroke-width="1.3" d="M665.41,-422.5C665.41,-422.5 512.91,-422.5 512.91,-422.5 506.91,-422.5 500.91,-416.5 500.91,-410.5 500.91,-410.5 500.91,-398.5 500.91,-398.5 500.91,-392.5 506.91,-386.5 512.91,-386.5 512.91,-386.5 665.41,-386.5 665.41,-386.5 671.41,-386.5 677.41,-392.5 677.41,-398.5 677.41,-398.5 677.41,-410.5 677.41,-410.5 677.41,-416.5 671.41,-422.5 665.41,-422.5"/>
<text text-anchor="middle" x="589.16" y="-399.25" font-family="Arial" font-size="15.00">player_zone_cta_widget</text>
</g>
<!-- /lib/widgets/player_zone_cta_widget.dart&#45;&gt;/lib/models/game_model.dart -->
<g id="edge28" class="edge">
<title>/lib/widgets/player_zone_cta_widget.dart&#45;&gt;/lib/models/game_model.dart</title>
<path fill="none" stroke="#aabbaa" stroke-width="1.3" stroke-opacity="0.533333" d="M677.49,-398.7C714.22,-395.16 751.67,-389.04 766.16,-378.5 815.36,-342.73 786.22,-301.37 826.16,-255.5 838.84,-240.94 855.8,-228.34 871.58,-218.46"/>
<polygon fill="#aabbaa" fill-opacity="0.533333" stroke="#aabbaa" stroke-width="1.3" stroke-opacity="0.533333" points="873.26,-221.53 880.03,-213.38 869.66,-215.53 873.26,-221.53"/>
</g>
<!-- /lib/widgets/player_zone_cta_widget.dart&#45;&gt;/lib/widgets/card_piles_widget.dart -->
<g id="edge30" class="edge">
<title>/lib/widgets/player_zone_cta_widget.dart&#45;&gt;/lib/widgets/card_piles_widget.dart</title>
<path fill="none" stroke="#aabbaa" stroke-width="1.3" stroke-opacity="0.533333" d="M602.22,-386.34C616.18,-368 638.48,-338.7 654.76,-317.31"/>
<polygon fill="#aabbaa" fill-opacity="0.533333" stroke="#aabbaa" stroke-width="1.3" stroke-opacity="0.533333" points="657.51,-319.47 660.79,-309.39 651.94,-315.23 657.51,-319.47"/>
</g>
<!-- /lib/widgets/player_zone_cta_widget.dart&#45;&gt;/lib/widgets/card_pile_widget.dart -->
<g id="edge29" class="edge">
<title>/lib/widgets/player_zone_cta_widget.dart&#45;&gt;/lib/widgets/card_pile_widget.dart</title>
<path fill="none" stroke="#aabbaa" stroke-width="1.3" stroke-opacity="0.533333" d="M586.74,-386.22C583.51,-357.68 580.19,-299.49 599.16,-255.5 604.82,-242.39 614.57,-230.31 624.37,-220.44"/>
<polygon fill="#aabbaa" fill-opacity="0.533333" stroke="#aabbaa" stroke-width="1.3" stroke-opacity="0.533333" points="626.6,-223.15 631.46,-213.73 621.79,-218.06 626.6,-223.15"/>
</g>
<!-- /lib/widgets/player_zone_cta_widget.dart&#45;&gt;/lib/widgets/card_widget.dart -->
<g id="edge31" class="edge">
<title>/lib/widgets/player_zone_cta_widget.dart&#45;&gt;/lib/widgets/card_widget.dart</title>
<path fill="none" stroke="#aabbaa" stroke-width="1.3" stroke-opacity="0.533333" d="M582.08,-386.23C581.29,-383.67 580.61,-381.04 580.16,-378.5 564.69,-289.83 560.51,-263.11 583.16,-176 585.39,-167.44 589.15,-158.68 593.16,-150.8"/>
<polygon fill="#aabbaa" fill-opacity="0.533333" stroke="#aabbaa" stroke-width="1.3" stroke-opacity="0.533333" points="596.19,-152.56 597.93,-142.1 590.06,-149.19 596.19,-152.56"/>
</g>
<!-- /lib/widgets/player_zone_widget.dart&#45;&gt;/lib/models/game_model.dart -->
<g id="edge32" class="edge">
<title>/lib/widgets/player_zone_widget.dart&#45;&gt;/lib/models/game_model.dart</title>
<path fill="none" stroke="#aabbaa" stroke-width="1.3" stroke-opacity="0.533333" d="M366.46,-458.06C376.56,-455.17 387.12,-452.48 397.16,-450.5 576.11,-415.24 668.7,-503.87 801.16,-378.5 844.66,-337.34 822.31,-304.89 856.16,-255.5 864.79,-242.92 876.2,-230.65 886.75,-220.5"/>
<polygon fill="#aabbaa" fill-opacity="0.533333" stroke="#aabbaa" stroke-width="1.3" stroke-opacity="0.533333" points="888.97,-223.22 893.9,-213.84 884.2,-218.09 888.97,-223.22"/>
</g>
<!-- /lib/widgets/player_zone_widget.dart&#45;&gt;/lib/widgets/card_widget.dart -->
<g id="edge33" class="edge">
<title>/lib/widgets/player_zone_widget.dart&#45;&gt;/lib/widgets/card_widget.dart</title>
<path fill="none" stroke="#aabbaa" stroke-width="1.3" stroke-opacity="0.533333" d="M352.27,-458.08C369.39,-449.06 389.08,-436.9 404.16,-422.5 498.81,-332.14 486.88,-280.86 565.16,-176 571.88,-167 579.65,-157.55 586.83,-149.16"/>
<polygon fill="#aabbaa" fill-opacity="0.533333" stroke="#aabbaa" stroke-width="1.3" stroke-opacity="0.533333" points="589.39,-151.55 593.3,-141.7 584.11,-146.96 589.39,-151.55"/>
</g>
<!-- /lib/widgets/player_zone_widget.dart&#45;&gt;/lib/widgets/player_header_widget.dart -->
<g id="edge34" class="edge">
<title>/lib/widgets/player_zone_widget.dart&#45;&gt;/lib/widgets/player_header_widget.dart</title>
<path fill="none" stroke="#aabbaa" stroke-width="1.3" stroke-opacity="0.533333" d="M314.16,-458.2C314.16,-450.99 314.16,-442.43 314.16,-434.32"/>
<polygon fill="#aabbaa" fill-opacity="0.533333" stroke="#aabbaa" stroke-width="1.3" stroke-opacity="0.533333" points="317.66,-434.57 314.16,-424.57 310.66,-434.57 317.66,-434.57"/>
</g>
<!-- /lib/widgets/player_zone_widget.dart&#45;&gt;/lib/widgets/player_zone_cta_widget.dart -->
<g id="edge35" class="edge">
<title>/lib/widgets/player_zone_widget.dart&#45;&gt;/lib/widgets/player_zone_cta_widget.dart</title>
<path fill="none" stroke="#aabbaa" stroke-width="1.3" stroke-opacity="0.533333" d="M370.28,-458.08C379.25,-455.45 388.44,-452.83 397.16,-450.5 430.01,-441.71 466.26,-432.97 498.34,-425.56"/>
<polygon fill="#aabbaa" fill-opacity="0.533333" stroke="#aabbaa" stroke-width="1.3" stroke-opacity="0.533333" points="499.07,-428.99 508.03,-423.34 497.5,-422.16 499.07,-428.99"/>
</g>
<!-- /lib/widgets/table_surface_painter.dart -->
<g id="node19" class="node">
<title>/lib/widgets/table_surface_painter.dart</title>
<path fill="Lavender" stroke="black" stroke-width="1.3" d="M554.16,-494.5C554.16,-494.5 418.16,-494.5 418.16,-494.5 412.16,-494.5 406.16,-488.5 406.16,-482.5 406.16,-482.5 406.16,-470.5 406.16,-470.5 406.16,-464.5 412.16,-458.5 418.16,-458.5 418.16,-458.5 554.16,-458.5 554.16,-458.5 560.16,-458.5 566.16,-464.5 566.16,-470.5 566.16,-470.5 566.16,-482.5 566.16,-482.5 566.16,-488.5 560.16,-494.5 554.16,-494.5"/>
<text text-anchor="middle" x="486.16" y="-471.25" font-family="Arial" font-size="15.00">table_surface_painter</text>
</g>
<!-- /lib/widgets/text_edit_with_submit.dart -->
<g id="node20" class="node">
<title>/lib/widgets/text_edit_with_submit.dart</title>
<path fill="Lavender" stroke="black" stroke-width="1.3" d="M732.16,-494.5C732.16,-494.5 596.16,-494.5 596.16,-494.5 590.16,-494.5 584.16,-488.5 584.16,-482.5 584.16,-482.5 584.16,-470.5 584.16,-470.5 584.16,-464.5 590.16,-458.5 596.16,-458.5 596.16,-458.5 732.16,-458.5 732.16,-458.5 738.16,-458.5 744.16,-464.5 744.16,-470.5 744.16,-470.5 744.16,-482.5 744.16,-482.5 744.16,-488.5 738.16,-494.5 732.16,-494.5"/>
<text text-anchor="middle" x="664.16" y="-471.25" font-family="Arial" font-size="15.00">text_edit_with_submit</text>
</g>
<!-- /test/models/card_model_test.dart -->
<g id="node22" class="node">
<title>/test/models/card_model_test.dart</title>
<path fill="Lavender" stroke="black" stroke-width="1.3" d="M1593.66,-307.5C1593.66,-307.5 1490.66,-307.5 1490.66,-307.5 1484.66,-307.5 1478.66,-301.5 1478.66,-295.5 1478.66,-295.5 1478.66,-283.5 1478.66,-283.5 1478.66,-277.5 1484.66,-271.5 1490.66,-271.5 1490.66,-271.5 1593.66,-271.5 1593.66,-271.5 1599.66,-271.5 1605.66,-277.5 1605.66,-283.5 1605.66,-283.5 1605.66,-295.5 1605.66,-295.5 1605.66,-301.5 1599.66,-307.5 1593.66,-307.5"/>
<text text-anchor="middle" x="1542.16" y="-284.25" font-family="Arial" font-size="15.00">card_model_test</text>
</g>
<!-- /test/models/card_model_test.dart&#45;&gt;/lib/models/card_model.dart -->
<g id="edge36" class="edge">
<title>/test/models/card_model_test.dart&#45;&gt;/lib/models/card_model.dart</title>
<path fill="none" stroke="#aabbaa" stroke-width="1.3" stroke-opacity="0.533333" d="M1508.17,-271.07C1439.39,-236.24 1278.25,-156.85 1137.16,-104 1098.1,-89.37 1053.06,-75.99 1018.06,-66.33"/>
<polygon fill="#aabbaa" fill-opacity="0.533333" stroke="#aabbaa" stroke-width="1.3" stroke-opacity="0.533333" points="1019.06,-62.98 1008.49,-63.72 1017.22,-69.73 1019.06,-62.98"/>
</g>
<!-- /test/models/game_model_test.dart -->
<g id="node23" class="node">
<title>/test/models/game_model_test.dart</title>
<path fill="Lavender" stroke="black" stroke-width="1.3" d="M1291.79,-307.5C1291.79,-307.5 1180.54,-307.5 1180.54,-307.5 1174.54,-307.5 1168.54,-301.5 1168.54,-295.5 1168.54,-295.5 1168.54,-283.5 1168.54,-283.5 1168.54,-277.5 1174.54,-271.5 1180.54,-271.5 1180.54,-271.5 1291.79,-271.5 1291.79,-271.5 1297.79,-271.5 1303.79,-277.5 1303.79,-283.5 1303.79,-283.5 1303.79,-295.5 1303.79,-295.5 1303.79,-301.5 1297.79,-307.5 1291.79,-307.5"/>
<text text-anchor="middle" x="1236.16" y="-284.25" font-family="Arial" font-size="15.00">game_model_test</text>
</g>
<!-- /test/models/game_model_test.dart&#45;&gt;/lib/models/game_model.dart -->
<g id="edge37" class="edge">
<title>/test/models/game_model_test.dart&#45;&gt;/lib/models/game_model.dart</title>
<path fill="none" stroke="#aabbaa" stroke-width="1.3" stroke-opacity="0.533333" d="M1168.18,-287.23C1114.93,-284.01 1040.09,-274.47 980.16,-247.5 965.83,-241.05 952.06,-230.53 940.99,-220.59"/>
<polygon fill="#aabbaa" fill-opacity="0.533333" stroke="#aabbaa" stroke-width="1.3" stroke-opacity="0.533333" points="943.49,-218.13 933.81,-213.83 938.69,-223.23 943.49,-218.13"/>
</g>
<!-- /test/models/player_model_test.dart -->
<g id="node24" class="node">
<title>/test/models/player_model_test.dart</title>
<path fill="Lavender" stroke="black" stroke-width="1.3" d="M1448.29,-307.5C1448.29,-307.5 1334.04,-307.5 1334.04,-307.5 1328.04,-307.5 1322.04,-301.5 1322.04,-295.5 1322.04,-295.5 1322.04,-283.5 1322.04,-283.5 1322.04,-277.5 1328.04,-271.5 1334.04,-271.5 1334.04,-271.5 1448.29,-271.5 1448.29,-271.5 1454.29,-271.5 1460.29,-277.5 1460.29,-283.5 1460.29,-283.5 1460.29,-295.5 1460.29,-295.5 1460.29,-301.5 1454.29,-307.5 1448.29,-307.5"/>
<text text-anchor="middle" x="1391.16" y="-284.25" font-family="Arial" font-size="15.00">player_model_test</text>
</g>
<!-- /test/models/player_model_test.dart&#45;&gt;/lib/models/player_model.dart -->
<g id="edge38" class="edge">
<title>/test/models/player_model_test.dart&#45;&gt;/lib/models/player_model.dart</title>
<path fill="none" stroke="#aabbaa" stroke-width="1.3" stroke-opacity="0.533333" d="M1357.94,-271.1C1300.57,-241.05 1182.94,-179.44 1118.95,-145.94"/>
<polygon fill="#aabbaa" fill-opacity="0.533333" stroke="#aabbaa" stroke-width="1.3" stroke-opacity="0.533333" points="1120.64,-142.87 1110.15,-141.33 1117.39,-149.07 1120.64,-142.87"/>
</g>
</g>
</svg>
