<?xml version="1.0" encoding="UTF-8" standalone="no"?>
<!DOCTYPE svg PUBLIC "-//W3C//DTD SVG 1.1//EN"
 "http://www.w3.org/Graphics/SVG/1.1/DTD/svg11.dtd">
<!-- Generated by graphviz version 12.1.2 (20240928.0832)
 -->
<!-- Pages: 1 -->
<svg width="1274pt" height="750pt"
 viewBox="0.00 0.00 1274.00 750.00" xmlns="http://www.w3.org/2000/svg" xmlns:xlink="http://www.w3.org/1999/xlink">
<g id="graph0" class="graph" transform="scale(1 1) rotate(0) translate(4 746)">
<polygon fill="white" stroke="none" points="-4,4 -4,-746 1270,-746 1270,4 -4,4"/>
<g id="clust1" class="cluster">
<title>cluster~</title>
<path fill="none" stroke="lightgray" stroke-width="2.6" d="M20,-8C20,-8 1246,-8 1246,-8 1252,-8 1258,-14 1258,-20 1258,-20 1258,-722 1258,-722 1258,-728 1252,-734 1246,-734 1246,-734 20,-734 20,-734 14,-734 8,-728 8,-722 8,-722 8,-20 8,-20 8,-14 14,-8 20,-8"/>
<text text-anchor="middle" x="633" y="-717.65" font-family="Arial Black" font-size="13.00">cards</text>
</g>
<g id="clust2" class="cluster">
<title>cluster~/test</title>
<path fill="none" stroke="lightgray" stroke-width="2.6" d="M28,-323C28,-323 156,-323 156,-323 162,-323 168,-329 168,-335 168,-335 168,-386 168,-386 168,-392 162,-398 156,-398 156,-398 28,-398 28,-398 22,-398 16,-392 16,-386 16,-386 16,-335 16,-335 16,-329 22,-323 28,-323"/>
<text text-anchor="middle" x="92" y="-381.65" font-family="Arial Black" font-size="13.00">test</text>
</g>
<g id="clust3" class="cluster">
<title>cluster~/lib</title>
<path fill="none" stroke="lightgray" stroke-width="2.6" d="M188,-16C188,-16 1238,-16 1238,-16 1244,-16 1250,-22 1250,-28 1250,-28 1250,-691 1250,-691 1250,-697 1244,-703 1238,-703 1238,-703 188,-703 188,-703 182,-703 176,-697 176,-691 176,-691 176,-28 176,-28 176,-22 182,-16 188,-16"/>
<text text-anchor="middle" x="713" y="-686.65" font-family="Arial Black" font-size="13.00">lib</text>
</g>
<g id="clust4" class="cluster">
<title>cluster~/lib/models</title>
<path fill="none" stroke="lightgray" stroke-width="2.6" d="M196,-24C196,-24 506,-24 506,-24 512,-24 518,-30 518,-36 518,-36 518,-303 518,-303 518,-309 512,-315 506,-315 506,-315 196,-315 196,-315 190,-315 184,-309 184,-303 184,-303 184,-36 184,-36 184,-30 190,-24 196,-24"/>
<text text-anchor="middle" x="351" y="-298.65" font-family="Arial Black" font-size="13.00">models</text>
</g>
<g id="clust5" class="cluster">
<title>cluster~/lib/screens</title>
<path fill="none" stroke="lightgray" stroke-width="2.6" d="M328,-406C328,-406 446,-406 446,-406 452,-406 458,-412 458,-418 458,-418 458,-616 458,-616 458,-622 452,-628 446,-628 446,-628 328,-628 328,-628 322,-628 316,-622 316,-616 316,-616 316,-418 316,-418 316,-412 322,-406 328,-406"/>
<text text-anchor="middle" x="387" y="-611.65" font-family="Arial Black" font-size="13.00">screens</text>
</g>
<g id="clust6" class="cluster">
<title>cluster~/lib/widgets</title>
<path fill="none" stroke="lightgray" stroke-width="2.6" d="M538,-168C538,-168 1230,-168 1230,-168 1236,-168 1242,-174 1242,-180 1242,-180 1242,-469 1242,-469 1242,-475 1236,-481 1230,-481 1230,-481 538,-481 538,-481 532,-481 526,-475 526,-469 526,-469 526,-180 526,-180 526,-174 532,-168 538,-168"/>
<text text-anchor="middle" x="884" y="-464.65" font-family="Arial Black" font-size="13.00">widgets</text>
</g>
<!-- /test/game_model_test.dart -->
<g id="node1" class="node">
<title>/test/game_model_test.dart</title>
<path fill="Lavender" stroke="black" stroke-width="1.3" d="M147.62,-367C147.62,-367 36.38,-367 36.38,-367 30.38,-367 24.38,-361 24.38,-355 24.38,-355 24.38,-343 24.38,-343 24.38,-337 30.38,-331 36.38,-331 36.38,-331 147.62,-331 147.62,-331 153.62,-331 159.62,-337 159.62,-343 159.62,-343 159.62,-355 159.62,-355 159.62,-361 153.62,-367 147.62,-367"/>
<text text-anchor="middle" x="92" y="-343.75" font-family="Arial" font-size="15.00">game_model_test</text>
</g>
<!-- /lib/models/game_model.dart -->
<g id="node4" class="node">
<title>/lib/models/game_model.dart</title>
<path fill="Lavender" stroke="black" stroke-width="1.3" d="M408.12,-284C408.12,-284 329.88,-284 329.88,-284 323.88,-284 317.88,-278 317.88,-272 317.88,-272 317.88,-260 317.88,-260 317.88,-254 323.88,-248 329.88,-248 329.88,-248 408.12,-248 408.12,-248 414.12,-248 420.12,-254 420.12,-260 420.12,-260 420.12,-272 420.12,-272 420.12,-278 414.12,-284 408.12,-284"/>
<text text-anchor="middle" x="369" y="-260.75" font-family="Arial" font-size="15.00">game_model</text>
</g>
<!-- /test/game_model_test.dart&#45;&gt;/lib/models/game_model.dart -->
<g id="edge1" class="edge">
<title>/test/game_model_test.dart&#45;&gt;/lib/models/game_model.dart</title>
<path fill="none" stroke="#aabbaa" stroke-width="1.3" stroke-opacity="0.533333" d="M151.76,-330.52C197.36,-317.19 260.01,-298.87 306.32,-285.33"/>
<polygon fill="#aabbaa" fill-opacity="0.533333" stroke="#aabbaa" stroke-width="1.3" stroke-opacity="0.533333" points="307.21,-288.71 315.83,-282.55 305.25,-282 307.21,-288.71"/>
</g>
<!-- /lib/firebase_options_private.dart -->
<g id="node2" class="node">
<title>/lib/firebase_options_private.dart</title>
<path fill="Lavender" stroke="black" stroke-width="1.3" d="M692.38,-140C692.38,-140 537.62,-140 537.62,-140 531.62,-140 525.62,-134 525.62,-128 525.62,-128 525.62,-116 525.62,-116 525.62,-110 531.62,-104 537.62,-104 537.62,-104 692.38,-104 692.38,-104 698.38,-104 704.38,-110 704.38,-116 704.38,-116 704.38,-128 704.38,-128 704.38,-134 698.38,-140 692.38,-140"/>
<text text-anchor="middle" x="615" y="-116.75" font-family="Arial" font-size="15.00">firebase_options_private</text>
</g>
<!-- /lib/firebase_options.dart -->
<g id="node3" class="node">
<title>/lib/firebase_options.dart</title>
<path fill="Lavender" stroke="black" stroke-width="1.3" d="M320.75,-672C320.75,-672 219.25,-672 219.25,-672 213.25,-672 207.25,-666 207.25,-660 207.25,-660 207.25,-648 207.25,-648 207.25,-642 213.25,-636 219.25,-636 219.25,-636 320.75,-636 320.75,-636 326.75,-636 332.75,-642 332.75,-648 332.75,-648 332.75,-660 332.75,-660 332.75,-666 326.75,-672 320.75,-672"/>
<text text-anchor="middle" x="270" y="-648.75" font-family="Arial" font-size="15.00">firebase_options</text>
</g>
<!-- /lib/models/game_over_dialog.dart -->
<g id="node5" class="node">
<title>/lib/models/game_over_dialog.dart</title>
<path fill="Lavender" stroke="black" stroke-width="1.3" d="M338.12,-212C338.12,-212 223.88,-212 223.88,-212 217.88,-212 211.88,-206 211.88,-200 211.88,-200 211.88,-188 211.88,-188 211.88,-182 217.88,-176 223.88,-176 223.88,-176 338.12,-176 338.12,-176 344.12,-176 350.12,-182 350.12,-188 350.12,-188 350.12,-200 350.12,-200 350.12,-206 344.12,-212 338.12,-212"/>
<text text-anchor="middle" x="281" y="-188.75" font-family="Arial" font-size="15.00">game_over_dialog</text>
</g>
<!-- /lib/models/game_model.dart&#45;&gt;/lib/models/game_over_dialog.dart -->
<g id="edge4" class="edge">
<title>/lib/models/game_model.dart&#45;&gt;/lib/models/game_over_dialog.dart</title>
<path fill="none" stroke="#aabbaa" stroke-width="1.3" stroke-opacity="0.533333" d="M347.25,-247.7C336.67,-239.28 323.77,-229.02 312.17,-219.79"/>
<polygon fill="#aabbaa" fill-opacity="0.533333" stroke="#aabbaa" stroke-width="1.3" stroke-opacity="0.533333" points="314.35,-217.06 304.35,-213.57 309.99,-222.54 314.35,-217.06"/>
</g>
<!-- /lib/models/player_model.dart -->
<g id="node6" class="node">
<title>/lib/models/player_model.dart</title>
<path fill="Lavender" stroke="black" stroke-width="1.3" d="M290.62,-140C290.62,-140 209.38,-140 209.38,-140 203.38,-140 197.38,-134 197.38,-128 197.38,-128 197.38,-116 197.38,-116 197.38,-110 203.38,-104 209.38,-104 209.38,-104 290.62,-104 290.62,-104 296.62,-104 302.62,-110 302.62,-116 302.62,-116 302.62,-128 302.62,-128 302.62,-134 296.62,-140 290.62,-140"/>
<text text-anchor="middle" x="250" y="-116.75" font-family="Arial" font-size="15.00">player_model</text>
</g>
<!-- /lib/models/game_model.dart&#45;&gt;/lib/models/player_model.dart -->
<g id="edge5" class="edge">
<title>/lib/models/game_model.dart&#45;&gt;/lib/models/player_model.dart</title>
<path fill="none" stroke="#aabbaa" stroke-width="1.3" stroke-opacity="0.533333" d="M317.39,-264.41C276.32,-261.23 221.57,-249.74 194,-212 182.47,-196.21 186.32,-185.98 194,-168 197.1,-160.74 202.01,-154.09 207.69,-148.26"/>
<polygon fill="#aabbaa" fill-opacity="0.533333" stroke="#aabbaa" stroke-width="1.3" stroke-opacity="0.533333" points="209.93,-150.95 214.99,-141.65 205.23,-145.77 209.93,-150.95"/>
</g>
<!-- /lib/models/game_model.dart&#45;&gt;/lib/models/player_model.dart -->
<g id="edge7" class="edge">
<title>/lib/models/game_model.dart&#45;&gt;/lib/models/player_model.dart</title>
<path fill="none" stroke="#aabbaa" stroke-width="1.3" stroke-dasharray="5,2" stroke-opacity="0.533333" d="M317.42,-262.88C281.6,-258.11 236.27,-245.22 212,-212 200.47,-196.21 204.32,-185.98 212,-168 215.03,-160.91 219.78,-154.4 224.96,-148.67"/>
<polygon fill="#aabbaa" fill-opacity="0.533333" stroke="#aabbaa" stroke-width="1.3" stroke-opacity="0.533333" points="227.29,-151.28 231.86,-141.72 222.33,-146.35 227.29,-151.28"/>
</g>
<!-- /lib/models/backend_model.dart -->
<g id="node8" class="node">
<title>/lib/models/backend_model.dart</title>
<path fill="Lavender" stroke="black" stroke-width="1.3" d="M497.5,-212C497.5,-212 400.5,-212 400.5,-212 394.5,-212 388.5,-206 388.5,-200 388.5,-200 388.5,-188 388.5,-188 388.5,-182 394.5,-176 400.5,-176 400.5,-176 497.5,-176 497.5,-176 503.5,-176 509.5,-182 509.5,-188 509.5,-188 509.5,-200 509.5,-200 509.5,-206 503.5,-212 497.5,-212"/>
<text text-anchor="middle" x="449" y="-188.75" font-family="Arial" font-size="15.00">backend_model</text>
</g>
<!-- /lib/models/game_model.dart&#45;&gt;/lib/models/backend_model.dart -->
<g id="edge2" class="edge">
<title>/lib/models/game_model.dart&#45;&gt;/lib/models/backend_model.dart</title>
<path fill="none" stroke="#aabbaa" stroke-width="1.3" stroke-opacity="0.533333" d="M388.78,-247.7C398.29,-239.37 409.89,-229.22 420.35,-220.07"/>
<polygon fill="#aabbaa" fill-opacity="0.533333" stroke="#aabbaa" stroke-width="1.3" stroke-opacity="0.533333" points="422.47,-222.86 427.69,-213.64 417.86,-217.59 422.47,-222.86"/>
</g>
<!-- /lib/models/deck_model.dart -->
<g id="node9" class="node">
<title>/lib/models/deck_model.dart</title>
<path fill="Lavender" stroke="black" stroke-width="1.3" d="M405.12,-140C405.12,-140 332.88,-140 332.88,-140 326.88,-140 320.88,-134 320.88,-128 320.88,-128 320.88,-116 320.88,-116 320.88,-110 326.88,-104 332.88,-104 332.88,-104 405.12,-104 405.12,-104 411.12,-104 417.12,-110 417.12,-116 417.12,-116 417.12,-128 417.12,-128 417.12,-134 411.12,-140 405.12,-140"/>
<text text-anchor="middle" x="369" y="-116.75" font-family="Arial" font-size="15.00">deck_model</text>
</g>
<!-- /lib/models/game_model.dart&#45;&gt;/lib/models/deck_model.dart -->
<g id="edge3" class="edge">
<title>/lib/models/game_model.dart&#45;&gt;/lib/models/deck_model.dart</title>
<path fill="none" stroke="#aabbaa" stroke-width="1.3" stroke-opacity="0.533333" d="M364.39,-247.59C361.9,-223.72 361.58,-180.53 363.45,-151.8"/>
<polygon fill="#aabbaa" fill-opacity="0.533333" stroke="#aabbaa" stroke-width="1.3" stroke-opacity="0.533333" points="366.92,-152.33 364.25,-142.07 359.94,-151.75 366.92,-152.33"/>
</g>
<!-- /lib/models/game_model.dart&#45;&gt;/lib/models/deck_model.dart -->
<g id="edge6" class="edge">
<title>/lib/models/game_model.dart&#45;&gt;/lib/models/deck_model.dart</title>
<path fill="none" stroke="#aabbaa" stroke-width="1.3" stroke-dasharray="5,2" stroke-opacity="0.533333" d="M373.61,-247.59C376.1,-223.72 376.42,-180.53 374.55,-151.8"/>
<polygon fill="#aabbaa" fill-opacity="0.533333" stroke="#aabbaa" stroke-width="1.3" stroke-opacity="0.533333" points="378.06,-151.75 373.75,-142.07 371.08,-152.33 378.06,-151.75"/>
</g>
<!-- /lib/models/game_over_dialog.dart&#45;&gt;/lib/models/player_model.dart -->
<g id="edge8" class="edge">
<title>/lib/models/game_over_dialog.dart&#45;&gt;/lib/models/player_model.dart</title>
<path fill="none" stroke="#aabbaa" stroke-width="1.3" stroke-opacity="0.533333" d="M273.34,-175.7C270.03,-168.24 266.09,-159.32 262.38,-150.97"/>
<polygon fill="#aabbaa" fill-opacity="0.533333" stroke="#aabbaa" stroke-width="1.3" stroke-opacity="0.533333" points="265.62,-149.63 258.37,-141.9 259.22,-152.46 265.62,-149.63"/>
</g>
<!-- /lib/models/card_model.dart -->
<g id="node7" class="node">
<title>/lib/models/card_model.dart</title>
<path fill="Lavender" stroke="black" stroke-width="1.3" d="M404,-68C404,-68 334,-68 334,-68 328,-68 322,-62 322,-56 322,-56 322,-44 322,-44 322,-38 328,-32 334,-32 334,-32 404,-32 404,-32 410,-32 416,-38 416,-44 416,-44 416,-56 416,-56 416,-62 410,-68 404,-68"/>
<text text-anchor="middle" x="369" y="-44.75" font-family="Arial" font-size="15.00">card_model</text>
</g>
<!-- /lib/models/player_model.dart&#45;&gt;/lib/models/card_model.dart -->
<g id="edge9" class="edge">
<title>/lib/models/player_model.dart&#45;&gt;/lib/models/card_model.dart</title>
<path fill="none" stroke="#aabbaa" stroke-width="1.3" stroke-opacity="0.533333" d="M273.79,-103.52C288.05,-94.6 306.54,-83.63 323.46,-74.03"/>
<polygon fill="#aabbaa" fill-opacity="0.533333" stroke="#aabbaa" stroke-width="1.3" stroke-opacity="0.533333" points="325.02,-77.17 332.03,-69.22 321.6,-71.06 325.02,-77.17"/>
</g>
<!-- /lib/models/player_model.dart&#45;&gt;/lib/models/card_model.dart -->
<g id="edge10" class="edge">
<title>/lib/models/player_model.dart&#45;&gt;/lib/models/card_model.dart</title>
<path fill="none" stroke="#aabbaa" stroke-width="1.3" stroke-dasharray="5,2" stroke-opacity="0.533333" d="M285.66,-103.52C301.58,-94.68 320.17,-83.84 335.79,-74.3"/>
<polygon fill="#aabbaa" fill-opacity="0.533333" stroke="#aabbaa" stroke-width="1.3" stroke-opacity="0.533333" points="337.23,-77.53 343.89,-69.29 333.55,-71.57 337.23,-77.53"/>
</g>
<!-- /lib/models/backend_model.dart&#45;&gt;/lib/firebase_options_private.dart -->
<g id="edge11" class="edge">
<title>/lib/models/backend_model.dart&#45;&gt;/lib/firebase_options_private.dart</title>
<path fill="none" stroke="#aabbaa" stroke-width="1.3" stroke-opacity="0.533333" d="M490.46,-175.52C512.43,-166.25 539.63,-154.78 563,-144.93"/>
<polygon fill="#aabbaa" fill-opacity="0.533333" stroke="#aabbaa" stroke-width="1.3" stroke-opacity="0.533333" points="564.11,-148.26 571.97,-141.15 561.39,-141.81 564.11,-148.26"/>
</g>
<!-- /lib/models/deck_model.dart&#45;&gt;/lib/models/card_model.dart -->
<g id="edge12" class="edge">
<title>/lib/models/deck_model.dart&#45;&gt;/lib/models/card_model.dart</title>
<path fill="none" stroke="#aabbaa" stroke-width="1.3" stroke-opacity="0.533333" d="M363.08,-103.7C362.34,-96.49 362.09,-87.93 362.34,-79.82"/>
<polygon fill="#aabbaa" fill-opacity="0.533333" stroke="#aabbaa" stroke-width="1.3" stroke-opacity="0.533333" points="365.82,-80.27 362.98,-70.07 358.84,-79.82 365.82,-80.27"/>
</g>
<!-- /lib/models/deck_model.dart&#45;&gt;/lib/models/card_model.dart -->
<g id="edge13" class="edge">
<title>/lib/models/deck_model.dart&#45;&gt;/lib/models/card_model.dart</title>
<path fill="none" stroke="#aabbaa" stroke-width="1.3" stroke-dasharray="5,2" stroke-opacity="0.533333" d="M374.92,-103.7C375.66,-96.49 375.91,-87.93 375.66,-79.82"/>
<polygon fill="#aabbaa" fill-opacity="0.533333" stroke="#aabbaa" stroke-width="1.3" stroke-opacity="0.533333" points="379.16,-79.82 375.02,-70.07 372.18,-80.27 379.16,-79.82"/>
</g>
<!-- /lib/screens/game_screen.dart -->
<g id="node10" class="node">
<title>/lib/screens/game_screen.dart</title>
<path fill="Lavender" stroke="black" stroke-width="1.3" d="M418.38,-525C418.38,-525 335.62,-525 335.62,-525 329.62,-525 323.62,-519 323.62,-513 323.62,-513 323.62,-501 323.62,-501 323.62,-495 329.62,-489 335.62,-489 335.62,-489 418.38,-489 418.38,-489 424.38,-489 430.38,-495 430.38,-501 430.38,-501 430.38,-513 430.38,-513 430.38,-519 424.38,-525 418.38,-525"/>
<text text-anchor="middle" x="377" y="-501.75" font-family="Arial" font-size="15.00">game_screen</text>
</g>
<!-- /lib/screens/game_screen.dart&#45;&gt;/lib/models/game_model.dart -->
<g id="edge14" class="edge">
<title>/lib/screens/game_screen.dart&#45;&gt;/lib/models/game_model.dart</title>
<path fill="none" stroke="#aabbaa" stroke-width="1.3" stroke-opacity="0.533333" d="M376.42,-488.81C375.07,-448.34 371.67,-346.69 369.98,-296.28"/>
<polygon fill="#aabbaa" fill-opacity="0.533333" stroke="#aabbaa" stroke-width="1.3" stroke-opacity="0.533333" points="373.48,-296.2 369.65,-286.32 366.48,-296.43 373.48,-296.2"/>
</g>
<!-- /lib/screens/screen.dart -->
<g id="node12" class="node">
<title>/lib/screens/screen.dart</title>
<path fill="Lavender" stroke="black" stroke-width="1.3" d="M437.5,-450C437.5,-450 400.5,-450 400.5,-450 394.5,-450 388.5,-444 388.5,-438 388.5,-438 388.5,-426 388.5,-426 388.5,-420 394.5,-414 400.5,-414 400.5,-414 437.5,-414 437.5,-414 443.5,-414 449.5,-420 449.5,-426 449.5,-426 449.5,-438 449.5,-438 449.5,-444 443.5,-450 437.5,-450"/>
<text text-anchor="middle" x="419" y="-426.75" font-family="Arial" font-size="15.00">screen</text>
</g>
<!-- /lib/screens/game_screen.dart&#45;&gt;/lib/screens/screen.dart -->
<g id="edge15" class="edge">
<title>/lib/screens/game_screen.dart&#45;&gt;/lib/screens/screen.dart</title>
<path fill="none" stroke="#aabbaa" stroke-width="1.3" stroke-opacity="0.533333" d="M386.95,-488.7C391.78,-480.31 397.7,-470.02 403.13,-460.58"/>
<polygon fill="#aabbaa" fill-opacity="0.533333" stroke="#aabbaa" stroke-width="1.3" stroke-opacity="0.533333" points="406.04,-462.55 407.99,-452.13 399.97,-459.06 406.04,-462.55"/>
</g>
<!-- /lib/widgets/player_zone_widget.dart -->
<g id="node20" class="node">
<title>/lib/widgets/player_zone_widget.dart</title>
<path fill="Lavender" stroke="black" stroke-width="1.3" d="M848,-450C848,-450 724,-450 724,-450 718,-450 712,-444 712,-438 712,-438 712,-426 712,-426 712,-420 718,-414 724,-414 724,-414 848,-414 848,-414 854,-414 860,-420 860,-426 860,-426 860,-438 860,-438 860,-444 854,-450 848,-450"/>
<text text-anchor="middle" x="786" y="-426.75" font-family="Arial" font-size="15.00">player_zone_widget</text>
</g>
<!-- /lib/screens/game_screen.dart&#45;&gt;/lib/widgets/player_zone_widget.dart -->
<g id="edge16" class="edge">
<title>/lib/screens/game_screen.dart&#45;&gt;/lib/widgets/player_zone_widget.dart</title>
<path fill="none" stroke="#aabbaa" stroke-width="1.3" stroke-opacity="0.533333" d="M430.6,-504.77C509.7,-502.47 653.66,-496.29 703,-481 720.4,-475.61 738.09,-466.06 752.65,-456.88"/>
<polygon fill="#aabbaa" fill-opacity="0.533333" stroke="#aabbaa" stroke-width="1.3" stroke-opacity="0.533333" points="754.55,-459.82 760.99,-451.41 750.71,-453.97 754.55,-459.82"/>
</g>
<!-- /lib/screens/start_screen.dart -->
<g id="node11" class="node">
<title>/lib/screens/start_screen.dart</title>
<path fill="Lavender" stroke="black" stroke-width="1.3" d="M437.62,-597C437.62,-597 362.38,-597 362.38,-597 356.38,-597 350.38,-591 350.38,-585 350.38,-585 350.38,-573 350.38,-573 350.38,-567 356.38,-561 362.38,-561 362.38,-561 437.62,-561 437.62,-561 443.62,-561 449.62,-567 449.62,-573 449.62,-573 449.62,-585 449.62,-585 449.62,-591 443.62,-597 437.62,-597"/>
<text text-anchor="middle" x="400" y="-573.75" font-family="Arial" font-size="15.00">start_screen</text>
</g>
<!-- /lib/screens/start_screen.dart&#45;&gt;/lib/models/game_model.dart -->
<g id="edge18" class="edge">
<title>/lib/screens/start_screen.dart&#45;&gt;/lib/models/game_model.dart</title>
<path fill="none" stroke="#aabbaa" stroke-width="1.3" stroke-opacity="0.533333" d="M418.29,-560.83C427.72,-551.1 438.74,-538.25 446,-525 471.56,-478.34 474.08,-457.02 459,-406 446.09,-362.29 414.65,-319.41 392.59,-293.1"/>
<polygon fill="#aabbaa" fill-opacity="0.533333" stroke="#aabbaa" stroke-width="1.3" stroke-opacity="0.533333" points="395.39,-290.98 386.22,-285.67 390.07,-295.54 395.39,-290.98"/>
</g>
<!-- /lib/screens/start_screen.dart&#45;&gt;/lib/models/backend_model.dart -->
<g id="edge17" class="edge">
<title>/lib/screens/start_screen.dart&#45;&gt;/lib/models/backend_model.dart</title>
<path fill="none" stroke="#aabbaa" stroke-width="1.3" stroke-opacity="0.533333" d="M424.93,-560.51C436.68,-551.15 450.06,-538.73 459,-525 482.46,-488.96 489,-476.01 489,-433 489,-433 489,-433 489,-348 489,-303.16 472.72,-253.26 460.93,-223.01"/>
<polygon fill="#aabbaa" fill-opacity="0.533333" stroke="#aabbaa" stroke-width="1.3" stroke-opacity="0.533333" points="464.24,-221.85 457.26,-213.88 457.75,-224.47 464.24,-221.85"/>
</g>
<!-- /lib/screens/start_screen.dart&#45;&gt;/lib/screens/game_screen.dart -->
<g id="edge19" class="edge">
<title>/lib/screens/start_screen.dart&#45;&gt;/lib/screens/game_screen.dart</title>
<path fill="none" stroke="#aabbaa" stroke-width="1.3" stroke-opacity="0.533333" d="M394.31,-560.7C391.89,-553.32 389,-544.52 386.28,-536.25"/>
<polygon fill="#aabbaa" fill-opacity="0.533333" stroke="#aabbaa" stroke-width="1.3" stroke-opacity="0.533333" points="389.68,-535.38 383.23,-526.97 383.03,-537.57 389.68,-535.38"/>
</g>
<!-- /lib/screens/start_screen.dart&#45;&gt;/lib/screens/screen.dart -->
<g id="edge20" class="edge">
<title>/lib/screens/start_screen.dart&#45;&gt;/lib/screens/screen.dart</title>
<path fill="none" stroke="#aabbaa" stroke-width="1.3" stroke-opacity="0.533333" d="M417.3,-560.52C425.59,-550.9 434.65,-538.24 439,-525 445.89,-504.01 439.93,-479.53 432.77,-461.11"/>
<polygon fill="#aabbaa" fill-opacity="0.533333" stroke="#aabbaa" stroke-width="1.3" stroke-opacity="0.533333" points="436.04,-459.87 428.9,-452.05 429.6,-462.62 436.04,-459.87"/>
</g>
<!-- /lib/widgets/players_in_room_widget.dart -->
<g id="node18" class="node">
<title>/lib/widgets/players_in_room_widget.dart</title>
<path fill="Lavender" stroke="black" stroke-width="1.3" d="M1221.62,-450C1221.62,-450 1068.38,-450 1068.38,-450 1062.38,-450 1056.38,-444 1056.38,-438 1056.38,-438 1056.38,-426 1056.38,-426 1056.38,-420 1062.38,-414 1068.38,-414 1068.38,-414 1221.62,-414 1221.62,-414 1227.62,-414 1233.62,-420 1233.62,-426 1233.62,-426 1233.62,-438 1233.62,-438 1233.62,-444 1227.62,-450 1221.62,-450"/>
<text text-anchor="middle" x="1145" y="-426.75" font-family="Arial" font-size="15.00">players_in_room_widget</text>
</g>
<!-- /lib/screens/start_screen.dart&#45;&gt;/lib/widgets/players_in_room_widget.dart -->
<g id="edge21" class="edge">
<title>/lib/screens/start_screen.dart&#45;&gt;/lib/widgets/players_in_room_widget.dart</title>
<path fill="none" stroke="#aabbaa" stroke-width="1.3" stroke-opacity="0.533333" d="M449.85,-575.72C559.95,-569.56 831.21,-548.26 1047,-481 1066.92,-474.79 1087.84,-465.04 1105.21,-455.94"/>
<polygon fill="#aabbaa" fill-opacity="0.533333" stroke="#aabbaa" stroke-width="1.3" stroke-opacity="0.533333" points="1106.64,-459.15 1113.8,-451.33 1103.33,-452.98 1106.64,-459.15"/>
</g>
<!-- /lib/main.dart -->
<g id="node13" class="node">
<title>/lib/main.dart</title>
<path fill="Lavender" stroke="black" stroke-width="1.3" d="M415,-672C415,-672 385,-672 385,-672 379,-672 373,-666 373,-660 373,-660 373,-648 373,-648 373,-642 379,-636 385,-636 385,-636 415,-636 415,-636 421,-636 427,-642 427,-648 427,-648 427,-660 427,-660 427,-666 421,-672 415,-672"/>
<text text-anchor="middle" x="400" y="-648.75" font-family="Arial" font-size="15.00">main</text>
</g>
<!-- /lib/main.dart&#45;&gt;/lib/screens/start_screen.dart -->
<g id="edge22" class="edge">
<title>/lib/main.dart&#45;&gt;/lib/screens/start_screen.dart</title>
<path fill="none" stroke="#aabbaa" stroke-width="1.3" stroke-opacity="0.533333" d="M400,-635.7C400,-627.76 400,-618.12 400,-609.11"/>
<polygon fill="#aabbaa" fill-opacity="0.533333" stroke="#aabbaa" stroke-width="1.3" stroke-opacity="0.533333" points="403.5,-609.4 400,-599.4 396.5,-609.4 403.5,-609.4"/>
</g>
<!-- /lib/widgets/player_zone_cta_widget.dart -->
<g id="node14" class="node">
<title>/lib/widgets/player_zone_cta_widget.dart</title>
<path fill="Lavender" stroke="black" stroke-width="1.3" d="M996.25,-367C996.25,-367 843.75,-367 843.75,-367 837.75,-367 831.75,-361 831.75,-355 831.75,-355 831.75,-343 831.75,-343 831.75,-337 837.75,-331 843.75,-331 843.75,-331 996.25,-331 996.25,-331 1002.25,-331 1008.25,-337 1008.25,-343 1008.25,-343 1008.25,-355 1008.25,-355 1008.25,-361 1002.25,-367 996.25,-367"/>
<text text-anchor="middle" x="920" y="-343.75" font-family="Arial" font-size="15.00">player_zone_cta_widget</text>
</g>
<!-- /lib/widgets/player_zone_cta_widget.dart&#45;&gt;/lib/models/game_model.dart -->
<g id="edge23" class="edge">
<title>/lib/widgets/player_zone_cta_widget.dart&#45;&gt;/lib/models/game_model.dart</title>
<path fill="none" stroke="#aabbaa" stroke-width="1.3" stroke-opacity="0.533333" d="M860.92,-330.52C848.5,-327.48 835.4,-324.74 823,-323 690.47,-304.4 654,-337.02 522,-315 488.79,-309.46 452.81,-298.44 424.09,-288.36"/>
<polygon fill="#aabbaa" fill-opacity="0.533333" stroke="#aabbaa" stroke-width="1.3" stroke-opacity="0.533333" points="425.51,-285.15 414.91,-285.07 423.14,-291.74 425.51,-285.15"/>
</g>
<!-- /lib/widgets/card_widget.dart -->
<g id="node16" class="node">
<title>/lib/widgets/card_widget.dart</title>
<path fill="Lavender" stroke="black" stroke-width="1.3" d="M826.12,-212C826.12,-212 753.88,-212 753.88,-212 747.88,-212 741.88,-206 741.88,-200 741.88,-200 741.88,-188 741.88,-188 741.88,-182 747.88,-176 753.88,-176 753.88,-176 826.12,-176 826.12,-176 832.12,-176 838.12,-182 838.12,-188 838.12,-188 838.12,-200 838.12,-200 838.12,-206 832.12,-212 826.12,-212"/>
<text text-anchor="middle" x="790" y="-188.75" font-family="Arial" font-size="15.00">card_widget</text>
</g>
<!-- /lib/widgets/player_zone_cta_widget.dart&#45;&gt;/lib/widgets/card_widget.dart -->
<g id="edge27" class="edge">
<title>/lib/widgets/player_zone_cta_widget.dart&#45;&gt;/lib/widgets/card_widget.dart</title>
<path fill="none" stroke="#aabbaa" stroke-width="1.3" stroke-opacity="0.533333" d="M856.75,-330.65C849.03,-326.49 841.83,-321.34 836,-315 814.97,-292.12 827.33,-276.94 816,-248 812.75,-239.7 808.71,-230.92 804.78,-222.94"/>
<polygon fill="#aabbaa" fill-opacity="0.533333" stroke="#aabbaa" stroke-width="1.3" stroke-opacity="0.533333" points="807.94,-221.43 800.3,-214.09 801.7,-224.6 807.94,-221.43"/>
</g>
<!-- /lib/widgets/card_piles_widget.dart -->
<g id="node21" class="node">
<title>/lib/widgets/card_piles_widget.dart</title>
<path fill="Lavender" stroke="black" stroke-width="1.3" d="M795.25,-284C795.25,-284 684.75,-284 684.75,-284 678.75,-284 672.75,-278 672.75,-272 672.75,-272 672.75,-260 672.75,-260 672.75,-254 678.75,-248 684.75,-248 684.75,-248 795.25,-248 795.25,-248 801.25,-248 807.25,-254 807.25,-260 807.25,-260 807.25,-272 807.25,-272 807.25,-278 801.25,-284 795.25,-284"/>
<text text-anchor="middle" x="740" y="-260.75" font-family="Arial" font-size="15.00">card_piles_widget</text>
</g>
<!-- /lib/widgets/player_zone_cta_widget.dart&#45;&gt;/lib/widgets/card_piles_widget.dart -->
<g id="edge26" class="edge">
<title>/lib/widgets/player_zone_cta_widget.dart&#45;&gt;/lib/widgets/card_piles_widget.dart</title>
<path fill="none" stroke="#aabbaa" stroke-width="1.3" stroke-opacity="0.533333" d="M860.83,-330.57C847.52,-326.02 833.61,-320.76 821,-315 805.83,-308.07 789.89,-299.05 776.2,-290.69"/>
<polygon fill="#aabbaa" fill-opacity="0.533333" stroke="#aabbaa" stroke-width="1.3" stroke-opacity="0.533333" points="778.24,-287.83 767.9,-285.52 774.54,-293.78 778.24,-287.83"/>
</g>
<!-- /lib/widgets/blink_widget.dart -->
<g id="node22" class="node">
<title>/lib/widgets/blink_widget.dart</title>
<path fill="Lavender" stroke="black" stroke-width="1.3" d="M973.5,-212C973.5,-212 900.5,-212 900.5,-212 894.5,-212 888.5,-206 888.5,-200 888.5,-200 888.5,-188 888.5,-188 888.5,-182 894.5,-176 900.5,-176 900.5,-176 973.5,-176 973.5,-176 979.5,-176 985.5,-182 985.5,-188 985.5,-188 985.5,-200 985.5,-200 985.5,-206 979.5,-212 973.5,-212"/>
<text text-anchor="middle" x="937" y="-188.75" font-family="Arial" font-size="15.00">blink_widget</text>
</g>
<!-- /lib/widgets/player_zone_cta_widget.dart&#45;&gt;/lib/widgets/blink_widget.dart -->
<g id="edge24" class="edge">
<title>/lib/widgets/player_zone_cta_widget.dart&#45;&gt;/lib/widgets/blink_widget.dart</title>
<path fill="none" stroke="#aabbaa" stroke-width="1.3" stroke-opacity="0.533333" d="M987.46,-330.61C993.93,-326.47 999.68,-321.34 1004,-315 1020.77,-290.39 1016.97,-274.8 1004,-248 998.56,-236.77 989.47,-227.2 979.7,-219.41"/>
<polygon fill="#aabbaa" fill-opacity="0.533333" stroke="#aabbaa" stroke-width="1.3" stroke-opacity="0.533333" points="981.96,-216.72 971.82,-213.65 977.83,-222.37 981.96,-216.72"/>
</g>
<!-- /lib/widgets/blinking_text_widget.dart -->
<g id="node23" class="node">
<title>/lib/widgets/blinking_text_widget.dart</title>
<path fill="Lavender" stroke="black" stroke-width="1.3" d="M982.75,-284C982.75,-284 857.25,-284 857.25,-284 851.25,-284 845.25,-278 845.25,-272 845.25,-272 845.25,-260 845.25,-260 845.25,-254 851.25,-248 857.25,-248 857.25,-248 982.75,-248 982.75,-248 988.75,-248 994.75,-254 994.75,-260 994.75,-260 994.75,-272 994.75,-272 994.75,-278 988.75,-284 982.75,-284"/>
<text text-anchor="middle" x="920" y="-260.75" font-family="Arial" font-size="15.00">blinking_text_widget</text>
</g>
<!-- /lib/widgets/player_zone_cta_widget.dart&#45;&gt;/lib/widgets/blinking_text_widget.dart -->
<g id="edge25" class="edge">
<title>/lib/widgets/player_zone_cta_widget.dart&#45;&gt;/lib/widgets/blinking_text_widget.dart</title>
<path fill="none" stroke="#aabbaa" stroke-width="1.3" stroke-opacity="0.533333" d="M920,-330.82C920,-320.8 920,-307.88 920,-296.29"/>
<polygon fill="#aabbaa" fill-opacity="0.533333" stroke="#aabbaa" stroke-width="1.3" stroke-opacity="0.533333" points="923.5,-296.4 920,-286.4 916.5,-296.4 923.5,-296.4"/>
</g>
<!-- /lib/widgets/table_surface_painter.dart -->
<g id="node15" class="node">
<title>/lib/widgets/table_surface_painter.dart</title>
<path fill="Lavender" stroke="black" stroke-width="1.3" d="M682,-450C682,-450 546,-450 546,-450 540,-450 534,-444 534,-438 534,-438 534,-426 534,-426 534,-420 540,-414 546,-414 546,-414 682,-414 682,-414 688,-414 694,-420 694,-426 694,-426 694,-438 694,-438 694,-444 688,-450 682,-450"/>
<text text-anchor="middle" x="614" y="-426.75" font-family="Arial" font-size="15.00">table_surface_painter</text>
</g>
<!-- /lib/widgets/card_widget.dart&#45;&gt;/lib/models/card_model.dart -->
<g id="edge28" class="edge">
<title>/lib/widgets/card_widget.dart&#45;&gt;/lib/models/card_model.dart</title>
<path fill="none" stroke="#aabbaa" stroke-width="1.3" stroke-opacity="0.533333" d="M783.09,-175.69C773.84,-154.97 755.38,-120.95 728,-104 679.03,-73.68 516.87,-59.63 428.2,-54.08"/>
<polygon fill="#aabbaa" fill-opacity="0.533333" stroke="#aabbaa" stroke-width="1.3" stroke-opacity="0.533333" points="428.61,-50.6 418.42,-53.49 428.19,-57.59 428.61,-50.6"/>
</g>
<!-- /lib/widgets/player_header_widget.dart -->
<g id="node17" class="node">
<title>/lib/widgets/player_header_widget.dart</title>
<path fill="Lavender" stroke="black" stroke-width="1.3" d="M802.12,-367C802.12,-367 663.88,-367 663.88,-367 657.88,-367 651.88,-361 651.88,-355 651.88,-355 651.88,-343 651.88,-343 651.88,-337 657.88,-331 663.88,-331 663.88,-331 802.12,-331 802.12,-331 808.12,-331 814.12,-337 814.12,-343 814.12,-343 814.12,-355 814.12,-355 814.12,-361 808.12,-367 802.12,-367"/>
<text text-anchor="middle" x="733" y="-343.75" font-family="Arial" font-size="15.00">player_header_widget</text>
</g>
<!-- /lib/widgets/text_edit_with_submit.dart -->
<g id="node19" class="node">
<title>/lib/widgets/text_edit_with_submit.dart</title>
<path fill="Lavender" stroke="black" stroke-width="1.3" d="M1026,-450C1026,-450 890,-450 890,-450 884,-450 878,-444 878,-438 878,-438 878,-426 878,-426 878,-420 884,-414 890,-414 890,-414 1026,-414 1026,-414 1032,-414 1038,-420 1038,-426 1038,-426 1038,-438 1038,-438 1038,-444 1032,-450 1026,-450"/>
<text text-anchor="middle" x="958" y="-426.75" font-family="Arial" font-size="15.00">text_edit_with_submit</text>
</g>
<!-- /lib/widgets/player_zone_widget.dart&#45;&gt;/lib/models/game_model.dart -->
<g id="edge29" class="edge">
<title>/lib/widgets/player_zone_widget.dart&#45;&gt;/lib/models/game_model.dart</title>
<path fill="none" stroke="#aabbaa" stroke-width="1.3" stroke-opacity="0.533333" d="M733.24,-413.51C723.28,-410.66 712.88,-408 703,-406 670.14,-399.36 660.15,-407.5 628,-398 605.58,-391.38 479.57,-325.52 411.93,-289.78"/>
<polygon fill="#aabbaa" fill-opacity="0.533333" stroke="#aabbaa" stroke-width="1.3" stroke-opacity="0.533333" points="413.82,-286.82 403.34,-285.24 410.54,-293.01 413.82,-286.82"/>
</g>
<!-- /lib/widgets/player_zone_widget.dart&#45;&gt;/lib/widgets/player_zone_cta_widget.dart -->
<g id="edge32" class="edge">
<title>/lib/widgets/player_zone_widget.dart&#45;&gt;/lib/widgets/player_zone_cta_widget.dart</title>
<path fill="none" stroke="#aabbaa" stroke-width="1.3" stroke-opacity="0.533333" d="M814.75,-413.62C834.18,-401.88 860.06,-386.23 881.3,-373.39"/>
<polygon fill="#aabbaa" fill-opacity="0.533333" stroke="#aabbaa" stroke-width="1.3" stroke-opacity="0.533333" points="882.87,-376.53 889.62,-368.37 879.25,-370.54 882.87,-376.53"/>
</g>
<!-- /lib/widgets/player_zone_widget.dart&#45;&gt;/lib/widgets/card_widget.dart -->
<g id="edge30" class="edge">
<title>/lib/widgets/player_zone_widget.dart&#45;&gt;/lib/widgets/card_widget.dart</title>
<path fill="none" stroke="#aabbaa" stroke-width="1.3" stroke-opacity="0.533333" d="M732.75,-413.59C722.93,-410.77 712.71,-408.1 703,-406 689.85,-403.16 651.86,-408.12 643,-398 598.66,-347.35 619.47,-298.48 664,-248 681.13,-228.58 706.56,-216.08 730.09,-208.14"/>
<polygon fill="#aabbaa" fill-opacity="0.533333" stroke="#aabbaa" stroke-width="1.3" stroke-opacity="0.533333" points="731.07,-211.5 739.57,-205.18 728.98,-204.82 731.07,-211.5"/>
</g>
<!-- /lib/widgets/player_zone_widget.dart&#45;&gt;/lib/widgets/player_header_widget.dart -->
<g id="edge31" class="edge">
<title>/lib/widgets/player_zone_widget.dart&#45;&gt;/lib/widgets/player_header_widget.dart</title>
<path fill="none" stroke="#aabbaa" stroke-width="1.3" stroke-opacity="0.533333" d="M774.76,-413.82C767.78,-403.16 758.66,-389.22 750.72,-377.08"/>
<polygon fill="#aabbaa" fill-opacity="0.533333" stroke="#aabbaa" stroke-width="1.3" stroke-opacity="0.533333" points="753.89,-375.53 745.48,-369.08 748.03,-379.36 753.89,-375.53"/>
</g>
<!-- /lib/widgets/card_piles_widget.dart&#45;&gt;/lib/models/card_model.dart -->
<g id="edge33" class="edge">
<title>/lib/widgets/card_piles_widget.dart&#45;&gt;/lib/models/card_model.dart</title>
<path fill="none" stroke="#aabbaa" stroke-width="1.3" stroke-opacity="0.533333" d="M737.68,-247.54C732.16,-206 718.63,-104.64 718,-104 678.63,-64.04 517.07,-54.13 428.23,-51.72"/>
<polygon fill="#aabbaa" fill-opacity="0.533333" stroke="#aabbaa" stroke-width="1.3" stroke-opacity="0.533333" points="428.51,-48.23 418.42,-51.49 428.34,-55.23 428.51,-48.23"/>
</g>
<!-- /lib/widgets/card_piles_widget.dart&#45;&gt;/lib/widgets/card_widget.dart -->
<g id="edge34" class="edge">
<title>/lib/widgets/card_piles_widget.dart&#45;&gt;/lib/widgets/card_widget.dart</title>
<path fill="none" stroke="#aabbaa" stroke-width="1.3" stroke-opacity="0.533333" d="M752.36,-247.7C757.93,-239.9 764.64,-230.51 770.84,-221.83"/>
<polygon fill="#aabbaa" fill-opacity="0.533333" stroke="#aabbaa" stroke-width="1.3" stroke-opacity="0.533333" points="773.67,-223.88 776.64,-213.71 767.98,-219.81 773.67,-223.88"/>
</g>
<!-- /lib/widgets/blinking_text_widget.dart&#45;&gt;/lib/widgets/blink_widget.dart -->
<g id="edge35" class="edge">
<title>/lib/widgets/blinking_text_widget.dart&#45;&gt;/lib/widgets/blink_widget.dart</title>
<path fill="none" stroke="#aabbaa" stroke-width="1.3" stroke-opacity="0.533333" d="M924.2,-247.7C925.97,-240.41 928.08,-231.73 930.07,-223.54"/>
<polygon fill="#aabbaa" fill-opacity="0.533333" stroke="#aabbaa" stroke-width="1.3" stroke-opacity="0.533333" points="933.42,-224.56 932.38,-214.02 926.62,-222.91 933.42,-224.56"/>
</g>
</g>
</svg>
