<?xml version="1.0" encoding="UTF-8" standalone="no"?>
<!DOCTYPE svg PUBLIC "-//W3C//DTD SVG 1.1//EN"
 "http://www.w3.org/Graphics/SVG/1.1/DTD/svg11.dtd">
<!-- Generated by graphviz version 12.1.2 (20240928.0832)
 -->
<!-- Pages: 1 -->
<svg width="1155pt" height="754pt"
 viewBox="0.00 0.00 1155.00 753.50" xmlns="http://www.w3.org/2000/svg" xmlns:xlink="http://www.w3.org/1999/xlink">
<g id="graph0" class="graph" transform="scale(1 1) rotate(0) translate(4 749.5)">
<polygon fill="white" stroke="none" points="-4,4 -4,-749.5 1151,-749.5 1151,4 -4,4"/>
<g id="clust1" class="cluster">
<title>cluster~</title>
<path fill="none" stroke="lightgray" stroke-width="2.6" d="M20,-8C20,-8 1127,-8 1127,-8 1133,-8 1139,-14 1139,-20 1139,-20 1139,-725.5 1139,-725.5 1139,-731.5 1133,-737.5 1127,-737.5 1127,-737.5 20,-737.5 20,-737.5 14,-737.5 8,-731.5 8,-725.5 8,-725.5 8,-20 8,-20 8,-14 14,-8 20,-8"/>
<text text-anchor="middle" x="573.5" y="-721.15" font-family="Arial Black" font-size="13.00">cards</text>
</g>
<g id="clust2" class="cluster">
<title>cluster~/lib</title>
<path fill="none" stroke="lightgray" stroke-width="2.6" d="M28,-16C28,-16 1119,-16 1119,-16 1125,-16 1131,-22 1131,-28 1131,-28 1131,-690 1131,-690 1131,-696 1125,-702 1119,-702 1119,-702 28,-702 28,-702 22,-702 16,-696 16,-690 16,-690 16,-28 16,-28 16,-22 22,-16 28,-16"/>
<text text-anchor="middle" x="573.5" y="-685.65" font-family="Arial Black" font-size="13.00">lib</text>
</g>
<g id="clust3" class="cluster">
<title>cluster~/lib/models</title>
<path fill="none" stroke="lightgray" stroke-width="2.6" d="M760,-24C760,-24 1111,-24 1111,-24 1117,-24 1123,-30 1123,-36 1123,-36 1123,-235.5 1123,-235.5 1123,-241.5 1117,-247.5 1111,-247.5 1111,-247.5 760,-247.5 760,-247.5 754,-247.5 748,-241.5 748,-235.5 748,-235.5 748,-36 748,-36 748,-30 754,-24 760,-24"/>
<text text-anchor="middle" x="935.5" y="-231.15" font-family="Arial Black" font-size="13.00">models</text>
</g>
<g id="clust4" class="cluster">
<title>cluster~/lib/screens</title>
<path fill="none" stroke="lightgray" stroke-width="2.6" d="M763,-391.5C763,-391.5 881,-391.5 881,-391.5 887,-391.5 893,-397.5 893,-403.5 893,-403.5 893,-610.5 893,-610.5 893,-616.5 887,-622.5 881,-622.5 881,-622.5 763,-622.5 763,-622.5 757,-622.5 751,-616.5 751,-610.5 751,-610.5 751,-403.5 751,-403.5 751,-397.5 757,-391.5 763,-391.5"/>
<text text-anchor="middle" x="822" y="-606.15" font-family="Arial Black" font-size="13.00">screens</text>
</g>
<g id="clust5" class="cluster">
<title>cluster~/lib/widgets</title>
<path fill="none" stroke="lightgray" stroke-width="2.6" d="M36,-24C36,-24 728,-24 728,-24 734,-24 740,-30 740,-36 740,-36 740,-459 740,-459 740,-465 734,-471 728,-471 728,-471 36,-471 36,-471 30,-471 24,-465 24,-459 24,-459 24,-36 24,-36 24,-30 30,-24 36,-24"/>
<text text-anchor="middle" x="382" y="-454.65" font-family="Arial Black" font-size="13.00">widgets</text>
</g>
<!-- /lib/main.dart -->
<g id="node1" class="node">
<title>/lib/main.dart</title>
<path fill="Lavender" stroke="black" stroke-width="1.3" d="M850,-666.5C850,-666.5 820,-666.5 820,-666.5 814,-666.5 808,-660.5 808,-654.5 808,-654.5 808,-642.5 808,-642.5 808,-636.5 814,-630.5 820,-630.5 820,-630.5 850,-630.5 850,-630.5 856,-630.5 862,-636.5 862,-642.5 862,-642.5 862,-654.5 862,-654.5 862,-660.5 856,-666.5 850,-666.5"/>
<text text-anchor="middle" x="835" y="-643.25" font-family="Arial" font-size="15.00">main</text>
</g>
<!-- /lib/screens/start_screen.dart -->
<g id="node11" class="node">
<title>/lib/screens/start_screen.dart</title>
<path fill="Lavender" stroke="black" stroke-width="1.3" d="M872.62,-587C872.62,-587 797.38,-587 797.38,-587 791.38,-587 785.38,-581 785.38,-575 785.38,-575 785.38,-563 785.38,-563 785.38,-557 791.38,-551 797.38,-551 797.38,-551 872.62,-551 872.62,-551 878.62,-551 884.62,-557 884.62,-563 884.62,-563 884.62,-575 884.62,-575 884.62,-581 878.62,-587 872.62,-587"/>
<text text-anchor="middle" x="835" y="-563.75" font-family="Arial" font-size="15.00">start_screen</text>
</g>
<!-- /lib/main.dart&#45;&gt;/lib/screens/start_screen.dart -->
<g id="edge1" class="edge">
<title>/lib/main.dart&#45;&gt;/lib/screens/start_screen.dart</title>
<path fill="none" stroke="#aabbaa" stroke-width="1.3" stroke-opacity="0.533333" d="M835,-630.3C835,-621.13 835,-609.61 835,-599.09"/>
<polygon fill="#aabbaa" fill-opacity="0.533333" stroke="#aabbaa" stroke-width="1.3" stroke-opacity="0.533333" points="838.5,-599.39 835,-589.39 831.5,-599.39 838.5,-599.39"/>
</g>
<!-- /lib/models/backend_model.dart -->
<g id="node2" class="node">
<title>/lib/models/backend_model.dart</title>
<path fill="Lavender" stroke="black" stroke-width="1.3" d="M1102.5,-140C1102.5,-140 1005.5,-140 1005.5,-140 999.5,-140 993.5,-134 993.5,-128 993.5,-128 993.5,-116 993.5,-116 993.5,-110 999.5,-104 1005.5,-104 1005.5,-104 1102.5,-104 1102.5,-104 1108.5,-104 1114.5,-110 1114.5,-116 1114.5,-116 1114.5,-128 1114.5,-128 1114.5,-134 1108.5,-140 1102.5,-140"/>
<text text-anchor="middle" x="1054" y="-116.75" font-family="Arial" font-size="15.00">backend_model</text>
</g>
<!-- /lib/models/firebase_options.dart -->
<g id="node5" class="node">
<title>/lib/models/firebase_options.dart</title>
<path fill="Lavender" stroke="black" stroke-width="1.3" d="M1102.75,-68C1102.75,-68 1001.25,-68 1001.25,-68 995.25,-68 989.25,-62 989.25,-56 989.25,-56 989.25,-44 989.25,-44 989.25,-38 995.25,-32 1001.25,-32 1001.25,-32 1102.75,-32 1102.75,-32 1108.75,-32 1114.75,-38 1114.75,-44 1114.75,-44 1114.75,-56 1114.75,-56 1114.75,-62 1108.75,-68 1102.75,-68"/>
<text text-anchor="middle" x="1052" y="-44.75" font-family="Arial" font-size="15.00">firebase_options</text>
</g>
<!-- /lib/models/backend_model.dart&#45;&gt;/lib/models/firebase_options.dart -->
<g id="edge2" class="edge">
<title>/lib/models/backend_model.dart&#45;&gt;/lib/models/firebase_options.dart</title>
<path fill="none" stroke="#aabbaa" stroke-width="1.3" stroke-opacity="0.533333" d="M1053.51,-103.7C1053.3,-96.49 1053.06,-87.93 1052.82,-79.82"/>
<polygon fill="#aabbaa" fill-opacity="0.533333" stroke="#aabbaa" stroke-width="1.3" stroke-opacity="0.533333" points="1056.33,-79.97 1052.54,-70.07 1049.33,-80.17 1056.33,-79.97"/>
</g>
<!-- /lib/models/card_model.dart -->
<g id="node3" class="node">
<title>/lib/models/card_model.dart</title>
<path fill="Lavender" stroke="black" stroke-width="1.3" d="M839,-68C839,-68 769,-68 769,-68 763,-68 757,-62 757,-56 757,-56 757,-44 757,-44 757,-38 763,-32 769,-32 769,-32 839,-32 839,-32 845,-32 851,-38 851,-44 851,-44 851,-56 851,-56 851,-62 845,-68 839,-68"/>
<text text-anchor="middle" x="804" y="-44.75" font-family="Arial" font-size="15.00">card_model</text>
</g>
<!-- /lib/models/deck_model.dart -->
<g id="node4" class="node">
<title>/lib/models/deck_model.dart</title>
<path fill="Lavender" stroke="black" stroke-width="1.3" d="M840.12,-140C840.12,-140 767.88,-140 767.88,-140 761.88,-140 755.88,-134 755.88,-128 755.88,-128 755.88,-116 755.88,-116 755.88,-110 761.88,-104 767.88,-104 767.88,-104 840.12,-104 840.12,-104 846.12,-104 852.12,-110 852.12,-116 852.12,-116 852.12,-128 852.12,-128 852.12,-134 846.12,-140 840.12,-140"/>
<text text-anchor="middle" x="804" y="-116.75" font-family="Arial" font-size="15.00">deck_model</text>
</g>
<!-- /lib/models/deck_model.dart&#45;&gt;/lib/models/card_model.dart -->
<g id="edge3" class="edge">
<title>/lib/models/deck_model.dart&#45;&gt;/lib/models/card_model.dart</title>
<path fill="none" stroke="#aabbaa" stroke-width="1.3" stroke-opacity="0.533333" d="M798.08,-103.7C797.34,-96.49 797.09,-87.93 797.34,-79.82"/>
<polygon fill="#aabbaa" fill-opacity="0.533333" stroke="#aabbaa" stroke-width="1.3" stroke-opacity="0.533333" points="800.82,-80.27 797.98,-70.07 793.84,-79.82 800.82,-80.27"/>
</g>
<!-- /lib/models/deck_model.dart&#45;&gt;/lib/models/card_model.dart -->
<g id="edge4" class="edge">
<title>/lib/models/deck_model.dart&#45;&gt;/lib/models/card_model.dart</title>
<path fill="none" stroke="#aabbaa" stroke-width="1.3" stroke-dasharray="5,2" stroke-opacity="0.533333" d="M809.92,-103.7C810.66,-96.49 810.91,-87.93 810.66,-79.82"/>
<polygon fill="#aabbaa" fill-opacity="0.533333" stroke="#aabbaa" stroke-width="1.3" stroke-opacity="0.533333" points="814.16,-79.82 810.02,-70.07 807.18,-80.27 814.16,-79.82"/>
</g>
<!-- /lib/models/game_model.dart -->
<g id="node6" class="node">
<title>/lib/models/game_model.dart</title>
<path fill="Lavender" stroke="black" stroke-width="1.3" d="M846.12,-212C846.12,-212 767.88,-212 767.88,-212 761.88,-212 755.88,-206 755.88,-200 755.88,-200 755.88,-188 755.88,-188 755.88,-182 761.88,-176 767.88,-176 767.88,-176 846.12,-176 846.12,-176 852.12,-176 858.12,-182 858.12,-188 858.12,-188 858.12,-200 858.12,-200 858.12,-206 852.12,-212 846.12,-212"/>
<text text-anchor="middle" x="807" y="-188.75" font-family="Arial" font-size="15.00">game_model</text>
</g>
<!-- /lib/models/game_model.dart&#45;&gt;/lib/models/backend_model.dart -->
<g id="edge5" class="edge">
<title>/lib/models/game_model.dart&#45;&gt;/lib/models/backend_model.dart</title>
<path fill="none" stroke="#aabbaa" stroke-width="1.3" stroke-opacity="0.533333" d="M858.48,-178.41C894.25,-168.27 942.42,-154.62 981.99,-143.41"/>
<polygon fill="#aabbaa" fill-opacity="0.533333" stroke="#aabbaa" stroke-width="1.3" stroke-opacity="0.533333" points="982.88,-146.79 991.55,-140.7 980.97,-140.06 982.88,-146.79"/>
</g>
<!-- /lib/models/game_model.dart&#45;&gt;/lib/models/deck_model.dart -->
<g id="edge6" class="edge">
<title>/lib/models/game_model.dart&#45;&gt;/lib/models/deck_model.dart</title>
<path fill="none" stroke="#aabbaa" stroke-width="1.3" stroke-opacity="0.533333" d="M800.34,-175.7C799.29,-168.49 798.68,-159.93 798.58,-151.82"/>
<polygon fill="#aabbaa" fill-opacity="0.533333" stroke="#aabbaa" stroke-width="1.3" stroke-opacity="0.533333" points="802.07,-152.15 798.79,-142.07 795.07,-151.99 802.07,-152.15"/>
</g>
<!-- /lib/models/game_model.dart&#45;&gt;/lib/models/deck_model.dart -->
<g id="edge8" class="edge">
<title>/lib/models/game_model.dart&#45;&gt;/lib/models/deck_model.dart</title>
<path fill="none" stroke="#aabbaa" stroke-width="1.3" stroke-dasharray="5,2" stroke-opacity="0.533333" d="M812.17,-175.7C812.61,-168.49 812.49,-159.93 811.89,-151.82"/>
<polygon fill="#aabbaa" fill-opacity="0.533333" stroke="#aabbaa" stroke-width="1.3" stroke-opacity="0.533333" points="815.39,-151.63 810.84,-142.06 808.43,-152.38 815.39,-151.63"/>
</g>
<!-- /lib/models/player_model.dart -->
<g id="node8" class="node">
<title>/lib/models/player_model.dart</title>
<path fill="Lavender" stroke="black" stroke-width="1.3" d="M963.62,-140C963.62,-140 882.38,-140 882.38,-140 876.38,-140 870.38,-134 870.38,-128 870.38,-128 870.38,-116 870.38,-116 870.38,-110 876.38,-104 882.38,-104 882.38,-104 963.62,-104 963.62,-104 969.62,-104 975.62,-110 975.62,-116 975.62,-116 975.62,-128 975.62,-128 975.62,-134 969.62,-140 963.62,-140"/>
<text text-anchor="middle" x="923" y="-116.75" font-family="Arial" font-size="15.00">player_model</text>
</g>
<!-- /lib/models/game_model.dart&#45;&gt;/lib/models/player_model.dart -->
<g id="edge7" class="edge">
<title>/lib/models/game_model.dart&#45;&gt;/lib/models/player_model.dart</title>
<path fill="none" stroke="#aabbaa" stroke-width="1.3" stroke-opacity="0.533333" d="M830.04,-175.52C843.91,-166.6 861.93,-155.63 878.45,-146.03"/>
<polygon fill="#aabbaa" fill-opacity="0.533333" stroke="#aabbaa" stroke-width="1.3" stroke-opacity="0.533333" points="879.85,-149.26 886.78,-141.24 876.37,-143.19 879.85,-149.26"/>
</g>
<!-- /lib/models/game_model.dart&#45;&gt;/lib/models/player_model.dart -->
<g id="edge9" class="edge">
<title>/lib/models/game_model.dart&#45;&gt;/lib/models/player_model.dart</title>
<path fill="none" stroke="#aabbaa" stroke-width="1.3" stroke-dasharray="5,2" stroke-opacity="0.533333" d="M841.91,-175.52C857.3,-166.76 875.23,-156.04 890.35,-146.58"/>
<polygon fill="#aabbaa" fill-opacity="0.533333" stroke="#aabbaa" stroke-width="1.3" stroke-opacity="0.533333" points="892.08,-149.63 898.65,-141.31 888.33,-143.71 892.08,-149.63"/>
</g>
<!-- /lib/models/game_over_dialog.dart -->
<g id="node7" class="node">
<title>/lib/models/game_over_dialog.dart</title>
<path fill="Lavender" stroke="black" stroke-width="1.3" d="M1002.12,-212C1002.12,-212 887.88,-212 887.88,-212 881.88,-212 875.88,-206 875.88,-200 875.88,-200 875.88,-188 875.88,-188 875.88,-182 881.88,-176 887.88,-176 887.88,-176 1002.12,-176 1002.12,-176 1008.12,-176 1014.12,-182 1014.12,-188 1014.12,-188 1014.12,-200 1014.12,-200 1014.12,-206 1008.12,-212 1002.12,-212"/>
<text text-anchor="middle" x="945" y="-188.75" font-family="Arial" font-size="15.00">game_over_dialog</text>
</g>
<!-- /lib/models/game_over_dialog.dart&#45;&gt;/lib/models/player_model.dart -->
<g id="edge10" class="edge">
<title>/lib/models/game_over_dialog.dart&#45;&gt;/lib/models/player_model.dart</title>
<path fill="none" stroke="#aabbaa" stroke-width="1.3" stroke-opacity="0.533333" d="M939.56,-175.7C937.24,-168.32 934.48,-159.52 931.88,-151.25"/>
<polygon fill="#aabbaa" fill-opacity="0.533333" stroke="#aabbaa" stroke-width="1.3" stroke-opacity="0.533333" points="935.3,-150.47 928.97,-141.98 928.62,-152.57 935.3,-150.47"/>
</g>
<!-- /lib/models/player_model.dart&#45;&gt;/lib/models/card_model.dart -->
<g id="edge11" class="edge">
<title>/lib/models/player_model.dart&#45;&gt;/lib/models/card_model.dart</title>
<path fill="none" stroke="#aabbaa" stroke-width="1.3" stroke-opacity="0.533333" d="M887.34,-103.52C871.42,-94.68 852.83,-83.84 837.21,-74.3"/>
<polygon fill="#aabbaa" fill-opacity="0.533333" stroke="#aabbaa" stroke-width="1.3" stroke-opacity="0.533333" points="839.45,-71.57 829.11,-69.29 835.77,-77.53 839.45,-71.57"/>
</g>
<!-- /lib/models/player_model.dart&#45;&gt;/lib/models/card_model.dart -->
<g id="edge12" class="edge">
<title>/lib/models/player_model.dart&#45;&gt;/lib/models/card_model.dart</title>
<path fill="none" stroke="#aabbaa" stroke-width="1.3" stroke-dasharray="5,2" stroke-opacity="0.533333" d="M899.21,-103.52C884.95,-94.6 866.46,-83.63 849.54,-74.03"/>
<polygon fill="#aabbaa" fill-opacity="0.533333" stroke="#aabbaa" stroke-width="1.3" stroke-opacity="0.533333" points="851.4,-71.06 840.97,-69.22 847.98,-77.17 851.4,-71.06"/>
</g>
<!-- /lib/screens/game_screen.dart -->
<g id="node9" class="node">
<title>/lib/screens/game_screen.dart</title>
<path fill="Lavender" stroke="black" stroke-width="1.3" d="M853.38,-515C853.38,-515 770.62,-515 770.62,-515 764.62,-515 758.62,-509 758.62,-503 758.62,-503 758.62,-491 758.62,-491 758.62,-485 764.62,-479 770.62,-479 770.62,-479 853.38,-479 853.38,-479 859.38,-479 865.38,-485 865.38,-491 865.38,-491 865.38,-503 865.38,-503 865.38,-509 859.38,-515 853.38,-515"/>
<text text-anchor="middle" x="812" y="-491.75" font-family="Arial" font-size="15.00">game_screen</text>
</g>
<!-- /lib/screens/game_screen.dart&#45;&gt;/lib/models/game_model.dart -->
<g id="edge13" class="edge">
<title>/lib/screens/game_screen.dart&#45;&gt;/lib/models/game_model.dart</title>
<path fill="none" stroke="#aabbaa" stroke-width="1.3" stroke-opacity="0.533333" d="M811.71,-478.52C810.88,-428.73 808.51,-285.84 807.48,-224.05"/>
<polygon fill="#aabbaa" fill-opacity="0.533333" stroke="#aabbaa" stroke-width="1.3" stroke-opacity="0.533333" points="810.98,-224.07 807.32,-214.12 803.98,-224.18 810.98,-224.07"/>
</g>
<!-- /lib/screens/game_screen.dart&#45;&gt;/lib/models/game_over_dialog.dart -->
<g id="edge14" class="edge">
<title>/lib/screens/game_screen.dart&#45;&gt;/lib/models/game_over_dialog.dart</title>
<path fill="none" stroke="#aabbaa" stroke-width="1.3" stroke-opacity="0.533333" d="M865.86,-488.67C876.45,-484.92 886.57,-479.33 894,-471 956.62,-400.86 953.81,-279.64 948.64,-224.2"/>
<polygon fill="#aabbaa" fill-opacity="0.533333" stroke="#aabbaa" stroke-width="1.3" stroke-opacity="0.533333" points="952.14,-224.04 947.62,-214.45 945.18,-224.76 952.14,-224.04"/>
</g>
<!-- /lib/screens/screen.dart -->
<g id="node10" class="node">
<title>/lib/screens/screen.dart</title>
<path fill="Lavender" stroke="black" stroke-width="1.3" d="M872.5,-435.5C872.5,-435.5 835.5,-435.5 835.5,-435.5 829.5,-435.5 823.5,-429.5 823.5,-423.5 823.5,-423.5 823.5,-411.5 823.5,-411.5 823.5,-405.5 829.5,-399.5 835.5,-399.5 835.5,-399.5 872.5,-399.5 872.5,-399.5 878.5,-399.5 884.5,-405.5 884.5,-411.5 884.5,-411.5 884.5,-423.5 884.5,-423.5 884.5,-429.5 878.5,-435.5 872.5,-435.5"/>
<text text-anchor="middle" x="854" y="-412.25" font-family="Arial" font-size="15.00">screen</text>
</g>
<!-- /lib/screens/game_screen.dart&#45;&gt;/lib/screens/screen.dart -->
<g id="edge15" class="edge">
<title>/lib/screens/game_screen.dart&#45;&gt;/lib/screens/screen.dart</title>
<path fill="none" stroke="#aabbaa" stroke-width="1.3" stroke-opacity="0.533333" d="M821.32,-478.8C826.5,-469.23 833.08,-457.1 838.97,-446.23"/>
<polygon fill="#aabbaa" fill-opacity="0.533333" stroke="#aabbaa" stroke-width="1.3" stroke-opacity="0.533333" points="841.93,-448.11 843.62,-437.65 835.78,-444.77 841.93,-448.11"/>
</g>
<!-- /lib/widgets/player_zone_widget.dart -->
<g id="node18" class="node">
<title>/lib/widgets/player_zone_widget.dart</title>
<path fill="Lavender" stroke="black" stroke-width="1.3" d="M364,-435.5C364,-435.5 240,-435.5 240,-435.5 234,-435.5 228,-429.5 228,-423.5 228,-423.5 228,-411.5 228,-411.5 228,-405.5 234,-399.5 240,-399.5 240,-399.5 364,-399.5 364,-399.5 370,-399.5 376,-405.5 376,-411.5 376,-411.5 376,-423.5 376,-423.5 376,-429.5 370,-435.5 364,-435.5"/>
<text text-anchor="middle" x="302" y="-412.25" font-family="Arial" font-size="15.00">player_zone_widget</text>
</g>
<!-- /lib/screens/game_screen.dart&#45;&gt;/lib/widgets/player_zone_widget.dart -->
<g id="edge16" class="edge">
<title>/lib/screens/game_screen.dart&#45;&gt;/lib/widgets/player_zone_widget.dart</title>
<path fill="none" stroke="#aabbaa" stroke-width="1.3" stroke-opacity="0.533333" d="M758.34,-494.36C651.54,-490.88 419.64,-482.14 385,-471 365.96,-464.87 346.94,-453.34 331.92,-442.64"/>
<polygon fill="#aabbaa" fill-opacity="0.533333" stroke="#aabbaa" stroke-width="1.3" stroke-opacity="0.533333" points="334.37,-440.1 324.25,-436.96 330.21,-445.72 334.37,-440.1"/>
</g>
<!-- /lib/screens/start_screen.dart&#45;&gt;/lib/models/backend_model.dart -->
<g id="edge17" class="edge">
<title>/lib/screens/start_screen.dart&#45;&gt;/lib/models/backend_model.dart</title>
<path fill="none" stroke="#aabbaa" stroke-width="1.3" stroke-opacity="0.533333" d="M885.09,-555.71C946.63,-537.25 1043,-495.99 1043,-418.5 1043,-418.5 1043,-418.5 1043,-272.5 1043,-230.6 1047.35,-182.27 1050.58,-152.17"/>
<polygon fill="#aabbaa" fill-opacity="0.533333" stroke="#aabbaa" stroke-width="1.3" stroke-opacity="0.533333" points="1054.04,-152.74 1051.66,-142.42 1047.08,-151.97 1054.04,-152.74"/>
</g>
<!-- /lib/screens/start_screen.dart&#45;&gt;/lib/models/game_model.dart -->
<g id="edge18" class="edge">
<title>/lib/screens/start_screen.dart&#45;&gt;/lib/models/game_model.dart</title>
<path fill="none" stroke="#aabbaa" stroke-width="1.3" stroke-opacity="0.533333" d="M853.29,-550.83C862.72,-541.1 873.74,-528.25 881,-515 902.18,-476.33 904,-462.59 904,-418.5 904,-418.5 904,-418.5 904,-344.5 904,-294.31 865.05,-247.7 836.51,-220.28"/>
<polygon fill="#aabbaa" fill-opacity="0.533333" stroke="#aabbaa" stroke-width="1.3" stroke-opacity="0.533333" points="839.19,-218 829.49,-213.75 834.43,-223.12 839.19,-218"/>
</g>
<!-- /lib/screens/start_screen.dart&#45;&gt;/lib/screens/game_screen.dart -->
<g id="edge19" class="edge">
<title>/lib/screens/start_screen.dart&#45;&gt;/lib/screens/game_screen.dart</title>
<path fill="none" stroke="#aabbaa" stroke-width="1.3" stroke-opacity="0.533333" d="M829.31,-550.7C826.89,-543.32 824,-534.52 821.28,-526.25"/>
<polygon fill="#aabbaa" fill-opacity="0.533333" stroke="#aabbaa" stroke-width="1.3" stroke-opacity="0.533333" points="824.68,-525.38 818.23,-516.97 818.03,-527.57 824.68,-525.38"/>
</g>
<!-- /lib/screens/start_screen.dart&#45;&gt;/lib/screens/screen.dart -->
<g id="edge20" class="edge">
<title>/lib/screens/start_screen.dart&#45;&gt;/lib/screens/screen.dart</title>
<path fill="none" stroke="#aabbaa" stroke-width="1.3" stroke-opacity="0.533333" d="M852.3,-550.52C860.59,-540.9 869.65,-528.24 874,-515 881.37,-492.55 874.97,-466.23 867.51,-446.76"/>
<polygon fill="#aabbaa" fill-opacity="0.533333" stroke="#aabbaa" stroke-width="1.3" stroke-opacity="0.533333" points="870.81,-445.58 863.72,-437.7 864.35,-448.28 870.81,-445.58"/>
</g>
<!-- /lib/widgets/players_in_room_widget.dart -->
<g id="node15" class="node">
<title>/lib/widgets/players_in_room_widget.dart</title>
<path fill="Lavender" stroke="black" stroke-width="1.3" d="M197.62,-435.5C197.62,-435.5 44.38,-435.5 44.38,-435.5 38.38,-435.5 32.38,-429.5 32.38,-423.5 32.38,-423.5 32.38,-411.5 32.38,-411.5 32.38,-405.5 38.38,-399.5 44.38,-399.5 44.38,-399.5 197.62,-399.5 197.62,-399.5 203.62,-399.5 209.62,-405.5 209.62,-411.5 209.62,-411.5 209.62,-423.5 209.62,-423.5 209.62,-429.5 203.62,-435.5 197.62,-435.5"/>
<text text-anchor="middle" x="121" y="-412.25" font-family="Arial" font-size="15.00">players_in_room_widget</text>
</g>
<!-- /lib/screens/start_screen.dart&#45;&gt;/lib/widgets/players_in_room_widget.dart -->
<g id="edge21" class="edge">
<title>/lib/screens/start_screen.dart&#45;&gt;/lib/widgets/players_in_room_widget.dart</title>
<path fill="none" stroke="#aabbaa" stroke-width="1.3" stroke-opacity="0.533333" d="M784.95,-565.78C678.27,-559.84 421.69,-539.07 219,-471 197.69,-463.84 175.48,-452.33 157.6,-441.91"/>
<polygon fill="#aabbaa" fill-opacity="0.533333" stroke="#aabbaa" stroke-width="1.3" stroke-opacity="0.533333" points="159.42,-438.91 149.04,-436.78 155.82,-444.92 159.42,-438.91"/>
</g>
<!-- /lib/widgets/card_piles_widget.dart -->
<g id="node12" class="node">
<title>/lib/widgets/card_piles_widget.dart</title>
<path fill="Lavender" stroke="black" stroke-width="1.3" d="M720.25,-291.5C720.25,-291.5 609.75,-291.5 609.75,-291.5 603.75,-291.5 597.75,-285.5 597.75,-279.5 597.75,-279.5 597.75,-267.5 597.75,-267.5 597.75,-261.5 603.75,-255.5 609.75,-255.5 609.75,-255.5 720.25,-255.5 720.25,-255.5 726.25,-255.5 732.25,-261.5 732.25,-267.5 732.25,-267.5 732.25,-279.5 732.25,-279.5 732.25,-285.5 726.25,-291.5 720.25,-291.5"/>
<text text-anchor="middle" x="665" y="-268.25" font-family="Arial" font-size="15.00">card_piles_widget</text>
</g>
<!-- /lib/widgets/card_piles_widget.dart&#45;&gt;/lib/models/card_model.dart -->
<g id="edge22" class="edge">
<title>/lib/widgets/card_piles_widget.dart&#45;&gt;/lib/models/card_model.dart</title>
<path fill="none" stroke="#aabbaa" stroke-width="1.3" stroke-opacity="0.533333" d="M713.26,-255.13C716.14,-252.88 718.77,-250.35 721,-247.5 761,-196.5 715.9,-160.87 747,-104 752.68,-93.62 761.14,-84.14 769.82,-76.15"/>
<polygon fill="#aabbaa" fill-opacity="0.533333" stroke="#aabbaa" stroke-width="1.3" stroke-opacity="0.533333" points="772.04,-78.86 777.35,-69.69 767.48,-73.55 772.04,-78.86"/>
</g>
<!-- /lib/widgets/card_pile_widget.dart -->
<g id="node13" class="node">
<title>/lib/widgets/card_pile_widget.dart</title>
<path fill="Lavender" stroke="black" stroke-width="1.3" d="M699.5,-212C699.5,-212 596.5,-212 596.5,-212 590.5,-212 584.5,-206 584.5,-200 584.5,-200 584.5,-188 584.5,-188 584.5,-182 590.5,-176 596.5,-176 596.5,-176 699.5,-176 699.5,-176 705.5,-176 711.5,-182 711.5,-188 711.5,-188 711.5,-200 711.5,-200 711.5,-206 705.5,-212 699.5,-212"/>
<text text-anchor="middle" x="648" y="-188.75" font-family="Arial" font-size="15.00">card_pile_widget</text>
</g>
<!-- /lib/widgets/card_piles_widget.dart&#45;&gt;/lib/widgets/card_pile_widget.dart -->
<g id="edge23" class="edge">
<title>/lib/widgets/card_piles_widget.dart&#45;&gt;/lib/widgets/card_pile_widget.dart</title>
<path fill="none" stroke="#aabbaa" stroke-width="1.3" stroke-opacity="0.533333" d="M661.23,-255.3C659.22,-246.13 656.69,-234.61 654.38,-224.09"/>
<polygon fill="#aabbaa" fill-opacity="0.533333" stroke="#aabbaa" stroke-width="1.3" stroke-opacity="0.533333" points="657.8,-223.36 652.24,-214.34 650.97,-224.86 657.8,-223.36"/>
</g>
<!-- /lib/widgets/card_pile_widget.dart&#45;&gt;/lib/models/card_model.dart -->
<g id="edge24" class="edge">
<title>/lib/widgets/card_pile_widget.dart&#45;&gt;/lib/models/card_model.dart</title>
<path fill="none" stroke="#aabbaa" stroke-width="1.3" stroke-opacity="0.533333" d="M661.92,-175.57C677.3,-156.83 703.33,-126.69 729,-104 740.69,-93.67 754.4,-83.49 766.88,-74.86"/>
<polygon fill="#aabbaa" fill-opacity="0.533333" stroke="#aabbaa" stroke-width="1.3" stroke-opacity="0.533333" points="768.62,-77.91 774.93,-69.4 764.69,-72.12 768.62,-77.91"/>
</g>
<!-- /lib/widgets/card_widget.dart -->
<g id="node14" class="node">
<title>/lib/widgets/card_widget.dart</title>
<path fill="Lavender" stroke="black" stroke-width="1.3" d="M639.12,-140C639.12,-140 566.88,-140 566.88,-140 560.88,-140 554.88,-134 554.88,-128 554.88,-128 554.88,-116 554.88,-116 554.88,-110 560.88,-104 566.88,-104 566.88,-104 639.12,-104 639.12,-104 645.12,-104 651.12,-110 651.12,-116 651.12,-116 651.12,-128 651.12,-128 651.12,-134 645.12,-140 639.12,-140"/>
<text text-anchor="middle" x="603" y="-116.75" font-family="Arial" font-size="15.00">card_widget</text>
</g>
<!-- /lib/widgets/card_pile_widget.dart&#45;&gt;/lib/widgets/card_widget.dart -->
<g id="edge25" class="edge">
<title>/lib/widgets/card_pile_widget.dart&#45;&gt;/lib/widgets/card_widget.dart</title>
<path fill="none" stroke="#aabbaa" stroke-width="1.3" stroke-opacity="0.533333" d="M636.88,-175.7C631.92,-167.98 625.96,-158.71 620.43,-150.11"/>
<polygon fill="#aabbaa" fill-opacity="0.533333" stroke="#aabbaa" stroke-width="1.3" stroke-opacity="0.533333" points="623.41,-148.28 615.06,-141.76 617.52,-152.06 623.41,-148.28"/>
</g>
<!-- /lib/widgets/card_widget.dart&#45;&gt;/lib/models/card_model.dart -->
<g id="edge26" class="edge">
<title>/lib/widgets/card_widget.dart&#45;&gt;/lib/models/card_model.dart</title>
<path fill="none" stroke="#aabbaa" stroke-width="1.3" stroke-opacity="0.533333" d="M651.4,-104.14C679.73,-94.28 715.69,-81.76 745.58,-71.35"/>
<polygon fill="#aabbaa" fill-opacity="0.533333" stroke="#aabbaa" stroke-width="1.3" stroke-opacity="0.533333" points="746.56,-74.71 754.86,-68.12 744.26,-68.1 746.56,-74.71"/>
</g>
<!-- /lib/widgets/wiggle_widget.dart -->
<g id="node21" class="node">
<title>/lib/widgets/wiggle_widget.dart</title>
<path fill="Lavender" stroke="black" stroke-width="1.3" d="M645.12,-68C645.12,-68 560.88,-68 560.88,-68 554.88,-68 548.88,-62 548.88,-56 548.88,-56 548.88,-44 548.88,-44 548.88,-38 554.88,-32 560.88,-32 560.88,-32 645.12,-32 645.12,-32 651.12,-32 657.12,-38 657.12,-44 657.12,-44 657.12,-56 657.12,-56 657.12,-62 651.12,-68 645.12,-68"/>
<text text-anchor="middle" x="603" y="-44.75" font-family="Arial" font-size="15.00">wiggle_widget</text>
</g>
<!-- /lib/widgets/card_widget.dart&#45;&gt;/lib/widgets/wiggle_widget.dart -->
<g id="edge27" class="edge">
<title>/lib/widgets/card_widget.dart&#45;&gt;/lib/widgets/wiggle_widget.dart</title>
<path fill="none" stroke="#aabbaa" stroke-width="1.3" stroke-opacity="0.533333" d="M603,-103.7C603,-96.49 603,-87.93 603,-79.82"/>
<polygon fill="#aabbaa" fill-opacity="0.533333" stroke="#aabbaa" stroke-width="1.3" stroke-opacity="0.533333" points="606.5,-80.07 603,-70.07 599.5,-80.07 606.5,-80.07"/>
</g>
<!-- /lib/widgets/player_header_widget.dart -->
<g id="node16" class="node">
<title>/lib/widgets/player_header_widget.dart</title>
<path fill="Lavender" stroke="black" stroke-width="1.3" d="M371.12,-363.5C371.12,-363.5 232.88,-363.5 232.88,-363.5 226.88,-363.5 220.88,-357.5 220.88,-351.5 220.88,-351.5 220.88,-339.5 220.88,-339.5 220.88,-333.5 226.88,-327.5 232.88,-327.5 232.88,-327.5 371.12,-327.5 371.12,-327.5 377.12,-327.5 383.12,-333.5 383.12,-339.5 383.12,-339.5 383.12,-351.5 383.12,-351.5 383.12,-357.5 377.12,-363.5 371.12,-363.5"/>
<text text-anchor="middle" x="302" y="-340.25" font-family="Arial" font-size="15.00">player_header_widget</text>
</g>
<!-- /lib/widgets/player_zone_cta_widget.dart -->
<g id="node17" class="node">
<title>/lib/widgets/player_zone_cta_widget.dart</title>
<path fill="Lavender" stroke="black" stroke-width="1.3" d="M655.25,-363.5C655.25,-363.5 502.75,-363.5 502.75,-363.5 496.75,-363.5 490.75,-357.5 490.75,-351.5 490.75,-351.5 490.75,-339.5 490.75,-339.5 490.75,-333.5 496.75,-327.5 502.75,-327.5 502.75,-327.5 655.25,-327.5 655.25,-327.5 661.25,-327.5 667.25,-333.5 667.25,-339.5 667.25,-339.5 667.25,-351.5 667.25,-351.5 667.25,-357.5 661.25,-363.5 655.25,-363.5"/>
<text text-anchor="middle" x="579" y="-340.25" font-family="Arial" font-size="15.00">player_zone_cta_widget</text>
</g>
<!-- /lib/widgets/player_zone_cta_widget.dart&#45;&gt;/lib/models/game_model.dart -->
<g id="edge28" class="edge">
<title>/lib/widgets/player_zone_cta_widget.dart&#45;&gt;/lib/models/game_model.dart</title>
<path fill="none" stroke="#aabbaa" stroke-width="1.3" stroke-opacity="0.533333" d="M666.88,-327.1C692.47,-319.15 719.34,-307.75 741,-291.5 753.86,-281.86 776.07,-247.21 791.14,-222.19"/>
<polygon fill="#aabbaa" fill-opacity="0.533333" stroke="#aabbaa" stroke-width="1.3" stroke-opacity="0.533333" points="793.99,-224.23 796.1,-213.85 787.98,-220.65 793.99,-224.23"/>
</g>
<!-- /lib/widgets/player_zone_cta_widget.dart&#45;&gt;/lib/widgets/card_piles_widget.dart -->
<g id="edge30" class="edge">
<title>/lib/widgets/player_zone_cta_widget.dart&#45;&gt;/lib/widgets/card_piles_widget.dart</title>
<path fill="none" stroke="#aabbaa" stroke-width="1.3" stroke-opacity="0.533333" d="M600.26,-327.2C610.6,-318.78 623.21,-308.52 634.54,-299.29"/>
<polygon fill="#aabbaa" fill-opacity="0.533333" stroke="#aabbaa" stroke-width="1.3" stroke-opacity="0.533333" points="636.62,-302.12 642.16,-293.09 632.2,-296.69 636.62,-302.12"/>
</g>
<!-- /lib/widgets/player_zone_cta_widget.dart&#45;&gt;/lib/widgets/card_pile_widget.dart -->
<g id="edge29" class="edge">
<title>/lib/widgets/player_zone_cta_widget.dart&#45;&gt;/lib/widgets/card_pile_widget.dart</title>
<path fill="none" stroke="#aabbaa" stroke-width="1.3" stroke-opacity="0.533333" d="M577.72,-327.21C577.05,-308.59 578.08,-278.55 589,-255.5 595.33,-242.14 605.82,-229.92 616.21,-220.02"/>
<polygon fill="#aabbaa" fill-opacity="0.533333" stroke="#aabbaa" stroke-width="1.3" stroke-opacity="0.533333" points="618.27,-222.87 623.36,-213.58 613.59,-217.67 618.27,-222.87"/>
</g>
<!-- /lib/widgets/player_zone_cta_widget.dart&#45;&gt;/lib/widgets/card_widget.dart -->
<g id="edge31" class="edge">
<title>/lib/widgets/player_zone_cta_widget.dart&#45;&gt;/lib/widgets/card_widget.dart</title>
<path fill="none" stroke="#aabbaa" stroke-width="1.3" stroke-opacity="0.533333" d="M575.85,-327.44C570.79,-296.65 562.68,-229.97 576,-176 578.12,-167.41 581.84,-158.64 585.86,-150.77"/>
<polygon fill="#aabbaa" fill-opacity="0.533333" stroke="#aabbaa" stroke-width="1.3" stroke-opacity="0.533333" points="588.89,-152.52 590.65,-142.07 582.76,-149.14 588.89,-152.52"/>
</g>
<!-- /lib/widgets/player_zone_widget.dart&#45;&gt;/lib/models/game_model.dart -->
<g id="edge32" class="edge">
<title>/lib/widgets/player_zone_widget.dart&#45;&gt;/lib/models/game_model.dart</title>
<path fill="none" stroke="#aabbaa" stroke-width="1.3" stroke-opacity="0.533333" d="M354.3,-399.05C364.4,-396.17 374.96,-393.48 385,-391.5 512.49,-366.42 556.44,-414.37 676,-363.5 721.25,-344.25 729.94,-330.41 760,-291.5 776.09,-270.67 788.74,-243.44 796.84,-223.22"/>
<polygon fill="#aabbaa" fill-opacity="0.533333" stroke="#aabbaa" stroke-width="1.3" stroke-opacity="0.533333" points="800.04,-224.65 800.37,-214.06 793.51,-222.13 800.04,-224.65"/>
</g>
<!-- /lib/widgets/player_zone_widget.dart&#45;&gt;/lib/widgets/card_widget.dart -->
<g id="edge33" class="edge">
<title>/lib/widgets/player_zone_widget.dart&#45;&gt;/lib/widgets/card_widget.dart</title>
<path fill="none" stroke="#aabbaa" stroke-width="1.3" stroke-opacity="0.533333" d="M337.46,-399.03C354.76,-389.68 375.38,-377.26 392,-363.5 472.92,-296.52 549.44,-197.25 583.89,-149.95"/>
<polygon fill="#aabbaa" fill-opacity="0.533333" stroke="#aabbaa" stroke-width="1.3" stroke-opacity="0.533333" points="586.61,-152.16 589.63,-142.01 580.94,-148.06 586.61,-152.16"/>
</g>
<!-- /lib/widgets/player_zone_widget.dart&#45;&gt;/lib/widgets/player_header_widget.dart -->
<g id="edge34" class="edge">
<title>/lib/widgets/player_zone_widget.dart&#45;&gt;/lib/widgets/player_header_widget.dart</title>
<path fill="none" stroke="#aabbaa" stroke-width="1.3" stroke-opacity="0.533333" d="M302,-399.2C302,-391.99 302,-383.43 302,-375.32"/>
<polygon fill="#aabbaa" fill-opacity="0.533333" stroke="#aabbaa" stroke-width="1.3" stroke-opacity="0.533333" points="305.5,-375.57 302,-365.57 298.5,-375.57 305.5,-375.57"/>
</g>
<!-- /lib/widgets/player_zone_widget.dart&#45;&gt;/lib/widgets/player_zone_cta_widget.dart -->
<g id="edge35" class="edge">
<title>/lib/widgets/player_zone_widget.dart&#45;&gt;/lib/widgets/player_zone_cta_widget.dart</title>
<path fill="none" stroke="#aabbaa" stroke-width="1.3" stroke-opacity="0.533333" d="M358.12,-399.06C367.08,-396.43 376.27,-393.82 385,-391.5 418.17,-382.67 454.8,-373.92 487.21,-366.51"/>
<polygon fill="#aabbaa" fill-opacity="0.533333" stroke="#aabbaa" stroke-width="1.3" stroke-opacity="0.533333" points="487.59,-370.02 496.56,-364.39 486.04,-363.19 487.59,-370.02"/>
</g>
<!-- /lib/widgets/table_surface_painter.dart -->
<g id="node19" class="node">
<title>/lib/widgets/table_surface_painter.dart</title>
<path fill="Lavender" stroke="black" stroke-width="1.3" d="M542,-435.5C542,-435.5 406,-435.5 406,-435.5 400,-435.5 394,-429.5 394,-423.5 394,-423.5 394,-411.5 394,-411.5 394,-405.5 400,-399.5 406,-399.5 406,-399.5 542,-399.5 542,-399.5 548,-399.5 554,-405.5 554,-411.5 554,-411.5 554,-423.5 554,-423.5 554,-429.5 548,-435.5 542,-435.5"/>
<text text-anchor="middle" x="474" y="-412.25" font-family="Arial" font-size="15.00">table_surface_painter</text>
</g>
<!-- /lib/widgets/text_edit_with_submit.dart -->
<g id="node20" class="node">
<title>/lib/widgets/text_edit_with_submit.dart</title>
<path fill="Lavender" stroke="black" stroke-width="1.3" d="M720,-435.5C720,-435.5 584,-435.5 584,-435.5 578,-435.5 572,-429.5 572,-423.5 572,-423.5 572,-411.5 572,-411.5 572,-405.5 578,-399.5 584,-399.5 584,-399.5 720,-399.5 720,-399.5 726,-399.5 732,-405.5 732,-411.5 732,-411.5 732,-423.5 732,-423.5 732,-429.5 726,-435.5 720,-435.5"/>
<text text-anchor="middle" x="652" y="-412.25" font-family="Arial" font-size="15.00">text_edit_with_submit</text>
</g>
</g>
</svg>
