<?xml version="1.0" encoding="UTF-8" standalone="no"?>
<!DOCTYPE svg PUBLIC "-//W3C//DTD SVG 1.1//EN"
 "http://www.w3.org/Graphics/SVG/1.1/DTD/svg11.dtd">
<!-- Generated by graphviz version 12.1.2 (20240928.0832)
 -->
<!-- Pages: 1 -->
<svg width="820pt" height="670pt"
 viewBox="0.00 0.00 820.00 670.00" xmlns="http://www.w3.org/2000/svg" xmlns:xlink="http://www.w3.org/1999/xlink">
<g id="graph0" class="graph" transform="scale(1 1) rotate(0) translate(4 666)">
<polygon fill="white" stroke="none" points="-4,4 -4,-666 816,-666 816,4 -4,4"/>
<g id="clust1" class="cluster">
<title>cluster~</title>
<path fill="none" stroke="lightgray" stroke-width="2.6" d="M20,-8C20,-8 792,-8 792,-8 798,-8 804,-14 804,-20 804,-20 804,-642 804,-642 804,-648 798,-654 792,-654 792,-654 20,-654 20,-654 14,-654 8,-648 8,-642 8,-642 8,-20 8,-20 8,-14 14,-8 20,-8"/>
<text text-anchor="middle" x="406" y="-637.65" font-family="Arial Black" font-size="13.00">cards</text>
</g>
<g id="clust2" class="cluster">
<title>cluster~/test</title>
<path fill="none" stroke="lightgray" stroke-width="2.6" d="M43,-548C43,-548 127,-548 127,-548 133,-548 139,-554 139,-560 139,-560 139,-611 139,-611 139,-617 133,-623 127,-623 127,-623 43,-623 43,-623 37,-623 31,-617 31,-611 31,-611 31,-560 31,-560 31,-554 37,-548 43,-548"/>
<text text-anchor="middle" x="85" y="-606.65" font-family="Arial Black" font-size="13.00">test</text>
</g>
<g id="clust3" class="cluster">
<title>cluster~/lib</title>
<path fill="none" stroke="lightgray" stroke-width="2.6" d="M28,-16C28,-16 784,-16 784,-16 790,-16 796,-22 796,-28 796,-28 796,-528 796,-528 796,-534 790,-540 784,-540 784,-540 28,-540 28,-540 22,-540 16,-534 16,-528 16,-528 16,-28 16,-28 16,-22 22,-16 28,-16"/>
<text text-anchor="middle" x="406" y="-523.65" font-family="Arial Black" font-size="13.00">lib</text>
</g>
<g id="clust4" class="cluster">
<title>cluster~/lib/models</title>
<path fill="none" stroke="lightgray" stroke-width="2.6" d="M328,-168C328,-168 422,-168 422,-168 428,-168 434,-174 434,-180 434,-180 434,-303 434,-303 434,-309 428,-315 422,-315 422,-315 328,-315 328,-315 322,-315 316,-309 316,-303 316,-303 316,-180 316,-180 316,-174 322,-168 328,-168"/>
<text text-anchor="middle" x="375" y="-298.65" font-family="Arial Black" font-size="13.00">models</text>
</g>
<g id="clust5" class="cluster">
<title>cluster~/lib/screens</title>
<path fill="none" stroke="lightgray" stroke-width="2.6" d="M36,-240C36,-240 296,-240 296,-240 302,-240 308,-246 308,-252 308,-252 308,-453 308,-453 308,-459 302,-465 296,-465 296,-465 36,-465 36,-465 30,-465 24,-459 24,-453 24,-453 24,-252 24,-252 24,-246 30,-240 36,-240"/>
<text text-anchor="middle" x="166" y="-448.65" font-family="Arial Black" font-size="13.00">screens</text>
</g>
<g id="clust6" class="cluster">
<title>cluster~/lib/widgets</title>
<path fill="none" stroke="lightgray" stroke-width="2.6" d="M479,-24C479,-24 776,-24 776,-24 782,-24 788,-30 788,-36 788,-36 788,-378 788,-378 788,-384 782,-390 776,-390 776,-390 479,-390 479,-390 473,-390 467,-384 467,-378 467,-378 467,-36 467,-36 467,-30 473,-24 479,-24"/>
<text text-anchor="middle" x="627.5" y="-373.65" font-family="Arial Black" font-size="13.00">widgets</text>
</g>
<!-- /test/widget_test.dart -->
<g id="node1" class="node">
<title>/test/widget_test.dart</title>
<path fill="Lavender" stroke="black" stroke-width="1.3" d="M118.88,-592C118.88,-592 51.12,-592 51.12,-592 45.12,-592 39.12,-586 39.12,-580 39.12,-580 39.12,-568 39.12,-568 39.12,-562 45.12,-556 51.12,-556 51.12,-556 118.88,-556 118.88,-556 124.88,-556 130.88,-562 130.88,-568 130.88,-568 130.88,-580 130.88,-580 130.88,-586 124.88,-592 118.88,-592"/>
<text text-anchor="middle" x="85" y="-568.75" font-family="Arial" font-size="15.00">widget_test</text>
</g>
<!-- /lib/main.dart -->
<g id="node8" class="node">
<title>/lib/main.dart</title>
<path fill="Lavender" stroke="black" stroke-width="1.3" d="M100,-509C100,-509 70,-509 70,-509 64,-509 58,-503 58,-497 58,-497 58,-485 58,-485 58,-479 64,-473 70,-473 70,-473 100,-473 100,-473 106,-473 112,-479 112,-485 112,-485 112,-497 112,-497 112,-503 106,-509 100,-509"/>
<text text-anchor="middle" x="85" y="-485.75" font-family="Arial" font-size="15.00">main</text>
</g>
<!-- /test/widget_test.dart&#45;&gt;/lib/main.dart -->
<g id="edge1" class="edge">
<title>/test/widget_test.dart&#45;&gt;/lib/main.dart</title>
<path fill="none" stroke="#aabbaa" stroke-width="1.3" stroke-opacity="0.533333" d="M85,-555.82C85,-545.8 85,-532.88 85,-521.29"/>
<polygon fill="#aabbaa" fill-opacity="0.533333" stroke="#aabbaa" stroke-width="1.3" stroke-opacity="0.533333" points="88.5,-521.4 85,-511.4 81.5,-521.4 88.5,-521.4"/>
</g>
<!-- /lib/models/game_model.dart -->
<g id="node2" class="node">
<title>/lib/models/game_model.dart</title>
<path fill="Lavender" stroke="black" stroke-width="1.3" d="M414.12,-284C414.12,-284 335.88,-284 335.88,-284 329.88,-284 323.88,-278 323.88,-272 323.88,-272 323.88,-260 323.88,-260 323.88,-254 329.88,-248 335.88,-248 335.88,-248 414.12,-248 414.12,-248 420.12,-248 426.12,-254 426.12,-260 426.12,-260 426.12,-272 426.12,-272 426.12,-278 420.12,-284 414.12,-284"/>
<text text-anchor="middle" x="375" y="-260.75" font-family="Arial" font-size="15.00">game_model</text>
</g>
<!-- /lib/models/player.dart -->
<g id="node3" class="node">
<title>/lib/models/player.dart</title>
<path fill="Lavender" stroke="black" stroke-width="1.3" d="M414.25,-212C414.25,-212 381.75,-212 381.75,-212 375.75,-212 369.75,-206 369.75,-200 369.75,-200 369.75,-188 369.75,-188 369.75,-182 375.75,-176 381.75,-176 381.75,-176 414.25,-176 414.25,-176 420.25,-176 426.25,-182 426.25,-188 426.25,-188 426.25,-200 426.25,-200 426.25,-206 420.25,-212 414.25,-212"/>
<text text-anchor="middle" x="398" y="-188.75" font-family="Arial" font-size="15.00">player</text>
</g>
<!-- /lib/models/game_model.dart&#45;&gt;/lib/models/player.dart -->
<g id="edge2" class="edge">
<title>/lib/models/game_model.dart&#45;&gt;/lib/models/player.dart</title>
<path fill="none" stroke="#aabbaa" stroke-width="1.3" stroke-opacity="0.533333" d="M380.69,-247.7C383.11,-240.32 386,-231.52 388.72,-223.25"/>
<polygon fill="#aabbaa" fill-opacity="0.533333" stroke="#aabbaa" stroke-width="1.3" stroke-opacity="0.533333" points="391.97,-224.57 391.77,-213.97 385.32,-222.38 391.97,-224.57"/>
</g>
<!-- /lib/screens/game_over_screen.dart -->
<g id="node5" class="node">
<title>/lib/screens/game_over_screen.dart</title>
<path fill="Lavender" stroke="black" stroke-width="1.3" d="M288.12,-434C288.12,-434 167.88,-434 167.88,-434 161.88,-434 155.88,-428 155.88,-422 155.88,-422 155.88,-410 155.88,-410 155.88,-404 161.88,-398 167.88,-398 167.88,-398 288.12,-398 288.12,-398 294.12,-398 300.12,-404 300.12,-410 300.12,-410 300.12,-422 300.12,-422 300.12,-428 294.12,-434 288.12,-434"/>
<text text-anchor="middle" x="228" y="-410.75" font-family="Arial" font-size="15.00">game_over_screen</text>
</g>
<!-- /lib/models/game_model.dart&#45;&gt;/lib/screens/game_over_screen.dart -->
<g id="edge3" class="edge">
<title>/lib/models/game_model.dart&#45;&gt;/lib/screens/game_over_screen.dart</title>
<path fill="none" stroke="#aabbaa" stroke-width="1.3" stroke-opacity="0.533333" d="M368.87,-284.29C358.64,-310.76 335.63,-361.27 300,-390 299.45,-390.44 298.9,-390.88 298.33,-391.3"/>
<polygon fill="#aabbaa" fill-opacity="0.533333" stroke="#aabbaa" stroke-width="1.3" stroke-opacity="0.533333" points="296.78,-388.14 290.28,-396.51 300.58,-394.02 296.78,-388.14"/>
</g>
<!-- /lib/widgets/playing_card.dart -->
<g id="node12" class="node">
<title>/lib/widgets/playing_card.dart</title>
<path fill="Lavender" stroke="black" stroke-width="1.3" d="M589,-68C589,-68 513,-68 513,-68 507,-68 501,-62 501,-56 501,-56 501,-44 501,-44 501,-38 507,-32 513,-32 513,-32 589,-32 589,-32 595,-32 601,-38 601,-44 601,-44 601,-56 601,-56 601,-62 595,-68 589,-68"/>
<text text-anchor="middle" x="551" y="-44.75" font-family="Arial" font-size="15.00">playing_card</text>
</g>
<!-- /lib/models/game_model.dart&#45;&gt;/lib/widgets/playing_card.dart -->
<g id="edge4" class="edge">
<title>/lib/models/game_model.dart&#45;&gt;/lib/widgets/playing_card.dart</title>
<path fill="none" stroke="#aabbaa" stroke-width="1.3" stroke-opacity="0.533333" d="M367.06,-247.75C359.04,-227.73 349.38,-194.12 361,-168 384.13,-116.01 443.27,-85.16 489.48,-68.31"/>
<polygon fill="#aabbaa" fill-opacity="0.533333" stroke="#aabbaa" stroke-width="1.3" stroke-opacity="0.533333" points="490.47,-71.67 498.76,-65.07 488.17,-65.06 490.47,-71.67"/>
</g>
<!-- /lib/models/player.dart&#45;&gt;/lib/widgets/playing_card.dart -->
<g id="edge5" class="edge">
<title>/lib/models/player.dart&#45;&gt;/lib/widgets/playing_card.dart</title>
<path fill="none" stroke="#aabbaa" stroke-width="1.3" stroke-opacity="0.533333" d="M408.68,-175.82C421.09,-156.76 442.97,-125.81 467,-104 479.11,-93.01 493.77,-82.89 507.44,-74.5"/>
<polygon fill="#aabbaa" fill-opacity="0.533333" stroke="#aabbaa" stroke-width="1.3" stroke-opacity="0.533333" points="509.13,-77.56 515.94,-69.45 505.56,-71.55 509.13,-77.56"/>
</g>
<!-- /lib/screens/game_screen.dart -->
<g id="node4" class="node">
<title>/lib/screens/game_screen.dart</title>
<path fill="Lavender" stroke="black" stroke-width="1.3" d="M243.38,-359C243.38,-359 160.62,-359 160.62,-359 154.62,-359 148.62,-353 148.62,-347 148.62,-347 148.62,-335 148.62,-335 148.62,-329 154.62,-323 160.62,-323 160.62,-323 243.38,-323 243.38,-323 249.38,-323 255.38,-329 255.38,-335 255.38,-335 255.38,-347 255.38,-347 255.38,-353 249.38,-359 243.38,-359"/>
<text text-anchor="middle" x="202" y="-335.75" font-family="Arial" font-size="15.00">game_screen</text>
</g>
<!-- /lib/screens/game_screen.dart&#45;&gt;/lib/models/game_model.dart -->
<g id="edge8" class="edge">
<title>/lib/screens/game_screen.dart&#45;&gt;/lib/models/game_model.dart</title>
<path fill="none" stroke="#aabbaa" stroke-width="1.3" stroke-opacity="0.533333" d="M255.77,-330C278.36,-325.35 301.75,-319.79 312,-315 324.59,-309.12 337.06,-300.4 347.54,-292"/>
<polygon fill="#aabbaa" fill-opacity="0.533333" stroke="#aabbaa" stroke-width="1.3" stroke-opacity="0.533333" points="349.61,-294.83 355.04,-285.73 345.12,-289.45 349.61,-294.83"/>
</g>
<!-- /lib/screens/screen.dart -->
<g id="node7" class="node">
<title>/lib/screens/screen.dart</title>
<path fill="Lavender" stroke="black" stroke-width="1.3" d="M172.5,-284C172.5,-284 135.5,-284 135.5,-284 129.5,-284 123.5,-278 123.5,-272 123.5,-272 123.5,-260 123.5,-260 123.5,-254 129.5,-248 135.5,-248 135.5,-248 172.5,-248 172.5,-248 178.5,-248 184.5,-254 184.5,-260 184.5,-260 184.5,-272 184.5,-272 184.5,-278 178.5,-284 172.5,-284"/>
<text text-anchor="middle" x="154" y="-260.75" font-family="Arial" font-size="15.00">screen</text>
</g>
<!-- /lib/screens/game_screen.dart&#45;&gt;/lib/screens/screen.dart -->
<g id="edge6" class="edge">
<title>/lib/screens/game_screen.dart&#45;&gt;/lib/screens/screen.dart</title>
<path fill="none" stroke="#aabbaa" stroke-width="1.3" stroke-opacity="0.533333" d="M190.62,-322.7C185.05,-314.22 178.2,-303.8 171.93,-294.28"/>
<polygon fill="#aabbaa" fill-opacity="0.533333" stroke="#aabbaa" stroke-width="1.3" stroke-opacity="0.533333" points="174.96,-292.51 166.54,-286.07 169.11,-296.35 174.96,-292.51"/>
</g>
<!-- /lib/widgets/player_zone.dart -->
<g id="node11" class="node">
<title>/lib/widgets/player_zone.dart</title>
<path fill="Lavender" stroke="black" stroke-width="1.3" d="M684.5,-359C684.5,-359 611.5,-359 611.5,-359 605.5,-359 599.5,-353 599.5,-347 599.5,-347 599.5,-335 599.5,-335 599.5,-329 605.5,-323 611.5,-323 611.5,-323 684.5,-323 684.5,-323 690.5,-323 696.5,-329 696.5,-335 696.5,-335 696.5,-347 696.5,-347 696.5,-353 690.5,-359 684.5,-359"/>
<text text-anchor="middle" x="648" y="-335.75" font-family="Arial" font-size="15.00">player_zone</text>
</g>
<!-- /lib/screens/game_screen.dart&#45;&gt;/lib/widgets/player_zone.dart -->
<g id="edge7" class="edge">
<title>/lib/screens/game_screen.dart&#45;&gt;/lib/widgets/player_zone.dart</title>
<path fill="none" stroke="#aabbaa" stroke-width="1.3" stroke-opacity="0.533333" d="M255.85,-354.77C310.02,-367.87 396.17,-386.63 472,-394 496.11,-396.34 557.31,-399.03 581,-394 597.88,-390.42 613.25,-379.15 625.01,-367.91"/>
<polygon fill="#aabbaa" fill-opacity="0.533333" stroke="#aabbaa" stroke-width="1.3" stroke-opacity="0.533333" points="627.4,-370.47 631.88,-360.87 622.39,-365.58 627.4,-370.47"/>
</g>
<!-- /lib/screens/game_over_screen.dart&#45;&gt;/lib/models/player.dart -->
<g id="edge9" class="edge">
<title>/lib/screens/game_over_screen.dart&#45;&gt;/lib/models/player.dart</title>
<path fill="none" stroke="#aabbaa" stroke-width="1.3" stroke-opacity="0.533333" d="M300.46,-402.82C349.28,-390.2 409.3,-364.95 435,-315 450.25,-285.36 446.24,-271.38 435,-240 432.64,-233.41 428.85,-227.1 424.58,-221.39"/>
<polygon fill="#aabbaa" fill-opacity="0.533333" stroke="#aabbaa" stroke-width="1.3" stroke-opacity="0.533333" points="427.46,-219.37 418.37,-213.93 422.08,-223.85 427.46,-219.37"/>
</g>
<!-- /lib/screens/setup_screen.dart -->
<g id="node6" class="node">
<title>/lib/screens/setup_screen.dart</title>
<path fill="Lavender" stroke="black" stroke-width="1.3" d="M126,-434C126,-434 44,-434 44,-434 38,-434 32,-428 32,-422 32,-422 32,-410 32,-410 32,-404 38,-398 44,-398 44,-398 126,-398 126,-398 132,-398 138,-404 138,-410 138,-410 138,-422 138,-422 138,-428 132,-434 126,-434"/>
<text text-anchor="middle" x="85" y="-410.75" font-family="Arial" font-size="15.00">setup_screen</text>
</g>
<!-- /lib/screens/setup_screen.dart&#45;&gt;/lib/models/game_model.dart -->
<g id="edge10" class="edge">
<title>/lib/screens/setup_screen.dart&#45;&gt;/lib/models/game_model.dart</title>
<path fill="none" stroke="#aabbaa" stroke-width="1.3" stroke-opacity="0.533333" d="M138.28,-399.67C141.22,-399.05 144.14,-398.49 147,-398 172.69,-393.64 242.1,-404.13 264,-390 292.4,-371.67 277.26,-348.01 300,-323 304.31,-318.26 306.78,-318.72 312,-315 322.33,-307.63 333.39,-299.34 343.32,-291.75"/>
<polygon fill="#aabbaa" fill-opacity="0.533333" stroke="#aabbaa" stroke-width="1.3" stroke-opacity="0.533333" points="345.46,-294.53 351.25,-285.65 341.19,-288.98 345.46,-294.53"/>
</g>
<!-- /lib/screens/setup_screen.dart&#45;&gt;/lib/screens/game_screen.dart -->
<g id="edge11" class="edge">
<title>/lib/screens/setup_screen.dart&#45;&gt;/lib/screens/game_screen.dart</title>
<path fill="none" stroke="#aabbaa" stroke-width="1.3" stroke-opacity="0.533333" d="M113.02,-397.51C128.36,-387.94 147.58,-375.95 164.23,-365.57"/>
<polygon fill="#aabbaa" fill-opacity="0.533333" stroke="#aabbaa" stroke-width="1.3" stroke-opacity="0.533333" points="165.9,-368.65 172.53,-360.38 162.2,-362.71 165.9,-368.65"/>
</g>
<!-- /lib/screens/setup_screen.dart&#45;&gt;/lib/screens/screen.dart -->
<g id="edge12" class="edge">
<title>/lib/screens/setup_screen.dart&#45;&gt;/lib/screens/screen.dart</title>
<path fill="none" stroke="#aabbaa" stroke-width="1.3" stroke-opacity="0.533333" d="M93.05,-397.73C104.84,-372.45 126.93,-325.07 141.03,-294.83"/>
<polygon fill="#aabbaa" fill-opacity="0.533333" stroke="#aabbaa" stroke-width="1.3" stroke-opacity="0.533333" points="144.12,-296.48 145.17,-285.94 137.77,-293.52 144.12,-296.48"/>
</g>
<!-- /lib/widgets/text_url.dart -->
<g id="node16" class="node">
<title>/lib/widgets/text_url.dart</title>
<path fill="Lavender" stroke="black" stroke-width="1.3" d="M767.75,-359C767.75,-359 726.25,-359 726.25,-359 720.25,-359 714.25,-353 714.25,-347 714.25,-347 714.25,-335 714.25,-335 714.25,-329 720.25,-323 726.25,-323 726.25,-323 767.75,-323 767.75,-323 773.75,-323 779.75,-329 779.75,-335 779.75,-335 779.75,-347 779.75,-347 779.75,-353 773.75,-359 767.75,-359"/>
<text text-anchor="middle" x="747" y="-335.75" font-family="Arial" font-size="15.00">text_url</text>
</g>
<!-- /lib/screens/setup_screen.dart&#45;&gt;/lib/widgets/text_url.dart -->
<g id="edge13" class="edge">
<title>/lib/screens/setup_screen.dart&#45;&gt;/lib/widgets/text_url.dart</title>
<path fill="none" stroke="#aabbaa" stroke-width="1.3" stroke-opacity="0.533333" d="M138.25,-399.48C141.2,-398.91 144.13,-398.41 147,-398 177.75,-393.64 677.89,-403.2 706,-390 715.84,-385.38 724.21,-377.13 730.77,-368.76"/>
<polygon fill="#aabbaa" fill-opacity="0.533333" stroke="#aabbaa" stroke-width="1.3" stroke-opacity="0.533333" points="733.56,-370.88 736.49,-360.7 727.85,-366.84 733.56,-370.88"/>
</g>
<!-- /lib/main.dart&#45;&gt;/lib/screens/setup_screen.dart -->
<g id="edge14" class="edge">
<title>/lib/main.dart&#45;&gt;/lib/screens/setup_screen.dart</title>
<path fill="none" stroke="#aabbaa" stroke-width="1.3" stroke-opacity="0.533333" d="M85,-472.7C85,-464.76 85,-455.12 85,-446.11"/>
<polygon fill="#aabbaa" fill-opacity="0.533333" stroke="#aabbaa" stroke-width="1.3" stroke-opacity="0.533333" points="88.5,-446.4 85,-436.4 81.5,-446.4 88.5,-446.4"/>
</g>
<!-- /lib/widgets/playing_card_widget.dart -->
<g id="node9" class="node">
<title>/lib/widgets/playing_card_widget.dart</title>
<path fill="Lavender" stroke="black" stroke-width="1.3" d="M614.5,-140C614.5,-140 487.5,-140 487.5,-140 481.5,-140 475.5,-134 475.5,-128 475.5,-128 475.5,-116 475.5,-116 475.5,-110 481.5,-104 487.5,-104 487.5,-104 614.5,-104 614.5,-104 620.5,-104 626.5,-110 626.5,-116 626.5,-116 626.5,-128 626.5,-128 626.5,-134 620.5,-140 614.5,-140"/>
<text text-anchor="middle" x="551" y="-116.75" font-family="Arial" font-size="15.00">playing_card_widget</text>
</g>
<!-- /lib/widgets/playing_card_widget.dart&#45;&gt;/lib/widgets/playing_card.dart -->
<g id="edge15" class="edge">
<title>/lib/widgets/playing_card_widget.dart&#45;&gt;/lib/widgets/playing_card.dart</title>
<path fill="none" stroke="#aabbaa" stroke-width="1.3" stroke-opacity="0.533333" d="M551,-103.7C551,-96.49 551,-87.93 551,-79.82"/>
<polygon fill="#aabbaa" fill-opacity="0.533333" stroke="#aabbaa" stroke-width="1.3" stroke-opacity="0.533333" points="554.5,-80.07 551,-70.07 547.5,-80.07 554.5,-80.07"/>
</g>
<!-- /lib/widgets/table_surface.dart -->
<g id="node10" class="node">
<title>/lib/widgets/table_surface.dart</title>
<path fill="Lavender" stroke="black" stroke-width="1.3" d="M569,-359C569,-359 487,-359 487,-359 481,-359 475,-353 475,-347 475,-347 475,-335 475,-335 475,-329 481,-323 487,-323 487,-323 569,-323 569,-323 575,-323 581,-329 581,-335 581,-335 581,-347 581,-347 581,-353 575,-359 569,-359"/>
<text text-anchor="middle" x="528" y="-335.75" font-family="Arial" font-size="15.00">table_surface</text>
</g>
<!-- /lib/widgets/player_zone.dart&#45;&gt;/lib/models/game_model.dart -->
<g id="edge16" class="edge">
<title>/lib/widgets/player_zone.dart&#45;&gt;/lib/models/game_model.dart</title>
<path fill="none" stroke="#aabbaa" stroke-width="1.3" stroke-opacity="0.533333" d="M599.13,-324.84C596.06,-324.15 593,-323.52 590,-323 532.98,-313.02 515.51,-331.43 460,-315 442.04,-309.69 423.75,-300.02 408.76,-290.74"/>
<polygon fill="#aabbaa" fill-opacity="0.533333" stroke="#aabbaa" stroke-width="1.3" stroke-opacity="0.533333" points="410.91,-287.96 400.61,-285.5 407.13,-293.85 410.91,-287.96"/>
</g>
<!-- /lib/widgets/player_zone.dart&#45;&gt;/lib/models/player.dart -->
<g id="edge17" class="edge">
<title>/lib/widgets/player_zone.dart&#45;&gt;/lib/models/player.dart</title>
<path fill="none" stroke="#aabbaa" stroke-width="1.3" stroke-opacity="0.533333" d="M599.13,-324.88C596.05,-324.18 592.99,-323.54 590,-323 565.88,-318.64 499.78,-329.47 480,-315 451.02,-293.81 470.83,-269.24 450,-240 444.9,-232.85 438.44,-226.09 431.82,-220.09"/>
<polygon fill="#aabbaa" fill-opacity="0.533333" stroke="#aabbaa" stroke-width="1.3" stroke-opacity="0.533333" points="434.19,-217.51 424.31,-213.69 429.65,-222.84 434.19,-217.51"/>
</g>
<!-- /lib/widgets/player_zone.dart&#45;&gt;/lib/widgets/playing_card_widget.dart -->
<g id="edge21" class="edge">
<title>/lib/widgets/player_zone.dart&#45;&gt;/lib/widgets/playing_card_widget.dart</title>
<path fill="none" stroke="#aabbaa" stroke-width="1.3" stroke-opacity="0.533333" d="M599.12,-324.92C596.05,-324.21 592.99,-323.56 590,-323 579.59,-321.06 502.17,-322.8 495,-315 452.01,-268.24 499.05,-190.28 529.4,-149.58"/>
<polygon fill="#aabbaa" fill-opacity="0.533333" stroke="#aabbaa" stroke-width="1.3" stroke-opacity="0.533333" points="532.01,-151.93 535.32,-141.87 526.45,-147.67 532.01,-151.93"/>
</g>
<!-- /lib/widgets/player_zone.dart&#45;&gt;/lib/widgets/playing_card.dart -->
<g id="edge20" class="edge">
<title>/lib/widgets/player_zone.dart&#45;&gt;/lib/widgets/playing_card.dart</title>
<path fill="none" stroke="#aabbaa" stroke-width="1.3" stroke-opacity="0.533333" d="M650.09,-322.57C655.52,-274.06 668.03,-138.75 643,-104 634.07,-91.6 621.28,-81.68 608.07,-73.93"/>
<polygon fill="#aabbaa" fill-opacity="0.533333" stroke="#aabbaa" stroke-width="1.3" stroke-opacity="0.533333" points="610.12,-71.06 599.66,-69.36 606.78,-77.21 610.12,-71.06"/>
</g>
<!-- /lib/widgets/player_zone_cta.dart -->
<g id="node14" class="node">
<title>/lib/widgets/player_zone_cta.dart</title>
<path fill="Lavender" stroke="black" stroke-width="1.3" d="M617.75,-284C617.75,-284 516.25,-284 516.25,-284 510.25,-284 504.25,-278 504.25,-272 504.25,-272 504.25,-260 504.25,-260 504.25,-254 510.25,-248 516.25,-248 516.25,-248 617.75,-248 617.75,-248 623.75,-248 629.75,-254 629.75,-260 629.75,-260 629.75,-272 629.75,-272 629.75,-278 623.75,-284 617.75,-284"/>
<text text-anchor="middle" x="567" y="-260.75" font-family="Arial" font-size="15.00">player_zone_cta</text>
</g>
<!-- /lib/widgets/player_zone.dart&#45;&gt;/lib/widgets/player_zone_cta.dart -->
<g id="edge19" class="edge">
<title>/lib/widgets/player_zone.dart&#45;&gt;/lib/widgets/player_zone_cta.dart</title>
<path fill="none" stroke="#aabbaa" stroke-width="1.3" stroke-opacity="0.533333" d="M628.8,-322.7C618.69,-313.58 606.1,-302.24 594.92,-292.16"/>
<polygon fill="#aabbaa" fill-opacity="0.533333" stroke="#aabbaa" stroke-width="1.3" stroke-opacity="0.533333" points="597.57,-289.84 587.8,-285.75 592.89,-295.04 597.57,-289.84"/>
</g>
<!-- /lib/widgets/player_header.dart -->
<g id="node15" class="node">
<title>/lib/widgets/player_header.dart</title>
<path fill="Lavender" stroke="black" stroke-width="1.3" d="M767.62,-284C767.62,-284 680.38,-284 680.38,-284 674.38,-284 668.38,-278 668.38,-272 668.38,-272 668.38,-260 668.38,-260 668.38,-254 674.38,-248 680.38,-248 680.38,-248 767.62,-248 767.62,-248 773.62,-248 779.62,-254 779.62,-260 779.62,-260 779.62,-272 779.62,-272 779.62,-278 773.62,-284 767.62,-284"/>
<text text-anchor="middle" x="724" y="-260.75" font-family="Arial" font-size="15.00">player_header</text>
</g>
<!-- /lib/widgets/player_zone.dart&#45;&gt;/lib/widgets/player_header.dart -->
<g id="edge18" class="edge">
<title>/lib/widgets/player_zone.dart&#45;&gt;/lib/widgets/player_header.dart</title>
<path fill="none" stroke="#aabbaa" stroke-width="1.3" stroke-opacity="0.533333" d="M666.01,-322.7C675.41,-313.67 687.08,-302.46 697.49,-292.46"/>
<polygon fill="#aabbaa" fill-opacity="0.533333" stroke="#aabbaa" stroke-width="1.3" stroke-opacity="0.533333" points="699.65,-295.24 704.44,-285.79 694.8,-290.19 699.65,-295.24"/>
</g>
<!-- /lib/widgets/card_piles.dart -->
<g id="node13" class="node">
<title>/lib/widgets/card_piles.dart</title>
<path fill="Lavender" stroke="black" stroke-width="1.3" d="M634.75,-212C634.75,-212 575.25,-212 575.25,-212 569.25,-212 563.25,-206 563.25,-200 563.25,-200 563.25,-188 563.25,-188 563.25,-182 569.25,-176 575.25,-176 575.25,-176 634.75,-176 634.75,-176 640.75,-176 646.75,-182 646.75,-188 646.75,-188 646.75,-200 646.75,-200 646.75,-206 640.75,-212 634.75,-212"/>
<text text-anchor="middle" x="605" y="-188.75" font-family="Arial" font-size="15.00">card_piles</text>
</g>
<!-- /lib/widgets/card_piles.dart&#45;&gt;/lib/widgets/playing_card_widget.dart -->
<g id="edge23" class="edge">
<title>/lib/widgets/card_piles.dart&#45;&gt;/lib/widgets/playing_card_widget.dart</title>
<path fill="none" stroke="#aabbaa" stroke-width="1.3" stroke-opacity="0.533333" d="M591.65,-175.7C585.57,-167.81 578.23,-158.3 571.48,-149.55"/>
<polygon fill="#aabbaa" fill-opacity="0.533333" stroke="#aabbaa" stroke-width="1.3" stroke-opacity="0.533333" points="574.28,-147.44 565.4,-141.66 568.73,-151.72 574.28,-147.44"/>
</g>
<!-- /lib/widgets/card_piles.dart&#45;&gt;/lib/widgets/playing_card.dart -->
<g id="edge22" class="edge">
<title>/lib/widgets/card_piles.dart&#45;&gt;/lib/widgets/playing_card.dart</title>
<path fill="none" stroke="#aabbaa" stroke-width="1.3" stroke-opacity="0.533333" d="M619.42,-175.53C632.83,-157.02 648.94,-127.32 636,-104 629.21,-91.76 618.29,-81.98 606.51,-74.32"/>
<polygon fill="#aabbaa" fill-opacity="0.533333" stroke="#aabbaa" stroke-width="1.3" stroke-opacity="0.533333" points="608.56,-71.47 598.17,-69.38 604.99,-77.49 608.56,-71.47"/>
</g>
<!-- /lib/widgets/player_zone_cta.dart&#45;&gt;/lib/models/game_model.dart -->
<g id="edge24" class="edge">
<title>/lib/widgets/player_zone_cta.dart&#45;&gt;/lib/models/game_model.dart</title>
<path fill="none" stroke="#aabbaa" stroke-width="1.3" stroke-opacity="0.533333" d="M503.83,-266C481.94,-266 460.06,-266 438.17,-266"/>
<polygon fill="#aabbaa" fill-opacity="0.533333" stroke="#aabbaa" stroke-width="1.3" stroke-opacity="0.533333" points="438.34,-262.5 428.34,-266 438.34,-269.5 438.34,-262.5"/>
</g>
<!-- /lib/widgets/player_zone_cta.dart&#45;&gt;/lib/widgets/playing_card_widget.dart -->
<g id="edge26" class="edge">
<title>/lib/widgets/player_zone_cta.dart&#45;&gt;/lib/widgets/playing_card_widget.dart</title>
<path fill="none" stroke="#aabbaa" stroke-width="1.3" stroke-opacity="0.533333" d="M561.74,-247.51C558.91,-237.26 555.66,-224.01 554,-212 551.28,-192.25 550.53,-169.82 550.47,-152.42"/>
<polygon fill="#aabbaa" fill-opacity="0.533333" stroke="#aabbaa" stroke-width="1.3" stroke-opacity="0.533333" points="553.97,-152.47 550.52,-142.45 546.97,-152.44 553.97,-152.47"/>
</g>
<!-- /lib/widgets/player_zone_cta.dart&#45;&gt;/lib/widgets/card_piles.dart -->
<g id="edge25" class="edge">
<title>/lib/widgets/player_zone_cta.dart&#45;&gt;/lib/widgets/card_piles.dart</title>
<path fill="none" stroke="#aabbaa" stroke-width="1.3" stroke-opacity="0.533333" d="M576.39,-247.7C580.53,-240.07 585.5,-230.92 590.13,-222.4"/>
<polygon fill="#aabbaa" fill-opacity="0.533333" stroke="#aabbaa" stroke-width="1.3" stroke-opacity="0.533333" points="593.08,-224.29 594.78,-213.83 586.93,-220.95 593.08,-224.29"/>
</g>
</g>
</svg>
