<?xml version="1.0" encoding="UTF-8" standalone="no"?>
<!DOCTYPE svg PUBLIC "-//W3C//DTD SVG 1.1//EN"
 "http://www.w3.org/Graphics/SVG/1.1/DTD/svg11.dtd">
<!-- Generated by graphviz version 12.1.2 (20240928.0832)
 -->
<!-- Pages: 1 -->
<svg width="520pt" height="747pt"
 viewBox="0.00 0.00 520.00 747.00" xmlns="http://www.w3.org/2000/svg" xmlns:xlink="http://www.w3.org/1999/xlink">
<g id="graph0" class="graph" transform="scale(1 1) rotate(0) translate(4 743)">
<polygon fill="white" stroke="none" points="-4,4 -4,-743 516,-743 516,4 -4,4"/>
<g id="clust1" class="cluster">
<title>cluster~</title>
<path fill="none" stroke="lightgray" stroke-width="2.6" d="M20,-8C20,-8 492,-8 492,-8 498,-8 504,-14 504,-20 504,-20 504,-719 504,-719 504,-725 498,-731 492,-731 492,-731 20,-731 20,-731 14,-731 8,-725 8,-719 8,-719 8,-20 8,-20 8,-14 14,-8 20,-8"/>
<text text-anchor="middle" x="256" y="-714.65" font-family="Arial Black" font-size="13.00">cards</text>
</g>
<g id="clust2" class="cluster">
<title>cluster~/test</title>
<path fill="none" stroke="lightgray" stroke-width="2.6" d="M205,-625C205,-625 289,-625 289,-625 295,-625 301,-631 301,-637 301,-637 301,-688 301,-688 301,-694 295,-700 289,-700 289,-700 205,-700 205,-700 199,-700 193,-694 193,-688 193,-688 193,-637 193,-637 193,-631 199,-625 205,-625"/>
<text text-anchor="middle" x="247" y="-683.65" font-family="Arial Black" font-size="13.00">test</text>
</g>
<g id="clust3" class="cluster">
<title>cluster~/lib</title>
<path fill="none" stroke="lightgray" stroke-width="2.6" d="M28,-16C28,-16 484,-16 484,-16 490,-16 496,-22 496,-28 496,-28 496,-605 496,-605 496,-611 490,-617 484,-617 484,-617 28,-617 28,-617 22,-617 16,-611 16,-605 16,-605 16,-28 16,-28 16,-22 22,-16 28,-16"/>
<text text-anchor="middle" x="256" y="-600.65" font-family="Arial Black" font-size="13.00">lib</text>
</g>
<g id="clust4" class="cluster">
<title>cluster~/lib/screens</title>
<path fill="none" stroke="lightgray" stroke-width="2.6" d="M36,-395C36,-395 296,-395 296,-395 302,-395 308,-401 308,-407 308,-407 308,-530 308,-530 308,-536 302,-542 296,-542 296,-542 36,-542 36,-542 30,-542 24,-536 24,-530 24,-530 24,-407 24,-407 24,-401 30,-395 36,-395"/>
<text text-anchor="middle" x="166" y="-525.65" font-family="Arial Black" font-size="13.00">screens</text>
</g>
<g id="clust5" class="cluster">
<title>cluster~/lib/widgets</title>
<path fill="none" stroke="lightgray" stroke-width="2.6" d="M183,-24C183,-24 476,-24 476,-24 482,-24 488,-30 488,-36 488,-36 488,-375 488,-375 488,-381 482,-387 476,-387 476,-387 183,-387 183,-387 177,-387 171,-381 171,-375 171,-375 171,-36 171,-36 171,-30 177,-24 183,-24"/>
<text text-anchor="middle" x="329.5" y="-370.65" font-family="Arial Black" font-size="13.00">widgets</text>
</g>
<!-- /test/widget_test.dart -->
<g id="node1" class="node">
<title>/test/widget_test.dart</title>
<path fill="Lavender" stroke="black" stroke-width="1.3" d="M280.88,-669C280.88,-669 213.12,-669 213.12,-669 207.12,-669 201.12,-663 201.12,-657 201.12,-657 201.12,-645 201.12,-645 201.12,-639 207.12,-633 213.12,-633 213.12,-633 280.88,-633 280.88,-633 286.88,-633 292.88,-639 292.88,-645 292.88,-645 292.88,-657 292.88,-657 292.88,-663 286.88,-669 280.88,-669"/>
<text text-anchor="middle" x="247" y="-645.75" font-family="Arial" font-size="15.00">widget_test</text>
</g>
<!-- /lib/main.dart -->
<g id="node6" class="node">
<title>/lib/main.dart</title>
<path fill="Lavender" stroke="black" stroke-width="1.3" d="M262,-586C262,-586 232,-586 232,-586 226,-586 220,-580 220,-574 220,-574 220,-562 220,-562 220,-556 226,-550 232,-550 232,-550 262,-550 262,-550 268,-550 274,-556 274,-562 274,-562 274,-574 274,-574 274,-580 268,-586 262,-586"/>
<text text-anchor="middle" x="247" y="-562.75" font-family="Arial" font-size="15.00">main</text>
</g>
<!-- /test/widget_test.dart&#45;&gt;/lib/main.dart -->
<g id="edge1" class="edge">
<title>/test/widget_test.dart&#45;&gt;/lib/main.dart</title>
<path fill="none" stroke="#aabbaa" stroke-width="1.3" stroke-opacity="0.533333" d="M247,-632.82C247,-622.8 247,-609.88 247,-598.29"/>
<polygon fill="#aabbaa" fill-opacity="0.533333" stroke="#aabbaa" stroke-width="1.3" stroke-opacity="0.533333" points="250.5,-598.4 247,-588.4 243.5,-598.4 250.5,-598.4"/>
</g>
<!-- /lib/game_model.dart -->
<g id="node2" class="node">
<title>/lib/game_model.dart</title>
<path fill="Lavender" stroke="black" stroke-width="1.3" d="M134.12,-284C134.12,-284 55.88,-284 55.88,-284 49.88,-284 43.88,-278 43.88,-272 43.88,-272 43.88,-260 43.88,-260 43.88,-254 49.88,-248 55.88,-248 55.88,-248 134.12,-248 134.12,-248 140.12,-248 146.12,-254 146.12,-260 146.12,-260 146.12,-272 146.12,-272 146.12,-278 140.12,-284 134.12,-284"/>
<text text-anchor="middle" x="95" y="-260.75" font-family="Arial" font-size="15.00">game_model</text>
</g>
<!-- /lib/screens/game_over_screen.dart -->
<g id="node4" class="node">
<title>/lib/screens/game_over_screen.dart</title>
<path fill="Lavender" stroke="black" stroke-width="1.3" d="M164.12,-511C164.12,-511 43.88,-511 43.88,-511 37.88,-511 31.88,-505 31.88,-499 31.88,-499 31.88,-487 31.88,-487 31.88,-481 37.88,-475 43.88,-475 43.88,-475 164.12,-475 164.12,-475 170.12,-475 176.12,-481 176.12,-487 176.12,-487 176.12,-499 176.12,-499 176.12,-505 170.12,-511 164.12,-511"/>
<text text-anchor="middle" x="104" y="-487.75" font-family="Arial" font-size="15.00">game_over_screen</text>
</g>
<!-- /lib/game_model.dart&#45;&gt;/lib/screens/game_over_screen.dart -->
<g id="edge3" class="edge">
<title>/lib/game_model.dart&#45;&gt;/lib/screens/game_over_screen.dart</title>
<path fill="none" stroke="#aabbaa" stroke-width="1.3" stroke-opacity="0.533333" d="M95.69,-284.34C97.23,-322.76 100.94,-415.39 102.83,-462.87"/>
<polygon fill="#aabbaa" fill-opacity="0.533333" stroke="#aabbaa" stroke-width="1.3" stroke-opacity="0.533333" points="99.33,-462.9 103.23,-472.75 106.33,-462.62 99.33,-462.9"/>
</g>
<!-- /lib/player.dart -->
<g id="node7" class="node">
<title>/lib/player.dart</title>
<path fill="Lavender" stroke="black" stroke-width="1.3" d="M122.25,-212C122.25,-212 89.75,-212 89.75,-212 83.75,-212 77.75,-206 77.75,-200 77.75,-200 77.75,-188 77.75,-188 77.75,-182 83.75,-176 89.75,-176 89.75,-176 122.25,-176 122.25,-176 128.25,-176 134.25,-182 134.25,-188 134.25,-188 134.25,-200 134.25,-200 134.25,-206 128.25,-212 122.25,-212"/>
<text text-anchor="middle" x="106" y="-188.75" font-family="Arial" font-size="15.00">player</text>
</g>
<!-- /lib/game_model.dart&#45;&gt;/lib/player.dart -->
<g id="edge2" class="edge">
<title>/lib/game_model.dart&#45;&gt;/lib/player.dart</title>
<path fill="none" stroke="#aabbaa" stroke-width="1.3" stroke-opacity="0.533333" d="M97.72,-247.7C98.85,-240.49 100.2,-231.93 101.47,-223.82"/>
<polygon fill="#aabbaa" fill-opacity="0.533333" stroke="#aabbaa" stroke-width="1.3" stroke-opacity="0.533333" points="104.91,-224.47 103.01,-214.05 98,-223.38 104.91,-224.47"/>
</g>
<!-- /lib/widgets/playing_card.dart -->
<g id="node11" class="node">
<title>/lib/widgets/playing_card.dart</title>
<path fill="Lavender" stroke="black" stroke-width="1.3" d="M267,-68C267,-68 191,-68 191,-68 185,-68 179,-62 179,-56 179,-56 179,-44 179,-44 179,-38 185,-32 191,-32 191,-32 267,-32 267,-32 273,-32 279,-38 279,-44 279,-44 279,-56 279,-56 279,-62 273,-68 267,-68"/>
<text text-anchor="middle" x="229" y="-44.75" font-family="Arial" font-size="15.00">playing_card</text>
</g>
<!-- /lib/game_model.dart&#45;&gt;/lib/widgets/playing_card.dart -->
<g id="edge4" class="edge">
<title>/lib/game_model.dart&#45;&gt;/lib/widgets/playing_card.dart</title>
<path fill="none" stroke="#aabbaa" stroke-width="1.3" stroke-opacity="0.533333" d="M112.6,-247.77C122.23,-237.83 134,-224.79 143,-212 173.84,-168.19 201.45,-112.02 216.65,-78.93"/>
<polygon fill="#aabbaa" fill-opacity="0.533333" stroke="#aabbaa" stroke-width="1.3" stroke-opacity="0.533333" points="219.74,-80.59 220.68,-70.04 213.37,-77.7 219.74,-80.59"/>
</g>
<!-- /lib/screens/game_screen.dart -->
<g id="node3" class="node">
<title>/lib/screens/game_screen.dart</title>
<path fill="Lavender" stroke="black" stroke-width="1.3" d="M288.38,-439C288.38,-439 205.62,-439 205.62,-439 199.62,-439 193.62,-433 193.62,-427 193.62,-427 193.62,-415 193.62,-415 193.62,-409 199.62,-403 205.62,-403 205.62,-403 288.38,-403 288.38,-403 294.38,-403 300.38,-409 300.38,-415 300.38,-415 300.38,-427 300.38,-427 300.38,-433 294.38,-439 288.38,-439"/>
<text text-anchor="middle" x="247" y="-415.75" font-family="Arial" font-size="15.00">game_screen</text>
</g>
<!-- /lib/screens/game_screen.dart&#45;&gt;/lib/game_model.dart -->
<g id="edge7" class="edge">
<title>/lib/screens/game_screen.dart&#45;&gt;/lib/game_model.dart</title>
<path fill="none" stroke="#aabbaa" stroke-width="1.3" stroke-opacity="0.533333" d="M208.23,-402.51C202.16,-399.91 195.93,-397.33 190,-395 179.93,-391.05 175.39,-393.84 167,-387 140.11,-365.09 144.85,-349.73 127,-320 122,-311.67 116.54,-302.62 111.57,-294.39"/>
<polygon fill="#aabbaa" fill-opacity="0.533333" stroke="#aabbaa" stroke-width="1.3" stroke-opacity="0.533333" points="114.58,-292.6 106.42,-285.86 108.59,-296.23 114.58,-292.6"/>
</g>
<!-- /lib/widgets/player_zone.dart -->
<g id="node10" class="node">
<title>/lib/widgets/player_zone.dart</title>
<path fill="Lavender" stroke="black" stroke-width="1.3" d="M388.5,-356C388.5,-356 315.5,-356 315.5,-356 309.5,-356 303.5,-350 303.5,-344 303.5,-344 303.5,-332 303.5,-332 303.5,-326 309.5,-320 315.5,-320 315.5,-320 388.5,-320 388.5,-320 394.5,-320 400.5,-326 400.5,-332 400.5,-332 400.5,-344 400.5,-344 400.5,-350 394.5,-356 388.5,-356"/>
<text text-anchor="middle" x="352" y="-332.75" font-family="Arial" font-size="15.00">player_zone</text>
</g>
<!-- /lib/screens/game_screen.dart&#45;&gt;/lib/widgets/player_zone.dart -->
<g id="edge5" class="edge">
<title>/lib/screens/game_screen.dart&#45;&gt;/lib/widgets/player_zone.dart</title>
<path fill="none" stroke="#aabbaa" stroke-width="1.3" stroke-opacity="0.533333" d="M272.63,-402.55C279.64,-397.63 287.18,-392.2 294,-387 303.56,-379.7 313.75,-371.45 322.87,-363.87"/>
<polygon fill="#aabbaa" fill-opacity="0.533333" stroke="#aabbaa" stroke-width="1.3" stroke-opacity="0.533333" points="325,-366.65 330.41,-357.55 320.5,-361.29 325,-366.65"/>
</g>
<!-- /lib/widgets/screen.dart -->
<g id="node14" class="node">
<title>/lib/widgets/screen.dart</title>
<path fill="Lavender" stroke="black" stroke-width="1.3" d="M467.5,-356C467.5,-356 430.5,-356 430.5,-356 424.5,-356 418.5,-350 418.5,-344 418.5,-344 418.5,-332 418.5,-332 418.5,-326 424.5,-320 430.5,-320 430.5,-320 467.5,-320 467.5,-320 473.5,-320 479.5,-326 479.5,-332 479.5,-332 479.5,-344 479.5,-344 479.5,-350 473.5,-356 467.5,-356"/>
<text text-anchor="middle" x="449" y="-332.75" font-family="Arial" font-size="15.00">screen</text>
</g>
<!-- /lib/screens/game_screen.dart&#45;&gt;/lib/widgets/screen.dart -->
<g id="edge6" class="edge">
<title>/lib/screens/game_screen.dart&#45;&gt;/lib/widgets/screen.dart</title>
<path fill="none" stroke="#aabbaa" stroke-width="1.3" stroke-opacity="0.533333" d="M300.86,-410C346.47,-401.38 405.21,-389.9 410,-387 418.75,-381.7 426.39,-373.7 432.53,-365.74"/>
<polygon fill="#aabbaa" fill-opacity="0.533333" stroke="#aabbaa" stroke-width="1.3" stroke-opacity="0.533333" points="435.2,-368.03 438.12,-357.85 429.49,-363.99 435.2,-368.03"/>
</g>
<!-- /lib/screens/game_over_screen.dart&#45;&gt;/lib/player.dart -->
<g id="edge8" class="edge">
<title>/lib/screens/game_over_screen.dart&#45;&gt;/lib/player.dart</title>
<path fill="none" stroke="#aabbaa" stroke-width="1.3" stroke-opacity="0.533333" d="M90.76,-474.62C61.15,-433.45 -4.86,-327.49 35,-248 42.02,-234 54.68,-222.76 67.39,-214.29"/>
<polygon fill="#aabbaa" fill-opacity="0.533333" stroke="#aabbaa" stroke-width="1.3" stroke-opacity="0.533333" points="69.11,-217.34 75.81,-209.12 65.45,-211.37 69.11,-217.34"/>
</g>
<!-- /lib/screens/setup_screen.dart -->
<g id="node5" class="node">
<title>/lib/screens/setup_screen.dart</title>
<path fill="Lavender" stroke="black" stroke-width="1.3" d="M288,-511C288,-511 206,-511 206,-511 200,-511 194,-505 194,-499 194,-499 194,-487 194,-487 194,-481 200,-475 206,-475 206,-475 288,-475 288,-475 294,-475 300,-481 300,-487 300,-487 300,-499 300,-499 300,-505 294,-511 288,-511"/>
<text text-anchor="middle" x="247" y="-487.75" font-family="Arial" font-size="15.00">setup_screen</text>
</g>
<!-- /lib/screens/setup_screen.dart&#45;&gt;/lib/game_model.dart -->
<g id="edge9" class="edge">
<title>/lib/screens/setup_screen.dart&#45;&gt;/lib/game_model.dart</title>
<path fill="none" stroke="#aabbaa" stroke-width="1.3" stroke-opacity="0.533333" d="M218.54,-474.53C190.99,-456.13 150.09,-424.64 127,-387 117.69,-371.82 107.06,-326.24 100.7,-295.83"/>
<polygon fill="#aabbaa" fill-opacity="0.533333" stroke="#aabbaa" stroke-width="1.3" stroke-opacity="0.533333" points="104.16,-295.27 98.73,-286.17 97.3,-296.67 104.16,-295.27"/>
</g>
<!-- /lib/screens/setup_screen.dart&#45;&gt;/lib/screens/game_screen.dart -->
<g id="edge10" class="edge">
<title>/lib/screens/setup_screen.dart&#45;&gt;/lib/screens/game_screen.dart</title>
<path fill="none" stroke="#aabbaa" stroke-width="1.3" stroke-opacity="0.533333" d="M247,-474.7C247,-467.49 247,-458.93 247,-450.82"/>
<polygon fill="#aabbaa" fill-opacity="0.533333" stroke="#aabbaa" stroke-width="1.3" stroke-opacity="0.533333" points="250.5,-451.07 247,-441.07 243.5,-451.07 250.5,-451.07"/>
</g>
<!-- /lib/screens/setup_screen.dart&#45;&gt;/lib/widgets/screen.dart -->
<g id="edge11" class="edge">
<title>/lib/screens/setup_screen.dart&#45;&gt;/lib/widgets/screen.dart</title>
<path fill="none" stroke="#aabbaa" stroke-width="1.3" stroke-opacity="0.533333" d="M280.36,-474.64C314.89,-455.76 369.38,-423.38 410,-387 417.2,-380.55 424.16,-372.71 430.15,-365.24"/>
<polygon fill="#aabbaa" fill-opacity="0.533333" stroke="#aabbaa" stroke-width="1.3" stroke-opacity="0.533333" points="432.65,-367.74 435.98,-357.68 427.1,-363.47 432.65,-367.74"/>
</g>
<!-- /lib/main.dart&#45;&gt;/lib/screens/setup_screen.dart -->
<g id="edge12" class="edge">
<title>/lib/main.dart&#45;&gt;/lib/screens/setup_screen.dart</title>
<path fill="none" stroke="#aabbaa" stroke-width="1.3" stroke-opacity="0.533333" d="M247,-549.7C247,-541.76 247,-532.12 247,-523.11"/>
<polygon fill="#aabbaa" fill-opacity="0.533333" stroke="#aabbaa" stroke-width="1.3" stroke-opacity="0.533333" points="250.5,-523.4 247,-513.4 243.5,-523.4 250.5,-523.4"/>
</g>
<!-- /lib/player.dart&#45;&gt;/lib/widgets/playing_card.dart -->
<g id="edge13" class="edge">
<title>/lib/player.dart&#45;&gt;/lib/widgets/playing_card.dart</title>
<path fill="none" stroke="#aabbaa" stroke-width="1.3" stroke-opacity="0.533333" d="M116.78,-175.78C128.75,-157.22 149.16,-127.23 170,-104 178.71,-94.29 189.05,-84.51 198.63,-76.04"/>
<polygon fill="#aabbaa" fill-opacity="0.533333" stroke="#aabbaa" stroke-width="1.3" stroke-opacity="0.533333" points="200.73,-78.85 206,-69.65 196.15,-73.55 200.73,-78.85"/>
</g>
<!-- /lib/widgets/playing_card_widget.dart -->
<g id="node8" class="node">
<title>/lib/widgets/playing_card_widget.dart</title>
<path fill="Lavender" stroke="black" stroke-width="1.3" d="M379.5,-140C379.5,-140 252.5,-140 252.5,-140 246.5,-140 240.5,-134 240.5,-128 240.5,-128 240.5,-116 240.5,-116 240.5,-110 246.5,-104 252.5,-104 252.5,-104 379.5,-104 379.5,-104 385.5,-104 391.5,-110 391.5,-116 391.5,-116 391.5,-128 391.5,-128 391.5,-134 385.5,-140 379.5,-140"/>
<text text-anchor="middle" x="316" y="-116.75" font-family="Arial" font-size="15.00">playing_card_widget</text>
</g>
<!-- /lib/widgets/playing_card_widget.dart&#45;&gt;/lib/widgets/playing_card.dart -->
<g id="edge14" class="edge">
<title>/lib/widgets/playing_card_widget.dart&#45;&gt;/lib/widgets/playing_card.dart</title>
<path fill="none" stroke="#aabbaa" stroke-width="1.3" stroke-opacity="0.533333" d="M294.49,-103.7C284.04,-95.28 271.28,-85.02 259.81,-75.79"/>
<polygon fill="#aabbaa" fill-opacity="0.533333" stroke="#aabbaa" stroke-width="1.3" stroke-opacity="0.533333" points="262.08,-73.12 252.09,-69.58 257.69,-78.58 262.08,-73.12"/>
</g>
<!-- /lib/widgets/table_surface.dart -->
<g id="node9" class="node">
<title>/lib/widgets/table_surface.dart</title>
<path fill="Lavender" stroke="black" stroke-width="1.3" d="M273,-356C273,-356 191,-356 191,-356 185,-356 179,-350 179,-344 179,-344 179,-332 179,-332 179,-326 185,-320 191,-320 191,-320 273,-320 273,-320 279,-320 285,-326 285,-332 285,-332 285,-344 285,-344 285,-350 279,-356 273,-356"/>
<text text-anchor="middle" x="232" y="-332.75" font-family="Arial" font-size="15.00">table_surface</text>
</g>
<!-- /lib/widgets/player_zone.dart&#45;&gt;/lib/game_model.dart -->
<g id="edge15" class="edge">
<title>/lib/widgets/player_zone.dart&#45;&gt;/lib/game_model.dart</title>
<path fill="none" stroke="#aabbaa" stroke-width="1.3" stroke-opacity="0.533333" d="M303.29,-322.63C300.15,-321.73 297.03,-320.85 294,-320 268.5,-312.87 205.88,-296.25 157.64,-283.5"/>
<polygon fill="#aabbaa" fill-opacity="0.533333" stroke="#aabbaa" stroke-width="1.3" stroke-opacity="0.533333" points="158.81,-280.19 148.25,-281.02 157.02,-286.96 158.81,-280.19"/>
</g>
<!-- /lib/widgets/player_zone.dart&#45;&gt;/lib/player.dart -->
<g id="edge16" class="edge">
<title>/lib/widgets/player_zone.dart&#45;&gt;/lib/player.dart</title>
<path fill="none" stroke="#aabbaa" stroke-width="1.3" stroke-opacity="0.533333" d="M303.17,-322.62C251.23,-307.28 176.3,-285.05 175,-284 160.74,-272.53 165.73,-262.83 155,-248 148.2,-238.61 139.91,-229.08 132.1,-220.74"/>
<polygon fill="#aabbaa" fill-opacity="0.533333" stroke="#aabbaa" stroke-width="1.3" stroke-opacity="0.533333" points="134.73,-218.42 125.28,-213.64 129.69,-223.28 134.73,-218.42"/>
</g>
<!-- /lib/widgets/player_zone.dart&#45;&gt;/lib/widgets/playing_card_widget.dart -->
<g id="edge20" class="edge">
<title>/lib/widgets/player_zone.dart&#45;&gt;/lib/widgets/playing_card_widget.dart</title>
<path fill="none" stroke="#aabbaa" stroke-width="1.3" stroke-opacity="0.533333" d="M347.35,-319.91C344.66,-309.57 341.34,-296.09 339,-284 330.14,-238.24 323.14,-184.54 319.29,-152.18"/>
<polygon fill="#aabbaa" fill-opacity="0.533333" stroke="#aabbaa" stroke-width="1.3" stroke-opacity="0.533333" points="322.79,-151.97 318.15,-142.44 315.84,-152.78 322.79,-151.97"/>
</g>
<!-- /lib/widgets/player_zone.dart&#45;&gt;/lib/widgets/playing_card.dart -->
<g id="edge19" class="edge">
<title>/lib/widgets/player_zone.dart&#45;&gt;/lib/widgets/playing_card.dart</title>
<path fill="none" stroke="#aabbaa" stroke-width="1.3" stroke-opacity="0.533333" d="M400.87,-320.92C429.23,-310.49 460.9,-296.56 469,-284 477.67,-270.55 472.5,-263.61 469,-248 453.51,-178.94 454.48,-150.36 401,-104 370.46,-77.52 326.85,-64.27 291.2,-57.64"/>
<polygon fill="#aabbaa" fill-opacity="0.533333" stroke="#aabbaa" stroke-width="1.3" stroke-opacity="0.533333" points="291.82,-54.19 281.38,-55.96 290.65,-61.09 291.82,-54.19"/>
</g>
<!-- /lib/widgets/player_zone_cta.dart -->
<g id="node13" class="node">
<title>/lib/widgets/player_zone_cta.dart</title>
<path fill="Lavender" stroke="black" stroke-width="1.3" d="M297.75,-284C297.75,-284 196.25,-284 196.25,-284 190.25,-284 184.25,-278 184.25,-272 184.25,-272 184.25,-260 184.25,-260 184.25,-254 190.25,-248 196.25,-248 196.25,-248 297.75,-248 297.75,-248 303.75,-248 309.75,-254 309.75,-260 309.75,-260 309.75,-272 309.75,-272 309.75,-278 303.75,-284 297.75,-284"/>
<text text-anchor="middle" x="247" y="-260.75" font-family="Arial" font-size="15.00">player_zone_cta</text>
</g>
<!-- /lib/widgets/player_zone.dart&#45;&gt;/lib/widgets/player_zone_cta.dart -->
<g id="edge18" class="edge">
<title>/lib/widgets/player_zone.dart&#45;&gt;/lib/widgets/player_zone_cta.dart</title>
<path fill="none" stroke="#aabbaa" stroke-width="1.3" stroke-opacity="0.533333" d="M325.77,-319.52C312.77,-310.85 296.87,-300.25 282.77,-290.85"/>
<polygon fill="#aabbaa" fill-opacity="0.533333" stroke="#aabbaa" stroke-width="1.3" stroke-opacity="0.533333" points="284.79,-287.99 274.53,-285.35 280.91,-293.81 284.79,-287.99"/>
</g>
<!-- /lib/widgets/player_header.dart -->
<g id="node15" class="node">
<title>/lib/widgets/player_header.dart</title>
<path fill="Lavender" stroke="black" stroke-width="1.3" d="M447.62,-284C447.62,-284 360.38,-284 360.38,-284 354.38,-284 348.38,-278 348.38,-272 348.38,-272 348.38,-260 348.38,-260 348.38,-254 354.38,-248 360.38,-248 360.38,-248 447.62,-248 447.62,-248 453.62,-248 459.62,-254 459.62,-260 459.62,-260 459.62,-272 459.62,-272 459.62,-278 453.62,-284 447.62,-284"/>
<text text-anchor="middle" x="404" y="-260.75" font-family="Arial" font-size="15.00">player_header</text>
</g>
<!-- /lib/widgets/player_zone.dart&#45;&gt;/lib/widgets/player_header.dart -->
<g id="edge17" class="edge">
<title>/lib/widgets/player_zone.dart&#45;&gt;/lib/widgets/player_header.dart</title>
<path fill="none" stroke="#aabbaa" stroke-width="1.3" stroke-opacity="0.533333" d="M364.85,-319.7C370.71,-311.81 377.77,-302.3 384.28,-293.55"/>
<polygon fill="#aabbaa" fill-opacity="0.533333" stroke="#aabbaa" stroke-width="1.3" stroke-opacity="0.533333" points="386.97,-295.8 390.12,-285.68 381.35,-291.62 386.97,-295.8"/>
</g>
<!-- /lib/widgets/card_piles.dart -->
<g id="node12" class="node">
<title>/lib/widgets/card_piles.dart</title>
<path fill="Lavender" stroke="black" stroke-width="1.3" d="M276.75,-212C276.75,-212 217.25,-212 217.25,-212 211.25,-212 205.25,-206 205.25,-200 205.25,-200 205.25,-188 205.25,-188 205.25,-182 211.25,-176 217.25,-176 217.25,-176 276.75,-176 276.75,-176 282.75,-176 288.75,-182 288.75,-188 288.75,-188 288.75,-200 288.75,-200 288.75,-206 282.75,-212 276.75,-212"/>
<text text-anchor="middle" x="247" y="-188.75" font-family="Arial" font-size="15.00">card_piles</text>
</g>
<!-- /lib/widgets/card_piles.dart&#45;&gt;/lib/widgets/playing_card_widget.dart -->
<g id="edge22" class="edge">
<title>/lib/widgets/card_piles.dart&#45;&gt;/lib/widgets/playing_card_widget.dart</title>
<path fill="none" stroke="#aabbaa" stroke-width="1.3" stroke-opacity="0.533333" d="M264.06,-175.7C272.16,-167.47 282.01,-157.48 290.94,-148.42"/>
<polygon fill="#aabbaa" fill-opacity="0.533333" stroke="#aabbaa" stroke-width="1.3" stroke-opacity="0.533333" points="293.23,-151.08 297.76,-141.51 288.25,-146.17 293.23,-151.08"/>
</g>
<!-- /lib/widgets/card_piles.dart&#45;&gt;/lib/widgets/playing_card.dart -->
<g id="edge21" class="edge">
<title>/lib/widgets/card_piles.dart&#45;&gt;/lib/widgets/playing_card.dart</title>
<path fill="none" stroke="#aabbaa" stroke-width="1.3" stroke-opacity="0.533333" d="M240.91,-175.57C237.64,-165.34 233.89,-152.09 232,-140 228.91,-120.18 228.18,-97.6 228.21,-80.14"/>
<polygon fill="#aabbaa" fill-opacity="0.533333" stroke="#aabbaa" stroke-width="1.3" stroke-opacity="0.533333" points="231.71,-80.19 228.33,-70.14 224.71,-80.1 231.71,-80.19"/>
</g>
<!-- /lib/widgets/player_zone_cta.dart&#45;&gt;/lib/game_model.dart -->
<g id="edge23" class="edge">
<title>/lib/widgets/player_zone_cta.dart&#45;&gt;/lib/game_model.dart</title>
<path fill="none" stroke="#aabbaa" stroke-width="1.3" stroke-opacity="0.533333" d="M184.1,-266C175.45,-266 166.8,-266 158.15,-266"/>
<polygon fill="#aabbaa" fill-opacity="0.533333" stroke="#aabbaa" stroke-width="1.3" stroke-opacity="0.533333" points="158.33,-262.5 148.33,-266 158.33,-269.5 158.33,-262.5"/>
</g>
<!-- /lib/widgets/player_zone_cta.dart&#45;&gt;/lib/widgets/playing_card_widget.dart -->
<g id="edge25" class="edge">
<title>/lib/widgets/player_zone_cta.dart&#45;&gt;/lib/widgets/playing_card_widget.dart</title>
<path fill="none" stroke="#aabbaa" stroke-width="1.3" stroke-opacity="0.533333" d="M268.86,-247.51C279.23,-238.07 290.89,-225.57 298,-212 307.71,-193.49 312.19,-170.27 314.25,-152.19"/>
<polygon fill="#aabbaa" fill-opacity="0.533333" stroke="#aabbaa" stroke-width="1.3" stroke-opacity="0.533333" points="317.73,-152.59 315.17,-142.31 310.76,-151.94 317.73,-152.59"/>
</g>
<!-- /lib/widgets/player_zone_cta.dart&#45;&gt;/lib/widgets/card_piles.dart -->
<g id="edge24" class="edge">
<title>/lib/widgets/player_zone_cta.dart&#45;&gt;/lib/widgets/card_piles.dart</title>
<path fill="none" stroke="#aabbaa" stroke-width="1.3" stroke-opacity="0.533333" d="M247,-247.7C247,-240.49 247,-231.93 247,-223.82"/>
<polygon fill="#aabbaa" fill-opacity="0.533333" stroke="#aabbaa" stroke-width="1.3" stroke-opacity="0.533333" points="250.5,-224.07 247,-214.07 243.5,-224.07 250.5,-224.07"/>
</g>
</g>
</svg>
